<?xml version="1.0" encoding="utf-8"?>
<!-- Generator: Adobe Illustrator 23.0.3, SVG Export Plug-In . SVG Version: 6.00 Build 0)  -->
<svg version="1.1" id="Layer_2" xmlns="http://www.w3.org/2000/svg" xmlns:xlink="http://www.w3.org/1999/xlink" x="0px" y="0px"
	 viewBox="0 0 82.9 32.9" style="enable-background:new 0 0 82.9 32.9;" xml:space="preserve">
<style type="text/css">
	.st0{fill:#302148;}
</style>
<path class="st0" d="M20.9,16.9L20.9,16.9c-0.1,0-0.1,0-0.3,0.1l0,0l0,0c0,0-0.1,0-0.1,0.1c0,0.1,0,0.1,0.1,0.1h0.1l0,0
	c0,0,0,0,0.1,0l0,0l0,0C21,17.1,21,17,20.9,16.9C21,16.9,21,16.9,20.9,16.9z M68.6,14.3c0.1-0.1,0.1-0.3,0.1-0.4l0,0
	c-0.1,0-0.3,0-0.4,0.1l0,0l0,0l0,0c0,0,0,0-0.1,0c0,0,0,0.1,0,0c0.1,0,0.4-0.1,0.3,0.1c-0.1,0.1-0.3,0.1-0.4,0.1
	c-0.4,0-0.6-0.3-0.8-0.5c0-0.3,0-0.6,0.1-0.9c0.1-0.1,0.1-0.1,0.3-0.3c0.1,0,0.1-0.1,0.3-0.1l0,0l0,0c0,0,0.1,0,0.1-0.1
	c0.1,0,0.1-0.1,0-0.1c-0.3,0-0.5,0.1-0.6,0.4C67,13,66.8,13.8,67,14.3c0.3,0.5,0.9,0.5,1.3,0.3C68.4,14.6,68.6,14.4,68.6,14.3z
	 M19.9,15.6c0.1,0,0.3,0,0.3-0.1c0.1,0,0.1-0.1,0.1-0.1l0,0l0,0c0.1-0.1,0-0.4-0.1-0.5c-0.1,0-0.1,0-0.3,0.1l0,0
	c-0.1,0-0.3,0.1-0.4,0.3c-0.1,0.1-0.3,0.3-0.1,0.4C19.6,15.6,19.8,15.6,19.9,15.6z M19.9,15.1L19.9,15.1
	C19.9,15.2,20,15.2,19.9,15.1c0.1,0,0.1,0,0.1,0l0,0l0,0C20.1,15.2,20,15.2,19.9,15.1C20,15.2,20,15.2,19.9,15.1
	C19.9,15.2,19.9,15.2,19.9,15.1C19.9,15.2,19.9,15.2,19.9,15.1C19.9,15.2,19.9,15.1,19.9,15.1z M20.6,18.5l-0.1,0.1l0,0
	c-0.1,0-0.1,0.1-0.3,0.3c0,0.1,0,0.1,0.1,0.1l0,0l0,0c0,0,0,0,0-0.1l0,0C20.6,18.8,20.6,18.6,20.6,18.5L20.6,18.5z M20.3,16.5
	L20.3,16.5L20.3,16.5c0.1-0.1,0-0.1,0-0.1c-0.1,0-0.1,0-0.3,0l0,0c0-0.1-0.1-0.1-0.1,0c0,0,0,0-0.1,0c0,0-0.1,0-0.1,0.1l0,0l0,0
	c-0.1,0-0.1,0.1,0,0.3c0,0,0,0.1,0.1,0.1s0.3,0,0.4-0.1C20.1,16.6,20.3,16.6,20.3,16.5z M20.3,17.9C20.4,17.9,20.4,17.9,20.3,17.9
	C20.4,17.9,20.4,17.9,20.3,17.9C20.4,17.8,20.4,17.8,20.3,17.9c0.1-0.1,0.1-0.3,0.1-0.3c-0.1-0.1-0.4,0-0.4,0s0,0,0,0.1l0,0
	c0,0,0,0-0.1,0c-0.1,0.1,0,0.3,0.1,0.1l0,0l0,0C20.1,18,20.3,18,20.3,17.9L20.3,17.9z M60.1,12.3L60.1,12.3
	C60.2,12.3,60.2,12.3,60.1,12.3C60.2,12.3,60.2,12.3,60.1,12.3C60.2,12.2,60.2,12.2,60.1,12.3c0.1-0.1,0.1-0.1,0.1-0.1V12
	c0-0.1-0.1-0.1-0.1-0.1c-0.1,0-0.1,0-0.1,0.1l0,0c0,0-0.1,0-0.1,0.1S59.9,12.3,60.1,12.3z M60.3,16.5c0-0.1-0.1-0.1-0.3,0l0,0l0,0
	h-0.1c0,0.1-0.1,0.3,0,0.3l0,0l0,0c-0.1,0.1,0,0.3,0.1,0.3l0,0c0,0,0,0,0.1,0l0,0c0,0,0.1,0,0.1-0.1l0.1-0.1
	C60.4,16.7,60.3,16.6,60.3,16.5z M59.5,14.8c0,0-0.1,0-0.1,0.1l0,0l0,0c0,0-0.1,0-0.1,0.1s0,0.1,0,0.3c0,0.1,0.1,0.1,0.3,0
	c0,0,0.1,0,0.1-0.1l0,0l0,0c0,0,0.1,0,0.1-0.1C59.7,15.1,59.7,14.8,59.5,14.8z M59.4,18.9L59.4,18.9C59.4,18.9,59.5,18.9,59.4,18.9
	c0.1-0.1,0.1-0.1,0.1-0.1s0,0,0-0.1c0,0,0-0.1-0.1-0.1s-0.3,0-0.3,0.1l0,0c0,0-0.1,0-0.1,0.1C59.2,18.9,59.3,19,59.4,18.9z
	 M60.7,17.2C60.7,17.2,60.6,17.2,60.7,17.2c-0.1,0-0.1,0-0.1,0.1l0,0l0,0c-0.1,0-0.1,0.1,0,0.1c0,0,0,0,0.1,0h0.1c0,0,0.1,0,0.1-0.1
	C60.8,17.4,60.8,17.2,60.7,17.2z M60.3,13.8c0,0.1,0.1,0.3,0.3,0.3c0.1,0,0.1,0,0.3-0.1c0,0,0.1,0,0.1-0.1l0.1-0.1
	c0.1-0.1,0.1-0.4,0.3-0.5V13c-0.1,0-0.3,0-0.4,0s-0.1,0.1-0.1,0.1c-0.1,0.1-0.1,0.3-0.1,0.4l0,0l0,0l0,0
	C60.3,13.7,60.2,13.7,60.3,13.8z M60.6,13.4L60.6,13.4c0.1,0,0.1-0.1,0.1-0.1h0.1c0,0.1-0.1,0.3-0.1,0.4
	C60.7,13.7,60.6,13.6,60.6,13.4C60.6,13.6,60.6,13.4,60.6,13.4L60.6,13.4z M59.4,19.9C59.4,19.9,59.3,20,59.4,19.9
	c-0.1,0-0.1,0.1-0.1,0.3l0,0l0,0c0,0-0.1,0-0.1,0.1l0,0l0,0c-0.1,0-0.1,0.3,0,0.3c0.1,0,0.3,0,0.4-0.1c0,0,0.1,0,0.1-0.1l0,0l0,0
	c0.1-0.1,0-0.3-0.1-0.4C59.5,19.8,59.4,19.9,59.4,19.9z M18.1,17.9L18.1,17.9L18.1,17.9z M58.7,12.9L58.7,12.9
	c-0.1,0-0.1,0.1-0.1,0.1v0.1l0,0c0,0,0,0-0.1,0.1l-0.1,0.1c0,0,0,0.1,0.1,0.1h0.1h0.1c0,0,0.1,0,0.1-0.1l0,0l0,0
	c0.1-0.1,0.1-0.4,0.1-0.5C58.9,12.8,58.7,12.8,58.7,12.9z M58.3,16.6c0-0.1-0.3-0.1-0.3,0l0,0c0,0-0.1,0-0.1,0.1
	c0,0.3,0.1,0.5,0.4,0.5c0,0,0,0,0.1,0l0,0c0,0,0.1,0,0.1-0.1c0,0,0.1-0.1,0-0.1C58.4,16.9,58.3,16.7,58.3,16.6z M70.5,13.8
	c-0.1,0-0.3-0.1-0.4-0.1c-0.1,0-0.3,0-0.3,0.1l0,0c-0.1,0-0.1,0.1-0.1,0.1c0,0.1,0.1,0.4,0.3,0.4h0.1c0,0,0.1,0,0.1-0.1
	c0,0,0.1-0.1,0-0.1l0,0l0,0c0,0,0,0,0.1,0c0,0,0,0,0.1,0l0,0l0,0l0,0l0,0l0,0l0,0l0,0l0,0l0,0c0,0,0,0-0.1,0.1l0,0l0,0l0,0l0,0
	c0,0,0,0-0.1,0.1v0.1c0.1,0,0.3,0,0.3-0.1c0.1,0,0.1-0.1,0.1-0.1s0-0.1,0.1-0.1c0-0.1,0-0.3-0.1-0.4C70.7,13.9,70.6,13.9,70.5,13.8z
	 M18,17.9L18,17.9L18,17.9z M69.8,11.8L69.8,11.8c0.3-0.3,0.1-0.6,0-0.9s-0.4-0.5-0.8-0.6c-0.3-0.1-0.5-0.1-0.8,0l-0.1,0.1l0,0
	c-0.4,0.3-0.1,0.8-0.1,1.1c0,0.1,0.1,0.1,0.1,0c0,0,0.1,0,0.1-0.1l0,0l0,0c0-0.1,0-0.5,0-0.8l0,0l0,0c0.3,0,0.4,0.1,0.5,0.3
	c0.1,0.1,0.4,0.3,0.5,0.5c0.1,0.1,0.1,0.4,0.3,0.5C69.7,11.9,69.7,11.9,69.8,11.8L69.8,11.8L69.8,11.8z M19.2,12.7h0.1h0.1
	c0,0,0.1,0,0.1-0.1c0.1,0,0.1-0.3,0-0.3h-0.1c-0.1,0-0.1,0-0.1,0.1l0,0C19.1,12.4,19.1,12.7,19.2,12.7z M20.1,14.3
	c0.1,0,0.1,0,0.3,0l0.1-0.1c0,0,0-0.1,0.1-0.1c0-0.1-0.1-0.1-0.1,0l0,0l0,0c0,0-0.1,0-0.1,0.1C20.1,14.2,20.1,14.2,20.1,14.3
	C20,14.2,20,14.3,20.1,14.3z M18,15.1L18,15.1C18,15.2,18,15.2,18,15.1C18,15.2,18,15.2,18,15.1C18,15.2,18,15.2,18,15.1
	C18,15.2,18,15.2,18,15.1c0.1,0,0.1,0,0.1,0s0,0,0.1,0h0.1h0.1c0,0,0.1,0,0.1-0.1c0.1,0,0.1-0.3,0-0.3h-0.1h-0.1l0,0c0,0,0,0-0.1,0
	c0,0-0.1,0-0.1,0.1l0,0l0,0l0,0c0,0-0.1,0-0.1,0.1C17.9,15,17.9,15,18,15.1C17.9,15,17.9,15,18,15.1C17.9,15,17.9,15.1,18,15.1
	C17.9,15.1,17.9,15.1,18,15.1L18,15.1z M18,18L18,18L18,18z M19.1,18.3c-0.1,0-0.1,0.1-0.1,0.1l0,0l0,0c0-0.1-0.1-0.1-0.1,0l0,0l0,0
	c0,0-0.1,0-0.1,0.1s0,0.3,0.1,0.4c0,0,0.1,0.1,0.1,0l0,0l0,0c0.1,0,0.1-0.1,0.1-0.3c0.1-0.1,0.1-0.3,0.1-0.4
	C19.2,18.3,19.2,18.1,19.1,18.3z M19.2,15.7c-0.1,0-0.3,0-0.3,0.1l0,0c0,0-0.1,0-0.1,0.1c-0.1,0.1-0.1,0.3,0,0.4H19l0,0l0,0
	c0,0,0,0,0.1-0.1v-0.1l0,0h0.1c0,0,0.1,0,0.1-0.1C19.4,16,19.4,15.7,19.2,15.7z M19.4,14.3c0-0.1,0-0.3,0-0.5c0-0.1-0.1-0.1-0.1,0
	l0,0l0,0c0,0-0.1,0-0.1,0.1c0,0.4,0,0.8,0.3,1h0.1c0,0,0.1,0,0.1-0.1l0,0c0,0,0,0,0-0.1C19.5,14.7,19.4,14.6,19.4,14.3z M69.6,16.6
	c-0.1,0-0.3-0.1-0.4-0.1c0,0,0.1-0.1,0.1-0.3s-0.1-0.1-0.1-0.1l-0.1,0.1l0,0c-0.1,0-0.1,0.1-0.1,0.1c-0.1,0-0.3,0-0.4-0.1
	c-0.1,0-0.3-0.3-0.3-0.4l0,0l0,0l0,0c0,0,0,0,0-0.1l0,0c0.1,0,0-0.1,0-0.1c-0.1,0-0.3,0.1-0.3,0.1c-0.3,0.1-0.1,0.5,0.1,0.8
	c0.3,0.3,0.5,0.3,0.8,0.1c0.1,0.1,0.3,0.3,0.5,0.1l0,0l0,0C69.6,16.7,69.6,16.7,69.6,16.6C69.6,16.7,69.6,16.7,69.6,16.6L69.6,16.6z
	 M82.3,14.1c-0.1,0-0.4-0.1-0.5-0.1c-0.5-0.3-1.3-0.4-1.8-0.5c-0.8-0.1-1.5-0.1-2.4-0.1c-0.8,0-1.7,0-2.4,0c-0.6,0-1.4-0.1-2.2-0.1
	c0-0.1,0-0.3,0-0.4c0-0.8-0.6-1-1.3-1c0.1-0.4,0-0.9-0.1-1.3c-0.4-0.6-1-0.8-1.7-0.8C70.5,9.1,69.5,8,68.7,8c-0.6,0-1.4,0.1-1.7,0.5
	c-0.1,0.1-0.3,0.3-0.3,0.4c-0.4,0-0.8,0.3-1,0.5l-0.1,0.1c-0.3,0.4-0.1,0.6,0,1c0.1,0.5,0.1,1.1,0.4,1.8c-0.3,0-0.6,0.1-0.8,0.3
	c-0.3,0.1-0.5,0.1-0.6,0.4c-0.1-1.5-0.3-2.9-0.4-4.4c0-0.1-0.1-0.1-0.1-0.1c-0.9,0-1.7-0.4-2.4-0.6c-0.6-0.3-1.3-0.3-2-0.3h-0.1
	c-0.4,0-1,0.1-1.3,0.5C58.1,8.1,58,8.3,58,8.6c-0.5,0.5-0.8,1.3-0.9,2c-0.1,0.6-0.3,1.4-0.3,2c-0.6-0.9-1.7-1.4-2.8-1.7
	c-1.3-0.3-2.3,0.3-2.9,1c-0.3,0.3-0.5,0.5-0.6,0.9c0.1-0.9,0.1-1.9,0.3-2.8c0-0.5,0.1-1.1,0.3-1.7c0-0.4,0.1-0.8,0-1.1l0,0
	c0.1-0.1-0.1-0.3-0.3-0.3c-0.5,0.3-1,0.3-1.5,0.4c-0.4,0.1-0.9,0.3-1.3,0.3c-0.1,0-0.1,0-0.1,0.1l0,0l0,0c0,0-0.1,0-0.1,0.1
	c-0.1,0.3-0.3,0.6-0.3,0.9c0,0.1-0.1,0.4-0.1,0.5l-0.1,0.1c0,0.1,0,0.1,0.1,0.1c-0.4,1.9-0.4,3.8-0.5,5.7c-0.1,0-0.1,0-0.3,0
	c-0.1,0-0.1,0-0.3,0c-0.1-0.5-0.1-1-0.3-1.5c-0.1-0.8-0.4-1.7-0.5-2.4c-0.1-0.5-0.4-1.4-0.3-2c0,0,0-0.1,0.1-0.1
	c0-0.1,0.1-0.1,0.1-0.3c0-0.1,0-0.1,0-0.1l0,0c0-0.1,0-0.1-0.1-0.1c0,0,0,0-0.1-0.1h-0.1c-1,0.8-2.4,1-3.3,1.9
	c-0.1,0.1-0.1,0.1-0.3,0.3c0,0,0,0.1,0.1,0.1c0.3-0.1,0.5-0.3,0.8-0.4c0.4-0.3,0.8-0.4,1.3-0.6c0.3-0.1,0.5-0.3,0.9-0.4
	c0,0,0.4-0.3,0.5-0.3v0.1c-0.3,0.3-0.5,0.5-0.6,0.8h-0.1c-0.5,0.1-0.9,0.4-1.4,0.5c-0.4,0.1-0.6,0.1-1,0.4l0,0c0,0-0.1,0-0.1,0.1
	l0,0l0,0c0,0-0.1,0-0.1,0.1c-0.1,0.9,0.1,1.8,0.3,2.7c-0.8-0.8-1.9-1.3-3.1-1.4c-1.3-0.1-2.8,0.5-3.7,1.5c-0.6,0.6-1,1.4-1.1,2.3
	C34,16.6,34,16.7,34,17c-0.8-1.4-1.3-2.7-2-3.6c-1-1.4-2.5-2.4-4.3-2.4c-0.5,0-1,0.1-1.3,0.5c-0.1,0.1-0.3,0.3-0.4,0.5
	c-0.1,0.4,0,0.8,0,1.1c0,0.4,0,0.8,0.1,1c-0.3-0.1-0.6,0-0.9,0c-0.6,0.1-1.3,0.3-1.9,0.4c-0.1,0-1,0.4-1.3,0.8
	c-0.1-1.5-0.5-3.1-1.1-4.4c-0.4-0.6-0.9-1.3-1.5-1.5c0.1,0,0-0.1,0-0.1c-0.1,0-0.1,0-0.3,0C18,8.9,16.7,9,15.4,9.1
	c0,0-0.1,0-0.1,0.1l0,0l0,0l0,0c0,0-0.1,0-0.1,0.1l0,0l0,0c-0.8,0.8-0.9,2-1.1,3.1c-0.3,1.1-0.5,2.4-0.6,3.6c-0.9-0.1-1.9,0-2.8-0.1
	c-1.3,0-2.5-0.1-3.8-0.3c-1-0.1-2-0.1-3.2-0.1c0.1,0,0.3,0,0.4,0c1,0,1.9,0,2.9,0c2,0,4.1,0.1,6.1,0.1h0.1c0,0,0.1,0,0.1-0.1
	c0.1,0,0.1-0.3-0.1-0.3c-1,0-2,0-3.1,0c-1.1,0-2.2,0-3.3-0.1c-1,0-2.2,0-3.2,0c-0.8,0-1.7,0.1-2.4,0.3c-0.3,0-0.4,0-0.6,0
	c0,0-0.1,0,0,0.1l0,0l0,0l0,0c-0.1,0-0.1,0.1,0,0.1c2.3,0.1,4.7,0.3,7,0.4c1.1,0.1,2.4,0.1,3.6,0.1c0.8,0,1.7,0.1,2.4,0.1
	c0,0.1,0,0.3,0,0.4c0,1.1,0,2.3,0.4,3.4c0.3,0.9,0.6,2,1.4,2.7c0,0,0,0.1,0.1,0.1c1.4,0.5,2.8,0,3.9-0.8c0.5-0.3,0.9-0.6,1.3-1
	c0.3-0.3,0.4-0.5,0.5-0.8c0.3-0.4,0.4-0.8,0.6-1.1c0.6,0.5,1.7,0.5,2.4,0.4c0.9-0.1,1.8-0.3,2.5-0.6l0,0c0.1,0.1,0.1,0.3,0.3,0.4
	c0.1,0.3,0.4,0.5,0.5,0.8c0.3,0.4,0.5,0.8,0.8,1.1c-0.1,0.5-0.1,0.8-0.1,1c-0.3,0.4-0.3,0.8,0,1l0,0c0,0.1,0.1,0.1,0.3,0.1h0.1
	c0.1,0,0.1,0,0.3,0h0.1c1,0,1.9,0,2.8-0.5l0.1-0.1c0.4-0.3,0.8-0.6,1-1.1c0.4-0.5,0.5-1,0.6-1.5c0.1-0.4,0.1-0.8,0.1-1.1
	c0.8,1.8,3.2,2.8,5,2.8c0.9,0,1.5-0.3,2.2-0.6c0.5-0.3,0.9-0.8,1.1-1.1s0.5-0.9,0.6-1.3c0.3,1.8,0.5,3.6,1.1,5.1
	c0,0.1,0.1,0.1,0.3,0.1H44c0.4-0.3,0.8-0.4,1.3-0.5c-0.4,0.6-0.4,1.5-0.4,2.3c0,0.1,0.1,0.1,0.3,0.1c1.1-0.3,2-0.9,3.2-1h0.1
	c0,0,0.1,0,0.1-0.1c0,0,0,0,0-0.1c0-0.1,0-0.1,0-0.3c0,0,0,0,0.1-0.1c0.1,0,0.3-0.1,0.4,0h0.1c0,0,0.1,0,0.1-0.1c0,0,0,0,0-0.1
	c0.4-1.4,0.1-2.9,0.4-4.3c0.1-1.1,0.3-2.3,0.4-3.4c0.1,0.5,0.5,0.9,1,1.4c1.4,1.3,3.4,1.3,4.8,0.3c0.3-0.3,0.6-0.5,0.9-0.8
	c-0.1,1.3-0.3,2.5,0.1,3.7c0.1,0.6,1,2.2,1.9,1.9l0,0c0.3,0.1,0.4,0.1,0.6,0c0.3,0,0.5,0.1,0.9,0.3c0.4,0,0.8,0,1-0.1
	c0.5-0.1,1.1-0.4,1.5-0.8c0.1,0,0.1-0.1,0.3-0.3c0.1-0.1,0.4-0.4,0.5-0.5c0.5-0.8,0.8-1.8,0.9-2.7c0.1-0.9,0.3-1.8,0.3-2.7
	c0,0,0,0,0.1-0.1l0,0l0,0l0,0l0.1-0.1c0.4-0.3,0.8-0.3,1.1-0.4c0,0.3-0.1,0.6,0.1,0.8c0,0-0.3,0.9-0.3,1c0.1,0.4,0.4,0.6,0.6,0.8
	c-0.3,0.4-0.4,1-0.3,1.5c0.1,0.9,1,0.6,1.7,0.4c0,0.9,1.1,1.8,2,1.3c0,0,0,0,0.1,0l0,0c0.1,0,0.3-0.3,0.4-0.4c0.3-0.4,0.5-1,0.4-1.4
	c0,0,0.1,0,0.1-0.1c0.1-0.1,0.3-0.3,0.4-0.4c0.4-0.5,0.4-1.4,0.3-1.9l0,0c0.3-0.1,0.5-0.4,0.6-0.6c0.3-0.4,0.5-1,0.5-1.4
	c0.5,0,1,0,1.5,0c0.9,0,1.8,0,2.7-0.1c1.8-0.1,3.4-0.1,5.2-0.3l0,0l0,0c0,0,0,0,0-0.1l0,0C82.4,14.2,82.4,14.1,82.3,14.1z M50.6,8.1
	c0-0.1,0-0.1,0.1-0.3c0,0.1,0,0.3-0.1,0.4C50.6,8.2,50.6,8.2,50.6,8.1L50.6,8.1z M15.8,22.6C15.7,22.6,15.7,22.6,15.8,22.6
	c-0.1,0-0.3-0.1-0.3-0.1s0,0-0.1,0c-0.5-0.9-0.9-1.5-1.1-2.5c-0.3-1-0.4-2.2-0.3-3.3v-0.1c0-0.1,0-0.3,0-0.4l0,0
	c0.1-1.3,0.4-2.4,0.6-3.7c0.1-0.5,0.3-1,0.4-1.7c0.1-0.3,0.1-0.6,0.3-0.9c0-0.1,0.1-0.3,0.1-0.3l0,0c0,0,0,0,0.1,0l0,0
	c0,0,0,0,0.1,0l0,0c1,0,1.9-0.1,2.9,0c0.1,0,0.1,0,0.3,0c-0.4,0.4-0.5,1-0.8,1.4c-0.3,0.6-0.5,1.3-0.8,1.9c-0.1,0.8-0.3,1.5-0.4,2.3
	c-0.3,2.3,0.1,5.2,1.5,7C17.6,22.7,16.6,22.8,15.8,22.6z M20.4,20.5c-0.1,0.3-0.4,0.5-0.6,0.8c-0.3,0.3-0.5,0.5-0.9,0.6h-0.1
	c-1.3-1.9-1.8-4.1-1.5-6.4c0.1-1.4,0.3-2.8,0.8-4.1c0.1-0.4,0.4-0.8,0.5-1.1c0.1-0.1,0.1-0.5,0.4-0.6c0,0,0-0.1,0.1-0.1
	c0.8,0.3,1.1,0.8,1.5,1.5c0.8,1.4,1,3.1,1.1,4.6C21.7,17.5,21.3,19.2,20.4,20.5z M28.1,20.5C28.3,20.5,28.3,20.5,28.1,20.5
	c0-0.6-0.5-0.9-0.9-1.3l-0.1-0.1l0,0c0.1,0,0.1,0,0.1,0s0.1,0,0.1-0.1c0.1,0,0.1-0.1,0-0.3l-0.1-0.1h0.1c0.1,0,0.3,0,0.4-0.1
	c0,0,0.1,0,0.1-0.1c0.1,0,0.1-0.1,0.1-0.1c0.1-0.1,0.1-0.1,0-0.3c-0.1-0.3-0.5-0.4-0.9-0.5c0.4,0,0.8,0,1-0.3c0,0,0.1,0,0.1-0.1
	c0,0,0,0,0-0.1l0,0c0,0,0.1-0.1,0-0.3c-0.4-0.4-0.9-0.4-1.4-0.5c0.4-0.1,0.8-0.1,1-0.3l0,0c0,0,0,0,0.1,0c0,0,0,0,0-0.1l0,0
	c0.1-0.1,0-0.3-0.1-0.3c0,0-0.5,0-1-0.1c-0.3-0.1-0.4-0.1-0.4-0.3l0,0l0.1-0.1c0.1-0.1,0.4-0.3,0.6-0.3l0,0l0,0c0,0,0,0,0-0.1
	c0.1,0,0.1-0.1,0-0.1c-0.4,0-0.9,0.3-1.1,0.5c-0.1,0.1-0.1,0.1-0.3,0.3v0.1c0.3,0.4,0.8,0.5,1.3,0.5c-0.3,0-0.5,0.1-0.6,0.3
	c0,0,0,0,0,0.1c0,0,0,0-0.1,0.1c-0.1,0-0.1,0.1,0,0.3c0.4,0.3,1,0.3,1.4,0.5c-0.5,0.1-1,0-1.5,0.1c0,0-0.1,0-0.1,0.1l0,0
	c-0.1,0-0.1,0.1-0.1,0.3c0.3,0.3,0.8,0.4,1.1,0.5c0.1,0,0.3,0.1,0.3,0.1l0,0c-0.1,0-0.4,0-0.5,0c-0.3-0.1-0.5-0.1-0.6,0
	c0,0,0,0,0,0.1l0,0l0,0c0,0,0,0-0.1,0c-0.1,0,0,0.1,0,0.3l0,0l0,0c-0.1,0-0.1,0.1-0.1,0.1c-0.6,0-1.4,0.4-2,0.5c-0.1,0-0.5,0-1,0
	c-0.1,0-0.9-0.1-1-0.3c0-0.1,0-0.1-0.1-0.1l0,0c0,0,0,0-0.1,0c0.3-0.9,0.4-1.9,0.4-2.8c0-0.1,0-0.3,0-0.3l0,0c0,0,0.1,0,0.1-0.1l0,0
	c0,0,0,0,0-0.1v-0.1l0.1-0.1c0.4-0.3,1.3-0.5,1.4-0.5c0.8-0.3,1.5-0.3,2.3-0.4c0,0,0,0,0.1,0l0,0c0,0,0,0,0.1,0l0,0h0.1
	c0,0,0.1,0,0.1-0.1l0,0h0.1c0,0,0.1,0,0.1-0.1l0,0c0,0,0,0,0-0.1c0-0.1,0-0.3,0.1-0.4c0-0.1,0.1-0.1,0.3-0.3
	c0.3-0.1,0.4-0.3,0.6-0.3c0.4-0.1,0.9,0,1.3,0.3c0.8,0.4,1.3,1,1.8,1.7c0.8,1.3,0.6,2.8,0,4.1c-0.3,0.6-0.6,1-1.1,1.5
	c-0.3,0.3-0.6,0.6-0.9,0.9c0-0.1,0-0.4-0.1-0.5C28.4,20.9,28.3,20.8,28.1,20.5z M33.1,20c-0.1,0.8-0.5,1.4-1,1.9
	c-0.3,0.3-0.5,0.4-0.8,0.5c-0.8,0.4-1.8,0.3-2.7,0.3c0-0.3,0-0.5,0-0.6c0.1-0.1,0.3-0.3,0.4-0.4c0.5-0.5,1-0.9,1.4-1.5
	c0.1-0.1,0.1-0.1,0.3-0.3c0.6-1,1.1-2.3,0.9-3.6c-0.3-1.4-1.1-2.8-2.4-3.4c-0.6-0.4-2-0.4-2.4,0.3c-0.1,0.1-0.3,0.3-0.3,0.4
	c0-0.3,0-0.4,0-0.6c0-0.4-0.1-0.8-0.1-1.1c0-0.1,0-0.1,0.1-0.3l0.1-0.1c0.4-0.3,1-0.3,1.4-0.1c1.8,0.3,3.1,1.4,3.9,2.9
	C33,16,33.5,18.1,33.1,20z M48,8L48,8C48.1,8,48.1,8,48,8c0.5,0,1-0.1,1.5-0.3c0.3,0,0.6-0.1,0.9-0.3c0,0.1-0.1,0.3-0.3,0.5
	c-0.4,0-0.8,0.4-1.3,0.5c-0.4,0.1-0.9,0.1-1.3,0.4C47.9,8.5,47.9,8.1,48,8z M46.7,15.5L46.7,15.5L46.7,15.5
	C46.7,15.5,46.6,15.5,46.7,15.5C46.6,15.5,46.6,15.5,46.7,15.5z M46.5,15.8c0.1,0,0.1,0,0.3,0c0,0.4-0.1,0.8-0.1,1
	C46.6,16.6,46.5,16.2,46.5,15.8L46.5,15.8z M46.5,15.6C46.3,15.6,46.3,15.6,46.5,15.6C46.3,15.6,46.3,15.6,46.5,15.6
	C46.3,15.6,46.3,15.6,46.5,15.6z M44.3,10.6L44.3,10.6c0.1-0.1,0.1-0.3,0.1-0.3c0.1-0.1,0.3-0.4,0.4-0.5c0,0.3,0,0.5,0,0.6
	c0.1,0.9,0.4,1.9,0.5,2.8c0.3,1.4,0.5,2.8,0.6,4.1c0.1,0.9,0.3,1.7,0.4,2.5c0.1,0.6,0.1,1.3-0.1,1.9c0-0.3-0.1-0.4-0.3-0.6
	c-0.3-0.6-0.4-1.1-0.5-1.8c-0.3-1.5-0.6-3.1-0.8-4.6c-0.1-0.8-0.1-1.4-0.3-2.2C44.5,12,44.3,11.3,44.3,10.6L44.3,10.6z M41.6,20
	c-0.1,0.1-0.3,0.4-0.4,0.5c-1.7,1.5-4.4,0.8-6-0.6c-0.9-0.8-1.4-1.7-1.3-2.8V17c0,0,0,0,0-0.1l0,0c0,0,0,0,0-0.1
	c0.1-0.4,0.3-0.8,0.4-1.1c0-0.3,0.1-0.5,0.3-0.6c0.1-0.1,0.1-0.3,0.3-0.3l0,0c0,0,0-0.1,0.1-0.1c0,0,0,0-0.1,0c0,0,0,0,0-0.1
	c0.3-0.4,0.5-0.6,0.9-1c1.1-0.8,2.8-0.8,4.1-0.3c1,0.4,1.7,1,2,1.8c0.1,0.8,0.4,1.5,0.5,2.3C42.4,18.3,42.1,19.2,41.6,20z
	 M44.4,23.3h-0.1c0,0,0-0.1-0.1-0.1c-0.8-1.8-0.9-3.9-1.3-5.8c0-0.1,0-0.1,0-0.3c0-0.9-0.1-1.8-0.5-2.5c0-0.1-0.1-0.4-0.1-0.5
	c-0.3-1-0.6-1.9-0.5-2.9l0,0c0,0,0.1,0,0.1-0.1c0.3-0.1,0.6-0.1,0.9-0.3c0.4-0.1,0.6-0.3,1-0.4c-0.1,1.1,0.4,2.2,0.5,3.3
	c0.3,1.5,0.5,2.9,0.8,4.4c0.1,0.6,0.3,1.4,0.4,2c0.1,0.5,0.4,0.9,0.5,1.4c0.1,0.3,0.1,0.6,0,0.9c0,0,0,0,0,0.1
	c-0.1,0.1-0.4,0.3-0.5,0.3C45.2,23.1,44.8,23.2,44.4,23.3z M48.5,22.5c0,0.4-0.1,0.9-0.1,1.3c0,0.1,0,0.3,0,0.4c0,0-0.1,0.1-0.1,0.3
	c0,0,0,0,0,0.1c-0.1,0-0.4,0-0.4,0.1c-0.8,0.3-1.5,0.5-2.3,0.8c0-0.6,0.1-1.4,0.4-1.9l0.1-0.1l0,0l0,0v-0.1c0.1-0.1,0.1-0.1,0.1-0.3
	h0.1h0.1c0,0,0-0.1,0.1-0.1c0.8-1.1,0.5-2.3,0.3-3.7c0-0.4-0.1-0.6-0.1-1l0,0l0,0c0,0,0,0,0-0.1c0.5-2.8,0.3-5.6,0.8-8.4l0,0l0,0
	c0.5-0.4,1.1-0.3,1.7-0.5c0,0,0.5-0.4,0.8-0.4c0,0.1,0,0.1,0,0.3c0,0,0,0.1,0.1,0.1c-0.1,0.4-0.1,0.8-0.3,1.1
	c-0.4,2.2-0.6,4.3-0.9,6.5C48.9,18.4,48.7,20.4,48.5,22.5z M50.4,10c-0.1,1.7-0.3,3.3-0.5,5c-0.3,1.5-0.4,3.1-0.5,4.6
	c-0.1,1.3,0,2.7-0.3,4.1c-0.1,0-0.3,0-0.4,0.1c0-1,0.3-2.2,0.4-3.2c0.1-1.3,0.3-2.7,0.4-3.9c0.3-2.3,0.6-4.6,1-6.9
	C50.4,10,50.4,10,50.4,10z M56.4,17c-1.1,1.1-3.1,1.3-4.6,0.3c-0.8-0.5-1.3-1.3-1.4-2.2c0-0.5,0.1-0.9,0.1-1.4
	c0-0.1,0.1-0.3,0.1-0.3c0-0.1,0.1-0.1,0.1-0.3c0-0.1,0.1-0.1,0.1-0.3l0,0c0,0,0,0,0-0.1c-0.1,0-0.3,0.1-0.4,0.1
	c0-0.1,0.1-0.3,0.1-0.4c0-0.1,0.1-0.1,0.1-0.3c0.1-0.3,0.4-0.5,0.6-0.6c0.4-0.3,1-0.5,1.5-0.5c1-0.1,2.2,0.4,2.9,1
	c1,0.8,1.3,2,0.9,3.3C57,16.2,56.7,16.6,56.4,17z M59.5,22.1C59.5,22.1,59.4,22.1,59.5,22.1c-0.3,0-0.4,0-0.5,0h-0.1
	c-0.5,0-1-0.6-1.3-1.1c-0.5-1-0.6-2-0.5-3.1c0-0.1,0-0.3,0-0.4c0-0.4,0-0.6,0-1l0,0c0.1-0.1,0.3-0.4,0.3-0.5c0.5-1,0.4-2,0-2.8
	c0,0,0,0,0-0.1c0.1-0.9,0-1.8,0.1-2.7c0.1-0.6,0.3-1.3,0.6-1.8c0-0.1,0.1-0.1,0.1-0.3l0,0l0,0V8.2l0,0l0.1-0.1
	c0.3-0.1,0.5-0.3,0.8-0.3c0.5,0,1,0.1,1.4,0.3c1,0.5,1.1,1.8,1.1,2.8c0.1,2.2,0,4.3-0.3,6.6c-0.1,0.9-0.3,1.9-0.5,2.8l0,0
	c-0.1,0-0.1,0.1,0,0.3c-0.1,0.4-0.4,0.9-0.8,1.3C60.2,21.9,59.9,22.1,59.5,22.1L59.5,22.1z M64.1,17.8c-0.1,1.1-0.3,2.4-0.9,3.4
	c0,0.1-0.1,0.1-0.1,0.3c-0.4,0.4-0.8,0.5-1.3,0.6c-0.4,0.1-0.8,0.3-1.3,0.3c-0.1,0-0.3,0-0.3,0c0.4-0.3,0.6-0.5,0.8-0.9
	c0.1-0.1,0.3-0.3,0.3-0.5l0,0c0,0,0.1,0.1,0.3,0.1h0.1h0.1l0,0l0,0c0,0,0,0,0-0.1l0,0v-0.1h-0.1h-0.1h-0.1l0,0c0.3,0,0.5,0,0.6-0.1
	l0,0l0,0c0,0,0,0,0-0.1l0,0v-0.1c-0.1-0.1-0.4-0.1-0.6-0.1c0.1-0.3,0.1-0.5,0.1-0.8c0.1,0,0.3,0.1,0.5,0.1l0,0l0,0c0,0,0,0,0-0.1
	l0,0l0,0c0,0,0,0,0-0.1c-0.1-0.1-0.4-0.3-0.5-0.3c0.1-0.5,0.1-1,0.1-1.5c0-0.6,0.1-1.1,0.1-1.8c0.4,0.1,0.6,0.1,0.9,0l0,0l0,0
	c0,0,0,0,0-0.1l0,0c0.1,0,0-0.1,0-0.1h-0.1c0.3-0.1,0.4-0.1,0.5-0.3c0.1-0.1,0.3-0.1,0.3-0.3c0.1-0.1,0.1-0.3,0-0.4
	c-0.1-0.4-0.5-0.4-0.8-0.4c-0.3,0-0.9-0.1-0.8-0.4c0,0,0,0,0.1-0.1l0.1-0.1c0.1-0.1,0.3-0.1,0.3-0.3c0.1,0,0.1-0.1,0.3-0.1l0,0l0,0
	v-0.1c-0.1,0-0.1-0.1-0.3-0.1c-0.1,0-0.4,0-0.3-0.1v-0.1H62c0,0,0,0,0,0.1l0,0l0,0c0-0.1,0-0.4,0-0.5c0,0,0.1,0,0.3,0
	c0.1,0,0.1,0,0.3,0c0.1,0,0.3,0,0.3,0l0,0l0,0c0,0,0,0,0-0.1l0,0l0,0c0,0,0,0,0-0.1c-0.1-0.4-0.6-0.1-0.9-0.3l0,0c0-0.1,0-0.3,0-0.5
	l0,0c0.1,0,0.1,0,0.3,0c0.1,0,0.1,0.1,0.1,0.3l0,0c0-0.1,0-0.1,0-0.1v0.1l0,0v-0.1c0,0,0,0,0,0.1l0,0c0.1-0.3-0.1-0.4-0.4-0.4
	c0,0-0.1,0,0,0.1l0,0l0,0l0,0l0,0c0-0.9-0.1-1.7-0.4-2.4c-0.1-0.3-0.3-0.5-0.5-0.8c0.1,0,0.3,0.1,0.3,0.1c0.6,0.3,1.4,0.5,2,0.5
	C64.1,11.8,64.5,14.7,64.1,17.8z M62.2,15.5c0-0.4,0-0.8,0.1-1.1l0,0c0.3,0,0.4,0.1,0.6,0.1s0.6,0.3,0.5,0.4l0,0
	C63.1,15.1,62.7,15.1,62.2,15.5C62.2,15.3,62.2,15.3,62.2,15.5L62.2,15.5z M62.3,13.3c0-0.1,0-0.3,0-0.4c0.1,0,0.3,0.1,0.4,0.1
	C62.6,13.2,62.5,13.2,62.3,13.3z M71.9,16.2c-0.1,0.1-0.3,0.3-0.4,0.3c0,0-0.1,0-0.1,0.1l0,0c-0.1,0-0.1,0.1-0.1,0.3
	c0.3,0.5,0.3,1.4-0.1,1.9c-0.1,0.1-0.3,0.1-0.5,0.1c0,0,0,0-0.1,0l0,0l0,0l0,0c-0.1,0-0.1,0-0.1,0.1l0,0c-0.1,0-0.1,0.3,0,0.3h0.1
	c0.3,0.1-0.1,1-0.4,1.3c-0.6,0.5-1.8-0.6-1.4-1.4l0,0l0,0l0,0c0.1-0.1-0.1-0.4-0.3-0.3c0,0,0,0-0.1,0.1l0,0
	c-0.1,0.1-0.1,0.1-0.1,0.3c-0.5,0.1-1.1,0.6-1.3-0.3c0-0.3,0-0.8,0.3-1.1l0,0c0.1,0,0.1,0,0.3-0.1c0.1,0,0.1-0.1,0.3-0.3l0,0l0,0
	c0.1-0.1,0-0.3-0.1-0.3s-0.4,0.1-0.5,0.3c-0.3-0.1-0.4-0.4-0.5-0.5c-0.1-0.4,0.1-0.8,0.3-1v-0.1c-0.3-0.1,0-0.6-0.1-0.9
	c0-0.1-0.1-0.1-0.3-0.1c-0.5,0.3-1.3,0.3-1.7,0.8c0-0.8,0-1.5,0-2.3l0.1-0.1c0.3-0.1,0.5-0.3,0.8-0.3c0.3,0,0.6,0,0.9-0.3
	c0,0,0.1,0,0.1-0.1l0,0l0,0v-0.1h-0.1c-0.1-0.5-0.1-1.1-0.3-1.8c-0.1-0.3-0.3-0.6-0.1-0.9l0,0c0,0,0,0,0.1,0
	c0.3-0.1,0.6-0.3,0.6-0.1v0.1c0,0.1,0.1,0.1,0.3,0c0,0,0.1,0,0.1-0.1V9.5c0-0.1,0-0.1,0-0.3c0-0.1,0-0.3,0-0.4l0.1-0.1
	c0.3-0.1,0.8-0.3,1-0.3c0.5,0,1.7,0.8,1.3,1.4l0,0c0,0,0,0,0,0.1c0,0,0,0-0.1,0c-0.1,0.1,0,0.3,0.1,0.3c0.5,0,1.1,0,1.5,0.5
	c0.3,0.3,0.5,0.9,0.3,1.3l0,0l0,0c0,0,0,0-0.1,0.1c-0.1,0.1,0,0.3,0.1,0.3c0.6-0.1,1.1,0,1.3,0.6c0,0.3,0,0.5-0.1,0.8
	c-0.1,0.1-0.4,0.3-0.6,0.3c-0.1,0-0.1,0-0.1,0.1l0,0c-0.1,0-0.1,0.3,0.1,0.3c0.1,0,0.3,0,0.3,0s0,0.1,0,0.3h0.1
	C72.5,15,72.3,15.8,71.9,16.2z M77.7,14.1c-0.9,0-1.9,0.1-2.8,0.1c-0.8,0-1.5,0-2.3,0l-0.1-0.1c0.1-0.1,0.3-0.3,0.4-0.4l0,0
	c1.4,0.1,2.9,0.1,4.3,0.1c0.8,0,1.5,0,2.2,0.1c0.1,0,0.4,0,0.5,0.1C79.2,13.9,78.5,13.9,77.7,14.1z M18.1,18L18.1,18
	C18.1,17.9,18.1,17.9,18.1,18C18.1,17.9,18.1,18,18.1,18L18.1,18C18.1,18,18.1,18.1,18.1,18C18.1,18.1,18.1,18.1,18.1,18
	C18,18,18,18,18.1,18C18,18,18,18,18.1,18C18,18,18,18,18.1,18C18,18,18,18.1,18.1,18C18,18.1,18,18.1,18,18.1l0,0c0,0,0,0,0-0.1
	l0,0l0,0c0,0,0,0,0,0.1v0.1c0,0,0,0,0.1,0l0,0c0,0,0,0,0.1,0C18.1,18.1,18.1,18.1,18.1,18C18.1,18.1,18.1,18.1,18.1,18
	C18.1,18.1,18.1,18.1,18.1,18C18.2,18.1,18.2,18,18.1,18L18.1,18z M61.1,14.4L61.1,14.4l-0.1,0.1v0.1h0.1c0,0,0,0,0.1,0l0,0
	c0.1,0,0.1-0.1,0.1-0.1l0,0l0,0C61.5,14.4,61.2,14.2,61.1,14.4C61.1,14.3,61.1,14.4,61.1,14.4z M18.5,16.4h-0.1c0,0,0,0-0.1,0
	c0,0,0,0-0.1,0l0,0l0,0l0,0l0,0l0,0l0,0c0,0.1,0,0.1,0.1,0.1S18.5,16.5,18.5,16.4c0,0,0.1,0,0.1-0.1l0,0l0,0
	C18.7,16.5,18.6,16.4,18.5,16.4z"/>
<path class="st0" d="M20.9,16.9L20.9,16.9c-0.1,0-0.1,0-0.3,0.1l0,0l0,0c0,0-0.1,0-0.1,0.1c0,0.1,0,0.1,0.1,0.1h0.1l0,0
	c0,0,0,0,0.1,0l0,0l0,0C21,17.1,21,17,20.9,16.9C21,16.9,21,16.9,20.9,16.9z M68.6,14.3c0.1-0.1,0.1-0.3,0.1-0.4l0,0
	c-0.1,0-0.3,0-0.4,0.1l0,0l0,0l0,0c0,0,0,0-0.1,0c0,0,0,0.1,0,0c0.1,0,0.4-0.1,0.3,0.1c-0.1,0.1-0.3,0.1-0.4,0.1
	c-0.4,0-0.6-0.3-0.8-0.5c0-0.3,0-0.6,0.1-0.9c0.1-0.1,0.1-0.1,0.3-0.3c0.1,0,0.1-0.1,0.3-0.1l0,0l0,0c0,0,0.1,0,0.1-0.1
	c0.1,0,0.1-0.1,0-0.1c-0.3,0-0.5,0.1-0.6,0.4C67,13,66.8,13.8,67,14.3c0.3,0.5,0.9,0.5,1.3,0.3C68.4,14.6,68.6,14.4,68.6,14.3z
	 M19.9,15.6c0.1,0,0.3,0,0.3-0.1c0.1,0,0.1-0.1,0.1-0.1l0,0l0,0c0.1-0.1,0-0.4-0.1-0.5c-0.1,0-0.1,0-0.3,0.1l0,0
	c-0.1,0-0.3,0.1-0.4,0.3c-0.1,0.1-0.3,0.3-0.1,0.4C19.6,15.6,19.8,15.6,19.9,15.6z M19.9,15.1L19.9,15.1
	C19.9,15.2,20,15.2,19.9,15.1c0.1,0,0.1,0,0.1,0l0,0l0,0C20.1,15.2,20,15.2,19.9,15.1C20,15.2,20,15.2,19.9,15.1
	C19.9,15.2,19.9,15.2,19.9,15.1C19.9,15.2,19.9,15.2,19.9,15.1C19.9,15.2,19.9,15.1,19.9,15.1z M20.6,18.5l-0.1,0.1l0,0
	c-0.1,0-0.1,0.1-0.3,0.3c0,0.1,0,0.1,0.1,0.1l0,0l0,0c0,0,0,0,0-0.1l0,0C20.6,18.8,20.6,18.6,20.6,18.5L20.6,18.5z M20.3,16.5
	L20.3,16.5L20.3,16.5c0.1-0.1,0-0.1,0-0.1c-0.1,0-0.1,0-0.3,0l0,0c0-0.1-0.1-0.1-0.1,0c0,0,0,0-0.1,0c0,0-0.1,0-0.1,0.1l0,0l0,0
	c-0.1,0-0.1,0.1,0,0.3c0,0,0,0.1,0.1,0.1s0.3,0,0.4-0.1C20.1,16.6,20.3,16.6,20.3,16.5z M20.3,17.9C20.4,17.9,20.4,17.9,20.3,17.9
	C20.4,17.9,20.4,17.9,20.3,17.9C20.4,17.8,20.4,17.8,20.3,17.9c0.1-0.1,0.1-0.3,0.1-0.3c-0.1-0.1-0.4,0-0.4,0s0,0,0,0.1l0,0
	c0,0,0,0-0.1,0c-0.1,0.1,0,0.3,0.1,0.1l0,0l0,0C20.1,18,20.3,18,20.3,17.9L20.3,17.9z M60.1,12.3L60.1,12.3
	C60.2,12.3,60.2,12.3,60.1,12.3C60.2,12.3,60.2,12.3,60.1,12.3C60.2,12.2,60.2,12.2,60.1,12.3c0.1-0.1,0.1-0.1,0.1-0.1V12
	c0-0.1-0.1-0.1-0.1-0.1c-0.1,0-0.1,0-0.1,0.1l0,0c0,0-0.1,0-0.1,0.1S59.9,12.3,60.1,12.3z M60.3,16.5c0-0.1-0.1-0.1-0.3,0l0,0l0,0
	h-0.1c0,0.1-0.1,0.3,0,0.3l0,0l0,0c-0.1,0.1,0,0.3,0.1,0.3l0,0c0,0,0,0,0.1,0l0,0c0,0,0.1,0,0.1-0.1l0.1-0.1
	C60.4,16.7,60.3,16.6,60.3,16.5z M59.5,14.8c0,0-0.1,0-0.1,0.1l0,0l0,0c0,0-0.1,0-0.1,0.1s0,0.1,0,0.3c0,0.1,0.1,0.1,0.3,0
	c0,0,0.1,0,0.1-0.1l0,0l0,0c0,0,0.1,0,0.1-0.1C59.7,15.1,59.7,14.8,59.5,14.8z M59.4,18.9L59.4,18.9C59.4,18.9,59.5,18.9,59.4,18.9
	c0.1-0.1,0.1-0.1,0.1-0.1s0,0,0-0.1c0,0,0-0.1-0.1-0.1s-0.3,0-0.3,0.1l0,0c0,0-0.1,0-0.1,0.1C59.2,18.9,59.3,19,59.4,18.9z
	 M60.7,17.2C60.7,17.2,60.6,17.2,60.7,17.2c-0.1,0-0.1,0-0.1,0.1l0,0l0,0c-0.1,0-0.1,0.1,0,0.1c0,0,0,0,0.1,0h0.1c0,0,0.1,0,0.1-0.1
	C60.8,17.4,60.8,17.2,60.7,17.2z M60.3,13.8c0,0.1,0.1,0.3,0.3,0.3c0.1,0,0.1,0,0.3-0.1c0,0,0.1,0,0.1-0.1l0.1-0.1
	c0.1-0.1,0.1-0.4,0.3-0.5V13c-0.1,0-0.3,0-0.4,0s-0.1,0.1-0.1,0.1c-0.1,0.1-0.1,0.3-0.1,0.4l0,0l0,0l0,0
	C60.3,13.7,60.2,13.7,60.3,13.8z M60.6,13.4L60.6,13.4c0.1,0,0.1-0.1,0.1-0.1h0.1c0,0.1-0.1,0.3-0.1,0.4
	C60.7,13.7,60.6,13.6,60.6,13.4C60.6,13.6,60.6,13.4,60.6,13.4L60.6,13.4z M59.4,19.9C59.4,19.9,59.3,20,59.4,19.9
	c-0.1,0-0.1,0.1-0.1,0.3l0,0l0,0c0,0-0.1,0-0.1,0.1l0,0l0,0c-0.1,0-0.1,0.3,0,0.3c0.1,0,0.3,0,0.4-0.1c0,0,0.1,0,0.1-0.1l0,0l0,0
	c0.1-0.1,0-0.3-0.1-0.4C59.5,19.8,59.4,19.9,59.4,19.9z M18.1,17.9L18.1,17.9L18.1,17.9z M58.7,12.9L58.7,12.9
	c-0.1,0-0.1,0.1-0.1,0.1v0.1l0,0c0,0,0,0-0.1,0.1l-0.1,0.1c0,0,0,0.1,0.1,0.1h0.1h0.1c0,0,0.1,0,0.1-0.1l0,0l0,0
	c0.1-0.1,0.1-0.4,0.1-0.5C58.9,12.8,58.7,12.8,58.7,12.9z M58.3,16.6c0-0.1-0.3-0.1-0.3,0l0,0c0,0-0.1,0-0.1,0.1
	c0,0.3,0.1,0.5,0.4,0.5c0,0,0,0,0.1,0l0,0c0,0,0.1,0,0.1-0.1c0,0,0.1-0.1,0-0.1C58.4,16.9,58.3,16.7,58.3,16.6z M70.5,13.8
	c-0.1,0-0.3-0.1-0.4-0.1c-0.1,0-0.3,0-0.3,0.1l0,0c-0.1,0-0.1,0.1-0.1,0.1c0,0.1,0.1,0.4,0.3,0.4h0.1c0,0,0.1,0,0.1-0.1
	c0,0,0.1-0.1,0-0.1l0,0l0,0c0,0,0,0,0.1,0c0,0,0,0,0.1,0l0,0l0,0l0,0l0,0l0,0l0,0l0,0l0,0l0,0c0,0,0,0-0.1,0.1l0,0l0,0l0,0l0,0
	c0,0,0,0-0.1,0.1v0.1c0.1,0,0.3,0,0.3-0.1c0.1,0,0.1-0.1,0.1-0.1s0-0.1,0.1-0.1c0-0.1,0-0.3-0.1-0.4C70.7,13.9,70.6,13.9,70.5,13.8z
	 M18,17.9L18,17.9L18,17.9z M69.8,11.8L69.8,11.8c0.3-0.3,0.1-0.6,0-0.9s-0.4-0.5-0.8-0.6c-0.3-0.1-0.5-0.1-0.8,0l-0.1,0.1l0,0
	c-0.4,0.3-0.1,0.8-0.1,1.1c0,0.1,0.1,0.1,0.1,0c0,0,0.1,0,0.1-0.1l0,0l0,0c0-0.1,0-0.5,0-0.8l0,0l0,0c0.3,0,0.4,0.1,0.5,0.3
	c0.1,0.1,0.4,0.3,0.5,0.5c0.1,0.1,0.1,0.4,0.3,0.5C69.7,11.9,69.7,11.9,69.8,11.8L69.8,11.8L69.8,11.8z M19.2,12.7h0.1h0.1
	c0,0,0.1,0,0.1-0.1c0.1,0,0.1-0.3,0-0.3h-0.1c-0.1,0-0.1,0-0.1,0.1l0,0C19.1,12.4,19.1,12.7,19.2,12.7z M20.1,14.3
	c0.1,0,0.1,0,0.3,0l0.1-0.1c0,0,0-0.1,0.1-0.1c0-0.1-0.1-0.1-0.1,0l0,0l0,0c0,0-0.1,0-0.1,0.1C20.1,14.2,20.1,14.2,20.1,14.3
	C20,14.2,20,14.3,20.1,14.3z M18,15.1L18,15.1C18,15.2,18,15.2,18,15.1C18,15.2,18,15.2,18,15.1C18,15.2,18,15.2,18,15.1
	C18,15.2,18,15.2,18,15.1c0.1,0,0.1,0,0.1,0s0,0,0.1,0h0.1h0.1c0,0,0.1,0,0.1-0.1c0.1,0,0.1-0.3,0-0.3h-0.1h-0.1l0,0c0,0,0,0-0.1,0
	c0,0-0.1,0-0.1,0.1l0,0l0,0l0,0c0,0-0.1,0-0.1,0.1C17.9,15,17.9,15,18,15.1C17.9,15,17.9,15,18,15.1C17.9,15,17.9,15.1,18,15.1
	C17.9,15.1,17.9,15.1,18,15.1L18,15.1z M18,18L18,18L18,18z M19.1,18.3c-0.1,0-0.1,0.1-0.1,0.1l0,0l0,0c0-0.1-0.1-0.1-0.1,0l0,0l0,0
	c0,0-0.1,0-0.1,0.1s0,0.3,0.1,0.4c0,0,0.1,0.1,0.1,0l0,0l0,0c0.1,0,0.1-0.1,0.1-0.3c0.1-0.1,0.1-0.3,0.1-0.4
	C19.2,18.3,19.2,18.1,19.1,18.3z M19.2,15.7c-0.1,0-0.3,0-0.3,0.1l0,0c0,0-0.1,0-0.1,0.1c-0.1,0.1-0.1,0.3,0,0.4H19l0,0l0,0
	c0,0,0,0,0.1-0.1v-0.1l0,0h0.1c0,0,0.1,0,0.1-0.1C19.4,16,19.4,15.7,19.2,15.7z M19.4,14.3c0-0.1,0-0.3,0-0.5c0-0.1-0.1-0.1-0.1,0
	l0,0l0,0c0,0-0.1,0-0.1,0.1c0,0.4,0,0.8,0.3,1h0.1c0,0,0.1,0,0.1-0.1l0,0c0,0,0,0,0-0.1C19.5,14.7,19.4,14.6,19.4,14.3z M69.6,16.6
	c-0.1,0-0.3-0.1-0.4-0.1c0,0,0.1-0.1,0.1-0.3s-0.1-0.1-0.1-0.1l-0.1,0.1l0,0c-0.1,0-0.1,0.1-0.1,0.1c-0.1,0-0.3,0-0.4-0.1
	c-0.1,0-0.3-0.3-0.3-0.4l0,0l0,0l0,0c0,0,0,0,0-0.1l0,0c0.1,0,0-0.1,0-0.1c-0.1,0-0.3,0.1-0.3,0.1c-0.3,0.1-0.1,0.5,0.1,0.8
	c0.3,0.3,0.5,0.3,0.8,0.1c0.1,0.1,0.3,0.3,0.5,0.1l0,0l0,0C69.6,16.7,69.6,16.7,69.6,16.6C69.6,16.7,69.6,16.7,69.6,16.6L69.6,16.6z
	 M82.3,14.1c-0.1,0-0.4-0.1-0.5-0.1c-0.5-0.3-1.3-0.4-1.8-0.5c-0.8-0.1-1.5-0.1-2.4-0.1c-0.8,0-1.7,0-2.4,0c-0.6,0-1.4-0.1-2.2-0.1
	c0-0.1,0-0.3,0-0.4c0-0.8-0.6-1-1.3-1c0.1-0.4,0-0.9-0.1-1.3c-0.4-0.6-1-0.8-1.7-0.8C70.5,9.1,69.5,8,68.7,8c-0.6,0-1.4,0.1-1.7,0.5
	c-0.1,0.1-0.3,0.3-0.3,0.4c-0.4,0-0.8,0.3-1,0.5l-0.1,0.1c-0.3,0.4-0.1,0.6,0,1c0.1,0.5,0.1,1.1,0.4,1.8c-0.3,0-0.6,0.1-0.8,0.3
	c-0.3,0.1-0.5,0.1-0.6,0.4c-0.1-1.5-0.3-2.9-0.4-4.4c0-0.1-0.1-0.1-0.1-0.1c-0.9,0-1.7-0.4-2.4-0.6c-0.6-0.3-1.3-0.3-2-0.3h-0.1
	c-0.4,0-1,0.1-1.3,0.5C58.1,8.1,58,8.3,58,8.6c-0.5,0.5-0.8,1.3-0.9,2c-0.1,0.6-0.3,1.4-0.3,2c-0.6-0.9-1.7-1.4-2.8-1.7
	c-1.3-0.3-2.3,0.3-2.9,1c-0.3,0.3-0.5,0.5-0.6,0.9c0.1-0.9,0.1-1.9,0.3-2.8c0-0.5,0.1-1.1,0.3-1.7c0-0.4,0.1-0.8,0-1.1l0,0
	c0.1-0.1-0.1-0.3-0.3-0.3c-0.5,0.3-1,0.3-1.5,0.4c-0.4,0.1-0.9,0.3-1.3,0.3c-0.1,0-0.1,0-0.1,0.1l0,0l0,0c0,0-0.1,0-0.1,0.1
	c-0.1,0.3-0.3,0.6-0.3,0.9c0,0.1-0.1,0.4-0.1,0.5l-0.1,0.1c0,0.1,0,0.1,0.1,0.1c-0.4,1.9-0.4,3.8-0.5,5.7c-0.1,0-0.1,0-0.3,0
	c-0.1,0-0.1,0-0.3,0c-0.1-0.5-0.1-1-0.3-1.5c-0.1-0.8-0.4-1.7-0.5-2.4c-0.1-0.5-0.4-1.4-0.3-2c0,0,0-0.1,0.1-0.1
	c0-0.1,0.1-0.1,0.1-0.3c0-0.1,0-0.1,0-0.1l0,0c0-0.1,0-0.1-0.1-0.1c0,0,0,0-0.1-0.1h-0.1c-1,0.8-2.4,1-3.3,1.9
	c-0.1,0.1-0.1,0.1-0.3,0.3c0,0,0,0.1,0.1,0.1c0.3-0.1,0.5-0.3,0.8-0.4c0.4-0.3,0.8-0.4,1.3-0.6c0.3-0.1,0.5-0.3,0.9-0.4
	c0,0,0.4-0.3,0.5-0.3v0.1c-0.3,0.3-0.5,0.5-0.6,0.8h-0.1c-0.5,0.1-0.9,0.4-1.4,0.5c-0.4,0.1-0.6,0.1-1,0.4l0,0c0,0-0.1,0-0.1,0.1
	l0,0l0,0c0,0-0.1,0-0.1,0.1c-0.1,0.9,0.1,1.8,0.3,2.7c-0.8-0.8-1.9-1.3-3.1-1.4c-1.3-0.1-2.8,0.5-3.7,1.5c-0.6,0.6-1,1.4-1.1,2.3
	C34,16.6,34,16.7,34,17c-0.8-1.4-1.3-2.7-2-3.6c-1-1.4-2.5-2.4-4.3-2.4c-0.5,0-1,0.1-1.3,0.5c-0.1,0.1-0.3,0.3-0.4,0.5
	c-0.1,0.4,0,0.8,0,1.1c0,0.4,0,0.8,0.1,1c-0.3-0.1-0.6,0-0.9,0c-0.6,0.1-1.3,0.3-1.9,0.4c-0.1,0-1,0.4-1.3,0.8
	c-0.1-1.5-0.5-3.1-1.1-4.4c-0.4-0.6-0.9-1.3-1.5-1.5c0.1,0,0-0.1,0-0.1c-0.1,0-0.1,0-0.3,0C18,8.9,16.7,9,15.4,9.1
	c0,0-0.1,0-0.1,0.1l0,0l0,0l0,0c0,0-0.1,0-0.1,0.1l0,0l0,0c-0.8,0.8-0.9,2-1.1,3.1c-0.3,1.1-0.5,2.4-0.6,3.6c-0.9-0.1-1.9,0-2.8-0.1
	c-1.3,0-2.5-0.1-3.8-0.3c-1-0.1-2-0.1-3.2-0.1c0.1,0,0.3,0,0.4,0c1,0,1.9,0,2.9,0c2,0,4.1,0.1,6.1,0.1h0.1c0,0,0.1,0,0.1-0.1
	c0.1,0,0.1-0.3-0.1-0.3c-1,0-2,0-3.1,0c-1.1,0-2.2,0-3.3-0.1c-1,0-2.2,0-3.2,0c-0.8,0-1.7,0.1-2.4,0.3c-0.3,0-0.4,0-0.6,0
	c0,0-0.1,0,0,0.1l0,0l0,0l0,0c-0.1,0-0.1,0.1,0,0.1c2.3,0.1,4.7,0.3,7,0.4c1.1,0.1,2.4,0.1,3.6,0.1c0.8,0,1.7,0.1,2.4,0.1
	c0,0.1,0,0.3,0,0.4c0,1.1,0,2.3,0.4,3.4c0.3,0.9,0.6,2,1.4,2.7c0,0,0,0.1,0.1,0.1c1.4,0.5,2.8,0,3.9-0.8c0.5-0.3,0.9-0.6,1.3-1
	c0.3-0.3,0.4-0.5,0.5-0.8c0.3-0.4,0.4-0.8,0.6-1.1c0.6,0.5,1.7,0.5,2.4,0.4c0.9-0.1,1.8-0.3,2.5-0.6l0,0c0.1,0.1,0.1,0.3,0.3,0.4
	c0.1,0.3,0.4,0.5,0.5,0.8c0.3,0.4,0.5,0.8,0.8,1.1c-0.1,0.5-0.1,0.8-0.1,1c-0.3,0.4-0.3,0.8,0,1l0,0c0,0.1,0.1,0.1,0.3,0.1h0.1
	c0.1,0,0.1,0,0.3,0h0.1c1,0,1.9,0,2.8-0.5l0.1-0.1c0.4-0.3,0.8-0.6,1-1.1c0.4-0.5,0.5-1,0.6-1.5c0.1-0.4,0.1-0.8,0.1-1.1
	c0.8,1.8,3.2,2.8,5,2.8c0.9,0,1.5-0.3,2.2-0.6c0.5-0.3,0.9-0.8,1.1-1.1s0.5-0.9,0.6-1.3c0.3,1.8,0.5,3.6,1.1,5.1
	c0,0.1,0.1,0.1,0.3,0.1H44c0.4-0.3,0.8-0.4,1.3-0.5c-0.4,0.6-0.4,1.5-0.4,2.3c0,0.1,0.1,0.1,0.3,0.1c1.1-0.3,2-0.9,3.2-1h0.1
	c0,0,0.1,0,0.1-0.1c0,0,0,0,0-0.1c0-0.1,0-0.1,0-0.3c0,0,0,0,0.1-0.1c0.1,0,0.3-0.1,0.4,0h0.1c0,0,0.1,0,0.1-0.1c0,0,0,0,0-0.1
	c0.4-1.4,0.1-2.9,0.4-4.3c0.1-1.1,0.3-2.3,0.4-3.4c0.1,0.5,0.5,0.9,1,1.4c1.4,1.3,3.4,1.3,4.8,0.3c0.3-0.3,0.6-0.5,0.9-0.8
	c-0.1,1.3-0.3,2.5,0.1,3.7c0.1,0.6,1,2.2,1.9,1.9l0,0c0.3,0.1,0.4,0.1,0.6,0c0.3,0,0.5,0.1,0.9,0.3c0.4,0,0.8,0,1-0.1
	c0.5-0.1,1.1-0.4,1.5-0.8c0.1,0,0.1-0.1,0.3-0.3c0.1-0.1,0.4-0.4,0.5-0.5c0.5-0.8,0.8-1.8,0.9-2.7c0.1-0.9,0.3-1.8,0.3-2.7
	c0,0,0,0,0.1-0.1l0,0l0,0l0,0l0.1-0.1c0.4-0.3,0.8-0.3,1.1-0.4c0,0.3-0.1,0.6,0.1,0.8c0,0-0.3,0.9-0.3,1c0.1,0.4,0.4,0.6,0.6,0.8
	c-0.3,0.4-0.4,1-0.3,1.5c0.1,0.9,1,0.6,1.7,0.4c0,0.9,1.1,1.8,2,1.3c0,0,0,0,0.1,0l0,0c0.1,0,0.3-0.3,0.4-0.4c0.3-0.4,0.5-1,0.4-1.4
	c0,0,0.1,0,0.1-0.1c0.1-0.1,0.3-0.3,0.4-0.4c0.4-0.5,0.4-1.4,0.3-1.9l0,0c0.3-0.1,0.5-0.4,0.6-0.6c0.3-0.4,0.5-1,0.5-1.4
	c0.5,0,1,0,1.5,0c0.9,0,1.8,0,2.7-0.1c1.8-0.1,3.4-0.1,5.2-0.3l0,0l0,0c0,0,0,0,0-0.1l0,0C82.4,14.2,82.4,14.1,82.3,14.1z M50.6,8.1
	c0-0.1,0-0.1,0.1-0.3c0,0.1,0,0.3-0.1,0.4C50.6,8.2,50.6,8.2,50.6,8.1L50.6,8.1z M15.8,22.6C15.7,22.6,15.7,22.6,15.8,22.6
	c-0.1,0-0.3-0.1-0.3-0.1s0,0-0.1,0c-0.5-0.9-0.9-1.5-1.1-2.5c-0.3-1-0.4-2.2-0.3-3.3v-0.1c0-0.1,0-0.3,0-0.4l0,0
	c0.1-1.3,0.4-2.4,0.6-3.7c0.1-0.5,0.3-1,0.4-1.7c0.1-0.3,0.1-0.6,0.3-0.9c0-0.1,0.1-0.3,0.1-0.3l0,0c0,0,0,0,0.1,0l0,0
	c0,0,0,0,0.1,0l0,0c1,0,1.9-0.1,2.9,0c0.1,0,0.1,0,0.3,0c-0.4,0.4-0.5,1-0.8,1.4c-0.3,0.6-0.5,1.3-0.8,1.9c-0.1,0.8-0.3,1.5-0.4,2.3
	c-0.3,2.3,0.1,5.2,1.5,7C17.6,22.7,16.6,22.8,15.8,22.6z M20.4,20.5c-0.1,0.3-0.4,0.5-0.6,0.8c-0.3,0.3-0.5,0.5-0.9,0.6h-0.1
	c-1.3-1.9-1.8-4.1-1.5-6.4c0.1-1.4,0.3-2.8,0.8-4.1c0.1-0.4,0.4-0.8,0.5-1.1c0.1-0.1,0.1-0.5,0.4-0.6c0,0,0-0.1,0.1-0.1
	c0.8,0.3,1.1,0.8,1.5,1.5c0.8,1.4,1,3.1,1.1,4.6C21.7,17.5,21.3,19.2,20.4,20.5z M28.1,20.5C28.3,20.5,28.3,20.5,28.1,20.5
	c0-0.6-0.5-0.9-0.9-1.3l-0.1-0.1l0,0c0.1,0,0.1,0,0.1,0s0.1,0,0.1-0.1c0.1,0,0.1-0.1,0-0.3l-0.1-0.1h0.1c0.1,0,0.3,0,0.4-0.1
	c0,0,0.1,0,0.1-0.1c0.1,0,0.1-0.1,0.1-0.1c0.1-0.1,0.1-0.1,0-0.3c-0.1-0.3-0.5-0.4-0.9-0.5c0.4,0,0.8,0,1-0.3c0,0,0.1,0,0.1-0.1
	c0,0,0,0,0-0.1l0,0c0,0,0.1-0.1,0-0.3c-0.4-0.4-0.9-0.4-1.4-0.5c0.4-0.1,0.8-0.1,1-0.3l0,0c0,0,0,0,0.1,0c0,0,0,0,0-0.1l0,0
	c0.1-0.1,0-0.3-0.1-0.3c0,0-0.5,0-1-0.1c-0.3-0.1-0.4-0.1-0.4-0.3l0,0l0.1-0.1c0.1-0.1,0.4-0.3,0.6-0.3l0,0l0,0c0,0,0,0,0-0.1
	c0.1,0,0.1-0.1,0-0.1c-0.4,0-0.9,0.3-1.1,0.5c-0.1,0.1-0.1,0.1-0.3,0.3v0.1c0.3,0.4,0.8,0.5,1.3,0.5c-0.3,0-0.5,0.1-0.6,0.3
	c0,0,0,0,0,0.1c0,0,0,0-0.1,0.1c-0.1,0-0.1,0.1,0,0.3c0.4,0.3,1,0.3,1.4,0.5c-0.5,0.1-1,0-1.5,0.1c0,0-0.1,0-0.1,0.1l0,0
	c-0.1,0-0.1,0.1-0.1,0.3c0.3,0.3,0.8,0.4,1.1,0.5c0.1,0,0.3,0.1,0.3,0.1l0,0c-0.1,0-0.4,0-0.5,0c-0.3-0.1-0.5-0.1-0.6,0
	c0,0,0,0,0,0.1l0,0l0,0c0,0,0,0-0.1,0c-0.1,0,0,0.1,0,0.3l0,0l0,0c-0.1,0-0.1,0.1-0.1,0.1c-0.6,0-1.4,0.4-2,0.5c-0.1,0-0.5,0-1,0
	c-0.1,0-0.9-0.1-1-0.3c0-0.1,0-0.1-0.1-0.1l0,0c0,0,0,0-0.1,0c0.3-0.9,0.4-1.9,0.4-2.8c0-0.1,0-0.3,0-0.3l0,0c0,0,0.1,0,0.1-0.1l0,0
	c0,0,0,0,0-0.1v-0.1l0.1-0.1c0.4-0.3,1.3-0.5,1.4-0.5c0.8-0.3,1.5-0.3,2.3-0.4c0,0,0,0,0.1,0l0,0c0,0,0,0,0.1,0l0,0h0.1
	c0,0,0.1,0,0.1-0.1l0,0h0.1c0,0,0.1,0,0.1-0.1l0,0c0,0,0,0,0-0.1c0-0.1,0-0.3,0.1-0.4c0-0.1,0.1-0.1,0.3-0.3
	c0.3-0.1,0.4-0.3,0.6-0.3c0.4-0.1,0.9,0,1.3,0.3c0.8,0.4,1.3,1,1.8,1.7c0.8,1.3,0.6,2.8,0,4.1c-0.3,0.6-0.6,1-1.1,1.5
	c-0.3,0.3-0.6,0.6-0.9,0.9c0-0.1,0-0.4-0.1-0.5C28.4,20.9,28.3,20.8,28.1,20.5z M33.1,20c-0.1,0.8-0.5,1.4-1,1.9
	c-0.3,0.3-0.5,0.4-0.8,0.5c-0.8,0.4-1.8,0.3-2.7,0.3c0-0.3,0-0.5,0-0.6c0.1-0.1,0.3-0.3,0.4-0.4c0.5-0.5,1-0.9,1.4-1.5
	c0.1-0.1,0.1-0.1,0.3-0.3c0.6-1,1.1-2.3,0.9-3.6c-0.3-1.4-1.1-2.8-2.4-3.4c-0.6-0.4-2-0.4-2.4,0.3c-0.1,0.1-0.3,0.3-0.3,0.4
	c0-0.3,0-0.4,0-0.6c0-0.4-0.1-0.8-0.1-1.1c0-0.1,0-0.1,0.1-0.3l0.1-0.1c0.4-0.3,1-0.3,1.4-0.1c1.8,0.3,3.1,1.4,3.9,2.9
	C33,16,33.5,18.1,33.1,20z M48,8L48,8C48.1,8,48.1,8,48,8c0.5,0,1-0.1,1.5-0.3c0.3,0,0.6-0.1,0.9-0.3c0,0.1-0.1,0.3-0.3,0.5
	c-0.4,0-0.8,0.4-1.3,0.5c-0.4,0.1-0.9,0.1-1.3,0.4C47.9,8.5,47.9,8.1,48,8z M46.7,15.5L46.7,15.5L46.7,15.5
	C46.7,15.5,46.6,15.5,46.7,15.5C46.6,15.5,46.6,15.5,46.7,15.5z M46.5,15.8c0.1,0,0.1,0,0.3,0c0,0.4-0.1,0.8-0.1,1
	C46.6,16.6,46.5,16.2,46.5,15.8L46.5,15.8z M46.5,15.6C46.3,15.6,46.3,15.6,46.5,15.6C46.3,15.6,46.3,15.6,46.5,15.6
	C46.3,15.6,46.3,15.6,46.5,15.6z M44.3,10.6L44.3,10.6c0.1-0.1,0.1-0.3,0.1-0.3c0.1-0.1,0.3-0.4,0.4-0.5c0,0.3,0,0.5,0,0.6
	c0.1,0.9,0.4,1.9,0.5,2.8c0.3,1.4,0.5,2.8,0.6,4.1c0.1,0.9,0.3,1.7,0.4,2.5c0.1,0.6,0.1,1.3-0.1,1.9c0-0.3-0.1-0.4-0.3-0.6
	c-0.3-0.6-0.4-1.1-0.5-1.8c-0.3-1.5-0.6-3.1-0.8-4.6c-0.1-0.8-0.1-1.4-0.3-2.2C44.5,12,44.3,11.3,44.3,10.6L44.3,10.6z M41.6,20
	c-0.1,0.1-0.3,0.4-0.4,0.5c-1.7,1.5-4.4,0.8-6-0.6c-0.9-0.8-1.4-1.7-1.3-2.8V17c0,0,0,0,0-0.1l0,0c0,0,0,0,0-0.1
	c0.1-0.4,0.3-0.8,0.4-1.1c0-0.3,0.1-0.5,0.3-0.6c0.1-0.1,0.1-0.3,0.3-0.3l0,0c0,0,0-0.1,0.1-0.1c0,0,0,0-0.1,0c0,0,0,0,0-0.1
	c0.3-0.4,0.5-0.6,0.9-1c1.1-0.8,2.8-0.8,4.1-0.3c1,0.4,1.7,1,2,1.8c0.1,0.8,0.4,1.5,0.5,2.3C42.4,18.3,42.1,19.2,41.6,20z
	 M44.4,23.3h-0.1c0,0,0-0.1-0.1-0.1c-0.8-1.8-0.9-3.9-1.3-5.8c0-0.1,0-0.1,0-0.3c0-0.9-0.1-1.8-0.5-2.5c0-0.1-0.1-0.4-0.1-0.5
	c-0.3-1-0.6-1.9-0.5-2.9l0,0c0,0,0.1,0,0.1-0.1c0.3-0.1,0.6-0.1,0.9-0.3c0.4-0.1,0.6-0.3,1-0.4c-0.1,1.1,0.4,2.2,0.5,3.3
	c0.3,1.5,0.5,2.9,0.8,4.4c0.1,0.6,0.3,1.4,0.4,2c0.1,0.5,0.4,0.9,0.5,1.4c0.1,0.3,0.1,0.6,0,0.9c0,0,0,0,0,0.1
	c-0.1,0.1-0.4,0.3-0.5,0.3C45.2,23.1,44.8,23.2,44.4,23.3z M48.5,22.5c0,0.4-0.1,0.9-0.1,1.3c0,0.1,0,0.3,0,0.4c0,0-0.1,0.1-0.1,0.3
	c0,0,0,0,0,0.1c-0.1,0-0.4,0-0.4,0.1c-0.8,0.3-1.5,0.5-2.3,0.8c0-0.6,0.1-1.4,0.4-1.9l0.1-0.1l0,0l0,0v-0.1c0.1-0.1,0.1-0.1,0.1-0.3
	h0.1h0.1c0,0,0-0.1,0.1-0.1c0.8-1.1,0.5-2.3,0.3-3.7c0-0.4-0.1-0.6-0.1-1l0,0l0,0c0,0,0,0,0-0.1c0.5-2.8,0.3-5.6,0.8-8.4l0,0l0,0
	c0.5-0.4,1.1-0.3,1.7-0.5c0,0,0.5-0.4,0.8-0.4c0,0.1,0,0.1,0,0.3c0,0,0,0.1,0.1,0.1c-0.1,0.4-0.1,0.8-0.3,1.1
	c-0.4,2.2-0.6,4.3-0.9,6.5C48.9,18.4,48.7,20.4,48.5,22.5z M50.4,10c-0.1,1.7-0.3,3.3-0.5,5c-0.3,1.5-0.4,3.1-0.5,4.6
	c-0.1,1.3,0,2.7-0.3,4.1c-0.1,0-0.3,0-0.4,0.1c0-1,0.3-2.2,0.4-3.2c0.1-1.3,0.3-2.7,0.4-3.9c0.3-2.3,0.6-4.6,1-6.9
	C50.4,10,50.4,10,50.4,10z M56.4,17c-1.1,1.1-3.1,1.3-4.6,0.3c-0.8-0.5-1.3-1.3-1.4-2.2c0-0.5,0.1-0.9,0.1-1.4
	c0-0.1,0.1-0.3,0.1-0.3c0-0.1,0.1-0.1,0.1-0.3c0-0.1,0.1-0.1,0.1-0.3l0,0c0,0,0,0,0-0.1c-0.1,0-0.3,0.1-0.4,0.1
	c0-0.1,0.1-0.3,0.1-0.4c0-0.1,0.1-0.1,0.1-0.3c0.1-0.3,0.4-0.5,0.6-0.6c0.4-0.3,1-0.5,1.5-0.5c1-0.1,2.2,0.4,2.9,1
	c1,0.8,1.3,2,0.9,3.3C57,16.2,56.7,16.6,56.4,17z M59.5,22.1C59.5,22.1,59.4,22.1,59.5,22.1c-0.3,0-0.4,0-0.5,0h-0.1
	c-0.5,0-1-0.6-1.3-1.1c-0.5-1-0.6-2-0.5-3.1c0-0.1,0-0.3,0-0.4c0-0.4,0-0.6,0-1l0,0c0.1-0.1,0.3-0.4,0.3-0.5c0.5-1,0.4-2,0-2.8
	c0,0,0,0,0-0.1c0.1-0.9,0-1.8,0.1-2.7c0.1-0.6,0.3-1.3,0.6-1.8c0-0.1,0.1-0.1,0.1-0.3l0,0l0,0V8.2l0,0l0.1-0.1
	c0.3-0.1,0.5-0.3,0.8-0.3c0.5,0,1,0.1,1.4,0.3c1,0.5,1.1,1.8,1.1,2.8c0.1,2.2,0,4.3-0.3,6.6c-0.1,0.9-0.3,1.9-0.5,2.8l0,0
	c-0.1,0-0.1,0.1,0,0.3c-0.1,0.4-0.4,0.9-0.8,1.3C60.2,21.9,59.9,22.1,59.5,22.1L59.5,22.1z M64.1,17.8c-0.1,1.1-0.3,2.4-0.9,3.4
	c0,0.1-0.1,0.1-0.1,0.3c-0.4,0.4-0.8,0.5-1.3,0.6c-0.4,0.1-0.8,0.3-1.3,0.3c-0.1,0-0.3,0-0.3,0c0.4-0.3,0.6-0.5,0.8-0.9
	c0.1-0.1,0.3-0.3,0.3-0.5l0,0c0,0,0.1,0.1,0.3,0.1h0.1h0.1l0,0l0,0c0,0,0,0,0-0.1l0,0v-0.1h-0.1h-0.1h-0.1l0,0c0.3,0,0.5,0,0.6-0.1
	l0,0l0,0c0,0,0,0,0-0.1l0,0v-0.1c-0.1-0.1-0.4-0.1-0.6-0.1c0.1-0.3,0.1-0.5,0.1-0.8c0.1,0,0.3,0.1,0.5,0.1l0,0l0,0c0,0,0,0,0-0.1
	l0,0l0,0c0,0,0,0,0-0.1c-0.1-0.1-0.4-0.3-0.5-0.3c0.1-0.5,0.1-1,0.1-1.5c0-0.6,0.1-1.1,0.1-1.8c0.4,0.1,0.6,0.1,0.9,0l0,0l0,0
	c0,0,0,0,0-0.1l0,0c0.1,0,0-0.1,0-0.1h-0.1c0.3-0.1,0.4-0.1,0.5-0.3c0.1-0.1,0.3-0.1,0.3-0.3c0.1-0.1,0.1-0.3,0-0.4
	c-0.1-0.4-0.5-0.4-0.8-0.4c-0.3,0-0.9-0.1-0.8-0.4c0,0,0,0,0.1-0.1l0.1-0.1c0.1-0.1,0.3-0.1,0.3-0.3c0.1,0,0.1-0.1,0.3-0.1l0,0l0,0
	v-0.1c-0.1,0-0.1-0.1-0.3-0.1c-0.1,0-0.4,0-0.3-0.1v-0.1H62c0,0,0,0,0,0.1l0,0l0,0c0-0.1,0-0.4,0-0.5c0,0,0.1,0,0.3,0
	c0.1,0,0.1,0,0.3,0c0.1,0,0.3,0,0.3,0l0,0l0,0c0,0,0,0,0-0.1l0,0l0,0c0,0,0,0,0-0.1c-0.1-0.4-0.6-0.1-0.9-0.3l0,0c0-0.1,0-0.3,0-0.5
	l0,0c0.1,0,0.1,0,0.3,0c0.1,0,0.1,0.1,0.1,0.3l0,0c0-0.1,0-0.1,0-0.1v0.1l0,0v-0.1c0,0,0,0,0,0.1l0,0c0.1-0.3-0.1-0.4-0.4-0.4
	c0,0-0.1,0,0,0.1l0,0l0,0l0,0l0,0c0-0.9-0.1-1.7-0.4-2.4c-0.1-0.3-0.3-0.5-0.5-0.8c0.1,0,0.3,0.1,0.3,0.1c0.6,0.3,1.4,0.5,2,0.5
	C64.1,11.8,64.5,14.7,64.1,17.8z M62.2,15.5c0-0.4,0-0.8,0.1-1.1l0,0c0.3,0,0.4,0.1,0.6,0.1s0.6,0.3,0.5,0.4l0,0
	C63.1,15.1,62.7,15.1,62.2,15.5C62.2,15.3,62.2,15.3,62.2,15.5L62.2,15.5z M62.3,13.3c0-0.1,0-0.3,0-0.4c0.1,0,0.3,0.1,0.4,0.1
	C62.6,13.2,62.5,13.2,62.3,13.3z M71.9,16.2c-0.1,0.1-0.3,0.3-0.4,0.3c0,0-0.1,0-0.1,0.1l0,0c-0.1,0-0.1,0.1-0.1,0.3
	c0.3,0.5,0.3,1.4-0.1,1.9c-0.1,0.1-0.3,0.1-0.5,0.1c0,0,0,0-0.1,0l0,0l0,0l0,0c-0.1,0-0.1,0-0.1,0.1l0,0c-0.1,0-0.1,0.3,0,0.3h0.1
	c0.3,0.1-0.1,1-0.4,1.3c-0.6,0.5-1.8-0.6-1.4-1.4l0,0l0,0l0,0c0.1-0.1-0.1-0.4-0.3-0.3c0,0,0,0-0.1,0.1l0,0
	c-0.1,0.1-0.1,0.1-0.1,0.3c-0.5,0.1-1.1,0.6-1.3-0.3c0-0.3,0-0.8,0.3-1.1l0,0c0.1,0,0.1,0,0.3-0.1c0.1,0,0.1-0.1,0.3-0.3l0,0l0,0
	c0.1-0.1,0-0.3-0.1-0.3s-0.4,0.1-0.5,0.3c-0.3-0.1-0.4-0.4-0.5-0.5c-0.1-0.4,0.1-0.8,0.3-1v-0.1c-0.3-0.1,0-0.6-0.1-0.9
	c0-0.1-0.1-0.1-0.3-0.1c-0.5,0.3-1.3,0.3-1.7,0.8c0-0.8,0-1.5,0-2.3l0.1-0.1c0.3-0.1,0.5-0.3,0.8-0.3c0.3,0,0.6,0,0.9-0.3
	c0,0,0.1,0,0.1-0.1l0,0l0,0v-0.1h-0.1c-0.1-0.5-0.1-1.1-0.3-1.8c-0.1-0.3-0.3-0.6-0.1-0.9l0,0c0,0,0,0,0.1,0
	c0.3-0.1,0.6-0.3,0.6-0.1v0.1c0,0.1,0.1,0.1,0.3,0c0,0,0.1,0,0.1-0.1V9.5c0-0.1,0-0.1,0-0.3c0-0.1,0-0.3,0-0.4l0.1-0.1
	c0.3-0.1,0.8-0.3,1-0.3c0.5,0,1.7,0.8,1.3,1.4l0,0c0,0,0,0,0,0.1c0,0,0,0-0.1,0c-0.1,0.1,0,0.3,0.1,0.3c0.5,0,1.1,0,1.5,0.5
	c0.3,0.3,0.5,0.9,0.3,1.3l0,0l0,0c0,0,0,0-0.1,0.1c-0.1,0.1,0,0.3,0.1,0.3c0.6-0.1,1.1,0,1.3,0.6c0,0.3,0,0.5-0.1,0.8
	c-0.1,0.1-0.4,0.3-0.6,0.3c-0.1,0-0.1,0-0.1,0.1l0,0c-0.1,0-0.1,0.3,0.1,0.3c0.1,0,0.3,0,0.3,0s0,0.1,0,0.3h0.1
	C72.5,15,72.3,15.8,71.9,16.2z M77.7,14.1c-0.9,0-1.9,0.1-2.8,0.1c-0.8,0-1.5,0-2.3,0l-0.1-0.1c0.1-0.1,0.3-0.3,0.4-0.4l0,0
	c1.4,0.1,2.9,0.1,4.3,0.1c0.8,0,1.5,0,2.2,0.1c0.1,0,0.4,0,0.5,0.1C79.2,13.9,78.5,13.9,77.7,14.1z M18.1,18L18.1,18
	C18.1,17.9,18.1,17.9,18.1,18C18.1,17.9,18.1,18,18.1,18L18.1,18C18.1,18,18.1,18.1,18.1,18C18.1,18.1,18.1,18.1,18.1,18
	C18,18,18,18,18.1,18C18,18,18,18,18.1,18C18,18,18,18,18.1,18C18,18,18,18.1,18.1,18C18,18.1,18,18.1,18,18.1l0,0c0,0,0,0,0-0.1
	l0,0l0,0c0,0,0,0,0,0.1v0.1c0,0,0,0,0.1,0l0,0c0,0,0,0,0.1,0C18.1,18.1,18.1,18.1,18.1,18C18.1,18.1,18.1,18.1,18.1,18
	C18.1,18.1,18.1,18.1,18.1,18C18.2,18.1,18.2,18,18.1,18L18.1,18z M61.1,14.4L61.1,14.4l-0.1,0.1v0.1h0.1c0,0,0,0,0.1,0l0,0
	c0.1,0,0.1-0.1,0.1-0.1l0,0l0,0C61.5,14.4,61.2,14.2,61.1,14.4C61.1,14.3,61.1,14.4,61.1,14.4z M18.5,16.4h-0.1c0,0,0,0-0.1,0
	c0,0,0,0-0.1,0l0,0l0,0l0,0l0,0l0,0l0,0c0,0.1,0,0.1,0.1,0.1S18.5,16.5,18.5,16.4c0,0,0.1,0,0.1-0.1l0,0l0,0
	C18.7,16.5,18.6,16.4,18.5,16.4z"/>
<path class="st0" d="M20.9,16.9L20.9,16.9c-0.1,0-0.1,0-0.3,0.1l0,0l0,0c0,0-0.1,0-0.1,0.1c0,0.1,0,0.1,0.1,0.1h0.1l0,0
	c0,0,0,0,0.1,0l0,0l0,0C21,17.1,21,17,20.9,16.9C21,16.9,21,16.9,20.9,16.9z M68.6,14.3c0.1-0.1,0.1-0.3,0.1-0.4l0,0
	c-0.1,0-0.3,0-0.4,0.1l0,0l0,0l0,0c0,0,0,0-0.1,0c0,0,0,0.1,0,0c0.1,0,0.4-0.1,0.3,0.1c-0.1,0.1-0.3,0.1-0.4,0.1
	c-0.4,0-0.6-0.3-0.8-0.5c0-0.3,0-0.6,0.1-0.9c0.1-0.1,0.1-0.1,0.3-0.3c0.1,0,0.1-0.1,0.3-0.1l0,0l0,0c0,0,0.1,0,0.1-0.1
	c0.1,0,0.1-0.1,0-0.1c-0.3,0-0.5,0.1-0.6,0.4C67,13,66.8,13.8,67,14.3c0.3,0.5,0.9,0.5,1.3,0.3C68.4,14.6,68.6,14.4,68.6,14.3z
	 M19.9,15.6c0.1,0,0.3,0,0.3-0.1c0.1,0,0.1-0.1,0.1-0.1l0,0l0,0c0.1-0.1,0-0.4-0.1-0.5c-0.1,0-0.1,0-0.3,0.1l0,0
	c-0.1,0-0.3,0.1-0.4,0.3c-0.1,0.1-0.3,0.3-0.1,0.4C19.6,15.6,19.8,15.6,19.9,15.6z M19.9,15.1L19.9,15.1
	C19.9,15.2,20,15.2,19.9,15.1c0.1,0,0.1,0,0.1,0l0,0l0,0C20.1,15.2,20,15.2,19.9,15.1C20,15.2,20,15.2,19.9,15.1
	C19.9,15.2,19.9,15.2,19.9,15.1C19.9,15.2,19.9,15.2,19.9,15.1C19.9,15.2,19.9,15.1,19.9,15.1z M20.6,18.5l-0.1,0.1l0,0
	c-0.1,0-0.1,0.1-0.3,0.3c0,0.1,0,0.1,0.1,0.1l0,0l0,0c0,0,0,0,0-0.1l0,0C20.6,18.8,20.6,18.6,20.6,18.5L20.6,18.5z M20.3,16.5
	L20.3,16.5L20.3,16.5c0.1-0.1,0-0.1,0-0.1c-0.1,0-0.1,0-0.3,0l0,0c0-0.1-0.1-0.1-0.1,0c0,0,0,0-0.1,0c0,0-0.1,0-0.1,0.1l0,0l0,0
	c-0.1,0-0.1,0.1,0,0.3c0,0,0,0.1,0.1,0.1s0.3,0,0.4-0.1C20.1,16.6,20.3,16.6,20.3,16.5z M20.3,17.9C20.4,17.9,20.4,17.9,20.3,17.9
	C20.4,17.9,20.4,17.9,20.3,17.9C20.4,17.8,20.4,17.8,20.3,17.9c0.1-0.1,0.1-0.3,0.1-0.3c-0.1-0.1-0.4,0-0.4,0s0,0,0,0.1l0,0
	c0,0,0,0-0.1,0c-0.1,0.1,0,0.3,0.1,0.1l0,0l0,0C20.1,18,20.3,18,20.3,17.9L20.3,17.9z M60.1,12.3L60.1,12.3
	C60.2,12.3,60.2,12.3,60.1,12.3C60.2,12.3,60.2,12.3,60.1,12.3C60.2,12.2,60.2,12.2,60.1,12.3c0.1-0.1,0.1-0.1,0.1-0.1V12
	c0-0.1-0.1-0.1-0.1-0.1c-0.1,0-0.1,0-0.1,0.1l0,0c0,0-0.1,0-0.1,0.1S59.9,12.3,60.1,12.3z M60.3,16.5c0-0.1-0.1-0.1-0.3,0l0,0l0,0
	h-0.1c0,0.1-0.1,0.3,0,0.3l0,0l0,0c-0.1,0.1,0,0.3,0.1,0.3l0,0c0,0,0,0,0.1,0l0,0c0,0,0.1,0,0.1-0.1l0.1-0.1
	C60.4,16.7,60.3,16.6,60.3,16.5z M59.5,14.8c0,0-0.1,0-0.1,0.1l0,0l0,0c0,0-0.1,0-0.1,0.1s0,0.1,0,0.3c0,0.1,0.1,0.1,0.3,0
	c0,0,0.1,0,0.1-0.1l0,0l0,0c0,0,0.1,0,0.1-0.1C59.7,15.1,59.7,14.8,59.5,14.8z M59.4,18.9L59.4,18.9C59.4,18.9,59.5,18.9,59.4,18.9
	c0.1-0.1,0.1-0.1,0.1-0.1s0,0,0-0.1c0,0,0-0.1-0.1-0.1s-0.3,0-0.3,0.1l0,0c0,0-0.1,0-0.1,0.1C59.2,18.9,59.3,19,59.4,18.9z
	 M60.7,17.2C60.7,17.2,60.6,17.2,60.7,17.2c-0.1,0-0.1,0-0.1,0.1l0,0l0,0c-0.1,0-0.1,0.1,0,0.1c0,0,0,0,0.1,0h0.1c0,0,0.1,0,0.1-0.1
	C60.8,17.4,60.8,17.2,60.7,17.2z M60.3,13.8c0,0.1,0.1,0.3,0.3,0.3c0.1,0,0.1,0,0.3-0.1c0,0,0.1,0,0.1-0.1l0.1-0.1
	c0.1-0.1,0.1-0.4,0.3-0.5V13c-0.1,0-0.3,0-0.4,0s-0.1,0.1-0.1,0.1c-0.1,0.1-0.1,0.3-0.1,0.4l0,0l0,0l0,0
	C60.3,13.7,60.2,13.7,60.3,13.8z M60.6,13.4L60.6,13.4c0.1,0,0.1-0.1,0.1-0.1h0.1c0,0.1-0.1,0.3-0.1,0.4
	C60.7,13.7,60.6,13.6,60.6,13.4C60.6,13.6,60.6,13.4,60.6,13.4L60.6,13.4z M59.4,19.9C59.4,19.9,59.3,20,59.4,19.9
	c-0.1,0-0.1,0.1-0.1,0.3l0,0l0,0c0,0-0.1,0-0.1,0.1l0,0l0,0c-0.1,0-0.1,0.3,0,0.3c0.1,0,0.3,0,0.4-0.1c0,0,0.1,0,0.1-0.1l0,0l0,0
	c0.1-0.1,0-0.3-0.1-0.4C59.5,19.8,59.4,19.9,59.4,19.9z M18.1,17.9L18.1,17.9L18.1,17.9z M58.7,12.9L58.7,12.9
	c-0.1,0-0.1,0.1-0.1,0.1v0.1l0,0c0,0,0,0-0.1,0.1l-0.1,0.1c0,0,0,0.1,0.1,0.1h0.1h0.1c0,0,0.1,0,0.1-0.1l0,0l0,0
	c0.1-0.1,0.1-0.4,0.1-0.5C58.9,12.8,58.7,12.8,58.7,12.9z M58.3,16.6c0-0.1-0.3-0.1-0.3,0l0,0c0,0-0.1,0-0.1,0.1
	c0,0.3,0.1,0.5,0.4,0.5c0,0,0,0,0.1,0l0,0c0,0,0.1,0,0.1-0.1c0,0,0.1-0.1,0-0.1C58.4,16.9,58.3,16.7,58.3,16.6z M70.5,13.8
	c-0.1,0-0.3-0.1-0.4-0.1c-0.1,0-0.3,0-0.3,0.1l0,0c-0.1,0-0.1,0.1-0.1,0.1c0,0.1,0.1,0.4,0.3,0.4h0.1c0,0,0.1,0,0.1-0.1
	c0,0,0.1-0.1,0-0.1l0,0l0,0c0,0,0,0,0.1,0c0,0,0,0,0.1,0l0,0l0,0l0,0l0,0l0,0l0,0l0,0l0,0l0,0c0,0,0,0-0.1,0.1l0,0l0,0l0,0l0,0
	c0,0,0,0-0.1,0.1v0.1c0.1,0,0.3,0,0.3-0.1c0.1,0,0.1-0.1,0.1-0.1s0-0.1,0.1-0.1c0-0.1,0-0.3-0.1-0.4C70.7,13.9,70.6,13.9,70.5,13.8z
	 M18,17.9L18,17.9L18,17.9z M69.8,11.8L69.8,11.8c0.3-0.3,0.1-0.6,0-0.9s-0.4-0.5-0.8-0.6c-0.3-0.1-0.5-0.1-0.8,0l-0.1,0.1l0,0
	c-0.4,0.3-0.1,0.8-0.1,1.1c0,0.1,0.1,0.1,0.1,0c0,0,0.1,0,0.1-0.1l0,0l0,0c0-0.1,0-0.5,0-0.8l0,0l0,0c0.3,0,0.4,0.1,0.5,0.3
	c0.1,0.1,0.4,0.3,0.5,0.5c0.1,0.1,0.1,0.4,0.3,0.5C69.7,11.9,69.7,11.9,69.8,11.8L69.8,11.8L69.8,11.8z M19.2,12.7h0.1h0.1
	c0,0,0.1,0,0.1-0.1c0.1,0,0.1-0.3,0-0.3h-0.1c-0.1,0-0.1,0-0.1,0.1l0,0C19.1,12.4,19.1,12.7,19.2,12.7z M20.1,14.3
	c0.1,0,0.1,0,0.3,0l0.1-0.1c0,0,0-0.1,0.1-0.1c0-0.1-0.1-0.1-0.1,0l0,0l0,0c0,0-0.1,0-0.1,0.1C20.1,14.2,20.1,14.2,20.1,14.3
	C20,14.2,20,14.3,20.1,14.3z M18,15.1L18,15.1C18,15.2,18,15.2,18,15.1C18,15.2,18,15.2,18,15.1C18,15.2,18,15.2,18,15.1
	C18,15.2,18,15.2,18,15.1c0.1,0,0.1,0,0.1,0s0,0,0.1,0h0.1h0.1c0,0,0.1,0,0.1-0.1c0.1,0,0.1-0.3,0-0.3h-0.1h-0.1l0,0c0,0,0,0-0.1,0
	c0,0-0.1,0-0.1,0.1l0,0l0,0l0,0c0,0-0.1,0-0.1,0.1C17.9,15,17.9,15,18,15.1C17.9,15,17.9,15,18,15.1C17.9,15,17.9,15.1,18,15.1
	C17.9,15.1,17.9,15.1,18,15.1L18,15.1z M18,18L18,18L18,18z M19.1,18.3c-0.1,0-0.1,0.1-0.1,0.1l0,0l0,0c0-0.1-0.1-0.1-0.1,0l0,0l0,0
	c0,0-0.1,0-0.1,0.1s0,0.3,0.1,0.4c0,0,0.1,0.1,0.1,0l0,0l0,0c0.1,0,0.1-0.1,0.1-0.3c0.1-0.1,0.1-0.3,0.1-0.4
	C19.2,18.3,19.2,18.1,19.1,18.3z M19.2,15.7c-0.1,0-0.3,0-0.3,0.1l0,0c0,0-0.1,0-0.1,0.1c-0.1,0.1-0.1,0.3,0,0.4H19l0,0l0,0
	c0,0,0,0,0.1-0.1v-0.1l0,0h0.1c0,0,0.1,0,0.1-0.1C19.4,16,19.4,15.7,19.2,15.7z M19.4,14.3c0-0.1,0-0.3,0-0.5c0-0.1-0.1-0.1-0.1,0
	l0,0l0,0c0,0-0.1,0-0.1,0.1c0,0.4,0,0.8,0.3,1h0.1c0,0,0.1,0,0.1-0.1l0,0c0,0,0,0,0-0.1C19.5,14.7,19.4,14.6,19.4,14.3z M69.6,16.6
	c-0.1,0-0.3-0.1-0.4-0.1c0,0,0.1-0.1,0.1-0.3s-0.1-0.1-0.1-0.1l-0.1,0.1l0,0c-0.1,0-0.1,0.1-0.1,0.1c-0.1,0-0.3,0-0.4-0.1
	c-0.1,0-0.3-0.3-0.3-0.4l0,0l0,0l0,0c0,0,0,0,0-0.1l0,0c0.1,0,0-0.1,0-0.1c-0.1,0-0.3,0.1-0.3,0.1c-0.3,0.1-0.1,0.5,0.1,0.8
	c0.3,0.3,0.5,0.3,0.8,0.1c0.1,0.1,0.3,0.3,0.5,0.1l0,0l0,0C69.6,16.7,69.6,16.7,69.6,16.6C69.6,16.7,69.6,16.7,69.6,16.6L69.6,16.6z
	 M82.3,14.1c-0.1,0-0.4-0.1-0.5-0.1c-0.5-0.3-1.3-0.4-1.8-0.5c-0.8-0.1-1.5-0.1-2.4-0.1c-0.8,0-1.7,0-2.4,0c-0.6,0-1.4-0.1-2.2-0.1
	c0-0.1,0-0.3,0-0.4c0-0.8-0.6-1-1.3-1c0.1-0.4,0-0.9-0.1-1.3c-0.4-0.6-1-0.8-1.7-0.8C70.5,9.1,69.5,8,68.7,8c-0.6,0-1.4,0.1-1.7,0.5
	c-0.1,0.1-0.3,0.3-0.3,0.4c-0.4,0-0.8,0.3-1,0.5l-0.1,0.1c-0.3,0.4-0.1,0.6,0,1c0.1,0.5,0.1,1.1,0.4,1.8c-0.3,0-0.6,0.1-0.8,0.3
	c-0.3,0.1-0.5,0.1-0.6,0.4c-0.1-1.5-0.3-2.9-0.4-4.4c0-0.1-0.1-0.1-0.1-0.1c-0.9,0-1.7-0.4-2.4-0.6c-0.6-0.3-1.3-0.3-2-0.3h-0.1
	c-0.4,0-1,0.1-1.3,0.5C58.1,8.1,58,8.3,58,8.6c-0.5,0.5-0.8,1.3-0.9,2c-0.1,0.6-0.3,1.4-0.3,2c-0.6-0.9-1.7-1.4-2.8-1.7
	c-1.3-0.3-2.3,0.3-2.9,1c-0.3,0.3-0.5,0.5-0.6,0.9c0.1-0.9,0.1-1.9,0.3-2.8c0-0.5,0.1-1.1,0.3-1.7c0-0.4,0.1-0.8,0-1.1l0,0
	c0.1-0.1-0.1-0.3-0.3-0.3c-0.5,0.3-1,0.3-1.5,0.4c-0.4,0.1-0.9,0.3-1.3,0.3c-0.1,0-0.1,0-0.1,0.1l0,0l0,0c0,0-0.1,0-0.1,0.1
	c-0.1,0.3-0.3,0.6-0.3,0.9c0,0.1-0.1,0.4-0.1,0.5l-0.1,0.1c0,0.1,0,0.1,0.1,0.1c-0.4,1.9-0.4,3.8-0.5,5.7c-0.1,0-0.1,0-0.3,0
	c-0.1,0-0.1,0-0.3,0c-0.1-0.5-0.1-1-0.3-1.5c-0.1-0.8-0.4-1.7-0.5-2.4c-0.1-0.5-0.4-1.4-0.3-2c0,0,0-0.1,0.1-0.1
	c0-0.1,0.1-0.1,0.1-0.3c0-0.1,0-0.1,0-0.1l0,0c0-0.1,0-0.1-0.1-0.1c0,0,0,0-0.1-0.1h-0.1c-1,0.8-2.4,1-3.3,1.9
	c-0.1,0.1-0.1,0.1-0.3,0.3c0,0,0,0.1,0.1,0.1c0.3-0.1,0.5-0.3,0.8-0.4c0.4-0.3,0.8-0.4,1.3-0.6c0.3-0.1,0.5-0.3,0.9-0.4
	c0,0,0.4-0.3,0.5-0.3v0.1c-0.3,0.3-0.5,0.5-0.6,0.8h-0.1c-0.5,0.1-0.9,0.4-1.4,0.5c-0.4,0.1-0.6,0.1-1,0.4l0,0c0,0-0.1,0-0.1,0.1
	l0,0l0,0c0,0-0.1,0-0.1,0.1c-0.1,0.9,0.1,1.8,0.3,2.7c-0.8-0.8-1.9-1.3-3.1-1.4c-1.3-0.1-2.8,0.5-3.7,1.5c-0.6,0.6-1,1.4-1.1,2.3
	C34,16.6,34,16.7,34,17c-0.8-1.4-1.3-2.7-2-3.6c-1-1.4-2.5-2.4-4.3-2.4c-0.5,0-1,0.1-1.3,0.5c-0.1,0.1-0.3,0.3-0.4,0.5
	c-0.1,0.4,0,0.8,0,1.1c0,0.4,0,0.8,0.1,1c-0.3-0.1-0.6,0-0.9,0c-0.6,0.1-1.3,0.3-1.9,0.4c-0.1,0-1,0.4-1.3,0.8
	c-0.1-1.5-0.5-3.1-1.1-4.4c-0.4-0.6-0.9-1.3-1.5-1.5c0.1,0,0-0.1,0-0.1c-0.1,0-0.1,0-0.3,0C18,8.9,16.7,9,15.4,9.1
	c0,0-0.1,0-0.1,0.1l0,0l0,0l0,0c0,0-0.1,0-0.1,0.1l0,0l0,0c-0.8,0.8-0.9,2-1.1,3.1c-0.3,1.1-0.5,2.4-0.6,3.6c-0.9-0.1-1.9,0-2.8-0.1
	c-1.3,0-2.5-0.1-3.8-0.3c-1-0.1-2-0.1-3.2-0.1c0.1,0,0.3,0,0.4,0c1,0,1.9,0,2.9,0c2,0,4.1,0.1,6.1,0.1h0.1c0,0,0.1,0,0.1-0.1
	c0.1,0,0.1-0.3-0.1-0.3c-1,0-2,0-3.1,0c-1.1,0-2.2,0-3.3-0.1c-1,0-2.2,0-3.2,0c-0.8,0-1.7,0.1-2.4,0.3c-0.3,0-0.4,0-0.6,0
	c0,0-0.1,0,0,0.1l0,0l0,0l0,0c-0.1,0-0.1,0.1,0,0.1c2.3,0.1,4.7,0.3,7,0.4c1.1,0.1,2.4,0.1,3.6,0.1c0.8,0,1.7,0.1,2.4,0.1
	c0,0.1,0,0.3,0,0.4c0,1.1,0,2.3,0.4,3.4c0.3,0.9,0.6,2,1.4,2.7c0,0,0,0.1,0.1,0.1c1.4,0.5,2.8,0,3.9-0.8c0.5-0.3,0.9-0.6,1.3-1
	c0.3-0.3,0.4-0.5,0.5-0.8c0.3-0.4,0.4-0.8,0.6-1.1c0.6,0.5,1.7,0.5,2.4,0.4c0.9-0.1,1.8-0.3,2.5-0.6l0,0c0.1,0.1,0.1,0.3,0.3,0.4
	c0.1,0.3,0.4,0.5,0.5,0.8c0.3,0.4,0.5,0.8,0.8,1.1c-0.1,0.5-0.1,0.8-0.1,1c-0.3,0.4-0.3,0.8,0,1l0,0c0,0.1,0.1,0.1,0.3,0.1h0.1
	c0.1,0,0.1,0,0.3,0h0.1c1,0,1.9,0,2.8-0.5l0.1-0.1c0.4-0.3,0.8-0.6,1-1.1c0.4-0.5,0.5-1,0.6-1.5c0.1-0.4,0.1-0.8,0.1-1.1
	c0.8,1.8,3.2,2.8,5,2.8c0.9,0,1.5-0.3,2.2-0.6c0.5-0.3,0.9-0.8,1.1-1.1s0.5-0.9,0.6-1.3c0.3,1.8,0.5,3.6,1.1,5.1
	c0,0.1,0.1,0.1,0.3,0.1H44c0.4-0.3,0.8-0.4,1.3-0.5c-0.4,0.6-0.4,1.5-0.4,2.3c0,0.1,0.1,0.1,0.3,0.1c1.1-0.3,2-0.9,3.2-1h0.1
	c0,0,0.1,0,0.1-0.1c0,0,0,0,0-0.1c0-0.1,0-0.1,0-0.3c0,0,0,0,0.1-0.1c0.1,0,0.3-0.1,0.4,0h0.1c0,0,0.1,0,0.1-0.1c0,0,0,0,0-0.1
	c0.4-1.4,0.1-2.9,0.4-4.3c0.1-1.1,0.3-2.3,0.4-3.4c0.1,0.5,0.5,0.9,1,1.4c1.4,1.3,3.4,1.3,4.8,0.3c0.3-0.3,0.6-0.5,0.9-0.8
	c-0.1,1.3-0.3,2.5,0.1,3.7c0.1,0.6,1,2.2,1.9,1.9l0,0c0.3,0.1,0.4,0.1,0.6,0c0.3,0,0.5,0.1,0.9,0.3c0.4,0,0.8,0,1-0.1
	c0.5-0.1,1.1-0.4,1.5-0.8c0.1,0,0.1-0.1,0.3-0.3c0.1-0.1,0.4-0.4,0.5-0.5c0.5-0.8,0.8-1.8,0.9-2.7c0.1-0.9,0.3-1.8,0.3-2.7
	c0,0,0,0,0.1-0.1l0,0l0,0l0,0l0.1-0.1c0.4-0.3,0.8-0.3,1.1-0.4c0,0.3-0.1,0.6,0.1,0.8c0,0-0.3,0.9-0.3,1c0.1,0.4,0.4,0.6,0.6,0.8
	c-0.3,0.4-0.4,1-0.3,1.5c0.1,0.9,1,0.6,1.7,0.4c0,0.9,1.1,1.8,2,1.3c0,0,0,0,0.1,0l0,0c0.1,0,0.3-0.3,0.4-0.4c0.3-0.4,0.5-1,0.4-1.4
	c0,0,0.1,0,0.1-0.1c0.1-0.1,0.3-0.3,0.4-0.4c0.4-0.5,0.4-1.4,0.3-1.9l0,0c0.3-0.1,0.5-0.4,0.6-0.6c0.3-0.4,0.5-1,0.5-1.4
	c0.5,0,1,0,1.5,0c0.9,0,1.8,0,2.7-0.1c1.8-0.1,3.4-0.1,5.2-0.3l0,0l0,0c0,0,0,0,0-0.1l0,0C82.4,14.2,82.4,14.1,82.3,14.1z M50.6,8.1
	c0-0.1,0-0.1,0.1-0.3c0,0.1,0,0.3-0.1,0.4C50.6,8.2,50.6,8.2,50.6,8.1L50.6,8.1z M15.8,22.6C15.7,22.6,15.7,22.6,15.8,22.6
	c-0.1,0-0.3-0.1-0.3-0.1s0,0-0.1,0c-0.5-0.9-0.9-1.5-1.1-2.5c-0.3-1-0.4-2.2-0.3-3.3v-0.1c0-0.1,0-0.3,0-0.4l0,0
	c0.1-1.3,0.4-2.4,0.6-3.7c0.1-0.5,0.3-1,0.4-1.7c0.1-0.3,0.1-0.6,0.3-0.9c0-0.1,0.1-0.3,0.1-0.3l0,0c0,0,0,0,0.1,0l0,0
	c0,0,0,0,0.1,0l0,0c1,0,1.9-0.1,2.9,0c0.1,0,0.1,0,0.3,0c-0.4,0.4-0.5,1-0.8,1.4c-0.3,0.6-0.5,1.3-0.8,1.9c-0.1,0.8-0.3,1.5-0.4,2.3
	c-0.3,2.3,0.1,5.2,1.5,7C17.6,22.7,16.6,22.8,15.8,22.6z M20.4,20.5c-0.1,0.3-0.4,0.5-0.6,0.8c-0.3,0.3-0.5,0.5-0.9,0.6h-0.1
	c-1.3-1.9-1.8-4.1-1.5-6.4c0.1-1.4,0.3-2.8,0.8-4.1c0.1-0.4,0.4-0.8,0.5-1.1c0.1-0.1,0.1-0.5,0.4-0.6c0,0,0-0.1,0.1-0.1
	c0.8,0.3,1.1,0.8,1.5,1.5c0.8,1.4,1,3.1,1.1,4.6C21.7,17.5,21.3,19.2,20.4,20.5z M28.1,20.5C28.3,20.5,28.3,20.5,28.1,20.5
	c0-0.6-0.5-0.9-0.9-1.3l-0.1-0.1l0,0c0.1,0,0.1,0,0.1,0s0.1,0,0.1-0.1c0.1,0,0.1-0.1,0-0.3l-0.1-0.1h0.1c0.1,0,0.3,0,0.4-0.1
	c0,0,0.1,0,0.1-0.1c0.1,0,0.1-0.1,0.1-0.1c0.1-0.1,0.1-0.1,0-0.3c-0.1-0.3-0.5-0.4-0.9-0.5c0.4,0,0.8,0,1-0.3c0,0,0.1,0,0.1-0.1
	c0,0,0,0,0-0.1l0,0c0,0,0.1-0.1,0-0.3c-0.4-0.4-0.9-0.4-1.4-0.5c0.4-0.1,0.8-0.1,1-0.3l0,0c0,0,0,0,0.1,0c0,0,0,0,0-0.1l0,0
	c0.1-0.1,0-0.3-0.1-0.3c0,0-0.5,0-1-0.1c-0.3-0.1-0.4-0.1-0.4-0.3l0,0l0.1-0.1c0.1-0.1,0.4-0.3,0.6-0.3l0,0l0,0c0,0,0,0,0-0.1
	c0.1,0,0.1-0.1,0-0.1c-0.4,0-0.9,0.3-1.1,0.5c-0.1,0.1-0.1,0.1-0.3,0.3v0.1c0.3,0.4,0.8,0.5,1.3,0.5c-0.3,0-0.5,0.1-0.6,0.3
	c0,0,0,0,0,0.1c0,0,0,0-0.1,0.1c-0.1,0-0.1,0.1,0,0.3c0.4,0.3,1,0.3,1.4,0.5c-0.5,0.1-1,0-1.5,0.1c0,0-0.1,0-0.1,0.1l0,0
	c-0.1,0-0.1,0.1-0.1,0.3c0.3,0.3,0.8,0.4,1.1,0.5c0.1,0,0.3,0.1,0.3,0.1l0,0c-0.1,0-0.4,0-0.5,0c-0.3-0.1-0.5-0.1-0.6,0
	c0,0,0,0,0,0.1l0,0l0,0c0,0,0,0-0.1,0c-0.1,0,0,0.1,0,0.3l0,0l0,0c-0.1,0-0.1,0.1-0.1,0.1c-0.6,0-1.4,0.4-2,0.5c-0.1,0-0.5,0-1,0
	c-0.1,0-0.9-0.1-1-0.3c0-0.1,0-0.1-0.1-0.1l0,0c0,0,0,0-0.1,0c0.3-0.9,0.4-1.9,0.4-2.8c0-0.1,0-0.3,0-0.3l0,0c0,0,0.1,0,0.1-0.1l0,0
	c0,0,0,0,0-0.1v-0.1l0.1-0.1c0.4-0.3,1.3-0.5,1.4-0.5c0.8-0.3,1.5-0.3,2.3-0.4c0,0,0,0,0.1,0l0,0c0,0,0,0,0.1,0l0,0h0.1
	c0,0,0.1,0,0.1-0.1l0,0h0.1c0,0,0.1,0,0.1-0.1l0,0c0,0,0,0,0-0.1c0-0.1,0-0.3,0.1-0.4c0-0.1,0.1-0.1,0.3-0.3
	c0.3-0.1,0.4-0.3,0.6-0.3c0.4-0.1,0.9,0,1.3,0.3c0.8,0.4,1.3,1,1.8,1.7c0.8,1.3,0.6,2.8,0,4.1c-0.3,0.6-0.6,1-1.1,1.5
	c-0.3,0.3-0.6,0.6-0.9,0.9c0-0.1,0-0.4-0.1-0.5C28.4,20.9,28.3,20.8,28.1,20.5z M33.1,20c-0.1,0.8-0.5,1.4-1,1.9
	c-0.3,0.3-0.5,0.4-0.8,0.5c-0.8,0.4-1.8,0.3-2.7,0.3c0-0.3,0-0.5,0-0.6c0.1-0.1,0.3-0.3,0.4-0.4c0.5-0.5,1-0.9,1.4-1.5
	c0.1-0.1,0.1-0.1,0.3-0.3c0.6-1,1.1-2.3,0.9-3.6c-0.3-1.4-1.1-2.8-2.4-3.4c-0.6-0.4-2-0.4-2.4,0.3c-0.1,0.1-0.3,0.3-0.3,0.4
	c0-0.3,0-0.4,0-0.6c0-0.4-0.1-0.8-0.1-1.1c0-0.1,0-0.1,0.1-0.3l0.1-0.1c0.4-0.3,1-0.3,1.4-0.1c1.8,0.3,3.1,1.4,3.9,2.9
	C33,16,33.5,18.1,33.1,20z M48,8L48,8C48.1,8,48.1,8,48,8c0.5,0,1-0.1,1.5-0.3c0.3,0,0.6-0.1,0.9-0.3c0,0.1-0.1,0.3-0.3,0.5
	c-0.4,0-0.8,0.4-1.3,0.5c-0.4,0.1-0.9,0.1-1.3,0.4C47.9,8.5,47.9,8.1,48,8z M46.7,15.5L46.7,15.5L46.7,15.5
	C46.7,15.5,46.6,15.5,46.7,15.5C46.6,15.5,46.6,15.5,46.7,15.5z M46.5,15.8c0.1,0,0.1,0,0.3,0c0,0.4-0.1,0.8-0.1,1
	C46.6,16.6,46.5,16.2,46.5,15.8L46.5,15.8z M46.5,15.6C46.3,15.6,46.3,15.6,46.5,15.6C46.3,15.6,46.3,15.6,46.5,15.6
	C46.3,15.6,46.3,15.6,46.5,15.6z M44.3,10.6L44.3,10.6c0.1-0.1,0.1-0.3,0.1-0.3c0.1-0.1,0.3-0.4,0.4-0.5c0,0.3,0,0.5,0,0.6
	c0.1,0.9,0.4,1.9,0.5,2.8c0.3,1.4,0.5,2.8,0.6,4.1c0.1,0.9,0.3,1.7,0.4,2.5c0.1,0.6,0.1,1.3-0.1,1.9c0-0.3-0.1-0.4-0.3-0.6
	c-0.3-0.6-0.4-1.1-0.5-1.8c-0.3-1.5-0.6-3.1-0.8-4.6c-0.1-0.8-0.1-1.4-0.3-2.2C44.5,12,44.3,11.3,44.3,10.6L44.3,10.6z M41.6,20
	c-0.1,0.1-0.3,0.4-0.4,0.5c-1.7,1.5-4.4,0.8-6-0.6c-0.9-0.8-1.4-1.7-1.3-2.8V17c0,0,0,0,0-0.1l0,0c0,0,0,0,0-0.1
	c0.1-0.4,0.3-0.8,0.4-1.1c0-0.3,0.1-0.5,0.3-0.6c0.1-0.1,0.1-0.3,0.3-0.3l0,0c0,0,0-0.1,0.1-0.1c0,0,0,0-0.1,0c0,0,0,0,0-0.1
	c0.3-0.4,0.5-0.6,0.9-1c1.1-0.8,2.8-0.8,4.1-0.3c1,0.4,1.7,1,2,1.8c0.1,0.8,0.4,1.5,0.5,2.3C42.4,18.3,42.1,19.2,41.6,20z
	 M44.4,23.3h-0.1c0,0,0-0.1-0.1-0.1c-0.8-1.8-0.9-3.9-1.3-5.8c0-0.1,0-0.1,0-0.3c0-0.9-0.1-1.8-0.5-2.5c0-0.1-0.1-0.4-0.1-0.5
	c-0.3-1-0.6-1.9-0.5-2.9l0,0c0,0,0.1,0,0.1-0.1c0.3-0.1,0.6-0.1,0.9-0.3c0.4-0.1,0.6-0.3,1-0.4c-0.1,1.1,0.4,2.2,0.5,3.3
	c0.3,1.5,0.5,2.9,0.8,4.4c0.1,0.6,0.3,1.4,0.4,2c0.1,0.5,0.4,0.9,0.5,1.4c0.1,0.3,0.1,0.6,0,0.9c0,0,0,0,0,0.1
	c-0.1,0.1-0.4,0.3-0.5,0.3C45.2,23.1,44.8,23.2,44.4,23.3z M48.5,22.5c0,0.4-0.1,0.9-0.1,1.3c0,0.1,0,0.3,0,0.4c0,0-0.1,0.1-0.1,0.3
	c0,0,0,0,0,0.1c-0.1,0-0.4,0-0.4,0.1c-0.8,0.3-1.5,0.5-2.3,0.8c0-0.6,0.1-1.4,0.4-1.9l0.1-0.1l0,0l0,0v-0.1c0.1-0.1,0.1-0.1,0.1-0.3
	h0.1h0.1c0,0,0-0.1,0.1-0.1c0.8-1.1,0.5-2.3,0.3-3.7c0-0.4-0.1-0.6-0.1-1l0,0l0,0c0,0,0,0,0-0.1c0.5-2.8,0.3-5.6,0.8-8.4l0,0l0,0
	c0.5-0.4,1.1-0.3,1.7-0.5c0,0,0.5-0.4,0.8-0.4c0,0.1,0,0.1,0,0.3c0,0,0,0.1,0.1,0.1c-0.1,0.4-0.1,0.8-0.3,1.1
	c-0.4,2.2-0.6,4.3-0.9,6.5C48.9,18.4,48.7,20.4,48.5,22.5z M50.4,10c-0.1,1.7-0.3,3.3-0.5,5c-0.3,1.5-0.4,3.1-0.5,4.6
	c-0.1,1.3,0,2.7-0.3,4.1c-0.1,0-0.3,0-0.4,0.1c0-1,0.3-2.2,0.4-3.2c0.1-1.3,0.3-2.7,0.4-3.9c0.3-2.3,0.6-4.6,1-6.9
	C50.4,10,50.4,10,50.4,10z M56.4,17c-1.1,1.1-3.1,1.3-4.6,0.3c-0.8-0.5-1.3-1.3-1.4-2.2c0-0.5,0.1-0.9,0.1-1.4
	c0-0.1,0.1-0.3,0.1-0.3c0-0.1,0.1-0.1,0.1-0.3c0-0.1,0.1-0.1,0.1-0.3l0,0c0,0,0,0,0-0.1c-0.1,0-0.3,0.1-0.4,0.1
	c0-0.1,0.1-0.3,0.1-0.4c0-0.1,0.1-0.1,0.1-0.3c0.1-0.3,0.4-0.5,0.6-0.6c0.4-0.3,1-0.5,1.5-0.5c1-0.1,2.2,0.4,2.9,1
	c1,0.8,1.3,2,0.9,3.3C57,16.2,56.7,16.6,56.4,17z M59.5,22.1C59.5,22.1,59.4,22.1,59.5,22.1c-0.3,0-0.4,0-0.5,0h-0.1
	c-0.5,0-1-0.6-1.3-1.1c-0.5-1-0.6-2-0.5-3.1c0-0.1,0-0.3,0-0.4c0-0.4,0-0.6,0-1l0,0c0.1-0.1,0.3-0.4,0.3-0.5c0.5-1,0.4-2,0-2.8
	c0,0,0,0,0-0.1c0.1-0.9,0-1.8,0.1-2.7c0.1-0.6,0.3-1.3,0.6-1.8c0-0.1,0.1-0.1,0.1-0.3l0,0l0,0V8.2l0,0l0.1-0.1
	c0.3-0.1,0.5-0.3,0.8-0.3c0.5,0,1,0.1,1.4,0.3c1,0.5,1.1,1.8,1.1,2.8c0.1,2.2,0,4.3-0.3,6.6c-0.1,0.9-0.3,1.9-0.5,2.8l0,0
	c-0.1,0-0.1,0.1,0,0.3c-0.1,0.4-0.4,0.9-0.8,1.3C60.2,21.9,59.9,22.1,59.5,22.1L59.5,22.1z M64.1,17.8c-0.1,1.1-0.3,2.4-0.9,3.4
	c0,0.1-0.1,0.1-0.1,0.3c-0.4,0.4-0.8,0.5-1.3,0.6c-0.4,0.1-0.8,0.3-1.3,0.3c-0.1,0-0.3,0-0.3,0c0.4-0.3,0.6-0.5,0.8-0.9
	c0.1-0.1,0.3-0.3,0.3-0.5l0,0c0,0,0.1,0.1,0.3,0.1h0.1h0.1l0,0l0,0c0,0,0,0,0-0.1l0,0v-0.1h-0.1h-0.1h-0.1l0,0c0.3,0,0.5,0,0.6-0.1
	l0,0l0,0c0,0,0,0,0-0.1l0,0v-0.1c-0.1-0.1-0.4-0.1-0.6-0.1c0.1-0.3,0.1-0.5,0.1-0.8c0.1,0,0.3,0.1,0.5,0.1l0,0l0,0c0,0,0,0,0-0.1
	l0,0l0,0c0,0,0,0,0-0.1c-0.1-0.1-0.4-0.3-0.5-0.3c0.1-0.5,0.1-1,0.1-1.5c0-0.6,0.1-1.1,0.1-1.8c0.4,0.1,0.6,0.1,0.9,0l0,0l0,0
	c0,0,0,0,0-0.1l0,0c0.1,0,0-0.1,0-0.1h-0.1c0.3-0.1,0.4-0.1,0.5-0.3c0.1-0.1,0.3-0.1,0.3-0.3c0.1-0.1,0.1-0.3,0-0.4
	c-0.1-0.4-0.5-0.4-0.8-0.4c-0.3,0-0.9-0.1-0.8-0.4c0,0,0,0,0.1-0.1l0.1-0.1c0.1-0.1,0.3-0.1,0.3-0.3c0.1,0,0.1-0.1,0.3-0.1l0,0l0,0
	v-0.1c-0.1,0-0.1-0.1-0.3-0.1c-0.1,0-0.4,0-0.3-0.1v-0.1H62c0,0,0,0,0,0.1l0,0l0,0c0-0.1,0-0.4,0-0.5c0,0,0.1,0,0.3,0
	c0.1,0,0.1,0,0.3,0c0.1,0,0.3,0,0.3,0l0,0l0,0c0,0,0,0,0-0.1l0,0l0,0c0,0,0,0,0-0.1c-0.1-0.4-0.6-0.1-0.9-0.3l0,0c0-0.1,0-0.3,0-0.5
	l0,0c0.1,0,0.1,0,0.3,0c0.1,0,0.1,0.1,0.1,0.3l0,0c0-0.1,0-0.1,0-0.1v0.1l0,0v-0.1c0,0,0,0,0,0.1l0,0c0.1-0.3-0.1-0.4-0.4-0.4
	c0,0-0.1,0,0,0.1l0,0l0,0l0,0l0,0c0-0.9-0.1-1.7-0.4-2.4c-0.1-0.3-0.3-0.5-0.5-0.8c0.1,0,0.3,0.1,0.3,0.1c0.6,0.3,1.4,0.5,2,0.5
	C64.1,11.8,64.5,14.7,64.1,17.8z M62.2,15.5c0-0.4,0-0.8,0.1-1.1l0,0c0.3,0,0.4,0.1,0.6,0.1s0.6,0.3,0.5,0.4l0,0
	C63.1,15.1,62.7,15.1,62.2,15.5C62.2,15.3,62.2,15.3,62.2,15.5L62.2,15.5z M62.3,13.3c0-0.1,0-0.3,0-0.4c0.1,0,0.3,0.1,0.4,0.1
	C62.6,13.2,62.5,13.2,62.3,13.3z M71.9,16.2c-0.1,0.1-0.3,0.3-0.4,0.3c0,0-0.1,0-0.1,0.1l0,0c-0.1,0-0.1,0.1-0.1,0.3
	c0.3,0.5,0.3,1.4-0.1,1.9c-0.1,0.1-0.3,0.1-0.5,0.1c0,0,0,0-0.1,0l0,0l0,0l0,0c-0.1,0-0.1,0-0.1,0.1l0,0c-0.1,0-0.1,0.3,0,0.3h0.1
	c0.3,0.1-0.1,1-0.4,1.3c-0.6,0.5-1.8-0.6-1.4-1.4l0,0l0,0l0,0c0.1-0.1-0.1-0.4-0.3-0.3c0,0,0,0-0.1,0.1l0,0
	c-0.1,0.1-0.1,0.1-0.1,0.3c-0.5,0.1-1.1,0.6-1.3-0.3c0-0.3,0-0.8,0.3-1.1l0,0c0.1,0,0.1,0,0.3-0.1c0.1,0,0.1-0.1,0.3-0.3l0,0l0,0
	c0.1-0.1,0-0.3-0.1-0.3s-0.4,0.1-0.5,0.3c-0.3-0.1-0.4-0.4-0.5-0.5c-0.1-0.4,0.1-0.8,0.3-1v-0.1c-0.3-0.1,0-0.6-0.1-0.9
	c0-0.1-0.1-0.1-0.3-0.1c-0.5,0.3-1.3,0.3-1.7,0.8c0-0.8,0-1.5,0-2.3l0.1-0.1c0.3-0.1,0.5-0.3,0.8-0.3c0.3,0,0.6,0,0.9-0.3
	c0,0,0.1,0,0.1-0.1l0,0l0,0v-0.1h-0.1c-0.1-0.5-0.1-1.1-0.3-1.8c-0.1-0.3-0.3-0.6-0.1-0.9l0,0c0,0,0,0,0.1,0
	c0.3-0.1,0.6-0.3,0.6-0.1v0.1c0,0.1,0.1,0.1,0.3,0c0,0,0.1,0,0.1-0.1V9.5c0-0.1,0-0.1,0-0.3c0-0.1,0-0.3,0-0.4l0.1-0.1
	c0.3-0.1,0.8-0.3,1-0.3c0.5,0,1.7,0.8,1.3,1.4l0,0c0,0,0,0,0,0.1c0,0,0,0-0.1,0c-0.1,0.1,0,0.3,0.1,0.3c0.5,0,1.1,0,1.5,0.5
	c0.3,0.3,0.5,0.9,0.3,1.3l0,0l0,0c0,0,0,0-0.1,0.1c-0.1,0.1,0,0.3,0.1,0.3c0.6-0.1,1.1,0,1.3,0.6c0,0.3,0,0.5-0.1,0.8
	c-0.1,0.1-0.4,0.3-0.6,0.3c-0.1,0-0.1,0-0.1,0.1l0,0c-0.1,0-0.1,0.3,0.1,0.3c0.1,0,0.3,0,0.3,0s0,0.1,0,0.3h0.1
	C72.5,15,72.3,15.8,71.9,16.2z M77.7,14.1c-0.9,0-1.9,0.1-2.8,0.1c-0.8,0-1.5,0-2.3,0l-0.1-0.1c0.1-0.1,0.3-0.3,0.4-0.4l0,0
	c1.4,0.1,2.9,0.1,4.3,0.1c0.8,0,1.5,0,2.2,0.1c0.1,0,0.4,0,0.5,0.1C79.2,13.9,78.5,13.9,77.7,14.1z M18.1,18L18.1,18
	C18.1,17.9,18.1,17.9,18.1,18C18.1,17.9,18.1,18,18.1,18L18.1,18C18.1,18,18.1,18.1,18.1,18C18.1,18.1,18.1,18.1,18.1,18
	C18,18,18,18,18.1,18C18,18,18,18,18.1,18C18,18,18,18,18.1,18C18,18,18,18.1,18.1,18C18,18.1,18,18.1,18,18.1l0,0c0,0,0,0,0-0.1
	l0,0l0,0c0,0,0,0,0,0.1v0.1c0,0,0,0,0.1,0l0,0c0,0,0,0,0.1,0C18.1,18.1,18.1,18.1,18.1,18C18.1,18.1,18.1,18.1,18.1,18
	C18.1,18.1,18.1,18.1,18.1,18C18.2,18.1,18.2,18,18.1,18L18.1,18z M61.1,14.4L61.1,14.4l-0.1,0.1v0.1h0.1c0,0,0,0,0.1,0l0,0
	c0.1,0,0.1-0.1,0.1-0.1l0,0l0,0C61.5,14.4,61.2,14.2,61.1,14.4C61.1,14.3,61.1,14.4,61.1,14.4z M18.5,16.4h-0.1c0,0,0,0-0.1,0
	c0,0,0,0-0.1,0l0,0l0,0l0,0l0,0l0,0l0,0c0,0.1,0,0.1,0.1,0.1S18.5,16.5,18.5,16.4c0,0,0.1,0,0.1-0.1l0,0l0,0
	C18.7,16.5,18.6,16.4,18.5,16.4z"/>
</svg>
