<?xml version="1.0" encoding="utf-8"?>
<!-- Generator: Adobe Illustrator 23.0.3, SVG Export Plug-In . SVG Version: 6.00 Build 0)  -->
<svg version="1.1" id="Layer_1" xmlns="http://www.w3.org/2000/svg" xmlns:xlink="http://www.w3.org/1999/xlink" x="0px" y="0px"
	 viewBox="0 0 240.2 174.1" style="enable-background:new 0 0 240.2 174.1;" xml:space="preserve">
<style type="text/css">
	.st0{fill:#302148;}
	.st1{display:none;}
	.st2{display:inline;fill:#302148;}
	.st3{display:inline;}
</style>
<g>
	<path class="st0" d="M238.3,104.5c0-0.1,0-0.1,0-0.2c0.2-2,0-4.1-0.2-5.8c-0.2-1.5-0.5-2.8-0.9-4.3c-0.4-2.9-1.8-6-3.5-8.3
		c-0.6-0.9-1.5-2-2.5-3c-0.3-0.5-0.5-1-0.8-1.5c-0.6-0.7-1.4-1.5-2-2.1c-0.8-0.6-1.8-1.2-2.6-1.7c-1.7-1.6-3.8-2.9-5.7-4.2
		c-0.4-0.1-0.7-0.2-1-0.5c-1.8-1.5-3.7-2.8-5.7-4c-0.1-0.1-0.2-0.2-0.3-0.3c0,0-0.1,0-0.2-0.1c-0.3-0.1-10.6-6.5-10.9-6.6
		c0,0.4-0.1,0.7-0.4,1c-0.2,0.2-0.4,0.3-0.7,0.4c0.4,0.2,0.7,0.3,1.2,0.5c0.1,0.1,0.2,0.1,0.3,0.2c2.6,1.6,15.2,9.7,17.8,11.5
		c0.1,0.1,0.2,0.1,0.3,0.2c0.9,0.5,1.8,1,2.5,1.7c1.3,0.6,2.4,1.8,3.3,2.8c0.1,0.1,0.2,0.1,0.3,0.2c2.7,2.4,5.4,5,6.9,8.1
		c2.2,4.2,3,8.7,2.9,13.4c0,1-0.1,2.2-0.3,3.3c0,2.8-0.3,5.7-1.4,8.5c-4.4,12.6-16.6,22.7-28.4,29.5c-12.2,7-25.8,11.9-39.7,15
		c-15.3,3.5-31.6,5.2-47.3,4.5c-0.1,0-0.1,0-0.2,0c-0.1,0-0.2,0-0.3,0s-0.2,0-0.2,0h-0.1c-15.7,0.4-31.9-1.5-47.1-5.1
		c-13.7-3.4-27.3-8.4-39.1-15.5c-11.6-7-23.4-17.2-27.4-29.9c-0.9-2.8-1.2-5.7-1-8.5c-0.2-1-0.2-2.1-0.2-3.3
		c0.1-4.6,1.2-9.2,3.5-13.3c1.7-3,4.4-5.7,7.2-8c0.1-0.1,0.2-0.1,0.3-0.2c0.8-0.9,2.1-2.1,3.4-2.7c0.8-0.6,1.7-1.2,2.6-1.7
		c0.1-0.1,0.2-0.1,0.3-0.2c1.2-0.8,16.1-6.5,17.2-7.2c-0.1-0.6-0.2-1.3-0.2-1.9c-0.7,0.5-15.2,5.9-15.9,6.4c-0.3,0.2-0.6,0.4-1,0.5
		c-2,1.2-4.1,2.5-5.9,4.1c-0.9,0.5-1.8,1.2-2.7,1.7c-0.7,0.7-1.4,1.4-2.1,2.1c-0.3,0.5-0.6,1-0.9,1.5c-1,1-1.9,2.1-2.6,3
		c-1.8,2.3-3.3,5.2-3.8,8.3c-0.4,1.4-0.8,2.8-1,4.3c-0.4,2.4-0.7,5.6,0,8.1c-0.2,2.2-0.3,4.6,0.4,6.6c0.4,12.3,9.8,22.7,19.2,30.5
		c22.3,18.4,52.9,24.8,82,27.4c5.2,0.5,10.4,0.7,15.6,0.3c5.2,0.5,10.5,0.3,15.6-0.1c29.3-2.3,60-8.3,83-26.3
		c9.8-7.7,19.5-17.9,20.2-30.3C239,110.6,238.7,107.2,238.3,104.5z M234.9,119.7c-4.4,12.6-16.6,22.7-28.4,29.5
		c-12.2,7-25.8,11.9-39.7,15c-15.3,3.5-31.6,5.2-47.3,4.5c-0.1,0-0.1,0-0.2,0s-0.2,0-0.3,0c-0.1,0-0.2,0-0.2,0c-0.1,0-0.1,0-0.1,0
		c-15.7,0.4-31.9-1.5-47.1-5.1c-13.7-3.4-27.3-8.4-39.1-15.5C20.7,140.9,9,130.8,5,118.2c-0.1-0.5-0.3-0.9-0.4-1.5
		c3.6,7.6,10,14.2,16.6,19.6c22.3,18.5,53,24.8,82,27.4c5.2,0.5,10.4,0.7,15.6,0.3c5.2,0.5,10.5,0.3,15.6-0.1
		c29.3-2.3,60-8.2,83-26.3c7.7-6.1,15.3-13.6,18.6-22.6C235.7,116.6,235.4,118.2,234.9,119.7z"/>
	<path class="st0" d="M43.8,66.6c0,0.3,0.1,0.5,0.4,0.6c0.4,0.1,9.3,3.5,20.7,3.7c0.3,0,0.6,0,0.9,0c14.7,0,26.4-5.6,33.9-16.2
		c0.1-0.1,0.1-0.3,0.1-0.5c0-0.2-0.1-0.3-0.3-0.4c-0.1-0.1-0.3-0.1-0.5-0.1c-0.2,0-0.3,0.1-0.4,0.3c-1.7,2.4-3.7,4.6-5.8,6.4
		l-1.5,1.3l-5.9-6.8l2.4-1c3.3-1.5,5.9-2.8,7.8-4.2c0.3-0.2,0.4-0.6,0.2-0.9c-0.2-0.3-0.6-0.4-0.9-0.2c-13,9-50.1,17.4-50.6,17.5
		C44.1,65.9,43.9,66.2,43.8,66.6z M71.4,60c4.3-1.4,8.1-2.7,11.5-4.1l1.3-0.5l6.2,7.1l-2,1.3c-3.5,2.1-7.3,3.8-11.5,4.7l-1,0.2
		l-7.4-7.8L71.4,60z M54.8,64.7c3.8-0.9,7.4-2,11-3l1.2-0.3l7.4,7.8l-4.1,0.3c-1.4,0.1-2.8,0.2-4.3,0.2c-0.3,0-0.5,0-0.8,0
		c-3.3,0-6.7-0.4-10.2-0.9l-8.9-1.6L54.8,64.7z"/>
	<path class="st0" d="M114.8,62.7c-0.1-0.1-0.3-0.2-0.4-0.2c-0.2,0-0.3,0-0.5,0.1c-15.2,11.9-30.1,16.8-40,18.9
		c-10.6,2.2-17.8,1.7-18.2,1.7l0,0c-0.4,0-0.7,0.3-0.7,0.6c0,0.2,0,0.3,0.1,0.5c0.1,0.1,0.3,0.2,0.4,0.2c0.2,0,1.2,0.1,2.7,0.1
		c8.8,0,32-2,56.3-20.9c0.1-0.1,0.2-0.3,0.2-0.4C115,63,114.9,62.8,114.8,62.7z"/>
	<path class="st0" d="M63.5,96.4c0,0.3,0.1,0.5,0.4,0.6c0.3,0.1,7.6,3.5,18.7,3.5c0.2,0,0.5,0,0.7,0h0.3
		c10.7-0.2,26.9-3.8,42.8-19.7c0.2-0.2,0.2-0.6,0-0.9c-0.2-0.2-0.6-0.2-0.9,0c-4.3,4.3-8.9,8-13.5,10.8l-1.4,0.8l-7.1-8l2.3-1.2
		c6.6-3.3,12-6.6,15.9-10c0.1-0.1,0.2-0.3,0.2-0.4c0-0.2,0-0.3-0.1-0.5c-0.1-0.1-0.3-0.2-0.4-0.2c0,0,0,0-0.1,0
		c-0.1,0-0.3,0.1-0.4,0.1c-17.5,14.8-56.3,24.2-56.8,24.3C63.7,95.8,63.5,96,63.5,96.4z M86.8,90.2c5-1.8,9.8-3.7,14-5.6L102,84
		l7.2,8.1l-2.3,1.2c-4.4,2.2-9,3.8-13.7,4.7l-0.8,0.2l-9.1-6.8L86.8,90.2z M73.5,94.6c2.4-0.7,4.8-1.5,7.2-2.3l0.9-0.3l9.2,6.8
		l-5.5,0.3c-0.5,0-1,0-1.6,0.1c-0.4,0-0.8,0-1.3,0c-2.9,0-6-0.2-8.9-0.7L65.3,97L73.5,94.6z"/>
	<path class="st0" d="M135.6,110.2c1.8,0.8,2.9,2.6,3,4.5c0,0.2,0.2,0.4,0.4,0.5h0.1c0.3,0.1,0.7,0,0.8-0.3c0.1-0.2,0.1-0.3,0-0.5
		l-0.1-0.4c-0.3-2.3-1.8-4.2-3.8-5.1c-2.6-1.2-5.7-0.6-7.7,1.5l-0.8,0.8l-1.2-0.3c-2.3-0.6-4.6-0.3-6.6,0.8l-1.2,0.6l-1-0.8
		c-0.5-0.4-1-0.7-1.7-1c-2.1-0.9-4.5-1-6.7-0.3c-2.2,0.8-4,2.4-4.9,4.6c-0.5,1-0.7,2.2-0.8,3.5c0,0.2,0.1,0.3,0.2,0.5
		c0.1,0.1,0.3,0.2,0.4,0.2l0,0l0,0c0.3,0,0.6-0.3,0.6-0.6c0-1,0.3-2,0.7-2.9c1.8-3.8,6.2-5.4,10-3.7c1,0.5,2,1.3,2.7,2.1
		c0.1,0.1,0.3,0.2,0.5,0.2c0.2,0,0.3,0,0.5-0.2c2.2-2.1,5.6-2.6,8.3-1.4l0.2,0.1c0.3,0.2,0.7,0,0.8-0.3
		C129.9,110,133,108.9,135.6,110.2z"/>
	<path class="st0" d="M224.7,98.6l-2.1-12.4c-0.1-0.3-0.3-0.6-0.7-0.5l-9.4,1l-0.6-0.9c-3.6-4.8-9.2-9.1-16.9-13l-1.6-0.7l3.7-10.7
		c0.1-0.3,0-0.6-0.3-0.8l-10.8-6.3c-0.1-0.1-0.3-0.1-0.5-0.1c-0.2,0-0.3,0.2-0.4,0.3l-4.5,7.9l-25.7-7.3l-3.3-6.7
		c-0.1-0.3-0.4-0.4-0.7-0.3l-7.7,2.1c-0.1,0-0.1,0-0.2,0.1l-6,3.9c-0.2,0.1-0.3,0.4-0.3,0.7l3.4,14.3l-4.7-4.4
		c-1.9-1.8-4-3.6-6.3-5.5c-7.2-6-15.9-12.2-23.5-16.8l-7.8-4.5C85.6,31.1,75,26,66.2,22.4l-0.1-0.1h-0.1h-0.1
		c-7.8-3-14.5-4.9-19.8-5.5l-0.7-0.1L32.2,3.4c-0.2-0.2-0.6-0.3-0.9,0L17.5,15.1c-0.1,0.1-0.2,0.3-0.2,0.4c0,0.2,0,0.3,0.2,0.5
		l5.5,6l-2.6,1c-3.7,1.5-5.4,3.9-5.1,7.1c0.6,7,7.9,10.7,10.9,12l0.8,0.3l0.3,0.8c1.3,3.3,3.4,8.5,5.7,14.4l2,5
		c2.5,6.3,4.8,12.2,7,17.4l2.2,5.4c4.2,10.2,6.7,15.8,7.8,17.3c2.1,3.1,6.6,5.7,12.5,7.1c7.1,1.8,15.6,1.7,24.8-0.2
		c0.8-0.2,1.7-0.4,2.6-0.6l2.7-0.6l-0.3,2.8c0,0.3-0.1,0.6-0.1,0.9s0,0.6,0,0.8l0.1,1.5l-1.4,0.5c-1.8,0.7-2.9,2.5-2.9,4.5
		c0,2.4,1.8,4.3,4.7,4.8c8.9,1.8,17.1,2.6,24.4,2.6c17.1,0,24.8-4.8,27.3-6.8l0.4-0.4l0.6-0.1c4-0.4,7.1-3.8,7.1-7.9v-1.9h12.2
		l-5.6,11.4c-0.1,0.2-0.1,0.4,0,0.6c0.1,0.2,0.3,0.3,0.5,0.3h16.6c0.2,0,0.4-0.1,0.6-0.3l6.6-12.1h16.5c0.3,0,0.6-0.3,0.6-0.6v-5.5
		l21.6-4.4C224.5,99.3,224.7,99,224.7,98.6z M194.9,74.3c0.8,0.4,1.7,0.9,2.5,1.4l6.2,3.6H203c2.1,1.5,3.9,3,5.5,4.7l2.7,2.8
		l-13.2,1.5l1-8.9l-8.2,0.1l2.1-6.2L194.9,74.3z M168.8,74l11.2,6.6l-5.1,9.4l-12.7-2.2L168.8,74z M160.8,87.5l-8.2-1.5l8.3-16.8
		l6.7,3.9L160.8,87.5z M181.2,80.9l5-0.1l-4.4,15.8h-9.1L181.2,80.9z M187.6,80.8l9.8-0.1l-2,16.1h-12.2L187.6,80.8z M185.9,55.7
		l9.8,5.7l-6.3,18.2l-8.3,0.1l-6.7-4L185.9,55.7z M179.8,63.5l-6.7,11.5L161,68l-5.6-11.5L179.8,63.5z M150.5,49.3l9.3,19.2l-5,10.3
		L144.1,51L150.5,49.3z M137.9,54.8l4.9-3.3L154,80.3l-2.7,5.6l-6.4-1.2L137.9,54.8z M18.8,15.7L31.6,4.8l11.2,11.5L39,16.8
		c-1.5,0.2-2.7,0.5-3.9,1c-2.8,1.3-5.2,2.8-6.9,4.8l-1.5,1.7L18.8,15.7z M24.9,36.5l0.8,4.6l-3.9-2.7c-3.3-2.3-5.1-5.1-5.5-8.3
		c-0.2-2.2,0.8-5.1,6.5-6.5l1.2-0.3l2.1,2.3l-0.4,1.2C24.3,30.4,24.5,33.9,24.9,36.5z M33.5,56.1c-3.8-9.7-6.6-17-6.6-17.1
		c-0.1-0.4-1.4-3.9-0.9-7.9c0.6-5.5,3.9-9.4,9.7-12c4.1-1.8,9.9-1.6,17.7,0.5l8.7,2.3l-8.8,1.6c-7.8,1.4-14.4,3.8-19.4,7.2
		c-0.3,0.2-0.4,0.6-0.2,0.9c0.2,0.3,0.6,0.4,0.9,0.2c2.3-1.6,5-2.9,8.1-4.1l1.3-0.5l5.5,6.4l-2.2,1.2c-2.6,1.4-4.3,2.1-4.3,2.1
		c-0.3,0.1-0.5,0.5-0.3,0.8c0.1,0.3,0.5,0.5,0.8,0.3c0.5-0.2,14.2-6.5,21.5-13.4l0.9-0.8l1.2,0.5c1.9,0.7,4,1.7,6.1,2.6l2.8,1.3
		l-2.4,2C60,41.5,40.7,46.2,40.6,46.3c-0.3,0.1-0.6,0.4-0.5,0.8c0.1,0.3,0.4,0.5,0.8,0.5c0.1,0,0.4-0.1,0.9-0.2l1.3-0.3l5.6,7
		L45.8,55c-4.2,1.2-7.8,2-10,2.4l-1.6,0.3L33.5,56.1z M65.3,23.2l-6.4,4.5c-2,1.5-4.4,2.9-7,4.4L50.5,33l-5.4-6.3l3-0.8
		c2.9-0.7,6.1-1.4,9.3-1.7L65.3,23.2z M53,43.5l6.1,6.7l-2.7,1c-1.7,0.6-3.5,1.3-5.2,1.9l-1.3,0.4l-5.5-6.9l2.6-0.8
		c1.6-0.5,3.1-1,4.7-1.7L53,43.5z M88.6,108.3c-4.6,0.9-9,1.5-13.2,1.5c-3.9,0-7.6-0.4-10.9-1.3c-5.5-1.4-9.9-3.8-11.6-6.6
		c-1.4-2-5.8-12.4-9.1-20.7c-3-7.6-6.1-15.2-8.2-20.2l-0.8-2.2l2.3-0.5c7.3-1.6,25.6-6.2,37.5-15.1c0.1-0.1,0.2-0.3,0.2-0.4
		c0-0.2,0-0.3-0.1-0.5c-0.1-0.1-0.3-0.2-0.4-0.2c-0.2,0-0.3,0-0.5,0.1c-3.3,2.4-7.2,4.7-11.9,6.8l-1.3,0.6L54.4,43l2.5-1.2
		c7.8-3.5,14.3-7.7,19.3-12.3l0.9-0.9l1.2,0.5c3.9,1.9,8.2,4,12.5,6.4l2,1l-1.4,1.8c-2.7,3.6-8.1,7.3-10.5,8.8
		c-0.3,0.2-0.4,0.6-0.2,0.9c0.2,0.3,0.6,0.4,0.9,0.2c0.8-0.5,7.9-4.8,11.2-9.7l1-1.5l1.6,0.8c0.7,0.4,1.5,0.8,2.2,1.3h0.1
		c1.4,0.7,2.5,1.4,3.6,2c7.8,4.4,18.5,11.9,26.6,18.7c5.2,4.3,9.4,8.3,12.3,11.6l0.3,0.4l2.8,12.3l-9.9-1.7
		c-0.4-0.1-0.7,0.2-0.7,0.5l-2.9,14.1l-2-0.5c-0.4-0.1-0.8-0.2-1.3-0.2l-0.8-0.1l-0.5-0.6c-1.3-1.6-3.1-2.5-5.2-2.5
		c-2.8,0-5.4,1.8-6.3,4.5l-0.4,1.2l-1.2,0.2c-2.3,0.4-4.3,1.7-5.7,3.6l-0.7,1l-1.3-0.3c-0.6-0.1-1.4-0.2-2-0.2
		c-2.4,0-4.7,0.9-6.4,2.8l-0.3,0.4l-0.5,0.1C92.9,107.4,90.6,107.9,88.6,108.3z M146.3,118.4c-0.2,0-0.3,0.1-0.4,0.2
		c-2.5,2.6-11,7-27,7c-7.2,0-15.3-0.8-24.1-2.6c-2.3-0.4-3.7-1.8-3.7-3.6c0-2,1.6-3.6,3.6-3.6c0.1,0,0.3,0,0.4,0
		c0.2,0,0.4-0.1,0.6-0.2c0.1-0.2,0.2-0.4,0.1-0.6c-0.4-0.9-0.6-1.9-0.6-2.9c0-4.1,3.4-7.6,7.6-7.6c1.2,0,2.3,0.3,3.4,0.8
		c0.2,0.1,0.3,0.1,0.5,0c0.2-0.1,0.3-0.2,0.4-0.4c1.2-2.8,3.9-4.7,6.9-4.7h0.3c0.2,0,0.3,0,0.4-0.2c0.1-0.1,0.2-0.3,0.2-0.4
		c0.1-2.8,2.5-5,5.4-5c2,0,3.8,1,4.7,2.8c0.1,0.2,0.3,0.3,0.6,0.3h0.1c2,0,3.9,0.7,5.2,2.1v-0.1l3.3-15.6l40.2,7l-2.9,5.5H149
		c-0.2,0-0.4,0.1-0.5,0.2c-0.1,0.1-0.2,0.3-0.1,0.5l1.3,6.3l-2.7-0.2c-0.4,0-0.8,0-1.3,0l-1.3,0.1l-0.6-1c-1.5-2.4-4-3.9-6.8-3.9
		c-0.9,0-1.8,0.1-2.6,0.4l-2.8,0.9c0.2,0.3,0.5,0.6,0.7,0.9c0.1,0.1,0.2,0.2,0.4,0.3c0.2,0,0.3,0,0.5-0.1c1.2-0.8,2.4-1.3,3.9-1.3
		c2.9,0,5.6,1.9,6.4,4.7c0.1,0.2,0.2,0.3,0.3,0.4c0.2,0.1,0.3,0.1,0.5,0c0.7-0.3,1.6-0.4,2.4-0.4c3.7,0,6.7,3,6.7,6.7
		C153,115.3,150.1,118.4,146.3,118.4z M177.8,120.9h-15.1l5.4-11h15.8L177.8,120.9z M201.3,108.5h-47.4l-0.5-0.9
		c-0.5-0.8-1-1.5-1.8-2.1l-0.5-0.4l-1.4-7h51.6V108.5z M202.5,102.3v-4.9c0-0.3-0.3-0.6-0.6-0.6h-5l0.8-7l23.6-2.6l1.9,11.1
		L202.5,102.3z"/>
	<g>
		<g>
			<path class="st0" d="M151.6,137.1c1.6,0.1,4.5,0.1,5.9,1.2c0.9,1.8,2,3.5,2.9,5.2c-0.4,2.9-1.8,4.2-4.2,4c-1.5,0.3-4.5,0.4-6-0.3
				c-1.9-0.2-2.2-1.9-0.9-4.8c-1.7-3.1-1.5-4.7,0.6-4.7c0.9,0.2,1.4-1.3,0.4-1.5c-5.9-1.8-11.8-3.6-17.6-5.5c0,0.5,0,1,0,1.5
				c2.1-0.3,6.4-1,8.5,0c4,1.9,7.2,7.6,0.7,9.2c-4.6,1.3-12.9-0.8-10.2-7.7c0.2-0.4-0.2-0.8-0.5-0.9c-3.7-1-7.2-2.1-10.9-3.1
				c-0.1,0.5-0.1,1-0.2,1.6c5.5,0.1,11.2,2.5,12.6,8.3c1.2,4.8-2.3,14.3-8.1,14.9c-5.8,0.6-10.8-4.1-12.2-9.3
				c-1.3-4.7,0.3-12.4,5.7-14c-0.2-0.5-0.4-0.9-0.6-1.5c-5,2.5-10.1,4.9-15.1,7.4c-0.5,0.2-1.7,1.2-2.2,1.2
				c-0.8-0.1,0.7,0.3,0.2-0.4c-1.3-1.6-1.9-4.3-2.7-6.2c-0.2-0.4-0.7-0.5-1-0.3c-9.8,6-11.6,19.2-0.2,24.3
				c4.2,1.9,12.6,4.5,17.2,2.3c4.3-2.1,4.6-7.9,3.8-11.9c-1.3-5.6-5-10.4-10.2-12.9c-3.9-1.9-8.2-1.3-11.8-3.4
				c-6.2-3.6-12.4-7.2-18.6-10.8c-0.2,0.5-0.4,0.9-0.6,1.5c3.9,0.7,7.8,2.3,9.9,5.9c3,5.2-0.3,11.5-6,12.9c-4.2,1-9-0.5-11.6-3.9
				c-1.3-1.6-2.4-3.8-2.7-5.7c-0.7-4.1,1-13.6,8.5-8.5c0.2-0.5,0.4-0.9,0.6-1.5c-5-0.7-10.8-0.7-15.6-2.2c-2.1-0.6-0.1,0.9-3.3-2.4
				c-2.7-3-3.5-7.3,0.9-10.2c2-1.3,5-1.5,7.3-1.2c5.8,1,10.4,7.3,5,12.4c-4.5,4.2-12.6,2.9-14.1-3.6c-0.2-0.9-1.7-0.5-1.5,0.4
				c1.9,8.5,14,9.7,18.4,2.4c5.1-8.2-5.5-14.6-12.6-13.1c-4,0.8-7.1,3.5-7.4,7.8c-0.2,3,1.6,8,4.7,8.9c2.5,0.7,6.1,0.6,8.7,1
				c2.9,0.4,5.9,0.8,8.8,1.3c0.8,0.1,1.4-0.9,0.6-1.5c-5.1-3.6-10.7,0.6-11.1,6.4c-0.5,6.9,4.4,13.5,11.2,14.7
				c6,1,12.8-2.3,13.7-8.8c1-7.4-5.9-12.1-12.2-13.2c-0.8-0.2-1.4,0.9-0.6,1.5c4.3,2.5,8.6,5,12.9,7.6c2.2,1.3,4.4,2.9,6.8,4
				c3.4,1.4,7.1,0.8,10.6,2.6c5.2,2.6,12.9,11.6,9.4,18.3c-1,2.1-4.9,4-7,4.2c-1.9,0.2-5.2-0.7-7.2-1.2c-3.5-0.8-6.8-2.2-9.2-4.9
				c-3.3-3.7-2.9-8.4-0.6-12.6c0.7-1.4,2.7-4.2,4.4-4.8c1.6-0.5-0.4-1.3,0.6-0.1c1.5,1.4,1.7,4.3,2.1,6c0.1,0.3,0.3,0.5,0.5,0.5
				c0.2,0.1,0.3,0.1,0.5,0.2c0.2,0.1,0.6,0,0.7-0.2c1.7-2.1,6.5-3.4,8.9-4.6c2.9-1.5,5.9-2.8,8.8-4.3c0.8-0.4,0.2-1.7-0.6-1.5
				c-13.1,4.1-6.8,28.5,6.7,26.5c6.4-0.9,10.7-9.1,10.2-15.1c-0.5-7.4-7.6-11.2-14.4-11.3c-0.9,0-1,1.3-0.2,1.6
				c1.7,0.4,3.4,0.9,5,1.4c1.4,0.4,2.7,0.6,4.1,1.2c0.3,0.1,1,0.1,1.3,0.3c0.8,0.8-0.1-0.5,0.1,0.3c-0.1-0.3-0.8,2.6-0.8,3
				c0.1,0.9,0.3,2,0.8,2.7c1.6,2.4,4.6,2.5,7.1,2.7c4.4,0.3,10.4,0.1,10.1-5.9c-0.3-7.6-10-7.2-15.2-6.5c-0.8,0.1-0.6,1.3,0,1.5
				c5.9,1.8,11.8,3.6,17.6,5.5c0.1-0.5,0.3-1,0.4-1.5c-3.4-0.5-5.9,3.8-5.9,6.7c0.1,5.1,5.7,6.5,9.9,6.5c4.9,0,8.4-1.7,7.4-7.4
				c-0.8-5-6.1-6-10.4-6.3C150.6,135.4,150.6,137,151.6,137.1L151.6,137.1z"/>
		</g>
	</g>
</g>
<g>
	<path class="st0" d="M239.4,104.8c0-0.1,0-0.1,0-0.2c0.2-2,0-4.1-0.2-5.8c-0.2-1.5-0.5-2.8-0.9-4.3c-0.4-2.9-1.8-6-3.5-8.3
		c-0.6-0.9-1.5-2-2.5-3c-0.3-0.5-0.5-1-0.8-1.5c-0.6-0.7-1.4-1.5-2-2.1c-0.8-0.6-1.8-1.2-2.6-1.7c-1.7-1.6-3.8-2.9-5.7-4.2
		c-0.4-0.1-0.7-0.2-1-0.5c-1.8-1.5-3.7-2.8-5.7-4c-0.1-0.1-0.2-0.2-0.3-0.3c0,0-0.1,0-0.2-0.1c-0.3-0.1-10.6-6.5-10.9-6.6
		c0,0.4-0.1,0.7-0.4,1c-0.2,0.2-0.4,0.3-0.7,0.4c0.4,0.2,0.7,0.3,1.2,0.5c0.1,0.1,0.2,0.1,0.3,0.2c2.6,1.6,15.2,9.7,17.8,11.5
		c0.1,0.1,0.2,0.1,0.3,0.2c0.9,0.5,1.8,1,2.5,1.7c1.3,0.6,2.4,1.8,3.3,2.8c0.1,0.1,0.2,0.1,0.3,0.2c2.7,2.4,5.4,5,6.9,8.1
		c2.2,4.2,3,8.7,2.9,13.4c0,1-0.1,2.2-0.3,3.3c0,2.8-0.3,5.7-1.4,8.5c-4.4,12.6-16.6,22.7-28.4,29.5c-12.2,7-25.8,11.9-39.7,15
		c-15.3,3.5-31.6,5.2-47.3,4.5c-0.1,0-0.1,0-0.2,0s-0.2,0-0.3,0c-0.1,0-0.2,0-0.2,0h-0.1c-15.7,0.4-31.9-1.5-47.1-5.1
		c-13.7-3.4-27.3-8.4-39.1-15.5c-11.6-7-23.4-17.2-27.4-29.9c-0.9-2.8-1.2-5.7-1-8.5c-0.2-1-0.2-2.1-0.2-3.3
		c0.1-4.6,1.2-9.2,3.5-13.3c1.7-3,4.4-5.7,7.2-8c0.1-0.1,0.2-0.1,0.3-0.2c0.8-0.9,2.1-2.1,3.4-2.7c0.8-0.6,1.7-1.2,2.6-1.7
		c0.1-0.1,0.2-0.1,0.3-0.2c1.2-0.8,16.1-6.5,17.2-7.2c-0.1-0.6-0.2-1.3-0.2-1.9c-0.7,0.5-15.2,5.9-15.9,6.4c-0.3,0.2-0.6,0.4-1,0.5
		c-2,1.2-4.1,2.5-5.9,4.1c-0.9,0.5-1.8,1.2-2.7,1.7c-0.7,0.7-1.4,1.4-2.1,2.1c-0.3,0.5-0.6,1-0.9,1.5c-1,1-1.9,2.1-2.6,3
		c-1.8,2.3-3.3,5.2-3.8,8.3c-0.4,1.4-0.8,2.8-1,4.3c-0.4,2.4-0.7,5.6,0,8.1c-0.2,2.2-0.3,4.6,0.4,6.6c0.4,12.3,9.8,22.7,19.2,30.5
		c22.3,18.4,52.9,24.8,82,27.4c5.2,0.5,10.4,0.7,15.6,0.3c5.2,0.5,10.5,0.3,15.6-0.1c29.3-2.3,60-8.3,83-26.3
		c9.8-7.7,19.5-17.9,20.2-30.3C239.9,110.7,239.7,107.3,239.4,104.8z M235.8,119.9c-4.4,12.6-16.6,22.7-28.4,29.5
		c-12.2,7-25.8,11.9-39.7,15c-15.3,3.5-31.6,5.2-47.3,4.5c-0.1,0-0.1,0-0.2,0s-0.2,0-0.3,0c-0.1,0-0.2,0-0.2,0c-0.1,0-0.1,0-0.1,0
		c-15.7,0.4-31.9-1.5-47.1-5.1c-13.7-3.4-27.3-8.4-39.1-15.5c-11.6-7-23.4-17.2-27.4-29.8c-0.1-0.5-0.3-0.9-0.4-1.5
		c3.6,7.6,10,14.2,16.6,19.6c22.3,18.5,53,24.8,82,27.4c5.2,0.5,10.4,0.7,15.6,0.3c5.2,0.5,10.5,0.3,15.6-0.1
		c29.3-2.3,60-8.2,83-26.3c7.7-6.1,15.3-13.6,18.6-22.6C236.7,116.7,236.3,118.3,235.8,119.9z"/>
	<path class="st0" d="M44.9,66.7c0,0.3,0.1,0.5,0.4,0.6c0.4,0.1,9.3,3.5,20.7,3.7c0.3,0,0.6,0,0.9,0c14.7,0,26.4-5.6,33.9-16.2
		c0.1-0.1,0.1-0.3,0.1-0.5c0-0.2-0.1-0.3-0.3-0.4c-0.1-0.1-0.3-0.1-0.5-0.1c-0.2,0-0.3,0.1-0.4,0.3c-1.7,2.4-3.7,4.6-5.8,6.4
		l-1.5,1.3L86.5,55l2.4-1c3.3-1.5,5.9-2.8,7.8-4.2c0.3-0.2,0.4-0.6,0.2-0.9c-0.2-0.3-0.6-0.4-0.9-0.2c-13.1,9-50.1,17.3-50.6,17.4
		C45.1,66.1,44.9,66.4,44.9,66.7z M72.5,60.1c4.3-1.4,8.1-2.7,11.5-4.1l1.3-0.5l6.2,7.1l-2,1.3c-3.5,2.1-7.3,3.8-11.5,4.7l-1,0.2
		L69.4,61L72.5,60.1z M55.8,64.9c3.8-0.9,7.4-2,11-3l1.2-0.3l7.4,7.8l-4.1,0.3c-1.4,0.1-2.8,0.2-4.3,0.2c-0.3,0-0.5,0-0.8,0
		c-3.3,0-6.7-0.4-10.2-0.9l-8.9-1.6L55.8,64.9z"/>
	<path class="st0" d="M115.9,62.8c-0.1-0.1-0.3-0.2-0.4-0.2c-0.2,0-0.3,0-0.5,0.1C99.7,74.5,84.8,79.5,75,81.6
		c-10.6,2.2-17.8,1.7-18.2,1.7l0,0c-0.4,0-0.7,0.3-0.7,0.6c0,0.2,0,0.3,0.1,0.5c0.1,0.1,0.3,0.2,0.4,0.2c0.2,0,1.2,0.1,2.7,0.1
		c8.8,0,32-2,56.3-20.9c0.1-0.1,0.2-0.3,0.2-0.4C116,63.1,116,62.9,115.9,62.8z"/>
	<path class="st0" d="M64.5,96.5c0,0.3,0.1,0.5,0.4,0.6c0.3,0.1,7.6,3.5,18.7,3.5c0.2,0,0.5,0,0.7,0h0.3
		c10.7-0.2,26.9-3.8,42.8-19.7c0.2-0.2,0.2-0.6,0-0.9c-0.2-0.2-0.6-0.2-0.9,0c-4.3,4.3-8.9,8-13.5,10.8l-1.4,0.8l-7.1-8l2.3-1.2
		c6.6-3.3,12-6.6,15.9-10c0.1-0.1,0.2-0.3,0.2-0.4c0-0.2,0-0.3-0.1-0.5c-0.1-0.1-0.3-0.2-0.4-0.2c0,0,0,0-0.1,0
		c-0.1,0-0.3,0.1-0.4,0.1c-17.5,14.8-56.3,24.2-56.8,24.3C64.7,95.9,64.5,96.2,64.5,96.5z M87.8,90.4c5-1.8,9.8-3.7,14-5.6l1.3-0.6
		l7.2,8.1l-2.3,1.2c-4.4,2.2-9,3.8-13.7,4.7l-0.8,0.2l-9.1-6.8L87.8,90.4z M74.4,94.7c2.4-0.7,4.8-1.5,7.2-2.3l0.9-0.3l9.2,6.8
		l-5.5,0.3c-0.5,0-1,0-1.6,0.1c-0.4,0-0.8,0-1.3,0c-2.9,0-6-0.2-8.9-0.7l-8.4-1.5L74.4,94.7z"/>
	<path class="st0" d="M136.6,110.3c1.8,0.8,2.9,2.6,3,4.5c0,0.2,0.2,0.4,0.4,0.5h0.1c0.3,0.1,0.7,0,0.8-0.3c0.1-0.2,0.1-0.3,0-0.5
		l-0.1-0.4c-0.3-2.3-1.8-4.2-3.8-5.1c-2.6-1.2-5.7-0.6-7.7,1.5l-0.8,0.8l-1.2-0.3c-2.3-0.6-4.6-0.3-6.6,0.8l-1.2,0.6l-1-0.8
		c-0.5-0.4-1-0.7-1.7-1c-2.1-0.9-4.5-1-6.7-0.3c-2.2,0.8-4,2.4-4.9,4.6c-0.5,1-0.7,2.2-0.8,3.5c0,0.2,0.1,0.3,0.2,0.5
		c0.1,0.1,0.3,0.2,0.4,0.2l0,0l0,0c0.3,0,0.6-0.3,0.6-0.6c0-1,0.3-2,0.7-2.9c1.8-3.8,6.2-5.4,10-3.7c1,0.5,2,1.3,2.7,2.1
		c0.1,0.1,0.3,0.2,0.5,0.2s0.3,0,0.5-0.2c2.2-2.1,5.6-2.6,8.3-1.4l0.2,0.1c0.3,0.2,0.7,0,0.8-0.3C131,110.1,134,109.2,136.6,110.3z"
		/>
	<path class="st0" d="M225.6,98.8l-2.1-12.4c-0.1-0.3-0.3-0.6-0.7-0.5l-9.4,1l-0.6-0.9c-3.6-4.8-9.2-9.1-16.9-13l-1.6-0.7l3.7-10.7
		c0.1-0.3,0-0.6-0.3-0.8l-10.8-6.3c-0.1-0.1-0.3-0.1-0.5-0.1c-0.2,0-0.3,0.2-0.4,0.3l-4.5,7.9l-25.7-7.3l-3.3-6.7
		c-0.1-0.3-0.4-0.4-0.7-0.3l-7.7,2.1c-0.1,0-0.1,0-0.2,0.1l-6,3.9c-0.2,0.1-0.3,0.4-0.3,0.7l3.4,14.3l-4.7-4.4
		c-1.9-1.8-4-3.6-6.3-5.5c-7.2-6-15.9-12.2-23.5-16.8L98.6,38c-12.1-6.7-22.7-11.9-31.5-15.4L67,22.5h-0.1h-0.1
		C59,19.5,52.3,17.6,47,17l-0.7-0.1L33.1,3.5c-0.2-0.2-0.6-0.3-0.9,0L18.4,15.3c-0.1,0.1-0.2,0.3-0.2,0.4c0,0.2,0,0.3,0.2,0.5l5.5,6
		l-2.6,1c-3.7,1.5-5.4,3.9-5.1,7.1c0.6,7,7.9,10.7,10.9,12l0.8,0.3l0.3,0.8c1.3,3.3,3.4,8.5,5.7,14.4l2,5c2.5,6.3,4.8,12.2,7,17.4
		l2.2,5.4c4.2,10.2,6.7,15.8,7.8,17.3c2.1,3.1,6.6,5.7,12.5,7.1c7.1,1.8,15.6,1.7,24.8-0.2c0.8-0.2,1.7-0.4,2.6-0.6l2.4-0.7
		l-0.3,2.8c0,0.3-0.1,0.6-0.1,0.9s0,0.6,0,0.8l0.1,1.5l-1.4,0.5c-1.8,0.7-2.9,2.5-2.9,4.5c0,2.4,1.8,4.3,4.7,4.8
		c8.9,1.8,17.1,2.6,24.4,2.6c17.1,0,24.8-4.8,27.3-6.8l0.4-0.4l0.6-0.1c4-0.4,7.1-3.8,7.1-7.9V110h12.2l-5.6,11.4
		c-0.1,0.2-0.1,0.4,0,0.6c0.1,0.2,0.3,0.3,0.5,0.3h16.6c0.2,0,0.4-0.1,0.6-0.3l6.6-12.1h16.5c0.3,0,0.6-0.3,0.6-0.6v-5.5l21.6-4.4
		C225.5,99.4,225.7,99.1,225.6,98.8z M195.9,74.5c0.8,0.4,1.7,0.9,2.5,1.4l6.2,3.6H204c2.1,1.5,3.9,3,5.5,4.7l2.7,2.8l-13.3,1.5
		l1-8.9l-8.2,0.1l2.1-6.2L195.9,74.5z M169.7,74.1l11.2,6.6l-5.1,9.4L163.1,88L169.7,74.1z M161.7,87.8l-8.2-1.5l8.3-16.8l6.7,3.9
		L161.7,87.8z M182.3,81.1l5-0.1l-4.4,15.8h-9.1L182.3,81.1z M188.7,81l9.8-0.1l-2,16.1h-12.2L188.7,81z M186.8,55.9l9.8,5.7
		l-6.3,18.2l-8.3,0.1l-6.7-4L186.8,55.9z M180.8,63.6l-6.7,11.5l-12.1-7l-5.6-11.5L180.8,63.6z M151.6,49.5l9.3,19.2l-5,10.3
		l-10.7-27.7L151.6,49.5z M138.9,55l4.9-3.3l11.1,28.7l-2.7,5.6l-6.4-1.2L138.9,55z M19.8,15.8L32.6,4.9l11.2,11.5l-3.9,0.5
		c-1.5,0.2-2.7,0.5-3.9,1c-2.8,1.3-5.2,2.8-6.9,4.8l-1.5,1.7L19.8,15.8z M25.9,36.6l0.8,4.6l-3.9-2.7c-3.3-2.3-5.1-5.1-5.5-8.3
		c-0.2-2.2,0.8-5.1,6.5-6.5l1.2-0.3l2.1,2.3l-0.4,1.2C25.2,30.5,25.4,34.1,25.9,36.6z M34.6,56.2c-3.8-9.7-6.6-17-6.7-17.1
		c-0.1-0.4-1.4-3.9-0.9-7.9c0.6-5.5,3.9-9.4,9.7-12c4.1-1.8,9.9-1.6,17.7,0.5l8.7,2.3l-8.8,1.5c-7.8,1.4-14.4,3.8-19.4,7.2
		c-0.3,0.2-0.4,0.6-0.2,0.9c0.2,0.3,0.6,0.4,0.9,0.2c2.3-1.6,5-2.9,8.1-4.1l1.3-0.5l5.5,6.4l-2.2,1.2c-2.6,1.4-4.3,2.1-4.3,2.1
		c-0.3,0.1-0.5,0.5-0.3,0.8c0.1,0.3,0.5,0.5,0.8,0.3c0.5-0.2,14.2-6.5,21.5-13.4l0.9-0.8l1.2,0.5c1.9,0.7,4,1.7,6.1,2.6l2.8,1.3
		l-2.4,2C60.9,41.7,41.7,46.4,41.5,46.4c-0.3,0.1-0.6,0.4-0.5,0.8c0.1,0.3,0.4,0.5,0.8,0.5c0.1,0,0.4-0.1,0.9-0.2l1.3-0.3l5.6,7
		l-2.8,0.8c-4.2,1.2-7.8,2-10,2.4l-1.6,0.3L34.6,56.2z M66.4,23.4L60,28c-2,1.5-4.4,2.9-7,4.4l-1.4,0.8L46.2,27l3-0.8
		c2.9-0.7,6.1-1.4,9.3-1.7L66.4,23.4z M54.1,43.7l6.1,6.7l-2.7,1c-1.7,0.6-3.5,1.3-5.2,1.9l-1.3,0.4l-5.5-6.9l2.6-0.8
		c1.6-0.5,3.1-1,4.7-1.7L54.1,43.7z M89.6,108.5c-4.6,0.9-9,1.5-13.2,1.5c-3.9,0-7.6-0.4-10.9-1.3c-5.5-1.4-9.9-3.8-11.6-6.6
		c-1.4-2-5.7-12.4-9.1-20.8c-3-7.6-6.1-15.2-8.2-20.2l-0.8-2.2l2.3-0.5c7.3-1.6,25.6-6.2,37.5-15.1c0.1-0.1,0.2-0.3,0.2-0.4
		c0-0.2,0-0.3-0.1-0.5c-0.1-0.1-0.3-0.2-0.4-0.2c-0.2,0-0.3,0-0.5,0.1c-3.3,2.4-7.2,4.7-11.9,6.8l-1.3,0.7l-6.1-6.6l2.5-1.2
		c7.8-3.5,14.3-7.7,19.3-12.3l0.9-0.9l1.2,0.5c3.9,1.9,8.2,4,12.5,6.4l2,1l-1.4,1.8c-2.7,3.6-8.1,7.3-10.5,8.8
		c-0.3,0.2-0.4,0.6-0.2,0.9c0.2,0.3,0.6,0.4,0.9,0.2c0.8-0.5,7.9-4.8,11.2-9.7l1-1.5l1.6,0.8c0.7,0.4,1.5,0.8,2.2,1.3h0.1
		c1.4,0.7,2.5,1.4,3.6,2c7.8,4.4,18.5,11.9,26.6,18.7c5.2,4.3,9.4,8.3,12.3,11.6l0.3,0.4l2.8,12.3l-9.9-1.7
		c-0.4-0.1-0.7,0.2-0.7,0.5l-2.9,14.1l-2-0.5c-0.4-0.1-0.8-0.2-1.3-0.2l-0.8-0.1l-0.5-0.6c-1.3-1.6-3.1-2.5-5.2-2.5
		c-2.8,0-5.4,1.8-6.3,4.5l-0.4,1.2l-1.2,0.2c-2.3,0.4-4.3,1.7-5.7,3.6l-0.7,1l-1.3-0.3c-0.6-0.1-1.4-0.2-2-0.2
		c-2.4,0-4.7,0.9-6.4,2.8l-0.3,0.4l-0.5,0.1C93.9,107.5,91.5,108.1,89.6,108.5z M147.4,118.5c-0.2,0-0.3,0.1-0.4,0.2
		c-2.5,2.6-11,7-27,7c-7.2,0-15.3-0.8-24.1-2.6c-2.3-0.4-3.7-1.8-3.7-3.6c0-2,1.6-3.6,3.6-3.6c0.1,0,0.3,0,0.4,0
		c0.2,0,0.4-0.1,0.6-0.2c0.1-0.2,0.2-0.4,0.1-0.6c-0.4-0.9-0.6-1.9-0.6-2.9c0-4.1,3.4-7.6,7.6-7.6c1.2,0,2.3,0.3,3.4,0.8
		c0.2,0.1,0.3,0.1,0.5,0c0.2-0.1,0.3-0.2,0.4-0.4c1.2-2.8,3.9-4.7,6.9-4.7h0.3c0.2,0,0.3,0,0.4-0.2c0.1-0.1,0.2-0.3,0.2-0.4
		c0.1-2.8,2.5-5,5.4-5c2,0,3.8,1,4.7,2.8c0.1,0.2,0.3,0.3,0.6,0.3h0.1c2,0,3.9,0.7,5.2,2.1v-0.1l2.9-15.4l40.2,7l-2.9,5.5h-22.5
		c-0.2,0-0.4,0.1-0.5,0.2c-0.1,0.1-0.2,0.3-0.1,0.5l1.3,6.3l-2.7-0.2c-0.4,0-0.8,0-1.3,0l-1.3,0.1l-0.6-1c-1.5-2.4-4-3.9-6.8-3.9
		c-0.9,0-1.8,0.1-2.6,0.4l-2.8,0.9c0.2,0.3,0.5,0.6,0.7,0.9c0.1,0.1,0.2,0.2,0.4,0.3c0.2,0,0.3,0,0.5-0.1c1.2-0.8,2.4-1.3,3.9-1.3
		c2.9,0,5.6,1.9,6.4,4.7c0.1,0.2,0.2,0.3,0.3,0.4c0.2,0.1,0.3,0.1,0.5,0c0.7-0.3,1.6-0.4,2.4-0.4c3.7,0,6.7,3,6.7,6.7
		C154.1,115.6,151,118.5,147.4,118.5z M178.8,121.1h-15.1l5.4-11h15.8L178.8,121.1z M202.2,108.7h-47.4l-0.5-0.9
		c-0.5-0.8-1-1.5-1.8-2.1l-0.5-0.4l-1.4-7h51.6V108.7z M203.6,102.6v-4.9c0-0.3-0.3-0.6-0.6-0.6h-5l0.8-7l23.6-2.6l1.9,11.1
		L203.6,102.6z"/>
	<g>
		<g>
			<path class="st0" d="M152.6,137.3c1.6,0.1,4.5,0.1,5.9,1.2c0.9,1.8,2,3.5,2.9,5.2c-0.4,2.9-1.8,4.2-4.2,4c-1.5,0.3-4.5,0.4-6-0.3
				c-1.9-0.2-2.2-1.9-0.9-4.8c-1.7-3.1-1.5-4.7,0.6-4.7c0.9,0.2,1.4-1.3,0.4-1.5c-5.9-1.8-11.8-3.6-17.6-5.5c0,0.5,0,1,0,1.5
				c2.1-0.3,6.4-1,8.5,0c4,1.9,7.2,7.6,0.7,9.2c-4.6,1.3-12.9-0.8-10.2-7.7c0.2-0.4-0.2-0.8-0.5-0.9c-3.7-1-7.2-2.1-10.9-3.1
				c-0.1,0.5-0.1,1-0.2,1.6c5.5,0.1,11.2,2.5,12.6,8.3c1.2,4.8-2.3,14.3-8.1,14.9c-5.8,0.6-10.8-4.1-12.2-9.3
				c-1.3-4.7,0.3-12.4,5.7-14c-0.2-0.5-0.4-0.9-0.6-1.5c-5,2.5-10.1,4.9-15.1,7.4c-0.5,0.2-1.7,1.2-2.2,1.2
				c-0.8-0.1,0.7,0.3,0.2-0.4c-1.3-1.6-1.9-4.3-2.7-6.2c-0.2-0.4-0.7-0.5-1-0.3c-9.8,6-11.6,19.2-0.2,24.3
				c4.2,1.9,12.6,4.5,17.2,2.3c4.3-2.1,4.6-7.9,3.8-11.9c-1.3-5.6-5-10.4-10.2-12.9c-3.9-1.9-8.2-1.3-11.8-3.4
				c-6.2-3.6-12.4-7.2-18.6-10.8c-0.2,0.5-0.4,0.9-0.6,1.5c3.9,0.7,7.8,2.3,9.9,5.9c3,5.2-0.3,11.5-6,12.9c-4.2,1-9-0.5-11.6-3.9
				c-1.3-1.6-2.4-3.8-2.7-5.7c-0.7-4.1,1-13.6,8.5-8.5c0.2-0.5,0.4-0.9,0.6-1.5c-5-0.7-10.8-0.7-15.6-2.2c-2.1-0.6-0.1,0.9-3.3-2.4
				c-2.7-3-3.5-7.3,0.9-10.2c2-1.3,5-1.5,7.3-1.2c5.8,1,10.4,7.3,5,12.4c-4.5,4.2-12.6,2.9-14.1-3.6c-0.2-0.9-1.7-0.5-1.5,0.4
				c1.9,8.5,14,9.7,18.4,2.4c5.1-8.2-5.5-14.6-12.6-13.1c-4,0.8-7.1,3.5-7.4,7.8c-0.2,3,1.6,8,4.7,8.9c2.5,0.7,6.1,0.6,8.7,1
				c2.9,0.4,5.9,0.8,8.8,1.3c0.8,0.1,1.4-0.9,0.6-1.5c-5.1-3.6-10.7,0.6-11.1,6.4c-0.5,6.9,4.4,13.5,11.2,14.7
				c6,1,12.8-2.3,13.7-8.8c1-7.4-5.9-12.1-12.2-13.2c-0.8-0.2-1.4,0.9-0.6,1.5c4.3,2.5,8.6,5,12.9,7.6c2.2,1.3,4.4,2.9,6.8,4
				c3.4,1.4,7.1,0.8,10.6,2.6c5.2,2.6,12.9,11.6,9.4,18.3c-1,2.1-4.9,4-7,4.2c-1.9,0.2-5.2-0.7-7.2-1.2c-3.5-0.8-6.8-2.2-9.2-4.9
				c-3.3-3.7-2.9-8.4-0.6-12.6c0.7-1.4,2.7-4.2,4.4-4.8c1.6-0.5-0.4-1.3,0.6-0.1c1.5,1.4,1.7,4.3,2.1,6c0.1,0.3,0.3,0.5,0.5,0.5
				c0.2,0.1,0.3,0.1,0.5,0.2c0.2,0.1,0.6,0,0.7-0.2c1.7-2.1,6.5-3.4,8.9-4.6c2.9-1.5,5.9-2.8,8.8-4.3c0.8-0.4,0.2-1.7-0.6-1.5
				c-13.1,4.1-6.8,28.5,6.7,26.5c6.4-0.9,10.7-9.1,10.2-15.1c-0.5-7.4-7.6-11.2-14.4-11.3c-0.9,0-1,1.3-0.2,1.6
				c1.7,0.4,3.4,0.9,5,1.4c1.4,0.4,2.7,0.6,4.1,1.2c0.3,0.1,1,0.1,1.3,0.3c0.8,0.8-0.1-0.5,0.1,0.3c-0.1-0.3-0.8,2.6-0.8,3
				c0.1,0.9,0.3,2,0.8,2.7c1.6,2.4,4.6,2.5,7.1,2.7c4.4,0.3,10.4,0.1,10.1-5.9c-0.3-7.6-10-7.2-15.2-6.5c-0.8,0.1-0.6,1.3,0,1.5
				c5.9,1.8,11.8,3.6,17.6,5.5c0.1-0.5,0.3-1,0.4-1.5c-3.4-0.5-5.9,3.8-5.9,6.7c0.1,5.1,5.7,6.5,9.9,6.5c4.9,0,8.4-1.7,7.4-7.4
				c-0.8-5-6.1-6-10.4-6.3C151.6,135.6,151.6,137.2,152.6,137.3L152.6,137.3z"/>
		</g>
	</g>
</g>
<g>
	<path class="st0" d="M238.7,104.2c0-0.1,0-0.1,0-0.2c0.2-2,0-4.1-0.2-5.8c-0.2-1.5-0.5-2.8-0.9-4.3c-0.4-2.9-1.8-6-3.5-8.3
		c-0.6-0.9-1.5-2-2.5-3c-0.3-0.5-0.5-1-0.8-1.5c-0.6-0.7-1.4-1.5-2-2.1c-0.8-0.6-1.8-1.2-2.6-1.7c-1.7-1.6-3.8-2.9-5.7-4.2
		c-0.4-0.1-0.7-0.2-1-0.5c-1.8-1.5-3.7-2.8-5.7-4c-0.1-0.1-0.2-0.2-0.3-0.3c0,0-0.1,0-0.2-0.1c-0.3-0.1-10.6-6.5-10.9-6.6
		c0,0.4-0.1,0.7-0.4,1c-0.2,0.2-0.4,0.3-0.7,0.4c0.4,0.2,0.7,0.3,1.2,0.5c0.1,0.1,0.2,0.1,0.3,0.2c2.6,1.6,15.2,9.7,17.8,11.5
		c0.1,0.1,0.2,0.1,0.3,0.2c0.9,0.5,1.8,1,2.5,1.7c1.3,0.6,2.4,1.8,3.3,2.8c0.1,0.1,0.2,0.1,0.3,0.2c2.7,2.4,5.4,5,6.9,8.1
		c2.2,4.2,3,8.7,2.9,13.4c0,1-0.1,2.2-0.3,3.3c0,2.8-0.3,5.7-1.4,8.5c-4.4,12.6-16.6,22.7-28.4,29.5c-12.2,7-25.8,11.9-39.7,15
		c-15.3,3.5-31.6,5.2-47.3,4.5c-0.1,0-0.1,0-0.2,0s-0.2,0-0.3,0c-0.1,0-0.2,0-0.2,0h-0.1c-15.7,0.4-31.9-1.5-47.1-5.1
		c-13.7-3.4-27.3-8.4-39.1-15.5c-11.9-7.1-23.6-17.4-27.7-30c-0.9-2.8-1.2-5.7-1-8.5c-0.2-1-0.2-2.1-0.2-3.3
		c0.1-4.6,1.2-9.2,3.5-13.3c1.7-3,4.4-5.7,7.2-8c0.1-0.1,0.2-0.1,0.3-0.2c0.8-0.9,2.1-2.1,3.4-2.7c0.8-0.6,1.7-1.2,2.6-1.7
		c0.1-0.1,0.2-0.1,0.3-0.2c1.2-0.8,16.1-6.5,17.2-7.2c-0.1-0.6-0.2-1.3-0.2-1.9c-0.7,0.5-15.2,5.9-15.9,6.4c-0.3,0.2-0.6,0.4-1,0.5
		c-2,1.2-4.1,2.5-5.9,4.1c-0.9,0.5-1.8,1.2-2.7,1.7c-0.7,0.7-1.4,1.4-2.1,2.1c-0.3,0.5-0.6,1-0.9,1.5c-1,1-1.9,2.1-2.6,3
		c-1.8,2.3-3.3,5.2-3.8,8.3c-0.4,1.4-0.8,2.8-1,4.3c-0.4,2.4-0.7,5.6,0,8.1c-0.2,2.2-0.3,4.6,0.4,6.6c0.4,12.3,9.8,22.7,19.2,30.5
		c22.3,18.4,52.9,24.8,82,27.4c5.2,0.5,10.4,0.7,15.6,0.3c5.2,0.5,10.5,0.3,15.6-0.1c29.3-2.3,60-8.3,83-26.3
		c9.8-7.7,19.5-17.9,20.2-30.3C239.4,110.2,239.1,106.9,238.7,104.2z M235.2,119.3c-4.4,12.6-16.6,22.7-28.4,29.5
		c-12.2,7-25.8,11.9-39.7,15c-15.3,3.5-31.6,5.2-47.3,4.5c-0.1,0-0.1,0-0.2,0s-0.2,0-0.3,0c-0.1,0-0.2,0-0.2,0c-0.1,0-0.1,0-0.1,0
		c-15.7,0.4-31.9-1.5-47.1-5.1c-13.7-3.4-27.3-8.4-39.1-15.5c-11.6-7-23.4-17.2-27.4-29.8c-0.1-0.5-0.3-0.9-0.4-1.5
		c3.6,7.6,10,14.2,16.6,19.6c22.3,18.5,53,24.8,82,27.4c5.2,0.5,10.4,0.7,15.6,0.3c5.2,0.5,10.5,0.3,15.6-0.1
		c29.3-2.3,60-8.2,83-26.3c7.7-6.1,15.3-13.6,18.6-22.6C236.1,116.2,235.7,117.8,235.2,119.3z"/>
	<path class="st0" d="M44.2,66.1c0,0.3,0.1,0.5,0.4,0.6c0.4,0.1,9.3,3.5,20.7,3.7c0.3,0,0.6,0,0.9,0c14.7,0,26.4-5.6,33.9-16.2
		c0.1-0.1,0.1-0.3,0.1-0.5s-0.1-0.3-0.3-0.4c-0.1-0.1-0.3-0.1-0.5-0.1c-0.2,0-0.3,0.1-0.4,0.3c-1.7,2.4-3.7,4.6-5.8,6.4l-1.4,1.4
		L86,54.5l2.4-1c3.3-1.5,5.9-2.8,7.8-4.2c0.3-0.2,0.4-0.6,0.2-0.9c-0.2-0.3-0.6-0.4-0.9-0.2c-13.2,9-50.3,17.4-50.7,17.4
		C44.4,65.6,44.2,65.8,44.2,66.1z M71.8,59.5c4.3-1.4,8.1-2.7,11.5-4.1l1.3-0.4l6.2,7.1l-2,1.2c-3.5,2.1-7.3,3.8-11.5,4.7l-1,0.2
		l-7.4-7.8L71.8,59.5z M55.1,64.4c3.8-0.9,7.6-2,11.1-3l1.2-0.3l7.4,7.8l-4.1,0.3c-1.4,0.1-2.8,0.2-4.3,0.2c-0.3,0-0.5,0-0.8,0
		c-3.3,0-6.7-0.4-10.2-0.9l-8.9-1.6L55.1,64.4z"/>
	<path class="st0" d="M115.3,62.3c-0.1-0.1-0.3-0.2-0.4-0.2c-0.2,0-0.3,0-0.5,0.1C99.1,74,84.2,78.9,74.3,81
		c-10.6,2.2-17.8,1.7-18.2,1.7l0,0c-0.4,0-0.7,0.3-0.7,0.6c0,0.2,0,0.3,0.1,0.5c0.1,0.1,0.3,0.2,0.4,0.2c0.2,0,1.2,0.1,2.7,0.1
		c8.8,0,32-2,56.3-20.9c0.1-0.1,0.2-0.3,0.2-0.4C115.4,62.6,115.4,62.5,115.3,62.3z"/>
	<path class="st0" d="M63.8,95.9c0,0.3,0.1,0.5,0.4,0.6c0.3,0.1,7.6,3.5,18.7,3.5c0.2,0,0.5,0,0.7,0H84c10.7-0.2,26.9-3.8,42.8-19.7
		c0.2-0.2,0.2-0.6,0-0.9c-0.2-0.2-0.6-0.2-0.9,0c-4.3,4.3-8.9,8-13.5,10.8L111,91l-7.1-8l2.3-1.2c6.6-3.3,12-6.6,15.9-10
		c0.1-0.1,0.2-0.3,0.2-0.4c0-0.2,0-0.3-0.1-0.5c-0.1-0.1-0.3-0.2-0.4-0.2c0,0,0,0-0.1,0c-0.1,0-0.3,0.1-0.4,0.1
		c-17.7,15-56.4,24.4-56.9,24.6C64.2,95.4,64,95.7,63.8,95.9z M87.1,89.9c5-1.8,9.8-3.7,14-5.6l1.3-0.6l7.2,8.1l-2.3,1.2
		c-4.4,2.2-9,3.8-13.7,4.7l-0.8,0.2L83.6,91L87.1,89.9z M73.8,94.2c2.4-0.7,4.8-1.5,7.2-2.3l0.9-0.3l9.2,6.8l-5.5,0.3
		c-0.5,0-1,0-1.6,0.1c-0.4,0-0.8,0-1.3,0c-2.9,0-6-0.2-8.9-0.7l-8.4-1.5L73.8,94.2z"/>
	<path class="st0" d="M136,109.8c1.8,0.8,2.9,2.6,3,4.5c0,0.2,0.2,0.4,0.4,0.5h0.1c0.3,0.1,0.7,0,0.8-0.3c0.1-0.2,0.1-0.3,0-0.5
		l-0.1-0.4c-0.3-2.3-1.8-4.2-3.8-5.1c-2.6-1.2-5.7-0.6-7.7,1.5l-0.8,0.8l-1.2-0.3c-2.3-0.6-4.6-0.3-6.6,0.8l-1.2,0.6l-1-0.8
		c-0.5-0.4-1-0.7-1.7-1c-2.1-0.9-4.5-1-6.7-0.3c-2.2,0.8-4,2.4-4.9,4.6c-0.5,1-0.7,2.2-0.8,3.5c0,0.2,0.1,0.3,0.2,0.5
		c0.1,0.1,0.3,0.2,0.4,0.2l0,0l0,0c0.3,0,0.6-0.3,0.6-0.6c0-1,0.3-2,0.7-2.9c1.8-3.8,6.2-5.4,10-3.7c1,0.5,2,1.3,2.7,2.1
		c0.1,0.1,0.3,0.2,0.5,0.2c0.2,0,0.3,0,0.5-0.2c2.2-2.1,5.6-2.6,8.3-1.4l0.2,0.1c0.3,0.2,0.7,0,0.8-0.3
		C130.4,109.7,133.4,108.6,136,109.8z"/>
	<path class="st0" d="M225,98.2l-2.1-12.4c-0.1-0.3-0.3-0.6-0.7-0.5l-9.4,1l-0.6-0.9c-3.6-4.8-9.2-9.1-16.9-13l-1.6-0.7l3.7-10.7
		c0.1-0.3,0-0.6-0.3-0.8l-10.8-6.3c-0.1-0.1-0.3-0.1-0.5-0.1c-0.2,0-0.3,0.2-0.4,0.3l-4.5,7.9L155,54.6l-3.3-6.7
		c-0.1-0.3-0.4-0.4-0.7-0.3l-7.7,2.1c-0.1,0-0.1,0-0.2,0.1l-6,3.9c-0.2,0.1-0.3,0.4-0.3,0.7l3.4,14.3l-4.7-4.4
		c-1.9-1.8-4-3.6-6.3-5.5c-7.2-6-15.9-12.2-23.5-16.8l-7.8-4.5c-12.1-6.7-22.7-11.9-31.5-15.4L66.4,22h-0.1h-0.1
		c-7.8-3-14.5-4.9-19.8-5.5l-0.7-0.1L32.5,3c-0.2-0.2-0.6-0.3-0.9,0L17.8,14.7c-0.1,0.1-0.2,0.3-0.2,0.4c0,0.2,0,0.3,0.2,0.5l5.5,6
		l-2.6,1c-3.7,1.5-5.4,3.9-5.1,7.1c0.6,7,7.9,10.7,10.9,12l0.7,0.3l0.3,0.8c1.3,3.3,3.4,8.5,5.7,14.4l2,5c2.5,6.3,4.8,12.2,7,17.4
		l2.2,5.4c4.2,10.2,6.7,15.8,7.8,17.3c2.1,3.1,6.6,5.7,12.5,7.1c7.1,1.8,15.6,1.7,24.8-0.2c0.8-0.2,1.7-0.4,2.6-0.6l2.7-0.6
		l-0.3,2.8c0,0.3-0.1,0.6-0.1,0.9s0,0.6,0,0.8l0.1,1.5l-1.4,0.5c-1.8,0.7-2.9,2.5-2.9,4.5c0,2.4,1.8,4.3,4.7,4.8
		c8.9,1.8,17.1,2.6,24.4,2.6c17.1,0,24.8-4.8,27.3-6.8l0.4-0.4l0.6-0.1c4-0.4,7.1-3.8,7.1-7.9v-1.9h12.2l-5.6,11.4
		c-0.1,0.2-0.1,0.4,0,0.6c0.1,0.2,0.3,0.3,0.5,0.3h16.6c0.2,0,0.4-0.1,0.6-0.3l6.6-12.1h16.5c0.3,0,0.6-0.3,0.6-0.6v-5.5l21.6-4.4
		C224.9,99,225.1,98.6,225,98.2z M195.3,74c0.8,0.4,1.7,0.9,2.5,1.4l6.2,3.6h-0.6c2.1,1.5,3.9,3,5.5,4.7l2.7,2.8L198.2,88l1-8.9
		l-8.2,0.1l2.1-6.2L195.3,74z M169.1,73.6l11.2,6.6l-5.1,9.4l-12.7-2.2L169.1,73.6z M161.1,87.2l-8.2-1.5l8.3-16.8l6.7,3.9
		L161.1,87.2z M181.7,80.6l5-0.1l-4.4,15.8h-9.1L181.7,80.6z M188.1,80.5l9.8-0.1l-2,16.1h-12.2L188.1,80.5z M186.2,55.3l9.8,5.7
		l-6.3,18.2l-8.3,0.1l-6.7-4L186.2,55.3z M180.2,63.1l-6.7,11.5l-12-7L156,56.1L180.2,63.1z M150.9,48.9l9.3,19.2l-5,10.3
		l-10.8-27.7L150.9,48.9z M138.3,54.5l4.9-3.3L154.4,80l-2.7,5.6l-6.4-1.2L138.3,54.5z M19.2,15.3L32,4.3l11.2,11.5l-3.9,0.5
		c-1.5,0.2-2.7,0.5-3.9,1c-2.8,1.3-5.2,2.8-6.9,4.8L27,24L19.2,15.3z M25.2,36l0.8,4.6l-3.9-2.7c-3.3-2.3-5.1-5.1-5.5-8.3
		c-0.2-2.2,0.8-5.1,6.5-6.5l1.2-0.3l2.1,2.3l-0.4,1.2C24.7,29.9,24.8,33.6,25.2,36z M33.9,55.7c-3.8-9.7-6.6-17-6.7-17.1
		c-0.1-0.4-1.4-3.9-0.9-7.9c0.6-5.5,3.9-9.4,9.7-12c4.1-1.8,9.9-1.6,17.7,0.5l8.7,2.3l-8.8,1.6c-7.8,1.4-14.4,3.8-19.4,7.2
		c-0.3,0.2-0.4,0.6-0.2,0.9c0.2,0.3,0.6,0.4,0.9,0.2c2.3-1.6,5-2.9,8.1-4.1l1.3-0.5l5.5,6.4l-2.2,1.2c-2.6,1.4-4.3,2.1-4.3,2.1
		c-0.3,0.1-0.5,0.5-0.3,0.8c0.1,0.3,0.5,0.5,0.8,0.3c0.5-0.2,14.2-6.5,21.5-13.4l0.9-0.8l1.2,0.5c1.9,0.7,4,1.7,6.1,2.6l2.8,1.3
		l-2.3,2c-13.6,11.3-32.8,16.1-33,16.1c-0.3,0.1-0.6,0.4-0.5,0.8c0.1,0.3,0.4,0.5,0.8,0.5c0.1,0,0.4-0.1,0.9-0.2l1.3-0.3l5.6,7
		l-2.8,0.8c-4.2,1.2-7.8,2-10,2.4l-1.6,0.3L33.9,55.7z M65.7,22.9l-6.4,4.5c-2,1.5-4.4,2.9-7,4.4l-1.4,0.8l-5.4-6.2l3-0.8
		c2.9-0.7,6.1-1.4,9.3-1.7L65.7,22.9z M53.5,43.2l6.1,6.7l-2.7,1c-1.7,0.6-3.5,1.3-5.2,1.9l-1.3,0.4l-5.6-7l2.6-0.8
		c1.6-0.5,3.1-1,4.7-1.7L53.5,43.2z M88.9,108c-4.6,0.9-9,1.5-13.2,1.5c-3.9,0-7.6-0.4-10.9-1.3c-5.5-1.4-9.9-3.8-11.6-6.6
		c-1.4-2-5.7-12.4-9.1-20.8c-3-7.6-6.1-15.2-8.2-20.2L35,58.4l2.3-0.5c7.3-1.6,25.6-6.2,37.5-15.1c0.1-0.1,0.2-0.3,0.2-0.4
		c0-0.2,0-0.3-0.1-0.5c-0.1-0.1-0.3-0.2-0.4-0.2c-0.2,0-0.3,0-0.5,0.1c-3.3,2.4-7.2,4.7-11.9,6.8l-1.3,0.6l-6.1-6.6l2.5-1.2
		c7.8-3.5,14.3-7.7,19.3-12.3l0.9-0.9l1.2,0.5c3.9,1.9,8.2,4,12.5,6.4l2,1l-1.3,2.1c-2.7,3.6-8.1,7.3-10.5,8.8
		c-0.3,0.2-0.4,0.6-0.2,0.9c0.2,0.3,0.6,0.4,0.9,0.2c0.8-0.5,7.9-4.8,11.2-9.7l1-1.5l1.6,0.8c0.7,0.4,1.5,0.8,2.2,1.3h0.1
		c1.4,0.7,2.5,1.4,3.6,2c7.8,4.4,18.5,11.9,26.6,18.7c5.2,4.3,9.4,8.3,12.3,11.6l0.3,0.4l2.8,12.3l-9.9-1.7
		c-0.4-0.1-0.7,0.2-0.7,0.5l-2.9,14.1l-2-0.5c-0.4-0.1-0.8-0.2-1.3-0.2l-0.8-0.1l-0.5-0.6c-1.3-1.6-3.1-2.5-5.2-2.5
		c-2.8,0-5.4,1.8-6.3,4.5l-0.4,1.2l-1.2,0.2c-2.3,0.4-4.3,1.7-5.7,3.6l-0.7,1l-1.3-0.3c-0.6-0.1-1.4-0.2-2-0.2
		c-2.4,0-4.7,0.9-6.4,2.8l-0.3,0.4l-0.5,0.1C93.2,107,91,107.6,88.9,108z M146.7,118.1c-0.2,0-0.3,0.1-0.4,0.2c-2.5,2.6-11,7-27,7
		c-7.2,0-15.3-0.8-24.1-2.6c-2.3-0.4-3.7-1.8-3.7-3.6c0-2,1.6-3.6,3.6-3.6c0.1,0,0.3,0,0.4,0c0.2,0,0.4-0.1,0.6-0.2
		c0.1-0.2,0.2-0.4,0.1-0.6c-0.4-0.9-0.6-1.9-0.6-2.9c0-4.1,3.4-7.6,7.6-7.6c1.2,0,2.3,0.3,3.4,0.8c0.2,0.1,0.3,0.1,0.5,0
		c0.2-0.1,0.3-0.2,0.4-0.4c1.2-2.8,3.9-4.7,6.9-4.7h0.3c0.2,0,0.3,0,0.4-0.2c0.1-0.1,0.2-0.3,0.2-0.4c0.1-2.8,2.5-5,5.4-5
		c2,0,3.8,1,4.7,2.8c0.1,0.2,0.3,0.3,0.6,0.3h0.1c2,0,3.9,0.7,5.2,2.1v-0.1l3.3-15.6l40.2,7l-2.9,5.5h-22.5c-0.2,0-0.4,0.1-0.5,0.2
		c-0.1,0.1-0.2,0.3-0.1,0.5l1.3,6.3l-2.7-0.2c-0.4,0-0.8,0-1.3,0l-1.3,0.1l-0.6-1c-1.5-2.4-4-3.9-6.8-3.9c-0.9,0-1.8,0.1-2.6,0.4
		l-2.8,0.9c0.2,0.3,0.5,0.6,0.7,0.9c0.1,0.1,0.2,0.2,0.4,0.3c0.2,0,0.3,0,0.5-0.1c1.2-0.8,2.4-1.3,3.9-1.3c2.9,0,5.6,1.9,6.4,4.7
		c0.1,0.2,0.2,0.3,0.3,0.4c0.2,0.1,0.3,0.1,0.5,0c0.7-0.3,1.6-0.4,2.4-0.4c3.7,0,6.7,3,6.7,6.7C153.4,115,150.4,118.1,146.7,118.1z
		 M178.2,120.6h-15.1l5.4-11h15.8L178.2,120.6z M201.6,108.2h-47.4l-0.5-0.9c-0.5-0.8-1-1.5-1.8-2.1l-0.5-0.4l-1.4-7h51.6V108.2z
		 M203,102v-4.9c0-0.3-0.3-0.6-0.6-0.6h-5l0.8-7l23.6-2.6l1.9,11.1L203,102z"/>
	<g>
		<g>
			<path class="st0" d="M152,136.8c1.6,0.1,4.5,0.1,5.9,1.2c0.9,1.8,2,3.5,2.9,5.2c-0.4,2.9-1.8,4.2-4.2,4c-1.5,0.3-4.5,0.4-6-0.3
				c-1.9-0.2-2.2-1.9-0.9-4.8c-1.7-3.1-1.5-4.7,0.6-4.7c0.9,0.2,1.4-1.3,0.4-1.5c-5.9-1.8-11.8-3.6-17.6-5.5c0,0.5,0,1,0,1.5
				c2.1-0.3,6.4-1,8.5,0c4,1.9,7.2,7.6,0.7,9.2c-4.6,1.3-12.9-0.8-10.2-7.7c0.2-0.4-0.2-0.8-0.5-0.9c-3.7-1-7.2-2.1-10.9-3.1
				c-0.1,0.5-0.1,1-0.2,1.6c5.5,0.1,11.2,2.5,12.6,8.3c1.2,4.8-2.3,14.3-8.1,14.9c-5.8,0.6-10.8-4.1-12.2-9.3
				c-1.3-4.7,0.3-12.4,5.7-14c-0.2-0.5-0.4-0.9-0.6-1.5c-5,2.5-10.1,4.9-15.1,7.4c-0.5,0.2-1.7,1.2-2.2,1.2
				c-0.8-0.1,0.7,0.3,0.2-0.4c-1.3-1.6-1.9-4.3-2.7-6.2c-0.2-0.4-0.7-0.5-1-0.3c-9.8,6-11.6,19.2-0.2,24.3
				c4.2,1.9,12.6,4.5,17.2,2.3c4.3-2.1,4.6-7.9,3.8-11.9c-1.3-5.6-5-10.4-10.2-12.9c-3.9-1.9-8.2-1.3-11.8-3.4
				c-6.2-3.6-12.4-7.2-18.6-10.8c-0.2,0.5-0.4,0.9-0.6,1.5c3.9,0.7,7.8,2.3,9.9,5.9c3,5.2-0.3,11.5-6,12.9c-4.2,1-9-0.5-11.6-3.9
				c-1.3-1.6-2.4-3.8-2.7-5.7c-0.7-4.1,1-13.6,8.5-8.5c0.2-0.5,0.4-0.9,0.6-1.5c-5-0.7-10.8-0.7-15.6-2.2c-2.1-0.6-0.1,0.9-3.3-2.4
				c-2.7-3-3.5-7.3,0.9-10.2c2-1.3,5-1.5,7.3-1.2c5.8,1,10.4,7.3,5,12.4c-4.5,4.2-12.6,2.9-14.1-3.6c-0.2-0.9-1.7-0.5-1.5,0.4
				c1.9,8.5,14,9.7,18.4,2.4c5.1-8.2-5.5-14.6-12.6-13.1c-4,0.8-7.1,3.5-7.4,7.8c-0.2,3,1.6,8,4.7,8.9c2.5,0.7,6.1,0.6,8.7,1
				c2.9,0.4,5.9,0.8,8.8,1.3c0.8,0.1,1.4-0.9,0.6-1.5c-5.1-3.6-10.7,0.6-11.1,6.4c-0.5,6.9,4.4,13.5,11.2,14.7
				c6,1,12.8-2.3,13.7-8.8c1-7.4-5.9-12.1-12.2-13.2c-0.8-0.2-1.4,0.9-0.6,1.5c4.3,2.5,8.6,5,12.9,7.6c2.2,1.3,4.4,2.9,6.8,4
				c3.4,1.4,7.1,0.8,10.6,2.6c5.2,2.6,12.9,11.6,9.4,18.3c-1,2.1-4.9,4-7,4.2c-1.9,0.2-5.2-0.7-7.2-1.2c-3.5-0.8-6.8-2.2-9.2-4.9
				c-3.3-3.7-2.9-8.4-0.6-12.6c0.7-1.4,2.7-4.2,4.4-4.8c1.6-0.5-0.4-1.3,0.6-0.1c1.5,1.4,1.7,4.3,2.1,6c0.1,0.3,0.3,0.5,0.5,0.5
				c0.2,0.1,0.3,0.1,0.5,0.2c0.2,0.1,0.6,0,0.7-0.2c1.7-2.1,6.5-3.4,8.9-4.6c2.9-1.5,5.9-2.8,8.8-4.3c0.8-0.4,0.2-1.7-0.6-1.5
				c-13.1,4.1-6.8,28.5,6.7,26.5c6.4-0.9,10.7-9.1,10.2-15.1c-0.5-7.4-7.6-11.2-14.4-11.3c-0.9,0-1,1.3-0.2,1.6
				c1.7,0.4,3.4,0.9,5,1.4c1.4,0.4,2.7,0.6,4.1,1.2c0.3,0.1,1,0.1,1.3,0.3c0.8,0.8-0.1-0.5,0.1,0.3c-0.1-0.3-0.8,2.6-0.8,3
				c0.1,0.9,0.3,2,0.8,2.7c1.6,2.4,4.6,2.5,7.1,2.7c4.4,0.3,10.4,0.1,10.1-5.9c-0.3-7.6-10-7.2-15.2-6.5c-0.8,0.1-0.6,1.3,0,1.5
				c5.9,1.8,11.8,3.6,17.6,5.5c0.1-0.5,0.3-1,0.4-1.5c-3.4-0.5-5.9,3.8-5.9,6.7c0.1,5.1,5.7,6.5,9.9,6.5c4.9,0,8.4-1.7,7.4-7.4
				c-0.8-5-6.1-6-10.4-6.3C150.9,135.1,150.9,136.6,152,136.8L152,136.8z"/>
		</g>
	</g>
</g>
<g class="st1">
	<path class="st2" d="M233.1,102.2c0-0.1,0-0.1,0-0.2c0.2-1.9,0-3.9-0.2-5.5c-0.2-1.4-0.5-2.7-0.9-4.1c-0.4-2.8-1.7-5.7-3.3-7.9
		c-0.6-0.9-1.4-1.9-2.4-2.9c-0.3-0.5-0.5-1-0.8-1.4c-0.6-0.7-1.3-1.4-1.9-2c-0.8-0.6-1.7-1.1-2.5-1.6c-1.6-1.5-3.6-2.8-5.4-4
		c-0.4-0.1-0.7-0.2-1-0.5c-1.7-1.4-3.5-2.7-5.4-3.8c-0.1-0.1-0.2-0.2-0.3-0.3c0,0-0.1,0-0.2-0.1c-0.3-0.1-10.1-6.2-10.4-6.3
		c0,0.4-0.1,0.7-0.4,1c-0.2,0.2-0.4,0.3-0.7,0.4c0.4,0.2,0.7,0.3,1.1,0.5c0.1,0.1,0.2,0.1,0.3,0.2c2.5,1.5,14.5,9.2,17,11
		c0.1,0.1,0.2,0.1,0.3,0.2c0.9,0.5,1.7,1,2.4,1.6c1.2,0.6,2.3,1.7,3.1,2.7c0.1,0.1,0.2,0.1,0.3,0.2c2.6,2.3,5.1,4.8,6.6,7.7
		c2.1,4,2.9,8.3,2.8,12.8c0,1-0.1,2.1-0.3,3.1c0,2.7-0.3,5.4-1.3,8.1c-4.2,12-15.8,21.6-27.1,28.1c-11.6,6.7-24.6,11.3-37.8,14.3
		c-14.6,3.3-30.1,5-45.1,4.3c-0.1,0-0.1,0-0.2,0s-0.2,0-0.3,0c-0.1,0-0.2,0-0.2,0h-0.1c-15,0.4-30.4-1.4-44.9-4.9
		c-13.1-3.2-26-8-37.3-14.8c-11.1-6.7-22.3-16.4-26.1-28.5c-0.9-2.7-1.1-5.4-1-8.1c-0.2-1-0.2-2-0.2-3.1c0.1-4.4,1.1-8.8,3.3-12.7
		c1.6-2.9,4.2-5.4,6.9-7.6c0.1-0.1,0.2-0.1,0.3-0.2c0.8-0.9,2-2,3.2-2.6c0.8-0.6,1.6-1.1,2.5-1.6c0.1-0.1,0.2-0.1,0.3-0.2
		c1.1-0.8,15.3-6.2,16.4-6.9C42.1,66,42,65.4,42,64.8c-0.7,0.5-14.5,5.6-15.2,6.1c-0.3,0.2-0.6,0.4-1,0.5c-1.9,1.1-3.9,2.4-5.6,3.9
		c-0.9,0.5-1.7,1.1-2.6,1.6c-0.7,0.7-1.3,1.3-2,2c-0.3,0.5-0.6,1-0.9,1.4c-1,1-1.8,2-2.5,2.9c-1.7,2.2-3.1,5-3.6,7.9
		c-0.4,1.3-0.8,2.7-1,4.1c-0.4,2.3-0.7,5.3,0,7.7c-0.2,2.1-0.3,4.4,0.4,6.3c0.4,11.7,9.3,21.6,18.3,29.1
		c21.3,17.5,50.4,23.6,78.2,26.1c5,0.5,9.9,0.7,14.9,0.3c5,0.5,10,0.3,14.9-0.1c27.9-2.2,57.2-7.9,79.1-25.1
		c9.3-7.3,18.6-17.1,19.3-28.9C233.7,108,233.4,104.7,233.1,102.2z M229.7,116.6c-4.2,12-15.8,21.6-27.1,28.1
		C191,151.4,178,156,164.8,159c-14.6,3.3-30.1,5-45.1,4.3c-0.1,0-0.1,0-0.2,0s-0.2,0-0.3,0c-0.1,0-0.2,0-0.2,0c-0.1,0-0.1,0-0.1,0
		c-15,0.4-30.4-1.4-44.9-4.9c-13.1-3.2-26-8-37.3-14.8c-11.1-6.7-22.3-16.4-26.1-28.4c-0.1-0.5-0.3-0.9-0.4-1.4
		c3.4,7.2,9.5,13.5,15.8,18.7c21.3,17.6,50.5,23.6,78.2,26.1c5,0.5,9.9,0.7,14.9,0.3c5,0.5,10,0.3,14.9-0.1
		c27.9-2.2,57.2-7.8,79.1-25.1c7.3-5.8,14.6-13,17.7-21.5C230.6,113.7,230.3,115.2,229.7,116.6z"/>
	<path class="st2" d="M47.7,66c0,0.3,0.1,0.5,0.4,0.6c0.4,0.1,8.9,3.3,19.7,3.5c0.3,0,0.6,0,0.9,0c14,0,25.2-5.3,32.3-15.4
		c0.1-0.1,0.1-0.3,0.1-0.5s-0.1-0.3-0.3-0.4c-0.1-0.1-0.3-0.1-0.5-0.1s-0.3,0.1-0.4,0.3c-1.6,2.3-3.5,4.4-5.5,6.1L93,61.3l-5.6-6.5
		l2.3-1c3.1-1.4,5.6-2.7,7.4-4c0.3-0.2,0.4-0.6,0.2-0.9c-0.2-0.3-0.6-0.4-0.9-0.2C84,57.3,48.6,65.3,48.2,65.4
		C47.9,65.5,47.7,65.7,47.7,66z M74,59.7c4.1-1.3,7.7-2.6,11-3.9l1.2-0.5l5.9,6.8l-1.9,1.2c-3.3,2-7,3.6-11,4.5l-1,0.2l-7.1-7.4
		L74,59.7z M58.2,64.3c3.6-0.9,7.1-1.9,10.5-2.9l1.1-0.3l7.1,7.4L73,68.8c-1.3,0.1-2.7,0.2-4.1,0.2c-0.3,0-0.5,0-0.8,0
		c-3.1,0-6.4-0.4-9.7-0.9l-8.5-1.5L58.2,64.3z"/>
	<path class="st2" d="M115.4,62.3c-0.1-0.1-0.3-0.2-0.4-0.2c-0.2,0-0.3,0-0.5,0.1c-14.5,11.3-28.7,16-38.1,18
		c-10.1,2.1-17,1.6-17.3,1.6l0,0c-0.4,0-0.7,0.3-0.7,0.6c0,0.2,0,0.3,0.1,0.5c0.1,0.1,0.3,0.2,0.4,0.2c0.2,0,1.1,0.1,2.6,0.1
		c8.4,0,30.5-1.9,53.7-19.9c0.1-0.1,0.2-0.3,0.2-0.4C115.5,62.6,115.5,62.4,115.4,62.3z"/>
	<path class="st2" d="M66.5,94.4c0,0.3,0.1,0.5,0.4,0.6s7.2,3.3,17.8,3.3c0.2,0,0.5,0,0.7,0h0.3c10.2-0.2,25.6-3.6,40.8-18.8
		c0.2-0.2,0.2-0.6,0-0.9c-0.2-0.2-0.6-0.2-0.9,0c-4.1,4.1-8.5,7.6-12.9,10.3l-1.3,0.8l-6.8-7.6l2.2-1.1c6.3-3.1,11.4-6.3,15.2-9.5
		c0.1-0.1,0.2-0.3,0.2-0.4c0-0.2,0-0.3-0.1-0.5c-0.1-0.1-0.3-0.2-0.4-0.2c0,0,0,0-0.1,0s-0.3,0.1-0.4,0.1
		c-16.7,14.1-53.7,23.1-54.1,23.2C66.7,93.9,66.5,94.1,66.5,94.4z M88.6,88.5c4.8-1.7,9.3-3.5,13.3-5.3l1.2-0.6l6.9,7.7l-2.2,1.1
		c-4.2,2.1-8.6,3.6-13.1,4.5L94,96.2l-8.7-6.5L88.6,88.5z M75.9,92.7c2.3-0.7,4.6-1.4,6.9-2.2l0.9-0.3l8.8,6.5L87.4,97
		c-0.5,0-1,0-1.5,0.1c-0.4,0-0.8,0-1.2,0c-2.8,0-5.7-0.2-8.5-0.7l-8-1.4L75.9,92.7z"/>
	<path class="st2" d="M135.2,107.6c1.7,0.8,2.8,2.5,2.9,4.3c0,0.2,0.2,0.4,0.4,0.5h0.1c0.3,0.1,0.7,0,0.8-0.3c0.1-0.2,0.1-0.3,0-0.5
		l-0.1-0.4c-0.3-2.2-1.7-4-3.6-4.9c-2.5-1.1-5.4-0.6-7.3,1.4l-0.8,0.8l-1.1-0.3c-2.2-0.6-4.4-0.3-6.3,0.8l-1.1,0.6l-1-0.8
		c-0.5-0.4-1-0.7-1.6-1c-2-0.9-4.3-1-6.4-0.3c-2.1,0.8-3.8,2.3-4.7,4.4c-0.5,1-0.7,2.1-0.8,3.3c0,0.2,0.1,0.3,0.2,0.5
		c0.1,0.1,0.3,0.2,0.4,0.2l0,0l0,0c0.3,0,0.6-0.3,0.6-0.6c0-1,0.3-1.9,0.7-2.8c1.7-3.6,5.9-5.1,9.5-3.5c1,0.5,1.9,1.2,2.6,2
		c0.1,0.1,0.3,0.2,0.5,0.2s0.3,0,0.5-0.2c2.1-2,5.3-2.5,7.9-1.3l0.2,0.1c0.3,0.2,0.7,0,0.8-0.3C129.8,107.4,132.7,106.4,135.2,107.6
		z"/>
	<path class="st2" d="M220,96.6l-2-11.8c-0.1-0.3-0.3-0.6-0.7-0.5l-9,1l-0.6-0.9c-3.4-4.6-8.8-8.7-16.1-12.4l-1.5-0.7l3.5-10.2
		c0.1-0.3,0-0.6-0.3-0.8l-10.3-6c-0.1-0.1-0.3-0.1-0.5-0.1s-0.3,0.2-0.4,0.3l-4.3,7.5l-24.5-7l-3.1-6.4c-0.1-0.3-0.4-0.4-0.7-0.3
		l-7.3,2c-0.1,0-0.1,0-0.2,0.1l-5.7,3.7c-0.2,0.1-0.3,0.4-0.3,0.7l3.2,13.6l-4.5-4.2c-1.8-1.7-3.8-3.4-6-5.2
		c-6.9-5.7-15.2-11.6-22.4-16l-7.4-4.3c-11.5-6.4-21.6-11.3-30-14.7l-0.1-0.1h-0.1h-0.1c-7.4-2.9-13.8-4.7-18.9-5.2L49,18.5
		L36.5,5.8c-0.2-0.2-0.6-0.3-0.9,0L22.5,16.9c-0.1,0.1-0.2,0.3-0.2,0.4c0,0.2,0,0.3,0.2,0.5l5.2,5.7l-2.5,1
		c-3.5,1.4-5.1,3.7-4.9,6.8c0.6,6.7,7.5,10.2,10.4,11.4l0.8,0.3l0.3,0.8c1.2,3.1,3.2,8.1,5.4,13.7l1.9,4.8c2.4,6,4.6,11.6,6.7,16.6
		l2.1,5.1c4,9.7,6.4,15.1,7.4,16.5c2,3,6.3,5.4,11.9,6.8c6.8,1.7,14.9,1.6,23.6-0.2c0.8-0.2,1.6-0.4,2.5-0.6l2.6-0.6l-0.3,2.7
		c0,0.3-0.1,0.6-0.1,0.9s0,0.6,0,0.8l0.1,1.4l-1.3,0.5c-1.7,0.7-2.8,2.4-2.8,4.3c0,2.3,1.7,4.1,4.5,4.6c8.5,1.7,16.3,2.5,23.3,2.5
		c16.3,0,23.6-4.6,26-6.5l0.4-0.4l0.6-0.1c3.8-0.4,6.8-3.6,6.8-7.5v-1.8h11.6l-5.3,10.9c-0.1,0.2-0.1,0.4,0,0.6s0.3,0.3,0.5,0.3
		h15.8c0.2,0,0.4-0.1,0.6-0.3l6.3-11.5h15.7c0.3,0,0.6-0.3,0.6-0.6v-5.2l20.6-4.2C219.9,97.2,220.1,96.9,220,96.6z M191.7,73.4
		c0.8,0.4,1.6,0.9,2.4,1.3l5.9,3.4h-0.6c2,1.4,3.7,2.9,5.2,4.5l2.6,2.7l-12.7,1.4l1-8.5l-7.8,0.1l2-5.9L191.7,73.4z M166.7,73.1
		l10.7,6.3l-4.9,9l-12.1-2.1L166.7,73.1z M159.2,86l-7.8-1.4l7.9-16l6.4,3.7L159.2,86z M178.7,79.7l4.8-0.1l-4.2,15.1h-8.7
		L178.7,79.7z M184.8,79.6l9.3-0.1l-1.9,15.3h-11.6L184.8,79.6z M183.1,55.7l9.3,5.4l-6,17.3l-7.9,0.1l-6.4-3.8L183.1,55.7z
		 M177.3,63.1l-6.4,11l-11.5-6.7l-5.3-11L177.3,63.1z M149.4,49.5l8.9,18.3l-4.8,9.8l-10.2-26.4L149.4,49.5z M137.4,54.8l4.7-3.1
		l10.6,27.4l-2.6,5.3l-6.1-1.1L137.4,54.8z M23.9,17.5L36,7.1l10.7,11L43,18.6c-1.4,0.2-2.6,0.5-3.7,1c-2.7,1.2-5,2.7-6.6,4.6
		l-1.4,1.6L23.9,17.5z M29.7,37.3l0.8,4.4l-3.7-2.6c-3.1-2.2-4.9-4.9-5.2-7.9c-0.2-2.1,0.8-4.9,6.2-6.2l1.1-0.3l2,2.2L30.5,28
		C29.1,31.5,29.3,35,29.7,37.3z M37.9,56c-3.6-9.2-6.3-16.2-6.4-16.3c-0.1-0.4-1.3-3.7-0.9-7.5c0.6-5.2,3.7-9,9.2-11.4
		c3.9-1.7,9.4-1.5,16.9,0.5l8.3,2.2L56.6,25c-7.4,1.3-13.7,3.6-18.5,6.9c-0.3,0.2-0.4,0.6-0.2,0.9c0.2,0.3,0.6,0.4,0.9,0.2
		c2.2-1.5,4.8-2.8,7.7-3.9l1.2-0.5l5.2,6.1l-2.1,1.1c-2.5,1.3-4.1,2-4.1,2c-0.3,0.1-0.5,0.5-0.3,0.8c0.1,0.3,0.5,0.5,0.8,0.3
		c0.5-0.2,13.5-6.2,20.5-12.8l0.9-0.8l1.1,0.5c1.8,0.7,3.8,1.6,5.8,2.5l2.7,1.2L76,31.3C63.1,42.1,44.7,46.6,44.5,46.7
		c-0.3,0.1-0.6,0.4-0.5,0.8c0.1,0.3,0.4,0.5,0.8,0.5c0.1,0,0.4-0.1,0.9-0.2l1.2-0.3l5.3,6.7L49.5,55c-4,1.1-7.4,1.9-9.5,2.3
		l-1.5,0.3L37.9,56z M68.2,24.7L62.1,29c-1.9,1.4-4.2,2.8-6.7,4.2L54.1,34L49,28l2.9-0.8c2.8-0.7,5.8-1.3,8.9-1.6L68.2,24.7z
		 M56.5,44l5.8,6.4l-2.6,1c-1.6,0.6-3.3,1.2-5,1.8l-1.2,0.4L48.3,47l2.5-0.8c1.5-0.5,3-1,4.5-1.6L56.5,44z M90.4,105.9
		c-4.4,0.9-8.6,1.4-12.6,1.4c-3.7,0-7.2-0.4-10.4-1.2c-5.2-1.3-9.4-3.6-11.1-6.3C55,97.8,50.8,88,47.6,80
		c-2.9-7.2-5.8-14.5-7.8-19.3L39,58.6l2.2-0.5c7-1.5,24.4-5.9,35.7-14.4c0.1-0.1,0.2-0.3,0.2-0.4c0-0.2,0-0.3-0.1-0.5
		c-0.1-0.1-0.3-0.2-0.4-0.2c-0.2,0-0.3,0-0.5,0.1c-3.1,2.3-6.9,4.5-11.3,6.5l-1.2,0.6l-5.8-6.3l2.4-1.1c7.4-3.3,13.6-7.3,18.4-11.7
		l0.9-0.9l1.1,0.5c3.7,1.8,7.8,3.8,11.9,6.1l1.9,1l-1.3,1.7c-2.6,3.4-7.7,7-10,8.4c-0.3,0.2-0.4,0.6-0.2,0.9
		c0.2,0.3,0.6,0.4,0.9,0.2c0.8-0.5,7.5-4.6,10.7-9.2l1-1.4l1.5,1c0.7,0.4,1.4,0.8,2.1,1.2h0.1c1.3,0.7,2.4,1.3,3.4,1.9
		c7.4,4.2,17.6,11.3,25.4,17.8c5,4.1,9,7.9,11.7,11.1l0.3,0.4l2.7,11.7l-9.4-1.6c-0.4-0.1-0.7,0.2-0.7,0.5l-2.8,13.4l-1.9-0.5
		c-0.4-0.1-0.8-0.2-1.2-0.2l-0.8-0.1l-0.5-0.6c-1.2-1.5-3-2.4-5-2.4c-2.7,0-5.1,1.7-6,4.3L114,97l-1.1,0.2c-2.2,0.4-4.1,1.6-5.4,3.4
		l-0.7,1l-1.2-0.3c-0.6-0.1-1.3-0.2-1.9-0.2c-2.3,0-4.5,0.9-6.1,2.7l-0.3,0.4l-0.5,0.1C94.4,104.9,92.3,105.5,90.4,105.9z
		 M145.4,115.4c-0.2,0-0.3,0.1-0.4,0.2c-2.4,2.5-10.5,6.7-25.7,6.7c-6.9,0-14.6-0.8-23-2.5c-2.2-0.4-3.5-1.7-3.5-3.4
		c0-1.9,1.5-3.4,3.4-3.4c0.1,0,0.3,0,0.4,0c0.2,0,0.4-0.1,0.6-0.2c0.1-0.2,0.2-0.4,0.1-0.6c-0.4-0.9-0.6-1.8-0.6-2.8
		c0-3.9,3.2-7.2,7.2-7.2c1.1,0,2.2,0.3,3.2,0.8c0.2,0.1,0.3,0.1,0.5,0s0.3-0.2,0.4-0.4c1.1-2.7,3.7-4.5,6.6-4.5h0.3
		c0.2,0,0.3,0,0.4-0.2c0.1-0.1,0.2-0.3,0.2-0.4c0.1-2.7,2.4-4.8,5.1-4.8c1.9,0,3.6,1,4.5,2.7c0.1,0.2,0.3,0.3,0.6,0.3h0.1
		c1.9,0,3.7,0.7,5,2v-0.1l3.1-14.9l38.3,6.7l-2.8,5.2H148c-0.2,0-0.4,0.1-0.5,0.2s-0.2,0.3-0.1,0.5l1.2,6l-2.6-0.2
		c-0.4,0-0.8,0-1.2,0l-1.2,0.1l-0.6-1c-1.4-2.3-3.8-3.7-6.5-3.7c-0.9,0-1.7,0.1-2.5,0.4l-2.7,0.9c0.2,0.3,0.5,0.6,0.7,0.9
		c0.1,0.1,0.2,0.2,0.4,0.3c0.2,0,0.3,0,0.5-0.1c1.1-0.8,2.3-1.2,3.7-1.2c2.8,0,5.3,1.8,6.1,4.5c0.1,0.2,0.2,0.3,0.3,0.4
		c0.2,0.1,0.3,0.1,0.5,0c0.7-0.3,1.5-0.4,2.3-0.4c3.5,0,6.4,2.9,6.4,6.4C151.8,112.5,148.9,115.4,145.4,115.4z M175.4,117.8H161
		l5.1-10.5h15.1L175.4,117.8z M197.7,106.1h-45.2l-0.5-0.9c-0.5-0.8-1-1.4-1.7-2l-0.5-0.4l-1.3-6.7h49.2V106.1z M199,100.1v-4.7
		c0-0.3-0.3-0.6-0.6-0.6h-4.8l0.8-6.7l22.5-2.5l1.8,10.6L199,100.1z"/>
	<g class="st3">
		<g>
			<path class="st0" d="M150.4,133.2c1.5,0.1,4.3,0.1,5.6,1.1c0.9,1.7,1.9,3.3,2.8,5c-0.4,2.8-1.7,4-4,3.8c-1.4,0.3-4.3,0.4-5.7-0.3
				c-1.8-0.2-2.1-1.8-0.9-4.6c-1.6-3-1.4-4.5,0.6-4.5c0.9,0.2,1.3-1.2,0.4-1.4c-5.6-1.7-11.2-3.4-16.8-5.2c0,0.5,0,1,0,1.4
				c2-0.3,6.1-1,8.1,0c3.8,1.8,6.9,7.2,0.7,8.8c-4.4,1.2-12.3-0.8-9.7-7.3c0.2-0.4-0.2-0.8-0.5-0.9c-3.5-1-6.9-2-10.4-3
				c-0.1,0.5-0.1,1-0.2,1.5c5.2,0.1,10.7,2.4,12,7.9c1.1,4.6-2.2,13.6-7.7,14.2c-5.5,0.6-10.3-3.9-11.6-8.9
				c-1.2-4.5,0.3-11.8,5.4-13.3c-0.2-0.5-0.4-0.9-0.6-1.4c-4.8,2.4-9.6,4.7-14.4,7.1c-0.5,0.2-1.6,1.1-2.1,1.1
				c-0.8-0.1,0.7,0.3,0.2-0.4c-1.2-1.5-1.8-4.1-2.6-5.9c-0.2-0.4-0.7-0.5-1-0.3c-9.3,5.7-11.1,18.3-0.2,23.2c4,1.8,12,4.3,16.4,2.2
				c4.1-2,4.4-7.5,3.6-11.3c-1.2-5.3-4.8-9.9-9.7-12.3c-3.7-1.8-7.8-1.2-11.2-3.2c-5.9-3.4-11.8-6.9-17.7-10.3
				c-0.2,0.5-0.4,0.9-0.6,1.4c3.7,0.7,7.4,2.2,9.4,5.6c2.9,5-0.3,11-5.7,12.3c-4,1-8.6-0.5-11.1-3.7c-1.2-1.5-2.3-3.6-2.6-5.4
				c-0.7-3.9,1-13,8.1-8.1c0.2-0.5,0.4-0.9,0.6-1.4c-4.8-0.7-10.3-0.7-14.9-2.1c-2-0.6-0.1,0.9-3.1-2.3c-2.6-2.9-3.3-7,0.9-9.7
				c1.9-1.2,4.8-1.4,7-1.1c5.5,1,9.9,7,4.8,11.8c-4.3,4-12,2.8-13.4-3.4c-0.2-0.9-1.6-0.5-1.4,0.4c1.8,8.1,13.3,9.2,17.5,2.3
				c4.9-7.8-5.2-13.9-12-12.5c-3.8,0.8-6.8,3.3-7.1,7.4c-0.2,2.9,1.5,7.6,4.5,8.5c2.4,0.7,5.8,0.6,8.3,1c2.8,0.4,5.6,0.8,8.4,1.2
				c0.8,0.1,1.3-0.9,0.6-1.4c-4.9-3.4-10.2,0.6-10.6,6.1c-0.5,6.6,4.2,12.9,10.7,14c5.7,1,12.2-2.2,13.1-8.4
				c1-7.1-5.6-11.5-11.6-12.6c-0.8-0.2-1.3,0.9-0.6,1.4c4.1,2.4,8.2,4.8,12.3,7.2c2.1,1.2,4.2,2.8,6.5,3.8c3.2,1.3,6.8,0.8,10.1,2.5
				c5,2.5,12.3,11.1,9,17.4c-1,2-4.7,3.8-6.7,4c-1.8,0.2-5-0.7-6.9-1.1c-3.3-0.8-6.5-2.1-8.8-4.7c-3.1-3.5-2.8-8-0.6-12
				c0.7-1.3,2.6-4,4.2-4.6c1.5-0.5-0.4-1.2,0.6-0.1c1.4,1.3,1.6,4.1,2,5.7c0.1,0.3,0.3,0.5,0.5,0.5c0.2,0.1,0.3,0.1,0.5,0.2
				c0.2,0.1,0.6,0,0.7-0.2c1.6-2,6.2-3.2,8.5-4.4c2.8-1.4,5.6-2.7,8.4-4.1c0.8-0.4,0.2-1.6-0.6-1.4c-12.5,3.9-6.5,27.2,6.4,25.3
				c6.1-0.9,10.2-8.7,9.7-14.4c-0.5-7.1-7.2-10.7-13.7-10.8c-0.9,0-1,1.2-0.2,1.5c1.6,0.4,3.2,0.9,4.8,1.3c1.3,0.4,2.6,0.6,3.9,1.1
				c0.3,0.1,1,0.1,1.2,0.3c0.8,0.8-0.1-0.5,0.1,0.3c-0.1-0.3-0.8,2.5-0.8,2.9c0.1,0.9,0.3,1.9,0.8,2.6c1.5,2.3,4.4,2.4,6.8,2.6
				c4.2,0.3,9.9,0.1,9.6-5.6c-0.3-7.2-9.5-6.9-14.5-6.2c-0.8,0.1-0.6,1.2,0,1.4c5.6,1.7,11.2,3.4,16.8,5.2c0.1-0.5,0.3-1,0.4-1.4
				c-3.2-0.5-5.6,3.6-5.6,6.4c0.1,4.9,5.4,6.2,9.4,6.2c4.7,0,8-1.6,7.1-7.1c-0.8-4.8-5.8-5.7-9.9-6
				C149.5,131.7,149.5,133.2,150.4,133.2L150.4,133.2z"/>
		</g>
	</g>
</g>
</svg>
