<?xml version="1.0" encoding="utf-8"?>
<!-- Generator: Adobe Illustrator 23.0.3, SVG Export Plug-In . SVG Version: 6.00 Build 0)  -->
<svg version="1.1" id="Layer_1" xmlns="http://www.w3.org/2000/svg" xmlns:xlink="http://www.w3.org/1999/xlink" x="0px" y="0px"
	 viewBox="0 0 241.6 216" style="enable-background:new 0 0 241.6 216;" xml:space="preserve">
<style type="text/css">
	.st0{fill:#2A2A2A;stroke:#2A2A2A;stroke-miterlimit:10;}
	.st1{fill:#2A2A2A;}
	.st2{fill:#808080;}
	.st3{fill:#2A2AC2;}
	.st4{fill:#505050;}
	.st5{fill:#2AD82A;}
	.st6{fill:#646464;}
	.st7{fill:#282828;}
	.st8{fill:#302148;}
	.st9{opacity:0.49;}
</style>
<g>
	<path class="st0" d="M239.1,136c0-0.1,0-0.1,0-0.2c0.2-2,0-4.1-0.2-5.8c-0.2-1.5-0.5-2.8-0.9-4.3c-0.4-2.9-1.8-6-3.5-8.3
		c-0.6-0.9-1.5-2-2.5-3c-0.3-0.5-0.5-1.1-0.8-1.5c-0.6-0.7-1.4-1.5-2-2.1c-0.8-0.6-1.8-1.2-2.6-1.7c-1.7-1.6-3.8-2.9-5.7-4.2
		c-0.4-0.1-0.7-0.2-1.1-0.5c-1.8-1.5-3.7-2.8-5.7-4c-0.1-0.1-0.2-0.2-0.3-0.3c0,0-0.1,0-0.2-0.1c-0.3-0.1-10.6-6.5-10.9-6.6
		c0,0.4-0.1,0.7-0.4,1.1c-0.2,0.2-0.4,0.3-0.7,0.4c0.4,0.2,0.7,0.3,1.2,0.5c0.1,0.1,0.2,0.1,0.3,0.2c2.6,1.6,15.2,9.7,17.9,11.6
		c0.1,0.1,0.2,0.1,0.3,0.2c0.9,0.5,1.8,1.1,2.5,1.7c1.3,0.6,2.4,1.8,3.3,2.8c0.1,0.1,0.2,0.1,0.3,0.2c2.7,2.4,5.4,5,6.9,8.1
		c2.2,4.2,3,8.7,2.9,13.4c0,1.1-0.1,2.2-0.3,3.3c0,2.8-0.3,5.7-1.4,8.5c-4.4,12.6-16.6,22.7-28.5,29.5c-12.2,7-25.8,11.9-39.7,15
		c-15.3,3.5-31.6,5.3-47.4,4.5c-0.1,0-0.1,0-0.2,0c-0.1,0-0.2,0-0.3,0s-0.2,0-0.2,0h-0.1c-15.8,0.4-31.9-1.5-47.1-5.1
		c-13.8-3.4-27.3-8.4-39.2-15.5c-11.7-7-23.4-17.2-27.4-29.9c-0.9-2.8-1.2-5.7-1.1-8.5c-0.2-1.1-0.2-2.1-0.2-3.3
		c0.1-4.6,1.2-9.2,3.5-13.3c1.7-3,4.4-5.7,7.2-8c0.1-0.1,0.2-0.1,0.3-0.2c0.8-0.9,2.1-2.1,3.4-2.7c0.8-0.6,1.7-1.2,2.6-1.7
		c0.1-0.1,0.2-0.1,0.3-0.2c1.2-0.8,16.1-6.5,17.2-7.2c-0.1-0.6-0.2-1.3-0.2-1.9c-0.7,0.5-15.2,5.9-16,6.4c-0.3,0.2-0.6,0.4-1.1,0.5
		c-2,1.2-4.1,2.5-5.9,4.1c-0.9,0.5-1.8,1.2-2.7,1.7c-0.7,0.7-1.4,1.4-2.1,2.1c-0.3,0.5-0.6,1.1-0.9,1.5c-1.1,1.1-1.9,2.1-2.6,3
		c-1.8,2.3-3.3,5.3-3.8,8.3c-0.4,1.4-0.8,2.8-1.1,4.3c-0.4,2.4-0.7,5.6,0,8.1c-0.2,2.2-0.3,4.6,0.4,6.6c0.4,12.3,9.8,22.7,19.2,30.6
		c22.4,18.4,52.9,24.8,82.1,27.4c5.3,0.5,10.4,0.7,15.6,0.3c5.3,0.5,10.5,0.3,15.6-0.1c29.3-2.3,60.1-8.3,83.1-26.4
		c9.8-7.7,19.5-18,20.3-30.3C239.8,142.1,239.5,138.6,239.1,136z M235.6,151.1c-4.4,12.6-16.6,22.7-28.5,29.5
		c-12.2,7-25.8,11.9-39.7,15c-15.3,3.5-31.6,5.3-47.4,4.5c-0.1,0-0.1,0-0.2,0c-0.1,0-0.2,0-0.3,0c-0.1,0-0.2,0-0.2,0
		c-0.1,0-0.1,0-0.1,0c-15.8,0.4-31.9-1.5-47.1-5.1c-13.8-3.4-27.3-8.4-39.2-15.5c-11.7-7-23.4-17.2-27.4-29.8
		c-0.1-0.5-0.3-0.9-0.4-1.5c3.6,7.6,10,14.2,16.6,19.6c22.4,18.5,53,24.8,82.1,27.4c5.3,0.5,10.4,0.7,15.6,0.3
		c5.3,0.5,10.5,0.3,15.6-0.1c29.3-2.3,60.1-8.2,83.1-26.4c7.7-6.1,15.3-13.7,18.6-22.6C236.5,148.1,236.2,149.6,235.6,151.1z"/>
	<g>
		<path class="st1" d="M180.7,30.1c-2.8,4.6-4.9,9.7-6.2,14.9"/>
		<g>
			<path class="st1" d="M179.9,29.8c-2.8,4.7-4.9,9.8-6.3,15.1c-0.2,0.9,1.3,1.4,1.5,0.4c1.3-5.3,3.3-10.2,6.1-14.8
				C181.8,29.6,180.4,28.8,179.9,29.8L179.9,29.8z"/>
		</g>
	</g>
	<g>
		<path class="st1" d="M50.5,32.1c2.5,4.5,4.3,9.5,5.1,14.6"/>
		<g>
			<path class="st1" d="M49.9,32.5c2.4,4.5,4.1,9.3,5,14.4c0.2,0.9,1.7,0.5,1.5-0.4c-0.9-5.3-2.6-10.1-5.1-14.8
				C50.8,30.8,49.4,31.5,49.9,32.5L49.9,32.5z"/>
		</g>
	</g>
	<g>
		<path class="st1" d="M114,12.5c-0.7,4.9-1.1,10-0.8,15"/>
		<g>
			<path class="st1" d="M113.2,12.3c-0.7,5-1.1,10.1-0.8,15.2c0,1.1,1.6,1.1,1.6,0c-0.2-4.9,0.1-9.9,0.8-14.8
				C114.9,11.8,113.3,11.4,113.2,12.3L113.2,12.3z"/>
		</g>
	</g>
	<g>
		<path class="st1" d="M82.3,19c1.2,5.8,2.6,11.6,4.5,17.2"/>
		<g>
			<path class="st1" d="M81.5,19.3c1.2,5.8,2.6,11.6,4.5,17.2c0.3,0.9,1.8,0.5,1.5-0.4c-1.8-5.7-3.4-11.3-4.5-17.2
				C82.8,17.9,81.3,18.3,81.5,19.3L81.5,19.3z"/>
		</g>
	</g>
	<g>
		<path class="st1" d="M148.3,20.5c-0.5,3.2-1.3,6.3-2.1,9.3"/>
		<g>
			<path class="st1" d="M147.6,20.3c-0.6,3.2-1.3,6.3-2.1,9.3c-0.2,0.9,1.3,1.4,1.5,0.4c0.8-3,1.6-6.2,2.1-9.3
				C149.3,19.7,147.7,19.3,147.6,20.3L147.6,20.3z"/>
		</g>
	</g>
	<path class="st1" d="M187.2,109.8L187.2,109.8c-0.9-10.5-8.1-18.6-13.9-23.5c-7.6-6.4-16.8-11.2-27.4-14.4
		c-9.1-2.7-19.1-4.1-29.3-4.1c-6.5,0-13,0.5-19.4,1.7c-4.8,0.8-9.9,2.1-14.4,3.7c-9.9,3.4-17.7,8-23,13.5c-6.6,7-9,15.3-7.1,24.7
		c1.9,9.2,8.7,18,18.3,23.3l0,0c5.8,3.3,11.7,4.9,17.5,4.9c7.2,0,14.1-2.6,19.7-7.6c14.7-12.8,30.8-17.3,50.6-14.3
		c4.2,0.6,8.3,1.6,12.5,2.6c1.8,0.4,3.6,0.8,5.5,1.3c3.7,0.8,6.3,0.4,8.1-1.1C187.5,118.1,187.5,113.6,187.2,109.8z M183.3,118.7
		c-1.2,1.1-3.2,1.2-6.1,0.5c-1.8-0.4-3.7-0.8-5.5-1.3c-4.1-0.9-8.3-2-12.7-2.6c-20.4-3.2-37.5,1.8-52.5,14.8c-5.4,4.6-11.6,7-18.2,7
		c-5.4,0-10.9-1.6-16.4-4.6c-8.8-5-15.4-13.3-17.1-21.7c-1.8-8.7,0.3-16.2,6.5-22.7l0,0c4.9-5.3,12.6-9.7,22.1-12.9
		c4.4-1.5,9.3-2.7,14.1-3.6c6.2-1.1,12.6-1.7,19-1.7c10,0,19.8,1.4,28.6,4c10.3,3,19.2,7.8,26.6,14c4.5,3.9,12.2,11.8,13.1,21.9
		C185.2,114.6,184.7,117.4,183.3,118.7z"/>
	<g>
		<path class="st1" d="M200.1,113.4L200.1,113.4c0.5-12.5-5.3-24.9-16.3-35.2c-11.3-10.5-27.1-18-45.6-21.6
			c-6.3-1.3-13.4-1.9-21-1.9c-22.2,0-47.3,5.8-62.8,19c-10.6,9-15.6,20.4-15.2,33.7c0,2,0,4.1-0.1,6.2c-0.2,12.7-0.5,27.1,6.8,37.3
			c7.6,10.5,21.9,18.1,37.4,19.8c2.3,0.2,4.6,0.4,6.8,0.4c12.1,0,22.7-3.7,30.8-10.8c18.2-15.9,35.5-10.4,49.4-6
			c7.6,2.4,14.1,4.4,19.3,2.7c5.7-1.9,9.2-8.2,10.5-18.9c1.1-8.5,0.4-17.9,0.1-23.4l2.1-0.1l-2.1,0.1L200.1,113.4z M55.9,75.5
			C69.5,64,92.3,57.1,117,57.1c7.2,0,14.5,0.6,20.7,1.9c17.9,3.6,33.6,11,44.4,21.1c10.6,9.9,16.2,21.7,15.5,33.5
			c-0.1,3.5-0.8,6.9-2,10.4c-4.3,12.2-13.5,10-26.3,6.9c-14.5-3.5-34.4-8.2-54.4,9.2c-7.8,6.7-16.9,10.2-26.6,10.2
			c-5.9,0-12-1.3-18.1-3.9c-16.8-7.2-28.5-22.9-29-38.7C41.1,94.8,45.9,84,55.9,75.5z M198.2,132.3c-0.6,13.3-3.7,20.8-9.3,22.7
			c-4.5,1.5-10.7-0.4-17.9-2.7c-13.8-4.3-32.4-10.3-51.7,6.4c-7.7,6.7-17.9,10.2-29.3,10.2c-2.1,0-4.3-0.1-6.5-0.4
			c-14.8-1.7-28.6-8.9-35.7-18.9c-3.6-5-5.6-11.6-6.2-20.7l-0.6-8.6l4.5,7.4c5.5,9,14.1,16.4,24,20.7c7.7,3.4,16,4.6,23.7,3.8
			c8.7-0.9,16.6-4.5,23.4-10.5c19.1-16.7,37.5-12.3,52.4-8.7c6.7,1.6,12.4,2.9,17.3,2.3c3.4-0.5,6.1-1.9,8.2-4.4l4-4.7L198.2,132.3z
			"/>
		<path class="st1" d="M202.3,114.8L202.3,114.8L202.3,114.8z"/>
	</g>
	<g>
		<path class="st1" d="M192.8,133.2c1.4,5.1,2.1,10.4,2.3,15.8"/>
		<g>
			<path class="st1" d="M192.1,133.4c1.3,5.1,2,10.3,2.3,15.5c0,1.1,1.6,1.1,1.6,0c-0.2-5.4-1.1-10.7-2.3-16
				C193.4,132,191.8,132.3,192.1,133.4L192.1,133.4z"/>
		</g>
	</g>
	<g>
		<path class="st1" d="M189.7,134.8c1.1,6.2,1.9,12.5,2.6,18.8"/>
		<g>
			<path class="st1" d="M189,135c1.1,6.2,1.9,12.4,2.6,18.6c0.1,0.9,1.7,1.1,1.6,0c-0.7-6.4-1.7-12.7-2.7-19
				C190.3,133.5,188.8,133.9,189,135L189,135z"/>
		</g>
	</g>
	<g>
		<path class="st1" d="M185.8,135.3c0.1,6.8,0.7,13.5,1.7,20.3"/>
		<g>
			<path class="st1" d="M185,135.3c0.2,6.8,0.7,13.7,1.8,20.5c0.1,1.1,1.7,0.5,1.5-0.4c-0.9-6.6-1.6-13.3-1.7-20.1
				C186.5,134.2,185,134.2,185,135.3L185,135.3z"/>
		</g>
	</g>
	<g>
		<path class="st1" d="M181.4,135c-0.3,7.2,0.1,14.5,1.2,21.6"/>
		<g>
			<path class="st1" d="M180.5,135c-0.2,7.4,0.2,14.6,1.3,21.8c0.1,1.1,1.7,0.5,1.5-0.4c-1.1-7.1-1.4-14.2-1.2-21.4
				C182.1,133.9,180.5,133.9,180.5,135L180.5,135z"/>
		</g>
	</g>
	<g>
		<path class="st1" d="M176.8,134.6c0,6.8,0,13.7,0,20.5"/>
		<g>
			<path class="st1" d="M175.9,134.6c0,6.8,0,13.7,0,20.5c0,1.1,1.6,1.1,1.6,0c0-6.8,0-13.7,0-20.5
				C177.5,133.5,175.9,133.5,175.9,134.6L175.9,134.6z"/>
		</g>
	</g>
	<g>
		<path class="st1" d="M195.8,129.5c0.3,3.3,0.9,6.5,1.8,9.7"/>
		<g>
			<path class="st1" d="M195,129.5c0.3,3.4,0.9,6.6,1.8,9.9c0.2,0.9,1.8,0.5,1.5-0.4c-0.8-3.2-1.5-6.3-1.8-9.5
				C196.5,128.5,194.9,128.5,195,129.5L195,129.5z"/>
		</g>
	</g>
	<g>
		<path class="st2" d="M78.1,151c-0.7,5.9,1.4,11.9,0.7,17.9"/>
		<g>
			<path class="st1" d="M77.3,151c-0.6,6,1.2,11.9,0.7,17.9c-0.1,1.1,1.5,1.1,1.6,0c0.4-6-1.4-11.9-0.7-17.9
				C79,150,77.4,150,77.3,151L77.3,151z"/>
		</g>
	</g>
	<g>
		<path class="st1" d="M81.2,151.7c0,5.7,0.1,11.3,0.1,16.9"/>
		<g>
			<path class="st1" d="M80.4,151.7c0,5.7,0.1,11.3,0.1,16.9c0,1.1,1.6,1.1,1.6,0c0-5.7-0.1-11.3-0.1-16.9
				C81.9,150.6,80.4,150.6,80.4,151.7L80.4,151.7z"/>
		</g>
	</g>
	<g>
		<path class="st1" d="M84.5,152c1.3,6.1,1.9,12.2,1.8,18.4c0-0.1,0-0.3,0-0.4"/>
		<g>
			<path class="st1" d="M83.7,152.2c1.3,6,1.8,12.1,1.8,18.2c0.5,0,1.1,0,1.6,0c0-0.1,0-0.3,0-0.4c-0.1-1.1-1.7-1.1-1.6,0
				c0,0.1,0,0.3,0,0.4c0.1,0.9,1.6,1.1,1.6,0c0-6.3-0.6-12.5-1.9-18.6C85,150.7,83.5,151.1,83.7,152.2L83.7,152.2z"/>
		</g>
	</g>
	<g>
		<path class="st1" d="M88.8,152.1c0.3,5.9,0.5,11.8,0.8,17.5"/>
		<g>
			<path class="st1" d="M87.9,152.1c0.3,5.9,0.5,11.8,0.8,17.5c0,1.1,1.6,1.1,1.6,0c-0.3-5.9-0.5-11.8-0.8-17.5
				C89.5,151,87.9,151,87.9,152.1L87.9,152.1z"/>
		</g>
	</g>
	<g>
		<path class="st1" d="M91.6,151.8c1.1,5.8,1.8,11.7,2.2,17.5c0,0.1,0.1,0.3,0.2,0.4c0.1,0,0.1-0.3,0-0.2"/>
		<g>
			<path class="st1" d="M90.9,152c0.6,3.8,1.3,7.5,1.7,11.2c0.2,2.1-0.1,5,0.9,6.8c0.2,0.4,0.9,0.5,1.3,0.2l0.1-0.1
				c0.3-0.4,0.3-0.9-0.2-1.3c0,0-0.1,0-0.1-0.1c-0.8-0.6-1.6,0.7-0.8,1.4c0,0,0.1,0,0.1,0.1c-0.1-0.4-0.1-0.8-0.2-1.3l-0.1,0.1
				c0.4,0.1,0.8,0.1,1.3,0.2c-0.7-1.3-0.4-4-0.6-5.4c-0.1-1.4-0.3-2.7-0.5-4.1c-0.3-2.7-0.8-5.6-1.3-8.3
				C92.2,150.6,90.7,151,90.9,152L90.9,152z"/>
		</g>
	</g>
	<g>
		<path class="st1" d="M96.8,151c0,6,0,11.9,0,17.9"/>
		<g>
			<path class="st1" d="M96,151c0,6,0,11.9,0,17.9c0,1.1,1.6,1.1,1.6,0c0-6,0-11.9,0-17.9C97.6,150,96,150,96,151L96,151z"/>
		</g>
	</g>
	<g>
		<path class="st1" d="M100.7,150c0,6.1,0.3,12.3,0.9,18.4"/>
		<g>
			<path class="st1" d="M100,150c0,6.1,0.3,12.3,0.9,18.4c0.1,1.1,1.7,1.1,1.6,0c-0.6-6.1-0.9-12.2-0.9-18.4
				C101.6,148.9,100,148.9,100,150L100,150z"/>
		</g>
	</g>
	<g>
		<path class="st1" d="M83.5,85.4c0.3,4.7,2.5,9,4.1,13.4c1.7,4.4,2.7,9.5,0.7,13.8"/>
		<g>
			<path class="st1" d="M82.7,85.4c1.1,9.1,8.3,17.6,4.9,27.1c-0.3,0.9,1.2,1.4,1.5,0.4c3.6-9.7-3.8-18.1-4.8-27.5
				C84.2,84.5,82.6,84.5,82.7,85.4L82.7,85.4z"/>
		</g>
	</g>
	<g>
		<path class="st1" d="M94.8,79.2c0.9,2.8,2.3,5.5,3.6,8.2c4.4,9.9,6,20.9,4.5,31.6"/>
		<g>
			<path class="st1" d="M94,79.4c2.2,6.2,5.5,11.9,7,18.4c1.7,6.9,1.9,14.1,0.9,21.2c-0.1,1.1,1.5,0.9,1.6,0
				c0.8-6.6,0.7-13.3-0.6-19.8c-1.5-7.2-4.9-13.2-7.5-20.2C95.2,78.1,93.7,78.5,94,79.4L94,79.4z"/>
		</g>
	</g>
	<g>
		<path class="st1" d="M110.5,76.4c1.3,6,4.1,11.4,6.5,17c2.4,5.6,4.3,11.7,3.4,17.6"/>
		<g>
			<path class="st1" d="M109.8,76.6c2.7,11.8,11.2,21.9,9.8,34.4c-0.1,1.1,1.5,0.9,1.6,0c1.5-12.7-7-23-9.9-34.9
				C111,75.1,109.6,75.5,109.8,76.6L109.8,76.6z"/>
		</g>
	</g>
	<g>
		<path class="st3" d="M135.8,81.2c0.4,2.5,1.5,4.9,2.3,7.4c2,5.4,3.2,10.9,3.5,16.6c0.1,1.8,0,3.8-1.4,4.9"/>
		<g>
			<path class="st4" d="M135.1,81.4c0.9,4.4,2.9,8.4,4.1,12.8c1.1,4.2,3.6,11.6,0.6,15.3c-0.6,0.8,0.5,1.9,1.2,1.2
				c2.3-3,1.6-6.8,1.1-10.4c-0.9-6.7-4-12.7-5.4-19.2C136.3,79.9,134.9,80.4,135.1,81.4L135.1,81.4z"/>
		</g>
	</g>
	<g>
		<path class="st5" d="M157.3,91.5c1.7,2.9,3,6.1,4.1,9.3c0.8,2.7,1.5,5.7,0.8,8.4"/>
		<g>
			<path class="st6" d="M156.6,91.9c2.7,4.9,5.9,11.3,4.8,17.1c-0.2,0.9,1.4,1.4,1.5,0.4c1.2-6.3-2-12.9-5-18.4
				C157.4,90.2,156.1,91.1,156.6,91.9L156.6,91.9z"/>
		</g>
	</g>
	<g>
		<path class="st7" d="M72.1,100c0.2,0.4,0.4,0.9,0.5,1.4c2.7,6.8,4,14.2,3.7,21.5"/>
		<g>
			<path class="st1" d="M71.3,100.2c2.9,7.2,4.4,14.8,4.2,22.7c0,1.1,1.6,1.1,1.6,0c0.2-8-1.3-15.6-4.3-23.1
				C72.4,98.9,70.9,99.3,71.3,100.2L71.3,100.2z"/>
		</g>
	</g>
	<g>
		<g>
			<g>
				<path class="st8" d="M131.3,145.2c-0.3,5.6-1.2,10.6,4.8,13c4.2,1.7,12.2,4,14.8-1.1c5.8-11.3-9-19.6-18.4-15.2
					c-0.9,0.4-0.1,1.8,0.8,1.4c3.7-1.7,9.1-1.2,12.7,0.9c3.8,2.3,6.4,8.6,3.4,12.6c-2.4,3.3-9.2,1.2-12.3,0
					c-5.5-2.1-4.4-6.9-4.1-11.7C133,144.2,131.4,144.2,131.3,145.2L131.3,145.2z"/>
			</g>
		</g>
		<g>
			<g>
				<path class="st8" d="M153.8,153.7c-2,3-1.9,9,0.5,11.9c2.6,3,9.1,3.7,12.6,2.2c3.7-1.5,4.3-7.4,3.2-10.6
					c-1.8-5-7.5-6.4-12.1-7.2c-0.9-0.2-1.4,1.4-0.4,1.5c3.4,0.6,7.1,1.3,9.6,3.8c1.6,1.6,2,3.6,1.9,5.7c-0.1,2.4-0.4,3.7-2.6,4.8
					c-2.6,1.4-7,1.4-9.7-0.3c-3-2-3.4-8.2-1.5-11C155.7,153.6,154.3,152.8,153.8,153.7L153.8,153.7z"/>
			</g>
		</g>
		<g>
			<g>
				<path class="st8" d="M139.2,147.2c-0.2,0.8,0.2,1.8,1.1,2c0.8,0.3,1.7-0.3,2-1.2c0.3-0.9-1.2-1.4-1.5-0.4l0,0v-0.1
					C141.1,146.6,139.5,146.2,139.2,147.2L139.2,147.2z"/>
			</g>
		</g>
		<g>
			<g>
				<path class="st8" d="M160.7,158.6c0.3,1.1,0.7,2.3,2,2.5c1.1,0.2,2.3-0.5,2.2-1.6c0-1.1-1.6-1.1-1.6,0c0,0.3,0,0,0,0
					c-0.1,0,0,0.1-0.1,0.1s-0.2,0-0.3-0.1c-0.4-0.2-0.5-0.9-0.6-1.4C162,157.1,160.4,157.5,160.7,158.6L160.7,158.6z"/>
			</g>
		</g>
		<g>
			<g>
				<path class="st8" d="M131.9,159.9c-2.1,0.5-2,3.6-1.9,5.4c0.2,2.8,1.3,5.8,3.2,7.9c3.3,3.7,11.4,6.7,15.6,2.7
					c4.4-4.1,1.3-11.8-2.7-14.7c-2.7-2.1-12.2-7.4-13.8-1.8c-0.3,0.9,1.3,1.4,1.5,0.4c1.1-3.7,10.7,2.1,12,3.2
					c3.5,3,5.8,10.5-0.1,12.7c-3.5,1.3-8.1-0.3-10.7-2.8c-1.5-1.4-2.5-3.3-3-5.1c-0.2-0.8-1.2-5.9,0.3-6.3
					C133.4,161.1,133,159.5,131.9,159.9L131.9,159.9z"/>
			</g>
		</g>
		<g>
			<g>
				<path class="st8" d="M139.8,165.8c-1.3-0.8-2.6,0.9-1.8,2.1c0.4,0.5,1.1,0.7,1.7,0.5c0.7-0.1,1.2-0.6,1.6-1.3
					c0.5-0.8-0.8-1.7-1.4-0.8c-0.2,0.3-0.3,0.3-0.5,0.5h-0.1c0,0,0.1,0.5-0.3,0.3C139.8,167.7,140.6,166.4,139.8,165.8L139.8,165.8z
					"/>
			</g>
		</g>
	</g>
</g>
<g class="st9">
	<path class="st0" d="M238.7,135.8c0-0.1,0-0.1,0-0.2c0.2-2,0-4.1-0.2-5.8c-0.2-1.5-0.5-2.8-0.9-4.3c-0.4-2.9-1.8-6-3.5-8.3
		c-0.6-0.9-1.5-2-2.5-3c-0.3-0.5-0.5-1.1-0.8-1.5c-0.6-0.7-1.4-1.5-2-2.1c-0.8-0.6-1.8-1.2-2.6-1.7c-1.7-1.6-3.8-2.9-5.7-4.2
		c-0.4-0.1-0.7-0.2-1.1-0.5c-1.8-1.5-3.7-2.8-5.7-4c-0.1-0.1-0.2-0.2-0.3-0.3c0,0-0.1,0-0.2-0.1c-0.3-0.1-10.6-6.5-10.9-6.6
		c0,0.4-0.1,0.7-0.4,1.1c-0.2,0.2-0.4,0.3-0.7,0.4c0.4,0.2,0.7,0.3,1.2,0.5c0.1,0.1,0.2,0.1,0.3,0.2c2.6,1.6,15.2,9.7,17.9,11.6
		c0.1,0.1,0.2,0.1,0.3,0.2c0.9,0.5,1.8,1.1,2.5,1.7c1.3,0.6,2.4,1.8,3.3,2.8c0.1,0.1,0.2,0.1,0.3,0.2c2.7,2.4,5.4,5,6.9,8.1
		c2.2,4.2,3,8.7,2.9,13.4c0,1.1-0.1,2.2-0.3,3.3c0,2.8-0.3,5.7-1.4,8.5c-4.4,12.6-16.6,22.7-28.5,29.5c-12.2,7-25.8,11.9-39.7,15
		c-15.3,3.5-31.6,5.3-47.4,4.5c-0.1,0-0.1,0-0.2,0c-0.1,0-0.2,0-0.3,0c-0.1,0-0.2,0-0.2,0h-0.1c-15.8,0.4-31.9-1.5-47.1-5.1
		c-13.8-3.4-27.3-8.4-39.2-15.5C20.7,166.5,9,156.3,5,143.6c-0.9-2.8-1.2-5.7-1.1-8.5c-0.2-1.1-0.2-2.1-0.2-3.3
		c0.1-4.6,1.2-9.2,3.5-13.3c1.7-3,4.4-5.7,7.2-8c0.1-0.1,0.2-0.1,0.3-0.2c0.8-0.9,2.1-2.1,3.4-2.7c0.8-0.6,1.7-1.2,2.6-1.7
		c0.1-0.1,0.2-0.1,0.3-0.2c1.2-0.8,16.1-6.5,17.2-7.2c-0.1-0.6-0.2-1.3-0.2-1.9c-0.7,0.5-15.2,5.9-16,6.4c-0.3,0.2-0.6,0.4-1.1,0.5
		c-2,1.2-4.1,2.5-5.9,4.1c-0.9,0.5-1.8,1.2-2.7,1.7c-0.7,0.7-1.4,1.4-2.1,2.1c-0.3,0.5-0.6,1.1-0.9,1.5c-1.1,1.1-1.9,2.1-2.6,3
		c-1.8,2.3-3.3,5.3-3.8,8.3c-0.4,1.4-0.8,2.8-1.1,4.3c-0.4,2.4-0.7,5.6,0,8.1c-0.2,2.2-0.3,4.6,0.4,6.6c0.4,12.3,9.8,22.7,19.2,30.6
		c22.4,18.4,52.9,24.8,82.1,27.4c5.3,0.5,10.4,0.7,15.6,0.3c5.3,0.5,10.5,0.3,15.6-0.1C164.3,199,195,193,218,175
		c9.8-7.7,19.5-18,20.3-30.3C239.4,141.8,239.1,138.3,238.7,135.8z M235.3,150.9c-4.4,12.6-16.6,22.7-28.5,29.5
		c-12.2,7-25.8,11.9-39.7,15c-15.3,3.5-31.6,5.3-47.4,4.5c-0.1,0-0.1,0-0.2,0s-0.2,0-0.3,0s-0.2,0-0.2,0c-0.1,0-0.1,0-0.1,0
		c-15.8,0.4-31.9-1.5-47.1-5.1c-13.8-3.4-27.3-8.4-39.2-15.5c-11.7-7-23.4-17.2-27.4-29.8c-0.1-0.5-0.3-0.9-0.4-1.5
		c3.6,7.6,10,14.2,16.6,19.6c22.4,18.5,53,24.8,82.1,27.4c5.3,0.5,10.4,0.7,15.6,0.3c5.3,0.5,10.5,0.3,15.6-0.1
		c29.3-2.3,60.1-8.2,83.1-26.4c7.7-6.1,15.3-13.7,18.6-22.6C236.2,147.8,235.8,149.4,235.3,150.9z"/>
	<g>
		<path class="st1" d="M180.2,29.9c-2.8,4.6-4.9,9.7-6.2,14.9"/>
		<g>
			<path class="st1" d="M179.6,29.4c-2.8,4.7-4.9,9.8-6.3,15.1c-0.2,0.9,1.3,1.4,1.5,0.4c1.3-5.3,3.3-10.2,6.1-14.8
				C181.5,29.3,180.1,28.6,179.6,29.4L179.6,29.4z"/>
		</g>
	</g>
	<g>
		<path class="st1" d="M50.2,31.7c2.5,4.5,4.3,9.5,5.1,14.6"/>
		<g>
			<path class="st1" d="M49.5,32.2c2.4,4.5,4.1,9.3,5,14.4c0.2,0.9,1.7,0.5,1.5-0.4c-0.9-5.3-2.6-10.1-5.1-14.8
				C50.4,30.5,49.1,31.3,49.5,32.2L49.5,32.2z"/>
		</g>
	</g>
	<g>
		<path class="st1" d="M113.6,12.3c-0.7,4.9-1.1,10-0.8,15"/>
		<g>
			<path class="st1" d="M112.8,12.1c-0.7,5-1.1,10.1-0.8,15.2c0,1.1,1.6,1.1,1.6,0c-0.2-4.9,0.1-9.9,0.8-14.8
				C114.5,11.5,113,11.1,112.8,12.1L112.8,12.1z"/>
		</g>
	</g>
	<g>
		<path class="st1" d="M81.8,18.8c1.2,5.8,2.6,11.6,4.5,17.2"/>
		<g>
			<path class="st1" d="M81.1,19c1.2,5.8,2.6,11.6,4.5,17.2c0.3,0.9,1.8,0.5,1.5-0.4c-1.8-5.7-3.4-11.3-4.5-17.2
				C82.5,17.6,80.9,18.1,81.1,19L81.1,19z"/>
		</g>
	</g>
	<g>
		<path class="st1" d="M147.9,20.2c-0.5,3.2-1.3,6.3-2.1,9.3"/>
		<g>
			<path class="st1" d="M147.2,20c-0.6,3.2-1.3,6.3-2.1,9.3c-0.2,0.9,1.3,1.4,1.5,0.4c0.8-3,1.6-6.2,2.1-9.3
				C148.8,19.5,147.4,19,147.2,20L147.2,20z"/>
		</g>
	</g>
	<path class="st0" d="M186.7,109.5L186.7,109.5c-0.9-10.5-8.1-18.6-13.9-23.5c-7.6-6.4-16.8-11.2-27.4-14.4
		c-9.1-2.7-19.1-4.1-29.3-4.1c-6.5,0-13,0.5-19.4,1.7c-4.8,0.8-9.9,2.1-14.4,3.7c-9.9,3.4-17.7,8-23,13.5c-6.6,7-9,15.3-7.1,24.7
		c1.9,9.2,8.7,18,18.3,23.3l0,0c5.8,3.3,11.7,4.9,17.5,4.9c7.2,0,14.1-2.6,19.7-7.6c14.7-12.8,30.8-17.3,50.6-14.3
		c4.2,0.6,8.3,1.6,12.5,2.6c1.8,0.4,3.6,0.8,5.5,1.3c3.7,0.8,6.3,0.4,8.1-1.1C187.2,117.9,187.1,113.2,186.7,109.5z M182.9,118.5
		c-1.2,1.1-3.2,1.2-6.1,0.5c-1.8-0.4-3.7-0.8-5.5-1.3c-4.1-0.9-8.3-2-12.7-2.6c-20.4-3.2-37.5,1.8-52.5,14.8c-5.4,4.6-11.6,7-18.2,7
		c-5.4,0-10.9-1.6-16.4-4.6c-8.8-5-15.4-13.3-17.1-21.7c-1.8-8.7,0.3-16.2,6.5-22.7l0,0C65.9,82.7,73.5,78.3,83,75
		c4.4-1.5,9.3-2.7,14.1-3.6c6.2-1.1,12.6-1.7,19-1.7c10,0,19.8,1.4,28.6,4c10.3,3,19.2,7.8,26.6,14c4.5,3.9,12.2,11.8,13.1,21.9
		C184.9,114.4,184.3,117.1,182.9,118.5z"/>
	<g>
		<path class="st0" d="M199.8,113.1L199.8,113.1c0.5-12.5-5.4-24.9-16.4-35.1c-11.3-10.5-27.1-18-45.6-21.6
			c-6.3-1.3-13.4-1.9-21-1.9c-22.2,0-47.3,5.8-62.8,19c-10.5,8.9-15.6,20.3-15.2,33.7c0,2,0,4.1-0.1,6.2
			c-0.2,12.7-0.5,27.1,6.8,37.3c7.6,10.5,21.9,18.1,37.4,19.8c2.3,0.2,4.6,0.4,6.8,0.4c12.1,0,22.7-3.7,30.8-10.8
			c18.2-15.9,35.5-10.4,49.4-6c7.6,2.4,14.1,4.4,19.3,2.7c5.7-1.9,9.2-8.2,10.5-18.9c1.1-8.5,0.4-17.9,0.1-23.4l2.1-0.1l-2.1,0.1
			V113.1z M55.6,75.2C69.1,63.7,92,56.7,116.7,56.7c7.2,0,14.5,0.6,20.7,1.9c17.9,3.6,33.6,11,44.4,21.1
			c10.6,9.9,16.2,21.7,15.5,33.5c-0.1,3.5-0.8,6.9-2,10.4c-4.3,12.2-13.5,10-26.3,6.9c-14.5-3.5-34.4-8.2-54.4,9.2
			c-7.8,6.7-16.9,10.2-26.6,10.2c-5.9,0-12-1.3-18.1-3.9c-16.8-7.2-28.5-22.9-29-38.7C40.7,94.5,45.6,83.7,55.6,75.2z M197.9,132
			c-0.6,13.3-3.7,20.8-9.3,22.7c-4.5,1.5-10.7-0.4-17.9-2.7c-13.8-4.3-32.4-10.3-51.7,6.4c-7.7,6.7-17.9,10.2-29.3,10.2
			c-2.1,0-4.3-0.1-6.5-0.4c-14.8-1.7-28.6-8.9-35.7-18.9c-3.6-5-5.6-11.6-6.2-20.7l-0.6-8.6l4.5,7.4c5.5,9,14.1,16.4,24,20.7
			c7.7,3.4,16,4.6,23.7,3.8c8.7-0.9,16.6-4.5,23.4-10.5c19.1-16.7,37.5-12.3,52.4-8.7c6.7,1.6,12.4,2.9,17.3,2.3
			c3.4-0.5,6.1-1.9,8.2-4.4l4-4.7L197.9,132z"/>
		<path class="st0" d="M202,114.5L202,114.5L202,114.5z"/>
	</g>
	<g>
		<path class="st1" d="M192.4,132.9c1.4,5.1,2.1,10.4,2.3,15.8"/>
		<g>
			<path class="st1" d="M191.7,133.1c1.3,5.1,2,10.3,2.3,15.5c0,1.1,1.6,1.1,1.6,0c-0.2-5.4-1.1-10.7-2.3-16
				C192.9,131.7,191.5,132.1,191.7,133.1L191.7,133.1z"/>
		</g>
	</g>
	<g>
		<path class="st1" d="M189.4,134.4c1.1,6.2,1.9,12.5,2.6,18.8"/>
		<g>
			<path class="st1" d="M188.6,134.7c1.1,6.2,1.9,12.4,2.6,18.6c0.1,0.9,1.7,1.1,1.6,0c-0.7-6.4-1.7-12.7-2.7-19
				C190,133.3,188.4,133.7,188.6,134.7L188.6,134.7z"/>
		</g>
	</g>
	<g>
		<path class="st1" d="M185.4,135c0.1,6.8,0.7,13.5,1.7,20.3"/>
		<g>
			<path class="st1" d="M184.6,135c0.2,6.8,0.7,13.7,1.8,20.5c0.1,1.1,1.7,0.5,1.5-0.4c-0.9-6.6-1.6-13.3-1.7-20.1
				C186.2,133.9,184.6,133.9,184.6,135L184.6,135z"/>
		</g>
	</g>
	<g>
		<path class="st1" d="M181,134.8c-0.3,7.2,0.1,14.5,1.2,21.6"/>
		<g>
			<path class="st1" d="M180.2,134.8c-0.2,7.4,0.2,14.6,1.3,21.8c0.1,1.1,1.7,0.5,1.5-0.4c-1.1-7.1-1.4-14.2-1.2-21.4
				C181.8,133.7,180.2,133.7,180.2,134.8L180.2,134.8z"/>
		</g>
	</g>
	<g>
		<path class="st1" d="M176.3,134.2c0,6.8,0,13.7,0,20.5"/>
		<g>
			<path class="st1" d="M175.6,134.2c0,6.8,0,13.7,0,20.5c0,1.1,1.6,1.1,1.6,0c0-6.8,0-13.7,0-20.5
				C177.2,133.3,175.6,133.3,175.6,134.2L175.6,134.2z"/>
		</g>
	</g>
	<g>
		<path class="st1" d="M195.5,129.2c0.3,3.3,0.9,6.5,1.8,9.7"/>
		<g>
			<path class="st1" d="M194.6,129.2c0.3,3.4,0.9,6.6,1.8,9.9c0.2,0.9,1.8,0.5,1.5-0.4c-0.8-3.2-1.5-6.3-1.8-9.5
				C196.1,128.3,194.5,128.1,194.6,129.2L194.6,129.2z"/>
		</g>
	</g>
	<g>
		<path class="st1" d="M77.7,150.7c-0.7,5.9,1.4,11.9,0.7,17.9"/>
		<g>
			<path class="st1" d="M76.9,150.7c-0.6,6,1.2,11.9,0.7,17.9c-0.1,1.1,1.5,1.1,1.6,0c0.4-6-1.4-11.9-0.7-17.9
				C78.6,149.7,77,149.8,76.9,150.7L76.9,150.7z"/>
		</g>
	</g>
	<g>
		<path class="st1" d="M80.8,151.4c0,5.7,0.1,11.3,0.1,16.9"/>
		<g>
			<path class="st1" d="M80.1,151.4c0,5.7,0.1,11.3,0.1,16.9c0,1.1,1.6,1.1,1.6,0c0-5.7-0.1-11.3-0.1-16.9
				C81.6,150.4,80.1,150.4,80.1,151.4L80.1,151.4z"/>
		</g>
	</g>
	<g>
		<path class="st1" d="M84.2,151.7c1.3,6.1,1.9,12.2,1.8,18.4c0-0.1,0-0.3,0-0.4"/>
		<g>
			<path class="st1" d="M83.3,151.9c1.3,6,1.8,12.1,1.8,18.2c0.5,0,1.1,0,1.6,0c0-0.1,0-0.3,0-0.4c-0.1-1.1-1.7-1.1-1.6,0
				c0,0.1,0,0.3,0,0.4c0.1,0.9,1.6,1.1,1.6,0c0-6.3-0.6-12.5-1.9-18.6C84.7,150.5,83.1,150.9,83.3,151.9L83.3,151.9z"/>
		</g>
	</g>
	<g>
		<path class="st1" d="M88.4,151.8c0.3,5.9,0.5,11.8,0.8,17.5"/>
		<g>
			<path class="st1" d="M87.6,151.8c0.3,5.9,0.5,11.8,0.8,17.5c0,1.1,1.6,1.1,1.6,0c-0.3-5.9-0.5-11.8-0.8-17.5
				C89.1,150.7,87.5,150.7,87.6,151.8L87.6,151.8z"/>
		</g>
	</g>
	<g>
		<path class="st1" d="M91.3,151.6c1.1,5.8,1.8,11.7,2.2,17.5c0,0.1,0.1,0.3,0.2,0.4c0.1,0,0.1-0.3,0-0.2"/>
		<g>
			<path class="st1" d="M90.5,151.8c0.6,3.8,1.3,7.5,1.7,11.2c0.2,2.1-0.1,5,0.9,6.8c0.2,0.4,0.9,0.5,1.3,0.2l0.1-0.1
				c0.3-0.4,0.3-0.9-0.2-1.3c0,0-0.1,0-0.1-0.1c-0.8-0.6-1.6,0.7-0.8,1.4c0,0,0.1,0,0.1,0.1c-0.1-0.4-0.1-0.8-0.2-1.3l-0.1,0.1
				c0.4,0.1,0.8,0.1,1.3,0.2c-0.7-1.3-0.4-4-0.6-5.4c-0.1-1.4-0.3-2.7-0.5-4.1c-0.3-2.7-0.8-5.6-1.3-8.3
				C91.8,150.3,90.3,150.7,90.5,151.8L90.5,151.8z"/>
		</g>
	</g>
	<g>
		<path class="st1" d="M96.4,150.7c0,6,0,11.9,0,17.9"/>
		<g>
			<path class="st1" d="M95.6,150.7c0,6,0,11.9,0,17.9c0,1.1,1.6,1.1,1.6,0c0-6,0-11.9,0-17.9C97.2,149.7,95.6,149.7,95.6,150.7
				L95.6,150.7z"/>
		</g>
	</g>
	<g>
		<path class="st1" d="M100.4,149.7c0,6.1,0.3,12.3,0.9,18.4"/>
		<g>
			<path class="st1" d="M99.6,149.7c0,6.1,0.3,12.3,0.9,18.4c0.1,1.1,1.7,1.1,1.6,0c-0.6-6.1-0.9-12.2-0.9-18.4
				C101.2,148.6,99.6,148.6,99.6,149.7L99.6,149.7z"/>
		</g>
	</g>
	<g>
		<path class="st1" d="M83.1,85.2c0.3,4.7,2.5,9,4.1,13.4c1.7,4.4,2.7,9.5,0.7,13.8"/>
		<g>
			<path class="st1" d="M82.4,85.2c1.1,9.1,8.3,17.6,4.9,27.1c-0.3,0.9,1.2,1.4,1.5,0.4c3.6-9.7-3.8-18.1-4.8-27.5
				C83.8,84.1,82.3,84.1,82.4,85.2L82.4,85.2z"/>
		</g>
	</g>
	<g>
		<path class="st1" d="M94.4,78.9c0.9,2.8,2.3,5.5,3.6,8.2c4.4,9.9,6,20.9,4.5,31.6"/>
		<g>
			<path class="st1" d="M93.6,79.1c2.2,6.2,5.5,11.9,7,18.4c1.7,6.9,1.9,14.1,0.9,21.2c-0.1,1.1,1.5,0.9,1.6,0
				c0.8-6.6,0.7-13.3-0.6-19.8c-1.5-7.2-4.9-13.2-7.5-20.2C94.9,77.7,93.3,78.2,93.6,79.1L93.6,79.1z"/>
		</g>
	</g>
	<g>
		<path class="st1" d="M110.2,76.1c1.3,6,4.1,11.4,6.5,17c2.4,5.6,4.3,11.7,3.4,17.6"/>
		<g>
			<path class="st1" d="M109.5,76.3c2.7,11.8,11.2,21.9,9.8,34.4c-0.1,1.1,1.5,0.9,1.6,0c1.5-12.7-7-23-9.9-34.9
				C110.7,74.9,109.1,75.3,109.5,76.3L109.5,76.3z"/>
		</g>
	</g>
	<g>
		<path class="st1" d="M135.5,80.9c0.4,2.5,1.5,4.9,2.3,7.4c2,5.4,3.2,10.9,3.5,16.6c0.1,1.8,0,3.8-1.4,4.9"/>
		<g>
			<path class="st1" d="M134.8,81.1c0.9,4.4,2.9,8.4,4.1,12.8c1.1,4.2,3.6,11.6,0.6,15.3c-0.6,0.8,0.5,1.9,1.2,1.2
				c2.3-3,1.6-6.8,1.1-10.4c-0.9-6.7-4-12.7-5.4-19.2C136,79.7,134.6,80.2,134.8,81.1L134.8,81.1z"/>
		</g>
	</g>
	<g>
		<path class="st1" d="M156.9,91.3c1.7,2.9,3,6.1,4.1,9.3c0.8,2.7,1.5,5.7,0.8,8.4"/>
		<g>
			<path class="st1" d="M156.3,91.6c2.7,4.9,5.9,11.3,4.8,17.1c-0.2,0.9,1.4,1.4,1.5,0.4c1.2-6.3-2-12.9-5-18.4
				C157.1,89.9,155.8,90.8,156.3,91.6L156.3,91.6z"/>
		</g>
	</g>
	<g>
		<path class="st1" d="M71.7,99.8c0.2,0.4,0.4,0.9,0.5,1.4c2.7,6.8,4,14.2,3.7,21.5"/>
		<g>
			<path class="st1" d="M70.9,100c2.9,7.2,4.4,14.8,4.2,22.7c0,1.1,1.6,1.1,1.6,0c0.2-8-1.3-15.6-4.3-23.1
				C72.1,98.6,70.5,99.1,70.9,100L70.9,100z"/>
		</g>
	</g>
	<g>
		<g>
			<g>
				<path class="st1" d="M131,144.9c-0.3,5.6-1.2,10.6,4.8,13c4.2,1.7,12.2,4,14.8-1.1c5.8-11.3-9-19.6-18.4-15.2
					c-0.9,0.4-0.1,1.8,0.8,1.4c3.7-1.7,9.1-1.2,12.7,0.9c3.8,2.3,6.4,8.6,3.4,12.6c-2.4,3.3-9.2,1.2-12.3,0
					c-5.5-2.1-4.4-6.9-4.1-11.7C132.6,143.9,131,143.9,131,144.9L131,144.9z"/>
			</g>
		</g>
		<g>
			<g>
				<path class="st1" d="M153.4,153.3c-2,3-1.9,9,0.5,11.9c2.6,3,9.1,3.7,12.6,2.2c3.7-1.5,4.3-7.4,3.2-10.6
					c-1.8-5-7.5-6.4-12.1-7.2c-0.9-0.2-1.4,1.4-0.4,1.5c3.4,0.6,7.1,1.3,9.6,3.8c1.6,1.6,2,3.6,1.9,5.7c-0.1,2.4-0.4,3.7-2.6,4.8
					c-2.6,1.4-7,1.4-9.7-0.3c-3-2-3.4-8.2-1.5-11C155.3,153.3,154,152.5,153.4,153.3L153.4,153.3z"/>
			</g>
		</g>
		<g>
			<g>
				<path class="st1" d="M138.9,146.8c-0.2,0.8,0.2,1.8,1.1,2c0.8,0.3,1.7-0.3,2-1.2c0.3-0.9-1.2-1.4-1.5-0.4l0,0v-0.1
					C140.6,146.3,139.2,145.9,138.9,146.8L138.9,146.8z"/>
			</g>
		</g>
		<g>
			<g>
				<path class="st1" d="M160.3,158.3c0.3,1.1,0.7,2.3,2,2.5c1.1,0.2,2.3-0.5,2.2-1.6c0-1.1-1.6-1.1-1.6,0c0,0.3,0,0,0,0
					c-0.1,0,0,0.1-0.1,0.1s-0.2,0-0.3-0.1c-0.4-0.2-0.5-0.9-0.6-1.4C161.5,156.9,160.1,157.3,160.3,158.3L160.3,158.3z"/>
			</g>
		</g>
		<g>
			<g>
				<path class="st1" d="M131.6,159.5c-2.1,0.5-2,3.6-1.9,5.4c0.2,2.8,1.3,5.8,3.2,7.9c3.3,3.7,11.4,6.7,15.6,2.7
					c4.4-4.1,1.3-11.8-2.7-14.7c-2.7-2.1-12.2-7.4-13.8-1.8c-0.3,0.9,1.3,1.4,1.5,0.4c1.1-3.7,10.7,2.1,12,3.2
					c3.5,3,5.8,10.5-0.1,12.7c-3.5,1.3-8.1-0.3-10.7-2.8c-1.5-1.4-2.5-3.3-3-5.1c-0.2-0.8-1.2-5.9,0.3-6.3
					C133,160.8,132.6,159.3,131.6,159.5L131.6,159.5z"/>
			</g>
		</g>
		<g>
			<g>
				<path class="st1" d="M139.5,165.5c-1.3-0.8-2.6,0.9-1.8,2.1c0.4,0.5,1.1,0.7,1.7,0.5c0.7-0.1,1.2-0.6,1.6-1.3
					c0.5-0.8-0.8-1.7-1.4-0.8c-0.2,0.3-0.3,0.3-0.5,0.5H139c0,0,0.1,0.5-0.3,0.3C139.5,167.4,140.2,166.1,139.5,165.5L139.5,165.5z"
					/>
			</g>
		</g>
	</g>
</g>
</svg>
