<?xml version="1.0" encoding="utf-8"?>
<!-- Generator: Adobe Illustrator 23.0.3, SVG Export Plug-In . SVG Version: 6.00 Build 0)  -->
<svg version="1.1" id="Layer_2" xmlns="http://www.w3.org/2000/svg" xmlns:xlink="http://www.w3.org/1999/xlink" x="0px" y="0px"
	 viewBox="0 0 55.4 36.4" style="enable-background:new 0 0 55.4 36.4;" xml:space="preserve">
<style type="text/css">
	.st0{fill:#302148;}
</style>
<path class="st0" d="M11.8,16.2c-2.7-0.5-8,1.4-6.4,5.5c0.8,2.1,2.9,2.4,4.7,2.2c2.4-0.3,4.8-1.8,7.2-1.6c2,0.2,3.6,1.6,5.5,2.4
	c1.4,0.5,3.3,0.9,4.2-0.6c0-0.1-0.1-0.2-0.1-0.1c-1.2,1.7-3.4,0.8-4.9,0c-0.3-0.1-0.5-0.3-0.8-0.4c0.7,0.3,1.5,0.5,2.2,0.5
	c1.2,0.1,2.5-0.3,3.5-1c0.1-0.1,0-0.3-0.1-0.2c-1.1,0.6-2.3,1-3.5,1c-1.2-0.1-2.4-0.6-3.5-1.1c-1-0.5-2.1-1-3.1-1.2
	c-1-0.2-2-0.2-3,0.2c-2,0.7-3.8,2.3-5.9,1c-0.8-0.5-1.4-1.4-1.5-2.4c0-1.2,0.8-2.1,1.8-2.6c1.1-0.7,2.6-1,3.8-0.9
	c0.1,0,0.1-0.1,0-0.1c-1.9-0.2-4.1,0.3-5.3,2.1c-1,1.5-0.3,3.3,1,4.3c1.8,1.1,3.6,0.1,5.3-0.6c1.1-0.5,2.2-0.8,3.4-0.6
	c0.8,0.2,1.7,0.5,2.4,0.8c-0.7-0.2-1.6-0.4-2.4-0.3c-1.2,0.1-2.4,0.5-3.5,0.9c-1.2,0.4-2.5,0.7-3.7,0.6c-1,0-2-0.3-2.7-1.1
	c-0.7-0.9-1-2-0.9-3c0.2-1.5,1.5-2.3,2.6-2.8c1.2-0.5,2.6-0.6,3.9-0.6l0,0c0.1,0.2,0.1,0.3,0.2,0.5l0,0c-1.1,0.1-2.3,0.1-3.3,0.5
	c-0.8,0.3-1.6,0.9-1.8,1.9C6.5,20.9,8.1,22,9.3,22c2.1,0.1,3.8-1.7,6-1.6c1.2,0,2.5,0.5,3.6,1.1c0.5,0.2,1,0.5,1.6,0.7
	c0.6,0.2,1.1,0.4,1.8,0.5c1.2,0.2,2.6,0.1,3.7-0.5c0.1-0.1,0-0.2-0.1-0.2c-1.2,0.4-2.3,0.6-3.5,0.4c-1.1-0.2-2.2-0.7-3.1-1.1
	c1.6,0.6,3.3,1,4.9,0.4c0.2-0.1,0.4-0.2,0.6-0.4c0.1-0.1,0-0.2-0.1-0.2c-1.6,0.8-3.5,0.6-5.1,0c-1-0.4-2-0.9-3-1.1
	c-0.9-0.2-2-0.1-2.9,0.1c-1,0.2-2.1,0.4-3.1,0.5c-0.5,0-1.4-0.1-1.8-0.6c-0.5-0.6,0.7-1.7,1.1-2c0.7-0.5,1.7-0.9,2.5-0.7
	c0,0,0.1-0.1,0-0.1c-0.8-0.2-1.6,0.1-2.3,0.5c-0.8,0.4-1.8,1-1.9,1.9c-0.1,0.6,0.3,0.9,0.7,1.1c0.7,0.3,1.5,0.2,2.2,0.1
	c1.4-0.2,2.6-0.5,3.9-0.6c0.9,0,1.8,0.2,2.5,0.5c-0.6-0.2-1.4-0.4-2.1-0.5c-1-0.1-2,0.2-3,0.6c-1.6,0.7-4.3,2-5.3-0.4
	c-0.4-1,0.1-2,0.8-2.5c1-0.8,2.3-0.7,3.4-0.9c0.2,0,0.3-0.1,0.5-0.1c0,0,0,0,0-0.1c0.1,0.2,0.3,0.4,0.5,0.6c1,1.2,2.9,1.8,4.4,1.6
	c0.6-0.1,1.4-0.3,2-0.6c0,0,0,0.1,0.1,0.1c1.2,0.2,2.6,0.4,3.8,0.8c1,0.4,2,1,2.8,1.8c1.7,1.5,2.8,3.3,4.4,4.9
	c0.7,0.7,1.6,1.5,2.6,1.9c0.7,0.3,1.6,0.4,2.4,0.5c1.7,0.2,3.4-0.1,5.1-0.6c2.9-0.9,6.2-3.4,6-7.3c-0.1-1.8-1-3.3-2.5-3.9
	c-1.1-0.5-2.3-0.2-3.5,0.2c2.1-1.4,3.8-3.5,3.1-6.3c-0.6-1.9-2.7-2.8-4.4-2.9c-2.2-0.2-4.6,0.7-6.6,1.6c-0.5,0.2-0.9,0.3-1.4,0.5
	c-1.4-1.2-3-2.5-4.8-2.5c-1.2,0-2.6,0.4-3.6,1.1c-1,0.7-1.5,2-0.8,3.1c0.7,1.4,2.4,1,3.4,0.8c0.1,0,0.2,0,0.2-0.1
	c0.6-0.1,1.2-0.3,1.8-0.5c0.7-0.3,1.4-0.6,2.1-0.9c0.1-0.1,0.3-0.1,0.4-0.2c0.4-0.2,0.8-0.4,1.4-0.5c0.1,0.1,0.1,0.1,0.2,0.2
	c0.1,0.1,0.2-0.1,0.1-0.1L31,9.8c1.8-0.7,3.6-1.5,5.5-1.9c2.1-0.4,4.7-0.3,6,1.8c1,1.7,0.4,4.1-0.8,5.4c-2.8,3.3-7.5,3.5-11.2,2.6
	c-0.6-0.1-1.1-0.3-1.8-0.5c0.4,0.1,0.8,0.2,1.2,0.2c1.5,0.2,2.9,0.3,4.4,0.3c2.8-0.1,6.2-0.7,7.7-3.5c0.3-0.6,0.6-1.5,0.5-2.2
	c-0.1-0.6-0.4-1.2-0.8-1.7c-1-0.9-2.5-1.2-3.8-1.4c-2.4-0.1-4.6,1-6.8,1.9c-0.8,0.3-1.8,0.6-2.6,0.9c-1.2,0.4-2.5,0.8-3.7,1.1
	c-1.1,0.2-2.4,0.4-3.4,0.1c-0.8-0.3-1.2-1-1.2-2c0-1.4,0.7-2.3,1.8-2.9C23.1,7.5,24.3,7,25.6,7C26.8,6.9,28.1,7.1,29,8
	c0.1,0.1,0.2,0,0.1-0.1c-0.9-0.9-2.3-1-3.5-0.9c-1.4,0.1-2.8,0.5-4.1,1.4c-1,0.7-1.7,1.9-1.6,3.2c0,1,0.6,1.8,1.5,2
	c1,0.3,2.2,0.2,3.2,0c1.2-0.2,2.6-0.6,3.8-1.1c0.9-0.3,1.8-0.7,2.7-0.9c2.3-0.6,4.4-1.9,6.6-1.9c1.4,0,3,0.4,4.1,1.6
	c1.1,1.2,0.2,3.2-0.7,4.3c-1,1.2-2.6,1.8-4.1,2.1c-1.6,0.3-3.2,0.3-4.8,0.2c-1.6-0.1-3.1-0.3-4.6-0.7c-0.5-0.2-1.1-0.4-1.7-0.6
	c-0.7-0.3-1.5-0.7-2.1-1.1c0,0-0.1,0-0.1-0.1c-0.7-0.4-1.5-0.9-2.2-1.4c-1.8-1-3.7-2.2-5.7-2.3c-1.5-0.1-3.1,0.4-3.9,1.9
	C11.4,13.9,11.4,15.1,11.8,16.2z M22.1,11.7c-0.5-0.4-0.8-1.4-0.6-2.1c0.2-0.7,0.7-1.1,1.2-1.5c1.1-0.6,2.5-1,3.7-0.8
	c0.7,0.1,1.5,0.4,2.1,0.7C28.3,8,28,8,27.8,8c-0.8-0.1-1.7-0.3-2.5-0.4c-1.4,0-2.9,0.7-3.4,2.3c-0.2,0.7,0.2,1.4,0.6,1.8
	c0.4,0.3,0.9,0.5,1.4,0.5C23.4,12.2,22.6,12.1,22.1,11.7z M29.6,10.1c-0.2,0.1-0.5,0.2-0.7,0.3c-0.8,0.3-1.6,0.7-2.4,1
	c-0.4,0.1-0.8,0.3-1.2,0.4c-0.5,0.1-1,0.1-1.6,0c-0.7-0.1-1.6-0.7-1.6-1.6c0-0.7,0.5-1.4,1-1.8c0.6-0.5,1.5-0.7,2.2-0.7
	s1.5,0.2,2.2,0.3C28,8.2,29,8.2,29.3,8.7h0.1c0-0.1-0.1-0.1-0.1-0.2c0.5,0.3,0.9,0.7,1.4,1.1C30.3,9.7,29.9,10,29.6,10.1z M25,20.4
	c-0.8-0.6-1.7-1.1-2.6-1.5c-0.3-0.1-0.5-0.2-0.8-0.2c0.9,0.1,1.9,0.4,2.7,1c0.5,0.3,0.9,0.7,1.4,1.1C25.4,20.9,25.2,20.6,25,20.4z
	 M25.8,20.6c-0.6-0.6-1.4-1.2-2.2-1.6c-0.8-0.4-1.7-0.6-2.6-0.6c-0.1,0-0.1,0.1-0.1,0.1c-0.5-0.1-1-0.2-1.6-0.3
	c0.2-0.1,0.4-0.2,0.6-0.2c1.1-0.4,2.3-0.5,3.5-0.4c2.5,0.3,4.6,2.1,7,2.7c1.1,0.3,2.3,0.4,3.3,0.2c1.1-0.2,2.2-0.7,3.2-1.4
	c1.9-1.1,3.8-2.5,6-1.7c0.8,0.3,1.6,0.9,2,1.9c0.4,0.9,0.2,2.1-0.1,3c-0.6,2-2.4,3.1-4.1,3.8c-3.5,1.5-7.8,0.6-10.9-1.7
	c-0.8-0.6-1.7-1.2-2.4-2C27,22,26.4,21.4,25.8,20.6z M21.6,13.7c0.7,0.4,1.4,0.7,2.1,1.1c0.3,0.2,0.6,0.4,0.9,0.5
	c0.8,0.5,1.8,0.9,2.7,1.2c3.1,1.4,6.4,2.2,9.8,1.5h0.1c-2.3,0.9-4.9,1.1-7.3,0.5c-1.1-0.3-2.3-0.8-3.3-1.4c-1-0.5-2.2-0.8-3.3-1
	c-2.1-0.3-4.1,1.1-6.1,1.5c-1,0.1-2-0.2-2.8-0.9c-0.7-0.6-1.1-1.7-0.8-2.7c0.3-1.1,1.5-1.9,2.4-2.1c1-0.2,2.1,0.1,3,0.4
	C19.8,12.7,20.8,13.2,21.6,13.7z M13.4,11.9c1-0.7,2.3-0.7,3.4-0.5c-1.4,0-2.7,0.5-3.4,1.9c-0.9,1.7,0.4,3.4,1.7,4.2
	c1.9,1,3.9-0.3,5.8-0.8c1.1-0.4,2.3-0.3,3.4,0c1.1,0.3,2.3,0.8,3.3,1.4c2.2,0.9,4.4,1.5,6.6,1.1c1.2-0.2,2.4-0.5,3.5-1
	c1-0.5,2.1-1,3.2-1.4c1.1-0.3,2.3-0.2,3.2,0.5c0.7,0.5,1.1,1.5,1.4,2.4c0.5,2-0.2,3.8-1.5,5.3c-1.2,1.4-2.8,2.3-4.5,2.8
	c-1.7,0.5-3.4,0.7-5.2,0.5c-0.8-0.1-1.7-0.3-2.5-0.6c-0.9-0.4-1.9-1.4-2.6-2.2c-0.8-0.9-1.6-1.9-2.3-2.8c1.5,1.5,2.9,2.8,4.7,3.6
	c3.4,1.8,8,1.9,11.2-0.5c1.5-1,2.4-2.7,2.6-4.6c0.2-1.9-1-3.2-2.5-3.7c-2.1-0.8-3.9,0.2-5.7,1.2c-1,0.6-2.1,1.2-3.2,1.6
	c-1.2,0.3-2.6,0.2-3.8-0.1c-2.4-0.6-4.5-2.3-6.9-2.7c-1.1-0.2-2.2-0.1-3.2,0.2c-1,0.3-2,0.7-3,1c-1.7,0.4-3.6-0.3-4.7-1.8
	c-0.6-0.8-0.7-1.8-0.5-2.8C12,13.2,12.7,12.4,13.4,11.9z M35.2,25.9c2,0.7,4.2,0.7,6.1-0.3c1.4-0.7,2.6-2,3.3-3.5
	c0.3-0.7,0.4-1.5,0.2-2.2c-0.2-0.8-0.8-1.5-1.5-1.9c-1.6-0.9-3.3-0.1-4.8,0.7c-1.8,1-3.3,2.4-5.4,2.6c-2.4,0.2-4.7-0.9-6.8-2.1
	c-0.6-0.3-1.2-0.7-1.9-0.9c-0.1,0-0.2,0.1-0.1,0.2c1.9,1.1,3.8,2.2,5.8,2.8c1,0.3,2.1,0.4,3.1,0.3c1-0.1,1.9-0.5,2.8-1
	c1.6-0.9,3.1-2.3,5-2.6c1-0.2,2,0.1,2.7,0.8c0.6,0.7,0.8,1.7,0.6,2.6c-0.4,1.7-1.9,3.1-3.1,3.8c-2,1.2-4.4,1-6.4,0.3
	c-0.6-0.2-1.4-0.5-2-0.9c0.1,0,0.1,0,0.2,0.1c2.1,0.6,4.5,0.4,6.5-0.2c0.9-0.2,1.8-0.7,2.5-1.4c0.5-0.5,1-1.5,0.9-2.3
	c-0.1-0.8-0.9-1.1-1.6-1.2c-0.8-0.1-1.8,0.2-2.5,0.6c-0.8,0.4-1.7,0.8-2.5,1.2c-1,0.5-2.1,0.7-3.1,0.7c-1.1,0-2.3-0.2-3.4-0.5
	C29,21.5,28,20.9,27,20.3c-0.1,0-0.2,0.1-0.1,0.2c1.9,1.4,4.3,2.2,6.4,2.1c1,0,2-0.2,2.9-0.5c0.9-0.4,1.8-0.9,2.7-1.4
	c0.8-0.4,1.9-0.8,2.8-0.6c0.5,0.1,1,0.3,1.2,0.8c0.2,0.5-0.1,1.1-0.3,1.6c-0.6,1-1.7,1.6-2.7,2c-1.1,0.4-2.3,0.5-3.4,0.6
	c-1.7,0.1-3.3-0.2-4.8-1c-0.4-0.3-0.8-0.5-1.2-0.8c0.6,0.3,1.4,0.4,2.1,0.5c1.5,0.6,3,0.9,4.7,0.7c1-0.1,2.1-0.4,3-0.9
	c0.6-0.3,1.6-0.9,1.7-1.8c0.1-0.8-0.7-0.9-1.2-0.9c-0.9,0.1-1.9,0.7-2.6,1.1c-0.5,0.3-0.9,0.6-1.5,0.8c-0.6,0.3-1.2,0.4-1.9,0.5
	c-0.8,0.1-1.7,0.1-2.5,0c-0.4-0.2-0.9-0.4-1.4-0.6c-0.1,0-0.1,0.1,0,0.1c0.2,0.1,0.5,0.3,0.7,0.4c-0.2,0-0.4-0.1-0.6-0.1
	c-0.3-0.1-0.6-0.2-0.9-0.2l0,0c-0.8-0.6-1.6-1.2-2.4-1.8l-0.1,0.1c0.5,0.3,0.9,0.7,1.4,1.1c-0.1-0.1-0.2-0.1-0.3-0.2
	c-2.1-1.5-4.2-2.8-6.4-4.1c-0.1,0-0.1,0.1,0,0.1c2.3,1.2,4.5,2.8,6.8,4.4C30.9,23.6,32.9,25.1,35.2,25.9z M35.6,23.1
	c0.9-0.2,1.8-0.7,2.6-1.2c0.8-0.5,1.8-1.1,2.8-1c0.6,0.1,0.6,0.6,0.3,1c-0.2,0.4-0.7,0.7-1.1,0.9c-0.8,0.5-1.9,0.8-2.9,0.9
	c-1.5,0.2-2.9,0-4.3-0.4C34,23.5,34.8,23.3,35.6,23.1z M25.5,8.3c-0.9,0.1-2.5,0-3,1.1c-0.2,0.5,0,1,0.4,1.4
	c0.4,0.3,1.1,0.3,1.7,0.3c0.6,0,1.2-0.2,1.9-0.4c0.5-0.2,1.1-0.3,1.7-0.5c0.5-0.2,1.1-0.3,1.7-0.6V9.4c-0.9,0.2-1.9,0.6-2.8,0.9
	c-0.6,0.2-1.2,0.4-1.9,0.5c-0.5,0.1-1.1,0.1-1.7,0c-0.5-0.1-1-0.7-0.7-1.4c0.2-0.5,0.9-0.6,1.4-0.7c0.5-0.1,1-0.1,1.6-0.2
	c0.9,0,1.8,0.1,2.7,0.4c0.6,0.2,1.4,0.3,1.8,0.8c0,0,0.1,0,0.1-0.1c-0.3-0.6-1.1-0.8-1.8-0.9C27.5,8.4,26.6,8.2,25.5,8.3z
	 M47.6,23.9c-0.1-0.1-0.2,0-0.3,0.1v0.1c0.1,0.1,0.2,0.2,0.3,0.2c-0.1,0.1-0.1,0.1-0.2,0.1c-0.1,0-0.1,0.2,0,0.2s0.1,0,0.1,0
	s0.1,0,0.1-0.1c0.1-0.1,0.2-0.2,0.2-0.4C47.8,24,47.7,23.9,47.6,23.9z M47.6,24.1C47.5,24.1,47.5,24.1,47.6,24.1
	C47.6,24,47.6,24.1,47.6,24.1L47.6,24.1z M23.3,13.6c1.7,1.2,3.7,1.9,5.7,2.3c0.8,0.2,1.7,0.3,2.5,0.3c1.7,0.2,3.3,0.2,4.9-0.2l0,0
	c1.2-0.2,2.6-0.5,3.7-1.2c1.1-0.6,2.3-1.8,1.7-3.3c-1.1-2.7-4.6-2.1-6.6-1.5c-1.7,0.4-3.3,0.9-4.9,1.5c-2,0.6-3.9,1.1-5.9,1.7l0,0
	c-0.1,0-0.2,0-0.3,0c-0.1,0-0.1,0.1-0.1,0.1c-0.1,0-0.2,0-0.2,0s-0.1,0-0.2,0c-0.1,0-0.1,0.1-0.1,0.1c0,0.1,0,0.1,0.1,0.1
	c0.1,0,0.2,0,0.2,0c1,0.3,2.1,0.8,3.1,1.2c1,0.4,2.2,0.7,3.3,0.9c1.1,0.2,2.4,0.3,3.5,0.2c0.7,0,1.6-0.1,2.3-0.3
	c1.1-0.4,2.3-1.2,3.1-2.2c0.3-0.3,0.5-0.8,0.4-1.2c-0.1-0.6-0.7-0.8-1.1-1c-0.9-0.3-2-0.1-2.8,0.1c-1,0.3-2.1,0.7-3.1,1
	c-1.2,0.4-2.6,0.5-3.8,0.7c-1,0.2-2.1,0.3-3.1,0.4l0,0c1.8-0.3,3.5-0.9,5.2-1.5c1.9-0.6,3.8-1.4,5.8-1.6c0.8-0.1,1.8-0.1,2.6,0.1
	c0.8,0.2,1.8,0.8,1.7,1.9c0,1-1.1,1.8-1.8,2.3c-0.7,0.5-1.6,0.9-2.5,1.2c-0.3,0.1-0.7,0.1-1,0.1c-1.4,0.2-2.8,0.2-4.2,0.1
	c-0.4-0.1-0.8-0.1-1.2-0.2c-2-0.4-3.8-1-5.7-1.8c-0.1,0-0.1,0.1-0.1,0.1c-0.3-0.2-0.7-0.3-1-0.5C23.3,13.4,23.3,13.6,23.3,13.6z
	 M32.1,12.5c2-0.4,3.9-1.8,6-1.5c0.5,0.1,1.5,0.4,1.4,1.2c-0.1,0.6-0.6,1.1-1,1.5c-1,0.9-2.3,1.6-3.6,1.8c-1.9,0.2-3.8,0-5.7-0.3
	c-1.5-0.3-2.7-0.9-4.1-1.5c1,0.2,2,0.5,2.9,0.8c1,0.3,2.1,0.5,3.2,0.6c1.1,0.1,2.2,0,3.3-0.1c0.5-0.1,1-0.2,1.6-0.4
	c0.5-0.2,2.4-1.1,1.9-2.1c-0.3-0.5-1.1-0.5-1.6-0.3c-0.4,0.1-0.8,0.3-1.1,0.5c-0.5,0.3-1.1,0.4-1.8,0.5c-0.7,0.1-1.6,0.1-2.3,0.1
	c-0.8,0-1.6,0-2.4,0c-0.4,0-0.9,0-1.4,0C28.9,13.2,30.4,12.9,32.1,12.5z M32,13.6c1,0,2.2-0.2,3.1-0.6c0.6-0.3,1.9-1,2.5-0.3
	c0.6,0.6-2.2,1.9-2.5,2.1c-0.8,0.3-1.9,0.2-2.7,0.3c-1.1,0-2.3-0.1-3.4-0.3c-1.1-0.3-2.3-0.7-3.4-1h0.1C27.7,13.8,29.8,13.6,32,13.6
	z M40.7,13.1c1-1.7-0.5-2.9-1.9-3.1c-0.8-0.1-1.7-0.1-2.5,0c0.3-0.1,0.6-0.1,0.9-0.2c1.7-0.2,4.1-0.1,4.6,2.1c0.5,1.8-1.9,2.8-3,3.2
	c-0.3,0.1-0.6,0.2-0.9,0.3C39,14.9,40,14.1,40.7,13.1z M28,15.4c-1.2-0.3-2.4-0.7-3.5-1.4C25.6,14.5,26.8,15,28,15.4z M15.4,12.4
	c-0.6,0.3-1.1,0.9-1.2,1.7c-0.1,0.7,0.2,1.5,0.7,1.9c0.8,0.6,1.8,0.7,2.8,0.7c1.1-0.1,2.3-0.4,3.4-0.5c1.4-0.2,2.6-0.2,3.8,0.1
	c0.1,0,0.1-0.1,0.1-0.2c-0.5-0.2-1-0.3-1.6-0.4c0,0,0.1-0.1,0-0.1c-0.6-0.8-1.5-1.1-2.3-1.5c-0.5-0.2-0.9-0.3-1.5-0.5
	s-1-0.5-1.6-0.8C17.2,12.3,16.3,12,15.4,12.4z M18.4,13.2c0.8,0.4,1.6,0.7,2.4,1c0.9,0.3,1.9,0.6,2.5,1.5l0,0
	c-1.5-0.1-3,0.3-4.4,0.5c-1,0.2-2,0.3-3,0.1c-0.7-0.2-1.6-0.8-1.6-1.8c-0.1-0.8,0.5-1.6,1.2-1.9C16.4,12.2,17.5,12.8,18.4,13.2z
	 M33.7,2.8C34,2.4,34.1,2,34.3,1.6c0-0.1,0-0.1-0.1-0.1C34,1.9,33.9,2.3,33.7,2.8C33.6,2.8,33.7,2.8,33.7,2.8z M49,23.9L49,23.9
	L49,23.9c-0.1,0-0.2,0-0.2,0.1c0,0.1,0,0.1,0.1,0.1H49l0,0c0,0,0,0,0.1,0C49.1,24,49.2,24,49,23.9C49.1,23.9,49.1,23.9,49,23.9z
	 M34.4,3.8C34.5,3.8,34.4,3.7,34.4,3.8c-0.1,0-0.2,0.1-0.3,0.2c-0.1,0.1-0.2,0.1-0.3,0.2v0.1C34.1,4.2,34.3,4,34.4,3.8z M34.2,6.8
	c0-0.3,0-0.6-0.1-0.8c0-0.1-0.1,0-0.1,0c0.2,0.4,0.1,0.8-0.1,1.2c0,0,0,0.1,0.1,0s0.1-0.2,0.2-0.3c0.4-0.4,0.6-1,0.6-1.7
	c0,0-0.1-0.1-0.1,0c0,0.3-0.1,0.6-0.2,0.9C34.5,6.5,34.3,6.7,34.2,6.8z M35.4,5.9c0.3-0.5,0.5-1,0.7-1.7c0,0,0-0.1-0.1,0
	C35.8,4.8,35.6,5.3,35.4,5.9L35.4,5.9z M35,6.5c0.4,0,0.8-0.3,1.2-0.3l0,0C35.8,6.2,35.4,6.5,35,6.5L35,6.5z M34.1,7.4
	C34.1,7.5,34.1,7.5,34.1,7.4C34.1,7.5,34.1,7.5,34.1,7.4c-0.2,0.2-0.4,0.4-0.5,0.6c0,0,0,0.1,0,0C33.6,7.9,33.9,7.7,34.1,7.4
	c0.5-0.4,1.1-0.4,1.7-0.6c0,0,0-0.1,0,0c-0.4,0.1-0.9,0.2-1.4,0.4c0.3-0.3,0.5-0.7,0.7-1l0,0c0.2,0,0.5,0,0.7-0.1c0,0,0,0,0.1,0l0,0
	c0.2,0,0.3-0.1,0.4-0.2V5.7c-0.1,0-0.2,0-0.3,0.1c0.1-0.1,0.1-0.3,0.2-0.4c0.3-0.1,0.6-0.1,0.8-0.3V5c-0.4,0.2-0.6,0.2-0.8,0.3
	c0.1-0.3,0.2-0.6,0.3-0.9c0-0.1-0.1-0.1-0.1,0c-0.1,0.3-0.2,0.7-0.4,1h-0.1c-0.1,0,0,0.1,0,0.1l0,0c0,0.1-0.1,0.2-0.1,0.4
	C35.6,6,35.4,6,35.1,6c0.2-0.3,0.4-0.6,0.5-0.9l0,0c-0.2,0.4-0.5,0.7-0.7,1.1c0.2-0.4,0.3-0.9,0.3-1.4c0,0,0,0-0.1,0
	c-0.1,0.7-0.4,1.2-0.5,1.9C34.4,6.9,34.3,7.1,34.1,7.4z M33.6,3.8C33.6,3.8,33.7,3.8,33.6,3.8c0.2,0,0.3-0.2,0.4-0.2
	c0.2-0.1,0.3-0.2,0.5-0.3V3.2c-0.2,0.1-0.3,0.2-0.5,0.3C34,3.5,33.7,3.6,33.6,3.8z M30.8,3.8c-0.2,0-0.4,0-0.6,0v0.1
	C30.3,3.8,30.6,3.9,30.8,3.8L30.8,3.8z M30.7,4C30.7,3.9,30.7,3.9,30.7,4c0,0.1,0.1,0.1,0.1,0.1l0,0C30.8,4,30.7,4,30.7,4z
	 M29.5,2.3c0.3,0.2,0.7,0.4,1,0.6c0,0,0.1,0,0.1-0.1c-0.2-0.3-0.6-0.5-1-0.6C29.5,2.2,29.4,2.3,29.5,2.3z M31.9,4.9V5
	c0,0.2,0.2,0.3,0.3,0.3c0,0,0.1,0,0.1-0.1c0.1-0.2,0.1-0.4,0-0.5c-0.1-0.2-0.3-0.2-0.5-0.1l-0.1,0.1C31.8,4.8,31.9,4.9,31.9,4.9z
	 M32.2,4.9L32.2,4.9c0.1,0.1,0,0.2,0,0.3c-0.1,0-0.1-0.1-0.1-0.1C32.1,5,32.2,4.9,32.2,4.9z M33.3,3.3L33.3,3.3
	c0-0.1-0.1-0.2-0.1-0.3s-0.1-0.2-0.1-0.3S33,2.6,33,2.7C33,2.9,33.1,3.2,33.3,3.3z M30.5,2.7L30.5,2.7c0.1,0.2,0.2,0.5,0.3,0.7h-0.1
	c0,0,0,0,0-0.1c-0.2-0.1-0.4-0.2-0.6-0.3c-0.2-0.1-0.4-0.2-0.6-0.2c-0.1,0-0.1,0.1,0,0.1c0.1,0,0.1,0,0.2,0.1c0,0,0,0,0.1,0.1l0,0
	l0,0c0.1,0,0.2,0.1,0.4,0.2c0.2,0.1,0.3,0.1,0.5,0.2c-0.2,0-0.3,0-0.4-0.1c-0.2-0.1-0.2-0.1-0.2,0c0.1,0.1,0.2,0.1,0.4,0.1
	c0.1,0,0.3,0,0.4,0c0.1,0.1,0.2,0.2,0.3,0.3l0,0v0.1c-0.3,0.2-0.6,0.4-0.7,0.7l0,0c-0.7,0.5-0.7,1.8-0.6,2.7
	c0.1,0.5,0.3,1.1,0.8,1.5c0.5,0.3,1,0.2,1.6-0.1c1-0.7,1.5-2.4,1.2-3.6c0-0.1,0-0.3-0.1-0.4c0.1-0.2,0.1-0.3,0.2-0.5
	c0,0,0.1,0,0.2,0.1c0,0,0,0,0-0.1L33.7,4c0-0.2,0.1-0.4,0.1-0.6l0,0C34,3.3,34.2,3.2,34.3,3c0.1-0.1,0.2-0.3,0.3-0.4
	c0,0,0-0.1-0.1,0c-0.1,0.2-0.2,0.3-0.3,0.4c-0.1,0.1-0.2,0.2-0.3,0.3c0-0.6-0.1-1.4-0.1-1.9l0,0V1.3c-0.5,0-0.6,0.3-0.5,0.5
	c0,0,0,0-0.1,0c0,0.1,0,0.2,0,0.2s0,0.1,0.1,0.1h0.1l0,0c0,0-0.1,0-0.1-0.1V2l0,0l0,0h0.1c0-0.2-0.1-0.4,0.1-0.5l0,0
	c0,0.6,0.1,1.1,0.1,1.8c0,0.3,0,0.5-0.1,0.8c-0.1-0.2-0.2-0.3-0.2-0.4h-0.1l0,0C33,3.5,33,3.4,33,3.4c0-0.1-0.1,0-0.1,0.1
	c0.1,0.2,0.2,0.3,0.3,0.4c0.1,0.1,0.1,0.2,0.2,0.3c0,0.1-0.1,0.3-0.1,0.4c-0.2-0.4-0.5-0.7-0.9-0.8c-0.3-0.1-0.6,0-0.9,0.2
	c0-0.1,0-0.2,0-0.2c0-0.2,0-0.5,0.1-0.7c0-0.1,0-0.1-0.1-0.1c-0.1,0.1-0.2,0.3-0.2,0.4c0,0.1,0,0.1,0,0.2c0,0.1,0,0.2,0,0.2
	c-0.1-0.2-0.2-0.3-0.3-0.4C31,3.1,31,2.7,31,2.3c0-0.1-0.1-0.1-0.1,0c0,0.3-0.1,0.6-0.1,0.9c-0.1-0.1-0.1-0.2-0.2-0.3
	c0-0.3,0-0.5,0-0.8c0-0.1-0.1-0.1-0.1,0c0,0.1,0,0.3,0,0.4h-0.1C30.5,2.5,30.5,2.5,30.5,2.7c-0.1-0.3-0.2-0.6-0.4-0.8
	c0.2,0.1,0.3,0.2,0.4,0.4h0.1c0-0.3-0.3-0.5-0.6-0.5c-0.1-0.1-0.1-0.1-0.2-0.2c0,0-0.1,0-0.1,0.1C30,2,30.2,2.4,30.5,2.7z M32.3,3.9
	C32.7,4,33,4.3,33.1,4.8C33,4.9,33,5,32.9,5.2c0,0,0,0.1,0.1,0C33.1,5.1,33.1,5,33.2,5c0,0.1,0,0.3,0,0.4c0.1,1.1-0.3,2.4-1.1,3
	c-0.4,0.3-0.9,0.3-1.5,0.1c-0.3-0.2-0.5-0.7-0.6-1.1c-0.2-0.9,0-2.5,1-2.7c0.1,0,0.1-0.1,0-0.1c0,0,0,0-0.1,0
	C31.4,4.1,31.8,3.8,32.3,3.9z M33.6,0.9V0.7l0,0V0.9L33.6,0.9z M24.3,9.5c0.5-0.5,1.5-0.3,2.1-0.2c1,0.1,2.1,0.2,3,0.1V9.3
	C28,9.2,26.8,9.1,25.4,9C25,9,24.2,9,24,9.6c-0.2,0.6,1.2,0.5,1.4,0.5c0.6,0,1.2-0.1,1.8-0.2c0.6-0.1,1.2-0.1,1.8-0.2
	c0.1,0,0.1-0.1,0-0.1c-0.8-0.3-1.8,0-2.7,0.1c-0.5,0.1-0.9,0.1-1.5,0.1C24.6,9.8,24,9.8,24.3,9.5z M9.1,25.4
	C9.1,25.4,9.2,25.4,9.1,25.4c0.1-0.1,0.1-0.1,0.1-0.1s0-0.1-0.1-0.1c0,0,0,0-0.1,0c0,0,0,0-0.1,0.1c0,0.1,0,0.2,0,0.2
	c-0.1,0-0.2,0-0.3,0s-0.1,0-0.1,0.1l0,0l0,0c0,0,0,0.1,0.1,0.1l0,0l0,0l0,0c0.1,0,0.2,0,0.3,0c0.1,1.6,2,2.5,3.2,2.3
	c1.8-0.3,1.8-2.6,1.8-4.1c0-0.1-0.1-0.1-0.1-0.1s0,0,0-0.1s-0.1-0.1-0.1,0c-0.1,0.3-0.7,0.5-0.9,0.5c-0.4,0.1-0.7,0.2-1.1,0.4
	C10.9,24.9,10.1,25.4,9.1,25.4C9.1,25.5,9.1,25.4,9.1,25.4L9.1,25.4z M11.4,25c0.1,0,0.3-0.1,0.4-0.1c0.3-0.1,0.6-0.2,0.8-0.3
	c0,0.2,0,0.4,0,0.7c-0.2-0.1-0.3-0.2-0.4-0.4c0-0.1-0.1,0-0.1,0.1c0,0.3,0,0.5,0,0.8c-0.2-0.1-0.3-0.3-0.4-0.5h-0.1
	c-0.1,0.1-0.2,0.2-0.3,0.3C11.4,25.3,11.4,25.2,11.4,25L11.4,25z M10.5,25.3c0.2-0.1,0.5-0.2,0.7-0.2c-0.2,0.2-0.3,0.5-0.4,0.8v0.1
	h0.1l0,0c0.1-0.2,0.1-0.3,0.1-0.5c0-0.1,0.1-0.1,0.1-0.2c0,0.2-0.1,0.4-0.1,0.5c-0.1,0.2-0.2,0.5-0.3,0.7c0,0.1,0.1,0.1,0.1,0.1
	c0.2-0.2,0.2-0.6,0.3-0.9c0.1-0.2,0.2-0.3,0.3-0.4c0,0,0.2,0.4,0.3,0.4c0.1,0.1,0.2,0.1,0.3,0.2c0,0,0.1,0,0.1-0.1
	c0-0.2,0-0.4,0-0.7c0.1,0.1,0.3,0.3,0.5,0.3c0.1,0,0.1,0,0.1-0.1c0-0.2,0-0.3,0-0.5c0.1,0.1,0.1,0.2,0.2,0.3c0,0.1,0.1,0,0.1-0.1
	c-0.1-0.2-0.2-0.4-0.3-0.5l0,0c0.1,0,0.2-0.1,0.3-0.1c0.2-0.1,0.5-0.2,0.7-0.5l0,0c0,1.5,0,3.4-1.6,3.8c-0.7,0.2-1.6-0.1-2.1-0.5
	c-0.3-0.2-0.6-0.5-0.8-0.8c0-0.1-0.2-0.4-0.2-0.6C9.7,25.7,10.1,25.5,10.5,25.3z M11.1,25.5c0,0.1-0.2,0.6-0.1,0.2
	C11,25.6,11,25.6,11.1,25.5z M10.1,26.4c0.1,0,0.2-0.1,0.3-0.2c0.1-0.1,0-0.3-0.1-0.4c0-0.1-0.1,0-0.1,0c0,0.1,0,0.1,0,0.2l0,0l0,0
	c0,0,0,0-0.1,0C9.9,26.3,9.9,26.3,10.1,26.4C10,26.4,10,26.5,10.1,26.4z M11.2,27c0.1,0,0.2-0.1,0.3-0.2c0,0,0.1-0.1,0-0.1
	c-0.1-0.1-0.2,0-0.2,0.1c0,0-0.1,0-0.1,0.1c0,0,0,0-0.1,0l0,0c0,0-0.1,0-0.1,0.1C11.1,26.9,11.1,26.9,11.2,27
	C11.1,27,11.1,27,11.2,27z M9.8,28.1c0.8,0.6,2,0.9,2.9,0.6c1.7-0.5,2.7-3.3,1.9-5c-0.1-0.1-0.2,0-0.2,0.1c0.7,1.6,0,3.6-1.2,4.5
	c-0.7,0.5-1.7,0.3-2.5,0c-0.4-0.2-0.8-0.4-1.1-0.8c-0.2-0.3-0.5-1-0.3-1.4c0-0.1,0-0.1-0.1-0.1c-0.2,0.3,0,0.8,0.1,1.1
	C9.1,27.5,9.3,27.8,9.8,28.1z M12.6,26.7l0.1-0.1c0.1-0.1,0.1-0.2,0.1-0.3l0,0c0,0-0.1,0.1-0.1,0.2l-0.1,0.1
	C12.6,26.5,12.5,26.6,12.6,26.7C12.5,26.6,12.5,26.7,12.6,26.7z M21.1,26.9L21.1,26.9c0,0.1,0,0.1,0,0.2c0,0.1,0,0.1,0.1,0.1
	c0,0,0.1,0,0.1-0.1l0,0l0,0c0-0.1,0-0.1,0-0.2v-0.1h-0.1C21.1,26.8,21.1,26.8,21.1,26.9L21.1,26.9L21.1,26.9z M20,27.6
	c0.3,0,0.6-0.1,0.6-0.4c0-0.1,0-0.2-0.2-0.3c-0.1,0-0.3,0.1-0.3,0.2l0,0c0,0-0.1,0-0.1,0.1C20,27.3,20,27.4,20,27.6
	C19.9,27.5,19.9,27.6,20,27.6z M20.1,27.3C20.1,27.2,20.1,27.2,20.1,27.3c0-0.1,0-0.1,0-0.1l0.1-0.1l0,0l0,0l0,0l0,0l0,0l0,0l0,0
	l0,0l0,0l0,0l0,0l0,0l0,0l0,0l0,0l0,0l0,0l0,0l0,0C20.2,27.3,20.2,27.3,20.1,27.3C20.2,27.3,20.1,27.3,20.1,27.3L20.1,27.3
	L20.1,27.3z M18,24.8c0,0-0.1,0-0.1,0.1c0,0,0,0-0.1,0l0,0c0,0-0.1,0-0.1,0.1v0.1c0,0.1,0.1,0.1,0.1,0.1l0.1-0.1c0,0,0,0,0.1,0
	c0,0,0,0,0.1-0.1C18.1,24.9,18.1,24.8,18,24.8z M14.3,25.8c0.1,0,0.1-0.2,0-0.2h-0.1C14.2,25.7,14.2,25.8,14.3,25.8L14.3,25.8z
	 M5.8,14.9c0.6,0.4,1,1.1,1.9,1.1c0.9-0.1,2-0.4,2.7-1c1.6-1.1,1.8-3.5,1.7-5.4c0-0.1-0.1-0.1-0.1,0c-0.1,0.9,0,1.9-0.2,2.7
	c-0.2,0.9-0.7,1.9-1.4,2.5c-0.7,0.6-1.8,0.8-2.6,1c-0.7,0.2-1.2-0.6-1.8-0.9c0.3-0.4,0.8-0.6,1.2-0.9c0.6-0.5,1.2-1,1.8-1.6l0,0l0,0
	c0.3,0.1,0.5,0.4,0.8,0.2v-0.1c-0.1-0.3-0.3-0.4-0.6-0.4l0,0c0.4-0.4,0.8-0.8,1.2-1.2c0.2-0.2,0.4-0.4,0.6-0.7
	c0.2-0.2,0.4-0.6,0.7-0.8c0.1,0,0-0.2,0-0.1c-0.2,0.1-0.3,0.3-0.4,0.5c-0.2,0.2-0.4,0.5-0.7,0.7c-0.5,0.5-1,1-1.7,1.6
	c-0.6,0.5-1.4,1.1-2,1.7c-0.4,0.4-1,0.6-1.4,1.1C5.8,14.8,5.8,14.8,5.8,14.9L5.8,14.9z M9.3,12.1C9.3,12.1,9.3,12.2,9.3,12.1
	c0.2,0.1,0.4,0.1,0.5,0.3c-0.2,0.1-0.4-0.1-0.7-0.2l0,0C9.2,12.2,9.3,12.2,9.3,12.1z M10.2,13.2L10.2,13.2l0.1,0.1h0.1l0,0
	c0,0,0-0.1,0-0.2c0,0,0,0-0.1,0L10.2,13C10.3,13,10.2,13.1,10.2,13.2c0.1,0,0.1,0,0.1,0l0,0l0,0l0,0H10.2
	C10.3,13.2,10.3,13.2,10.2,13.2z M5.1,19.3L5.1,19.3L5.1,19.3z M8.9,12.9c-0.2,0.3-0.1,0.7,0.2,0.8c0.1,0.1,0.3,0.1,0.4-0.1
	c0.1-0.1,0.1-0.3,0-0.5c-0.1-0.2-0.3-0.3-0.5-0.3v0.1C9.1,13,9.2,13,9.3,13.1c0.1,0.1,0.1,0.2,0,0.3c0,0.1-0.1,0.1-0.2,0.1
	c-0.1,0-0.2-0.1-0.2-0.2C8.9,13.3,8.9,13.1,8.9,12.9C9,12.9,9,12.9,8.9,12.9z M53.8,22.7L53.8,22.7c0-0.4-0.1-0.7-0.1-1
	c-0.1-0.3-0.1-0.5-0.2-0.7c-0.1-0.5-0.5-1-0.8-1.5c-0.2-0.2-0.3-0.3-0.6-0.5c-0.1-0.1-0.1-0.2-0.2-0.3c-0.1-0.1-0.3-0.2-0.5-0.4
	c-0.2-0.1-0.4-0.2-0.6-0.3c-0.4-0.3-0.8-0.5-1.4-0.7c-0.1,0-0.2,0-0.2-0.1c-0.4-0.2-0.8-0.5-1.4-0.7h-0.1l0,0
	c-0.9-0.2-1.9-0.5-2.7-0.8c-0.1,0-0.1,0-0.2-0.1c0,0,0,0-0.1,0c0,0,0,0,0,0.1c-0.2,0-0.5-0.1-0.7-0.1c-0.3-0.1-0.5-0.1-0.8-0.1
	c-0.1,0-0.2-0.1-0.4-0.1c-0.1,0-0.2,0-0.3,0c-0.1,0-0.2,0-0.2,0s-0.1,0-0.1,0.1l0,0l0,0l0,0c-0.1,0-0.1,0-0.1,0.1c0,0,0,0,0,0.1v0.1
	c0,0,0,0,0.1,0c0,0,0,0,0.1,0h0.1c0.2,0,0.4,0,0.6,0l0,0c0.3,0.1,0.7,0.1,1,0.2c0.3,0.1,0.7,0.2,1,0.2c0.2,0.1,0.3,0.1,0.5,0.2
	c0.6,0.2,1.4,0.4,2.1,0.6h0.1c0.6,0.3,1.2,0.5,1.8,0.9c0,0,0,0,0.1,0c0.2,0.1,0.4,0.2,0.6,0.3c0.3,0.1,0.5,0.3,0.7,0.5H51
	c0.6,0.4,1.2,0.8,1.7,1.5c0.5,0.7,0.7,1.6,0.8,2.4c0,0.2,0,0.4,0,0.6c0,0.5,0,1-0.2,1.6c-0.8,2.3-3.4,4.3-5.9,5.6
	c-2.6,1.4-5.6,2.4-8.6,3.1c-3.3,0.7-7,1.2-10.4,1.2l0,0c0,0,0,0-0.1,0c0,0,0,0-0.1,0l0,0c-3.5,0.2-7.1,0-10.5-0.5
	c-3.1-0.5-6.1-1.2-8.8-2.5c-2.7-1.1-5.4-2.9-6.4-5.2c-0.2-0.5-0.3-1-0.3-1.6c0-0.2-0.1-0.4-0.1-0.6c0-0.8,0.1-1.7,0.6-2.5
	c0.3-0.6,0.9-1,1.5-1.6h0.1c0.1-0.1,0.2-0.2,0.4-0.3h0.1c-0.1-0.2-0.1-0.2,0-0.2h0.1h0.1c0,0,0,0,0-0.1c0,0,0.1,0,0.1-0.1
	c0.1,0,0.1-0.1,0-0.2l0,0l0,0l0,0c0.1-0.1,0-0.2-0.1-0.1l0,0l0,0c-0.1,0-0.3,0.1-0.4,0.2l0,0c-0.1,0.1-0.3,0.2-0.4,0.3
	c-0.2,0.1-0.4,0.2-0.6,0.3c-0.1,0.1-0.3,0.3-0.4,0.4c-0.1,0.1-0.1,0.2-0.2,0.3c-0.2,0.2-0.4,0.4-0.5,0.6c-0.3,0.4-0.6,1-0.7,1.6
	c-0.1,0.3-0.1,0.5-0.2,0.8c-0.1,0.4-0.1,1,0.1,1.5c0,0.4,0,0.8,0.2,1.1c0.2,2.3,2.4,4.1,4.6,5.4c5.2,3.1,11.9,4.1,18.5,4.3
	c1.1,0,2.3,0,3.4-0.1c1.1,0.1,2.3,0,3.4-0.2c6.4-0.7,13.2-2.1,18.1-5.6c2.1-1.5,4.2-3.4,4.2-5.7C54,23.8,54,23.1,53.8,22.7z
	 M53.3,25.5c-0.8,2.3-3.4,4.3-5.9,5.6c-2.6,1.4-5.6,2.4-8.6,3.1c-3.3,0.7-7,1.2-10.4,1.2l0,0c0,0,0,0-0.1,0c0,0,0,0-0.1,0l0,0
	c-3.5,0.2-7.1,0-10.5-0.5c-3.1-0.5-6.1-1.2-8.8-2.5c-2.7-1.1-5.4-2.9-6.4-5.2c0-0.1-0.1-0.2-0.1-0.3c0.8,1.4,2.4,2.5,3.8,3.4
	c5.2,3.1,11.9,4.1,18.5,4.3c1.1,0,2.3,0,3.4-0.1c1.1,0.1,2.3,0,3.4-0.2c6.4-0.7,13.2-2.1,18.1-5.6c1.7-1.1,3.2-2.6,3.8-4.3
	C53.4,24.9,53.4,25.2,53.3,25.5z M8.3,13.9c0.1,0,0.1-0.1,0.2-0.1c0,0,0.1-0.1,0.1-0.2l-0.1-0.1c0,0,0,0-0.1,0c-0.1,0-0.1,0-0.2,0.1
	l0,0H8.1c0,0.1-0.1,0.2-0.1,0.3C8.1,14,8.2,14,8.3,13.9z M8.2,13.8L8.2,13.8L8.2,13.8c0-0.1,0-0.1,0-0.1l0,0l0,0h0.1l0,0l0,0l0,0
	l0,0l0,0C8.3,13.8,8.3,13.8,8.2,13.8C8.3,13.8,8.3,13.8,8.2,13.8C8.3,13.8,8.3,13.8,8.2,13.8L8.2,13.8L8.2,13.8L8.2,13.8L8.2,13.8
	L8.2,13.8L8.2,13.8z M11.6,9.7c-0.2,1.1-0.5,2.2-0.7,3.3l0,0c0.2-1.1,0.6-2.2,0.7-3.2C11.7,9.7,11.6,9.7,11.6,9.7z M7.5,15
	c-0.4-0.1-0.8-0.3-1.2-0.3c-0.1,0-0.1,0.1,0,0.1c0.8,0.4,1.6,0.6,2.5,0.3c0.8-0.3,1.5-0.8,2.1-1.5l0,0c-0.6,0.4-1.2,1-2,1.2
	C8.3,15.1,7.9,15.1,7.5,15z M19.9,27.9C19.9,27.9,19.9,28,19.9,27.9C19.9,28,20,28,20,28c0.1,0.1,0.2,0,0.1-0.1l0,0l0,0v-0.1H20
	C19.9,27.8,19.9,27.8,19.9,27.9z M21.7,30.5C21.7,30.5,21.7,30.4,21.7,30.5h-0.1c0,0-0.1,0-0.1,0.1c0,0.3,0.1,0.5,0.4,0.5
	c0.2,0,0.4-0.3,0.3-0.6c0,0,0-0.1-0.1-0.1C22,30.3,21.7,30.3,21.7,30.5C21.7,30.4,21.7,30.5,21.7,30.5c0,0.1,0.2,0.1,0.3,0.1
	c0,0.1-0.1,0.2-0.2,0.2C21.6,30.8,21.5,30.5,21.7,30.5z M29.9,28.3c-0.5-0.2-1.7,0.1-2.1,0.6l0,0c-0.4,0.4-0.2,1,0,1.6
	c0.3,0.7,0.9,1,1.7,1.2c0.8,0.2,2.2,0.3,2.2-1C31.6,29.7,30.7,28.6,29.9,28.3z M31.3,31.3c-0.2,0.4-0.8,0.4-1.1,0.3
	c-0.5-0.1-1.1-0.2-1.7-0.5c-0.4-0.3-0.8-0.9-0.8-1.6c0,0.1,0,0.2,0.1,0.3c0,0.1,0.1,0,0.1-0.1c-0.1-1,1.2-1.5,2-1.1
	c0.7,0.2,1.2,0.9,1.5,1.7C31.5,30.6,31.5,31,31.3,31.3z M30.7,30.4L30.7,30.4L30.7,30.4L30.7,30.4C30.6,30.4,30.6,30.4,30.7,30.4
	c-0.1,0.1-0.2,0.1-0.2,0h-0.1c0,0-0.1,0-0.1,0.1c0,0.1,0,0.1,0,0.2c0,0.1,0,0.1,0.1,0.1c0.2,0,0.3,0,0.4-0.2c0.1-0.1,0.1-0.3,0-0.4
	C30.7,30.2,30.6,30.3,30.7,30.4z M25.9,27.8c0.1,0,0.1-0.1,0.2-0.1h0.1c0.1,0,0,0.2,0,0.2c0,0.1-0.1,0.1-0.1,0.2l0,0l0,0
	c-0.1-0.1,0-0.1,0-0.2c0.1,0,0-0.2-0.1-0.1c-0.1,0-0.2,0.1-0.2,0.2c0,0.1,0,0.2,0.1,0.2c0.1,0.1,0.1,0.1,0.2,0.1
	c0.1,0,0.2-0.2,0.2-0.3c0.1-0.2,0.1-0.4-0.1-0.5c-0.1,0-0.2,0-0.2,0C25.9,27.5,25.8,27.6,25.9,27.8C25.8,27.8,25.8,27.8,25.9,27.8z
	 M44.4,25.6c0,0.1,0,0.2,0.1,0.2c0.9,0.1,1.8,0.7,2.6,1c0.8,0.2,1.6,0.3,2.4,0.2c1.2-0.2,2.1-1.6,2.4-2.9s0.1-2.8-0.5-3.9
	c-0.6-1.4-2.2-2.1-3.4-1.6c-0.1,0-0.1,0.1,0,0.2c-0.6,1-1.1,2.3-1.7,3.3C45.8,23.3,45.1,24.4,44.4,25.6z M51.5,20.5
	c0.5,1.1,0.5,2.6,0.2,3.8c-0.2,0.5-0.4,1-0.8,1.6c-0.5,0.6-1.1,0.8-1.9,0.8c-0.7,0-1.5-0.1-2.2-0.4c-0.6-0.2-1.2-0.6-2-0.7
	c0.4-0.4,1-0.3,1.7-0.3c0.5,0.1,1,0,1.6,0c0.9-0.1,2.1-0.4,2.6-1.5c0.5-1,0.2-2.4-0.1-3.4c-0.3-0.8-0.8-1.7-1.7-1.8
	C50,18.7,51,19.4,51.5,20.5z M48.2,18.9C48.2,18.8,48.2,18.8,48.2,18.9C48.2,18.8,48.2,18.8,48.2,18.9c0.1,0,0.1,0,0.1,0
	c1.1-0.2,1.9,1.1,2.1,2.2c0.3,1,0.4,2.5-0.4,3.3c-0.7,0.7-2.1,0.8-2.9,0.8c-0.5,0-1.6-0.3-2.1,0.1c0.4-0.7,0.7-1.5,1.1-2.2
	c0,0.2,0.2,0.5,0.4,0.7h-0.1V24c0.1,0,0.2,0,0.3,0c0.1,0,0.1-0.1,0.1-0.2c-0.2-0.2-0.4-0.5-0.5-0.8c0.3,0.1,0.5,0.4,0.6,0.7
	c0,0.1,0,0.2,0.1,0.3c0,0.1,0.2,0.1,0.2-0.1c-0.1-0.5-0.1-1-0.1-1.6c0.2,0.2,0.3,0.6,0.5,0.6c0,0,0.1,0,0.1-0.1
	c0-0.3-0.1-0.6-0.3-0.9c-0.2-0.3-0.1-0.5,0.2-0.6c0.2,0,0.3,0,0.5,0c0.1,0,0.1-0.1,0-0.2c-0.1-0.1-0.7-0.3-1-0.2
	C47.6,20.1,47.9,19.5,48.2,18.9z M47.1,21L47.1,21c0,0.1,0.1,0.1,0.1,0c0-0.1,0.2-0.1,0.4,0c-0.3,0-0.5,0.1-0.5,0.5
	c0,0.2,0.2,0.6,0.3,0.8c0.1,0.2,0.3,0.7,0,0.2c-0.1-0.2-0.2-0.3-0.4-0.5c-0.1,0-0.1,0-0.1,0.1c0,0.4-0.1,0.7,0,1.1
	c-0.2-0.2-0.3-0.4-0.6-0.5c0.1-0.1,0.2-0.3,0.2-0.4C46.7,21.8,46.9,21.4,47.1,21z M48.8,20.4L48.8,20.4L48.8,20.4
	C48.8,20.3,48.8,20.3,48.8,20.4c0.1-0.1,0.1-0.1,0.2,0c0.1,0.1,0.2,0,0.1-0.1c-0.1-0.1-0.2-0.1-0.3-0.1s-0.1,0.1-0.1,0.1
	c0,0.1,0,0.1,0.1,0.2C48.7,20.5,48.8,20.4,48.8,20.4z M21.3,29.5v-0.1c-0.4-0.1-0.6,0.3-0.7,0.6c-0.1,0.5,0.1,1,0.4,1.4
	c0.4,0.5,1.1,0.3,1.6,0c0.3-0.2,0.6-0.4,0.7-0.7c0.2-0.4,0.2-0.8,0.5-1.1c0.1,0,0.2,0.1,0.3,0.1c0.6,0.2,1.5,0.3,2.1,0.1
	c1.2-0.4,1.7-2,0.6-2.9c-0.4-0.4-1.1-0.5-1.8-0.6c-0.4,0-0.9,0-1.4,0.2c-0.5,0.2-0.9,0.7-1,1.4c-0.1,0-0.1,0-0.2,0h-0.1
	c0.1-0.6,0.2-1.1,0.2-1.8c0-0.1-0.2-0.2-0.2,0c-0.1,0.6-0.1,1.2-0.2,1.8c0,0-0.1,0.1,0,0.1c-0.2,0.6-0.6,1-1.1,1.2
	c-0.9,0.4-2.1,0.3-3-0.1c-0.4-0.2-0.8-0.4-1.1-0.7c-0.5-0.4-0.7-1.2-0.7-2c0-0.6,0.2-1.1,0.4-1.7c0.2-0.5,0.5-1.1,1-1.1
	c0.1,0,0.1-0.2,0-0.2c-0.4,0-0.7,0.4-1,0.8c-0.3,0.5-0.5,1.1-0.6,1.8c-0.1,0.7,0.1,1.5,0.4,2.1c0.3,0.5,0.8,0.8,1.4,1
	c1,0.5,2.3,0.6,3.4,0.3c0.5-0.2,1-0.5,1.2-1.1c0-0.1,0.1-0.2,0.1-0.3h0.1c0,0,0.1,0,0.2,0c0,0.2,0,0.4,0.1,0.6
	c0.1,0.4,0.4,0.6,0.7,0.8c-0.2,0.3-0.3,0.7-0.4,1c-0.2,0.6-1,1-1.7,0.9C20.8,31.2,20.5,29.7,21.3,29.5z M23.2,28.5
	c-0.3-0.6-0.1-1.4,0.4-1.8c0,0,0.1,0.1,0.1,0c0.8-0.5,2-0.4,2.8,0c0.4,0.2,0.7,0.7,0.7,1.4c0,0.7-0.6,1-1,1.2
	C25.3,29.8,23.7,29.5,23.2,28.5z M49,21.3C49.1,21.4,49.1,21.4,49,21.3c0.1,0.1,0.2,0.1,0.2,0.1c0.1,0,0.1-0.1,0.1-0.1
	c0-0.1,0-0.1,0-0.2c0,0,0,0-0.1,0c0,0,0,0,0,0.1c0,0.1,0,0,0,0l0,0l0,0l0,0l0,0l0,0l0,0c0.1-0.1,0-0.2-0.1-0.1
	C49.1,21.2,49,21.2,49,21.3z M49.2,21.3L49.2,21.3L49.2,21.3L49.2,21.3z M48.2,23.2L48.2,23.2C48.3,23.3,48.3,23.3,48.2,23.2
	c0.1,0.1,0.1,0.1,0.1,0.1h0.1l0,0l0,0l0,0l0,0l0,0l0,0l0,0l0,0l0,0l0,0l0,0l0,0l0,0l0,0l0,0c0,0,0,0.1-0.1,0.1l0,0l0,0l0,0l0,0l0,0
	c0-0.1-0.1-0.1-0.1,0c0,0.1,0,0.2,0.1,0.2s0.1-0.1,0.2-0.2c0.1-0.1,0.1-0.2,0.1-0.3c0-0.1-0.1-0.2-0.2-0.2h-0.1
	C48.3,23.1,48.2,23.1,48.2,23.2z M48.3,22.2C48.2,22.2,48.2,22.2,48.3,22.2c-0.1,0.1-0.2,0.1-0.2,0.1s0,0.1,0,0.2
	c0,0.1,0.1,0.1,0.1,0l0.1-0.1C48.3,22.4,48.3,22.3,48.3,22.2C48.4,22.2,48.3,22.1,48.3,22.2z M19.9,24.7L19.9,24.7H20
	c0.1-0.1,0.2-0.2,0.2-0.3s0-0.1-0.1-0.1c-0.1,0-0.2,0-0.3,0.1C19.7,24.4,19.7,24.6,19.9,24.7C19.8,24.7,19.9,24.7,19.9,24.7z
	 M19.9,24.5C19.9,24.4,19.9,24.4,19.9,24.5c0.1-0.1,0.1-0.1,0.1-0.1C20,24.4,20,24.5,19.9,24.5C20,24.5,20,24.5,19.9,24.5L19.9,24.5
	L19.9,24.5z M19.8,25.3c0.3,0.2,0.8,0.3,1.2,0.3c0,0,0,0,0,0.1v0.1v0.1c0,0.1,0,0.1,0.1,0.1c0.1,0,0.3-0.1,0.4-0.1
	c0.1,0,0.1-0.1,0.1-0.1c0-0.1-0.1-0.2-0.1-0.2c0.2,0,0.4-0.1,0.5-0.2v-0.1c-0.4,0.1-0.8,0.2-1.2,0.2C20.4,25.4,20.1,25.3,19.8,25.3
	C19.7,25.2,19.7,25.3,19.8,25.3z M21.2,25.7L21.2,25.7C21.2,25.6,21.2,25.6,21.2,25.7c0.1,0,0.1,0,0.1,0
	C21.2,25.7,21.2,25.7,21.2,25.7L21.2,25.7L21.2,25.7z M18.7,27.4L18.7,27.4c-0.1,0.1-0.2,0-0.2,0.1c0,0,0,0.1,0.1,0.1
	c0.1,0,0.2,0,0.3-0.1c0.1-0.1,0.1-0.2,0.2-0.3v-0.1C18.9,27,18.8,27,18.7,27c-0.1,0-0.2,0.1-0.3,0.2c0,0,0,0.1,0.1,0.1
	c0.1-0.1,0.2-0.2,0.3-0.1C18.8,27.3,18.7,27.3,18.7,27.4L18.7,27.4z M17.6,23.6c0.1,0,0-0.1,0-0.1c-0.8,0.1-1,1.4-1,2.1
	c-0.1,0.9,0,2.1,0.7,2.7c0.5,0.4,1.1,0.4,1.8,0.5c0.6,0.1,1.2,0.3,1.8,0.2c1.7-0.2,1.2-2.4,1.5-3.7c0-0.1-0.1-0.2-0.2-0.1
	c-0.3,1.2,0.2,3.4-1.5,3.5c-0.4,0-0.9-0.1-1.4-0.1c-0.5-0.1-1-0.1-1.6-0.3c-0.8-0.3-0.9-1.5-0.9-2.4C16.7,25,16.8,23.8,17.6,23.6z
	 M18.3,27.2L18.3,27.2C18.3,27.2,18.2,27.2,18.3,27.2C18.2,27.2,18.2,27.2,18.3,27.2C18.2,27.2,18.3,27.2,18.3,27.2z M17.9,26.5v0.1
	c0.4,0,0.7-0.2,1-0.5c0,0.1-0.1,0.2-0.1,0.3c0,0.1,0.1,0.1,0.1,0.1c0.1,0,0.2,0,0.2-0.1c0.1,0.2,0.2,0.4,0.5,0.3
	c0.2-0.1,0.3-0.4,0.2-0.6h-0.1c0,0.3-0.3,0.8-0.5,0.2c0-0.1-0.1-0.1-0.1-0.1c-0.1,0-0.1,0-0.2,0c0-0.2,0.1-0.4,0.3-0.6
	c0,0,0-0.1-0.1-0.1l0,0l0,0C18.8,25.7,18.2,25.9,17.9,26.5z M19.2,25.7c0,0.1-0.1,0.1-0.1,0.2c-0.3,0.3-0.6,0.5-0.9,0.5
	C18.4,26.1,18.8,25.8,19.2,25.7z M49,22.5C49,22.6,49.1,22.7,49,22.5c0.1,0.1,0.2,0,0.2,0l0,0l0,0l0,0l0,0l0,0l0,0l0,0l0,0l0,0
	c0,0.1-0.1,0.2-0.2,0.2s-0.1,0.1,0,0.1c0.2,0,0.3-0.2,0.3-0.4C49.4,22.3,49.1,22.4,49,22.5z M18.1,25.5L18.1,25.5
	c0.1,0.2,0.4-0.1,0.4-0.1c0.2-0.1,0.7-0.3,0.7,0.1c0,0.1,0.1,0.1,0.1,0C19.4,24.7,18.3,25.1,18.1,25.5z M18.9,24.2
	c0-0.1,0-0.1,0-0.2c0.2,0.5,0.3,1,0.7,1.5c0.1,0.1,0.1,0,0.1-0.1c-0.4-0.5-0.4-1.2-0.8-1.8c0-0.1-0.1,0-0.1,0.1
	C18.8,23.9,18.8,24.1,18.9,24.2C18.8,24.3,18.9,24.3,18.9,24.2z"/>
<path class="st0" d="M11.7,15.9c-2.7-0.5-8,1.4-6.4,5.5c0.8,2.1,2.9,2.4,4.7,2.2c2.4-0.3,4.8-1.8,7.2-1.6c2,0.2,3.6,1.6,5.5,2.4
	c1.4,0.5,3.3,0.9,4.2-0.6c0-0.1-0.1-0.2-0.1-0.1c-1.2,1.7-3.4,0.8-4.9,0c-0.3-0.1-0.5-0.3-0.8-0.4c0.7,0.3,1.5,0.5,2.2,0.5
	c1.2,0.1,2.5-0.3,3.5-1c0.1-0.1,0-0.3-0.1-0.2c-1.1,0.6-2.3,1-3.5,1c-1.2-0.1-2.4-0.6-3.5-1.1c-1-0.5-2.1-1-3.1-1.2
	c-1-0.2-2-0.2-3,0.2c-2,0.7-3.8,2.3-5.9,1C6.6,21.9,6.1,21.1,6,20c0-1.2,0.8-2.1,1.8-2.6c1.1-0.7,2.6-1,3.8-0.9c0.1,0,0.1-0.1,0-0.1
	c-1.9-0.2-4.1,0.3-5.3,2.1c-1,1.5-0.3,3.3,1,4.3c1.8,1.1,3.6,0.1,5.3-0.6c1.1-0.5,2.2-0.8,3.4-0.6c0.8,0.2,1.7,0.5,2.4,0.8
	c-0.7-0.2-1.6-0.4-2.4-0.3c-1.2,0.1-2.4,0.5-3.5,0.9c-1.2,0.4-2.5,0.7-3.7,0.6c-1,0-2-0.3-2.7-1.1c-0.6-0.7-0.9-1.8-0.7-2.8
	c0.2-1.5,1.5-2.3,2.6-2.8c1.2-0.5,2.6-0.6,3.9-0.6l0,0c0.1,0.2,0.1,0.3,0.2,0.5l0,0c-1.1,0.1-2.3,0.1-3.3,0.5
	c-0.8,0.3-1.6,0.9-1.8,1.9c-0.4,1.7,1.1,2.8,2.4,2.8c2.1,0.1,3.8-1.7,6-1.6c1.2,0,2.5,0.5,3.6,1.1c0.5,0.2,1,0.5,1.6,0.7
	c0.6,0.2,1.1,0.4,1.8,0.5c1.2,0.2,2.6,0.1,3.7-0.5c0.1-0.1,0-0.2-0.1-0.2c-1.2,0.4-2.3,0.6-3.5,0.4c-1.1-0.2-2.2-0.7-3.1-1.1
	c1.6,0.6,3.3,1,4.9,0.4c0.2-0.1,0.4-0.2,0.6-0.4c0.1-0.1,0-0.2-0.1-0.2c-1.6,0.8-3.5,0.6-5.1,0c-1-0.4-2-0.9-3-1.1
	c-0.9-0.2-2-0.1-2.9,0.1c-1,0.2-2.1,0.4-3.1,0.5c-0.5,0-1.4-0.1-1.8-0.6c-0.5-0.6,0.7-1.7,1.1-2c0.7-0.5,1.7-0.9,2.5-0.7
	c0,0,0.1-0.1,0-0.1c-0.8-0.2-1.6,0.1-2.3,0.5c-0.6,0.3-1.5,0.9-1.7,1.8c-0.1,0.6,0.3,0.9,0.7,1.1c0.7,0.3,1.5,0.2,2.2,0.1
	c1.4-0.2,2.6-0.5,3.9-0.6c0.9,0,1.8,0.2,2.5,0.5c-0.6-0.2-1.4-0.4-2.1-0.5c-1-0.1-2,0.2-3,0.6c-1.6,0.7-4.4,1.9-5.4-0.4
	c-0.4-1,0.1-2,0.8-2.5c1-0.8,2.3-0.7,3.4-0.9c0.2,0,0.3-0.1,0.5-0.1c0,0,0,0,0-0.1c0.1,0.2,0.3,0.4,0.5,0.6c1,1.2,2.9,1.8,4.4,1.6
	c0.6-0.1,1.4-0.3,2-0.6c0,0,0,0.1,0.1,0.1c1.2,0.2,2.6,0.4,3.8,0.8c1,0.4,2,1,2.8,1.8c1.7,1.5,2.8,3.3,4.4,4.9
	c0.7,0.7,1.6,1.5,2.6,1.9c0.7,0.3,1.6,0.4,2.4,0.5c1.7,0.2,3.4-0.1,5.1-0.6c2.9-0.9,6.2-3.4,6-7.3c-0.1-1.8-1-3.3-2.5-3.9
	c-1.1-0.5-2.3-0.2-3.5,0.2c2.1-1.4,3.8-3.5,3.1-6.3c-0.8-2-2.9-2.8-4.6-3C36.6,7,34.3,8,32.2,8.7c-0.5,0.2-0.9,0.3-1.4,0.5
	c-1.4-1.2-3-2.5-4.8-2.5c-1.2,0-2.6,0.4-3.6,1.1s-1.5,2-0.8,3.1c0.7,1.4,2.4,1,3.4,0.8c0.1,0,0.2,0,0.2-0.1c0.6-0.1,1.2-0.3,1.8-0.5
	c0.7-0.3,1.4-0.6,2.1-0.9c0.1-0.1,0.3-0.1,0.4-0.2c0.4-0.2,0.8-0.4,1.4-0.5c0.1,0.1,0.1,0.1,0.2,0.2c0.1,0.1,0.2-0.1,0.1-0.1L31,9.5
	c1.8-0.7,3.6-1.5,5.5-1.9c2.1-0.4,4.7-0.3,6,1.8c1,1.7,0.4,4.1-0.8,5.4c-2.8,3.3-7.5,3.5-11.2,2.6c-0.6-0.1-1.1-0.3-1.8-0.5
	c0.4,0.1,0.8,0.2,1.2,0.2c1.5,0.2,2.9,0.3,4.4,0.3c2.8-0.1,6.2-0.7,7.7-3.5c0.3-0.6,0.6-1.5,0.5-2.2c-0.1-0.6-0.4-1.2-0.8-1.7
	c-1-0.9-2.5-1.2-3.8-1.4c-2.4-0.1-4.6,1-6.8,1.9c-0.8,0.3-1.8,0.6-2.6,0.9c-1.2,0.4-2.5,0.8-3.7,1.1c-1.1,0.2-2.4,0.4-3.4,0.1
	c-0.8-0.3-1.2-1-1.2-2c-0.1-1.6,0.6-2.5,1.7-3.2c1.1-0.7,2.4-1.1,3.7-1.1c1.1-0.1,2.5,0.1,3.3,0.9c0.1,0.1,0.2,0,0.1-0.1
	c-0.9-0.9-2.3-1-3.5-1c-1.4,0.1-2.8,0.5-4.1,1.4c-1,0.7-1.7,1.9-1.6,3.2c0,1,0.6,1.8,1.5,2c1,0.3,2.2,0.2,3.2,0
	c1.2-0.2,2.6-0.6,3.8-1.1c0.9-0.3,1.8-0.7,2.7-0.9c2.3-0.6,4.4-1.9,6.6-1.9c1.4,0,3,0.4,4.1,1.6c1.1,1.2,0.2,3.2-0.7,4.3
	c-1,1.2-2.6,1.8-4.1,2.1c-1.6,0.3-3.2,0.3-4.8,0.2c-1.6-0.1-3.1-0.3-4.6-0.7c-0.5-0.2-1.1-0.4-1.7-0.6c-0.7-0.3-1.5-0.7-2.1-1.1
	c0,0-0.1,0-0.1-0.1c-0.7-0.4-1.5-0.9-2.2-1.4c-1.8-1-3.7-2.2-5.7-2.3c-1.5-0.1-3.1,0.4-3.9,1.9C11.4,13.7,11.4,14.8,11.7,15.9z
	 M22.1,11.5c-0.5-0.4-0.8-1.4-0.6-2.1c0.2-0.7,0.7-1.1,1.2-1.5c1.1-0.6,2.5-1,3.7-0.8c0.7,0.1,1.5,0.4,2.1,0.7
	c-0.2-0.1-0.5-0.1-0.7-0.1c-0.8-0.1-1.7-0.3-2.5-0.4c-1.4,0-2.9,0.7-3.4,2.3c-0.2,0.7,0.2,1.4,0.6,1.8c0.4,0.3,0.9,0.5,1.4,0.5
	C23.3,11.9,22.6,11.9,22.1,11.5z M29.6,9.8c-0.2,0.1-0.5,0.2-0.7,0.3c-0.8,0.3-1.6,0.7-2.4,1c-0.4,0.1-0.8,0.3-1.2,0.4
	c-0.5,0.1-1,0.1-1.6,0c-0.7-0.1-1.6-0.7-1.6-1.6c0-0.7,0.5-1.4,1-1.8c0.6-0.5,1.5-0.7,2.2-0.7s1.5,0.2,2.2,0.3C28,8,29,8,29.3,8.5
	h0.1c0-0.1-0.1-0.1-0.1-0.2c0.5,0.3,0.9,0.7,1.4,1.1C30.2,9.5,29.9,9.6,29.6,9.8z M25,20.2c-0.8-0.6-1.7-1.1-2.6-1.5
	c-0.3-0.1-0.5-0.2-0.8-0.2c0.9,0.1,1.9,0.4,2.7,1c0.5,0.3,0.9,0.7,1.4,1.1C25.3,20.5,25.2,20.4,25,20.2z M25.6,20.4
	c-0.6-0.6-1.4-1.2-2.2-1.6c-0.8-0.4-1.7-0.6-2.6-0.6c-0.1,0-0.1,0.1-0.1,0.1c-0.5-0.1-1-0.2-1.6-0.3c0.2-0.1,0.4-0.2,0.6-0.2
	c1.1-0.4,2.3-0.5,3.5-0.4c2.5,0.3,4.6,2.1,7,2.7c1.1,0.3,2.3,0.4,3.3,0.2c1.1-0.2,2.2-0.7,3.2-1.4c1.9-1.1,3.8-2.5,6-1.7
	c0.8,0.3,1.6,0.9,2,1.9c0.4,0.9,0.2,2.1-0.1,3c-0.6,2-2.4,3.1-4.1,3.8c-3.5,1.5-7.8,0.6-10.9-1.7c-0.8-0.6-1.7-1.2-2.4-2
	C27,21.8,26.4,21.1,25.6,20.4z M21.6,13.5c0.7,0.4,1.4,0.7,2.1,1.1c0.3,0.2,0.6,0.4,0.9,0.5c0.8,0.5,1.8,0.9,2.7,1.2
	c3.1,1.4,6.4,2.2,9.8,1.5h0.1c-2.3,0.9-4.9,1.1-7.3,0.5c-1.1-0.3-2.3-0.8-3.3-1.4c-1-0.5-2.2-0.8-3.3-1c-2.1-0.3-4.1,1.1-6.1,1.5
	c-1,0.1-2-0.2-2.8-0.9c-0.7-0.6-1.1-1.7-0.8-2.7c0.3-1.1,1.5-1.9,2.4-2.1c1-0.2,2.1,0.1,3,0.4C19.8,12.4,20.7,13,21.6,13.5z
	 M13.3,11.7c1-0.7,2.3-0.7,3.4-0.5c-1.4,0-2.7,0.5-3.4,1.9c-0.9,1.7,0.4,3.4,1.7,4.2c1.9,1,3.9-0.3,5.8-0.8c1.1-0.4,2.3-0.3,3.4,0
	c1.1,0.3,2.3,0.8,3.3,1.4c2.2,0.9,4.4,1.5,6.6,1.1c1.2-0.2,2.4-0.5,3.5-1c1-0.5,2.1-1,3.2-1.4c1.1-0.3,2.3-0.2,3.2,0.5
	c0.7,0.5,1.1,1.5,1.4,2.4c0.5,2-0.2,3.8-1.5,5.3c-1.2,1.4-2.8,2.3-4.5,2.8c-1.7,0.5-3.4,0.7-5.2,0.5c-0.8-0.1-1.7-0.3-2.5-0.6
	c-0.9-0.4-1.9-1.4-2.6-2.2c-0.8-0.9-1.6-1.9-2.3-2.8c1.5,1.5,2.9,2.8,4.7,3.6c3.4,1.8,8,1.9,11.2-0.5c1.5-1,2.4-2.7,2.6-4.6
	c0.2-1.9-1-3.2-2.5-3.7c-2-0.7-3.8,0.4-5.6,1.5c-1,0.6-2.1,1.2-3.2,1.6c-1.2,0.3-2.6,0.2-3.8-0.1c-2.4-0.6-4.5-2.3-6.9-2.7
	c-1.1-0.2-2.2-0.1-3.2,0.2c-1,0.3-2,0.7-3,1c-1.7,0.4-3.6-0.3-4.7-1.8c-0.6-0.8-0.7-1.8-0.5-2.8C12,13,12.6,12.2,13.3,11.7z
	 M35.1,25.6c2,0.7,4.2,0.7,6.1-0.3c1.4-0.7,2.6-2,3.3-3.5c0.3-0.7,0.4-1.5,0.2-2.2c-0.2-0.8-0.8-1.5-1.5-1.9
	c-1.6-0.9-3.3-0.1-4.8,0.7c-1.8,1-3.3,2.4-5.4,2.6c-2.4,0.2-4.7-0.9-6.8-2.1c-0.6-0.3-1.2-0.7-1.9-0.9c-0.1,0-0.2,0.1-0.1,0.2
	c1.9,1.1,3.8,2.2,5.8,2.8c1,0.3,2.1,0.4,3.1,0.3c1-0.1,1.9-0.5,2.8-1c1.6-0.9,3.1-2.3,5-2.6c1-0.2,2,0.1,2.7,0.8
	c0.6,0.7,0.8,1.7,0.6,2.6c-0.4,1.7-1.9,3.1-3.1,3.8c-2,1.2-4.4,1-6.4,0.3c-0.6-0.2-1.4-0.5-2-0.9c0.1,0,0.1,0,0.2,0.1
	c2.1,0.6,4.5,0.4,6.5-0.2c0.9-0.2,1.8-0.7,2.5-1.4c0.5-0.5,1-1.5,0.9-2.3c-0.1-0.8-0.9-1.1-1.6-1.2c-0.8-0.1-1.8,0.2-2.5,0.6
	c-0.8,0.4-1.7,0.8-2.5,1.2c-1,0.5-2.1,0.7-3.1,0.7c-1.1,0-2.3-0.2-3.4-0.5c-1.1-0.3-2.1-0.9-3.1-1.5c-0.1,0-0.2,0.1-0.1,0.2
	c1.9,1.4,4.3,2.2,6.4,2.1c1,0,2-0.2,2.9-0.5c0.9-0.4,1.8-0.9,2.7-1.4c0.8-0.4,1.9-0.8,2.8-0.6c0.5,0.1,1,0.3,1.2,0.8
	c0.2,0.5-0.1,1.1-0.3,1.6c-0.6,1-1.7,1.6-2.7,2c-1.1,0.4-2.3,0.5-3.4,0.6c-1.7,0.1-3.3-0.2-4.8-1c-0.4-0.3-0.8-0.5-1.2-0.8
	c0.6,0.3,1.4,0.4,2.1,0.5c1.5,0.6,3,0.9,4.7,0.7c1-0.1,2.1-0.4,3-0.9c0.6-0.3,1.6-0.9,1.7-1.8c0.1-0.8-0.7-0.9-1.2-0.9
	c-0.9,0.1-1.9,0.7-2.6,1.1c-0.6,0.1-1.1,0.4-1.7,0.6c-0.6,0.3-1.2,0.4-1.9,0.5c-0.8,0.1-1.7,0.1-2.5,0c-0.4-0.2-0.9-0.4-1.4-0.6
	c-0.1,0-0.1,0.1,0,0.1c0.2,0.1,0.5,0.3,0.7,0.4c-0.2,0-0.4-0.1-0.6-0.1c-0.3-0.1-0.6-0.2-0.9-0.2l0,0c-0.8-0.6-1.6-1.2-2.4-1.8
	l-0.1,0.1c0.5,0.3,0.9,0.7,1.4,1.1c-0.1-0.1-0.2-0.1-0.3-0.2c-2.1-1.5-4.2-2.8-6.4-4.1c-0.1,0-0.1,0.1,0,0.1
	c2.3,1.2,4.5,2.8,6.8,4.4C30.8,23.3,32.9,24.9,35.1,25.6z M35.6,22.9c0.9-0.2,1.8-0.7,2.6-1.2c0.8-0.5,1.8-1.1,2.8-1
	c0.6,0.1,0.6,0.6,0.3,1c-0.2,0.4-0.7,0.7-1.1,0.9c-0.8,0.5-1.9,0.8-2.9,0.9c-1.5,0.2-2.9,0-4.3-0.4C34,23.1,34.8,23,35.6,22.9z
	 M25.5,8.1c-0.9,0.1-2.5,0-3,1.1c-0.2,0.5,0,1,0.4,1.4c0.4,0.3,1.1,0.3,1.7,0.3c0.6,0,1.2-0.2,1.9-0.4c0.5-0.1,1-0.3,1.6-0.4
	c0.5-0.2,1.1-0.3,1.7-0.6V9.3c-0.9,0.1-1.9,0.5-2.7,0.7c-0.6,0.2-1.2,0.4-1.9,0.5c-0.5,0.1-1.1,0.1-1.7,0c-0.5-0.1-1-0.7-0.7-1.4
	c0.2-0.5,0.9-0.6,1.4-0.7c0.5-0.2,1-0.2,1.6-0.2c0.9,0,1.8,0.1,2.7,0.4C29,8.9,29.7,9,30.1,9.5c0,0,0.1,0,0.1-0.1
	c-0.3-0.6-1.1-0.8-1.8-0.9C27.5,8.2,26.6,8,25.5,8.1z M47.6,23.6c-0.1-0.1-0.2,0-0.3,0.1v0.1c0.1,0.1,0.2,0.2,0.3,0.2
	c-0.1,0.1-0.1,0.1-0.2,0.1c-0.1,0-0.1,0.2,0,0.2s0.1,0,0.1,0s0.1,0,0.1-0.1c0.1-0.1,0.2-0.2,0.2-0.4C47.7,23.8,47.7,23.7,47.6,23.6z
	 M47.5,23.9C47.5,23.8,47.5,23.8,47.5,23.9C47.5,23.8,47.5,23.8,47.5,23.9L47.5,23.9z M23.3,13.4c1.7,1.2,3.7,1.9,5.7,2.3
	c0.8,0.2,1.7,0.3,2.5,0.3c1.7,0.2,3.3,0.2,4.9-0.2l0,0c1.2-0.2,2.6-0.5,3.7-1.2c1.1-0.6,2.3-1.8,1.7-3.3c-1.1-2.7-4.6-2.1-6.6-1.5
	c-1.7,0.4-3.3,0.9-4.9,1.5c-2,0.6-3.9,1.1-5.9,1.7l0,0c-0.1,0-0.2,0-0.3,0c-0.1,0-0.1,0.1-0.1,0.1c-0.1,0-0.2,0-0.2,0s-0.1,0-0.2,0
	c-0.1,0-0.1,0.1-0.1,0.1c0,0.1,0,0.1,0.1,0.1c0.1,0,0.2,0,0.2,0c1,0.3,2.1,0.8,3.1,1.2c1,0.4,2.2,0.7,3.3,0.9
	c1.1,0.2,2.4,0.3,3.5,0.2c0.7,0,1.6-0.1,2.3-0.3c1.1-0.4,2.3-1.2,3.1-2.2c0.3-0.3,0.5-0.8,0.4-1.2c-0.1-0.6-0.7-0.8-1.1-1
	c-0.9-0.3-2-0.1-2.8,0.1c-1,0.3-2.1,0.7-3.1,1c-1.2,0.4-2.6,0.5-3.8,0.7c-1,0.2-2.1,0.3-3.1,0.4l0,0c1.8-0.3,3.5-0.9,5.2-1.5
	c1.9-0.6,3.8-1.4,5.8-1.6c0.8-0.1,1.8-0.1,2.6,0.1c0.8,0.2,1.8,0.8,1.7,1.9c0,1-1.1,1.8-1.8,2.3c-0.7,0.5-1.6,0.9-2.5,1.2
	c-0.3,0.1-0.7,0.1-1,0.1c-1.4,0.2-2.8,0.2-4.2,0.1c-0.4-0.1-0.8-0.1-1.2-0.2c-2-0.4-3.8-1-5.7-1.8c-0.1,0-0.1,0.1-0.1,0.1
	c-0.3-0.2-0.7-0.3-1-0.5C23.3,13.2,23.2,13.3,23.3,13.4z M32.1,12.2c2-0.4,3.9-1.8,6-1.5c0.5,0.1,1.5,0.4,1.4,1.2
	c-0.1,0.6-0.6,1.1-1,1.5c-1,0.9-2.3,1.6-3.6,1.8c-1.9,0.2-3.8,0-5.7-0.3c-1.5-0.3-2.7-0.9-4.1-1.5c1,0.2,2,0.5,2.9,0.8
	c1,0.3,2.1,0.5,3.2,0.6c1.1,0.1,2.2,0,3.3-0.1c0.5-0.1,1-0.2,1.6-0.4c0.5-0.2,2.4-1.1,1.9-2.1c-0.3-0.5-1.1-0.5-1.6-0.3
	c-0.4,0.1-0.8,0.3-1.1,0.5c-0.5,0.3-1.1,0.4-1.8,0.5c-0.7,0.1-1.6,0.1-2.3,0.1c-0.8,0-1.6,0-2.4,0c-0.4,0-0.9,0-1.4,0
	C28.9,12.9,30.4,12.7,32.1,12.2z M31.9,13.4c1,0,2.2-0.2,3.1-0.6c0.6-0.3,1.9-1,2.5-0.3c0.6,0.6-2.2,1.9-2.5,2.1
	c-0.8,0.3-1.9,0.2-2.7,0.3c-1.1,0-2.3-0.1-3.4-0.3c-1.1-0.3-2.3-0.7-3.4-1h0.1C27.6,13.5,29.8,13.4,31.9,13.4z M40.6,12.9
	c1-1.7-0.5-2.9-1.9-3.1c-0.8-0.1-1.7-0.1-2.5,0c0.3-0.1,0.6-0.1,0.9-0.2c1.7-0.2,4.1-0.1,4.6,2.1c0.5,1.8-1.9,2.8-3,3.2
	c-0.3,0.1-0.6,0.2-0.9,0.3C39,14.6,40,13.9,40.6,12.9z M28,15.1c-1.2-0.3-2.4-0.7-3.5-1.4C25.6,14.3,26.8,14.7,28,15.1z M15.3,12.2
	c-0.6,0.3-1.1,0.9-1.2,1.7c-0.1,0.7,0.2,1.5,0.7,1.9c0.8,0.6,1.8,0.7,2.8,0.7c1.1-0.1,2.3-0.4,3.4-0.5c1.4-0.2,2.6-0.2,3.8,0.1
	c0.1,0,0.1-0.1,0.1-0.2c-0.5-0.2-1-0.3-1.6-0.4c0,0,0.1-0.1,0-0.1c-0.6-0.8-1.5-1.1-2.3-1.5c-0.5-0.2-0.9-0.3-1.5-0.5
	c-0.5-0.2-1-0.5-1.6-0.8C17.1,12,16.2,11.8,15.3,12.2z M18.4,13c0.8,0.4,1.6,0.7,2.4,1c0.9,0.3,1.9,0.6,2.5,1.5l0,0
	c-1.5-0.1-3,0.3-4.4,0.5c-1,0.2-2,0.3-3,0.1c-0.7-0.2-1.6-0.8-1.6-1.8c-0.1-0.8,0.5-1.6,1.2-1.9C16.4,12,17.4,12.4,18.4,13z
	 M33.7,2.5c0.2-0.4,0.3-0.8,0.5-1.1c0-0.1,0-0.1-0.1-0.1C33.9,1.6,33.7,2.1,33.7,2.5C33.6,2.5,33.6,2.6,33.7,2.5z M49,23.7
	C49,23.7,48.9,23.7,49,23.7C48.9,23.7,48.9,23.7,49,23.7c-0.1,0-0.2,0-0.2,0.1s0,0.1,0.1,0.1H49l0,0c0,0,0,0,0.1,0
	C49.1,23.8,49.1,23.7,49,23.7L49,23.7z M34.4,3.6C34.4,3.5,34.4,3.5,34.4,3.6c-0.1,0-0.2,0.1-0.3,0.2C34,3.9,33.9,3.9,33.7,4v0.1
	C34,4,34.2,3.7,34.4,3.6z M34.2,6.6c0-0.3,0-0.6-0.1-0.8c0-0.1-0.1,0-0.1,0c0.2,0.4,0.1,0.8-0.1,1.2c0,0,0,0.1,0.1,0
	s0.1-0.2,0.2-0.3c0.4-0.4,0.6-1,0.6-1.7c0,0-0.1-0.1-0.1,0c0,0.3-0.1,0.6-0.2,0.9C34.4,6.3,34.3,6.4,34.2,6.6z M35.4,5.7
	c0.3-0.5,0.5-1,0.7-1.7c0,0,0-0.1-0.1,0C35.8,4.6,35.5,5.1,35.4,5.7C35.3,5.7,35.4,5.7,35.4,5.7z M35,6.3c0.4,0,0.8-0.3,1.2-0.3l0,0
	C35.8,6,35.4,6.2,35,6.3C34.9,6.2,34.9,6.3,35,6.3z M34,7.1L34,7.1L34,7.1c-0.2,0.2-0.4,0.4-0.5,0.6c0,0,0,0.1,0,0
	C33.6,7.7,33.9,7.4,34,7.1c0.5-0.4,1.1-0.4,1.7-0.6c0,0,0-0.1,0,0c-0.4,0.1-0.9,0.2-1.4,0.4c0.3-0.3,0.5-0.7,0.7-1l0,0
	c0.2,0,0.5,0,0.7-0.1c0,0,0,0,0.1,0l0,0c0.2,0,0.3-0.1,0.4-0.2V5.5c-0.1,0-0.2,0-0.3,0.1C36,5.5,36,5.3,36.1,5.2
	c0.3-0.1,0.6-0.1,0.8-0.3V4.8C36.8,4.9,36.4,5,36.2,5c0-0.2,0.1-0.5,0.2-0.8c0-0.1-0.1-0.1-0.1,0c-0.1,0.3-0.2,0.7-0.4,1h-0.1
	c-0.1,0,0,0.1,0,0.1l0,0c0,0.1-0.1,0.2-0.1,0.4c-0.2,0.1-0.4,0.1-0.7,0.1c0.3-0.3,0.5-0.6,0.6-0.9l0,0c-0.3,0.3-0.5,0.7-0.7,1
	c0.2-0.4,0.3-0.9,0.3-1.4c0,0,0,0-0.1,0c-0.1,0.7-0.4,1.2-0.5,1.9C34.4,6.6,34.2,6.9,34,7.1z M33.6,3.5C33.6,3.5,33.6,3.6,33.6,3.5
	c0.2,0,0.3-0.2,0.4-0.2c0.2-0.1,0.3-0.2,0.5-0.3V2.9c-0.2,0.1-0.3,0.2-0.5,0.3C33.9,3.3,33.7,3.4,33.6,3.5z M30.7,3.5
	c-0.2,0-0.4,0-0.6,0v0.1C30.3,3.6,30.5,3.6,30.7,3.5C30.7,3.6,30.7,3.5,30.7,3.5z M30.7,3.7C30.7,3.7,30.6,3.7,30.7,3.7
	c0,0.1,0.1,0.1,0.1,0.1l0,0C30.7,3.8,30.7,3.8,30.7,3.7z M29.4,2.1c0.3,0.2,0.7,0.4,1,0.6c0,0,0.1,0,0.1-0.1c-0.2-0.3-0.6-0.5-1-0.6
	C29.4,2,29.4,2.1,29.4,2.1z M31.9,4.7v0.1c0,0.2,0.2,0.3,0.3,0.3c0,0,0.1,0,0.1-0.1c0.1-0.2,0.1-0.4,0-0.5c-0.1-0.2-0.3-0.2-0.5-0.1
	l-0.1,0.1C31.8,4.6,31.8,4.7,31.9,4.7z M32.2,4.7C32.2,4.7,32.2,4.6,32.2,4.7c0.1,0.1,0,0.2,0,0.3c-0.1,0-0.1-0.1-0.1-0.1
	C32,4.7,32.1,4.7,32.2,4.7z M33.2,3C33.2,3,33.3,3,33.2,3c0-0.1-0.1-0.2-0.1-0.3S33,2.5,33,2.4s-0.1-0.1-0.1,0
	C33,2.7,33.1,2.9,33.2,3z M30.5,2.4L30.5,2.4c0.1,0.2,0.2,0.5,0.3,0.7h-0.1c0,0,0,0,0-0.1c-0.2-0.1-0.4-0.2-0.6-0.3
	c-0.2-0.1-0.4-0.2-0.6-0.2c-0.1,0-0.1,0.1,0,0.1c0.1,0,0.1,0,0.2,0.1c0,0,0,0,0.1,0.1l0,0l0,0c0.1,0,0.2,0.1,0.4,0.2
	c0,0,0.2,0.1,0.4,0.1c-0.2,0-0.3,0-0.4-0.1c-0.1,0-0.2,0.1-0.1,0.1c0.1,0.1,0.2,0.1,0.4,0.1c0.1,0,0.3,0,0.4,0
	c0.1,0.1,0.2,0.2,0.3,0.3l0,0v0.1c-0.3,0.2-0.6,0.4-0.7,0.7l0,0c-0.7,0.5-0.7,1.8-0.6,2.7c0,0.6,0.2,1.2,0.7,1.5
	c0.5,0.3,1,0.2,1.6-0.1c1-0.7,1.5-2.4,1.2-3.6c0-0.1,0-0.3-0.1-0.4c0.1-0.2,0.1-0.3,0.2-0.5c0,0,0.1,0,0.2,0.1c0,0,0,0,0-0.1
	l-0.1-0.1c0-0.2,0.1-0.4,0.1-0.6l0,0c0.1-0.1,0.3-0.2,0.4-0.4c0.1-0.1,0.2-0.3,0.3-0.4c0,0,0-0.1-0.1,0c-0.1,0.2-0.2,0.3-0.3,0.4
	C34,2.8,33.9,2.9,33.7,3c0-0.6-0.1-1.4-0.1-1.9l0,0V1c-0.4,0-0.5,0.3-0.4,0.6c0,0,0,0-0.1,0C33,1.7,33,1.7,33,1.9c0,0,0,0.1,0.1,0.1
	h0.1l0,0c0,0-0.1,0-0.1-0.1V1.7l0,0l0,0h0.1c0-0.2-0.1-0.4,0.1-0.5l0,0c0,0.6,0.1,1.1,0.1,1.8c0,0.3,0,0.5-0.1,0.8
	c-0.1-0.1-0.2-0.2-0.3-0.3h-0.1l0,0c-0.1-0.1-0.1-0.2-0.1-0.2c0-0.1-0.1,0-0.1,0.1c0.1,0.2,0.2,0.3,0.3,0.4c0.1,0.1,0.1,0.2,0.2,0.3
	c0,0.1-0.1,0.3-0.1,0.4c-0.2-0.4-0.5-0.7-0.9-0.8c-0.3-0.1-0.6,0-0.9,0.2c0-0.1,0-0.2,0-0.2c0-0.2,0-0.5,0.1-0.7
	c0-0.1,0-0.1-0.1-0.1C31.2,3,31,3.2,31,3.3c0,0.1,0,0.1,0,0.2s0,0.2,0,0.2c-0.1-0.2-0.2-0.3-0.3-0.4c0.1-0.3,0.1-0.7,0.1-1.1
	c0-0.1-0.1-0.1-0.1,0c0,0.3-0.1,0.6-0.1,0.9c-0.1-0.1-0.1-0.2-0.2-0.3c0-0.3,0-0.5,0-0.8c0-0.1-0.1-0.1-0.1,0c0,0.1,0,0.3,0,0.4
	h-0.1C30.5,2.3,30.5,2.3,30.5,2.4c-0.1-0.3-0.3-0.5-0.4-0.7c0.2,0.1,0.3,0.2,0.4,0.4h0.1c0-0.3-0.3-0.5-0.6-0.5
	c-0.1-0.1-0.1-0.1-0.2-0.2c0,0-0.1,0-0.1,0.1C30,1.7,30.2,2.2,30.5,2.4z M32.3,3.6C32.7,3.7,33,4,33.1,4.4C33,4.6,33,4.7,32.9,4.9
	c0,0,0,0.1,0.1,0s0.1-0.2,0.2-0.2c0,0.2,0,0.3,0,0.4c0.1,1.1-0.3,2.4-1.1,3c-0.4,0.4-0.9,0.4-1.5,0.2c-0.4-0.2-0.5-0.7-0.6-1.1
	c-0.2-0.9,0-2.5,1-2.7c0.1,0,0.1-0.1,0-0.1c0,0,0,0-0.1,0C31.4,3.9,31.8,3.6,32.3,3.6z M33.5,0.6V0.5l0,0V0.6L33.5,0.6z M24.2,9.2
	c0.5-0.5,1.5-0.3,2.1-0.2c1,0.1,2.1,0.2,3,0.1V9c-1.4-0.1-2.6-0.2-3.9-0.3c-0.4,0-1.2,0-1.5,0.6c-0.2,0.6,1.2,0.5,1.4,0.5
	c0.6,0,1.2-0.1,1.8-0.2c0.6-0.1,1.2-0.1,1.8-0.2c0.1,0,0.1-0.1,0-0.1c-0.7-0.2-1.7,0-2.6,0.2c-0.5,0.1-0.9,0.1-1.5,0.1
	C24.5,9.6,23.9,9.5,24.2,9.2z M9.1,25.2L9.1,25.2c0.1-0.1,0.1-0.1,0.1-0.1s0-0.1-0.1-0.1c0,0,0,0-0.1,0c0,0,0,0-0.1,0.1
	c0,0.1,0,0.2,0,0.2c-0.1,0-0.2,0-0.3,0s-0.1,0-0.1,0.1l0,0l0,0c0,0,0,0.1,0.1,0.1l0,0l0,0l0,0c0.1,0,0.2,0,0.3,0
	c0.1,1.6,2,2.5,3.2,2.3c1.8-0.3,1.8-2.6,1.8-4.1c0-0.1-0.1-0.1-0.1-0.1s0,0,0-0.1c0-0.1-0.1-0.1-0.1,0c-0.1,0.3-0.7,0.5-0.9,0.5
	c-0.4,0.1-0.7,0.2-1.1,0.4C10.8,24.7,10,25.1,9.1,25.2L9.1,25.2L9.1,25.2z M11.4,24.8c0.1,0,0.3-0.1,0.4-0.1
	c0.3-0.1,0.6-0.2,0.8-0.3c0,0.2,0,0.4,0,0.7c-0.2-0.1-0.3-0.2-0.4-0.4c0-0.1-0.1,0-0.1,0.1c0,0.3,0,0.5,0,0.8
	c-0.2-0.1-0.3-0.3-0.4-0.5h-0.1c-0.1,0.1-0.2,0.2-0.3,0.3C11.3,25.1,11.4,24.9,11.4,24.8L11.4,24.8z M10.5,25.1
	c0.2-0.1,0.5-0.2,0.7-0.2c-0.2,0.2-0.3,0.5-0.4,0.8v0.1h0.1l0,0c0.1-0.2,0.1-0.3,0.1-0.5c0-0.1,0.1-0.1,0.1-0.2
	c0,0.2-0.1,0.4-0.1,0.5c-0.1,0.2-0.2,0.5-0.3,0.7c0,0.1,0.1,0.1,0.1,0.1c0.2-0.2,0.2-0.6,0.3-0.9c0.1-0.2,0.2-0.3,0.3-0.4
	c0,0,0.2,0.4,0.3,0.4c0.1,0.1,0.2,0.1,0.3,0.2c0,0,0.1,0,0.1-0.1c0-0.2,0-0.4,0-0.7c0.1,0.1,0.3,0.3,0.5,0.3c0.1,0,0.1,0,0.1-0.1
	c0-0.2,0-0.3,0-0.5c0.1,0.1,0.1,0.2,0.2,0.3c0,0.1,0.1,0,0.1-0.1c-0.1-0.2-0.2-0.4-0.3-0.5l0,0c0.1,0,0.2-0.1,0.3-0.1
	c0.2-0.1,0.5-0.2,0.7-0.5l0,0c0,1.5,0,3.4-1.6,3.8c-0.7,0.2-1.6-0.1-2.1-0.5c-0.3-0.2-0.6-0.5-0.8-0.8c0-0.1-0.2-0.4-0.2-0.6
	C9.7,25.4,10.1,25.3,10.5,25.1z M11,25.3c0,0.1-0.2,0.6-0.1,0.2C11,25.4,11,25.3,11,25.3z M10,26.2c0.1,0,0.2-0.1,0.3-0.2
	c0.1-0.1,0-0.3-0.1-0.4c0-0.1-0.1,0-0.1,0c0,0.1,0,0.1,0,0.2l0,0l0,0c0,0,0,0-0.1,0C9.9,25.9,9.9,26.1,10,26.2
	C9.9,26.2,10,26.2,10,26.2z M11.1,26.8c0.1,0,0.2-0.1,0.3-0.2c0,0,0.1-0.1,0-0.1c-0.1-0.1-0.2,0-0.2,0.1c0,0-0.1,0-0.1,0.1
	c0,0,0,0-0.1,0l0,0c0,0-0.1,0-0.1,0.1C11,26.7,11,26.7,11.1,26.8L11.1,26.8z M9.7,27.8c0.8,0.6,2,0.9,2.9,0.6c1.7-0.5,2.7-3.3,1.9-5
	c-0.1-0.1-0.2,0-0.2,0.1c0.7,1.6,0,3.6-1.2,4.5c-0.7,0.5-1.7,0.3-2.5,0c-0.4-0.2-0.8-0.4-1.1-0.8c-0.2-0.3-0.5-1-0.3-1.4
	c0-0.1,0-0.1-0.1-0.1c-0.2,0.3,0,0.8,0.1,1.1C9,27.3,9.3,27.6,9.7,27.8z M12.5,26.4l0.1-0.1c0.1-0.1,0.1-0.2,0.1-0.3l0,0
	c0,0-0.1,0.1-0.1,0.2l-0.1,0.1C12.5,26.3,12.5,26.3,12.5,26.4C12.4,26.4,12.5,26.5,12.5,26.4z M21.1,26.6
	C21.1,26.7,21.1,26.7,21.1,26.6c0,0.1,0,0.1,0,0.2c0,0.1,0,0.1,0.1,0.1c0,0,0.1,0,0.1-0.1l0,0l0,0c0-0.1,0-0.1,0-0.2v-0.1h-0.1
	C21.1,26.5,21.1,26.6,21.1,26.6L21.1,26.6L21.1,26.6z M20,27.3c0.3,0,0.6-0.1,0.6-0.4c0-0.1,0-0.2-0.2-0.3c-0.1,0-0.3,0.1-0.3,0.2
	l0,0c0,0-0.1,0-0.1,0.1C20,27,20,27.1,20,27.3C19.9,27.3,19.9,27.3,20,27.3z M20.1,27L20.1,27c0-0.1,0-0.1,0-0.1l0.1-0.1l0,0l0,0
	l0,0l0,0l0,0l0,0l0,0l0,0l0,0l0,0l0,0l0,0l0,0l0,0l0,0l0,0l0,0l0,0l0,0C20.2,27.1,20.2,27.1,20.1,27C20.1,27.1,20.1,27.1,20.1,27
	C20.1,27.1,20.1,27.1,20.1,27C20.1,27.1,20.1,27,20.1,27z M17.9,24.6c0,0-0.1,0-0.1,0.1c0,0,0,0-0.1,0l0,0c0,0-0.1,0-0.1,0.1v0.1
	c0,0.1,0.1,0.1,0.1,0.1l0.1-0.1c0,0,0,0,0.1,0c0,0,0,0,0.1-0.1C18.1,24.7,18,24.6,17.9,24.6z M14.3,25.6c0.1,0,0.1-0.2,0-0.2h-0.1
	C14.1,25.4,14.1,25.6,14.3,25.6L14.3,25.6z M5.8,14.7c0.6,0.4,1,1.1,1.9,1.1c0.9-0.1,2-0.4,2.7-1c1.6-1.1,1.8-3.5,1.7-5.4
	c0-0.1-0.1-0.1-0.1,0c-0.1,0.9,0,1.9-0.2,2.7c-0.2,0.9-0.7,1.9-1.4,2.5c-0.7,0.6-1.8,0.8-2.6,1C7.1,15.9,6.5,15,6,14.7
	c0.3-0.4,0.8-0.6,1.2-0.9c0.6-0.5,1.2-1,1.8-1.6l0,0l0,0c0.3,0.1,0.5,0.4,0.8,0.2v-0.1c-0.1-0.3-0.3-0.4-0.6-0.4l0,0
	c0.4-0.4,0.8-0.8,1.2-1.2c0.2-0.2,0.4-0.4,0.6-0.7c0.3-0.2,0.5-0.6,0.8-0.8c0.1,0,0-0.2,0-0.1c-0.2,0.1-0.3,0.3-0.5,0.4
	c-0.2,0.2-0.4,0.5-0.7,0.7c-0.5,0.5-1,1-1.7,1.6c-0.6,0.5-1.4,1.1-2,1.7c-0.4,0.4-1,0.6-1.4,1.1C5.8,14.6,5.8,14.6,5.8,14.7
	L5.8,14.7z M9.3,11.9L9.3,11.9C9.5,12,9.8,12,9.9,12.2c-0.2,0.1-0.4-0.1-0.7-0.2l0,0C9.2,12,9.2,11.9,9.3,11.9z M10.2,12.9
	C10.2,12.9,10.2,13,10.2,12.9l0.1,0.1h0.1l0,0c0,0,0-0.1,0-0.2c0,0,0,0-0.1,0l-0.1-0.1C10.2,12.8,10.2,12.9,10.2,12.9
	c0.1,0,0.1,0,0.1,0l0,0l0,0l0,0H10.2C10.3,12.9,10.2,12.9,10.2,12.9z M5,19.1L5,19.1L5,19.1z M8.9,12.7c-0.2,0.3-0.1,0.7,0.2,0.8
	c0.1,0.1,0.3,0.1,0.4-0.1c0.1-0.1,0.1-0.3,0-0.5c-0.1-0.2-0.3-0.3-0.5-0.3v0.1c0.1,0.1,0.2,0.1,0.3,0.2c0.1,0.1,0.1,0.2,0,0.3
	c0,0.1-0.1,0.1-0.2,0.1c-0.1,0-0.2-0.1-0.2-0.2C8.9,13,8.9,12.9,8.9,12.7C9,12.7,8.9,12.5,8.9,12.7z M53.8,22.4L53.8,22.4
	c0-0.4-0.1-0.7-0.1-1c-0.1-0.3-0.1-0.5-0.2-0.7c-0.1-0.5-0.5-1-0.8-1.5c-0.2-0.2-0.3-0.3-0.6-0.5c-0.1-0.1-0.1-0.2-0.2-0.3
	c-0.1-0.1-0.3-0.2-0.5-0.4c-0.2-0.1-0.4-0.2-0.6-0.3c-0.4-0.3-0.8-0.5-1.4-0.7c-0.1,0-0.2,0-0.2-0.1c-0.4-0.2-0.8-0.5-1.4-0.7h-0.1
	l0,0c-0.9-0.2-1.9-0.5-2.7-0.8c-0.1,0-0.1,0-0.2-0.1c0,0,0,0-0.1,0c0,0,0,0,0,0.1c-0.2,0-0.5-0.1-0.7-0.1C43.6,15,43.4,15,43.1,15
	c-0.1,0-0.2-0.1-0.4-0.1c-0.1,0-0.2,0-0.3,0c-0.1,0-0.2,0-0.2,0s-0.1,0-0.1,0.1l0,0l0,0l0,0C42,15,42,15,42,15.1c0,0,0,0,0,0.1v0.1
	c0,0,0,0,0.1,0c0,0,0,0,0.1,0h0.1c0.2,0,0.4,0,0.6,0l0,0c0.3,0.1,0.7,0.1,1,0.2c0.3,0.1,0.7,0.2,1,0.2c0.2,0.1,0.3,0.1,0.5,0.2
	c0.6,0.2,1.4,0.4,2.1,0.6h0.1c0.6,0.3,1.2,0.5,1.8,0.9c0,0,0,0,0.1,0c0.2,0.1,0.4,0.2,0.6,0.3c0.3,0.1,0.5,0.3,0.7,0.5H51
	c0.6,0.4,1.2,0.8,1.7,1.5c0.5,0.7,0.7,1.6,0.8,2.4c0,0.2,0,0.4,0,0.6c0,0.5,0,1-0.2,1.6c-0.8,2.3-3.4,4.3-5.9,5.6
	c-2.6,1.4-5.6,2.4-8.6,3.1c-3.3,0.7-7,1.2-10.4,1.2l0,0c0,0,0,0-0.1,0c0,0,0,0-0.1,0l0,0c-3.5,0.2-7.1,0-10.5-0.5
	c-3.1-0.5-6.1-1.2-8.8-2.5c-2.7-1.1-5.4-2.9-6.4-5.2c-0.2-0.5-0.3-1-0.3-1.6C2.1,24.4,2,24.2,2,24c0-0.8,0.1-1.7,0.6-2.5
	c0.3-0.6,0.9-1,1.5-1.6h0.1c-0.1-0.1,0-0.2,0.2-0.3h0.1c0.1-0.1,0.1-0.1,0.2-0.1h0.1h0.1c0,0,0,0,0-0.1c0,0,0.1,0,0.1-0.1
	c0.1,0,0.1-0.1,0-0.2l0,0l0,0l0,0C5.1,19,5,18.9,4.9,19l0,0l0,0c-0.1,0-0.3,0.1-0.4,0.2l0,0c-0.1,0.1-0.3,0.2-0.4,0.3
	c-0.2,0.1-0.4,0.2-0.6,0.3c-0.1,0.1-0.3,0.3-0.4,0.4c-0.1,0.1-0.1,0.2-0.2,0.3c-0.2,0.2-0.4,0.4-0.5,0.6c-0.3,0.4-0.6,1-0.7,1.6
	c-0.1,0.3-0.1,0.5-0.2,0.8c-0.1,0.4-0.1,1,0.1,1.5c0,0.4,0,0.8,0.2,1.1c0.2,2.3,2.4,4.1,4.6,5.4c5.2,3.1,11.9,4.1,18.5,4.3
	c1.1,0,2.3,0,3.4-0.1c1.1,0.1,2.3,0,3.4-0.2c6.4-0.7,13.2-2.1,18.1-5.6c2.1-1.5,4.2-3.4,4.2-5.7C54,23.6,53.9,22.9,53.8,22.4z
	 M53.2,25.2c-0.8,2.3-3.4,4.3-5.9,5.6c-2.6,1.4-5.6,2.4-8.6,3.1c-3.3,0.7-7,1.2-10.4,1.2l0,0c0,0,0,0-0.1,0c0,0,0,0-0.1,0l0,0
	c-3.5,0.2-7.1,0-10.5-0.5c-3.1-0.5-6.1-1.2-8.8-2.5C6,31,3.3,29.3,2.3,27c0-0.1-0.1-0.2-0.1-0.3C3,28,4.6,29.2,6,30.1
	c5.2,3.1,11.9,4.1,18.5,4.3c1.1,0,2.3,0,3.4-0.1c1.1,0.1,2.3,0,3.4-0.2c6.4-0.7,13.2-2.1,18.1-5.6c1.7-1.1,3.2-2.6,3.8-4.3
	C53.4,24.7,53.3,24.9,53.2,25.2z M8.2,13.7c0.1,0,0.1-0.1,0.2-0.1c0,0,0.1-0.1,0.1-0.2l-0.1-0.1c0,0,0,0-0.1,0s-0.1,0-0.1,0.1l0,0
	H8.1c0,0.1-0.1,0.2-0.1,0.3C8.1,13.7,8.2,13.7,8.2,13.7z M8.2,13.6L8.2,13.6C8.2,13.5,8.2,13.5,8.2,13.6c0-0.1,0-0.1,0-0.1l0,0l0,0
	h0.1l0,0l0,0l0,0l0,0l0,0C8.3,13.5,8.3,13.5,8.2,13.6C8.2,13.5,8.2,13.5,8.2,13.6C8.2,13.5,8.2,13.5,8.2,13.6
	C8.2,13.5,8.2,13.5,8.2,13.6L8.2,13.6L8.2,13.6L8.2,13.6L8.2,13.6L8.2,13.6z M11.6,9.5c-0.2,1.1-0.5,2.2-0.7,3.3l0,0
	c0.2-1.1,0.6-2.2,0.7-3.2C11.7,9.4,11.6,9.4,11.6,9.5z M7.5,14.8c-0.4-0.1-0.8-0.3-1.2-0.3c-0.1,0-0.1,0.1,0,0.1
	c0.8,0.4,1.6,0.6,2.5,0.3c0.8-0.3,1.5-0.8,2.1-1.5l0,0c-0.6,0.4-1.2,1-2,1.2C8.3,14.9,7.9,14.9,7.5,14.8z M19.8,27.7L19.8,27.7
	c0,0.1,0.1,0.1,0.1,0.1c0.1,0.1,0.2,0,0.1-0.1l0,0l0,0v-0.1h-0.1C19.8,27.5,19.8,27.6,19.8,27.7z M21.6,30.2L21.6,30.2h-0.1
	c0,0-0.1,0-0.1,0.1c0,0.3,0.1,0.5,0.4,0.5c0.2,0,0.4-0.3,0.3-0.6c0,0,0-0.1-0.1-0.1C21.9,30.1,21.7,30,21.6,30.2L21.6,30.2
	c0,0.1,0.2,0.1,0.3,0.1c0,0.1-0.1,0.2-0.2,0.2C21.6,30.5,21.5,30.2,21.6,30.2z M29.9,28.1c-0.5-0.2-1.7,0.1-2.1,0.6l0,0
	c-0.4,0.4-0.2,1,0,1.6c0.3,0.7,0.9,1,1.7,1.2c0.8,0.2,2.2,0.3,2.2-1C31.6,29.4,30.7,28.4,29.9,28.1z M31.3,31
	c-0.2,0.4-0.8,0.4-1.1,0.3c-0.5-0.1-1.1-0.2-1.7-0.5c-0.4-0.3-0.8-0.9-0.8-1.6c0,0.1,0,0.2,0.1,0.3c0,0.1,0.1,0,0.1-0.1
	c-0.1-1,1.2-1.5,2-1.1c0.7,0.2,1.2,0.9,1.5,1.7C31.5,30.4,31.5,30.8,31.3,31z M30.6,30.1L30.6,30.1L30.6,30.1
	C30.6,30.2,30.6,30.2,30.6,30.1C30.6,30.2,30.6,30.2,30.6,30.1c-0.1,0.1-0.2,0.1-0.2,0h-0.1c0,0-0.1,0-0.1,0.1c0,0.1,0,0.1,0,0.2
	c0,0.1,0,0.1,0.1,0.1c0.2,0,0.3,0,0.4-0.2c0.1-0.1,0.1-0.3,0-0.4C30.7,29.9,30.6,30,30.6,30.1z M25.8,27.6c0.1,0,0.1-0.1,0.2-0.1
	h0.1c0.1,0,0,0.2,0,0.2c0,0.1-0.1,0.1-0.1,0.2l0,0l0,0c-0.1-0.1,0-0.1,0-0.2c0.1,0,0-0.2-0.1-0.1c-0.1,0-0.2,0.1-0.2,0.2
	c0,0.1,0,0.2,0.1,0.2c0.1,0,0.2,0,0.2,0c0.1,0,0.2-0.2,0.2-0.3c0.1-0.2,0.1-0.4-0.1-0.5c-0.1,0-0.2,0-0.2,0
	C25.8,27.3,25.6,27.4,25.8,27.6C25.6,27.5,25.8,27.6,25.8,27.6z M44.4,25.3c0,0.1,0,0.2,0.1,0.2c0.9,0.1,1.8,0.7,2.6,1
	c0.8,0.2,1.6,0.3,2.4,0.2c1.2-0.2,2.1-1.6,2.4-2.9s0.1-2.8-0.5-3.9c-0.6-1.4-2.2-2.1-3.4-1.6c-0.1,0-0.1,0.1,0,0.2
	c-0.6,1-1.1,2.3-1.7,3.3C45.7,23,45,24.2,44.4,25.3z M51.4,20.3c0.5,1.1,0.5,2.6,0.2,3.8c-0.2,0.6-0.4,1.1-0.8,1.6
	c-0.5,0.6-1.1,0.8-1.9,0.8c-0.7,0-1.5-0.1-2.2-0.4c-0.6-0.2-1.2-0.6-2-0.7c0.4-0.4,1-0.3,1.7-0.3c0.5,0.1,1,0,1.6,0
	c0.9-0.1,2.1-0.4,2.6-1.5c0.5-1,0.2-2.4-0.1-3.4c-0.3-0.8-0.8-1.7-1.7-1.8C50,18.5,50.9,19.1,51.4,20.3z M48.2,18.6L48.2,18.6
	L48.2,18.6c0.1,0,0.1,0,0.1,0c1.1-0.2,1.9,1.1,2.1,2.2c0.3,1,0.4,2.5-0.4,3.3c-0.7,0.7-2.1,0.8-2.9,0.8c-0.5,0-1.6-0.3-2.1,0.1
	c0.4-0.7,0.7-1.5,1.1-2.2c0,0.2,0.2,0.5,0.4,0.7h-0.1v0.1c0.1,0,0.2,0,0.3,0c0.1,0,0.1-0.1,0.1-0.2c-0.2-0.2-0.4-0.5-0.5-0.8
	c0.3,0.1,0.5,0.4,0.6,0.7c0,0.1,0,0.2,0.1,0.3c0,0.1,0.2,0.1,0.2-0.1c-0.1-0.5-0.1-1-0.1-1.6c0.2,0.2,0.3,0.6,0.5,0.6
	c0,0,0.1,0,0.1-0.1c0-0.3-0.1-0.6-0.3-0.9c-0.2-0.3-0.1-0.5,0.2-0.6c0.2,0,0.3,0,0.5,0c0.1,0,0.1-0.1,0-0.2c-0.1-0.1-0.7-0.3-1-0.2
	C47.5,19.8,47.8,19.2,48.2,18.6z M47.1,20.6C47.1,20.8,47.1,20.8,47.1,20.6c0,0.1,0.1,0.1,0.1,0c0-0.1,0.2-0.1,0.4,0
	c-0.3,0-0.5,0.1-0.5,0.5c0,0.2,0.2,0.6,0.3,0.8c0.1,0.2,0.3,0.7,0,0.2c-0.1-0.2-0.2-0.3-0.4-0.5c-0.1,0-0.1,0-0.1,0.1
	c0,0.4-0.1,0.7,0,1.1c-0.2-0.2-0.3-0.4-0.6-0.5c0.1-0.1,0.2-0.3,0.2-0.4C46.7,21.6,46.9,21.2,47.1,20.6z M48.7,20.1L48.7,20.1
	L48.7,20.1L48.7,20.1c0.1-0.1,0.1-0.1,0.2,0c0.1,0.1,0.2,0,0.1-0.1c-0.1-0.1-0.2-0.1-0.3-0.1S48.6,20,48.6,20c0,0.1,0,0.1,0.1,0.2
	C48.6,20.2,48.7,20.2,48.7,20.1z M21.2,29.2v-0.1c-0.4-0.1-0.6,0.3-0.7,0.6c-0.1,0.5,0.1,1,0.4,1.4c0.4,0.5,1.1,0.3,1.6,0
	c0.3-0.2,0.6-0.4,0.7-0.7c0.2-0.4,0.2-0.8,0.5-1.1c0.1,0,0.2,0.1,0.3,0.1c0.6,0.2,1.5,0.3,2.1,0.1c1.2-0.4,1.7-2,0.6-2.9
	c-0.4-0.4-1.1-0.5-1.8-0.6c-0.4,0-0.9,0-1.4,0.2c-0.5,0.2-0.9,0.7-1,1.4c-0.1,0-0.1,0-0.2,0h-0.1c0.1-0.6,0.2-1.1,0.2-1.8
	c0-0.1-0.2-0.2-0.2,0c-0.1,0.6-0.1,1.2-0.2,1.8c0,0-0.1,0.1,0,0.1c-0.2,0.6-0.6,1-1.1,1.2c-0.9,0.4-2.1,0.3-3-0.1
	c-0.4-0.2-0.8-0.4-1.1-0.7c-0.5-0.4-0.7-1.2-0.7-2c0-0.6,0.2-1.1,0.4-1.7c0.2-0.5,0.5-1.1,1-1.1c0.1,0,0.1-0.2,0-0.2
	c-0.4,0-0.7,0.4-1,0.8c-0.3,0.5-0.5,1.1-0.6,1.8c-0.1,0.7,0.1,1.5,0.4,2.1c0.3,0.5,0.8,0.8,1.4,1c1,0.5,2.3,0.6,3.4,0.3
	c0.5-0.2,1-0.5,1.2-1.1c0-0.1,0.1-0.2,0.1-0.3h0.1c0,0,0.1,0,0.2,0c0,0.2,0,0.4,0.1,0.6c0.1,0.4,0.4,0.6,0.7,0.8
	c-0.2,0.3-0.3,0.7-0.4,1c-0.2,0.6-1,1-1.7,0.9C20.8,31,20.4,29.4,21.2,29.2z M23.2,28.3c-0.3-0.6-0.1-1.4,0.4-1.8c0,0,0.1,0.1,0.1,0
	c0.8-0.5,2-0.4,2.8,0c0.4,0.2,0.7,0.7,0.7,1.4c0,0.7-0.6,1-1,1.2C25.2,29.5,23.7,29.3,23.2,28.3z M49,21.1L49,21.1
	c0.1,0.1,0.2,0.1,0.2,0.1c0.1,0,0.1-0.1,0.1-0.1c0-0.1,0-0.1,0-0.2c0,0,0,0-0.1,0c0,0,0,0,0,0.1c0,0.1,0,0,0,0l0,0l0,0l0,0l0,0l0,0
	l0,0c0.1-0.1,0-0.2-0.1-0.1C49,20.9,49,21,49,21.1z M49.2,21L49.2,21L49.2,21L49.2,21z M48.1,22.9C48.1,23,48.2,23,48.1,22.9
	C48.2,23,48.2,23,48.1,22.9c0.1,0.1,0.1,0.1,0.1,0.1h0.1l0,0l0,0l0,0l0,0l0,0l0,0l0,0l0,0l0,0l0,0l0,0l0,0l0,0l0,0l0,0
	c0,0,0,0.1-0.1,0.1l0,0l0,0l0,0l0,0l0,0c0-0.1-0.1-0.1-0.1,0c0,0.1,0,0.2,0.1,0.2c0.1,0,0.1-0.1,0.2-0.2c0.1-0.1,0.1-0.2,0.1-0.3
	s-0.1-0.2-0.2-0.2h-0.1C48.3,22.8,48.2,22.9,48.1,22.9z M48.2,21.9C48.2,22,48.2,22,48.2,21.9C48.1,22,48,22,48,22s0,0.1,0,0.2
	s0.1,0.1,0.1,0l0.1-0.1C48.3,22.1,48.3,22.1,48.2,21.9C48.4,22,48.3,21.9,48.2,21.9z M19.9,24.4L19.9,24.4H20
	c0.1-0.1,0.2-0.2,0.2-0.3c0-0.1,0-0.1-0.1-0.1c-0.1,0-0.2,0-0.3,0.1C19.7,24.1,19.7,24.3,19.9,24.4C19.8,24.5,19.8,24.5,19.9,24.4z
	 M19.9,24.2L19.9,24.2c0.1-0.1,0.1-0.1,0.1-0.1C20,24.2,20,24.2,19.9,24.2C19.9,24.3,19.9,24.3,19.9,24.2
	C19.9,24.3,19.9,24.3,19.9,24.2L19.9,24.2z M19.7,25.1c0.3,0.2,0.8,0.3,1.2,0.3c0,0,0,0,0,0.1v0.1v0.1c0,0.1,0,0.1,0.1,0.1
	s0.3-0.1,0.4-0.1c0.1,0,0.1-0.1,0.1-0.1c0-0.1-0.1-0.2-0.1-0.2c0.2,0,0.4-0.1,0.5-0.2v-0.1c-0.4,0.1-0.8,0.2-1.2,0.2
	C20.4,25.1,20,25.1,19.7,25.1C19.7,25,19.7,25,19.7,25.1z M21.1,25.5C21.1,25.5,21.2,25.4,21.1,25.5C21.2,25.4,21.2,25.4,21.1,25.5
	c0.1,0,0.1,0,0.1,0S21.2,25.5,21.1,25.5L21.1,25.5L21.1,25.5z M18.6,27.2L18.6,27.2c-0.1,0.1-0.2,0-0.2,0.1c0,0,0,0.1,0.1,0.1
	c0.1,0,0.2,0,0.3-0.1c0.1-0.1,0.1-0.2,0.2-0.3v-0.1c-0.1-0.1-0.2-0.1-0.3-0.1c-0.1,0-0.2,0.1-0.3,0.2c0,0,0,0.1,0.1,0.1
	c0.1-0.1,0.2-0.2,0.3-0.1C18.7,27,18.7,27.1,18.6,27.2C18.7,27.1,18.6,27.1,18.6,27.2z M17.5,23.2c0.1,0,0-0.1,0-0.1
	c-0.8,0.1-1,1.4-1,2.1c-0.1,0.9,0,2.1,0.7,2.7c0.5,0.4,1.1,0.4,1.8,0.5c0.6,0.1,1.2,0.3,1.8,0.2c1.7-0.2,1.2-2.4,1.5-3.7
	c0-0.1-0.1-0.2-0.2-0.1c-0.3,1.2,0.2,3.4-1.5,3.5c-0.4,0-0.9-0.1-1.4-0.1c-0.5-0.1-1-0.1-1.6-0.3c-0.8-0.3-0.9-1.5-0.9-2.4
	C16.7,24.8,16.8,23.6,17.5,23.2z M18.2,27C18.3,27,18.3,26.9,18.2,27C18.2,26.9,18.2,26.9,18.2,27C18.2,26.9,18.1,27,18.2,27
	L18.2,27z M17.9,26.2v0.1c0.4,0,0.7-0.2,1-0.5c0,0.1-0.1,0.2-0.1,0.3s0.1,0.1,0.1,0.1c0.1,0,0.2,0,0.2-0.1c0.1,0.2,0.2,0.4,0.5,0.3
	c0.2-0.1,0.3-0.4,0.2-0.6h-0.1c0,0.3-0.3,0.8-0.5,0.2c0-0.1-0.1-0.1-0.1-0.1c-0.1,0-0.1,0-0.2,0c0-0.2,0.1-0.4,0.3-0.6
	c0,0,0-0.1-0.1-0.1l0,0l0,0C18.7,25.4,18.2,25.7,17.9,26.2z M19.1,25.4c0,0.1-0.1,0.1-0.1,0.2c-0.3,0.3-0.6,0.5-0.9,0.5
	C18.4,25.8,18.7,25.6,19.1,25.4z M49,22.3C49,22.4,49,22.4,49,22.3c0.1,0.1,0.2,0,0.2,0l0,0l0,0l0,0l0,0l0,0l0,0l0,0l0,0l0,0
	c0,0.1-0.1,0.2-0.2,0.2s-0.1,0.1,0,0.1c0.2,0,0.3-0.2,0.3-0.4C49.4,22,49.1,22.1,49,22.3z M18,25.2C18,25.2,18,25.3,18,25.2
	c0.1,0.2,0.4-0.1,0.4-0.1c0.2-0.1,0.7-0.3,0.7,0.1c0,0.1,0.1,0.1,0.1,0C19.3,24.4,18.3,24.8,18,25.2z M18.8,24c0-0.1,0-0.1,0-0.2
	c0.2,0.5,0.3,1,0.7,1.5c0.1,0.1,0.1,0,0.1-0.1c-0.4-0.5-0.4-1.2-0.8-1.8c0-0.1-0.1,0-0.1,0.1C18.7,23.7,18.7,23.8,18.8,24L18.8,24z"
	/>
</svg>
