<?xml version="1.0" encoding="utf-8"?>
<!-- Generator: Adobe Illustrator 23.0.3, SVG Export Plug-In . SVG Version: 6.00 Build 0)  -->
<svg version="1.1" id="Layer_1" xmlns="http://www.w3.org/2000/svg" xmlns:xlink="http://www.w3.org/1999/xlink" x="0px" y="0px"
	 viewBox="0 0 217.1 155" style="enable-background:new 0 0 217.1 155;" xml:space="preserve">
<g>
	<path d="M90.5,51.9c0.2-0.2,0.3-0.4,0.4-0.7c0.3-2-0.2-4.1-1.3-5.8c-2-3.2-5.7-5.5-11.1-6.9c-5.9-1.8-12.8-2-20.1-0.9
		c-7.3,1.1-13.5,3.3-18.5,6.6c-2.8,1.9-9.1,6.8-7.7,13.2c0.2,0.8,0.4,1.4,0.8,2.2c0.1,0.2,0.3,0.4,0.7,0.4c0.1,0,0.4,0,0.7-0.1
		c0.4-0.1,1-0.2,1.5-0.2c2.2,0,4.2,1.7,4.8,3.7c0.1,0.3,0.1,0.7,0.2,1c0,0.3,0.1,0.6,0.1,0.7c0.1,0.2,0.4,0.3,0.8,0.3
		c0.1,0,0.4-0.1,0.8-0.3c0.4-0.2,0.9-0.4,1.5-0.7c1.2-0.2,2.4,0,3.5,0.6c0.9,0.6,1.7,1.3,2.2,2.4c0.1,0.3,0.3,0.6,0.7,0.6
		c0.2,0.1,0.6,0,0.8-0.2c0.1-0.1,0.1-0.2,0.2-0.2c0.2-0.2,0.3-0.4,0.6-0.7c0.4-0.4,1-0.8,1.5-1c0.7-0.2,1.3-0.4,2-0.4
		c0.6,0,1.2,0.1,1.8,0.3c1.3,0.4,2,1.3,2.5,2.1c0.2,0.3,0.6,0.3,0.7,0.3c0.1,0,0.4-0.1,0.7-0.3c0.1-0.1,0.1-0.2,0.2-0.3
		c0.1-0.2,0.2-0.6,0.4-0.8c0.3-0.6,0.9-1,1.3-1.3c1.1-0.8,2.4-1,3.7-0.8c0.7,0.1,1.4,0.4,2,0.9c0.4,0.2,0.7,0.6,0.9,0.9
		c0.1,0.1,0.2,0.2,0.3,0.3s0.3,0.3,1.1,0.1h0.1c0.2-0.1,0.4-0.2,0.6-0.4c0.1-0.1,0.1-0.2,0.2-0.3c0.2-0.6,0.6-1.2,1.2-1.8
		c1.5-1.4,3.9-1.8,5.8-0.8c0.6,0.3,1.4,0.1,1.8-0.4c0.1-0.1,0.1-0.3,0.2-0.6c0.1-0.3,0.2-0.7,0.3-1.1c0.4-0.8,1-1.5,1.8-2
		c0.9-0.7,2.1-0.9,3.2-0.8c0.8,0.1,1,0,1.1-0.2l0.1-0.1c0.1-0.1,0.2-0.3,0.2-1.1c-0.1-1.1,0.2-2.2,0.9-3.1c0.6-0.9,1.3-1.3,1.9-1.7
		V51.9z M47.4,42.3c12-4.4,24.1-4.8,33.4-1.3l3.7,1.4L64,51.6l-20.8-7.8L47.4,42.3z M63.6,63.3c-0.9,0.3-1.7,0.9-2.4,1.4l-1,0.9
		l-1.1-0.8c-2.2-1.4-5.1-1.4-7.3-0.1l-1.1,0.7l-0.9-0.9c-1.5-1.5-3.9-2.2-5.9-1.8l-1.3,0.2L42,61.7c-1.1-2.5-3.7-4.1-6.5-4l-1.4,0.1
		l-0.2-1.4c-0.6-3.2,1.3-6.5,5.1-9.6c0.6-0.4,1.9-1.3,2.1-1.4l0.7-0.4l21.6,8.1l1.7,9.7L63.6,63.3z M88.7,51.1
		c-1.4,1-2.3,2.5-2.6,4.3l-0.2,1.1l-1.1,0.2c-2.1,0.3-3.9,1.8-4.8,3.6l-0.6,1.1l-1.2-0.2c-2.4-0.6-5,0.4-6.6,2.3l-0.9,1.1l-1.2-0.7
		c-0.6-0.3-1.1-0.6-1.7-0.7l-1-0.2l-1.9-10l20.9-9.4l0.8,0.8c1.7,1.5,2.5,3.4,2.6,5.3v0.9L88.7,51.1z"/>
	<path d="M184.2,47.9c0.8-0.4,1.5-0.6,2.1-0.7c0.2,0,0.4-0.1,0.7-0.1c0.2-0.1,0.4-0.2,0.9-1c0.9-1.8,1.1-4,0.7-6.1
		c-1-4-4.1-7.8-9.1-11.4c-5.5-3.9-12.5-6.7-20.1-8c-4.1-0.8-8-1-11.8-0.8c-3.5,0.2-6.5,0.9-9.1,2c-2.4,1-4.3,2.4-5.5,4.1
		c-0.7,0.8-1.1,1.7-1.3,2.6c-0.2,0.8-0.3,1.5-0.4,2.3c0,0.7,0,1.2,0.2,1.5c0.1,0.2,0.4,0.3,0.7,0.3l1.7,0.1v0.3
		c1.4,0.6,2.6,1.9,3,3.5c0.2,1,0.2,2-0.1,2.9c-0.2,0.6-0.1,0.8,0,0.9c0.1,0.2,0.3,0.4,0.6,0.4c0.1,0,0.4,0,0.7,0
		c0.6,0,1.1-0.1,1.9,0.1c2.1,0.6,3.6,2.4,3.9,4.6c0,0.7,0.1,0.8,0.2,0.9c0.2,0.2,0.4,0.2,0.7,0.2c0.1,0,0.4-0.1,0.7-0.2
		c0.4-0.2,0.9-0.4,1.5-0.6c1.2-0.2,2.4,0,3.4,0.6c0.9,0.6,1.7,1.3,2.1,2.3c0.2,0.3,0.2,0.8,0.3,1s0.1,0.6,0.2,0.6
		c0.1,0.2,0.4,0.3,0.7,0.3c0.2,0,0.3-0.1,1-0.6c2-1.7,5-1.5,6.8,0.3c0.4,0.4,0.8,1,1.1,1.7c0.1,0.2,0.1,0.3,0.2,0.6
		c0,0.1,0.1,0.3,0.1,0.3c0.1,0.1,0.2,0.3,0.9,0.4h0.2c0.2,0,0.6,0,0.7-0.2l0.2-0.2c0.4-0.4,1-0.9,1.9-1.2c0.6-0.2,1.1-0.3,1.8-0.3
		c1.4,0,2.9,0.7,3.9,1.8c0.3,0.4,0.6,0.4,0.7,0.6c0.3,0.1,0.9,0,1.1-0.1c0.1,0,0.2-0.2,0.4-0.4c0.1-0.2,0.3-0.3,0.4-0.6
		c0.7-0.8,1.7-1.3,2.6-1.5c1.2-0.2,2.4-0.1,3.5,0.4c0.7,0.3,0.9,0.2,1,0.2l0.2-0.1c0.1,0,0.3-0.1,0.6-0.8
		C182.4,49.5,183.2,48.5,184.2,47.9z M152.9,21.5c8.3,0.6,16.5,3.1,23.2,7.3c1.8,1.1,3.4,2.3,4.8,3.5l3.4,3L154,34.4l-0.2-1.4
		c-0.6-3.7-1.7-7.2-2.5-9.4l-1-2.4L152.9,21.5z M151.5,43.2l-0.6,1.5l-1.5-0.6c-1.1-0.3-2.2-0.4-3.3-0.3l-1.3,0.2l-0.6-1.2
		c-0.9-2-2.6-3.5-4.8-4l-1.3-0.2v-1.3c-0.1-2.3-1.3-4.5-3.4-5.7c-0.3-0.2-0.7-0.3-1-0.4l-1.4-0.6l0.3-1.4c0-0.1,0.2-0.9,0.4-1.3
		c1.8-3.6,6.9-6.1,14-6.6l1.1-0.1l0.4,1C150.6,26,154.1,35.1,151.5,43.2z M181.2,48.4l-0.7,1l-1.1-0.2c-2.1-0.4-4.3,0-5.8,1.4
		l-1,0.8l-1-0.8c-2-1.4-4.7-1.5-6.9-0.4l-1.3,0.7l-0.9-1.1c-1.8-2.4-5.1-3.3-7.8-2.2l-1.2,0.4l-1.3-2l0.3-0.9c1-2.2,1.4-4.7,1.5-7.4
		v-1.7l30.9,0.8l0.4,0.8c2.1,3.3,1.2,6.2,0.9,6.9l-0.3,0.8l-0.9,0.2C183.7,46,182.2,47,181.2,48.4z"/>
	<path d="M121.8,119.9l0.1-2.9l2.4,1.4c5.5,3.3,11.9,6.2,18.3,8.1c7.8,2.4,16.4,3.7,24.5,3.7c5.4,0,10.5-0.6,15.2-1.7
		c12.4-2.8,20.9-8.9,23.3-16.8c0.2-0.8,0.6-2.5,0.7-3.7c0.2-2.4,5.5-57.4,5.6-58.4c2.1-17.1-21.5-34.9-45.3-42.2
		c-13.2-4.1-26.6-4.8-37.8-2.2C117.5,8,109.9,14,107.4,22c-0.8,2.4-1,5-0.8,7.6l0.3,3.5l-2.9-2.1c-0.4-0.3-0.9-0.7-1.4-1
		c-8.8-5.8-20.5-9.1-32.7-9.1c-3.6,0-7.4,0.3-11.1,0.9c-15.3,2.3-29.3,7.7-39.2,15.3C10.9,43.8,6.1,51.4,5.8,59
		c0,1.4,2.5,43.3,3.9,65.4v0.1v0.1c0,1.1,0,2.1,0.2,3.1c1.3,8.6,8.6,15.7,20.5,20.1c11.6,4.3,26.8,5.4,41.9,3.2
		c16-2.4,28.8-6.6,37.3-12.3C117.4,133.6,121.6,127.1,121.8,119.9z M204.8,107.9c-0.1,1-0.4,2.9-0.7,3.5
		c-3.3,10.7-19,17.2-37.3,17.2c-7.7,0-15.8-1.1-23.8-3.5c-7.6-2.3-14.9-5.7-20.9-9.9l-0.7-0.4V114c-2.3-39.6-3.5-59.7-3.5-60v-3.6
		l2.8,2.4c7.4,6.4,16.9,11.4,27.6,14.7c7.8,2.4,16.4,3.7,24.5,3.7c5.4,0,10.5-0.6,15.2-1.7c7.6-1.7,13.9-4.7,18-8.7l3.2-3
		L204.8,107.9z M109.1,22.7c2.3-7.5,9.5-13,20.1-15.6c10.8-2.6,24-1.9,36.9,2.2c28.6,8.8,48.2,28.2,43.6,43
		c-2.3,7.4-10.3,13.1-22.1,15.6c-4.6,1-9.7,1.5-14.9,1.5c-7.9,0-16.3-1.2-24.1-3.6c-13-4-24.6-11-32-19.4l-0.2-0.2l-0.1-0.2
		c-1.3-3.3-3.3-6.4-5.9-9.2l-0.2-0.2l-0.1-0.3C108.2,31.4,107.9,26.8,109.1,22.7z M20.8,38.6c9.8-7.4,23.4-12.7,38.4-15
		c3.6-0.6,7.3-0.8,10.9-0.8c26,0,43.8,14.4,45.9,28.4v0.1l0.2,3.3v0.1c-0.2,6.6-4.1,12.4-11.3,17.4c-8.3,5.6-20.9,9.8-36.6,12.1
		c-5.1,0.8-10.1,1.1-15,1.1c-24.8,0-43.5-9.5-45.4-23C6.6,54.2,11.2,45.9,20.8,38.6z M72.2,149.4c-5.1,0.8-10.1,1.1-15.1,1.1
		c-9.6,0-18.5-1.4-26.1-4.2c-11.2-4.2-18.2-10.8-19.4-18.7v-0.1L8.3,69.6l3.2,3.4c2.5,2.8,5.8,5.2,9.9,7.3c8.5,4.3,19.8,6.6,32,6.6
		c5,0,10.1-0.4,15.3-1.1c16-2.4,28.8-6.6,37.3-12.3c3.4-2.3,6.2-4.8,8.1-7.6l2.8-3.7l3.2,54.5c1.2,7.9-2.6,15-11.1,20.7
		C100.5,142.8,87.8,147,72.2,149.4z"/>
	<g>
		<g>
			<path d="M22,58.4c-0.6,0.4-0.7,1.2-0.3,1.9c0.4,1,1.9,0.1,1.4-0.9c0,0.2,0,0.2,0.1,0.1C24,59,22.8,57.8,22,58.4L22,58.4z"/>
		</g>
	</g>
	<g>
		<g>
			<path d="M29.5,43c0.1,0.2,0.1,0,0,0.2c-0.3,1,1.2,1.4,1.5,0.4c0.2-0.4,0.1-1-0.2-1.4c-0.2-0.3-0.8-0.6-1.1-0.3
				C29.4,42.1,29.2,42.7,29.5,43L29.5,43z"/>
		</g>
	</g>
	<g>
		<g>
			<path d="M22.4,46.5c-0.3,0.2-0.6,0.3-0.7,0.7c-0.6,1,0.9,1.8,1.4,0.9c0,0,0-0.1,0.1-0.1C24.1,47.3,23.3,45.9,22.4,46.5L22.4,46.5
				z"/>
		</g>
	</g>
	<g>
		<g>
			<path d="M14.2,56.1c-0.4,0.3-0.8,0.9-0.9,1.4c-0.3,1,1.2,1.4,1.5,0.4c0.1-0.3,0.2-0.4,0.6-0.7C16.2,56.6,15,55.3,14.2,56.1
				L14.2,56.1z"/>
		</g>
	</g>
	<g>
		<g>
			<path d="M32.5,71c-0.2,0.4-0.3,0.9-0.3,1.4c0,0.4,0.3,0.9,0.9,0.9c0.4,0,0.9-0.3,0.9-0.9c0-0.2,0-0.4,0.1-0.6
				C34.3,70.9,32.9,70,32.5,71L32.5,71z"/>
		</g>
	</g>
	<g>
		<g>
			<path d="M59,73.7c0.1,0.2,0.1,0.2,0,0.4c0,0.4,0.4,0.9,0.9,0.9s0.8-0.3,0.9-0.9c0-0.3,0-0.6-0.1-0.9c-0.1-0.4-0.6-0.7-1-0.6
				S58.9,73.4,59,73.7L59,73.7z"/>
		</g>
	</g>
	<g>
		<g>
			<path d="M119.3,35.2c0.1,0.2,0.1,0.2,0,0.4c0,0.4,0.4,0.9,0.9,0.9s0.8-0.3,0.9-0.9c0-0.3,0-0.6-0.1-0.9c-0.1-0.4-0.6-0.7-1-0.6
				C119.5,34.2,119.2,34.8,119.3,35.2L119.3,35.2z"/>
		</g>
	</g>
	<g>
		<g>
			<path d="M127.5,37.5c0.1,0.2,0.1,0.2,0,0.4c0,0.4,0.4,0.9,0.9,0.9c0.4,0,0.8-0.3,0.9-0.9c0-0.3,0-0.6-0.1-0.9
				c-0.1-0.4-0.6-0.7-1-0.6C127.7,36.6,127.4,37.1,127.5,37.5L127.5,37.5z"/>
		</g>
	</g>
	<g>
		<g>
			<path d="M57.3,76.6c0.1,0.1,0.1,0.2,0.2,0.2c0.6,0.9,2,0,1.4-0.9c-0.1-0.1-0.1-0.2-0.2-0.2C58.1,74.9,56.7,75.7,57.3,76.6
				L57.3,76.6z"/>
		</g>
	</g>
	<g>
		<g>
			<path d="M152.7,58.4c0.1,0.1,0.1,0.2,0.2,0.2c0.6,0.9,2,0,1.4-0.9c-0.1-0.1-0.1-0.2-0.2-0.2C153.6,56.7,152.2,57.5,152.7,58.4
				L152.7,58.4z"/>
		</g>
	</g>
	<g>
		<g>
			<path d="M103,54.1c0.1,0.2,0.2,0.3,0.3,0.6c0.6,0.9,2,0.1,1.4-0.9c-0.1-0.2-0.2-0.3-0.3-0.6C103.9,52.4,102.4,53.3,103,54.1
				L103,54.1z"/>
		</g>
	</g>
	<g>
		<g>
			<path d="M99.2,37L99.2,37c-0.8,0.8,0.3,2,1.1,1.2c0,0,0,0,0.1-0.1C101.1,37.4,100,36.2,99.2,37L99.2,37z"/>
		</g>
	</g>
	<g>
		<g>
			<path d="M184,51.9C184,52,184,52,184,51.9c-0.8,0.8,0.3,2,1.1,1.2c0,0,0,0,0.1-0.1C185.8,52.4,184.7,51.3,184,51.9L184,51.9z"/>
		</g>
	</g>
	<g>
		<g>
			<path d="M124.3,19.5C124.2,19.5,124.2,19.6,124.3,19.5c-0.8,0.8,0.3,2,1.1,1.2c0,0,0,0,0.1-0.1C126.2,19.9,125,18.7,124.3,19.5
				L124.3,19.5z"/>
		</g>
	</g>
	<g>
		<g>
			<path d="M76.4,29.8c0.2,0,0.6,0,0.8,0.1c1,0.4,1.8-1,0.9-1.4c-0.6-0.2-1-0.4-1.5-0.3C75.3,28.2,75.3,29.8,76.4,29.8L76.4,29.8z"
				/>
		</g>
	</g>
	<g>
		<g>
			<path d="M86.9,32.6C86.9,32.7,86.9,32.7,86.9,32.6c0.8,0.8,2-0.3,1.2-1.1c0,0,0,0-0.1-0.1C87.4,30.7,86.1,31.9,86.9,32.6
				L86.9,32.6z"/>
		</g>
	</g>
	<g>
		<g>
			<path d="M62.6,28.8c-1,0.6-0.6,2.1,0.6,2.1c1.1,0,1.1-1.7,0-1.7H63c0.1,0,0.3,0.1,0.4,0.1c0,0.3,0,0.6,0,0.9
				C64.4,29.7,63.6,28.3,62.6,28.8L62.6,28.8z"/>
		</g>
	</g>
	<g>
		<g>
			<path d="M195.6,42.5c-1,0.6-0.6,2.1,0.6,2.1c1.1,0,1.1-1.7,0-1.7h-0.1c0.1,0,0.3,0.1,0.4,0.1c0,0.3,0,0.6,0,0.9
				C197.4,43.5,196.5,42,195.6,42.5L195.6,42.5z"/>
		</g>
	</g>
	<g>
		<g>
			<path d="M85.2,67c0.1,0.7,0.6,1.3,1.2,1.5c1,0.4,1.8-1,0.9-1.4c-0.3-0.1-0.4-0.3-0.4-0.6C86.6,65.5,84.9,65.9,85.2,67L85.2,67z"
				/>
		</g>
	</g>
	<g>
		<g>
			<path d="M171.1,17.7c0.1,0.7,0.6,1.3,1.2,1.5c1,0.4,1.8-1,0.9-1.4c-0.3-0.1-0.4-0.3-0.4-0.6C172.4,16.2,170.9,16.6,171.1,17.7
				L171.1,17.7z"/>
		</g>
	</g>
	<g>
		<g>
			<path d="M95.7,64.6l0.1,0.1c0.8,0.8,1.9-0.4,1.2-1.2l-0.1-0.1C96.2,62.7,95,63.8,95.7,64.6L95.7,64.6z"/>
		</g>
	</g>
	<g>
		<g>
			<path d="M77,72.3c0,0.2,0,0.3,0,0.6c0,1.1,1.7,1.1,1.7,0c0-0.2,0-0.3,0-0.6C78.7,71.2,77,71.2,77,72.3L77,72.3z"/>
		</g>
	</g>
	<g>
		<g>
			<path d="M37.1,75.3c0.2,0.3,0.4,0.6,0.8,0.7c1.4,0.8,2.6-1.3,1.2-2.1c0,0.1,0.1,0.1,0.1,0.2c-0.3-0.6-1.1-0.8-1.7-0.4
				C37,73.9,36.6,74.7,37.1,75.3L37.1,75.3z"/>
		</g>
	</g>
	<g>
		<g>
			<path d="M115.2,25.5c0.2,0.3,0.4,0.6,0.8,0.7c1.4,0.8,2.6-1.3,1.2-2.1c0,0.1,0.1,0.1,0.1,0.2c-0.3-0.6-1.1-0.8-1.7-0.4
				C115.1,24.1,114.8,25,115.2,25.5L115.2,25.5z"/>
		</g>
	</g>
	<g>
		<g>
			<path d="M106.5,45.7c0.4-0.3,0.8-0.6,1.2-0.9c-1.2-1.1-3,0.7-1.8,1.8c0.7,0.6,1.7,0.8,2.3,0.2c0.7-0.6,0.9-1.5,0.3-2.3
				C107.8,43,105.6,44.3,106.5,45.7L106.5,45.7z"/>
		</g>
	</g>
	<g>
		<g>
			<path d="M17.2,63.3c-0.3,0.4-0.3,1.1,0,1.5c0.4,0.6,1.1,0.8,1.7,0.4c0.6-0.3,0.9-1.1,0.4-1.7c0,0,0,0-0.1-0.1
				c0.1,0.2,0.1,0.4,0.2,0.7V64c-0.1,0.2-0.1,0.4-0.2,0.7c0,0,0,0,0.1-0.1c0.4-0.6,0.1-1.4-0.4-1.7C18.2,62.4,17.5,62.7,17.2,63.3
				L17.2,63.3z"/>
		</g>
	</g>
	<g>
		<g>
			<path d="M101.9,65.9C101.9,65.9,101.9,65.8,101.9,65.9c0.3,1.5,2.8,0.9,2.3-0.7c-0.2-0.7-0.6-1.1-1.1-1.4
				C101.8,62.9,100.6,65,101.9,65.9L101.9,65.9z"/>
		</g>
	</g>
	<g>
		<g>
			<path d="M176.5,63.2C176.5,63.2,176.5,63,176.5,63.2c0.3,1.5,2.8,0.9,2.3-0.7c-0.2-0.7-0.6-1.1-1.1-1.4
				C176.4,60.2,175.2,62.3,176.5,63.2L176.5,63.2z"/>
		</g>
	</g>
	<g>
		<g>
			<path d="M12.8,82c2.8,11.7,2.2,23.7,3.4,35.5c0.8,7.7,1.9,16.7,8.6,21.6c0.9,0.7,1.7-0.8,0.9-1.4c-8.5-5.9-8-20.8-8.5-30
				c-0.4-8.8-0.8-17.5-2.8-26C14.2,80.5,12.5,81,12.8,82L12.8,82z"/>
		</g>
	</g>
	<g>
		<g>
			<path d="M112,88.8c0,9.9,0.1,19.8,0,29.7c0,3.2-0.6,7.2-3.2,9.5c-1.7,1.4-4.7,1.8-6.7,2.5c-3.4,1.1-6.5,2.6-9.4,4.7
				c-0.9,0.6,0,2,0.9,1.4c4.6-3.2,9.7-4.1,14.6-6.5c2.6-1.2,4.5-3,5.3-5.8c1.2-4.7,0.2-10.5,0.2-15.3c0-6.7,0-13.4,0-20.1
				C113.7,87.7,112,87.7,112,88.8L112,88.8z"/>
		</g>
	</g>
	<g>
		<g>
			<path d="M38.6,100.3c-0.3,7.8,0.1,15.6,1,23.4c0.1,1,1.8,1.1,1.7,0c-1-7.8-1.3-15.5-1-23.4C40.3,99.2,38.6,99.4,38.6,100.3
				L38.6,100.3z"/>
		</g>
	</g>
	<g>
		<g>
			<path d="M44.6,112.4c0,4.2,0.1,8.3,0.3,12.3c0.1,1.1,1.8,1.1,1.7,0c-0.2-4.1-0.3-8.3-0.3-12.3C46.2,111.3,44.6,111.3,44.6,112.4
				L44.6,112.4z"/>
		</g>
	</g>
	<g>
		<g>
			<path d="M51.7,120.1c-0.3,3.9,0.1,7.7,1.2,11.4c0.3,1,1.9,0.6,1.5-0.4c-1.1-3.6-1.4-7.3-1.2-11C53.5,119.2,51.8,119.2,51.7,120.1
				L51.7,120.1z"/>
		</g>
	</g>
	<g>
		<g>
			<path d="M200.7,72.3c0.3,12.9-0.1,26.6-3.5,39.1c-2.2,7.9-10.9,8.4-17.8,9.4c-7.2,1-14.2,1.4-21.5,1.4c-1.1,0-1.1,1.7,0,1.7
				c8,0,16-0.6,23.9-1.8c5.2-0.8,12.1-1.1,15.3-5.9c3.3-5,3.3-12.8,4.1-18.5c1.1-8.4,1.4-16.8,1.2-25.3
				C202.3,71.3,200.7,71.3,200.7,72.3L200.7,72.3z"/>
		</g>
	</g>
	<g>
		<g>
			<path d="M188.1,82.5c0,6.9,0,13.8,0,20.7c0,1.1,1.7,1.1,1.7,0c0-6.9,0-13.8,0-20.7C189.8,81.4,188.1,81.4,188.1,82.5L188.1,82.5z
				"/>
		</g>
	</g>
	<g>
		<g>
			<path d="M183.3,96.8c-0.7,3.4-1.1,6.9-1.2,10.3c-0.1,1.1,1.5,1.1,1.7,0c0.2-3.3,0.6-6.6,1.2-9.9
				C185.2,96.3,183.5,95.8,183.3,96.8L183.3,96.8z"/>
		</g>
	</g>
	<g>
		<g>
			<path d="M177.7,101.2c-0.3,2.4-0.7,4.7-1,7.2c-0.1,1,1.4,1.5,1.5,0.4c0.3-2.4,0.7-4.7,1-7.2C179.3,100.7,177.8,100.1,177.7,101.2
				L177.7,101.2z"/>
		</g>
	</g>
</g>
<g>
	<path d="M90.5,52c0.2-0.2,0.3-0.4,0.4-0.7c0.3-2-0.2-4.1-1.3-5.8c-2-3.2-5.7-5.5-11.1-6.9c-5.9-1.8-12.8-2.1-20.1-1
		c-7.3,1.1-13.5,3.3-18.5,6.6c-2.8,1.9-9.1,6.8-7.7,13.2c0.2,0.8,0.4,1.4,0.8,2.2c0.1,0.2,0.3,0.4,0.7,0.4c0.1,0,0.4,0,0.7-0.1
		c0.4-0.1,1-0.2,1.5-0.2c2.2,0,4.2,1.7,4.8,3.7c0.1,0.3,0.1,0.7,0.2,1c0,0.3,0.1,0.6,0.1,0.7c0.1,0.2,0.4,0.3,0.8,0.3
		c0.1,0,0.4-0.1,0.8-0.3c0.4-0.2,0.9-0.4,1.5-0.7c1.2-0.2,2.4,0,3.5,0.6c0.9,0.6,1.7,1.3,2.2,2.4c0.1,0.3,0.3,0.6,0.7,0.6
		c0.2,0.1,0.6,0,0.8-0.2c0.1-0.1,0.1-0.2,0.2-0.2c0.2-0.2,0.3-0.4,0.6-0.7c0.4-0.4,1-0.8,1.5-1c0.7-0.2,1.3-0.4,2-0.4
		c0.6,0,1.2,0.1,1.8,0.3c1.3,0.4,2,1.3,2.5,2.1c0.2,0.3,0.6,0.3,0.7,0.3c0.1,0,0.4-0.1,0.7-0.3c0.1-0.1,0.1-0.2,0.2-0.3
		c0.1-0.2,0.2-0.6,0.4-0.8c0.3-0.6,0.9-1,1.3-1.3c1.1-0.8,2.4-1,3.7-0.8c0.7,0.1,1.4,0.4,2,0.9c0.4,0.2,0.7,0.6,0.9,0.9
		c0.1,0.1,0.2,0.2,0.3,0.3s0.3,0.3,1.1,0.1h0.1c0.2-0.1,0.4-0.2,0.6-0.4c0.1-0.1,0.1-0.2,0.2-0.3c0.2-0.6,0.6-1.2,1.2-1.8
		c1.5-1.4,3.9-1.8,5.8-0.8c0.6,0.3,1.4,0.1,1.8-0.4c0.1-0.1,0.1-0.3,0.2-0.6c0.1-0.3,0.2-0.7,0.3-1.1c0.4-0.8,1-1.5,1.8-2
		c0.9-0.7,2.1-0.9,3.2-0.8c0.8,0.1,1,0,1.1-0.2l0.1-0.1c0.1-0.1,0.2-0.3,0.2-1.1c-0.1-1.1,0.2-2.2,0.9-3.1c0.6-0.9,1.3-1.3,1.9-1.7
		V52z M47.4,42.4c12-4.4,24.1-4.8,33.4-1.3l3.7,1.4L64,51.7l-20.8-7.8L47.4,42.4z M63.6,63.4c-0.9,0.3-1.7,0.9-2.4,1.4l-1,0.9
		l-1.1-0.8c-2.2-1.4-5.1-1.4-7.3-0.1l-1.1,0.7l-0.9-0.9c-1.5-1.5-3.9-2.2-5.9-1.8L42.6,63L42,61.8c-1.1-2.5-3.7-4.1-6.5-4L34.1,58
		l-0.2-1.4c-0.6-3.2,1.3-6.5,5.1-9.6c0.6-0.4,1.9-1.3,2.1-1.4l0.7-0.4l21.6,8.1l1.7,9.7L63.6,63.4z M88.7,51.2
		c-1.4,1-2.3,2.5-2.6,4.3l-0.2,1.1l-1.1,0.2c-2.1,0.3-3.9,1.8-4.8,3.6l-0.6,1.1l-1.2-0.2c-2.4-0.6-5,0.4-6.6,2.3l-0.9,1.1L69.4,64
		c-0.6-0.3-1.1-0.6-1.7-0.7l-1.1-0.4L65,53.1l20.9-9.4l0.8,0.8c1.7,1.5,2.5,3.4,2.6,5.3v0.9L88.7,51.2z"/>
	<path d="M184.2,48c0.8-0.4,1.5-0.6,2.1-0.7c0.2,0,0.4-0.1,0.7-0.1c0.2-0.1,0.4-0.2,0.9-1c0.9-1.8,1.1-4,0.7-6.1
		c-1-4-4.1-7.8-9.1-11.4c-5.5-3.9-12.5-6.7-20.1-8c-4.1-0.8-8-1-11.8-0.8c-3.5,0.2-6.5,0.9-9.1,2c-2.4,1-4.3,2.4-5.5,4.1
		c-0.7,0.8-1.1,1.7-1.3,2.6c-0.2,0.8-0.3,1.5-0.4,2.3c0,0.7,0,1.2,0.2,1.5c0.1,0.2,0.4,0.3,0.7,0.3l1.7,0.1v0.3
		c1.4,0.6,2.6,1.9,3,3.5c0.2,1,0.2,2-0.1,2.9c-0.2,0.6-0.1,0.8,0,0.9c0.1,0.2,0.3,0.4,0.6,0.4c0.1,0,0.4,0,0.7,0
		c0.6,0,1.1-0.1,1.9,0.1c2.1,0.6,3.6,2.4,3.9,4.6c0,0.7,0.1,0.8,0.2,0.9c0.2,0.2,0.4,0.2,0.7,0.2c0.1,0,0.4-0.1,0.7-0.2
		c0.4-0.2,0.9-0.4,1.5-0.6c1.2-0.2,2.4,0,3.4,0.6c0.9,0.6,1.7,1.3,2.1,2.3c0.2,0.3,0.2,0.8,0.3,1c0.1,0.2,0.1,0.6,0.2,0.6
		c0.1,0.2,0.4,0.3,0.7,0.3c0.2,0,0.3-0.1,1-0.6c2-1.7,5-1.5,6.8,0.3c0.4,0.4,0.8,1,1.1,1.7c0.1,0.2,0.1,0.3,0.2,0.6
		c0,0.1,0.1,0.3,0.1,0.3c0.1,0.1,0.2,0.3,0.9,0.4h0.2c0.2,0,0.6,0,0.7-0.2l0.2-0.2c0.4-0.4,1-0.9,1.9-1.2c0.6-0.2,1.1-0.3,1.8-0.3
		c1.4,0,2.9,0.7,3.9,1.8c0.3,0.4,0.6,0.4,0.7,0.6c0.3,0.1,0.9,0,1.1-0.1c0.1,0,0.2-0.2,0.4-0.4c0.1-0.2,0.3-0.3,0.4-0.6
		c0.7-0.8,1.7-1.3,2.6-1.5c1.2-0.2,2.4-0.1,3.5,0.4c0.7,0.3,0.9,0.2,1,0.2l0.2-0.1c0.1,0,0.3-0.1,0.6-0.8
		C182.4,49.5,183.2,48.5,184.2,48z M152.9,21.6c8.3,0.6,16.5,3.1,23.2,7.3c1.8,1.1,3.4,2.3,4.8,3.5l3.4,3L154,34.6l-0.2-1.4
		c-0.6-3.7-1.7-7.2-2.5-9.4l-1-2.4L152.9,21.6z M151.5,43.2l-0.6,1.5l-1.5-0.6c-1.1-0.3-2.2-0.4-3.3-0.3l-1.3,0.2l-0.6-1.2
		c-0.9-2-2.6-3.5-4.8-4l-1.3-0.2v-1.3c-0.1-2.3-1.3-4.5-3.4-5.7c-0.3-0.2-0.7-0.3-1-0.4l-1.4-0.6l0.3-1.4c0-0.1,0.2-0.9,0.4-1.3
		c1.8-3.6,6.9-6.1,14-6.6l1.1-0.1l0.4,1C150.5,26.1,154.1,35.2,151.5,43.2z M181.2,48.5l-0.7,1l-1.1-0.2c-2.1-0.4-4.3,0-5.8,1.4
		l-1,0.8l-1-0.8c-2-1.4-4.7-1.5-6.9-0.4l-1.2,0.7l-0.9-1.1c-1.8-2.4-5.1-3.3-7.8-2.2l-1.2,0.4l-1.3-2l0.3-0.9c1-2.2,1.4-4.7,1.5-7.4
		v-1.7l30.9,0.8l0.4,0.8c2.1,3.3,1.2,6.2,0.9,6.9l-0.3,0.8l-0.9,0.2C183.7,46.1,182.2,47.1,181.2,48.5z"/>
	<path d="M121.8,120l0.1-2.9l2.4,1.4c5.5,3.3,11.9,6.2,18.3,8.1c7.8,2.4,16.4,3.7,24.5,3.7c5.4,0,10.5-0.6,15.2-1.7
		c12.4-2.8,20.9-8.9,23.3-16.8c0.2-0.8,0.6-2.5,0.7-3.7c0.2-2.4,5.5-57.4,5.6-58.4C214,32.8,190.5,15,166.6,7.6
		c-13.2-4.1-26.6-4.8-37.8-2.2c-11.2,2.8-18.8,8.7-21.3,16.7c-0.8,2.4-1,5-0.8,7.6l0.3,3.5l-2.9-2.1c-0.4-0.3-0.9-0.7-1.4-1
		C93.8,24.3,82.2,21,70,21c-3.6,0-7.4,0.3-11.1,0.9c-15.3,2.3-29.3,7.7-39.2,15.3C10.9,43.9,6.1,51.5,5.8,59.1
		c0,1.4,2.5,43.3,3.9,65.4v0.1v0.1c0,1.1,0,2.1,0.2,3.1c1.3,8.6,8.6,15.7,20.5,20.1c11.6,4.3,26.8,5.4,41.9,3.2
		c16-2.4,28.8-6.6,37.3-12.3C117.4,133.6,121.6,127.2,121.8,120z M204.8,108c-0.1,1-0.4,2.9-0.7,3.5c-3.3,10.7-19,17.2-37.3,17.2
		c-7.7,0-15.8-1.1-23.8-3.5c-7.6-2.3-14.9-5.7-20.9-9.9l-0.7-0.4v-0.8c-2.3-39.6-3.5-59.7-3.5-60v-3.6l2.8,2.4
		c7.4,6.4,16.9,11.4,27.6,14.7c7.8,2.4,16.4,3.7,24.5,3.7c5.4,0,10.5-0.6,15.2-1.7c7.6-1.7,13.9-4.7,18-8.7l3.2-3L204.8,108z
		 M109.1,22.8c2.3-7.5,9.5-13,20.1-15.6c10.8-2.6,24-1.9,36.9,2.2c28.6,8.8,48.2,28.2,43.6,43c-2.3,7.4-10.3,13.1-22.1,15.6
		c-4.6,1-9.7,1.5-14.9,1.5c-7.9,0-16.3-1.2-24.1-3.6c-13.1-4.1-24.8-11.1-32.1-19.5l-0.2-0.2l-0.1-0.2c-1.3-3.3-3.3-6.4-5.9-9.2
		l-0.2-0.2l-0.1-0.3C108.2,31.5,107.9,27,109.1,22.8z M20.8,38.6c9.8-7.4,23.4-12.7,38.4-15c3.6-0.6,7.3-0.8,10.9-0.8
		c26,0,43.8,14.4,45.9,28.4v0.1l0.2,3.3v0.1c-0.2,6.6-4.1,12.4-11.3,17.4c-8.3,5.6-20.9,9.8-36.6,12.1c-5.1,0.8-10.1,1.1-15,1.1
		c-24.8,0-43.5-9.5-45.4-23C6.6,54.4,11.2,45.9,20.8,38.6z M72.2,149.4c-5.1,0.8-10.1,1.1-15.1,1.1c-9.6,0-18.5-1.4-26.1-4.2
		c-11.2-4.2-18.2-10.8-19.4-18.7v-0.1L8.3,69.8l3.2,3.4c2.5,2.8,5.8,5.2,9.9,7.3c8.5,4.3,19.8,6.6,32,6.6c5,0,10.1-0.4,15.3-1.1
		c16-2.4,28.8-6.6,37.3-12.3c3.4-2.3,6.2-4.8,8.1-7.6l2.8-3.7l3.2,54.5c1.2,7.9-2.6,15-11.1,20.7C100.5,142.9,87.8,147.1,72.2,149.4
		z"/>
	<g>
		<g>
			<path d="M22,58.5c-0.6,0.4-0.7,1.2-0.3,1.9c0.4,1,1.9,0.1,1.4-0.9c0,0.2,0,0.2,0.1,0.1C24,59,22.8,57.9,22,58.5L22,58.5z"/>
		</g>
	</g>
	<g>
		<g>
			<path d="M29.5,43.1c0.1,0.2,0.1,0,0,0.2c-0.3,1,1.2,1.4,1.5,0.4c0.2-0.4,0.1-1-0.2-1.4C30.6,42,30,41.8,29.7,42
				C29.4,42.3,29.2,42.8,29.5,43.1L29.5,43.1z"/>
		</g>
	</g>
	<g>
		<g>
			<path d="M22.4,46.5c-0.3,0.2-0.6,0.3-0.7,0.7c-0.6,1,0.9,1.8,1.4,0.9c0,0,0-0.1,0.1-0.1C24.1,47.4,23.3,46,22.4,46.5L22.4,46.5z"
				/>
		</g>
	</g>
	<g>
		<g>
			<path d="M14.2,56.1c-0.4,0.3-0.8,0.9-0.9,1.4c-0.3,1,1.2,1.4,1.5,0.4c0.1-0.3,0.2-0.4,0.6-0.7C16.2,56.7,15,55.5,14.2,56.1
				L14.2,56.1z"/>
		</g>
	</g>
	<g>
		<g>
			<path d="M32.5,71c-0.2,0.4-0.3,0.9-0.3,1.4c0,0.4,0.3,0.9,0.9,0.9c0.4,0,0.9-0.3,0.9-0.9c0-0.2,0-0.4,0.1-0.6
				C34.3,70.9,32.9,70.1,32.5,71L32.5,71z"/>
		</g>
	</g>
	<g>
		<g>
			<path d="M59,73.8c0.1,0.2,0.1,0.2,0,0.4c0,0.4,0.4,0.9,0.9,0.9s0.8-0.3,0.9-0.9c0-0.3,0-0.6-0.1-0.9c-0.1-0.4-0.6-0.7-1-0.6
				S58.9,73.4,59,73.8L59,73.8z"/>
		</g>
	</g>
	<g>
		<g>
			<path d="M119.3,35.2c0.1,0.2,0.1,0.2,0,0.4c0,0.4,0.4,0.9,0.9,0.9s0.8-0.3,0.9-0.9c0-0.3,0-0.6-0.1-0.9c-0.1-0.4-0.6-0.7-1-0.6
				C119.5,34.3,119.2,34.9,119.3,35.2L119.3,35.2z"/>
		</g>
	</g>
	<g>
		<g>
			<path d="M127.5,37.5c0.1,0.2,0.1,0.2,0,0.4c0,0.4,0.4,0.9,0.9,0.9c0.4,0,0.8-0.3,0.9-0.9c0-0.3,0-0.6-0.1-0.9
				c-0.1-0.4-0.6-0.7-1-0.6C127.7,36.6,127.4,37.2,127.5,37.5L127.5,37.5z"/>
		</g>
	</g>
	<g>
		<g>
			<path d="M57.3,76.7c0.1,0.1,0.1,0.2,0.2,0.2c0.6,0.9,2,0,1.4-0.9c-0.1-0.1-0.1-0.2-0.2-0.2C58.1,75,56.7,75.8,57.3,76.7
				L57.3,76.7z"/>
		</g>
	</g>
	<g>
		<g>
			<path d="M152.7,58.4c0.1,0.1,0.1,0.2,0.2,0.2c0.6,0.9,2,0,1.4-0.9c-0.1-0.1-0.1-0.2-0.2-0.2C153.6,56.8,152.2,57.5,152.7,58.4
				L152.7,58.4z"/>
		</g>
	</g>
	<g>
		<g>
			<path d="M103,54.2c0.1,0.2,0.2,0.3,0.3,0.6c0.6,0.9,2,0.1,1.4-0.9c-0.1-0.2-0.2-0.3-0.3-0.6C103.9,52.5,102.4,53.3,103,54.2
				L103,54.2z"/>
		</g>
	</g>
	<g>
		<g>
			<path d="M99.2,37C99.2,37.1,99.1,37.1,99.2,37c-0.8,0.8,0.3,2,1.1,1.2c0,0,0,0,0.1-0.1C101.1,37.4,100,36.3,99.2,37L99.2,37z"/>
		</g>
	</g>
	<g>
		<g>
			<path d="M184,52C184,52,183.8,52,184,52c-0.8,0.8,0.3,2,1.1,1.2c0,0,0,0,0.1-0.1C185.8,52.5,184.7,51.3,184,52L184,52z"/>
		</g>
	</g>
	<g>
		<g>
			<path d="M124.3,19.6C124.2,19.6,124.2,19.6,124.3,19.6c-0.8,0.8,0.3,2,1.1,1.2c0,0,0,0,0.1-0.1C126.2,20,125,18.8,124.3,19.6
				L124.3,19.6z"/>
		</g>
	</g>
	<g>
		<g>
			<path d="M76.4,29.8c0.2,0,0.6,0,0.8,0.1c1,0.4,1.8-1,0.9-1.4c-0.6-0.2-1-0.4-1.5-0.3C75.3,28.3,75.3,29.9,76.4,29.8L76.4,29.8z"
				/>
		</g>
	</g>
	<g>
		<g>
			<path d="M86.9,32.7C86.9,32.7,86.9,32.8,86.9,32.7c0.8,0.8,2-0.3,1.2-1.1c0,0,0,0-0.1-0.1C87.4,30.8,86.1,31.9,86.9,32.7
				L86.9,32.7z"/>
		</g>
	</g>
	<g>
		<g>
			<path d="M62.6,28.8c-1,0.6-0.6,2.1,0.6,2.1c1.1,0,1.1-1.7,0-1.7H63c0.1,0,0.3,0.1,0.4,0.1c0,0.3,0,0.6,0,0.9
				C64.4,29.8,63.6,28.4,62.6,28.8L62.6,28.8z"/>
		</g>
	</g>
	<g>
		<g>
			<path d="M195.6,42.6c-1,0.6-0.6,2.1,0.6,2.1c1.1,0,1.1-1.7,0-1.7h-0.1c0.1,0,0.3,0.1,0.4,0.1c0,0.3,0,0.6,0,0.9
				C197.4,43.5,196.5,42,195.6,42.6L195.6,42.6z"/>
		</g>
	</g>
	<g>
		<g>
			<path d="M85.2,67c0.1,0.7,0.6,1.3,1.2,1.5c1,0.4,1.8-1,0.9-1.4c-0.3-0.1-0.4-0.3-0.4-0.6C86.6,65.6,84.9,66,85.2,67L85.2,67z"/>
		</g>
	</g>
	<g>
		<g>
			<path d="M171.1,17.7c0.1,0.7,0.6,1.3,1.2,1.5c1,0.4,1.8-1,0.9-1.4c-0.3-0.1-0.4-0.3-0.4-0.6C172.4,16.3,170.9,16.7,171.1,17.7
				L171.1,17.7z"/>
		</g>
	</g>
	<g>
		<g>
			<path d="M95.7,64.7l0.1,0.1c0.8,0.8,1.9-0.4,1.2-1.2l-0.1-0.1C96.2,62.7,95,63.9,95.7,64.7L95.7,64.7z"/>
		</g>
	</g>
	<g>
		<g>
			<path d="M77,72.3c0,0.2,0,0.3,0,0.6c0,1.1,1.7,1.1,1.7,0c0-0.2,0-0.3,0-0.6C78.7,71.3,77,71.3,77,72.3L77,72.3z"/>
		</g>
	</g>
	<g>
		<g>
			<path d="M37.1,75.4c0.2,0.3,0.4,0.6,0.8,0.7c1.4,0.8,2.6-1.3,1.2-2.1c0,0.1,0.1,0.1,0.1,0.2c-0.3-0.6-1.1-0.8-1.7-0.4
				C37,74,36.6,74.8,37.1,75.4L37.1,75.4z"/>
		</g>
	</g>
	<g>
		<g>
			<path d="M115.2,25.6c0.2,0.3,0.4,0.6,0.8,0.7c1.4,0.8,2.6-1.3,1.2-2.1c0,0.1,0.1,0.1,0.1,0.2c-0.3-0.6-1.1-0.8-1.7-0.4
				C115.1,24.2,114.8,25.1,115.2,25.6L115.2,25.6z"/>
		</g>
	</g>
	<g>
		<g>
			<path d="M106.5,45.8c0.4-0.3,0.8-0.6,1.2-0.9c-1.2-1.1-3,0.7-1.8,1.8c0.7,0.6,1.7,0.8,2.3,0.2c0.7-0.6,0.9-1.5,0.3-2.3
				C107.8,43.1,105.6,44.3,106.5,45.8L106.5,45.8z"/>
		</g>
	</g>
	<g>
		<g>
			<path d="M17.2,63.4c-0.3,0.4-0.3,1.1,0,1.5c0.4,0.6,1.1,0.8,1.7,0.4s0.9-1.1,0.4-1.7c0,0,0,0-0.1-0.1c0.1,0.2,0.1,0.4,0.2,0.7
				v-0.1c-0.1,0.2-0.1,0.4-0.2,0.7c0,0,0,0,0.1-0.1c0.4-0.6,0.1-1.4-0.4-1.7C18.2,62.5,17.5,62.8,17.2,63.4L17.2,63.4z"/>
		</g>
	</g>
	<g>
		<g>
			<path d="M101.9,65.9L101.9,65.9c0.3,1.5,2.8,0.9,2.3-0.7c-0.2-0.7-0.6-1.1-1.1-1.4C101.8,62.9,100.6,65.1,101.9,65.9L101.9,65.9z
				"/>
		</g>
	</g>
	<g>
		<g>
			<path d="M176.5,63.2L176.5,63.2c0.3,1.5,2.8,0.9,2.3-0.7c-0.2-0.7-0.6-1.1-1.1-1.4C176.4,60.2,175.2,62.4,176.5,63.2L176.5,63.2z
				"/>
		</g>
	</g>
	<g>
		<g>
			<path d="M12.8,82.1c2.8,11.7,2.2,23.7,3.4,35.5c0.8,7.7,1.9,16.7,8.6,21.6c0.9,0.7,1.7-0.8,0.9-1.4c-8.5-5.9-8-20.8-8.5-30
				c-0.4-8.8-0.8-17.5-2.8-26C14.2,80.5,12.5,81,12.8,82.1L12.8,82.1z"/>
		</g>
	</g>
	<g>
		<g>
			<path d="M112,88.9c0,9.9,0.1,19.8,0,29.7c0,3.2-0.6,7.2-3.2,9.5c-1.7,1.4-4.7,1.8-6.7,2.5c-3.4,1.1-6.5,2.6-9.4,4.7
				c-0.9,0.6,0,2,0.9,1.4c4.6-3.2,9.7-4.1,14.6-6.5c2.6-1.2,4.5-3,5.3-5.8c1.2-4.7,0.2-10.5,0.2-15.3c0-6.7,0-13.4,0-20.1
				C113.7,87.8,112,87.8,112,88.9L112,88.9z"/>
		</g>
	</g>
	<g>
		<g>
			<path d="M38.6,100.5c-0.3,7.8,0.1,15.6,1,23.4c0.1,1,1.8,1.1,1.7,0c-1-7.8-1.3-15.5-1-23.4C40.3,99.4,38.6,99.4,38.6,100.5
				L38.6,100.5z"/>
		</g>
	</g>
	<g>
		<g>
			<path d="M44.6,112.6c0,4.2,0.1,8.3,0.3,12.3c0.1,1.1,1.8,1.1,1.7,0c-0.2-4.1-0.3-8.3-0.3-12.3C46.2,111.5,44.6,111.5,44.6,112.6
				L44.6,112.6z"/>
		</g>
	</g>
	<g>
		<g>
			<path d="M51.7,120.3c-0.3,3.9,0.1,7.7,1.2,11.4c0.3,1,1.9,0.6,1.5-0.4c-1.1-3.6-1.4-7.3-1.2-11C53.5,119.2,51.8,119.2,51.7,120.3
				L51.7,120.3z"/>
		</g>
	</g>
	<g>
		<g>
			<path d="M200.7,72.4c0.3,12.9-0.1,26.6-3.5,39.1c-2.2,7.9-10.9,8.4-17.8,9.4c-7.2,1-14.2,1.4-21.5,1.4c-1.1,0-1.1,1.7,0,1.7
				c8,0,16-0.6,23.9-1.8c5.2-0.8,12.1-1.1,15.3-5.9c3.3-5,3.3-12.8,4.1-18.5c1.1-8.4,1.4-16.8,1.2-25.3
				C202.3,71.3,200.7,71.3,200.7,72.4L200.7,72.4z"/>
		</g>
	</g>
	<g>
		<g>
			<path d="M188.1,82.5c0,6.9,0,13.8,0,20.7c0,1.1,1.7,1.1,1.7,0c0-6.9,0-13.8,0-20.7C189.8,81.5,188.1,81.5,188.1,82.5L188.1,82.5z
				"/>
		</g>
	</g>
	<g>
		<g>
			<path d="M183.3,96.9c-0.7,3.4-1.1,6.9-1.2,10.3c-0.1,1.1,1.5,1.1,1.7,0c0.2-3.3,0.6-6.6,1.2-9.9
				C185.2,96.4,183.5,95.8,183.3,96.9L183.3,96.9z"/>
		</g>
	</g>
	<g>
		<g>
			<path d="M177.7,101.3c-0.3,2.4-0.7,4.7-1,7.2c-0.1,1,1.4,1.5,1.5,0.4c0.3-2.4,0.7-4.7,1-7.2C179.3,100.7,177.8,100.2,177.7,101.3
				L177.7,101.3z"/>
		</g>
	</g>
</g>
<g>
	<path d="M90.5,51.9c0.2-0.2,0.3-0.4,0.4-0.7c0.3-2-0.2-4.1-1.3-5.8c-2-3.2-5.7-5.5-11.1-6.9c-5.9-1.8-12.8-2-20.1-0.9
		c-7.3,1.1-13.5,3.3-18.5,6.6c-2.8,1.9-9.1,6.8-7.7,13.2c0.2,0.8,0.4,1.4,0.8,2.2c0.1,0.2,0.3,0.4,0.7,0.4c0.1,0,0.4,0,0.7-0.1
		c0.4-0.1,1-0.2,1.5-0.2c2.2,0,4.2,1.7,4.8,3.7c0.1,0.3,0.1,0.7,0.2,1c0,0.3,0.1,0.6,0.1,0.7c0.1,0.2,0.4,0.3,0.8,0.3
		c0.1,0,0.4-0.1,0.8-0.3c0.4-0.2,0.9-0.4,1.5-0.7c1.2-0.2,2.4,0,3.5,0.6c0.9,0.6,1.7,1.3,2.2,2.4c0.1,0.3,0.3,0.6,0.7,0.6
		c0.2,0.1,0.6,0,0.8-0.2c0.1-0.1,0.1-0.2,0.2-0.2c0.2-0.2,0.3-0.4,0.6-0.7c0.4-0.4,1-0.8,1.5-1c0.7-0.2,1.3-0.4,2-0.4
		c0.6,0,1.2,0.1,1.8,0.3c1.3,0.4,2,1.3,2.5,2.1c0.2,0.3,0.6,0.3,0.7,0.3c0.1,0,0.4-0.1,0.7-0.3c0.1-0.1,0.1-0.2,0.2-0.3
		c0.1-0.2,0.2-0.6,0.4-0.8c0.3-0.6,0.9-1,1.3-1.3c1.1-0.8,2.4-1,3.7-0.8c0.7,0.1,1.4,0.4,2,0.9c0.4,0.2,0.7,0.6,0.9,0.9
		c0.1,0.1,0.2,0.2,0.3,0.3s0.3,0.3,1.1,0.1h0.1c0.2-0.1,0.4-0.2,0.6-0.4c0.1-0.1,0.1-0.2,0.2-0.3c0.2-0.6,0.6-1.2,1.2-1.8
		c1.5-1.4,3.9-1.8,5.8-0.8c0.6,0.3,1.4,0.1,1.8-0.4c0.1-0.1,0.1-0.3,0.2-0.6c0.1-0.3,0.2-0.7,0.3-1.1c0.4-0.8,1-1.5,1.8-2
		c0.9-0.7,2.1-0.9,3.2-0.8c0.8,0.1,1,0,1.1-0.2l0.1-0.1c0.1-0.1,0.2-0.3,0.2-1.1c-0.1-1.1,0.2-2.2,0.9-3.1c0.6-0.9,1.3-1.3,1.9-1.7
		V51.9z M47.4,42.3c12-4.4,24.1-4.8,33.4-1.3l3.7,1.4L64,51.6l-20.8-7.8L47.4,42.3z M63.6,63.3c-0.9,0.3-1.7,0.9-2.4,1.4l-1,0.9
		l-1.1-0.8c-2.2-1.4-5.1-1.4-7.3-0.1l-1.1,0.7l-0.9-0.9c-1.5-1.5-3.9-2.2-5.9-1.8l-1.3,0.2L42,61.7c-1.1-2.5-3.7-4.1-6.5-4l-1.4,0.1
		l-0.2-1.4c-0.6-3.2,1.3-6.5,5.1-9.6c0.6-0.4,1.9-1.3,2.1-1.4l0.7-0.4l21.6,8.1l1.7,9.7L63.6,63.3z M88.7,51.1
		c-1.4,1-2.3,2.5-2.6,4.3l-0.2,1.1l-1.1,0.2c-2.1,0.3-3.9,1.8-4.8,3.6l-0.6,1.1l-1.2-0.2c-2.4-0.6-5,0.4-6.6,2.3l-0.9,1.1l-1.2-0.7
		c-0.6-0.3-1.1-0.6-1.7-0.7l-1-0.2l-1.9-10l20.9-9.4l0.8,0.8c1.7,1.5,2.5,3.4,2.6,5.3v0.9L88.7,51.1z"/>
	<path d="M184.2,47.9c0.8-0.4,1.5-0.6,2.1-0.7c0.2,0,0.4-0.1,0.7-0.1c0.2-0.1,0.4-0.2,0.9-1c0.9-1.8,1.1-4,0.7-6.1
		c-1-4-4.1-7.8-9.1-11.4c-5.5-3.9-12.5-6.7-20.1-8c-4.1-0.8-8-1-11.8-0.8c-3.5,0.2-6.5,0.9-9.1,2c-2.4,1-4.3,2.4-5.5,4.1
		c-0.7,0.8-1.1,1.7-1.3,2.6c-0.2,0.8-0.3,1.5-0.4,2.3c0,0.7,0,1.2,0.2,1.5c0.1,0.2,0.4,0.3,0.7,0.3l1.7,0.1v0.3
		c1.4,0.6,2.6,1.9,3,3.5c0.2,1,0.2,2-0.1,2.9c-0.2,0.6-0.1,0.8,0,0.9c0.1,0.2,0.3,0.4,0.6,0.4c0.1,0,0.4,0,0.7,0
		c0.6,0,1.1-0.1,1.9,0.1c2.1,0.6,3.6,2.4,3.9,4.6c0,0.7,0.1,0.8,0.2,0.9c0.2,0.2,0.4,0.2,0.7,0.2c0.1,0,0.4-0.1,0.7-0.2
		c0.4-0.2,0.9-0.4,1.5-0.6c1.2-0.2,2.4,0,3.4,0.6c0.9,0.6,1.7,1.3,2.1,2.3c0.2,0.3,0.2,0.8,0.3,1s0.1,0.6,0.2,0.6
		c0.1,0.2,0.4,0.3,0.7,0.3c0.2,0,0.3-0.1,1-0.6c2-1.7,5-1.5,6.8,0.3c0.4,0.4,0.8,1,1.1,1.7c0.1,0.2,0.1,0.3,0.2,0.6
		c0,0.1,0.1,0.3,0.1,0.3c0.1,0.1,0.2,0.3,0.9,0.4h0.2c0.2,0,0.6,0,0.7-0.2l0.2-0.2c0.4-0.4,1-0.9,1.9-1.2c0.6-0.2,1.1-0.3,1.8-0.3
		c1.4,0,2.9,0.7,3.9,1.8c0.3,0.4,0.6,0.4,0.7,0.6c0.3,0.1,0.9,0,1.1-0.1c0.1,0,0.2-0.2,0.4-0.4c0.1-0.2,0.3-0.3,0.4-0.6
		c0.7-0.8,1.7-1.3,2.6-1.5c1.2-0.2,2.4-0.1,3.5,0.4c0.7,0.3,0.9,0.2,1,0.2l0.2-0.1c0.1,0,0.3-0.1,0.6-0.8
		C182.4,49.5,183.2,48.5,184.2,47.9z M152.9,21.5c8.3,0.6,16.5,3.1,23.2,7.3c1.8,1.1,3.4,2.3,4.8,3.5l3.4,3L154,34.4l-0.2-1.4
		c-0.6-3.7-1.7-7.2-2.5-9.4l-1-2.4L152.9,21.5z M151.5,43.2l-0.6,1.5l-1.5-0.6c-1.1-0.3-2.2-0.4-3.3-0.3l-1.3,0.2l-0.6-1.2
		c-0.9-2-2.6-3.5-4.8-4l-1.3-0.2v-1.3c-0.1-2.3-1.3-4.5-3.4-5.7c-0.3-0.2-0.7-0.3-1-0.4l-1.4-0.6l0.3-1.4c0-0.1,0.2-0.9,0.4-1.3
		c1.8-3.6,6.9-6.1,14-6.6l1.1-0.1l0.4,1C150.6,26,154.1,35.1,151.5,43.2z M181.2,48.4l-0.7,1l-1.1-0.2c-2.1-0.4-4.3,0-5.8,1.4
		l-1,0.8l-1-0.8c-2-1.4-4.7-1.5-6.9-0.4l-1.3,0.7l-0.9-1.1c-1.8-2.4-5.1-3.3-7.8-2.2l-1.2,0.4l-1.3-2l0.3-0.9c1-2.2,1.4-4.7,1.5-7.4
		v-1.7l30.9,0.8l0.4,0.8c2.1,3.3,1.2,6.2,0.9,6.9l-0.3,0.8l-0.9,0.2C183.7,46,182.2,47,181.2,48.4z"/>
	<path d="M121.8,119.9l0.1-2.9l2.4,1.4c5.5,3.3,11.9,6.2,18.3,8.1c7.8,2.4,16.4,3.7,24.5,3.7c5.4,0,10.5-0.6,15.2-1.7
		c12.4-2.8,20.9-8.9,23.3-16.8c0.2-0.8,0.6-2.5,0.7-3.7c0.2-2.4,5.5-57.4,5.6-58.4c2.1-17.1-21.5-34.9-45.3-42.2
		c-13.2-4.1-26.6-4.8-37.8-2.2C117.5,8,109.9,14,107.4,22c-0.8,2.4-1,5-0.8,7.6l0.3,3.5l-2.9-2.1c-0.4-0.3-0.9-0.7-1.4-1
		c-8.8-5.8-20.5-9.1-32.7-9.1c-3.6,0-7.4,0.3-11.1,0.9c-15.3,2.3-29.3,7.7-39.2,15.3C10.9,43.8,6.1,51.4,5.8,59
		c0,1.4,2.5,43.3,3.9,65.4v0.1v0.1c0,1.1,0,2.1,0.2,3.1c1.3,8.6,8.6,15.7,20.5,20.1c11.6,4.3,26.8,5.4,41.9,3.2
		c16-2.4,28.8-6.6,37.3-12.3C117.4,133.6,121.6,127.1,121.8,119.9z M204.8,107.9c-0.1,1-0.4,2.9-0.7,3.5
		c-3.3,10.7-19,17.2-37.3,17.2c-7.7,0-15.8-1.1-23.8-3.5c-7.6-2.3-14.9-5.7-20.9-9.9l-0.7-0.4V114c-2.3-39.6-3.5-59.7-3.5-60v-3.6
		l2.8,2.4c7.4,6.4,16.9,11.4,27.6,14.7c7.8,2.4,16.4,3.7,24.5,3.7c5.4,0,10.5-0.6,15.2-1.7c7.6-1.7,13.9-4.7,18-8.7l3.2-3
		L204.8,107.9z M109.1,22.7c2.3-7.5,9.5-13,20.1-15.6c10.8-2.6,24-1.9,36.9,2.2c28.6,8.8,48.2,28.2,43.6,43
		c-2.3,7.4-10.3,13.1-22.1,15.6c-4.6,1-9.7,1.5-14.9,1.5c-7.9,0-16.3-1.2-24.1-3.6c-13-4-24.6-11-32-19.4l-0.2-0.2l-0.1-0.2
		c-1.3-3.3-3.3-6.4-5.9-9.2l-0.2-0.2l-0.1-0.3C108.2,31.4,107.9,26.8,109.1,22.7z M20.8,38.6c9.8-7.4,23.4-12.7,38.4-15
		c3.6-0.6,7.3-0.8,10.9-0.8c26,0,43.8,14.4,45.9,28.4v0.1l0.2,3.3v0.1c-0.2,6.6-4.1,12.4-11.3,17.4c-8.3,5.6-20.9,9.8-36.6,12.1
		c-5.1,0.8-10.1,1.1-15,1.1c-24.8,0-43.5-9.5-45.4-23C6.6,54.2,11.2,45.9,20.8,38.6z M72.2,149.4c-5.1,0.8-10.1,1.1-15.1,1.1
		c-9.6,0-18.5-1.4-26.1-4.2c-11.2-4.2-18.2-10.8-19.4-18.7v-0.1L8.3,69.6l3.2,3.4c2.5,2.8,5.8,5.2,9.9,7.3c8.5,4.3,19.8,6.6,32,6.6
		c5,0,10.1-0.4,15.3-1.1c16-2.4,28.8-6.6,37.3-12.3c3.4-2.3,6.2-4.8,8.1-7.6l2.8-3.7l3.2,54.5c1.2,7.9-2.6,15-11.1,20.7
		C100.5,142.8,87.8,147,72.2,149.4z"/>
	<g>
		<g>
			<path d="M22,58.4c-0.6,0.4-0.7,1.2-0.3,1.9c0.4,1,1.9,0.1,1.4-0.9c0,0.2,0,0.2,0.1,0.1C24,59,22.8,57.8,22,58.4L22,58.4z"/>
		</g>
	</g>
	<g>
		<g>
			<path d="M29.5,43c0.1,0.2,0.1,0,0,0.2c-0.3,1,1.2,1.4,1.5,0.4c0.2-0.4,0.1-1-0.2-1.4c-0.2-0.3-0.8-0.6-1.1-0.3
				C29.4,42.1,29.2,42.7,29.5,43L29.5,43z"/>
		</g>
	</g>
	<g>
		<g>
			<path d="M22.4,46.5c-0.3,0.2-0.6,0.3-0.7,0.7c-0.6,1,0.9,1.8,1.4,0.9c0,0,0-0.1,0.1-0.1C24.1,47.3,23.3,45.9,22.4,46.5L22.4,46.5
				z"/>
		</g>
	</g>
	<g>
		<g>
			<path d="M14.2,56.1c-0.4,0.3-0.8,0.9-0.9,1.4c-0.3,1,1.2,1.4,1.5,0.4c0.1-0.3,0.2-0.4,0.6-0.7C16.2,56.6,15,55.3,14.2,56.1
				L14.2,56.1z"/>
		</g>
	</g>
	<g>
		<g>
			<path d="M32.5,71c-0.2,0.4-0.3,0.9-0.3,1.4c0,0.4,0.3,0.9,0.9,0.9c0.4,0,0.9-0.3,0.9-0.9c0-0.2,0-0.4,0.1-0.6
				C34.3,70.9,32.9,70,32.5,71L32.5,71z"/>
		</g>
	</g>
	<g>
		<g>
			<path d="M59,73.7c0.1,0.2,0.1,0.2,0,0.4c0,0.4,0.4,0.9,0.9,0.9s0.8-0.3,0.9-0.9c0-0.3,0-0.6-0.1-0.9c-0.1-0.4-0.6-0.7-1-0.6
				S58.9,73.4,59,73.7L59,73.7z"/>
		</g>
	</g>
	<g>
		<g>
			<path d="M119.3,35.2c0.1,0.2,0.1,0.2,0,0.4c0,0.4,0.4,0.9,0.9,0.9s0.8-0.3,0.9-0.9c0-0.3,0-0.6-0.1-0.9c-0.1-0.4-0.6-0.7-1-0.6
				C119.5,34.2,119.2,34.8,119.3,35.2L119.3,35.2z"/>
		</g>
	</g>
	<g>
		<g>
			<path d="M127.5,37.5c0.1,0.2,0.1,0.2,0,0.4c0,0.4,0.4,0.9,0.9,0.9c0.4,0,0.8-0.3,0.9-0.9c0-0.3,0-0.6-0.1-0.9
				c-0.1-0.4-0.6-0.7-1-0.6C127.7,36.6,127.4,37.1,127.5,37.5L127.5,37.5z"/>
		</g>
	</g>
	<g>
		<g>
			<path d="M57.3,76.6c0.1,0.1,0.1,0.2,0.2,0.2c0.6,0.9,2,0,1.4-0.9c-0.1-0.1-0.1-0.2-0.2-0.2C58.1,74.9,56.7,75.7,57.3,76.6
				L57.3,76.6z"/>
		</g>
	</g>
	<g>
		<g>
			<path d="M152.7,58.4c0.1,0.1,0.1,0.2,0.2,0.2c0.6,0.9,2,0,1.4-0.9c-0.1-0.1-0.1-0.2-0.2-0.2C153.6,56.7,152.2,57.5,152.7,58.4
				L152.7,58.4z"/>
		</g>
	</g>
	<g>
		<g>
			<path d="M103,54.1c0.1,0.2,0.2,0.3,0.3,0.6c0.6,0.9,2,0.1,1.4-0.9c-0.1-0.2-0.2-0.3-0.3-0.6C103.9,52.4,102.4,53.3,103,54.1
				L103,54.1z"/>
		</g>
	</g>
	<g>
		<g>
			<path d="M99.2,37L99.2,37c-0.8,0.8,0.3,2,1.1,1.2c0,0,0,0,0.1-0.1C101.1,37.4,100,36.2,99.2,37L99.2,37z"/>
		</g>
	</g>
	<g>
		<g>
			<path d="M184,51.9C184,52,184,52,184,51.9c-0.8,0.8,0.3,2,1.1,1.2c0,0,0,0,0.1-0.1C185.8,52.4,184.7,51.3,184,51.9L184,51.9z"/>
		</g>
	</g>
	<g>
		<g>
			<path d="M124.3,19.5C124.2,19.5,124.2,19.6,124.3,19.5c-0.8,0.8,0.3,2,1.1,1.2c0,0,0,0,0.1-0.1C126.2,19.9,125,18.7,124.3,19.5
				L124.3,19.5z"/>
		</g>
	</g>
	<g>
		<g>
			<path d="M76.4,29.8c0.2,0,0.6,0,0.8,0.1c1,0.4,1.8-1,0.9-1.4c-0.6-0.2-1-0.4-1.5-0.3C75.3,28.2,75.3,29.8,76.4,29.8L76.4,29.8z"
				/>
		</g>
	</g>
	<g>
		<g>
			<path d="M86.9,32.6C86.9,32.7,86.9,32.7,86.9,32.6c0.8,0.8,2-0.3,1.2-1.1c0,0,0,0-0.1-0.1C87.4,30.7,86.1,31.9,86.9,32.6
				L86.9,32.6z"/>
		</g>
	</g>
	<g>
		<g>
			<path d="M62.6,28.8c-1,0.6-0.6,2.1,0.6,2.1c1.1,0,1.1-1.7,0-1.7H63c0.1,0,0.3,0.1,0.4,0.1c0,0.3,0,0.6,0,0.9
				C64.4,29.7,63.6,28.3,62.6,28.8L62.6,28.8z"/>
		</g>
	</g>
	<g>
		<g>
			<path d="M195.6,42.5c-1,0.6-0.6,2.1,0.6,2.1c1.1,0,1.1-1.7,0-1.7h-0.1c0.1,0,0.3,0.1,0.4,0.1c0,0.3,0,0.6,0,0.9
				C197.4,43.5,196.5,42,195.6,42.5L195.6,42.5z"/>
		</g>
	</g>
	<g>
		<g>
			<path d="M85.2,67c0.1,0.7,0.6,1.3,1.2,1.5c1,0.4,1.8-1,0.9-1.4c-0.3-0.1-0.4-0.3-0.4-0.6C86.6,65.5,84.9,65.9,85.2,67L85.2,67z"
				/>
		</g>
	</g>
	<g>
		<g>
			<path d="M171.1,17.7c0.1,0.7,0.6,1.3,1.2,1.5c1,0.4,1.8-1,0.9-1.4c-0.3-0.1-0.4-0.3-0.4-0.6C172.4,16.2,170.9,16.6,171.1,17.7
				L171.1,17.7z"/>
		</g>
	</g>
	<g>
		<g>
			<path d="M95.7,64.6l0.1,0.1c0.8,0.8,1.9-0.4,1.2-1.2l-0.1-0.1C96.2,62.7,95,63.8,95.7,64.6L95.7,64.6z"/>
		</g>
	</g>
	<g>
		<g>
			<path d="M77,72.3c0,0.2,0,0.3,0,0.6c0,1.1,1.7,1.1,1.7,0c0-0.2,0-0.3,0-0.6C78.7,71.2,77,71.2,77,72.3L77,72.3z"/>
		</g>
	</g>
	<g>
		<g>
			<path d="M37.1,75.3c0.2,0.3,0.4,0.6,0.8,0.7c1.4,0.8,2.6-1.3,1.2-2.1c0,0.1,0.1,0.1,0.1,0.2c-0.3-0.6-1.1-0.8-1.7-0.4
				C37,73.9,36.6,74.7,37.1,75.3L37.1,75.3z"/>
		</g>
	</g>
	<g>
		<g>
			<path d="M115.2,25.5c0.2,0.3,0.4,0.6,0.8,0.7c1.4,0.8,2.6-1.3,1.2-2.1c0,0.1,0.1,0.1,0.1,0.2c-0.3-0.6-1.1-0.8-1.7-0.4
				C115.1,24.1,114.8,25,115.2,25.5L115.2,25.5z"/>
		</g>
	</g>
	<g>
		<g>
			<path d="M106.5,45.7c0.4-0.3,0.8-0.6,1.2-0.9c-1.2-1.1-3,0.7-1.8,1.8c0.7,0.6,1.7,0.8,2.3,0.2c0.7-0.6,0.9-1.5,0.3-2.3
				C107.8,43,105.6,44.3,106.5,45.7L106.5,45.7z"/>
		</g>
	</g>
	<g>
		<g>
			<path d="M17.2,63.3c-0.3,0.4-0.3,1.1,0,1.5c0.4,0.6,1.1,0.8,1.7,0.4c0.6-0.3,0.9-1.1,0.4-1.7c0,0,0,0-0.1-0.1
				c0.1,0.2,0.1,0.4,0.2,0.7V64c-0.1,0.2-0.1,0.4-0.2,0.7c0,0,0,0,0.1-0.1c0.4-0.6,0.1-1.4-0.4-1.7C18.2,62.4,17.5,62.7,17.2,63.3
				L17.2,63.3z"/>
		</g>
	</g>
	<g>
		<g>
			<path d="M101.9,65.9C101.9,65.9,101.9,65.8,101.9,65.9c0.3,1.5,2.8,0.9,2.3-0.7c-0.2-0.7-0.6-1.1-1.1-1.4
				C101.8,62.9,100.6,65,101.9,65.9L101.9,65.9z"/>
		</g>
	</g>
	<g>
		<g>
			<path d="M176.5,63.2C176.5,63.2,176.5,63,176.5,63.2c0.3,1.5,2.8,0.9,2.3-0.7c-0.2-0.7-0.6-1.1-1.1-1.4
				C176.4,60.2,175.2,62.3,176.5,63.2L176.5,63.2z"/>
		</g>
	</g>
	<g>
		<g>
			<path d="M12.8,82c2.8,11.7,2.2,23.7,3.4,35.5c0.8,7.7,1.9,16.7,8.6,21.6c0.9,0.7,1.7-0.8,0.9-1.4c-8.5-5.9-8-20.8-8.5-30
				c-0.4-8.8-0.8-17.5-2.8-26C14.2,80.5,12.5,81,12.8,82L12.8,82z"/>
		</g>
	</g>
	<g>
		<g>
			<path d="M112,88.8c0,9.9,0.1,19.8,0,29.7c0,3.2-0.6,7.2-3.2,9.5c-1.7,1.4-4.7,1.8-6.7,2.5c-3.4,1.1-6.5,2.6-9.4,4.7
				c-0.9,0.6,0,2,0.9,1.4c4.6-3.2,9.7-4.1,14.6-6.5c2.6-1.2,4.5-3,5.3-5.8c1.2-4.7,0.2-10.5,0.2-15.3c0-6.7,0-13.4,0-20.1
				C113.7,87.7,112,87.7,112,88.8L112,88.8z"/>
		</g>
	</g>
	<g>
		<g>
			<path d="M38.6,100.3c-0.3,7.8,0.1,15.6,1,23.4c0.1,1,1.8,1.1,1.7,0c-1-7.8-1.3-15.5-1-23.4C40.3,99.2,38.6,99.4,38.6,100.3
				L38.6,100.3z"/>
		</g>
	</g>
	<g>
		<g>
			<path d="M44.6,112.4c0,4.2,0.1,8.3,0.3,12.3c0.1,1.1,1.8,1.1,1.7,0c-0.2-4.1-0.3-8.3-0.3-12.3C46.2,111.3,44.6,111.3,44.6,112.4
				L44.6,112.4z"/>
		</g>
	</g>
	<g>
		<g>
			<path d="M51.7,120.1c-0.3,3.9,0.1,7.7,1.2,11.4c0.3,1,1.9,0.6,1.5-0.4c-1.1-3.6-1.4-7.3-1.2-11C53.5,119.2,51.8,119.2,51.7,120.1
				L51.7,120.1z"/>
		</g>
	</g>
	<g>
		<g>
			<path d="M200.7,72.3c0.3,12.9-0.1,26.6-3.5,39.1c-2.2,7.9-10.9,8.4-17.8,9.4c-7.2,1-14.2,1.4-21.5,1.4c-1.1,0-1.1,1.7,0,1.7
				c8,0,16-0.6,23.9-1.8c5.2-0.8,12.1-1.1,15.3-5.9c3.3-5,3.3-12.8,4.1-18.5c1.1-8.4,1.4-16.8,1.2-25.3
				C202.3,71.3,200.7,71.3,200.7,72.3L200.7,72.3z"/>
		</g>
	</g>
	<g>
		<g>
			<path d="M188.1,82.5c0,6.9,0,13.8,0,20.7c0,1.1,1.7,1.1,1.7,0c0-6.9,0-13.8,0-20.7C189.8,81.4,188.1,81.4,188.1,82.5L188.1,82.5z
				"/>
		</g>
	</g>
	<g>
		<g>
			<path d="M183.3,96.8c-0.7,3.4-1.1,6.9-1.2,10.3c-0.1,1.1,1.5,1.1,1.7,0c0.2-3.3,0.6-6.6,1.2-9.9
				C185.2,96.3,183.5,95.8,183.3,96.8L183.3,96.8z"/>
		</g>
	</g>
	<g>
		<g>
			<path d="M177.7,101.2c-0.3,2.4-0.7,4.7-1,7.2c-0.1,1,1.4,1.5,1.5,0.4c0.3-2.4,0.7-4.7,1-7.2C179.3,100.7,177.8,100.1,177.7,101.2
				L177.7,101.2z"/>
		</g>
	</g>
</g>
<g>
	<path d="M90.5,52c0.2-0.2,0.3-0.4,0.4-0.7c0.3-2-0.2-4.1-1.3-5.8c-2-3.2-5.7-5.5-11.1-6.9c-5.9-1.8-12.8-2.1-20.1-1
		c-7.3,1.1-13.5,3.3-18.5,6.6c-2.8,1.9-9.1,6.8-7.7,13.2c0.2,0.8,0.4,1.4,0.8,2.2c0.1,0.2,0.3,0.4,0.7,0.4c0.1,0,0.4,0,0.7-0.1
		c0.4-0.1,1-0.2,1.5-0.2c2.2,0,4.2,1.7,4.8,3.7c0.1,0.3,0.1,0.7,0.2,1c0,0.3,0.1,0.6,0.1,0.7c0.1,0.2,0.4,0.3,0.8,0.3
		c0.1,0,0.4-0.1,0.8-0.3c0.4-0.2,0.9-0.4,1.5-0.7c1.2-0.2,2.4,0,3.5,0.6c0.9,0.6,1.7,1.3,2.2,2.4c0.1,0.3,0.3,0.6,0.7,0.6
		c0.2,0.1,0.6,0,0.8-0.2c0.1-0.1,0.1-0.2,0.2-0.2c0.2-0.2,0.3-0.4,0.6-0.7c0.4-0.4,1-0.8,1.5-1c0.7-0.2,1.3-0.4,2-0.4
		c0.6,0,1.2,0.1,1.8,0.3c1.3,0.4,2,1.3,2.5,2.1c0.2,0.3,0.6,0.3,0.7,0.3c0.1,0,0.4-0.1,0.7-0.3c0.1-0.1,0.1-0.2,0.2-0.3
		c0.1-0.2,0.2-0.6,0.4-0.8c0.3-0.6,0.9-1,1.3-1.3c1.1-0.8,2.4-1,3.7-0.8c0.7,0.1,1.4,0.4,2,0.9c0.4,0.2,0.7,0.6,0.9,0.9
		c0.1,0.1,0.2,0.2,0.3,0.3s0.3,0.3,1.1,0.1h0.1c0.2-0.1,0.4-0.2,0.6-0.4c0.1-0.1,0.1-0.2,0.2-0.3c0.2-0.6,0.6-1.2,1.2-1.8
		c1.5-1.4,3.9-1.8,5.8-0.8c0.6,0.3,1.4,0.1,1.8-0.4c0.1-0.1,0.1-0.3,0.2-0.6c0.1-0.3,0.2-0.7,0.3-1.1c0.4-0.8,1-1.5,1.8-2
		c0.9-0.7,2.1-0.9,3.2-0.8c0.8,0.1,1,0,1.1-0.2l0.1-0.1c0.1-0.1,0.2-0.3,0.2-1.1c-0.1-1.1,0.2-2.2,0.9-3.1c0.6-0.9,1.3-1.3,1.9-1.7
		V52z M47.4,42.4c12-4.4,24.1-4.8,33.4-1.3l3.7,1.4L64,51.7l-20.8-7.8L47.4,42.4z M63.6,63.4c-0.9,0.3-1.7,0.9-2.4,1.4l-1,0.9
		l-1.1-0.8c-2.2-1.4-5.1-1.4-7.3-0.1l-1.1,0.7l-0.9-0.9c-1.5-1.5-3.9-2.2-5.9-1.8L42.6,63L42,61.8c-1.1-2.5-3.7-4.1-6.5-4L34.1,58
		l-0.2-1.4c-0.6-3.2,1.3-6.5,5.1-9.6c0.6-0.4,1.9-1.3,2.1-1.4l0.7-0.4l21.6,8.1l1.7,9.7L63.6,63.4z M88.7,51.2
		c-1.4,1-2.3,2.5-2.6,4.3l-0.2,1.1l-1.1,0.2c-2.1,0.3-3.9,1.8-4.8,3.6l-0.6,1.1l-1.2-0.2c-2.4-0.6-5,0.4-6.6,2.3l-0.9,1.1L69.4,64
		c-0.6-0.3-1.1-0.6-1.7-0.7l-1.1-0.4L65,53.1l20.9-9.4l0.8,0.8c1.7,1.5,2.5,3.4,2.6,5.3v0.9L88.7,51.2z"/>
	<path d="M184.2,48c0.8-0.4,1.5-0.6,2.1-0.7c0.2,0,0.4-0.1,0.7-0.1c0.2-0.1,0.4-0.2,0.9-1c0.9-1.8,1.1-4,0.7-6.1
		c-1-4-4.1-7.8-9.1-11.4c-5.5-3.9-12.5-6.7-20.1-8c-4.1-0.8-8-1-11.8-0.8c-3.5,0.2-6.5,0.9-9.1,2c-2.4,1-4.3,2.4-5.5,4.1
		c-0.7,0.8-1.1,1.7-1.3,2.6c-0.2,0.8-0.3,1.5-0.4,2.3c0,0.7,0,1.2,0.2,1.5c0.1,0.2,0.4,0.3,0.7,0.3l1.7,0.1v0.3
		c1.4,0.6,2.6,1.9,3,3.5c0.2,1,0.2,2-0.1,2.9c-0.2,0.6-0.1,0.8,0,0.9c0.1,0.2,0.3,0.4,0.6,0.4c0.1,0,0.4,0,0.7,0
		c0.6,0,1.1-0.1,1.9,0.1c2.1,0.6,3.6,2.4,3.9,4.6c0,0.7,0.1,0.8,0.2,0.9c0.2,0.2,0.4,0.2,0.7,0.2c0.1,0,0.4-0.1,0.7-0.2
		c0.4-0.2,0.9-0.4,1.5-0.6c1.2-0.2,2.4,0,3.4,0.6c0.9,0.6,1.7,1.3,2.1,2.3c0.2,0.3,0.2,0.8,0.3,1c0.1,0.2,0.1,0.6,0.2,0.6
		c0.1,0.2,0.4,0.3,0.7,0.3c0.2,0,0.3-0.1,1-0.6c2-1.7,5-1.5,6.8,0.3c0.4,0.4,0.8,1,1.1,1.7c0.1,0.2,0.1,0.3,0.2,0.6
		c0,0.1,0.1,0.3,0.1,0.3c0.1,0.1,0.2,0.3,0.9,0.4h0.2c0.2,0,0.6,0,0.7-0.2l0.2-0.2c0.4-0.4,1-0.9,1.9-1.2c0.6-0.2,1.1-0.3,1.8-0.3
		c1.4,0,2.9,0.7,3.9,1.8c0.3,0.4,0.6,0.4,0.7,0.6c0.3,0.1,0.9,0,1.1-0.1c0.1,0,0.2-0.2,0.4-0.4c0.1-0.2,0.3-0.3,0.4-0.6
		c0.7-0.8,1.7-1.3,2.6-1.5c1.2-0.2,2.4-0.1,3.5,0.4c0.7,0.3,0.9,0.2,1,0.2l0.2-0.1c0.1,0,0.3-0.1,0.6-0.8
		C182.4,49.5,183.2,48.5,184.2,48z M152.9,21.6c8.3,0.6,16.5,3.1,23.2,7.3c1.8,1.1,3.4,2.3,4.8,3.5l3.4,3L154,34.6l-0.2-1.4
		c-0.6-3.7-1.7-7.2-2.5-9.4l-1-2.4L152.9,21.6z M151.5,43.2l-0.6,1.5l-1.5-0.6c-1.1-0.3-2.2-0.4-3.3-0.3l-1.3,0.2l-0.6-1.2
		c-0.9-2-2.6-3.5-4.8-4l-1.3-0.2v-1.3c-0.1-2.3-1.3-4.5-3.4-5.7c-0.3-0.2-0.7-0.3-1-0.4l-1.4-0.6l0.3-1.4c0-0.1,0.2-0.9,0.4-1.3
		c1.8-3.6,6.9-6.1,14-6.6l1.1-0.1l0.4,1C150.5,26.1,154.1,35.2,151.5,43.2z M181.2,48.5l-0.7,1l-1.1-0.2c-2.1-0.4-4.3,0-5.8,1.4
		l-1,0.8l-1-0.8c-2-1.4-4.7-1.5-6.9-0.4l-1.2,0.7l-0.9-1.1c-1.8-2.4-5.1-3.3-7.8-2.2l-1.2,0.4l-1.3-2l0.3-0.9c1-2.2,1.4-4.7,1.5-7.4
		v-1.7l30.9,0.8l0.4,0.8c2.1,3.3,1.2,6.2,0.9,6.9l-0.3,0.8l-0.9,0.2C183.7,46.1,182.2,47.1,181.2,48.5z"/>
	<path d="M121.8,120l0.1-2.9l2.4,1.4c5.5,3.3,11.9,6.2,18.3,8.1c7.8,2.4,16.4,3.7,24.5,3.7c5.4,0,10.5-0.6,15.2-1.7
		c12.4-2.8,20.9-8.9,23.3-16.8c0.2-0.8,0.6-2.5,0.7-3.7c0.2-2.4,5.5-57.4,5.6-58.4C214,32.8,190.5,15,166.6,7.6
		c-13.2-4.1-26.6-4.8-37.8-2.2c-11.2,2.8-18.8,8.7-21.3,16.7c-0.8,2.4-1,5-0.8,7.6l0.3,3.5l-2.9-2.1c-0.4-0.3-0.9-0.7-1.4-1
		C93.8,24.3,82.2,21,70,21c-3.6,0-7.4,0.3-11.1,0.9c-15.3,2.3-29.3,7.7-39.2,15.3C10.9,43.9,6.1,51.5,5.8,59.1
		c0,1.4,2.5,43.3,3.9,65.4v0.1v0.1c0,1.1,0,2.1,0.2,3.1c1.3,8.6,8.6,15.7,20.5,20.1c11.6,4.3,26.8,5.4,41.9,3.2
		c16-2.4,28.8-6.6,37.3-12.3C117.4,133.6,121.6,127.2,121.8,120z M204.8,108c-0.1,1-0.4,2.9-0.7,3.5c-3.3,10.7-19,17.2-37.3,17.2
		c-7.7,0-15.8-1.1-23.8-3.5c-7.6-2.3-14.9-5.7-20.9-9.9l-0.7-0.4v-0.8c-2.3-39.6-3.5-59.7-3.5-60v-3.6l2.8,2.4
		c7.4,6.4,16.9,11.4,27.6,14.7c7.8,2.4,16.4,3.7,24.5,3.7c5.4,0,10.5-0.6,15.2-1.7c7.6-1.7,13.9-4.7,18-8.7l3.2-3L204.8,108z
		 M109.1,22.8c2.3-7.5,9.5-13,20.1-15.6c10.8-2.6,24-1.9,36.9,2.2c28.6,8.8,48.2,28.2,43.6,43c-2.3,7.4-10.3,13.1-22.1,15.6
		c-4.6,1-9.7,1.5-14.9,1.5c-7.9,0-16.3-1.2-24.1-3.6c-13.1-4.1-24.8-11.1-32.1-19.5l-0.2-0.2l-0.1-0.2c-1.3-3.3-3.3-6.4-5.9-9.2
		l-0.2-0.2l-0.1-0.3C108.2,31.5,107.9,27,109.1,22.8z M20.8,38.6c9.8-7.4,23.4-12.7,38.4-15c3.6-0.6,7.3-0.8,10.9-0.8
		c26,0,43.8,14.4,45.9,28.4v0.1l0.2,3.3v0.1c-0.2,6.6-4.1,12.4-11.3,17.4c-8.3,5.6-20.9,9.8-36.6,12.1c-5.1,0.8-10.1,1.1-15,1.1
		c-24.8,0-43.5-9.5-45.4-23C6.6,54.4,11.2,45.9,20.8,38.6z M72.2,149.4c-5.1,0.8-10.1,1.1-15.1,1.1c-9.6,0-18.5-1.4-26.1-4.2
		c-11.2-4.2-18.2-10.8-19.4-18.7v-0.1L8.3,69.8l3.2,3.4c2.5,2.8,5.8,5.2,9.9,7.3c8.5,4.3,19.8,6.6,32,6.6c5,0,10.1-0.4,15.3-1.1
		c16-2.4,28.8-6.6,37.3-12.3c3.4-2.3,6.2-4.8,8.1-7.6l2.8-3.7l3.2,54.5c1.2,7.9-2.6,15-11.1,20.7C100.5,142.9,87.8,147.1,72.2,149.4
		z"/>
	<g>
		<g>
			<path d="M22,58.5c-0.6,0.4-0.7,1.2-0.3,1.9c0.4,1,1.9,0.1,1.4-0.9c0,0.2,0,0.2,0.1,0.1C24,59,22.8,57.9,22,58.5L22,58.5z"/>
		</g>
	</g>
	<g>
		<g>
			<path d="M29.5,43.1c0.1,0.2,0.1,0,0,0.2c-0.3,1,1.2,1.4,1.5,0.4c0.2-0.4,0.1-1-0.2-1.4C30.6,42,30,41.8,29.7,42
				C29.4,42.3,29.2,42.8,29.5,43.1L29.5,43.1z"/>
		</g>
	</g>
	<g>
		<g>
			<path d="M22.4,46.5c-0.3,0.2-0.6,0.3-0.7,0.7c-0.6,1,0.9,1.8,1.4,0.9c0,0,0-0.1,0.1-0.1C24.1,47.4,23.3,46,22.4,46.5L22.4,46.5z"
				/>
		</g>
	</g>
	<g>
		<g>
			<path d="M14.2,56.1c-0.4,0.3-0.8,0.9-0.9,1.4c-0.3,1,1.2,1.4,1.5,0.4c0.1-0.3,0.2-0.4,0.6-0.7C16.2,56.7,15,55.5,14.2,56.1
				L14.2,56.1z"/>
		</g>
	</g>
	<g>
		<g>
			<path d="M32.5,71c-0.2,0.4-0.3,0.9-0.3,1.4c0,0.4,0.3,0.9,0.9,0.9c0.4,0,0.9-0.3,0.9-0.9c0-0.2,0-0.4,0.1-0.6
				C34.3,70.9,32.9,70.1,32.5,71L32.5,71z"/>
		</g>
	</g>
	<g>
		<g>
			<path d="M59,73.8c0.1,0.2,0.1,0.2,0,0.4c0,0.4,0.4,0.9,0.9,0.9s0.8-0.3,0.9-0.9c0-0.3,0-0.6-0.1-0.9c-0.1-0.4-0.6-0.7-1-0.6
				S58.9,73.4,59,73.8L59,73.8z"/>
		</g>
	</g>
	<g>
		<g>
			<path d="M119.3,35.2c0.1,0.2,0.1,0.2,0,0.4c0,0.4,0.4,0.9,0.9,0.9s0.8-0.3,0.9-0.9c0-0.3,0-0.6-0.1-0.9c-0.1-0.4-0.6-0.7-1-0.6
				C119.5,34.3,119.2,34.9,119.3,35.2L119.3,35.2z"/>
		</g>
	</g>
	<g>
		<g>
			<path d="M127.5,37.5c0.1,0.2,0.1,0.2,0,0.4c0,0.4,0.4,0.9,0.9,0.9c0.4,0,0.8-0.3,0.9-0.9c0-0.3,0-0.6-0.1-0.9
				c-0.1-0.4-0.6-0.7-1-0.6C127.7,36.6,127.4,37.2,127.5,37.5L127.5,37.5z"/>
		</g>
	</g>
	<g>
		<g>
			<path d="M57.3,76.7c0.1,0.1,0.1,0.2,0.2,0.2c0.6,0.9,2,0,1.4-0.9c-0.1-0.1-0.1-0.2-0.2-0.2C58.1,75,56.7,75.8,57.3,76.7
				L57.3,76.7z"/>
		</g>
	</g>
	<g>
		<g>
			<path d="M152.7,58.4c0.1,0.1,0.1,0.2,0.2,0.2c0.6,0.9,2,0,1.4-0.9c-0.1-0.1-0.1-0.2-0.2-0.2C153.6,56.8,152.2,57.5,152.7,58.4
				L152.7,58.4z"/>
		</g>
	</g>
	<g>
		<g>
			<path d="M103,54.2c0.1,0.2,0.2,0.3,0.3,0.6c0.6,0.9,2,0.1,1.4-0.9c-0.1-0.2-0.2-0.3-0.3-0.6C103.9,52.5,102.4,53.3,103,54.2
				L103,54.2z"/>
		</g>
	</g>
	<g>
		<g>
			<path d="M99.2,37C99.2,37.1,99.1,37.1,99.2,37c-0.8,0.8,0.3,2,1.1,1.2c0,0,0,0,0.1-0.1C101.1,37.4,100,36.3,99.2,37L99.2,37z"/>
		</g>
	</g>
	<g>
		<g>
			<path d="M184,52C184,52,183.8,52,184,52c-0.8,0.8,0.3,2,1.1,1.2c0,0,0,0,0.1-0.1C185.8,52.5,184.7,51.3,184,52L184,52z"/>
		</g>
	</g>
	<g>
		<g>
			<path d="M124.3,19.6C124.2,19.6,124.2,19.6,124.3,19.6c-0.8,0.8,0.3,2,1.1,1.2c0,0,0,0,0.1-0.1C126.2,20,125,18.8,124.3,19.6
				L124.3,19.6z"/>
		</g>
	</g>
	<g>
		<g>
			<path d="M76.4,29.8c0.2,0,0.6,0,0.8,0.1c1,0.4,1.8-1,0.9-1.4c-0.6-0.2-1-0.4-1.5-0.3C75.3,28.3,75.3,29.9,76.4,29.8L76.4,29.8z"
				/>
		</g>
	</g>
	<g>
		<g>
			<path d="M86.9,32.7C86.9,32.7,86.9,32.8,86.9,32.7c0.8,0.8,2-0.3,1.2-1.1c0,0,0,0-0.1-0.1C87.4,30.8,86.1,31.9,86.9,32.7
				L86.9,32.7z"/>
		</g>
	</g>
	<g>
		<g>
			<path d="M62.6,28.8c-1,0.6-0.6,2.1,0.6,2.1c1.1,0,1.1-1.7,0-1.7H63c0.1,0,0.3,0.1,0.4,0.1c0,0.3,0,0.6,0,0.9
				C64.4,29.8,63.6,28.4,62.6,28.8L62.6,28.8z"/>
		</g>
	</g>
	<g>
		<g>
			<path d="M195.6,42.6c-1,0.6-0.6,2.1,0.6,2.1c1.1,0,1.1-1.7,0-1.7h-0.1c0.1,0,0.3,0.1,0.4,0.1c0,0.3,0,0.6,0,0.9
				C197.4,43.5,196.5,42,195.6,42.6L195.6,42.6z"/>
		</g>
	</g>
	<g>
		<g>
			<path d="M85.2,67c0.1,0.7,0.6,1.3,1.2,1.5c1,0.4,1.8-1,0.9-1.4c-0.3-0.1-0.4-0.3-0.4-0.6C86.6,65.6,84.9,66,85.2,67L85.2,67z"/>
		</g>
	</g>
	<g>
		<g>
			<path d="M171.1,17.7c0.1,0.7,0.6,1.3,1.2,1.5c1,0.4,1.8-1,0.9-1.4c-0.3-0.1-0.4-0.3-0.4-0.6C172.4,16.3,170.9,16.7,171.1,17.7
				L171.1,17.7z"/>
		</g>
	</g>
	<g>
		<g>
			<path d="M95.7,64.7l0.1,0.1c0.8,0.8,1.9-0.4,1.2-1.2l-0.1-0.1C96.2,62.7,95,63.9,95.7,64.7L95.7,64.7z"/>
		</g>
	</g>
	<g>
		<g>
			<path d="M77,72.3c0,0.2,0,0.3,0,0.6c0,1.1,1.7,1.1,1.7,0c0-0.2,0-0.3,0-0.6C78.7,71.3,77,71.3,77,72.3L77,72.3z"/>
		</g>
	</g>
	<g>
		<g>
			<path d="M37.1,75.4c0.2,0.3,0.4,0.6,0.8,0.7c1.4,0.8,2.6-1.3,1.2-2.1c0,0.1,0.1,0.1,0.1,0.2c-0.3-0.6-1.1-0.8-1.7-0.4
				C37,74,36.6,74.8,37.1,75.4L37.1,75.4z"/>
		</g>
	</g>
	<g>
		<g>
			<path d="M115.2,25.6c0.2,0.3,0.4,0.6,0.8,0.7c1.4,0.8,2.6-1.3,1.2-2.1c0,0.1,0.1,0.1,0.1,0.2c-0.3-0.6-1.1-0.8-1.7-0.4
				C115.1,24.2,114.8,25.1,115.2,25.6L115.2,25.6z"/>
		</g>
	</g>
	<g>
		<g>
			<path d="M106.5,45.8c0.4-0.3,0.8-0.6,1.2-0.9c-1.2-1.1-3,0.7-1.8,1.8c0.7,0.6,1.7,0.8,2.3,0.2c0.7-0.6,0.9-1.5,0.3-2.3
				C107.8,43.1,105.6,44.3,106.5,45.8L106.5,45.8z"/>
		</g>
	</g>
	<g>
		<g>
			<path d="M17.2,63.4c-0.3,0.4-0.3,1.1,0,1.5c0.4,0.6,1.1,0.8,1.7,0.4s0.9-1.1,0.4-1.7c0,0,0,0-0.1-0.1c0.1,0.2,0.1,0.4,0.2,0.7
				v-0.1c-0.1,0.2-0.1,0.4-0.2,0.7c0,0,0,0,0.1-0.1c0.4-0.6,0.1-1.4-0.4-1.7C18.2,62.5,17.5,62.8,17.2,63.4L17.2,63.4z"/>
		</g>
	</g>
	<g>
		<g>
			<path d="M101.9,65.9L101.9,65.9c0.3,1.5,2.8,0.9,2.3-0.7c-0.2-0.7-0.6-1.1-1.1-1.4C101.8,62.9,100.6,65.1,101.9,65.9L101.9,65.9z
				"/>
		</g>
	</g>
	<g>
		<g>
			<path d="M176.5,63.2L176.5,63.2c0.3,1.5,2.8,0.9,2.3-0.7c-0.2-0.7-0.6-1.1-1.1-1.4C176.4,60.2,175.2,62.4,176.5,63.2L176.5,63.2z
				"/>
		</g>
	</g>
	<g>
		<g>
			<path d="M12.8,82.1c2.8,11.7,2.2,23.7,3.4,35.5c0.8,7.7,1.9,16.7,8.6,21.6c0.9,0.7,1.7-0.8,0.9-1.4c-8.5-5.9-8-20.8-8.5-30
				c-0.4-8.8-0.8-17.5-2.8-26C14.2,80.5,12.5,81,12.8,82.1L12.8,82.1z"/>
		</g>
	</g>
	<g>
		<g>
			<path d="M112,88.9c0,9.9,0.1,19.8,0,29.7c0,3.2-0.6,7.2-3.2,9.5c-1.7,1.4-4.7,1.8-6.7,2.5c-3.4,1.1-6.5,2.6-9.4,4.7
				c-0.9,0.6,0,2,0.9,1.4c4.6-3.2,9.7-4.1,14.6-6.5c2.6-1.2,4.5-3,5.3-5.8c1.2-4.7,0.2-10.5,0.2-15.3c0-6.7,0-13.4,0-20.1
				C113.7,87.8,112,87.8,112,88.9L112,88.9z"/>
		</g>
	</g>
	<g>
		<g>
			<path d="M38.6,100.5c-0.3,7.8,0.1,15.6,1,23.4c0.1,1,1.8,1.1,1.7,0c-1-7.8-1.3-15.5-1-23.4C40.3,99.4,38.6,99.4,38.6,100.5
				L38.6,100.5z"/>
		</g>
	</g>
	<g>
		<g>
			<path d="M44.6,112.6c0,4.2,0.1,8.3,0.3,12.3c0.1,1.1,1.8,1.1,1.7,0c-0.2-4.1-0.3-8.3-0.3-12.3C46.2,111.5,44.6,111.5,44.6,112.6
				L44.6,112.6z"/>
		</g>
	</g>
	<g>
		<g>
			<path d="M51.7,120.3c-0.3,3.9,0.1,7.7,1.2,11.4c0.3,1,1.9,0.6,1.5-0.4c-1.1-3.6-1.4-7.3-1.2-11C53.5,119.2,51.8,119.2,51.7,120.3
				L51.7,120.3z"/>
		</g>
	</g>
	<g>
		<g>
			<path d="M200.7,72.4c0.3,12.9-0.1,26.6-3.5,39.1c-2.2,7.9-10.9,8.4-17.8,9.4c-7.2,1-14.2,1.4-21.5,1.4c-1.1,0-1.1,1.7,0,1.7
				c8,0,16-0.6,23.9-1.8c5.2-0.8,12.1-1.1,15.3-5.9c3.3-5,3.3-12.8,4.1-18.5c1.1-8.4,1.4-16.8,1.2-25.3
				C202.3,71.3,200.7,71.3,200.7,72.4L200.7,72.4z"/>
		</g>
	</g>
	<g>
		<g>
			<path d="M188.1,82.5c0,6.9,0,13.8,0,20.7c0,1.1,1.7,1.1,1.7,0c0-6.9,0-13.8,0-20.7C189.8,81.5,188.1,81.5,188.1,82.5L188.1,82.5z
				"/>
		</g>
	</g>
	<g>
		<g>
			<path d="M183.3,96.9c-0.7,3.4-1.1,6.9-1.2,10.3c-0.1,1.1,1.5,1.1,1.7,0c0.2-3.3,0.6-6.6,1.2-9.9
				C185.2,96.4,183.5,95.8,183.3,96.9L183.3,96.9z"/>
		</g>
	</g>
	<g>
		<g>
			<path d="M177.7,101.3c-0.3,2.4-0.7,4.7-1,7.2c-0.1,1,1.4,1.5,1.5,0.4c0.3-2.4,0.7-4.7,1-7.2C179.3,100.7,177.8,100.2,177.7,101.3
				L177.7,101.3z"/>
		</g>
	</g>
</g>
</svg>
