<?xml version="1.0" encoding="utf-8"?>
<!-- Generator: Adobe Illustrator 23.0.3, SVG Export Plug-In . SVG Version: 6.00 Build 0)  -->
<svg version="1.1" id="Layer_1" xmlns="http://www.w3.org/2000/svg" xmlns:xlink="http://www.w3.org/1999/xlink" x="0px" y="0px"
	 viewBox="0 0 171 264.9" style="enable-background:new 0 0 171 264.9;" xml:space="preserve">
<style type="text/css">
	.st0{fill:#302148;}
</style>
<g>
	<path class="st0" d="M79.9,210.3L79.9,210.3L79,187.5c0,0.1-0.1,0.1-0.1,0.2c-0.3,4.3-0.7,8.7-1,13c0,0,0,0,0.1,0l0,0
		c0-0.2,0.2-0.2,0.2,0c0,0.1,0,0.1,0,0.2c0,0,0,0,0.1,0l0,0c0-0.2,0.3-0.2,0.2,0c-0.3,3.3-0.3,6.5-0.1,9.6c0,0.5,0.1,1,0.1,1.5
		c0.5-0.1,1-0.2,1.5-0.3L79.9,210.3z M77.1,228.1c-0.1,0-0.1-0.1-0.2-0.1v0.9c0.2-0.2,0.4-0.4,0.6-0.7
		C77.3,228.2,77.2,228.2,77.1,228.1z M73.6,226.8c-0.3,0.4-0.7,0.7-1,1.1c-0.3,0.3-0.6,0.7-1,1c0,0.1,0,0.2,0,0.3
		c0.1-0.1,0.1-0.1,0.2-0.2v0.1c0.4-0.4,0.8-0.8,1.1-1.2c0.3-0.4,0.7-0.7,1-1.1C73.8,226.8,73.7,226.8,73.6,226.8z M77,218.2
		C77,218.2,76.9,218.3,77,218.2c-0.1,0-0.2,0-0.2,0.1c-0.1,0.2-0.3,0.5-0.5,0.7l-3,3.6l0,0c-0.5,0.5-1,0.9-1.5,1.4
		c0,0.1,0,0.2,0,0.3c0.1-0.1,0.1-0.1,0.2-0.2v0.1c1-0.8,2-1.9,2.8-2.8c0.7-0.8,1.3-1.7,2-2.6c0.1-0.2,0.3-0.4,0.4-0.6
		C77.2,218.2,77,218.1,77,218.2z M75.2,163.2l-0.1-0.5c-1.7,2.8-3.4,5.6-5.5,8.1c0,0.1,0,0.2,0,0.2c0.1-0.1,0.1-0.2,0.2-0.2v0.1
		C71.9,168.4,73.7,165.9,75.2,163.2z M16.2,163.4c0-0.1-0.2-0.1-0.2,0v0.1c0,0,0-0.1-0.1-0.1v-0.2c0-0.1-0.2-0.1-0.2,0v0.1
		c0-0.1-0.2-0.1-0.2,0c-0.3,17.9,2,35.7,2.4,53.7c0,0.1,0.1,0.1,0.1,0c0-0.8,0-1.8,0-2.6c0,0.8,0.1,1.7,0.1,2.5c0,0.1,0.1,0.1,0.1,0
		c0,0.1,0,0.2,0,0.3s0.1,0.1,0.1,0c0-0.7,0-1.4,0-2.2c0,0.7,0,1.3,0.1,2.1c0,0.1,0.1,0.1,0.1,0C18.8,199.1,16.6,181.2,16.2,163.4z
		 M73.3,149.8l-0.2-1.3c-1.2,2.5-2.7,5-4.2,7.2c0,0.1,0,0.2,0,0.4c0.1-0.1,0.1-0.2,0.2-0.3c0,0.1,0,0.1,0,0.2c0.2-0.3,0.4-0.6,0.7-1
		c-0.2,0.3-0.4,0.6-0.6,0.9c0,0.1,0,0.2,0,0.4c0.1-0.1,0.1-0.2,0.2-0.3v0.2C70.7,154.2,72,152,73.3,149.8z M76.9,173.6
		c-2.1,2.7-4.3,5.1-6.9,7.2c0,0.1,0,0.2,0,0.2l0.2-0.1v0.1c2.5-2.1,4.8-4.3,6.7-6.9V173.6z M72.6,145.6c-1,2.2-2,4.2-2.8,6.4
		c0,0.1,0.1,0.1,0.1,0.1s0-0.1,0.1-0.1c0,0,0.1,0.1,0.1,0c0.3-0.6,0.5-1.2,0.8-1.8c-0.3,0.7-0.5,1.3-0.8,2.1c0,0.1,0.1,0.1,0.1,0
		c0,0,0-0.1,0.1-0.1c0,0.1,0.1,0.1,0.1,0.1c0.7-1.8,1.5-3.5,2.4-5.3L72.6,145.6z M76.4,183.8l-0.1,0.1c0,0,0,0-0.1,0
		c-1.9,2-3.6,4-5.5,6v0.3c0.1-0.1,0.1-0.1,0.2-0.2v0.1C72.9,188.1,74.5,185.9,76.4,183.8C76.5,183.8,76.4,183.7,76.4,183.8z
		 M74.9,201.4v0.1c0-0.1-0.1-0.1-0.1,0c-0.6,2.2-1.7,4.1-2.9,5.9c0,0.1,0,0.2,0,0.3c0.1-0.1,0.1-0.2,0.2-0.3c0,0,0,0.1,0,0.2
		c1.3-1.9,2.5-3.9,3.1-6.1C75.1,201.4,74.9,201.3,74.9,201.4z M51.6,68.6h-0.1c0-0.1,0-0.2-0.2-0.2c-3.2,0.5-6.6,0.6-9.9,0.5
		c-1.7,0-3.3-0.1-5-0.4c-1-0.2-1.9-0.7-2.9-1c-0.1,0-0.1,0-0.1,0.1l0,0c-0.1,0-0.1,0-0.1,0.1c0,0.5,0.3,0.8,0.7,1.1
		c1.3,1,4.9,1,5.8,1.1c3.8,0.2,8,0,11.7-0.9l0.1-0.1h0.1C51.9,68.8,51.8,68.6,51.6,68.6z M74.6,201.2c-0.1,0.3-0.2,0.5-0.3,0.8
		c0.1-0.2,0.2-0.5,0.2-0.7c0-0.1-0.1-0.1-0.1,0c-0.6,2.2-1.7,4.1-2.9,5.9c0,0.1,0,0.2,0,0.3c0.1-0.1,0.1-0.2,0.2-0.2
		c0,0,0,0.1,0,0.2c1.3-1.9,2.5-3.9,3-6.1C74.8,201.2,74.7,201.1,74.6,201.2z M74.2,121.9c0.1-0.4,0.3-0.9,0.4-1.4
		c0-0.1-0.1-0.2-0.2,0c0,0,0,0,0,0.1h-0.1c0-0.1,0.1-0.2,0.1-0.2c0-0.1-0.1-0.2-0.2,0c0,0,0,0,0,0.1c0-0.1-0.1-0.1-0.2,0
		c0,0.1-0.1,0.2-0.1,0.4c-0.3-1-0.6-2.2-1-3.2c0.1-0.5,0.2-0.9,0.3-1.3c0-0.1-0.2-0.2-0.2,0v0.1c0-0.1-0.1-0.1-0.1,0
		c0-0.1,0-0.1,0.1-0.2c0-0.1-0.1-0.2-0.2,0v0.1c0-0.1-0.1-0.1-0.2,0c0,0.1-0.1,0.2-0.1,0.3c-2.6-7.8-5.8-15.5-8.1-23.4
		c-1.5-5.5-2.4-10.9-2.8-16.6c-0.3-3.8-0.6-7.7-1.4-11.4c0.9-2.9,1-6-1.1-7.4c-0.3-0.2-0.7-0.4-1.1-0.6h-0.1c0.1-0.1,0.1-0.2,0-0.3
		c0.2,0,0.4-0.1,0.6-0.1l0.1-0.1h0.1c0.1,0,0.1-0.2,0-0.2s-0.1,0-0.2,0c0-0.1,0-0.1-0.1-0.2c-1.4-0.3-2.8-0.1-4.1,0.5
		c0-0.3-0.1-0.6-0.1-0.8c0-1.4,0-2.9-0.2-4.3c0-0.1-0.1-0.1-0.1-0.2c0,0,0.1-0.1,0-0.1h0.1c0.1,0,0.1-0.1,0-0.2
		c-0.1,0-0.2,0-0.2-0.1v-0.1c-0.2-0.5-0.4-0.5-0.6-0.6c0,0,0-0.1-0.1-0.1c0,0-0.1,0-0.2,0c-0.1,0-0.2,0-0.2,0l0,0c0.1,0,0.1,0,0.1,0
		c0.1,0,0-0.1,0-0.1c-0.2,0-0.3,0.1-0.5,0.1c-0.4-0.1-0.8-0.1-1.2-0.2c0-0.1,0-0.1,0-0.2c-0.1-2-0.2-3.8-0.3-5.8
		c-0.2-5.1-0.5-10.1-0.7-15.3c-0.2-5.1-0.3-10.1-0.4-15.1c0-1.9,0-3.7,0.2-5.6c0-0.5-0.1-2,0.2-2.7c0.3,0.1,0.5,0.2,0.9,0.2V5.4
		c-0.3,0-0.6-0.1-0.8-0.2l0,0c0.1,0,0.2,0,0.3,0.1c0.2,0.1,0.5,0.1,0.8,0.1V5.3c-0.2,0-0.3,0-0.5,0l0,0c-0.1,0-0.2,0-0.2,0
		c-0.1,0-0.2,0-0.3-0.1l0,0c0.2,0.1,0.4,0.1,0.7,0.1c0.1,0,0.1-0.1,0-0.1c-0.2,0-0.4,0-0.6-0.1c0.1,0,0.2-0.1,0.3-0.1l0.1-0.1
		c0,0,0,0,0.1,0C51,4.7,51.2,4.2,50.8,4h-0.1c0-0.1-0.1-0.1-0.2-0.1c-1.9-0.9-4-1.1-6.1-0.8c-0.5,0.1-1.3,0.2-2.1,0.5
		c-0.5,0.3-0.9,0.6-1,1.2c0,0.2,0.1,0.3,0.3,0.3c0.1,0.1,0.2,0.2,0.4,0.2l0,0c0.1,0.1,0.2,0.3,0.4,0.3c-0.5,4.3-0.5,8.8-0.6,13.2
		c-0.1,5-0.4,9.9-0.3,14.9c0,2.8,0.3,5.6,0.5,8.4c0.1,1.9,0.8,5.7-0.3,7.3c-0.1,0.1,0.1,0.3,0.2,0.2c0,0,0.1,0,0.1-0.1l0,0
		c0,0,0,0,0,0.1c-0.1,0.1,0.1,0.3,0.2,0.2c0,0,0.1,0,0.1-0.1h0.1c1.3-0.8,0.8-3.5,0.8-4.9c0-3.2-0.3-6.4-0.5-9.6
		c-0.3-4.5,0.2-9.1,0.2-13.6c0-5.3,0.3-10.5,0.5-15.7c0.7,0.1,1.5,0,2.1,0c1.2-0.1,2.5-0.3,3.6-0.6c-0.6,1.3-0.5,4.1-0.5,5
		c-0.2,5.2,0,10.3,0.2,15.6c0.2,5.6,0.4,11.1,0.7,16.5c0.1,2.2,0.2,4.3,0.3,6.5c0,0.2,0,0.5,0,0.7c-1.7-0.1-3.4,0-5.1,0.1
		c-1.9,0.1-3.9,0.3-5.8,0.9c-0.8-0.1-1.7-0.2-2.5-0.3c-0.1,0-0.1,0.1-0.1,0.1h-0.1c-0.1,0-0.2,0.2,0,0.2c0.1,0,0.2,0,0.2,0
		s0,0.1,0,0.2c0.4,0.1,0.9,0.2,1.3,0.2c-0.4,0.2-0.7,0.3-1.1,0.5l0,0c-0.1,0-0.1,0.1-0.2,0.1c-0.1,0.1-0.2,0.2-0.2,0.3
		c0,0.3,0,0.6,0,0.9c0,0.1,0.1,0.3,0.2,0.3h0.1c0,0,0,0.1,0.1,0.1c0,0,0,0.1,0,0.2c0.3,1.2,0.4,2.4,0.5,3.6c-0.9,0.1-2,0.2-3,0.1
		c0.6-0.7,1.3-1.2,2.1-1.7c0.2-0.1,0.1-0.5-0.2-0.4c0-0.1-0.2-0.3-0.3-0.2c-0.1,0-0.1,0.1-0.2,0.1l0,0c-1,0.5-1.9,1.1-2.5,2
		c-0.5-0.1-0.9-0.3-1.4-0.5c-0.1,0-0.2,0.1-0.1,0.1h-0.1c-0.1,0-0.2,0.1-0.1,0.1c0.2,0.3,0.4,0.4,0.7,0.6c0.2,0.1,0.4,0.3,0.6,0.3
		c-0.2,0.4-0.4,0.8-0.5,1.3c-0.1,0.2,0,0.3,0.2,0.4h0.1c0,0.1,0.1,0.1,0.2,0.2c3.9,1,8.1,1.3,12.1,0.7c1.4-0.2,2.8-0.5,4.1-0.9
		c0.1,0,0.1,0,0.2,0c2.4,0.4,5.4,0.4,7.4-0.6c0.7-0.3,1.3-0.8,1.8-1.4c1.2,1.2,1.4,2.9,1.2,4.6c-0.1-0.3-0.2-0.6-0.3-0.8
		c0-0.1-0.1,0-0.1,0c0,0.2,0.1,0.4,0.1,0.6c-0.1-0.3-0.2-0.5-0.3-0.8c0-0.1-0.1,0-0.1,0c0.1,0.2,0.1,0.4,0.1,0.6
		c-0.1-0.2-0.1-0.4-0.2-0.6c0-0.1-0.1,0-0.1,0c0.2,0.9,0.4,1.9,0.5,2.7c-0.5,2-1.4,3.9-2,5.5c-0.1,0.1,0.1,0.2,0.2,0.1
		c0,0,0,0,0-0.1h0.1c0,0,0,0.1-0.1,0.2c0,0.1,0.1,0.2,0.2,0.1c0,0,0,0,0-0.1h0.1c0.2-0.2,0.3-0.5,0.5-0.8
		c-1.2,12.1,4.1,23.3,5.4,35.3c0,0.1,0.2,0.1,0.2,0c0-0.2,0-0.4,0-0.6c0,0.2,0,0.3,0.1,0.5c0,0,0,0.1,0.1,0.1c0,0.1,0,0.1,0,0.2
		s0.2,0.1,0.2,0s0-0.3,0-0.4c0,0.1,0,0.2,0,0.3c0,0.1,0.2,0.1,0.2,0c-0.7-12.5-6.8-24.6-5.1-37.2c0.1-0.2,0.2-0.4,0.2-0.6
		c1.3,8.8,1.3,17.8,3.7,26.4c1.4,5.4,3.4,10.4,5.4,15.6c0.2,2.7-0.5,5.4-1.7,7.8c0,0.1,0.1,0.2,0.1,0.1v-0.1c0,0.1,0.1,0.1,0.1,0
		c0.1-0.2,0.2-0.4,0.3-0.6c-0.1,0.3-0.2,0.5-0.3,0.8c0,0.1,0.1,0.2,0.1,0.1v-0.1c0,0.1,0.1,0.1,0.1,0c1-2,1.7-3.9,1.8-6
		c0.9,2.5,1.9,4.9,2.8,7.3c-0.8,3.1-1.7,6.3-2.8,9.3c0,0.1,0.1,0.1,0.1,0.1c0.1-0.3,0.2-0.5,0.3-0.7c-0.1,0.2-0.1,0.4-0.2,0.6
		c0,0.1,0.1,0.1,0.1,0c0.3-0.7,0.6-1.4,0.8-2.2c-0.3,0.8-0.5,1.7-0.8,2.4c0,0.1,0.1,0.1,0.1,0c0.2-0.4,0.3-0.7,0.4-1.1
		c-0.1,0.3-0.2,0.6-0.3,0.9c0,0.1,0.1,0.1,0.1,0c1.1-2.7,1.9-5.5,2.6-8.3c0.3,0.9,0.7,2,1,2.9c-1.3,4.3-2.8,8.7-5.1,12.6
		c0,0.1,0,0.1,0.1,0.1l0.1-0.1c0,0.1,0.1,0.1,0.1,0c0.8-1.3,1.7-2.8,2.3-4.2c-0.6,1.5-1.4,3.1-2.3,4.4c0,0.1,0,0.1,0.1,0.1l0.1-0.1
		c0,0.1,0.1,0.1,0.1,0c2.3-3.6,3.7-7.5,5-11.6c0,0.1,0.1,0.2,0.1,0.3c0,0.1,0.2,0.1,0.2-0.1c0-0.1-0.1-0.2-0.1-0.3
		c0.1,0.2,0.1,0.4,0.2,0.6c0,0.1,0.2,0.1,0.2,0c0-0.1-0.1-0.3-0.1-0.4c0,0.1,0.1,0.2,0.1,0.3s0.2,0.1,0.2-0.1
		C74.5,122.8,74.3,122.4,74.2,121.9z M45.8,4.7c-0.8,0.1-2.1-0.2-2.9,0c0.2-0.1,0.3-0.2,0.5-0.3c1.4-0.7,3.5-0.6,5.2-0.2
		C47.7,4.4,46.7,4.6,45.8,4.7z M52.8,57.8L52.8,57.8L52.8,57.8L52.8,57.8z M52.9,58L52.9,58c-0.2,0.1-0.4,0.2-0.6,0.2l0,0
		C52.5,58.2,52.7,58.1,52.9,58z M52.6,57.6c0.1-0.1,0.1-0.1,0.2-0.2c0,0.1,0,0.1,0,0.2C52.7,57.5,52.6,57.5,52.6,57.6z M48.3,50.6
		c-1.5,0.2-3,0.3-4.5,0.3C45.2,50.7,46.7,50.6,48.3,50.6z M35.3,59.6c-0.6-0.1-1.1-0.1-1.5-0.3c-0.2-0.2-0.2-0.5,0-1
		c1.1,0.2,2.6,0,3.6-0.3c0.1,0.7,0.1,1.4,0.5,2C36.9,59.8,36.1,59.7,35.3,59.6z M38.3,52c0.6-0.3,1.3-0.4,2.1-0.6
		c0.6,0,1.1,0.1,1.8,0.1c-0.3,0.1-0.6,0.2-0.9,0.3c-0.3,0.1-0.6,0.3-0.8,0.5c0,0.1,0,0.1,0,0.2c-0.7,0-1.4,0-2.2,0.2
		c0.1-0.2,0.2-0.4,0.4-0.6c0,0,0-0.1-0.1-0.1c-0.1,0-0.1,0.1-0.2,0.1l0,0c-0.1,0.1-0.2,0.1-0.3,0.1C38.1,52.3,38.2,52.1,38.3,52z
		 M38.7,59.9c0.1-0.2,0.1-0.4,0.1-0.7c0.5,0.3,1.1,0.5,1.7,0.7C39.9,59.9,39.3,59.9,38.7,59.9z M48,58.9c-0.3,0-0.6-0.1-0.8-0.1
		c-0.1,0-0.1,0-0.1,0.1H47c-0.1,0-0.2,0.1,0,0.2c0.1,0,0.1,0,0.2,0.1l0,0c-0.1,0-0.1,0-0.2,0c-2.4,0.4-6,0.9-8.2-0.4
		c-0.1-0.5-0.2-1-0.2-1.4c-0.1-1-0.2-2.2-0.4-3.2c1.4-0.3,3-0.4,4.4-0.6c0.1,0,0.1,0,0.1-0.1h0.1c0.2,0,0.2-0.3,0-0.3
		c0.8-0.1,1.8-0.3,2.4-0.4c1.5-0.2,3.1-0.3,4.8-0.4c0,0.2,0.1,0.3,0.1,0.5c0,0.1,0.2,0.2,0.3,0.2c0.1,0.1,0.1,0.2,0.2,0.2
		c0.1,0,0.1,0,0.2-0.1c0.1,0,0.2-0.1,0.3-0.2c0.1-0.2,0.1-0.5,0.1-0.7c0.1,0,0.3,0,0.4,0c0.2,0,0.8-0.1,1.2-0.1c0.1,0.9,0.1,2,0.1,3
		c0,0.7-0.1,1.7,0,2.5l0,0c-0.3,0.1-0.6,0.2-0.9,0.3c0-0.1-0.1-0.3-0.2-0.2h-0.1c0-0.1,0-0.2-0.2-0.2c-4,0.7-8,1.2-12.1,0.5
		c-0.1,0-0.1,0-0.2,0.1l0,0c-0.2,0-0.2,0.2-0.1,0.3c0.1,0,0.1,0,0.2,0c0,0.1,0,0.1,0.1,0.2c3.7,0.8,7.4,0.8,11.2-0.2
		C49.6,58.3,48.8,58.7,48,58.9z M53.4,58.8c-0.7,0.1-1.7,0.2-2.5,0.2c0.1,0,0.1,0,0.2,0c0.6-0.2,1.3-0.4,2-0.6
		c0,0.1,0.1,0.2,0.1,0.2c0.1,0.1,0.1,0.1,0.2,0.1C53.5,58.8,53.5,58.8,53.4,58.8C53.5,58.8,53.5,58.8,53.4,58.8z M57.7,56.8h0.1
		c0,0,0,0,0.1,0v0.1C57.8,56.8,57.8,56.8,57.7,56.8L57.7,56.8L57.7,56.8z M54.3,56.5h0.1l0,0C54.3,56.5,54.3,56.5,54.3,56.5
		L54.3,56.5z M54.3,56.7L54.3,56.7c0.7-0.2,1.5-0.2,2.3-0.2c-0.7,0.3-1.4,0.6-2.3,0.9C54.3,57.2,54.3,56.9,54.3,56.7z M54.2,57.6
		c0.3-0.1,0.5-0.2,0.8-0.3C54.8,57.5,54.5,57.6,54.2,57.6L54.2,57.6z M54.1,58.7C54.1,58.6,54.1,58.6,54.1,58.7
		c0.1-0.2-0.1-0.4-0.2-0.3c0.1-0.1,0.2-0.2,0.2-0.3c1.1-0.4,2.3-0.7,3.4-1.1c0,0,0,0,0.1,0c-0.1,0-0.1,0.1,0,0.2
		c0.1,0.1,0.1,0.1,0.2,0.2C56.6,57.7,55.4,58.2,54.1,58.7z M57.9,57.5l0.1-0.1l0,0l0.1,0.1C58,57.4,57.9,57.5,57.9,57.5z
		 M76.8,184.2C76.8,184.3,76.8,184.3,76.8,184.2c-0.1,0-0.1,0-0.2,0.1c-1.4,3.2-3.4,6.2-5.7,8.9c0,0.1,0,0.2,0,0.3
		c0.1-0.1,0.1-0.1,0.2-0.2v0.1c2.4-2.7,4.3-5.7,5.8-9.1C77,184.2,76.9,184.1,76.8,184.2z M37.4,88.1L37.4,88.1
		c0-0.3-0.2-0.3-0.3-0.2c-0.1,0-0.2,0-0.2,0.1c-0.3,0.9-0.7,2-1,2.9c-0.7,2.3-1.3,4.6-2.1,6.9c-1.1,3.5-2.4,7-3.2,10.6
		c-0.8,3.1-1.2,6.2-1.3,9.4c0,0.7-0.7,1.2-1.5,1.7c-0.3,0.1-0.5,0.2-0.7,0.4c-0.1,0.1-0.3,0.1-0.4,0.2c-0.4-10.6,6.4-19.4,9.3-29.2
		c0.9-3.1,1.4-6.2,1.2-9.6c0-0.1-0.2-0.1-0.2,0v0.1c0,0,0-0.1-0.1-0.1c0-0.1,0-0.1,0-0.2c0-0.1-0.2-0.1-0.2,0v0.1
		c0-0.1-0.2-0.1-0.2,0c0.4,8.7-4.2,16.4-7.5,24c-1.4,3.3-2.8,6.9-3.2,10.5c-0.1,0.6-0.4,3.9,0.1,5.1c-0.1,0-0.1,0.1-0.2,0.1
		c-0.1,0.2-0.1,0.4,0.1,0.5l0,0h0.1l0.1,0.1l0,0c0.1,0.1,0.3,0,0.4-0.1c0.2,0,0.3-0.1,0.3-0.3l0,0c0,0,0.1,0,0.1-0.1l0,0
		c0,0,0.1-0.1,0.2-0.1c1-0.7,2.2-1.3,3.3-2c0.1-0.1,0.2-0.2,0.2-0.3c0.1-5.5,1.3-10.6,3-15.9c1.4-4.8,3.8-9.8,4.3-14.9
		C37.8,88.1,37.6,88,37.4,88.1z M75.1,251.5c-0.8,0.3-1.7,0.5-2.5,0.7c-0.3,0.1-0.5,0.1-0.8,0.2c0.2-0.1,0.4-0.2,0.6-0.3
		c0.5-0.3,1-0.5,1.5-0.8l0,0c0,0,0,0,0-0.1c0-0.1,0,0,0,0l0,0l0,0l0,0l0,0l0,0l0,0c-0.1,0-0.1,0-0.2,0l0,0l0,0c0,0,0,0,0-0.1l0,0
		l0,0l0,0c0.1-0.1,0.2-0.1,0.3-0.2c0.4-0.3,0.9-0.5,1.3-0.9c0.1-0.1,0-0.2-0.1-0.2c-0.2,0.1-0.4,0.2-0.6,0.3
		c0.1-0.1,0.3-0.2,0.4-0.3c0.1-0.1,0-0.2-0.1-0.2c-0.5,0.3-1,0.5-1.5,0.7c-0.7,0.3-1.4,0.6-2.2,0.8c-1.1,0.4-2.3,0.8-3.4,1
		c-0.1,0-0.3,0.1-0.4,0.1c-1.1,0.3-2.3,0.5-3.3,0.7c-0.1,0-0.1,0.1-0.2,0.1l0,0c-0.1,0.1-0.2,0.1-0.3,0.2c-0.8,0.4-1.8,0.7-2.8,0.6
		c-0.1,0-0.1,0.1-0.2,0.1l0,0c-0.2,0.1-0.3,0.2-0.5,0.3c-1.3,0.7-2.9,1.1-4.3,1c-1.3,0.5-2.9,0.6-4.1,0.2c-0.4,0.1-0.9,0.1-1.3,0.2
		c-0.9,0.1-1.9,0.1-2.8,0c0.2,0,0.4-0.1,0.6-0.1c-0.1,0-0.2,0-0.3,0c0.2,0,0.4-0.1,0.5-0.1c-0.4,0-0.7,0-1.1,0
		c0.2,0,0.4-0.1,0.6-0.1h-0.4c0.2,0,0.4-0.1,0.5-0.1c-3.8,0.2-7.8,0-11.8-0.5c0.7,0.1,1.4,0.2,2.2,0.4c-0.8-0.1-1.5-0.2-2.4-0.3
		c0.3,0,0.5,0.1,0.8,0.1c0,0-0.1,0-0.2,0c0.6,0.1,1.3,0.2,2,0.3c-0.8-0.1-1.5-0.2-2.3-0.3c0.6,0.1,1.1,0.2,1.8,0.3
		c-0.4,0-0.9,0.1-1.3,0.1c-0.7-0.1-1.4-0.3-2.1-0.4c0.3,0,0.6,0,1-0.1c-0.1,0-0.2,0-0.3-0.1c0.2,0,0.3,0,0.5,0
		c-0.2,0-0.3-0.1-0.5-0.1h0.1c-0.1,0-0.3,0-0.4-0.1c0.2,0,0.4,0,0.6,0c-3.9-0.6-7.6-1.5-11.1-3c0.4,0.2,0.8,0.4,1.2,0.5
		c-0.3-0.1-0.6-0.2-0.9-0.3c0.3,0.1,0.6,0.3,1,0.4c-0.5-0.2-0.9-0.3-1.4-0.5c0.4,0.2,0.8,0.3,1.2,0.5c-0.3-0.1-0.6-0.2-0.9-0.3
		c1,0.4,2.1,0.9,3.1,1.3c-1,0-2.2-0.1-3.2-0.3c-0.3-0.3-0.7-0.5-1-0.7c-0.8-0.6-1.7-1.1-2.5-1.7c-0.4-0.3-0.8-0.5-1.1-0.8l0,0
		c-0.1-0.1-0.2-0.1-0.3-0.2c-0.1,0-0.1,0.1-0.1,0.1c0.4,0.3,0.9,0.6,1.3,1c1.1,0.8,2.3,1.5,3.4,2.4c-0.1,0-0.1,0-0.2,0
		c-0.3-0.2-0.5-0.4-0.8-0.5c-0.8-0.6-1.7-1.1-2.5-1.8c-0.4-0.3-0.7-0.5-1.1-0.8l0,0c-0.1-0.1-0.2-0.1-0.3-0.2
		c-0.1,0-0.1,0.1-0.1,0.1c0.4,0.3,0.9,0.7,1.3,1c1,0.7,2.1,1.3,3.1,2.1c-1.1-0.2-2.2-0.6-3.2-1.1c-0.2-0.2-0.4-0.3-0.6-0.5
		c-0.8-0.8-1.4-1.8-1.9-2.7c0.5,0.3,0.9,0.5,1.4,0.8c-0.1-0.1-0.1-0.2-0.2-0.3c0.1,0.1,0.2,0.1,0.4,0.2c-0.1-0.1-0.2-0.3-0.2-0.5
		c-0.1,0-0.2-0.1-0.3-0.2l0,0c-0.5-0.3-0.9-0.5-1.4-0.8c-0.1-0.3-0.2-0.6-0.3-0.9c1.2-5,1.5-10.5,1.1-15.6c0-0.1-0.1-0.1-0.1-0.1
		c0.5-3.8,0.9-7.6,1-11.5c0.1,5.7,0.1,11.3-0.6,16.8c0,0.1,0.1,0.1,0.1,0c0.2-1.1,0.3-2.4,0.4-3.5c-0.1,1.1-0.2,2.3-0.3,3.4
		c0,0.1,0.1,0.1,0.1,0c0-0.4,0.1-0.7,0.1-1.1c0,0.5-0.1,0.9-0.2,1.4c0,0.1,0.1,0.1,0.1,0c0.2-1.3,0.3-2.7,0.5-3.9
		c-0.1,1.2-0.2,2.6-0.4,3.8c0,0.1,0.1,0.1,0.1,0c1.3-9.3,0.7-18.7,0.5-28c0.1,3.4,0.2,6.9,0.2,10.3c0,0.1,0.2,0.1,0.2,0
		c0-0.6,0-1.2,0-1.8c0,0.5,0,1.1,0,1.8c0,0,0,0.1,0.1,0.1v0.2c0,0.1,0.1,0.1,0.1,0c0-0.5,0-0.9,0-1.4c0,0.5,0,0.9,0,1.3
		c0,0.1,0.2,0.1,0.2,0c0.3-13-0.7-25.9-1.8-38.8c0.1,0.4,0.1,0.8,0.2,1.1c0,0.1,0.2,0.1,0.2,0l0,0l0,0c0,0.1,0,0.2,0,0.2
		c0,0.1,0.2,0.1,0.2,0l0,0c0.1,0.1,0.2,0,0.2-0.1c-0.1-1.8-0.3-3.4-0.5-5.2c-0.7-13.2-2.3-26.5-1.7-39.8c0.2-3.2,0.5-6.5,0.9-9.7
		c0.8-4.4,2-8.9,3.1-13.3c0.3-0.6,0.6-1.2,0.9-1.9c0.1-0.1-0.1-0.2-0.1-0.1c0,0,0,0.1-0.1,0.1c0,0-0.1-0.1-0.1,0
		c-0.1,0.2-0.2,0.3-0.3,0.5c0-0.1,0.1-0.2,0.1-0.2c0.1-0.2,0.2-0.3,0.3-0.5c0-0.1,0-0.1-0.1-0.1c0-0.2,0.1-0.3,0.1-0.5
		c0,0,0,0,0.1,0v-0.1c0,0,0.1,0.1,0.1,0c6.8-12.1,9.9-26,9.8-40v0.1c0.1,0.1,0.2,0,0.2-0.1c0.1,0.1,0.2,0,0.2-0.1
		c-0.2-0.6-0.3-1.2-0.5-1.9c0-0.2,0-0.4,0-0.5s-0.1-0.1-0.1-0.1c-0.7-3.4-0.8-6.6-0.3-10.1c0-0.1-0.2-0.1-0.2,0l0,0c0,0,0,0-0.1,0
		c0-0.1,0-0.1,0-0.2c0-0.1-0.2-0.1-0.2,0l0,0c0,0-0.1,0-0.2,0.1c-1.1,3.9-1.1,7.8,0.4,11.7c-0.3,6.8-0.7,13.6-2.2,20.3
		c-1.4,6.4-3.8,12.4-6.5,18.3c-0.1,0-0.1,0-0.2,0.1l0,0h-0.1c0-0.1,0-0.1,0-0.2c0-0.2-0.2-0.2-0.2-0.1l0,0c-0.1,0-0.1,0-0.2,0.1
		c-0.5,1.5-0.9,3-1.3,4.5c0.2-0.9,0.4-2,0.7-2.9c0-0.1-0.2-0.2-0.2-0.1l0,0h-0.1c0,0,0-0.1,0-0.2s-0.2-0.2-0.2-0.1l0,0
		c-0.1,0-0.1,0-0.2,0c-0.7,2.6-1.3,5.2-1.9,7.7c-3.7,8.8-5.2,18-4.8,27.8c0.3,7.6,1.3,15.2,2.6,22.6c0.8,13,2.2,26,2.9,38.9
		c-0.1,0-0.2,0-0.2,0.1l0,0l0,0v-0.2c0-0.2-0.2-0.2-0.2,0l0,0c-0.1-0.1-0.2,0-0.2,0.1v0.6c0,0,0,0-0.1,0c0-0.1,0-0.1,0-0.2
		c0-0.1-0.2-0.1-0.2,0c0,0,0,0,0,0.1c0-0.1-0.2-0.1-0.2,0c0.4,10.4-0.4,20.9-2.4,31c0.1-4.8,0.8-9.6,1.2-14.4c0-0.2-0.2-0.2-0.3,0
		l0,0c0-0.1,0-0.1,0-0.2c0-0.2-0.2-0.2-0.3,0c-0.1,0-0.2,0-0.2,0.1c-0.4,5.9-1.5,12-1.1,18c-0.4,1.7-0.4,3.3-0.1,4.9
		c-0.1,0-0.2,0.1-0.1,0.2c0.1,0,0.1,0.1,0.2,0.1c0.1,0.4,0.3,0.8,0.4,1.2c0,0.1,0,0.2-0.1,0.3c-0.1,0-0.2,0-0.1,0.1
		c0,0.1,0,0.1,0.1,0.2c0,0.1,0,0.1,0,0.2c0,0.1,0.1,0.1,0.1,0.1c0.6,1.9,1.7,3.2,2.9,4.4H19c0.1,0.1,0.1,0.1,0.2,0.2
		c0.2,0,0.4-0.1,0.7,0c0,0,0,0,0.1,0c-0.1-0.1-0.1-0.1-0.2-0.2c0.1,0,0.2,0,0.3,0c0,0,0,0,0.1,0c-0.1,0-0.1-0.1-0.2-0.2
		c0.5,0.3,1.1,0.5,1.7,0.7c2,0.5,3.9,1.2,5.9,1.9l0,0l0,0c3.5,1.1,7,2.3,10.6,2.9c0-0.1,0-0.1,0-0.2c0.1,0,0.1,0,0.2,0l0,0
		c0.6,0,1.2,0.1,1.9,0.1c-0.2,0-0.4,0-0.6,0c0.2,0,0.3,0,0.5,0.1c-0.2,0-0.5,0-0.7,0c0.2,0,0.4,0,0.7,0.1c-0.1,0-0.1,0-0.2,0
		c0.2,0,0.3,0,0.5,0.1c-0.2,0-0.5,0-0.7,0c1.1,0.2,2.3,0.3,3.4,0.3c0.3,0,0.6,0,0.9,0.1c0.6,0,1.2,0,1.8-0.1c0.4,0,0.8,0.1,1.1,0.1
		c4-0.1,8.1-0.5,12-0.6c3-0.6,5.9-1.4,8.8-2.3l0,0c0,0,0.1,0,0.1-0.1c0,0,0,0,0.1,0l0,0c0.1,0,0.1-0.3-0.1-0.2c-0.1,0-0.2,0-0.3,0.1
		c0,0,0,0,0.1,0l0,0c0.1,0,0.1-0.1,0.1-0.2c2.2-0.8,4.3-1.8,6.4-2.9c0.1,0,0.1-0.1,0.2-0.1l0,0c0.1,0,0.1-0.1,0.2-0.1v-0.1
		c0.3-0.1,0.6-0.2,1-0.3c-0.3,0.4-0.5,0.7-0.8,1c-0.1,0.2-0.3,0.4-0.5,0.5c0.2-0.1,0.4-0.1,0.6-0.2c-0.1,0.1-0.2,0.3-0.4,0.4
		c0.3-0.1,0.5-0.2,0.8-0.3c0.2-0.1,0.3-0.1,0.5-0.2c0,0,0.1,0,0.1-0.1H76c0.4-0.3,0.8-0.7,1.2-1C76.6,252.5,75.9,252,75.1,251.5z
		 M15.5,141.5c0-6.7,0.9-13.3,2.9-19.6c-0.2,0.9-0.3,1.8-0.4,2.7C16.7,130.1,15.8,135.8,15.5,141.5z M16.4,239.1
		c0-0.1,0.1-0.3,0.1-0.4c0,0.2-0.1,0.4-0.1,0.5V239.1z M16.7,238.8c-0.1,0.4-0.1,0.8-0.2,1.2v-0.1C16.5,239.5,16.6,239.1,16.7,238.8
		z M16.5,246.5c-0.1-0.3-0.1-0.7-0.2-1c0.1,0.3,0.1,0.6,0.2,0.8C16.5,246.4,16.5,246.4,16.5,246.5z M16.6,242.8c0-0.3,0-0.7-0.1-1
		c0.1-0.3,0.1-0.5,0.2-0.8c0-0.1-0.2-0.2-0.2-0.1c0-0.1,0-0.3,0-0.4c0.1-0.6,0.3-1.1,0.4-1.8c-0.1,0.5-0.2,1.1-0.3,1.7
		c0,0.1,0.1,0.1,0.1,0c0.5-2.1,0.9-4.2,1.3-6.4c0,3.5-0.5,7-1.1,10.4C16.7,243.9,16.6,243.3,16.6,242.8z M17.1,247.8
		c0.5,1,1,2,1.8,2.8c-0.8-0.7-1.4-1.5-1.9-2.5C17,248,17,247.9,17.1,247.8z M18.9,252.4c-0.7-0.8-1.3-1.8-1.9-2.8
		c0.1,0.2,0.2,0.3,0.3,0.4v0.1c0.2,0.1,0.4,0.3,0.5,0.4c0.1,0.1,0.2,0.1,0.2,0.2c0.2,0.2,0.5,0.4,0.8,0.6c0.2,0.2,0.4,0.3,0.7,0.5
		c0.8,0.6,1.8,1.1,2.6,1.7C21.1,253.2,20,252.8,18.9,252.4z M25.2,253.9c-0.1-0.1-0.3-0.1-0.4-0.2h-0.1c-0.4-0.1-0.8-0.3-1.2-0.5
		c0.5,0.1,1.1,0.2,1.7,0.3c0,0,0.1,0,0.1,0.1c0,0,0.1,0,0.1-0.1c0.8,0.1,1.5,0.2,2.4,0.2l0,0c-0.6,0.1-1.2,0.2-1.9,0.3
		C25.6,254.1,25.4,254.1,25.2,253.9z M27.5,254.5c0.3,0,0.6-0.1,0.9-0.1c0.1,0.1,0.3,0.2,0.4,0.3C28.5,254.7,27.9,254.6,27.5,254.5z
		 M29.9,254.7c-0.2-0.1-0.4-0.2-0.6-0.3c0.5,0,0.9,0,1.4,0c0.3,0.1,0.5,0.2,0.8,0.3C31,254.7,30.4,254.7,29.9,254.7z M34.7,257.6
		c-0.5-0.2-0.9-0.3-1.4-0.5c1.5,0.3,3.2,0.5,4.8,0.6C36.8,257.7,35.7,257.6,34.7,257.6z M51.3,256.8c2.4-0.3,4.8-0.7,7.1-1.2
		c-1.9,0.4-3.6,0.8-5.5,1.2C52.4,256.8,51.9,256.8,51.3,256.8z M56.1,257.2C56.1,257.2,56.2,257.2,56.1,257.2
		c0.1-0.1,0.1-0.1,0.2-0.1c0.1,0,0.1-0.2,0-0.2c0,0,0,0-0.1,0c2-0.5,3.9-0.9,5.9-1.5c0.6-0.1,1.2-0.1,1.9-0.2
		c-0.6,0.2-1.1,0.4-1.8,0.7h-0.1C60.1,256.3,58.1,256.8,56.1,257.2z M65.2,256C65.2,256,65.2,255.9,65.2,256c-0.1,0-0.2,0-0.2,0.1
		l0,0c0,0,0,0-0.1,0c-0.1,0.1-0.3,0.1-0.4,0.1c0.2-0.1,0.3-0.2,0.5-0.3c0.1-0.1,0-0.2-0.1-0.1c-0.1,0-0.1,0.1-0.1,0.1l0,0
		c-0.3,0.2-0.6,0.4-0.9,0.6c-1.2,0.3-2.5,0.6-3.6,0.9c2.7-0.7,5.4-1.8,8-3c1.1-0.1,2.4-0.3,3.6-0.5C69.6,254.6,67.4,255.4,65.2,256z
		 M73.5,253.4L73.5,253.4c0.1,0,0.1,0,0.1,0C73.5,253.4,73.5,253.4,73.5,253.4z M77.3,218.4C77.2,218.4,77.2,218.4,77.3,218.4
		c-0.1,0-0.2,0-0.2,0.1c-0.1,0.1-0.2,0.3-0.3,0.4c-0.5,0.8-1.1,1.7-1.9,2.5c-0.9,1-1.9,2-2.9,2.9c0,0.1,0,0.2,0,0.3
		c0.1-0.1,0.1-0.1,0.2-0.2v0.1c1.2-1.1,2.4-2.3,3.5-3.6c0.5-0.6,1-1.3,1.5-2.1l0.2-0.3C77.5,218.4,77.3,218.3,77.3,218.4z
		 M75.9,197.5L75.9,197.5c-0.1,0-0.2,0-0.2,0.1c-1.2,2.1-2.6,4.2-4,6.1c0,0.1,0,0.2,0,0.3c0.1-0.1,0.1-0.2,0.2-0.2v0.1
		c1.5-2,2.9-4.1,4.2-6.3C76.1,197.5,76,197.4,75.9,197.5z M76.5,184C76.5,184.1,76.5,184.1,76.5,184c-0.1,0.1-0.1,0-0.2,0.1
		c-1.4,3.2-3.4,6.2-5.7,8.9c0,0.1,0,0.2,0,0.3c0.1-0.1,0.1-0.1,0.2-0.2v0.1c2.4-2.7,4.3-5.7,5.8-9.1C76.7,184,76.6,183.9,76.5,184z
		 M75.6,197.3L75.6,197.3c-0.1,0-0.1,0-0.2,0.1c-1.2,2.1-2.6,4.2-4,6.1c0,0.1,0,0.2,0,0.3c0.1-0.1,0.1-0.2,0.2-0.2v0.1
		c1.5-2,2.9-4.1,4.2-6.3C75.9,197.3,75.7,197.1,75.6,197.3z M76.1,181.1C76.1,181.1,76,181.1,76.1,181.1c-0.1,0.1-0.1,0.1-0.2,0.1
		c-1.8,1.9-3.6,3.5-5.6,5.1v0.2c0.1-0.1,0.1-0.1,0.2-0.1l0,0c2-1.5,3.9-3.3,5.7-5.2C76.3,181.1,76.2,181,76.1,181.1z M76.2,183.7
		C76.2,183.6,76.2,183.5,76.2,183.7c-0.1,0-0.1,0-0.2,0c0,0-0.1-0.1-0.1,0c-1.9,2-3.6,4-5.5,6.1v0.2c0.1-0.1,0.1-0.1,0.2-0.2v0.1
		C72.6,187.9,74.3,185.7,76.2,183.7z M77.3,176.3c-2.3,2.4-4.6,4.8-7.1,6.8c0,0.1,0,0.1,0,0.2l0.2-0.1l0,0c2.5-2,4.8-4.2,7-6.6
		L77.3,176.3z M75.2,162.7l-0.1-0.5c-1.7,2.9-3.5,5.8-5.6,8.4c0,0.1,0,0.2,0,0.2c0.1-0.1,0.1-0.1,0.2-0.2v0.1
		C71.7,168.1,73.6,165.4,75.2,162.7z M76.4,181.3C76.3,181.3,76.3,181.3,76.4,181.3c-0.1,0.1-0.2,0.1-0.2,0.1
		c-1.8,1.9-3.6,3.5-5.6,5.1c0,0.1,0,0.2,0,0.2c0.1-0.1,0.1-0.1,0.2-0.2c0,0,0,0,0,0.1c2-1.5,3.9-3.3,5.7-5.2
		C76.6,181.3,76.5,181.2,76.4,181.3z M76.3,203.9L76.3,203.9c-0.1,0-0.1,0-0.1,0s0-0.1,0.1-0.2c0-0.1-0.2-0.2-0.2-0.1l0,0
		c0,0-0.1,0-0.2,0c-0.9,2.8-2.4,5.4-4.1,7.7v0.3c0.1-0.1,0.1-0.2,0.2-0.3v0.2c0.9-1.2,1.9-2.6,2.6-3.9c-0.7,1.3-1.5,2.7-2.5,3.9v0.3
		c0.1-0.1,0.1-0.2,0.2-0.3v0.2c1.8-2.4,3.3-5,4.2-8C76.6,203.8,76.4,203.7,76.3,203.9z M75.9,194.4c0.4-0.5,0.9-1.1,1.4-1.7
		c0-0.1,0-0.1,0-0.2C76.8,193.1,76.4,193.7,75.9,194.4z M77.4,212.3c0-0.5,0-1-0.1-1.5c0-0.9,0-1.9,0-2.7c-0.1,0.9-0.1,1.9-0.1,2.8
		c0,0.5-0.1,1-0.1,1.5c0,0.3,0,0.6,0,0.8c0.1-0.1,0.1-0.2,0.2-0.3c0,0,0.1,0,0.2,0c0,0,0,0,0-0.1l0,0
		C77.4,212.6,77.4,212.4,77.4,212.3z M77,213.9C77,213.9,77,214,77,213.9c0.1-0.2,0.3-0.4,0.4-0.6l0,0
		C77.3,213.5,77.2,213.7,77,213.9z M76.5,227.9L76.5,227.9v1.7c0,0,0-0.1,0.1-0.1l0.1-0.1v-1.5C76.6,227.8,76.5,227.8,76.5,227.9z
		 M76.6,227.7v1.5c0,0,0-0.1,0.1-0.1L76.6,227.7C76.7,227.6,76.6,227.7,76.6,227.7z M76.8,229.6C76.8,229.6,76.7,229.6,76.8,229.6
		l-0.1,0.2C76.8,229.7,76.8,229.6,76.8,229.6L76.8,229.6L76.8,229.6C76.9,229.5,76.8,229.5,76.8,229.6z M76.7,227.6v1.5
		c0.1-0.1,0.1-0.1,0.2-0.2v-1.5C76.8,227.5,76.8,227.5,76.7,227.6z M78.6,223.8c0,0.1,0,0.1,0,0.1S78.6,223.9,78.6,223.8L78.6,223.8
		z M79.5,146.3C79.5,146.3,79.4,146.3,79.5,146.3C79.4,146.3,79.5,146.3,79.5,146.3L79.5,146.3z M69.8,115.6L69.8,115.6h-0.1
		c0,0,0-0.1,0-0.2s-0.2-0.2-0.2-0.1l0,0c-0.1,0-0.2,0-0.2,0c-1.4,5.2-2.7,10.3-5.1,15.2c0,0.1,0.1,0.1,0.1,0.1s0-0.1,0.1-0.1
		c0,0.1,0.1,0.1,0.1,0c0.4-0.7,0.7-1.4,1-2.2c-0.3,0.8-0.7,1.7-1,2.4c0,0.1,0.1,0.1,0.1,0.1c0-0.1,0-0.1,0.1-0.1c0,0,0.1,0.1,0.1,0
		c2.5-4.6,3.7-10,5.2-15.1C70,115.5,69.8,115.4,69.8,115.6z M74.9,126.2C74.9,126.3,74.9,126.3,74.9,126.2c-0.1,0-0.2,0-0.2,0.1
		c-0.1,0.3-0.2,0.6-0.4,0.9c0.1-0.4,0.3-0.7,0.4-1.1c0-0.1-0.1-0.2-0.2-0.1v0.1c0,0-0.1-0.1-0.1,0c-2.5,6-5.7,11.7-8.4,17.6
		c0,0,0,0.1,0.1,0c0.2-0.3,0.3-0.7,0.5-1c-0.1,0.3-0.3,0.6-0.4,0.8c0,0.1,0.1,0.1,0.1,0.1c1.3-2.6,2.6-5.2,3.9-7.7
		c-1.3,2.7-2.7,5.4-3.9,8.1c0,0,0.1,0.1,0.1,0c0.2-0.3,0.3-0.7,0.5-1c-0.1,0.3-0.3,0.6-0.4,0.8c0,0,0.1,0.1,0.1,0
		c2.9-5.8,6-11.6,8.5-17.6C75.1,126.2,74.9,126.1,74.9,126.2z M75.2,162.7L75.2,162.7c0.2-0.4,0.5-0.8,0.7-1.2
		C75.7,161.8,75.5,162.2,75.2,162.7z M80.6,157.9c0-5.2-0.1-10.4-0.7-15.6c0.1-0.3,0.2-0.6,0.4-0.9c0-0.1-0.2-0.2-0.2,0l0,0H80
		c0-0.1,0.1-0.1,0.1-0.2c0.1-0.1-0.1-0.2-0.2-0.1c-0.6-4.9-1.5-9.5-2.9-14.1c0-0.1,0.1-0.1,0.1-0.2c0-0.1-0.1-0.2-0.2-0.1
		c-0.5-1.7-1-3.3-1.7-4.9c-0.1-0.1-0.2-0.1-0.2,0c0-0.1,0-0.1-0.1-0.2c-0.1-0.1-0.3-0.1-0.2,0.1c-0.1-0.1-0.2,0-0.2,0.1
		c0.6,1.8,1.2,3.5,1.8,5.3c-1.4,3.9-3.3,7.6-5.4,11.3c0,0.1,0.1,0.1,0.1,0.1c0.1-0.2,0.2-0.4,0.3-0.5c-0.1,0.1-0.1,0.2-0.2,0.4
		c0,0.1,0.1,0.1,0.1,0c1-1.8,2.1-3.5,2.9-5.3c-0.9,1.9-1.9,3.7-2.9,5.5c0,0.1,0,0.1,0.1,0.1l0.1-0.1l0,0c0.1-0.1,0.1-0.3,0.2-0.4
		l1.1,7.5c1.8-3.6,3.4-7.2,4.6-11.2c0-0.1,0.1-0.1,0.2,0c0,0,0,0,0-0.1c0-0.1,0.2-0.1,0.2,0.1c0,0.1,0,0.1-0.1,0.2h0.1
		c0,0,0,0,0-0.1s0.2-0.1,0.2,0.1c-1.3,4.3-3.2,8.4-5.2,12.4l0.2,1.5c1.7-3.3,3.1-6.7,4.2-10.1c0-0.1,0.1-0.1,0.2,0c0,0,0,0,0-0.1
		s0.2-0.1,0.2,0s0,0.1-0.1,0.2c0.1,0,0.1,0,0.1,0s0,0,0-0.1c0-0.1,0.2-0.1,0.2,0c-1.2,3.9-2.8,7.7-4.6,11.4l1.9,12.3
		c1.2-2.2,2.5-4.4,3.5-6.7c0-0.1,0.1-0.1,0.1,0c0,0,0,0,0-0.1c0.1-0.1,0.2,0,0.2,0.1s-0.1,0.1-0.1,0.2c0-0.1,0.1-0.1,0.1,0
		c0,0,0,0,0-0.1c0.1-0.1,0.2,0,0.2,0.1c-1.2,2.6-2.6,5.1-4,7.5l1.7,10.4c0.6-0.8,1.2-1.7,1.8-2.6c0-0.1,0.1,0,0.1,0s0-0.1,0.1-0.1
		c0-0.1,0.1,0,0.1,0.1c-0.6,1-1.3,2.1-2.1,3l0.3,2.3c0.3-0.3,0.6-0.6,0.9-0.9h0.1l0.1-0.1c0.1-0.1,0.2,0,0.1,0.1
		c-0.4,0.4-0.8,0.8-1.1,1.2l1.5,10.1c0,0,0.1-0.1,0.1-0.2s0-0.1-0.1-0.2c0.5-6.1,0.9-12.2,1.3-18.2c0.2-3.2,0.3-6.4,0.3-9.6
		c0-0.2,0.1-0.4,0.1-0.6C80.7,157.9,80.6,157.9,80.6,157.9z M73.2,142.9c0,0.1-0.1,0-0.1,0c0.1-0.2,0.1-0.4,0.2-0.7
		c-0.1,0.3-0.2,0.5-0.3,0.8c0,0.1-0.1,0-0.1,0c0.2-0.6,0.4-1.2,0.6-1.9c-0.2,0.5-0.4,1-0.6,1.7c0,0.1-0.1,0-0.1,0
		c0.1-0.2,0.1-0.5,0.2-0.7c-0.1,0.3-0.2,0.5-0.3,0.8c0,0.1-0.1,0-0.1,0c1.2-3.8,2.3-7.7,3.3-11.7c0-0.1,0.2-0.1,0.1,0
		c0,0.1,0,0.1,0,0.1c0-0.1,0.1-0.2,0.1-0.3c0-0.1,0.2-0.1,0.2,0c-0.1,0.2-0.1,0.5-0.2,0.7c0-0.2,0.1-0.3,0.1-0.4
		c0-0.1,0.2-0.1,0.1,0v-0.1c0-0.1,0.2-0.1,0.1,0C75.6,135.2,74.6,139.1,73.2,142.9z M79.2,186.7C79.1,186.7,79.1,186.7,79.2,186.7
		c-0.1,0-0.1,0-0.2,0.1l0,0l0,0v0.7c0.1-0.2,0.2-0.4,0.3-0.7C79.4,186.7,79.2,186.6,79.2,186.7z M80.5,225.7
		c-0.1,0.1-0.2,0.3-0.3,0.4c0.1,0.9,0.3,1.8,0.4,2.7c0,0,0,0,0.1-0.1L80.5,225.7z M80.5,225.2L80.5,225.2l-0.1,0.4
		c0.1-0.1,0.1-0.2,0.2-0.2C80.8,225.2,80.6,225.1,80.5,225.2z M81.7,227.5L81.7,227.5c-0.1,0.1-0.1,0-0.2,0.1
		c-0.3,0.4-0.6,0.7-0.8,1.1v0.5c0.4-0.5,0.8-1,1.2-1.5C82,227.5,81.8,227.4,81.7,227.5z M73.5,226.7c-0.3,0.4-0.7,0.7-1,1.1
		c-0.3,0.4-0.7,0.7-1,1.1v-0.1c-0.1,0.1-0.1,0.2-0.2,0.2c0-0.1,0-0.2,0.1-0.3c0.3-0.3,0.6-0.6,0.9-1c0.3-0.4,0.7-0.7,1-1.1
		L73.5,226.7z M77.7,228.4c-0.3,0.3-0.6,0.7-0.8,1v0.1C77.2,229.2,77.5,228.7,77.7,228.4L77.7,228.4z M80.5,225.3l-0.2-4.8l-0.1-1.4
		c-0.4-0.1-0.7-0.2-1.1-0.2c0.1,0.5,0.1,0.9,0.2,1.4L80.5,225.3z M74.2,212.9c0.3-0.5,0.5-1,0.8-1.5c0.1-0.3,0.3-0.6,0.4-0.9
		c0-0.1,0.1-0.1,0.2,0c0,0,0,0,0-0.1c0.1-0.1,0.2,0,0.2,0.1s-0.1,0.1-0.1,0.2c0-0.1,0.1-0.1,0.1,0v-0.1c0.1-0.1,0.2,0,0.2,0.1
		c-0.1,0.2-0.1,0.3-0.2,0.5c-0.2,0.5-0.5,1-0.7,1.5c-0.1,0-0.3,0.1-0.4,0.1c0.2-0.4,0.4-0.7,0.5-1.1c-0.2,0.4-0.4,0.7-0.6,1.1
		L74.2,212.9z"/>
	<g>
		<path class="st0" d="M87.1,228.1c-0.1-0.1-0.3-0.1-0.4-0.2c0.1,0.1,0.2,0.2,0.4,0.3c0.3,0.2,0.7,0.3,1,0s0.2-0.7,0-1l-0.1-0.1l0,0
			c-0.1-0.2-0.2-0.4-0.4-0.5s-0.4-0.1-0.6,0c-0.1,0-0.1,0.1-0.2,0.1c-0.1,0.1-0.2,0.2-0.3,0.3c0.3,0.4,0.7,0.7,1,1.1
			C87.3,228.1,87.2,228.1,87.1,228.1z"/>
		<path class="st0" d="M93.8,225.8c0.1,0.1,0.3,0.1,0.4,0.1h0.1l0,0h0.1h0.1c0,0,0,0,0.1,0c0.2,0,0.3-0.1,0.5-0.1
			c0.1,0,0.2,0,0.2-0.1c0.3-0.2,0.5-0.4,0.5-0.8c0-0.4-0.2-0.8-0.6-1c-0.1,0-0.1,0-0.2,0c-0.2-0.1-0.3-0.1-0.5-0.1
			c-0.1,0-0.1,0-0.2,0c-0.3,0-0.5,0.1-0.7,0.3c-0.2,0.1-0.3,0.3-0.4,0.5C93.1,225,93.4,225.7,93.8,225.8z"/>
		<path class="st0" d="M84.5,224.6c0.4-0.3,0.6-0.2,1.1-0.3c0.8-0.2,0.7-1.4-0.1-1.5c-0.8-0.1-1.4,0.3-2,0.9
			C83.2,224.2,83.9,224.9,84.5,224.6z"/>
		<path class="st0" d="M128,224.8c0.1,0,0.1,0,0.2,0c0,0,0.2,0,0.3,0.1c0.1,0,0.1,0,0.1,0c0.1,0,0.2,0,0.3,0c0.1,0,0.2,0,0.3,0
			c0.3-0.1,0.5-0.4,0.5-0.7c0-0.4-0.1-0.7-0.4-0.9c-0.1-0.1-0.3-0.2-0.4-0.2c-0.3-0.1-0.6-0.1-0.9,0c-0.4,0.1-0.7,0.3-0.7,0.7
			C127.2,224.3,127.6,224.7,128,224.8z"/>
		<path class="st0" d="M73.9,226.9c-0.1,0-0.2-0.1-0.3-0.1c0,0,0,0-0.1,0c-0.3,0.4-0.7,0.7-1,1.1c0,0,0,0,0.1,0
			c0.1,0,0.2,0.1,0.3,0.1c0.3,0.1,0.5,0.2,0.7,0.3c0.9,0.4,1.9,0.7,2.8,1.1v-1.5c0,0,0,0,0-0.1C75.6,227.6,74.7,227.2,73.9,226.9z
			 M79.1,218.9c-0.5-0.1-1.1-0.1-1.8-0.1h-0.1c-0.1,0-0.3,0-0.4,0.1c0,0,0,0-0.1,0c-0.1,0-0.3,0.1-0.4,0.1c-2.7,0.7-5,3.2-6.3,5.5
			c-0.1,0.3,0.2,0.6,0.4,0.4c1-0.6,2-1.4,2.8-2.3l0,0c0.5-0.4,0.9-0.8,1.4-1.1c0.1-0.1,0.1-0.1,0.2-0.1c0.2-0.2,0.5-0.3,0.7-0.4
			c1-0.5,2.2-0.8,3.6-0.6C79.3,219.9,79.2,219.4,79.1,218.9z M75.1,211.8c-0.2,0.4-0.4,0.7-0.5,1.1l0,0
			C74.8,212.5,75,212.1,75.1,211.8z M154.9,176.3c-2.6-0.1-4.3,2.1-5.5,4c-1.8,2.9-3.1,6-5.3,8.6c-4.9,5.7-10.4,10.8-15.8,16
			c-1.3,1.2-2.6,2.6-3.9,3.8c-6-0.6-12.1-1.2-18.2-1.4c-0.6,0-1.2,0.1-1.9,0c-0.2,0.1-0.3,0.1-0.5,0.1c-0.3,0-0.6,0-0.9-0.1
			c-2.8,0.2-5.6,0.4-8.4,0.7c0,0-0.9,0.1-2.4,0.2l0,0c-1.1,0.1-2.3,0.3-3.4,0.4l0,0c-2.6,0.3-5.8,0.8-9.1,1.5l0,0
			c-0.5,0.1-1,0.2-1.5,0.3c-0.3,0.1-0.6,0.1-0.9,0.2c-0.1,0-0.1,0-0.2,0c-0.5,0.1-0.9,0.2-1.4,0.4c-0.3,0.1-0.6,0.2-0.8,0.2
			c-5.3,1.5-10.1,3.6-12,6.6c-0.1,0.3-0.1,0.7-0.1,1c-0.1,0-0.1,0.1-0.2,0.2c0,0.1-0.1,0.1-0.1,0.2c-0.5,4.2,1,15.5,1.1,16.1
			c0.4,2.1,0.9,4.1,1.7,6.2c1.3,3.6,3.4,6.7,6,9.3c0.4,0.4,0.8,0.7,1.1,1.1l0.1,0.1c0.4,0.4,0.9,0.8,1.4,1.1
			c0.2,0.2,0.4,0.3,0.6,0.4c0.2,0.2,0.4,0.3,0.6,0.5c1.4,1,3,2,4.6,2.8c8,4,16.5,5.2,25.2,4.8c0-0.1,0-0.3,0-0.4c0,0.1,0,0.3,0,0.4
			c8.7,0.2,17.2-1.1,25.1-5.4c6.5-3.5,11.8-8.6,14.3-15.7c1.2-3.5,1.7-7.1,2.4-10.8c0.8-3.9,1.8-8.1-0.2-11.7c0-0.1-0.1-0.1-0.2-0.2
			c0-1.2-0.4-2.3-1.3-3.3c-1.3-1.3-3.2-2.4-5-3c-2.3-0.8-4.5-1.4-6.9-1.9c0.8-0.7,1.8-1.5,2.6-2.3c3.3-2.8,6.7-5.4,9.9-8.3
			c3.1-2.7,6-5.7,8.7-8.8c2.1-2.4,4.5-4.4,4.6-8.1C159.2,180.5,157.8,176.5,154.9,176.3z M67.6,215.2c2.2-0.9,4.3-1.7,6.6-2.3
			c0.1,0,0.3-0.1,0.4-0.1l0,0c0.1,0,0.3-0.1,0.4-0.1l0,0c0.6-0.2,1.3-0.3,2.1-0.4c0.1,0,0.2,0,0.3-0.1c0.3-0.1,0.6-0.1,0.9-0.2
			c0.5-0.1,1-0.2,1.5-0.3c3-0.5,6.1-0.8,9.1-1.2c5.3-0.6,10.4-1.1,15.6-1.4c5.3,0.2,10.4,0.6,15.6,1.1c0.8,0.1,1.5,0.1,2.4,0.2
			c-2.5,2.4-5.1,4.8-7.7,7c-1-1-2.3-1-3.7-1.1c-2.1-0.2-4.2,0-6.3,0.5c-2.3,0.5-4.1,1.7-6.5,1.3c-0.8-0.1-1.7-0.9-2.3-1.3
			c-0.7-0.4-1-0.4-2-0.4c-2.1,0-3.6,0.2-5.5,1c-1.9,0.8-3.7,2.2-5.8,2.1c-0.9,0-1.8-0.2-2.6-0.4c-0.4-0.1-0.7-0.2-1.1-0.2
			c-0.5-0.1-1.1-0.1-1.8-0.1h-0.1c-0.1,0-0.3,0-0.4,0.1c0,0,0,0-0.1,0c-0.1,0-0.3,0.1-0.4,0.1c-2.7,0.7-5,3.2-6.3,5.5
			c-0.1,0.3,0.2,0.6,0.4,0.4c1-0.6,2-1.4,2.8-2.3l0,0c0.5-0.4,0.9-0.8,1.4-1.1c0.1-0.1,0.1-0.1,0.2-0.1c0.2-0.2,0.5-0.3,0.7-0.4
			c1-0.5,2.2-0.8,3.6-0.6h0.1c0.3,0,0.6,0.1,0.8,0.2c1.2,0.3,2.4,0.6,3.6,0.4c1.4-0.2,2.7-0.8,4-1.5c2-0.9,3.6-1.4,5.8-1.4
			c1,0,1.3,0.1,2.2,0.6c0.5,0.4,1.1,0.8,1.8,1c1.5,0.5,3.1,0.2,4.6-0.3c2.2-0.6,4-1.2,6.3-1.4c1.2-0.1,3.2-0.3,4.5,0.3
			c0.5-0.3,1.1-0.5,1.8-0.6c-0.9,0.8-2,1.7-2.9,2.5c-0.1-0.1-0.3-0.2-0.5-0.1c-7.3,3.1-15.6,5.1-21.3,10.5c-0.3,0.3-0.5,0.5-0.8,0.8
			c-3.9-0.6-7.8-1.5-11.6-3l0,0c-0.1,0-0.2-0.1-0.3-0.1S77,228,76.9,228c-0.1,0-0.1-0.1-0.2-0.1l0,0c-0.1,0-0.1,0-0.2-0.1l0,0h-0.1
			l0,0c0,0-0.1,0-0.1-0.1c-0.8-0.3-1.8-0.7-2.6-1c-0.1,0-0.2-0.1-0.3-0.1c0,0,0,0-0.1,0c-0.1,0-0.2-0.1-0.3-0.1
			c-1.1-0.5-2.2-0.9-3.3-1.4c-1.3-0.6-2.6-1.3-3.8-2.3c-1.1-0.8-2.6-1.8-2.7-3.2v-0.1c0.1-0.2,0-0.3-0.2-0.4
			C63.8,217.3,66,215.9,67.6,215.2z M145.2,229.7c-0.8,3.6-1.1,7.1-2.5,10.5c-5.8,14.8-22.6,19.5-37.3,19.3h-0.2l0,0
			c-9.6,0.4-20-1.3-27.9-6.5c-0.7-0.5-1.3-0.9-2.1-1.5c-0.3-0.3-0.6-0.5-0.9-0.8c-0.2-0.2-0.4-0.4-0.6-0.5c-2.6-2.4-4.8-5.4-6.2-9
			c-1.4-3.4-1.9-7-2.7-10.5c-0.7-2.9-1.8-6-1.4-9.1c0.6,1.2,1.9,2.2,2.9,2.9c1.9,1.3,4,2.3,6.2,3.2c0.1,0,0.2,0.1,0.3,0.1
			c0,0,0,0,0.1,0c0.1,0,0.2,0.1,0.3,0.1c0.3,0.1,0.5,0.2,0.7,0.3c0.9,0.4,1.9,0.7,2.8,1.1c0,0,0,0,0.1,0s0.2,0.1,0.3,0.1
			c0,0,0,0,0.1,0c0.9,0.3,1.8,0.6,2.7,0.9l0,0c1.9,0.6,3.6,1.1,5.6,1.5c4.5,1,9.1,1.3,13.7,1.5c1.7,0.1,3.4,0.1,5.1,0.1l0,0
			c0.3,0,0.5,0,0.8,0c0.4,0,0.8,0,1.1,0l0,0c1.8,0,3.4-0.1,5.1-0.2c4.6-0.3,9.2-0.7,13.6-1.9c4-0.9,7.6-2.5,11.4-4.1
			c2.6-1.1,5.2-2.3,7.4-3.9c1-0.8,2.2-1.8,2.8-3C146.7,223.6,145.8,226.8,145.2,229.7z M98.1,232.3c2-1.5,3.8-3.1,5.9-4.4
			c1.7-1.1,3.4-2.3,5.4-2.9c1.1-0.4,3-0.8,4.1,0.4c1.5,1.7,1,4.6,0.6,6.3v0.1c-2.8,0.3-5.6,0.5-8.4,0.6c-0.3,0-0.5,0-0.8,0h-0.7
			C102.2,232.5,100.1,232.5,98.1,232.3z M115.7,228.2c0.1,1.1,0.4,2.4,0.5,3.4c-0.2,0-0.5,0.1-0.7,0.1c0.1-0.5,0.1-1,0.2-1.5
			C115.7,229.6,115.7,229,115.7,228.2z M116.8,225.7C116.8,225.7,116.9,225.7,116.8,225.7c2.6-2.6,5.2-5.2,7.7-7.6
			c0.8,0.3,1.5,0.8,2,1.5c0.5,0.8,1,1.4,2.1,1.5c0.3,0,0.7,0,0.9-0.2c0.6-0.8,1.4-1.5,2.5-1.7c2.7-0.3,4.9,3.7,6.3,5.4
			c0.1,0.1,0.2,0.2,0.4,0.2c-2,1-4,1.9-6.1,2.7c-4.8,2-9.7,3.2-14.8,3.9c-0.2-1.9-0.3-3.8-1-5.7
			C116.9,225.8,116.8,225.7,116.8,225.7z M134.2,212c2.6,0.5,5.2,1.2,7.6,2.3c1.5,0.7,3.8,2,4.3,3.7c-0.1,0.1-0.2,0.2-0.2,0.4v0.1
			c-0.1,1.4-1.5,2.5-2.6,3.3c-1.1,0.8-2.5,1.7-3.7,2.4c-0.2,0.1-0.4,0.2-0.5,0.3c0.1-0.1,0.1-0.3,0-0.5c-1.4-2-3.1-4.3-5.4-5.3
			c-1-0.4-2.2-0.4-3.2,0c-0.6,0.3-1,0.7-1.5,1.1c-0.5,0.5-1.2-0.8-1.4-1.2c-0.5-0.7-1.2-1.2-2-1.7c2-1.9,3.9-3.7,6-5.5
			C132.5,211.7,133.4,211.9,134.2,212z M149.2,194.6c-5.3,5.4-11.2,9.8-16.8,14.6c-0.2,0.2-0.4,0.3-0.6,0.5h0c0,0,0,0,0,0.1
			c-5.6,4.8-10.8,9.7-16,14.9c-0.3,0.3-0.1,0.6,0.1,0.9c0,0-0.1,0.1-0.1,0.2c-0.1,0.6-0.1,1.3-0.1,2.1c-0.1-1.1-0.5-2.2-1.3-3
			c-1.1-1.1-2.5-1.5-3.9-1.3c-4,0.4-7.3,3.1-10.2,5.4c-1.4,1.1-2.9,2.3-4.3,3.4c-1.7-0.1-3.2-0.3-4.9-0.5c0.6-0.6,1.3-1.2,2.1-1.8
			c5.6-4.2,12.6-6.1,19-9c0.2-0.1,0.3-0.3,0.1-0.5c5.6-4.2,10.7-8.8,15.7-13.5c2.6-2.5,5.1-5,7.6-7.4c2.6-2.4,5.2-4.8,7.6-7.3
			c2.3-2.4,4.3-4.8,6-7.6c0.7-1.3,1.5-2.7,2.5-3.9c0.7-0.9,1.7-2.2,2.9-2.4c1.7-0.3,2.9,2.2,2.9,3.6c0,1.5-0.4,3.1-1.2,4.3
			C154.4,189.3,151.8,192,149.2,194.6z M74.6,212.9L74.6,212.9c0.2-0.4,0.4-0.7,0.5-1.1C75,212.1,74.8,212.5,74.6,212.9z
			 M79.1,218.9c-0.5-0.1-1.1-0.1-1.8-0.1h-0.1c-0.1,0-0.3,0-0.4,0.1c0,0,0,0-0.1,0c-0.1,0-0.3,0.1-0.4,0.1c-2.7,0.7-5,3.2-6.3,5.5
			c-0.1,0.3,0.2,0.6,0.4,0.4c1-0.6,2-1.4,2.8-2.3l0,0c0.5-0.4,0.9-0.8,1.4-1.1c0.1-0.1,0.1-0.1,0.2-0.1c0.2-0.2,0.5-0.3,0.7-0.4
			c1-0.5,2.2-0.8,3.6-0.6C79.3,219.9,79.2,219.4,79.1,218.9z M73.9,226.9c-0.1,0-0.2-0.1-0.3-0.1c0,0,0,0-0.1,0
			c-0.3,0.4-0.7,0.7-1,1.1c0,0,0,0,0.1,0c0.1,0,0.2,0.1,0.3,0.1c0.3,0.1,0.5,0.2,0.7,0.3c0.9,0.4,1.9,0.7,2.8,1.1v-1.5
			c0,0,0,0,0-0.1C75.6,227.6,74.7,227.2,73.9,226.9z"/>
		<path class="st0" d="M123.4,226c0,0.2,0.2,0.4,0.4,0.4c0.1,0,0.2,0,0.3-0.1l0,0c0.2,0,0.5-0.1,0.6-0.3c0.1-0.1,0.1-0.3,0-0.4
			l-0.1-0.1c-0.1,0-0.1-0.1,0-0.1c-0.1-0.1-0.1-0.1-0.2-0.2c-0.2-0.2-0.5-0.3-0.8-0.2s-0.4,0.5-0.3,0.7S123.4,225.9,123.4,226z"/>
	</g>
</g>
<g>
	<path class="st0" d="M79.4,210.1L79.4,210.1l-0.9-22.7c0,0.1-0.1,0.1-0.1,0.2c-0.3,4.3-0.7,8.7-1,13c0,0,0,0,0.1,0l0,0
		c0-0.2,0.2-0.2,0.2,0c0,0.1,0,0.1,0,0.2c0,0,0,0,0.1,0l0,0c0-0.2,0.3-0.2,0.2,0c-0.3,3.3-0.3,6.5-0.1,9.6c0,0.5,0.1,1,0.1,1.5
		c0.5-0.1,1-0.2,1.5-0.3L79.4,210.1z M76.6,228c-0.1,0-0.1-0.1-0.2-0.1v0.9c0.2-0.2,0.4-0.4,0.6-0.7C76.9,228.1,76.8,228,76.6,228z
		 M73.1,226.6c-0.3,0.4-0.7,0.7-1,1.1c-0.3,0.3-0.6,0.7-1,1c0,0.1,0,0.2,0,0.3c0.1-0.1,0.1-0.1,0.2-0.2v0.1c0.4-0.4,0.8-0.8,1.1-1.2
		c0.3-0.4,0.7-0.7,1-1.1C73.3,226.7,73.2,226.6,73.1,226.6z M76.5,218.1L76.5,218.1c-0.1,0-0.2,0-0.2,0.1c-0.1,0.2-0.3,0.5-0.5,0.7
		l-3,3.6l0,0c-0.5,0.5-1,0.9-1.5,1.4c0,0.1,0,0.2,0,0.3c0.1-0.1,0.1-0.1,0.2-0.2v0.1c1-0.8,2-1.9,2.8-2.8c0.7-0.8,1.3-1.7,2-2.6
		c0.1-0.2,0.3-0.4,0.4-0.6C76.8,218.1,76.6,218,76.5,218.1z M74.8,163l-0.1-0.5c-1.7,2.8-3.4,5.6-5.5,8.1c0,0.1,0,0.2,0,0.2
		c0.1-0.1,0.1-0.2,0.2-0.2v0.1C71.5,168.3,73.3,165.6,74.8,163z M15.8,163.2c0-0.1-0.2-0.1-0.2,0v0.1c0,0,0-0.1-0.1-0.1V163
		c0-0.1-0.2-0.1-0.2,0v0.1c0-0.1-0.2-0.1-0.2,0c-0.3,17.9,2,35.7,2.4,53.7c0,0.1,0.1,0.1,0.1,0c0-0.8,0-1.8,0-2.6
		c0,0.8,0.1,1.7,0.1,2.5c0,0.1,0.1,0.1,0.1,0c0,0.1,0,0.2,0,0.3c0,0.1,0.1,0.1,0.1,0c0-0.7,0-1.4,0-2.2c0,0.7,0,1.3,0.1,2.1
		c0,0.1,0.1,0.1,0.1,0C18.3,199,16.2,181,15.8,163.2z M72.8,149.6l-0.2-1.3c-1.2,2.5-2.7,5-4.2,7.2c0,0.1,0,0.2,0,0.4
		c0.1-0.1,0.1-0.2,0.2-0.3c0,0.1,0,0.1,0,0.2c0.2-0.3,0.4-0.6,0.7-1c-0.2,0.3-0.4,0.6-0.6,0.9c0,0.1,0,0.2,0,0.4
		c0.1-0.1,0.1-0.2,0.2-0.3v0.2C70.3,154.1,71.6,151.9,72.8,149.6z M76.5,173.4c-2.1,2.7-4.3,5.1-6.9,7.2c0,0.1,0,0.2,0,0.2l0.2-0.1
		v0.1c2.5-2.1,4.8-4.3,6.7-6.9V173.4z M72.1,145.4c-1,2.2-2,4.2-2.8,6.4c0,0.1,0.1,0.1,0.1,0.1s0-0.1,0.1-0.1c0,0,0.1,0.1,0.1,0
		c0.3-0.6,0.5-1.2,0.8-1.8c-0.3,0.7-0.5,1.3-0.8,2.1c0,0.1,0.1,0.1,0.1,0c0,0,0-0.1,0.1-0.1c0,0.1,0.1,0.1,0.1,0.1
		c0.7-1.8,1.5-3.5,2.4-5.3L72.1,145.4z M76,183.6l-0.1,0.1c0,0,0,0-0.1,0c-1.9,2-3.6,4-5.5,6v0.3c0.1-0.1,0.1-0.1,0.2-0.2v0.1
		C72.4,188,74.1,185.8,76,183.6C76.1,183.7,76,183.6,76,183.6z M74.5,201.3v0.1c0-0.1-0.1-0.1-0.1,0c-0.6,2.2-1.7,4.1-2.9,5.9
		c0,0.1,0,0.2,0,0.3c0.1-0.1,0.1-0.2,0.2-0.3c0,0,0,0.1,0,0.2c1.3-1.9,2.5-3.9,3.1-6.1C74.6,201.2,74.5,201.2,74.5,201.3z
		 M51.2,68.4h-0.1c0-0.1,0-0.2-0.2-0.2c-3.3,0.5-6.6,0.6-9.9,0.5c-1.7,0-3.3-0.1-5-0.4c-1-0.2-1.9-0.7-2.9-1c-0.1,0-0.1,0-0.1,0.1
		l0,0c-0.1,0-0.1,0-0.1,0.1c0,0.5,0.3,0.8,0.7,1.1c1.3,1,4.9,1,5.8,1.1c3.8,0.2,8,0,11.7-0.9l0.1-0.1h0.1
		C51.4,68.7,51.3,68.4,51.2,68.4z M74.2,201.1c-0.1,0.3-0.2,0.5-0.3,0.8c0.1-0.2,0.2-0.5,0.2-0.7c0-0.1-0.1-0.1-0.1,0
		c-0.6,2.2-1.7,4.1-2.9,5.9c0,0.1,0,0.2,0,0.3c0.1-0.1,0.1-0.2,0.2-0.2c0,0,0,0.1,0,0.2c1.3-1.9,2.5-3.9,3-6.1
		C74.4,201,74.2,201,74.2,201.1z M73.8,121.7c0.1-0.4,0.3-0.9,0.4-1.4c0-0.1-0.1-0.2-0.2,0c0,0,0,0,0,0.1h-0.1
		c0-0.1,0.1-0.2,0.1-0.2c0-0.1-0.1-0.2-0.2,0c0,0,0,0,0,0.1c0-0.1-0.1-0.1-0.2,0c0,0.1-0.1,0.2-0.1,0.4c-0.3-1-0.6-2.2-1-3.2
		c0.1-0.5,0.2-0.9,0.3-1.3c0-0.1-0.2-0.2-0.2,0v0.1c0-0.1-0.1-0.1-0.1,0c0-0.1,0-0.1,0.1-0.2c0-0.1-0.1-0.2-0.2,0v0.1
		c0-0.1-0.1-0.1-0.2,0c0,0.1-0.1,0.2-0.1,0.3c-2.6-7.8-5.8-15.5-8.1-23.4c-1.5-5.5-2.4-10.9-2.8-16.6c-0.3-3.8-0.6-7.7-1.4-11.4
		c0.9-2.9,1-6-1.1-7.4c-0.3-0.2-0.7-0.4-1.1-0.6h-0.1c0.1-0.1,0.1-0.2,0-0.3c0.2,0,0.4-0.1,0.6-0.1l0.1-0.1h0.1c0.1,0,0.1-0.2,0-0.2
		s-0.1,0-0.2,0c0-0.1,0-0.1-0.1-0.2c-1.4-0.3-2.8-0.1-4.1,0.5c0-0.3-0.1-0.6-0.1-0.8c0-1.4,0-2.9-0.2-4.3c0-0.1-0.1-0.1-0.1-0.2
		c0,0,0.1-0.1,0-0.1h0.1c0.1,0,0.1-0.1,0-0.2c-0.1,0-0.2,0-0.2-0.1v-0.1c-0.2-0.1-0.4-0.1-0.6-0.2c0,0,0-0.1-0.1-0.1
		c0,0-0.1,0-0.2,0c-0.1,0-0.2,0-0.2,0l0,0c0.1,0,0.1,0,0.1,0c0.1,0,0-0.1,0-0.1c-0.2,0-0.3,0.1-0.5,0.1c-0.4-0.1-0.8-0.1-1.2-0.2
		c0-0.1,0-0.1,0-0.2c-0.1-2-0.2-3.8-0.3-5.8C49.9,39,49.6,34,49.4,28.8c-0.2-5.1-0.3-10.1-0.4-15.1c0-1.9,0-3.7,0.2-5.6
		c0-0.5-0.1-2,0.2-2.7c0.3,0.1,0.5,0.2,0.9,0.2V5.6c-0.3,0-0.6-0.1-0.8-0.2l0,0c0.1,0,0.2,0,0.3,0.1c0.2,0.1,0.5,0.1,0.8,0.1V5.5
		c-0.2,0-0.3,0-0.5,0l0,0c-0.1,0-0.2,0-0.2,0c-0.1,0-0.2,0-0.3-0.1l0,0c0.2,0.1,0.4,0.1,0.7,0.1c0.1,0,0.1-0.1,0-0.1
		c-0.2,0-0.4,0-0.6-0.1c0.1,0,0.2-0.1,0.3-0.1l0.1-0.1c0,0,0,0,0.1,0c0.3-0.1,0.5-0.6,0.1-0.8h-0.1c0-0.1-0.1-0.1-0.2-0.1
		C48.2,3.2,46,3,44,3.3c-0.5,0.1-1.3,0.2-2.1,0.5c-0.5,0.3-0.9,0.6-1,1.2c0,0.2,0.1,0.3,0.3,0.3c0.1,0.1,0.2,0.2,0.4,0.2l0,0
		c0.1,0.1,0.2,0.3,0.4,0.3c-0.6,4.3-0.7,8.9-0.7,13.2c-0.1,5-0.4,9.9-0.3,14.9c0,2.8,0.3,5.6,0.5,8.4c0.1,1.9,0.8,5.7-0.3,7.3
		c-0.1,0.1,0.1,0.3,0.2,0.2c0,0,0.1,0,0.1-0.1l0,0c0,0,0,0,0,0.1c-0.1,0.1,0.1,0.3,0.2,0.2c0,0,0.1,0,0.1-0.1h0.1
		c1.3-0.8,0.8-3.5,0.8-4.9c0-3.2-0.3-6.4-0.5-9.6c-0.3-4.5,0.2-9.1,0.2-13.6c0-5.3,0.3-10.5,0.5-15.7c0.7,0.1,1.5,0,2.1,0
		c1.2-0.1,2.5-0.3,3.6-0.6c-0.6,1.3-0.5,4.1-0.5,5c-0.2,5.2,0,10.3,0.2,15.6c0.2,5.6,0.4,11.1,0.7,16.5c0.1,2.2,0.2,4.3,0.3,6.5
		c0,0.2,0,0.5,0,0.7c-1.7-0.1-3.4,0-5.1,0.1c-1.9,0.1-3.9,0.3-5.8,0.9c-0.8-0.1-1.7-0.2-2.5-0.3c-0.1,0-0.1,0.1-0.1,0.1h-0.1
		c-0.1,0-0.2,0.2,0,0.2c0.1,0,0.2,0,0.2,0s0,0.1,0,0.2c0.4,0.1,0.9,0.2,1.3,0.2c-0.4,0.2-0.7,0.3-1.1,0.5l0,0
		c-0.1,0-0.1,0.1-0.2,0.1c-0.1,0.1-0.2,0.2-0.2,0.3c0,0.3,0,0.6,0,0.9c0,0.1,0.1,0.3,0.2,0.3h0.1c0,0,0,0.1,0.1,0.1c0,0,0,0.1,0,0.2
		c0.3,1.2,0.4,2.4,0.5,3.6c-0.9,0.1-2,0.2-3,0.1c0.6-0.7,1.3-1.2,2.1-1.7c0.2-0.1,0.1-0.5-0.2-0.4c0-0.1-0.2-0.3-0.3-0.2
		c-0.1,0-0.1,0.1-0.2,0.1l0,0c-1,0.5-1.9,1.1-2.5,2c-0.5-0.1-0.9-0.3-1.4-0.5c-0.1,0-0.2,0.1-0.1,0.1h-0.1c-0.1,0-0.2,0.1-0.1,0.1
		c0.2,0.3,0.4,0.4,0.7,0.6c0.2,0.1,0.4,0.3,0.6,0.3c-0.2,0.4-0.4,0.8-0.5,1.3c-0.1,0.2,0,0.3,0.2,0.4H32c0,0.1,0.1,0.1,0.2,0.2
		c3.9,1,8.1,1.3,12.1,0.7c1.4-0.2,2.8-0.5,4.1-0.9c0.1,0,0.1,0,0.2,0c2.4,0.4,5.4,0.4,7.4-0.6c0.7-0.3,1.3-0.8,1.8-1.4
		c1.2,1.2,1.4,2.9,1.2,4.6c-0.1-0.3-0.2-0.6-0.3-0.8c0-0.1-0.1,0-0.1,0c0,0.2,0.1,0.4,0.1,0.6c-0.1-0.3-0.2-0.5-0.3-0.8
		c0-0.1-0.1,0-0.1,0c0.1,0.2,0.1,0.4,0.1,0.6c-0.1-0.2-0.1-0.4-0.2-0.6c0-0.1-0.1,0-0.1,0c0.2,0.9,0.4,1.9,0.5,2.7
		c-0.5,2-1.4,3.9-2,5.5c-0.1,0.1,0.1,0.2,0.2,0.1c0,0,0,0,0-0.1H57c0,0,0,0.1-0.1,0.2c0,0.1,0.1,0.2,0.2,0.1c0,0,0,0,0-0.1h0.1
		c0.2-0.2,0.3-0.5,0.5-0.8c-1.2,12.1,4.1,23.3,5.4,35.3c0,0.1,0.2,0.1,0.2,0c0-0.2,0-0.4,0-0.6c0,0.2,0,0.3,0.1,0.5
		c0,0,0,0.1,0.1,0.1c0,0.1,0,0.1,0,0.2c0,0.1,0.2,0.1,0.2,0c0-0.1,0-0.3,0-0.4c0,0.1,0,0.2,0,0.3s0.2,0.1,0.2,0
		c-0.7-12.5-6.8-24.6-5.1-37.2c0.1-0.2,0.2-0.4,0.2-0.6c1.3,8.8,1.3,17.8,3.7,26.4c1.4,5.4,3.4,10.4,5.4,15.6
		c0.2,2.7-0.5,5.4-1.7,7.8c0,0.1,0.1,0.2,0.1,0.1v-0.1c0,0.1,0.1,0.1,0.1,0c0.1-0.2,0.2-0.4,0.3-0.6c-0.1,0.3-0.2,0.5-0.3,0.8
		c0,0.1,0.1,0.2,0.1,0.1v-0.1c0,0.1,0.1,0.1,0.1,0c1-2,1.7-3.9,1.8-6c0.9,2.5,1.9,4.9,2.8,7.3c-0.8,3.1-1.7,6.3-2.8,9.3
		c0,0.1,0.1,0.1,0.1,0.1c0.1-0.3,0.2-0.5,0.3-0.7c-0.1,0.2-0.1,0.4-0.2,0.6c0,0.1,0.1,0.1,0.1,0c0.3-0.7,0.6-1.4,0.8-2.2
		c-0.3,0.8-0.5,1.7-0.8,2.4c0,0.1,0.1,0.1,0.1,0c0.2-0.4,0.3-0.7,0.4-1.1c-0.1,0.3-0.2,0.6-0.3,0.9c0,0.1,0.1,0.1,0.1,0
		c1.1-2.7,1.9-5.5,2.6-8.3c0.3,0.9,0.7,2,1,2.9c-1.3,4.3-2.8,8.7-5.1,12.6c0,0.1,0,0.1,0.1,0.1l0.1-0.1c0,0.1,0.1,0.1,0.1,0
		c0.8-1.3,1.7-2.8,2.3-4.2c-0.6,1.5-1.4,3.1-2.3,4.4c0,0.1,0,0.1,0.1,0.1l0.1-0.1c0,0.1,0.1,0.1,0.1,0c2.3-3.6,3.7-7.5,5-11.6
		c0,0.1,0.1,0.2,0.1,0.3c0,0.1,0.2,0.1,0.2-0.1c0-0.1-0.1-0.2-0.1-0.3c0.1,0.2,0.1,0.4,0.2,0.6c0,0.1,0.2,0.1,0.2,0
		c0-0.1-0.1-0.3-0.1-0.4c0,0.1,0.1,0.2,0.1,0.3c0,0.1,0.2,0.1,0.2-0.1C74,122.7,73.9,122.2,73.8,121.7z M45.3,4.6
		c-0.8,0.1-2.1-0.2-2.9,0c0.2-0.1,0.3-0.2,0.5-0.3c1.4-0.7,3.5-0.6,5.2-0.2C47.2,4.3,46.2,4.5,45.3,4.6z M52.4,57.6L52.4,57.6
		C52.4,57.7,52.4,57.7,52.4,57.6L52.4,57.6z M52.5,57.9L52.5,57.9c-0.2,0.1-0.4,0.2-0.6,0.2l0,0C52.1,58,52.3,58,52.5,57.9z
		 M52.1,57.4c0.1-0.1,0.1-0.1,0.2-0.2c0,0.1,0,0.1,0,0.2C52.3,57.4,52.2,57.4,52.1,57.4z M47.8,50.5c-1.5,0.2-3,0.3-4.5,0.3
		C44.8,50.6,46.3,50.5,47.8,50.5z M34.8,59.4c-0.6-0.1-1.1-0.1-1.5-0.3c-0.2-0.2-0.2-0.5,0-1c1.1,0.2,2.6,0,3.6-0.3
		c0.1,0.7,0.1,1.4,0.5,2C36.5,59.6,35.7,59.6,34.8,59.4z M37.8,51.8c0.6-0.3,1.3-0.4,2.1-0.6c0.6,0,1.1,0.1,1.8,0.1
		c-0.3,0.1-0.6,0.2-0.9,0.3c-0.3,0.1-0.6,0.3-0.8,0.5c0,0.1,0,0.1,0,0.2c-0.7,0-1.4,0-2.2,0.2c0.1-0.2,0.2-0.4,0.4-0.6
		c0,0,0-0.1-0.1-0.1c-0.1,0-0.1,0.1-0.2,0.1l0,0C37.7,52,37.6,52,37.4,52C37.7,52.1,37.7,51.9,37.8,51.8z M38.3,59.7
		c0.1-0.2,0.1-0.4,0.1-0.7c0.5,0.3,1.1,0.5,1.7,0.7C39.4,59.8,38.9,59.8,38.3,59.7z M47.6,58.7c-0.3,0-0.6-0.1-0.8-0.1
		c-0.1,0-0.1,0-0.1,0.1h-0.1c-0.1,0-0.2,0.1,0,0.2c0.1,0,0.1,0,0.2,0.1l0,0c-0.1,0-0.1,0-0.2,0c-2.4,0.4-6,0.9-8.2-0.4
		c-0.1-0.5-0.2-1-0.2-1.4c-0.1-1-0.2-2.2-0.4-3.2c1.4-0.3,3-0.4,4.4-0.6c0.1,0,0.1,0,0.1-0.1h0.1c0.2,0,0.2-0.3,0-0.3
		c0.8-0.1,1.8-0.3,2.4-0.4c1.5-0.2,3.1-0.3,4.8-0.4c0,0.2,0.1,0.3,0.1,0.5c0,0.1,0.2,0.2,0.3,0.2C50,52.9,50,53,50.2,53
		c0.1,0,0.1,0,0.2-0.1c0.1,0,0.2-0.1,0.3-0.2c0.1-0.2,0.1-0.5,0.1-0.7c0.1,0,0.3,0,0.4,0c0.2,0,0.8-0.1,1.2-0.1c0.1,0.9,0.1,2,0.1,3
		c0,0.7-0.1,1.7,0,2.5l0,0c-0.3,0.1-0.6,0.2-0.9,0.3c0-0.1-0.1-0.3-0.2-0.2h-0.1c0-0.1,0-0.2-0.2-0.2c-4.3,0.5-8.2,1-12.3,0.3
		c-0.1,0-0.1,0-0.2,0.1l0,0c-0.2,0-0.2,0.2-0.1,0.3c0.1,0,0.1,0,0.2,0c0,0.1,0,0.1,0.1,0.2c3.7,0.8,7.4,0.8,11.2-0.2
		C49.1,58.1,48.4,58.4,47.6,58.7z M52.9,58.7c-0.7,0.1-1.7,0.2-2.5,0.2c0.1,0,0.1,0,0.2,0c0.6-0.2,1.3-0.4,2-0.6
		c0,0.1,0.1,0.2,0.1,0.2c0.1,0.1,0.1,0.1,0.2,0.1C53,58.6,53,58.6,52.9,58.7C53,58.7,52.9,58.7,52.9,58.7z M57.2,56.6h0.1
		c0,0,0,0,0.1,0v0.1C57.3,56.7,57.3,56.7,57.2,56.6C57.3,56.6,57.3,56.6,57.2,56.6L57.2,56.6z M53.8,56.3h0.1l0,0
		C53.9,56.3,53.9,56.4,53.8,56.3L53.8,56.3z M53.8,56.6L53.8,56.6c0.7-0.2,1.5-0.2,2.3-0.2c-0.7,0.3-1.4,0.6-2.3,0.9
		C53.8,57,53.8,56.8,53.8,56.6z M53.8,57.5c0.3-0.1,0.5-0.2,0.8-0.3C54.3,57.3,54.1,57.4,53.8,57.5L53.8,57.5z M53.7,58.4L53.7,58.4
		c0.1-0.2-0.1-0.4-0.2-0.3c0.1-0.1,0.2-0.2,0.2-0.3c1.1-0.4,2.3-0.7,3.4-1.1c0,0,0,0,0.1,0c-0.1,0-0.1,0.1,0,0.2
		c0.1,0.1,0.1,0.1,0.2,0.2C56.1,57.5,55,58.1,53.7,58.4z M57.4,57.4l0.1-0.1l0,0l0.1,0.1C57.6,57.3,57.5,57.3,57.4,57.4z
		 M76.4,184.1C76.4,184.1,76.3,184.1,76.4,184.1c-0.1,0-0.1,0-0.2,0.1c-1.4,3.2-3.4,6.2-5.7,8.9c0,0.1,0,0.2,0,0.3
		c0.1-0.1,0.1-0.1,0.2-0.2v0.1c2.4-2.7,4.3-5.7,5.8-9.1C76.6,184.1,76.4,184,76.4,184.1z M37,88C37,88,37,87.9,37,88
		c0-0.3-0.2-0.3-0.3-0.2c-0.1,0-0.2,0-0.2,0.1c-0.3,0.9-0.7,2-1,2.9c-0.7,2.3-1.3,4.6-2.1,6.9c-1.1,3.5-2.4,7-3.2,10.6
		c-0.8,3.1-1.2,6.2-1.3,9.4c0,0.7-0.7,1.2-1.5,1.7c-0.3,0.1-0.5,0.2-0.7,0.4c-0.1,0.1-0.3,0.1-0.4,0.2c-0.4-10.6,6.4-19.4,9.3-29.2
		c0.9-3.1,1.4-6.2,1.2-9.6c0-0.1-0.2-0.1-0.2,0v0.1c0,0,0-0.1-0.1-0.1c0-0.1,0-0.1,0-0.2s-0.2-0.1-0.2,0v0.1c0-0.1-0.2-0.1-0.2,0
		c0.4,8.7-4.2,16.4-7.5,24c-1.4,3.3-2.8,6.9-3.2,10.5c-0.1,0.6-0.4,3.9,0.1,5.1c-0.1,0-0.1,0.1-0.2,0.1c-0.1,0.2-0.1,0.4,0.1,0.5
		l0,0h0.1l0.1,0.1l0,0c0.1,0.1,0.3,0,0.4-0.1c0.2,0,0.3-0.1,0.3-0.3l0,0c0,0,0.1,0,0.1-0.1l0,0c0,0,0.1-0.1,0.2-0.1
		c1-0.7,2.2-1.3,3.3-2c0.1-0.1,0.2-0.2,0.2-0.3c0.1-5.5,1.3-10.6,3-15.9c1.4-4.8,3.8-9.8,4.3-14.9C37.3,87.9,37.1,87.9,37,88z
		 M74.7,251.4c-0.8,0.3-1.7,0.5-2.5,0.7c-0.3,0.1-0.5,0.1-0.8,0.2c0.2-0.1,0.4-0.2,0.6-0.3c0.5-0.3,1-0.5,1.5-0.8l0,0c0,0,0,0,0-0.1
		c0-0.1,0,0,0,0l0,0l0,0l0,0l0,0l0,0l0,0c-0.1,0-0.1,0-0.2,0l0,0l0,0c0,0,0,0,0-0.1l0,0l0,0l0,0c0.1-0.1,0.2-0.1,0.3-0.2
		c0.4-0.3,0.9-0.5,1.3-0.9c0.1-0.1,0-0.2-0.1-0.2c-0.2,0.1-0.4,0.2-0.6,0.3c0.1-0.1,0.3-0.2,0.4-0.3c0.1-0.1,0-0.2-0.1-0.2
		c-0.5,0.3-1,0.5-1.5,0.7c-0.7,0.3-1.4,0.6-2.2,0.8c-1.1,0.4-2.3,0.8-3.4,1c-0.1,0-0.3,0.1-0.4,0.1c-1.1,0.3-2.3,0.5-3.3,0.7
		c-0.1,0-0.1,0.1-0.2,0.1l0,0c-0.1,0.1-0.2,0.1-0.3,0.2c-0.8,0.4-1.8,0.7-2.8,0.6c-0.1,0-0.1,0.1-0.2,0.1l0,0
		c-0.2,0.1-0.3,0.2-0.5,0.3c-1.3,0.7-2.9,1.1-4.3,1c-1.3,0.5-2.9,0.6-4.1,0.2c-0.4,0.1-0.9,0.1-1.3,0.2c-0.9,0.1-1.9,0.1-2.8,0
		c0.2,0,0.4-0.1,0.6-0.1c-0.1,0-0.2,0-0.3,0c0.2,0,0.4-0.1,0.5-0.1c-0.4,0-0.7,0-1.1,0c0.2,0,0.4-0.1,0.6-0.1h-0.4
		c0.2,0,0.4-0.1,0.5-0.1c-3.8,0.2-7.8,0-11.8-0.5c0.7,0.1,1.4,0.2,2.2,0.4c-0.8-0.1-1.5-0.2-2.4-0.3c0.3,0,0.5,0.1,0.8,0.1
		c0,0-0.1,0-0.2,0c0.6,0.1,1.3,0.2,2,0.3c-0.8-0.1-1.5-0.2-2.3-0.3c0.6,0.1,1.1,0.2,1.8,0.3c-0.4,0-0.9,0.1-1.3,0.1
		c-0.7-0.1-1.4-0.3-2.1-0.4c0.3,0,0.6,0,1-0.1c-0.1,0-0.2,0-0.3-0.1c0.2,0,0.3,0,0.5,0c-0.2,0-0.3-0.1-0.5-0.1h0.1
		c-0.1,0-0.3,0-0.4-0.1c0.2,0,0.4,0,0.6,0c-3.9-0.6-7.6-1.5-11.1-3c0.4,0.2,0.8,0.4,1.2,0.5c-0.3-0.1-0.6-0.2-0.9-0.3
		c0.3,0.1,0.6,0.3,1,0.4c-0.5-0.2-0.9-0.3-1.4-0.5c0.4,0.2,0.8,0.3,1.2,0.5c-0.3-0.1-0.6-0.2-0.9-0.3c1,0.4,2.1,0.9,3.1,1.3
		c-1,0-2.2-0.1-3.2-0.3c-0.3-0.3-0.7-0.5-1-0.7c-0.8-0.6-1.7-1.1-2.5-1.7c-0.4-0.3-0.8-0.5-1.1-0.8l0,0c-0.1-0.1-0.2-0.1-0.3-0.2
		c-0.1,0-0.1,0.1-0.1,0.1c0.4,0.3,0.9,0.6,1.3,1c1.1,0.8,2.3,1.5,3.4,2.4c-0.1,0-0.1,0-0.2,0c-0.3-0.2-0.5-0.4-0.8-0.5
		c-0.8-0.6-1.7-1.1-2.5-1.8c-0.4-0.3-0.7-0.5-1.1-0.8l0,0c-0.1-0.1-0.2-0.1-0.3-0.2c-0.1,0-0.1,0.1-0.1,0.1c0.4,0.3,0.9,0.7,1.3,1
		c1,0.7,2.1,1.3,3.1,2.1c-1.1-0.2-2.2-0.6-3.2-1.1c-0.2-0.2-0.4-0.3-0.6-0.5c-0.8-0.8-1.4-1.8-1.9-2.7c0.5,0.3,0.9,0.5,1.4,0.8
		c-0.1-0.1-0.1-0.2-0.2-0.3c0.1,0.1,0.2,0.1,0.4,0.2c-0.1-0.1-0.2-0.3-0.2-0.5c-0.1,0-0.2-0.1-0.3-0.2l0,0c-0.5-0.3-0.9-0.5-1.4-0.8
		c-0.1-0.3-0.2-0.6-0.3-0.9c1.2-5,1.5-10.5,1.1-15.6c0-0.1-0.1-0.1-0.1-0.1c0.5-3.8,0.9-7.6,1-11.5c0.1,5.7,0.1,11.3-0.6,16.8
		c0,0.1,0.1,0.1,0.1,0c0.2-1.1,0.3-2.4,0.4-3.5c-0.1,1.1-0.2,2.3-0.3,3.4c0,0.1,0.1,0.1,0.1,0c0-0.4,0.1-0.7,0.1-1.1
		c0,0.5-0.1,0.9-0.2,1.4c0,0.1,0.1,0.1,0.1,0c0.2-1.3,0.3-2.7,0.5-3.9c-0.1,1.2-0.2,2.6-0.4,3.8c0,0.1,0.1,0.1,0.1,0
		c1.3-9.3,0.7-18.7,0.5-28c0.1,3.4,0.2,6.9,0.2,10.3c0,0.1,0.2,0.1,0.2,0c0-0.6,0-1.2,0-1.8c0,0.5,0,1.1,0,1.8c0,0,0,0.1,0.1,0.1
		v0.2c0,0.1,0.1,0.1,0.1,0c0-0.5,0-0.9,0-1.4c0,0.5,0,0.9,0,1.3c0,0.1,0.2,0.1,0.2,0c0.3-13-0.7-25.9-1.8-38.8
		c0.1,0.4,0.1,0.8,0.2,1.1c0,0.1,0.2,0.1,0.2,0l0,0l0,0c0,0.1,0,0.2,0,0.2c0,0.1,0.2,0.1,0.2,0l0,0c0.1,0.1,0.2,0,0.2-0.1
		c-0.1-1.8-0.3-3.4-0.5-5.2c-0.7-13.2-2.3-26.5-1.7-39.8c0.2-3.2,0.5-6.5,0.9-9.7c0.8-4.4,2-8.9,3.1-13.3c0.3-0.6,0.6-1.2,0.9-1.9
		c0.1-0.1-0.1-0.2-0.1-0.1c0,0,0,0.1-0.1,0.1c0,0-0.1-0.1-0.1,0c-0.1,0.2-0.2,0.3-0.3,0.5c0-0.1,0.1-0.2,0.1-0.2
		c0.1-0.2,0.2-0.3,0.3-0.5c0-0.1,0-0.1-0.1-0.1c0-0.2,0.1-0.3,0.1-0.5c0,0,0,0,0.1,0v-0.1c0,0,0.1,0.1,0.1,0c6.8-12.1,9.9-26,9.8-40
		v0.1c0.1,0.1,0.2,0,0.2-0.1c0.1,0.1,0.2,0,0.2-0.1c-0.2-0.6-0.3-1.2-0.5-1.9c0-0.2,0-0.4,0-0.5c0-0.1-0.1-0.1-0.1-0.1
		c-0.7-3.4-0.8-6.6-0.3-10.1c0-0.1-0.2-0.1-0.2,0l0,0c0,0,0,0-0.1,0c0-0.1,0-0.1,0-0.2s-0.2-0.1-0.2,0l0,0c0,0-0.1,0-0.2,0.1
		c-1.1,3.9-1.1,7.8,0.4,11.7c-0.3,6.8-0.7,13.6-2.2,20.3c-1.4,6.4-3.8,12.4-6.5,18.3c-0.1,0-0.1,0-0.2,0.1l0,0h-0.1
		c0-0.1,0-0.1,0-0.2c0-0.2-0.2-0.2-0.2-0.1l0,0c-0.1,0-0.1,0-0.2,0.1c-0.5,1.5-0.9,3-1.3,4.5c0.2-0.9,0.4-2,0.7-2.9
		c0-0.1-0.2-0.2-0.2-0.1l0,0h-0.1c0,0,0-0.1,0-0.2c0-0.1-0.2-0.2-0.2-0.1l0,0c-0.1,0-0.1,0-0.2,0c-0.7,2.6-1.3,5.2-1.9,7.7
		c-3.7,8.8-5.2,18-4.8,27.8c0.3,7.6,1.3,15.2,2.6,22.6c0.8,13,2.2,26,2.9,38.9c-0.1,0-0.2,0-0.2,0.1l0,0l0,0v-0.2
		c0-0.2-0.2-0.2-0.2,0l0,0c-0.1-0.1-0.2,0-0.2,0.1v0.6c0,0,0,0-0.1,0c0-0.1,0-0.1,0-0.2c0-0.1-0.2-0.1-0.2,0c0,0,0,0,0,0.1
		c0-0.1-0.2-0.1-0.2,0c0.4,10.4-0.4,20.9-2.4,31c0.1-4.8,0.8-9.6,1.2-14.4c0-0.2-0.2-0.2-0.3,0l0,0c0-0.1,0-0.1,0-0.2
		c0-0.2-0.2-0.2-0.3,0c-0.1,0-0.2,0-0.2,0.1c-0.4,5.9-1.5,12-1.1,18c-0.4,1.7-0.4,3.3-0.1,4.9c-0.1,0-0.2,0.1-0.1,0.2
		c0.1,0,0.1,0.1,0.2,0.1c0.1,0.4,0.3,0.8,0.4,1.2c0,0.1,0,0.2-0.1,0.3c-0.1,0-0.2,0-0.1,0.1c0,0.1,0,0.1,0.1,0.2c0,0.1,0,0.1,0,0.2
		c0,0.1,0.1,0.1,0.1,0.1c0.6,1.9,1.7,3.2,2.9,4.4h0.1c0.1,0.1,0.1,0.1,0.2,0.2c0.2,0,0.4-0.1,0.7,0c0,0,0,0,0.1,0
		c-0.1-0.1-0.1-0.1-0.2-0.2c0.1,0,0.2,0,0.3,0c0,0,0,0,0.1,0c-0.1,0-0.1-0.1-0.2-0.2c0.5,0.3,1.1,0.5,1.7,0.7c2,0.5,3.9,1.2,5.9,1.9
		l0,0l0,0c3.5,1.1,7,2.3,10.6,2.9c0-0.1,0-0.1,0-0.2c0.1,0,0.1,0,0.2,0l0,0c0.6,0,1.2,0.1,1.9,0.1c-0.2,0-0.4,0-0.6,0
		c0.2,0,0.3,0,0.5,0.1c-0.2,0-0.5,0-0.7,0c0.2,0,0.4,0,0.7,0.1c-0.1,0-0.1,0-0.2,0c0.2,0,0.3,0,0.5,0.1c-0.2,0-0.5,0-0.7,0
		c1.1,0.2,2.3,0.3,3.4,0.3c0.3,0,0.6,0,0.9,0.1c0.6,0,1.2,0,1.8-0.1c0.4,0,0.8,0.1,1.1,0.1c4-0.1,8.1-0.5,12-0.6
		c3-0.6,5.9-1.4,8.8-2.3l0,0c0,0,0.1,0,0.1-0.1c0,0,0,0,0.1,0l0,0c0.1,0,0.1-0.3-0.1-0.2c-0.1,0-0.2,0-0.3,0.1c0,0,0,0,0.1,0l0,0
		c0.1,0,0.1-0.1,0.1-0.2c2.2-0.8,4.3-1.8,6.4-2.9c0.1,0,0.1-0.1,0.2-0.1l0,0c0.1,0,0.1-0.1,0.2-0.1v-0.1c0.3-0.1,0.6-0.2,1-0.3
		c-0.3,0.4-0.5,0.7-0.8,1c-0.1,0.2-0.3,0.4-0.5,0.5c0.2-0.1,0.4-0.1,0.6-0.2c-0.1,0.1-0.2,0.3-0.4,0.4c0.3-0.1,0.5-0.2,0.8-0.3
		c0.2-0.1,0.3-0.1,0.5-0.2c0,0,0.1,0,0.1-0.1h0.1c0.4-0.3,0.8-0.7,1.2-1C76.1,252.4,75.5,251.9,74.7,251.4z M15,141.4
		c0-6.7,0.9-13.3,2.9-19.6c-0.2,0.9-0.3,1.8-0.4,2.7C16.3,130,15.3,135.7,15,141.4z M16,239c0-0.1,0.1-0.3,0.1-0.4
		c0,0.2-0.1,0.4-0.1,0.5V239z M16.2,238.6c-0.1,0.4-0.1,0.8-0.2,1.2v-0.1C16.1,239.3,16.2,239,16.2,238.6z M16,246.3
		c-0.1-0.3-0.1-0.7-0.2-1c0.1,0.3,0.1,0.6,0.2,0.8C16.1,246.2,16.1,246.3,16,246.3z M16.1,242.7c0-0.3,0-0.7-0.1-1
		c0.1-0.3,0.1-0.5,0.2-0.8c0-0.1-0.2-0.2-0.2-0.1c0-0.1,0-0.3,0-0.4c0.1-0.6,0.3-1.1,0.4-1.8c-0.1,0.5-0.2,1.1-0.3,1.7
		c0,0.1,0.1,0.1,0.1,0c0.5-2.1,0.9-4.2,1.3-6.4c0,3.5-0.5,7-1.1,10.4C16.3,243.7,16.2,243.2,16.1,242.7z M16.6,247.6
		c0.5,1,1,2,1.8,2.8c-0.8-0.7-1.4-1.5-1.9-2.5C16.6,247.9,16.6,247.8,16.6,247.6z M18.4,252.2c-0.7-0.8-1.3-1.8-1.9-2.8
		c0.1,0.2,0.2,0.3,0.3,0.4v0.1c0.2,0.1,0.4,0.3,0.5,0.4c0.1,0.1,0.2,0.1,0.2,0.2c0.2,0.2,0.5,0.4,0.8,0.6c0.2,0.2,0.4,0.3,0.7,0.5
		c0.8,0.6,1.8,1.1,2.6,1.7C20.7,253,19.6,252.6,18.4,252.2z M24.7,253.8c-0.1-0.1-0.3-0.1-0.4-0.2h-0.1c-0.4-0.1-0.8-0.3-1.2-0.5
		c0.5,0.1,1.1,0.2,1.7,0.3c0,0,0.1,0,0.1,0.1c0,0,0.1,0,0.1-0.1c0.8,0.1,1.5,0.2,2.4,0.2l0,0c-0.6,0.1-1.2,0.2-1.9,0.3
		C25.2,253.9,25,253.8,24.7,253.8z M27,254.4c0.3,0,0.6-0.1,0.9-0.1c0.1,0.1,0.3,0.2,0.4,0.3C27.9,254.5,27.5,254.4,27,254.4z
		 M29.4,254.6c-0.2-0.1-0.4-0.2-0.6-0.3c0.5,0,0.9,0,1.4,0c0.3,0.1,0.5,0.2,0.8,0.3C30.5,254.5,30,254.5,29.4,254.6z M34.1,257.4
		c-0.5-0.2-0.9-0.3-1.4-0.5c1.5,0.3,3.2,0.5,4.8,0.6C36.4,257.5,35.3,257.5,34.1,257.4z M50.9,256.6c2.4-0.3,4.8-0.7,7.1-1.2
		c-1.9,0.4-3.6,0.8-5.5,1.2C52,256.6,51.4,256.6,50.9,256.6z M55.7,257L55.7,257c0.1-0.1,0.1-0.1,0.2-0.1c0.1,0,0.1-0.2,0-0.2
		c0,0,0,0-0.1,0c2-0.5,3.9-0.9,5.9-1.5c0.6-0.1,1.2-0.1,1.9-0.2c-0.6,0.2-1.1,0.4-1.8,0.7h-0.1C59.7,256.2,57.7,256.6,55.7,257z
		 M64.8,255.8C64.8,255.8,64.7,255.8,64.8,255.8c-0.1,0-0.2,0-0.2,0.1l0,0c0,0,0,0-0.1,0c-0.1,0.1-0.3,0.1-0.4,0.1
		c0.2-0.1,0.3-0.2,0.5-0.3c0.1-0.1,0-0.2-0.1-0.1c-0.1,0-0.1,0.1-0.1,0.1l0,0c-0.3,0.2-0.6,0.4-0.9,0.6c-1.2,0.3-2.5,0.6-3.6,0.9
		c2.7-0.7,5.4-1.8,8-3c1.1-0.1,2.4-0.3,3.6-0.5C69.1,254.5,67,255.2,64.8,255.8z M73,253.3C73,253.2,73.1,253.2,73,253.3
		c0.1,0,0.1,0,0.1,0C73.1,253.2,73.1,253.2,73,253.3z M76.8,218.3L76.8,218.3c-0.1,0-0.2,0-0.2,0.1c-0.1,0.1-0.2,0.3-0.3,0.4
		c-0.5,0.8-1.1,1.7-1.9,2.5c-0.9,1-1.9,2-2.9,2.9c0,0.1,0,0.2,0,0.3c0.1-0.1,0.1-0.1,0.2-0.2v0.1c1.2-1.1,2.4-2.3,3.5-3.6
		c0.5-0.6,1-1.3,1.5-2.1l0.2-0.3C77,218.2,76.9,218.1,76.8,218.3z M75.5,197.3C75.4,197.4,75.4,197.4,75.5,197.3
		c-0.1,0-0.2,0-0.2,0.1c-1.2,2.1-2.6,4.2-4,6.1c0,0.1,0,0.2,0,0.3c0.1-0.1,0.1-0.2,0.2-0.2v0.1c1.5-2,2.9-4.1,4.2-6.3
		C75.7,197.3,75.5,197.1,75.5,197.3z M76.1,183.9C76.1,183.9,76.1,184,76.1,183.9c-0.1,0.1-0.1,0-0.2,0.1c-1.4,3.2-3.4,6.2-5.7,8.9
		c0,0.1,0,0.2,0,0.3c0.1-0.1,0.1-0.1,0.2-0.2v0.1c2.4-2.7,4.3-5.7,5.8-9.1C76.3,183.9,76.1,183.8,76.1,183.9z M75.1,197.1
		L75.1,197.1c-0.1,0-0.1,0-0.2,0.1c-1.2,2.1-2.6,4.2-4,6.1c0,0.1,0,0.2,0,0.3c0.1-0.1,0.1-0.2,0.2-0.2v0.1c1.5-2,2.9-4.1,4.2-6.3
		C75.4,197,75.1,196.9,75.1,197.1z M75.6,180.9C75.6,181,75.6,181,75.6,180.9c-0.1,0.1-0.1,0.1-0.2,0.1c-1.8,1.9-3.6,3.5-5.6,5.1
		v0.2c0.1-0.1,0.1-0.1,0.2-0.1l0,0c2-1.5,3.9-3.3,5.7-5.2C75.9,181,75.7,180.8,75.6,180.9z M75.8,183.5
		C75.8,183.5,75.7,183.4,75.8,183.5c-0.1,0-0.1,0-0.2,0c0,0-0.1-0.1-0.1,0c-1.9,2-3.6,4-5.5,6.1v0.2c0.1-0.1,0.1-0.1,0.2-0.2v0.1
		C72,187.7,73.8,185.6,75.8,183.5z M76.9,176.2c-2.3,2.4-4.6,4.8-7.1,6.8c0,0.1,0,0.1,0,0.2l0.2-0.1l0,0c2.5-2,4.8-4.2,7-6.6
		L76.9,176.2z M74.7,162.4l-0.1-0.5c-1.7,2.9-3.5,5.8-5.6,8.4c0,0.1,0,0.2,0,0.2c0.1-0.1,0.1-0.1,0.2-0.2v0.1
		C71.3,168,73.1,165.3,74.7,162.4z M75.9,181.1C75.9,181.2,75.9,181.2,75.9,181.1c-0.1,0.1-0.2,0.1-0.2,0.1
		c-1.8,1.9-3.6,3.5-5.6,5.1c0,0.1,0,0.2,0,0.2c0.1-0.1,0.1-0.1,0.2-0.2c0,0,0,0,0,0.1c2-1.5,3.9-3.3,5.7-5.2
		C76.2,181.2,76,181,75.9,181.1z M75.9,203.7L75.9,203.7c-0.1,0-0.1,0-0.1,0s0-0.1,0.1-0.2c0-0.1-0.2-0.2-0.2-0.1l0,0
		c0,0-0.1,0-0.2,0c-0.9,2.8-2.4,5.4-4.1,7.7v0.3c0.1-0.1,0.1-0.2,0.2-0.3v0.2c0.9-1.2,1.9-2.6,2.6-3.9c-0.7,1.3-1.5,2.7-2.5,3.9v0.3
		c0.1-0.1,0.1-0.2,0.2-0.3v0.2c1.8-2.4,3.3-5,4.2-8C76.1,203.5,75.9,203.5,75.9,203.7z M75.5,194.2c0.4-0.5,0.9-1.1,1.4-1.7
		c0-0.1,0-0.1,0-0.2C76.4,192.9,75.9,193.5,75.5,194.2z M77,212.1c0-0.5,0-1-0.1-1.5c0-0.9,0-1.9,0-2.7c-0.1,0.9-0.1,1.9-0.1,2.8
		c0,0.5-0.1,1-0.1,1.5c0,0.3,0,0.6,0,0.8c0.1-0.1,0.1-0.2,0.2-0.3c0,0,0.1,0,0.2,0c0,0,0,0,0-0.1l0,0C77,212.5,77,212.3,77,212.1z
		 M76.6,213.8L76.6,213.8c0.1-0.2,0.3-0.4,0.4-0.6l0,0C76.9,213.3,76.7,213.6,76.6,213.8z M76,227.7C76,227.7,76,227.8,76,227.7v1.7
		c0,0,0-0.1,0.1-0.1l0.1-0.1v-1.5C76.1,227.6,76.1,227.7,76,227.7z M76.2,227.6v1.5c0,0,0-0.1,0.1-0.1L76.2,227.6
		C76.2,227.5,76.2,227.5,76.2,227.6z M76.4,229.4C76.3,229.4,76.3,229.5,76.4,229.4l-0.1,0.2C76.3,229.5,76.4,229.5,76.4,229.4
		L76.4,229.4L76.4,229.4L76.4,229.4z M76.3,227.5v1.5c0.1-0.1,0.1-0.1,0.2-0.2v-1.5C76.4,227.3,76.3,227.4,76.3,227.5z M78,223.6
		c0,0.1,0,0.1,0,0.1C78,223.7,78,223.7,78,223.6C78.1,223.7,78,223.7,78,223.6z M79,146.1L79,146.1C79,146.2,79,146.1,79,146.1
		L79,146.1z M69.4,115.4C69.3,115.4,69.3,115.4,69.4,115.4h-0.1c0,0,0-0.1,0-0.2c0-0.1-0.2-0.2-0.2-0.1l0,0c-0.1,0-0.2,0-0.2,0
		c-1.4,5.2-2.7,10.3-5.1,15.2c0,0.1,0.1,0.1,0.1,0.1s0-0.1,0.1-0.1c0,0.1,0.1,0.1,0.1,0c0.4-0.7,0.7-1.4,1-2.2
		c-0.3,0.8-0.7,1.7-1,2.4c0,0.1,0.1,0.1,0.1,0.1c0-0.1,0-0.1,0.1-0.1c0,0,0.1,0.1,0.1,0c2.5-4.6,3.7-10,5.2-15.1
		C69.6,115.2,69.4,115.2,69.4,115.4z M74.5,126.1C74.4,126.1,74.4,126.1,74.5,126.1c-0.1,0-0.2,0-0.2,0.1c-0.1,0.3-0.2,0.6-0.4,0.9
		c0.1-0.4,0.3-0.7,0.4-1.1c0-0.1-0.1-0.2-0.2-0.1v0.1c0,0-0.1-0.1-0.1,0c-2.5,6-5.7,11.7-8.4,17.6c0,0,0,0.1,0.1,0
		c0.2-0.3,0.3-0.7,0.5-1c-0.1,0.3-0.3,0.6-0.4,0.8c0,0.1,0.1,0.1,0.1,0.1c1.3-2.6,2.6-5.2,3.9-7.7c-1.3,2.7-2.7,5.4-3.9,8.1
		c0,0,0.1,0.1,0.1,0c0.2-0.3,0.3-0.7,0.5-1c-0.1,0.3-0.3,0.6-0.4,0.8c0,0,0.1,0.1,0.1,0c2.9-5.8,6-11.6,8.5-17.6
		C74.7,126.1,74.5,126,74.5,126.1z M74.7,162.4L74.7,162.4c0.2-0.4,0.5-0.8,0.7-1.2C75.2,161.6,75,162,74.7,162.4z M80.1,157.8
		c0-5.2-0.1-10.4-0.7-15.6c0.1-0.3,0.2-0.6,0.4-0.9c0-0.1-0.2-0.2-0.2,0l0,0h-0.1c0-0.1,0.1-0.1,0.1-0.2c0.1-0.1-0.1-0.2-0.2-0.1
		c-0.6-4.9-1.5-9.5-2.9-14.1c0-0.1,0.1-0.1,0.1-0.2c0-0.1-0.1-0.2-0.2-0.1c-0.5-1.7-1-3.3-1.7-4.9c-0.1-0.1-0.2-0.1-0.2,0
		c0-0.1,0-0.1-0.1-0.2c-0.1-0.1-0.3-0.1-0.2,0.1c-0.1-0.1-0.2,0-0.2,0.1c0.6,1.8,1.2,3.5,1.8,5.3c-1.4,3.9-3.3,7.6-5.4,11.3
		c0,0.1,0.1,0.1,0.1,0.1c0.1-0.2,0.2-0.4,0.3-0.5c-0.1,0.1-0.1,0.2-0.2,0.4c0,0.1,0.1,0.1,0.1,0c1-1.8,2.1-3.5,2.9-5.3
		c-0.9,1.9-1.9,3.7-2.9,5.5c0,0.1,0,0.1,0.1,0.1l0.1-0.1l0,0c0.1-0.1,0.1-0.3,0.2-0.4l1.1,7.5c1.8-3.6,3.4-7.2,4.6-11.2
		c0-0.1,0.1-0.1,0.2,0c0,0,0,0,0-0.1s0.2-0.1,0.2,0.1c0,0.1,0,0.1-0.1,0.2h0.1c0,0,0,0,0-0.1s0.2-0.1,0.2,0.1
		c-1.3,4.3-3.2,8.4-5.2,12.4l0.2,1.5c1.7-3.3,3.1-6.7,4.2-10.1c0-0.1,0.1-0.1,0.2,0c0,0,0,0,0-0.1c0-0.1,0.2-0.1,0.2,0
		c0,0.1,0,0.1-0.1,0.2c0.1,0,0.1,0,0.1,0s0,0,0-0.1s0.2-0.1,0.2,0c-1.2,3.9-2.8,7.7-4.6,11.4l1.9,12.3c1.2-2.2,2.5-4.4,3.5-6.7
		c0-0.1,0.1-0.1,0.1,0c0,0,0,0,0-0.1c0.1-0.1,0.2,0,0.2,0.1c0,0.1-0.1,0.1-0.1,0.2c0-0.1,0.1-0.1,0.1,0c0,0,0,0,0-0.1
		c0.1-0.1,0.2,0,0.2,0.1c-1.2,2.6-2.6,5.1-4,7.5l1.7,10.4c0.6-0.8,1.2-1.7,1.8-2.6c0-0.1,0.1,0,0.1,0s0-0.1,0.1-0.1
		c0-0.1,0.1,0,0.1,0.1c-0.6,1-1.3,2.1-2.1,3l0.3,2.3c0.3-0.3,0.6-0.6,0.9-0.9h0.1l0.1-0.1c0.1-0.1,0.2,0,0.1,0.1
		c-0.4,0.4-0.8,0.8-1.1,1.2l1.5,10.1c0,0,0.1-0.1,0.1-0.2c0-0.1,0-0.1-0.1-0.2c0.5-6.1,0.9-12.2,1.3-18.2c0.2-3.2,0.3-6.4,0.3-9.6
		c0-0.2,0.1-0.4,0.1-0.6C80.3,157.8,80.2,157.7,80.1,157.8z M72.8,142.7c0,0.1-0.1,0-0.1,0c0.1-0.2,0.1-0.4,0.2-0.7
		c-0.1,0.3-0.2,0.5-0.3,0.8c0,0.1-0.1,0-0.1,0c0.2-0.6,0.4-1.2,0.6-1.9c-0.2,0.5-0.4,1-0.6,1.7c0,0.1-0.1,0-0.1,0
		c0.1-0.2,0.1-0.5,0.2-0.7c-0.1,0.3-0.2,0.5-0.3,0.8c0,0.1-0.1,0-0.1,0c1.2-3.8,2.3-7.7,3.3-11.7c0-0.1,0.2-0.1,0.1,0
		c0,0.1,0,0.1,0,0.1c0-0.1,0.1-0.2,0.1-0.3c0-0.1,0.2-0.1,0.2,0c-0.1,0.2-0.1,0.5-0.2,0.7c0-0.2,0.1-0.3,0.1-0.4s0.2-0.1,0.1,0v-0.1
		c0-0.1,0.2-0.1,0.1,0C75.1,135,74.2,138.9,72.8,142.7z M78.7,186.5C78.7,186.6,78.7,186.6,78.7,186.5c-0.1,0-0.1,0-0.2,0.1l0,0l0,0
		v0.7c0.1-0.2,0.2-0.4,0.3-0.7C79,186.5,78.8,186.4,78.7,186.5z M80,225.4c-0.1,0.1-0.2,0.3-0.3,0.4c0.1,0.9,0.3,1.8,0.4,2.7
		c0,0,0,0,0.1-0.1L80,225.4z M80.1,225C80.1,225.1,80.1,225.1,80.1,225l-0.1,0.4c0.1-0.1,0.1-0.2,0.2-0.2
		C80.3,225.1,80.2,224.9,80.1,225z M81.2,227.3C81.2,227.3,81.1,227.4,81.2,227.3c-0.1,0.1-0.1,0-0.2,0.1c-0.3,0.4-0.6,0.7-0.8,1.1
		v0.5c0.4-0.5,0.8-1,1.2-1.5C81.4,227.3,81.3,227.2,81.2,227.3z M73.1,226.6c-0.3,0.4-0.7,0.7-1,1.1c-0.3,0.4-0.7,0.7-1,1.1v-0.1
		c-0.1,0.1-0.1,0.2-0.2,0.2c0-0.1,0-0.2,0.1-0.3c0.3-0.3,0.6-0.6,0.9-1c0.3-0.4,0.7-0.7,1-1.1L73.1,226.6z M77.3,228.2
		c-0.3,0.3-0.6,0.7-0.8,1v0.1C76.8,229,77.1,228.6,77.3,228.2L77.3,228.2z M80,225.1l-0.2-4.8l-0.1-1.4c-0.4-0.1-0.7-0.2-1.1-0.2
		c0.1,0.5,0.1,0.9,0.2,1.4L80,225.1z M73.7,212.8c0.3-0.5,0.5-1,0.8-1.5c0.1-0.3,0.3-0.6,0.4-0.9c0-0.1,0.1-0.1,0.2,0c0,0,0,0,0-0.1
		c0.1-0.1,0.2,0,0.2,0.1c0,0.1-0.1,0.1-0.1,0.2c0-0.1,0.1-0.1,0.1,0v-0.1c0.1-0.1,0.2,0,0.2,0.1c-0.1,0.2-0.1,0.3-0.2,0.5
		c-0.2,0.5-0.5,1-0.7,1.5c-0.1,0-0.3,0.1-0.4,0.1c0.2-0.4,0.4-0.7,0.5-1.1c-0.2,0.4-0.4,0.7-0.6,1.1L73.7,212.8z"/>
	<g>
		<path class="st0" d="M86.7,227.9c-0.1-0.1-0.3-0.1-0.4-0.2c0.1,0.1,0.2,0.2,0.4,0.3c0.3,0.2,0.7,0.3,1,0s0.2-0.7,0-1l-0.1-0.1l0,0
			c-0.1-0.2-0.2-0.4-0.4-0.5c-0.2-0.1-0.4-0.1-0.6,0c-0.1,0-0.1,0.1-0.2,0.1c-0.1,0.1-0.2,0.2-0.3,0.3c0.3,0.4,0.7,0.7,1,1.1
			C86.8,227.9,86.7,227.9,86.7,227.9z"/>
		<path class="st0" d="M93.4,225.7c0.1,0.1,0.3,0.1,0.4,0.1h0.1l0,0H94h0.1c0,0,0,0,0.1,0c0.2,0,0.3-0.1,0.5-0.1
			c0.1,0,0.2,0,0.2-0.1c0.3-0.2,0.5-0.4,0.5-0.8s-0.2-0.8-0.6-1c-0.1,0-0.1,0-0.2,0c-0.2-0.1-0.3-0.1-0.5-0.1c-0.1,0-0.1,0-0.2,0
			c-0.3,0-0.5,0.1-0.7,0.3c-0.2,0.1-0.3,0.3-0.4,0.5C92.7,224.8,92.9,225.4,93.4,225.7z"/>
		<path class="st0" d="M84,224.4c0.4-0.3,0.6-0.2,1.1-0.3c0.8-0.2,0.7-1.4-0.1-1.5c-0.8-0.1-1.4,0.3-2,0.9
			C82.8,224,83.5,224.8,84,224.4z"/>
		<path class="st0" d="M127.6,224.6c0.1,0,0.1,0,0.2,0c0,0,0.2,0,0.3,0.1c0.1,0,0.1,0,0.1,0c0.1,0,0.2,0,0.3,0c0.1,0,0.2,0,0.3,0
			c0.3-0.1,0.5-0.4,0.5-0.7c0-0.4-0.1-0.7-0.4-0.9c-0.1-0.1-0.3-0.2-0.4-0.2c-0.3-0.1-0.6-0.1-0.9,0c-0.4,0.1-0.7,0.3-0.7,0.7
			C126.8,224.1,127.1,224.5,127.6,224.6z"/>
		<path class="st0" d="M73.4,226.7c-0.1,0-0.2-0.1-0.3-0.1c0,0,0,0-0.1,0c-0.3,0.4-0.7,0.7-1,1.1c0,0,0,0,0.1,0
			c0.1,0,0.2,0.1,0.3,0.1c0.3,0.1,0.5,0.2,0.7,0.3c0.9,0.4,1.9,0.7,2.8,1.1v-1.4c0,0,0,0,0-0.1C75.1,227.4,74.3,227.1,73.4,226.7z
			 M78.7,218.7c-0.5-0.1-1.1-0.1-1.8-0.1h-0.1c-0.1,0-0.3,0-0.4,0.1c0,0,0,0-0.1,0s-0.3,0.1-0.4,0.1c-2.7,0.7-5,3.2-6.3,5.5
			c-0.1,0.3,0.2,0.6,0.4,0.4c1-0.6,2-1.4,2.8-2.3l0,0c0.5-0.4,0.9-0.8,1.4-1.1c0.1-0.1,0.1-0.1,0.2-0.1c0.2-0.2,0.5-0.3,0.7-0.4
			c1-0.5,2.2-0.8,3.6-0.6C78.8,219.7,78.8,219.2,78.7,218.7z M74.7,211.6c-0.2,0.4-0.4,0.7-0.5,1.1l0,0
			C74.3,212.3,74.5,212,74.7,211.6z M154.5,176.2c-2.6-0.1-4.3,2.1-5.5,4c-1.8,2.9-3.1,6-5.3,8.6c-4.9,5.7-10.4,10.8-15.8,16
			c-1.3,1.2-2.6,2.6-3.9,3.8c-6-0.6-12.1-1.2-18.2-1.4c-0.6,0-1.2,0.1-1.9,0c-0.2,0.1-0.3,0.1-0.5,0.1c-0.3,0-0.6,0-0.9-0.1
			c-2.8,0.2-5.6,0.4-8.4,0.7c0,0-0.9,0.1-2.4,0.2l0,0c-1.1,0.1-2.3,0.3-3.4,0.4l0,0c-2.6,0.3-5.8,0.8-9.1,1.5l0,0
			c-0.5,0.1-1,0.2-1.5,0.3c-0.3,0.1-0.6,0.1-0.9,0.2c-0.1,0-0.1,0-0.2,0c-0.5,0.1-0.9,0.2-1.4,0.4c-0.3,0.1-0.6,0.2-0.8,0.2
			c-5.3,1.5-10.1,3.6-12,6.6c-0.1,0.3-0.1,0.7-0.1,1c-0.1,0-0.1,0.1-0.2,0.2c0,0.1-0.1,0.1-0.1,0.2c-0.5,4.2,1,15.5,1.1,16.1
			c0.4,2.1,0.9,4.1,1.7,6.2c1.3,3.6,3.4,6.7,6,9.3c0.4,0.4,0.8,0.7,1.1,1.1l0.1,0.1c0.4,0.4,0.9,0.8,1.4,1.1
			c0.2,0.2,0.4,0.3,0.6,0.4c0.2,0.2,0.4,0.3,0.6,0.5c1.4,1,3,2,4.6,2.8c8,4,16.5,5.2,25.2,4.8c0-0.1,0-0.3,0-0.4c0,0.1,0,0.3,0,0.4
			c8.7,0.2,17.2-1.1,25.1-5.4c6.5-3.5,11.8-8.6,14.3-15.7c1.2-3.5,1.7-7.1,2.4-10.8c0.8-3.9,1.8-8.1-0.2-11.7c0-0.1-0.1-0.1-0.2-0.2
			c0-1.2-0.4-2.3-1.3-3.3c-1.3-1.3-3.2-2.4-5-3c-2.3-0.8-4.5-1.4-6.9-1.9c0.8-0.7,1.8-1.5,2.6-2.3c3.3-2.8,6.7-5.4,9.9-8.3
			c3.1-2.7,6-5.7,8.7-8.8c2.1-2.4,4.5-4.4,4.6-8.1C158.8,180.3,157.2,176.4,154.5,176.2z M67.1,215.1c2.2-0.9,4.3-1.7,6.6-2.3
			c0.1,0,0.3-0.1,0.4-0.1l0,0c0.1,0,0.3-0.1,0.4-0.1l0,0c0.6-0.2,1.3-0.3,2.1-0.4c0.1,0,0.2,0,0.3-0.1c0.3-0.1,0.6-0.1,0.9-0.2
			c0.5-0.1,1-0.2,1.5-0.3c3-0.5,6.1-0.8,9.1-1.2c5.3-0.6,10.4-1.1,15.6-1.4c5.3,0.2,10.4,0.6,15.6,1.1c0.8,0.1,1.5,0.1,2.4,0.2
			c-2.5,2.4-5.1,4.8-7.7,7c-1-1-2.3-1-3.7-1.1c-2.1-0.2-4.2,0-6.3,0.5c-2.3,0.5-4.1,1.7-6.5,1.3c-0.8-0.1-1.7-0.9-2.3-1.3
			c-0.7-0.4-1-0.4-2-0.4c-2.1,0-3.6,0.2-5.5,1c-1.9,0.8-3.7,2.2-5.8,2.1c-0.9,0-1.8-0.2-2.6-0.4c-0.4-0.1-0.7-0.2-1.1-0.2
			c-0.5-0.1-1.1-0.1-1.8-0.1h-0.1c-0.1,0-0.3,0-0.4,0.1c0,0,0,0-0.1,0c-0.1,0-0.3,0.1-0.4,0.1c-2.7,0.7-5,3.2-6.3,5.5
			c-0.1,0.3,0.2,0.6,0.4,0.4c1-0.6,2-1.4,2.8-2.3l0,0c0.5-0.4,0.9-0.8,1.4-1.1c0.1-0.1,0.1-0.1,0.2-0.1c0.2-0.2,0.5-0.3,0.7-0.4
			c1-0.5,2.2-0.8,3.6-0.6h0.1c0.3,0,0.6,0.1,0.8,0.2c1.2,0.3,2.4,0.6,3.6,0.4c1.4-0.2,2.7-0.8,4-1.5c2-0.9,3.6-1.4,5.8-1.4
			c1,0,1.3,0.1,2.2,0.6c0.5,0.4,1.1,0.8,1.8,1c1.5,0.5,3.1,0.2,4.6-0.3c2.2-0.6,4-1.2,6.3-1.4c1.2-0.1,3.2-0.3,4.5,0.3
			c0.5-0.3,1.1-0.5,1.8-0.6c-0.9,0.8-2,1.7-2.9,2.5c-0.1-0.1-0.3-0.2-0.5-0.1c-7.3,3.1-15.6,5.1-21.3,10.5c-0.3,0.3-0.5,0.5-0.8,0.8
			c-3.9-0.6-7.8-1.5-11.6-3l0,0c-0.1,0-0.2-0.1-0.3-0.1c-0.1,0-0.3-0.1-0.4-0.1c-0.1,0-0.1-0.1-0.2-0.1l0,0c-0.1,0-0.1,0-0.2-0.1
			l0,0h-0.1l0,0c0,0-0.1,0-0.1-0.1c-0.8-0.3-1.8-0.7-2.6-1c-0.1,0-0.2-0.1-0.3-0.1c0,0,0,0-0.1,0s-0.2-0.1-0.3-0.1
			c-1.1-0.5-2.2-0.9-3.3-1.4c-1.3-0.6-2.6-1.3-3.8-2.3c-1.1-0.8-2.6-1.8-2.7-3.2v-0.1c0.1-0.2,0-0.3-0.2-0.4
			C63.3,217.1,65.5,215.8,67.1,215.1z M144.6,229.5c-0.8,3.6-1.1,7.1-2.5,10.5c-5.8,14.8-22.6,19.5-37.3,19.3h-0.2l0,0
			c-9.6,0.4-20-1.3-27.9-6.5c-0.7-0.5-1.3-0.9-2.1-1.5c-0.3-0.3-0.6-0.5-0.9-0.8c-0.2-0.2-0.4-0.4-0.6-0.5c-2.6-2.4-4.8-5.4-6.2-9
			c-1.4-3.4-1.9-7-2.7-10.5c-0.7-2.9-1.8-6-1.4-9.1c0.6,1.2,1.9,2.2,2.9,2.9c1.9,1.3,4,2.3,6.2,3.2c0.1,0,0.2,0.1,0.3,0.1
			c0,0,0,0,0.1,0c0.1,0,0.2,0.1,0.3,0.1c0.3,0.1,0.5,0.2,0.7,0.3c0.9,0.4,1.9,0.7,2.8,1.1c0,0,0,0,0.1,0c0.1,0,0.2,0.1,0.3,0.1
			c0,0,0,0,0.1,0c0.9,0.3,1.8,0.6,2.7,0.9l0,0c1.9,0.6,3.6,1.1,5.6,1.5c4.5,1,9.1,1.3,13.7,1.5c1.7,0.1,3.4,0.1,5.1,0.1l0,0
			c0.3,0,0.5,0,0.8,0c0.4,0,0.8,0,1.1,0l0,0c1.8,0,3.4-0.1,5.1-0.2c4.6-0.3,9.2-0.7,13.6-1.9c4-0.9,7.6-2.5,11.4-4.1
			c2.6-1.1,5.2-2.3,7.4-3.9c1-0.8,2.2-1.8,2.8-3C146.2,223.5,145.3,226.6,144.6,229.5z M97.7,232.2c2-1.5,3.8-3.1,5.9-4.4
			c1.7-1.1,3.4-2.3,5.4-2.9c1.1-0.4,3-0.8,4.1,0.4c1.5,1.7,1,4.6,0.6,6.3v0.1c-2.8,0.3-5.6,0.5-8.4,0.6c-0.3,0-0.5,0-0.8,0h-0.7
			C101.7,232.4,99.6,232.3,97.7,232.2z M115.2,228c0.1,1.1,0.4,2.4,0.5,3.4c-0.2,0-0.5,0.1-0.7,0.1c0.1-0.5,0.1-1,0.2-1.5
			C115.2,229.5,115.3,228.7,115.2,228z M116.4,225.4L116.4,225.4c2.6-2.6,5.2-5.2,7.7-7.6c0.8,0.3,1.5,0.8,2,1.5
			c0.5,0.8,1,1.4,2.1,1.5c0.3,0,0.7,0,0.9-0.2c0.6-0.8,1.4-1.5,2.5-1.7c2.7-0.3,4.9,3.7,6.3,5.4c0.1,0.1,0.2,0.2,0.4,0.2
			c-2,1-4,1.9-6.1,2.7c-4.8,2-9.7,3.2-14.8,3.9c-0.2-1.9-0.3-3.8-1-5.7C116.4,225.5,116.4,225.5,116.4,225.4z M133.8,211.9
			c2.6,0.5,5.2,1.2,7.6,2.3c1.5,0.7,3.8,2,4.3,3.7c-0.1,0.1-0.2,0.2-0.2,0.4v0.1c-0.1,1.4-1.5,2.5-2.6,3.3c-1.1,0.8-2.5,1.7-3.7,2.4
			c-0.2,0.1-0.4,0.2-0.5,0.3c0.1-0.1,0.1-0.3,0-0.5c-1.4-2-3.1-4.3-5.4-5.3c-1-0.4-2.2-0.4-3.2,0c-0.6,0.3-1,0.7-1.5,1.1
			c-0.5,0.5-1.2-0.8-1.4-1.2c-0.5-0.7-1.2-1.2-2-1.7c2-1.9,3.9-3.7,6-5.5C132,211.6,132.9,211.7,133.8,211.9z M148.8,194.5
			c-5.3,5.4-11.2,9.8-16.8,14.6c-0.2,0.2-0.4,0.3-0.6,0.5h-0.1c0,0,0,0,0,0.1c-5.6,4.8-10.8,9.7-16,14.9c-0.3,0.3-0.1,0.6,0.1,0.9
			c0,0-0.1,0.1-0.1,0.2c-0.1,0.6-0.1,1.3-0.1,2.1c-0.1-1.1-0.5-2.2-1.3-3c-1.1-1.1-2.5-1.5-3.9-1.3c-4,0.4-7.3,3.1-10.2,5.4
			c-1.4,1.1-2.9,2.3-4.3,3.4c-1.7-0.1-3.2-0.3-4.9-0.5c0.6-0.6,1.3-1.2,2.1-1.8c5.6-4.2,12.6-6.1,19-9c0.2-0.1,0.3-0.3,0.1-0.5
			c5.6-4.2,10.7-8.8,15.7-13.5c2.6-2.5,5.1-5,7.6-7.4c2.6-2.4,5.2-4.8,7.6-7.3c2.3-2.4,4.3-4.8,6-7.6c0.7-1.3,1.5-2.7,2.5-3.9
			c0.7-0.9,1.7-2.2,2.9-2.4c1.7-0.3,2.9,2.2,2.9,3.6c0,1.5-0.4,3.1-1.2,4.3C153.9,189.1,151.3,191.8,148.8,194.5z M74.1,212.7
			L74.1,212.7c0.2-0.4,0.4-0.7,0.5-1.1C74.5,212,74.3,212.3,74.1,212.7z M78.7,218.7c-0.5-0.1-1.1-0.1-1.8-0.1h-0.1
			c-0.1,0-0.3,0-0.4,0.1c0,0,0,0-0.1,0s-0.3,0.1-0.4,0.1c-2.7,0.7-5,3.2-6.3,5.5c-0.1,0.3,0.2,0.6,0.4,0.4c1-0.6,2-1.4,2.8-2.3l0,0
			c0.5-0.4,0.9-0.8,1.4-1.1c0.1-0.1,0.1-0.1,0.2-0.1c0.2-0.2,0.5-0.3,0.7-0.4c1-0.5,2.2-0.8,3.6-0.6
			C78.8,219.7,78.8,219.2,78.7,218.7z M73.4,226.7c-0.1,0-0.2-0.1-0.3-0.1c0,0,0,0-0.1,0c-0.3,0.4-0.7,0.7-1,1.1c0,0,0,0,0.1,0
			c0.1,0,0.2,0.1,0.3,0.1c0.3,0.1,0.5,0.2,0.7,0.3c0.9,0.4,1.9,0.7,2.8,1.1v-1.4c0,0,0,0,0-0.1C75.1,227.4,74.3,227.1,73.4,226.7z"
			/>
		<path class="st0" d="M123,225.8c0,0.2,0.2,0.4,0.4,0.4c0.1,0,0.2,0,0.3-0.1l0,0c0.2,0,0.5-0.1,0.6-0.3c0.1-0.1,0.1-0.3,0-0.4
			l-0.1-0.1c-0.1,0-0.1-0.1,0-0.1c-0.1-0.1-0.1-0.1-0.2-0.2c-0.2-0.2-0.5-0.3-0.8-0.2c-0.3,0.1-0.4,0.5-0.3,0.7
			C123,225.7,123,225.8,123,225.8z"/>
	</g>
</g>
<g>
	<path class="st0" d="M79.4,210.1L79.4,210.1l-0.9-22.7c0,0.1-0.1,0.1-0.1,0.2c-0.3,4.3-0.7,8.7-1,13c0,0,0,0,0.1,0l0,0
		c0-0.2,0.2-0.2,0.2,0c0,0.1,0,0.1,0,0.2c0,0,0,0,0.1,0l0,0c0-0.2,0.3-0.2,0.2,0c-0.3,3.3-0.3,6.5-0.1,9.6c0,0.5,0.1,1,0.1,1.5
		c0.5-0.1,1-0.2,1.5-0.3L79.4,210.1z M76.6,228c-0.1,0-0.1-0.1-0.2-0.1v0.9c0.2-0.2,0.4-0.4,0.6-0.7C76.9,228.1,76.8,228,76.6,228z
		 M73.1,226.6c-0.3,0.4-0.7,0.7-1,1.1c-0.3,0.3-0.6,0.7-1,1c0,0.1,0,0.2,0,0.3c0.1-0.1,0.1-0.1,0.2-0.2v0.1c0.4-0.4,0.8-0.8,1.1-1.2
		c0.3-0.4,0.7-0.7,1-1.1C73.3,226.7,73.2,226.6,73.1,226.6z M76.5,218.1L76.5,218.1c-0.1,0-0.2,0-0.2,0.1c-0.1,0.2-0.3,0.5-0.5,0.7
		l-3,3.6l0,0c-0.5,0.5-1,0.9-1.5,1.4c0,0.1,0,0.2,0,0.3c0.1-0.1,0.1-0.1,0.2-0.2v0.1c1-0.8,2-1.9,2.8-2.8c0.7-0.8,1.3-1.7,2-2.6
		c0.1-0.2,0.3-0.4,0.4-0.6C76.8,218.1,76.6,218,76.5,218.1z M74.8,163l-0.1-0.5c-1.7,2.8-3.4,5.6-5.5,8.1c0,0.1,0,0.2,0,0.2
		c0.1-0.1,0.1-0.2,0.2-0.2v0.1C71.5,168.3,73.3,165.6,74.8,163z M15.8,163.2c0-0.1-0.2-0.1-0.2,0v0.1c0,0,0-0.1-0.1-0.1V163
		c0-0.1-0.2-0.1-0.2,0v0.1c0-0.1-0.2-0.1-0.2,0c-0.3,17.9,2,35.7,2.4,53.7c0,0.1,0.1,0.1,0.1,0c0-0.8,0-1.8,0-2.6
		c0,0.8,0.1,1.7,0.1,2.5c0,0.1,0.1,0.1,0.1,0c0,0.1,0,0.2,0,0.3c0,0.1,0.1,0.1,0.1,0c0-0.7,0-1.4,0-2.2c0,0.7,0,1.3,0.1,2.1
		c0,0.1,0.1,0.1,0.1,0C18.3,199,16.2,181,15.8,163.2z M72.8,149.6l-0.2-1.3c-1.2,2.5-2.7,5-4.2,7.2c0,0.1,0,0.2,0,0.4
		c0.1-0.1,0.1-0.2,0.2-0.3c0,0.1,0,0.1,0,0.2c0.2-0.3,0.4-0.6,0.7-1c-0.2,0.3-0.4,0.6-0.6,0.9c0,0.1,0,0.2,0,0.4
		c0.1-0.1,0.1-0.2,0.2-0.3v0.2C70.3,154.1,71.6,151.9,72.8,149.6z M76.5,173.4c-2.1,2.7-4.3,5.1-6.9,7.2c0,0.1,0,0.2,0,0.2l0.2-0.1
		v0.1c2.5-2.1,4.8-4.3,6.7-6.9V173.4z M72.1,145.4c-1,2.2-2,4.2-2.8,6.4c0,0.1,0.1,0.1,0.1,0.1s0-0.1,0.1-0.1c0,0,0.1,0.1,0.1,0
		c0.3-0.6,0.5-1.2,0.8-1.8c-0.3,0.7-0.5,1.3-0.8,2.1c0,0.1,0.1,0.1,0.1,0c0,0,0-0.1,0.1-0.1c0,0.1,0.1,0.1,0.1,0.1
		c0.7-1.8,1.5-3.5,2.4-5.3L72.1,145.4z M76,183.6l-0.1,0.1c0,0,0,0-0.1,0c-1.9,2-3.6,4-5.5,6v0.3c0.1-0.1,0.1-0.1,0.2-0.2v0.1
		C72.4,188,74.1,185.8,76,183.6C76.1,183.7,76,183.6,76,183.6z M74.5,201.3v0.1c0-0.1-0.1-0.1-0.1,0c-0.6,2.2-1.7,4.1-2.9,5.9
		c0,0.1,0,0.2,0,0.3c0.1-0.1,0.1-0.2,0.2-0.3c0,0,0,0.1,0,0.2c1.3-1.9,2.5-3.9,3.1-6.1C74.6,201.2,74.5,201.2,74.5,201.3z
		 M51.2,68.4h-0.1c0-0.1,0-0.2-0.2-0.2c-3.3,0.5-6.6,0.6-9.9,0.5c-1.7,0-3.3-0.1-5-0.4c-1-0.2-1.9-0.7-2.9-1c-0.1,0-0.1,0-0.1,0.1
		l0,0c-0.1,0-0.1,0-0.1,0.1c0,0.5,0.3,0.8,0.7,1.1c1.3,1,4.9,1,5.8,1.1c3.8,0.2,8,0,11.7-0.9l0.1-0.1h0.1
		C51.4,68.7,51.3,68.4,51.2,68.4z M74.2,201.1c-0.1,0.3-0.2,0.5-0.3,0.8c0.1-0.2,0.2-0.5,0.2-0.7c0-0.1-0.1-0.1-0.1,0
		c-0.6,2.2-1.7,4.1-2.9,5.9c0,0.1,0,0.2,0,0.3c0.1-0.1,0.1-0.2,0.2-0.2c0,0,0,0.1,0,0.2c1.3-1.9,2.5-3.9,3-6.1
		C74.4,201,74.2,201,74.2,201.1z M73.8,121.7c0.1-0.4,0.3-0.9,0.4-1.4c0-0.1-0.1-0.2-0.2,0c0,0,0,0,0,0.1h-0.1
		c0-0.1,0.1-0.2,0.1-0.2c0-0.1-0.1-0.2-0.2,0c0,0,0,0,0,0.1c0-0.1-0.1-0.1-0.2,0c0,0.1-0.1,0.2-0.1,0.4c-0.3-1-0.6-2.2-1-3.2
		c0.1-0.5,0.2-0.9,0.3-1.3c0-0.1-0.2-0.2-0.2,0v0.1c0-0.1-0.1-0.1-0.1,0c0-0.1,0-0.1,0.1-0.2c0-0.1-0.1-0.2-0.2,0v0.1
		c0-0.1-0.1-0.1-0.2,0c0,0.1-0.1,0.2-0.1,0.3c-2.6-7.8-5.8-15.5-8.1-23.4c-1.5-5.5-2.4-10.9-2.8-16.6c-0.3-3.8-0.6-7.7-1.4-11.4
		c0.9-2.9,1-6-1.1-7.4c-0.3-0.2-0.7-0.4-1.1-0.6h-0.1c0.1-0.1,0.1-0.2,0-0.3c0.2,0,0.4-0.1,0.6-0.1l0.1-0.1h0.1c0.1,0,0.1-0.2,0-0.2
		s-0.1,0-0.2,0c0-0.1,0-0.1-0.1-0.2c-1.4-0.3-2.8-0.1-4.1,0.5c0-0.3-0.1-0.6-0.1-0.8c0-1.4,0-2.9-0.2-4.3c0-0.1-0.1-0.1-0.1-0.2
		c0,0,0.1-0.1,0-0.1h0.1c0.1,0,0.1-0.1,0-0.2c-0.1,0-0.2,0-0.2-0.1v-0.1c-0.2-0.1-0.4-0.1-0.6-0.2c0,0,0-0.1-0.1-0.1
		c0,0-0.1,0-0.2,0c-0.1,0-0.2,0-0.2,0l0,0c0.1,0,0.1,0,0.1,0c0.1,0,0-0.1,0-0.1c-0.2,0-0.3,0.1-0.5,0.1c-0.4-0.1-0.8-0.1-1.2-0.2
		c0-0.1,0-0.1,0-0.2c-0.1-2-0.2-3.8-0.3-5.8C49.9,39,49.6,34,49.4,28.8c-0.2-5.1-0.3-10.1-0.4-15.1c0-1.9,0-3.7,0.2-5.6
		c0-0.5-0.1-2,0.2-2.7c0.3,0.1,0.5,0.2,0.9,0.2V5.6c-0.3,0-0.6-0.1-0.8-0.2l0,0c0.1,0,0.2,0,0.3,0.1c0.2,0.1,0.5,0.1,0.8,0.1V5.5
		c-0.2,0-0.3,0-0.5,0l0,0c-0.1,0-0.2,0-0.2,0c-0.1,0-0.2,0-0.3-0.1l0,0c0.2,0.1,0.4,0.1,0.7,0.1c0.1,0,0.1-0.1,0-0.1
		c-0.2,0-0.4,0-0.6-0.1c0.1,0,0.2-0.1,0.3-0.1l0.1-0.1c0,0,0,0,0.1,0c0.3-0.1,0.5-0.6,0.1-0.8h-0.1c0-0.1-0.1-0.1-0.2-0.1
		C48.2,3.2,46,3,44,3.3c-0.5,0.1-1.3,0.2-2.1,0.5c-0.5,0.3-0.9,0.6-1,1.2c0,0.2,0.1,0.3,0.3,0.3c0.1,0.1,0.2,0.2,0.4,0.2l0,0
		c0.1,0.1,0.2,0.3,0.4,0.3c-0.6,4.3-0.7,8.9-0.7,13.2c-0.1,5-0.4,9.9-0.3,14.9c0,2.8,0.3,5.6,0.5,8.4c0.1,1.9,0.8,5.7-0.3,7.3
		c-0.1,0.1,0.1,0.3,0.2,0.2c0,0,0.1,0,0.1-0.1l0,0c0,0,0,0,0,0.1c-0.1,0.1,0.1,0.3,0.2,0.2c0,0,0.1,0,0.1-0.1h0.1
		c1.3-0.8,0.8-3.5,0.8-4.9c0-3.2-0.3-6.4-0.5-9.6c-0.3-4.5,0.2-9.1,0.2-13.6c0-5.3,0.3-10.5,0.5-15.7c0.7,0.1,1.5,0,2.1,0
		c1.2-0.1,2.5-0.3,3.6-0.6c-0.6,1.3-0.5,4.1-0.5,5c-0.2,5.2,0,10.3,0.2,15.6c0.2,5.6,0.4,11.1,0.7,16.5c0.1,2.2,0.2,4.3,0.3,6.5
		c0,0.2,0,0.5,0,0.7c-1.7-0.1-3.4,0-5.1,0.1c-1.9,0.1-3.9,0.3-5.8,0.9c-0.8-0.1-1.7-0.2-2.5-0.3c-0.1,0-0.1,0.1-0.1,0.1h-0.1
		c-0.1,0-0.2,0.2,0,0.2c0.1,0,0.2,0,0.2,0s0,0.1,0,0.2c0.4,0.1,0.9,0.2,1.3,0.2c-0.4,0.2-0.7,0.3-1.1,0.5l0,0
		c-0.1,0-0.1,0.1-0.2,0.1c-0.1,0.1-0.2,0.2-0.2,0.3c0,0.3,0,0.6,0,0.9c0,0.1,0.1,0.3,0.2,0.3h0.1c0,0,0,0.1,0.1,0.1c0,0,0,0.1,0,0.2
		c0.3,1.2,0.4,2.4,0.5,3.6c-0.9,0.1-2,0.2-3,0.1c0.6-0.7,1.3-1.2,2.1-1.7c0.2-0.1,0.1-0.5-0.2-0.4c0-0.1-0.2-0.3-0.3-0.2
		c-0.1,0-0.1,0.1-0.2,0.1l0,0c-1,0.5-1.9,1.1-2.5,2c-0.5-0.1-0.9-0.3-1.4-0.5c-0.1,0-0.2,0.1-0.1,0.1h-0.1c-0.1,0-0.2,0.1-0.1,0.1
		c0.2,0.3,0.4,0.4,0.7,0.6c0.2,0.1,0.4,0.3,0.6,0.3c-0.2,0.4-0.4,0.8-0.5,1.3c-0.1,0.2,0,0.3,0.2,0.4H32c0,0.1,0.1,0.1,0.2,0.2
		c3.9,1,8.1,1.3,12.1,0.7c1.4-0.2,2.8-0.5,4.1-0.9c0.1,0,0.1,0,0.2,0c2.4,0.4,5.4,0.4,7.4-0.6c0.7-0.3,1.3-0.8,1.8-1.4
		c1.2,1.2,1.4,2.9,1.2,4.6c-0.1-0.3-0.2-0.6-0.3-0.8c0-0.1-0.1,0-0.1,0c0,0.2,0.1,0.4,0.1,0.6c-0.1-0.3-0.2-0.5-0.3-0.8
		c0-0.1-0.1,0-0.1,0c0.1,0.2,0.1,0.4,0.1,0.6c-0.1-0.2-0.1-0.4-0.2-0.6c0-0.1-0.1,0-0.1,0c0.2,0.9,0.4,1.9,0.5,2.7
		c-0.5,2-1.4,3.9-2,5.5c-0.1,0.1,0.1,0.2,0.2,0.1c0,0,0,0,0-0.1H57c0,0,0,0.1-0.1,0.2c0,0.1,0.1,0.2,0.2,0.1c0,0,0,0,0-0.1h0.1
		c0.2-0.2,0.3-0.5,0.5-0.8c-1.2,12.1,4.1,23.3,5.4,35.3c0,0.1,0.2,0.1,0.2,0c0-0.2,0-0.4,0-0.6c0,0.2,0,0.3,0.1,0.5
		c0,0,0,0.1,0.1,0.1c0,0.1,0,0.1,0,0.2c0,0.1,0.2,0.1,0.2,0c0-0.1,0-0.3,0-0.4c0,0.1,0,0.2,0,0.3s0.2,0.1,0.2,0
		c-0.7-12.5-6.8-24.6-5.1-37.2c0.1-0.2,0.2-0.4,0.2-0.6c1.3,8.8,1.3,17.8,3.7,26.4c1.4,5.4,3.4,10.4,5.4,15.6
		c0.2,2.7-0.5,5.4-1.7,7.8c0,0.1,0.1,0.2,0.1,0.1v-0.1c0,0.1,0.1,0.1,0.1,0c0.1-0.2,0.2-0.4,0.3-0.6c-0.1,0.3-0.2,0.5-0.3,0.8
		c0,0.1,0.1,0.2,0.1,0.1v-0.1c0,0.1,0.1,0.1,0.1,0c1-2,1.7-3.9,1.8-6c0.9,2.5,1.9,4.9,2.8,7.3c-0.8,3.1-1.7,6.3-2.8,9.3
		c0,0.1,0.1,0.1,0.1,0.1c0.1-0.3,0.2-0.5,0.3-0.7c-0.1,0.2-0.1,0.4-0.2,0.6c0,0.1,0.1,0.1,0.1,0c0.3-0.7,0.6-1.4,0.8-2.2
		c-0.3,0.8-0.5,1.7-0.8,2.4c0,0.1,0.1,0.1,0.1,0c0.2-0.4,0.3-0.7,0.4-1.1c-0.1,0.3-0.2,0.6-0.3,0.9c0,0.1,0.1,0.1,0.1,0
		c1.1-2.7,1.9-5.5,2.6-8.3c0.3,0.9,0.7,2,1,2.9c-1.3,4.3-2.8,8.7-5.1,12.6c0,0.1,0,0.1,0.1,0.1l0.1-0.1c0,0.1,0.1,0.1,0.1,0
		c0.8-1.3,1.7-2.8,2.3-4.2c-0.6,1.5-1.4,3.1-2.3,4.4c0,0.1,0,0.1,0.1,0.1l0.1-0.1c0,0.1,0.1,0.1,0.1,0c2.3-3.6,3.7-7.5,5-11.6
		c0,0.1,0.1,0.2,0.1,0.3c0,0.1,0.2,0.1,0.2-0.1c0-0.1-0.1-0.2-0.1-0.3c0.1,0.2,0.1,0.4,0.2,0.6c0,0.1,0.2,0.1,0.2,0
		c0-0.1-0.1-0.3-0.1-0.4c0,0.1,0.1,0.2,0.1,0.3c0,0.1,0.2,0.1,0.2-0.1C74,122.7,73.9,122.2,73.8,121.7z M45.3,4.6
		c-0.8,0.1-2.1-0.2-2.9,0c0.2-0.1,0.3-0.2,0.5-0.3c1.4-0.7,3.5-0.6,5.2-0.2C47.2,4.3,46.2,4.5,45.3,4.6z M52.4,57.6L52.4,57.6
		C52.4,57.7,52.4,57.7,52.4,57.6L52.4,57.6z M52.5,57.9L52.5,57.9c-0.2,0.1-0.4,0.2-0.6,0.2l0,0C52.1,58,52.3,58,52.5,57.9z
		 M52.1,57.4c0.1-0.1,0.1-0.1,0.2-0.2c0,0.1,0,0.1,0,0.2C52.3,57.4,52.2,57.4,52.1,57.4z M47.8,50.5c-1.5,0.2-3,0.3-4.5,0.3
		C44.8,50.6,46.3,50.5,47.8,50.5z M34.8,59.4c-0.6-0.1-1.1-0.1-1.5-0.3c-0.2-0.2-0.2-0.5,0-1c1.1,0.2,2.6,0,3.6-0.3
		c0.1,0.7,0.1,1.4,0.5,2C36.5,59.6,35.7,59.6,34.8,59.4z M37.8,51.8c0.6-0.3,1.3-0.4,2.1-0.6c0.6,0,1.1,0.1,1.8,0.1
		c-0.3,0.1-0.6,0.2-0.9,0.3c-0.3,0.1-0.6,0.3-0.8,0.5c0,0.1,0,0.1,0,0.2c-0.7,0-1.4,0-2.2,0.2c0.1-0.2,0.2-0.4,0.4-0.6
		c0,0,0-0.1-0.1-0.1c-0.1,0-0.1,0.1-0.2,0.1l0,0C37.7,52,37.6,52,37.4,52C37.7,52.1,37.7,51.9,37.8,51.8z M38.3,59.7
		c0.1-0.2,0.1-0.4,0.1-0.7c0.5,0.3,1.1,0.5,1.7,0.7C39.4,59.8,38.9,59.8,38.3,59.7z M47.6,58.7c-0.3,0-0.6-0.1-0.8-0.1
		c-0.1,0-0.1,0-0.1,0.1h-0.1c-0.1,0-0.2,0.1,0,0.2c0.1,0,0.1,0,0.2,0.1l0,0c-0.1,0-0.1,0-0.2,0c-2.4,0.4-6,0.9-8.2-0.4
		c-0.1-0.5-0.2-1-0.2-1.4c-0.1-1-0.2-2.2-0.4-3.2c1.4-0.3,3-0.4,4.4-0.6c0.1,0,0.1,0,0.1-0.1h0.1c0.2,0,0.2-0.3,0-0.3
		c0.8-0.1,1.8-0.3,2.4-0.4c1.5-0.2,3.1-0.3,4.8-0.4c0,0.2,0.1,0.3,0.1,0.5c0,0.1,0.2,0.2,0.3,0.2C50,52.9,50,53,50.2,53
		c0.1,0,0.1,0,0.2-0.1c0.1,0,0.2-0.1,0.3-0.2c0.1-0.2,0.1-0.5,0.1-0.7c0.1,0,0.3,0,0.4,0c0.2,0,0.8-0.1,1.2-0.1c0.1,0.9,0.1,2,0.1,3
		c0,0.7-0.1,1.7,0,2.5l0,0c-0.3,0.1-0.6,0.2-0.9,0.3c0-0.1-0.1-0.3-0.2-0.2h-0.1c0-0.1,0-0.2-0.2-0.2c-4.3,0.5-8.2,1-12.3,0.3
		c-0.1,0-0.1,0-0.2,0.1l0,0c-0.2,0-0.2,0.2-0.1,0.3c0.1,0,0.1,0,0.2,0c0,0.1,0,0.1,0.1,0.2c3.7,0.8,7.4,0.8,11.2-0.2
		C49.1,58.1,48.4,58.4,47.6,58.7z M52.9,58.7c-0.7,0.1-1.7,0.2-2.5,0.2c0.1,0,0.1,0,0.2,0c0.6-0.2,1.3-0.4,2-0.6
		c0,0.1,0.1,0.2,0.1,0.2c0.1,0.1,0.1,0.1,0.2,0.1C53,58.6,53,58.6,52.9,58.7C53,58.7,52.9,58.7,52.9,58.7z M57.2,56.6h0.1
		c0,0,0,0,0.1,0v0.1C57.3,56.7,57.3,56.7,57.2,56.6C57.3,56.6,57.3,56.6,57.2,56.6L57.2,56.6z M53.8,56.3h0.1l0,0
		C53.9,56.3,53.9,56.4,53.8,56.3L53.8,56.3z M53.8,56.6L53.8,56.6c0.7-0.2,1.5-0.2,2.3-0.2c-0.7,0.3-1.4,0.6-2.3,0.9
		C53.8,57,53.8,56.8,53.8,56.6z M53.8,57.5c0.3-0.1,0.5-0.2,0.8-0.3C54.3,57.3,54.1,57.4,53.8,57.5L53.8,57.5z M53.7,58.4L53.7,58.4
		c0.1-0.2-0.1-0.4-0.2-0.3c0.1-0.1,0.2-0.2,0.2-0.3c1.1-0.4,2.3-0.7,3.4-1.1c0,0,0,0,0.1,0c-0.1,0-0.1,0.1,0,0.2
		c0.1,0.1,0.1,0.1,0.2,0.2C56.1,57.5,55,58.1,53.7,58.4z M57.4,57.4l0.1-0.1l0,0l0.1,0.1C57.6,57.3,57.5,57.3,57.4,57.4z
		 M76.4,184.1C76.4,184.1,76.3,184.1,76.4,184.1c-0.1,0-0.1,0-0.2,0.1c-1.4,3.2-3.4,6.2-5.7,8.9c0,0.1,0,0.2,0,0.3
		c0.1-0.1,0.1-0.1,0.2-0.2v0.1c2.4-2.7,4.3-5.7,5.8-9.1C76.6,184.1,76.4,184,76.4,184.1z M37,88C37,88,37,87.9,37,88
		c0-0.3-0.2-0.3-0.3-0.2c-0.1,0-0.2,0-0.2,0.1c-0.3,0.9-0.7,2-1,2.9c-0.7,2.3-1.3,4.6-2.1,6.9c-1.1,3.5-2.4,7-3.2,10.6
		c-0.8,3.1-1.2,6.2-1.3,9.4c0,0.7-0.7,1.2-1.5,1.7c-0.3,0.1-0.5,0.2-0.7,0.4c-0.1,0.1-0.3,0.1-0.4,0.2c-0.4-10.6,6.4-19.4,9.3-29.2
		c0.9-3.1,1.4-6.2,1.2-9.6c0-0.1-0.2-0.1-0.2,0v0.1c0,0,0-0.1-0.1-0.1c0-0.1,0-0.1,0-0.2s-0.2-0.1-0.2,0v0.1c0-0.1-0.2-0.1-0.2,0
		c0.4,8.7-4.2,16.4-7.5,24c-1.4,3.3-2.8,6.9-3.2,10.5c-0.1,0.6-0.4,3.9,0.1,5.1c-0.1,0-0.1,0.1-0.2,0.1c-0.1,0.2-0.1,0.4,0.1,0.5
		l0,0h0.1l0.1,0.1l0,0c0.1,0.1,0.3,0,0.4-0.1c0.2,0,0.3-0.1,0.3-0.3l0,0c0,0,0.1,0,0.1-0.1l0,0c0,0,0.1-0.1,0.2-0.1
		c1-0.7,2.2-1.3,3.3-2c0.1-0.1,0.2-0.2,0.2-0.3c0.1-5.5,1.3-10.6,3-15.9c1.4-4.8,3.8-9.8,4.3-14.9C37.3,87.9,37.1,87.9,37,88z
		 M74.7,251.4c-0.8,0.3-1.7,0.5-2.5,0.7c-0.3,0.1-0.5,0.1-0.8,0.2c0.2-0.1,0.4-0.2,0.6-0.3c0.5-0.3,1-0.5,1.5-0.8l0,0c0,0,0,0,0-0.1
		c0-0.1,0,0,0,0l0,0l0,0l0,0l0,0l0,0l0,0c-0.1,0-0.1,0-0.2,0l0,0l0,0c0,0,0,0,0-0.1l0,0l0,0l0,0c0.1-0.1,0.2-0.1,0.3-0.2
		c0.4-0.3,0.9-0.5,1.3-0.9c0.1-0.1,0-0.2-0.1-0.2c-0.2,0.1-0.4,0.2-0.6,0.3c0.1-0.1,0.3-0.2,0.4-0.3c0.1-0.1,0-0.2-0.1-0.2
		c-0.5,0.3-1,0.5-1.5,0.7c-0.7,0.3-1.4,0.6-2.2,0.8c-1.1,0.4-2.3,0.8-3.4,1c-0.1,0-0.3,0.1-0.4,0.1c-1.1,0.3-2.3,0.5-3.3,0.7
		c-0.1,0-0.1,0.1-0.2,0.1l0,0c-0.1,0.1-0.2,0.1-0.3,0.2c-0.8,0.4-1.8,0.7-2.8,0.6c-0.1,0-0.1,0.1-0.2,0.1l0,0
		c-0.2,0.1-0.3,0.2-0.5,0.3c-1.3,0.7-2.9,1.1-4.3,1c-1.3,0.5-2.9,0.6-4.1,0.2c-0.4,0.1-0.9,0.1-1.3,0.2c-0.9,0.1-1.9,0.1-2.8,0
		c0.2,0,0.4-0.1,0.6-0.1c-0.1,0-0.2,0-0.3,0c0.2,0,0.4-0.1,0.5-0.1c-0.4,0-0.7,0-1.1,0c0.2,0,0.4-0.1,0.6-0.1h-0.4
		c0.2,0,0.4-0.1,0.5-0.1c-3.8,0.2-7.8,0-11.8-0.5c0.7,0.1,1.4,0.2,2.2,0.4c-0.8-0.1-1.5-0.2-2.4-0.3c0.3,0,0.5,0.1,0.8,0.1
		c0,0-0.1,0-0.2,0c0.6,0.1,1.3,0.2,2,0.3c-0.8-0.1-1.5-0.2-2.3-0.3c0.6,0.1,1.1,0.2,1.8,0.3c-0.4,0-0.9,0.1-1.3,0.1
		c-0.7-0.1-1.4-0.3-2.1-0.4c0.3,0,0.6,0,1-0.1c-0.1,0-0.2,0-0.3-0.1c0.2,0,0.3,0,0.5,0c-0.2,0-0.3-0.1-0.5-0.1h0.1
		c-0.1,0-0.3,0-0.4-0.1c0.2,0,0.4,0,0.6,0c-3.9-0.6-7.6-1.5-11.1-3c0.4,0.2,0.8,0.4,1.2,0.5c-0.3-0.1-0.6-0.2-0.9-0.3
		c0.3,0.1,0.6,0.3,1,0.4c-0.5-0.2-0.9-0.3-1.4-0.5c0.4,0.2,0.8,0.3,1.2,0.5c-0.3-0.1-0.6-0.2-0.9-0.3c1,0.4,2.1,0.9,3.1,1.3
		c-1,0-2.2-0.1-3.2-0.3c-0.3-0.3-0.7-0.5-1-0.7c-0.8-0.6-1.7-1.1-2.5-1.7c-0.4-0.3-0.8-0.5-1.1-0.8l0,0c-0.1-0.1-0.2-0.1-0.3-0.2
		c-0.1,0-0.1,0.1-0.1,0.1c0.4,0.3,0.9,0.6,1.3,1c1.1,0.8,2.3,1.5,3.4,2.4c-0.1,0-0.1,0-0.2,0c-0.3-0.2-0.5-0.4-0.8-0.5
		c-0.8-0.6-1.7-1.1-2.5-1.8c-0.4-0.3-0.7-0.5-1.1-0.8l0,0c-0.1-0.1-0.2-0.1-0.3-0.2c-0.1,0-0.1,0.1-0.1,0.1c0.4,0.3,0.9,0.7,1.3,1
		c1,0.7,2.1,1.3,3.1,2.1c-1.1-0.2-2.2-0.6-3.2-1.1c-0.2-0.2-0.4-0.3-0.6-0.5c-0.8-0.8-1.4-1.8-1.9-2.7c0.5,0.3,0.9,0.5,1.4,0.8
		c-0.1-0.1-0.1-0.2-0.2-0.3c0.1,0.1,0.2,0.1,0.4,0.2c-0.1-0.1-0.2-0.3-0.2-0.5c-0.1,0-0.2-0.1-0.3-0.2l0,0c-0.5-0.3-0.9-0.5-1.4-0.8
		c-0.1-0.3-0.2-0.6-0.3-0.9c1.2-5,1.5-10.5,1.1-15.6c0-0.1-0.1-0.1-0.1-0.1c0.5-3.8,0.9-7.6,1-11.5c0.1,5.7,0.1,11.3-0.6,16.8
		c0,0.1,0.1,0.1,0.1,0c0.2-1.1,0.3-2.4,0.4-3.5c-0.1,1.1-0.2,2.3-0.3,3.4c0,0.1,0.1,0.1,0.1,0c0-0.4,0.1-0.7,0.1-1.1
		c0,0.5-0.1,0.9-0.2,1.4c0,0.1,0.1,0.1,0.1,0c0.2-1.3,0.3-2.7,0.5-3.9c-0.1,1.2-0.2,2.6-0.4,3.8c0,0.1,0.1,0.1,0.1,0
		c1.3-9.3,0.7-18.7,0.5-28c0.1,3.4,0.2,6.9,0.2,10.3c0,0.1,0.2,0.1,0.2,0c0-0.6,0-1.2,0-1.8c0,0.5,0,1.1,0,1.8c0,0,0,0.1,0.1,0.1
		v0.2c0,0.1,0.1,0.1,0.1,0c0-0.5,0-0.9,0-1.4c0,0.5,0,0.9,0,1.3c0,0.1,0.2,0.1,0.2,0c0.3-13-0.7-25.9-1.8-38.8
		c0.1,0.4,0.1,0.8,0.2,1.1c0,0.1,0.2,0.1,0.2,0l0,0l0,0c0,0.1,0,0.2,0,0.2c0,0.1,0.2,0.1,0.2,0l0,0c0.1,0.1,0.2,0,0.2-0.1
		c-0.1-1.8-0.3-3.4-0.5-5.2c-0.7-13.2-2.3-26.5-1.7-39.8c0.2-3.2,0.5-6.5,0.9-9.7c0.8-4.4,2-8.9,3.1-13.3c0.3-0.6,0.6-1.2,0.9-1.9
		c0.1-0.1-0.1-0.2-0.1-0.1c0,0,0,0.1-0.1,0.1c0,0-0.1-0.1-0.1,0c-0.1,0.2-0.2,0.3-0.3,0.5c0-0.1,0.1-0.2,0.1-0.2
		c0.1-0.2,0.2-0.3,0.3-0.5c0-0.1,0-0.1-0.1-0.1c0-0.2,0.1-0.3,0.1-0.5c0,0,0,0,0.1,0v-0.1c0,0,0.1,0.1,0.1,0c6.8-12.1,9.9-26,9.8-40
		v0.1c0.1,0.1,0.2,0,0.2-0.1c0.1,0.1,0.2,0,0.2-0.1c-0.2-0.6-0.3-1.2-0.5-1.9c0-0.2,0-0.4,0-0.5c0-0.1-0.1-0.1-0.1-0.1
		c-0.7-3.4-0.8-6.6-0.3-10.1c0-0.1-0.2-0.1-0.2,0l0,0c0,0,0,0-0.1,0c0-0.1,0-0.1,0-0.2s-0.2-0.1-0.2,0l0,0c0,0-0.1,0-0.2,0.1
		c-1.1,3.9-1.1,7.8,0.4,11.7c-0.3,6.8-0.7,13.6-2.2,20.3c-1.4,6.4-3.8,12.4-6.5,18.3c-0.1,0-0.1,0-0.2,0.1l0,0h-0.1
		c0-0.1,0-0.1,0-0.2c0-0.2-0.2-0.2-0.2-0.1l0,0c-0.1,0-0.1,0-0.2,0.1c-0.5,1.5-0.9,3-1.3,4.5c0.2-0.9,0.4-2,0.7-2.9
		c0-0.1-0.2-0.2-0.2-0.1l0,0h-0.1c0,0,0-0.1,0-0.2c0-0.1-0.2-0.2-0.2-0.1l0,0c-0.1,0-0.1,0-0.2,0c-0.7,2.6-1.3,5.2-1.9,7.7
		c-3.7,8.8-5.2,18-4.8,27.8c0.3,7.6,1.3,15.2,2.6,22.6c0.8,13,2.2,26,2.9,38.9c-0.1,0-0.2,0-0.2,0.1l0,0l0,0v-0.2
		c0-0.2-0.2-0.2-0.2,0l0,0c-0.1-0.1-0.2,0-0.2,0.1v0.6c0,0,0,0-0.1,0c0-0.1,0-0.1,0-0.2c0-0.1-0.2-0.1-0.2,0c0,0,0,0,0,0.1
		c0-0.1-0.2-0.1-0.2,0c0.4,10.4-0.4,20.9-2.4,31c0.1-4.8,0.8-9.6,1.2-14.4c0-0.2-0.2-0.2-0.3,0l0,0c0-0.1,0-0.1,0-0.2
		c0-0.2-0.2-0.2-0.3,0c-0.1,0-0.2,0-0.2,0.1c-0.4,5.9-1.5,12-1.1,18c-0.4,1.7-0.4,3.3-0.1,4.9c-0.1,0-0.2,0.1-0.1,0.2
		c0.1,0,0.1,0.1,0.2,0.1c0.1,0.4,0.3,0.8,0.4,1.2c0,0.1,0,0.2-0.1,0.3c-0.1,0-0.2,0-0.1,0.1c0,0.1,0,0.1,0.1,0.2c0,0.1,0,0.1,0,0.2
		c0,0.1,0.1,0.1,0.1,0.1c0.6,1.9,1.7,3.2,2.9,4.4h0.1c0.1,0.1,0.1,0.1,0.2,0.2c0.2,0,0.4-0.1,0.7,0c0,0,0,0,0.1,0
		c-0.1-0.1-0.1-0.1-0.2-0.2c0.1,0,0.2,0,0.3,0c0,0,0,0,0.1,0c-0.1,0-0.1-0.1-0.2-0.2c0.5,0.3,1.1,0.5,1.7,0.7c2,0.5,3.9,1.2,5.9,1.9
		l0,0l0,0c3.5,1.1,7,2.3,10.6,2.9c0-0.1,0-0.1,0-0.2c0.1,0,0.1,0,0.2,0l0,0c0.6,0,1.2,0.1,1.9,0.1c-0.2,0-0.4,0-0.6,0
		c0.2,0,0.3,0,0.5,0.1c-0.2,0-0.5,0-0.7,0c0.2,0,0.4,0,0.7,0.1c-0.1,0-0.1,0-0.2,0c0.2,0,0.3,0,0.5,0.1c-0.2,0-0.5,0-0.7,0
		c1.1,0.2,2.3,0.3,3.4,0.3c0.3,0,0.6,0,0.9,0.1c0.6,0,1.2,0,1.8-0.1c0.4,0,0.8,0.1,1.1,0.1c4-0.1,8.1-0.5,12-0.6
		c3-0.6,5.9-1.4,8.8-2.3l0,0c0,0,0.1,0,0.1-0.1c0,0,0,0,0.1,0l0,0c0.1,0,0.1-0.3-0.1-0.2c-0.1,0-0.2,0-0.3,0.1c0,0,0,0,0.1,0l0,0
		c0.1,0,0.1-0.1,0.1-0.2c2.2-0.8,4.3-1.8,6.4-2.9c0.1,0,0.1-0.1,0.2-0.1l0,0c0.1,0,0.1-0.1,0.2-0.1v-0.1c0.3-0.1,0.6-0.2,1-0.3
		c-0.3,0.4-0.5,0.7-0.8,1c-0.1,0.2-0.3,0.4-0.5,0.5c0.2-0.1,0.4-0.1,0.6-0.2c-0.1,0.1-0.2,0.3-0.4,0.4c0.3-0.1,0.5-0.2,0.8-0.3
		c0.2-0.1,0.3-0.1,0.5-0.2c0,0,0.1,0,0.1-0.1h0.1c0.4-0.3,0.8-0.7,1.2-1C76.1,252.4,75.5,251.9,74.7,251.4z M15,141.4
		c0-6.7,0.9-13.3,2.9-19.6c-0.2,0.9-0.3,1.8-0.4,2.7C16.3,130,15.3,135.7,15,141.4z M16,239c0-0.1,0.1-0.3,0.1-0.4
		c0,0.2-0.1,0.4-0.1,0.5V239z M16.2,238.6c-0.1,0.4-0.1,0.8-0.2,1.2v-0.1C16.1,239.3,16.2,239,16.2,238.6z M16,246.3
		c-0.1-0.3-0.1-0.7-0.2-1c0.1,0.3,0.1,0.6,0.2,0.8C16.1,246.2,16.1,246.3,16,246.3z M16.1,242.7c0-0.3,0-0.7-0.1-1
		c0.1-0.3,0.1-0.5,0.2-0.8c0-0.1-0.2-0.2-0.2-0.1c0-0.1,0-0.3,0-0.4c0.1-0.6,0.3-1.1,0.4-1.8c-0.1,0.5-0.2,1.1-0.3,1.7
		c0,0.1,0.1,0.1,0.1,0c0.5-2.1,0.9-4.2,1.3-6.4c0,3.5-0.5,7-1.1,10.4C16.3,243.7,16.2,243.2,16.1,242.7z M16.6,247.6
		c0.5,1,1,2,1.8,2.8c-0.8-0.7-1.4-1.5-1.9-2.5C16.6,247.9,16.6,247.8,16.6,247.6z M18.4,252.2c-0.7-0.8-1.3-1.8-1.9-2.8
		c0.1,0.2,0.2,0.3,0.3,0.4v0.1c0.2,0.1,0.4,0.3,0.5,0.4c0.1,0.1,0.2,0.1,0.2,0.2c0.2,0.2,0.5,0.4,0.8,0.6c0.2,0.2,0.4,0.3,0.7,0.5
		c0.8,0.6,1.8,1.1,2.6,1.7C20.7,253,19.6,252.6,18.4,252.2z M24.7,253.8c-0.1-0.1-0.3-0.1-0.4-0.2h-0.1c-0.4-0.1-0.8-0.3-1.2-0.5
		c0.5,0.1,1.1,0.2,1.7,0.3c0,0,0.1,0,0.1,0.1c0,0,0.1,0,0.1-0.1c0.8,0.1,1.5,0.2,2.4,0.2l0,0c-0.6,0.1-1.2,0.2-1.9,0.3
		C25.2,253.9,25,253.8,24.7,253.8z M27,254.4c0.3,0,0.6-0.1,0.9-0.1c0.1,0.1,0.3,0.2,0.4,0.3C27.9,254.5,27.5,254.4,27,254.4z
		 M29.4,254.6c-0.2-0.1-0.4-0.2-0.6-0.3c0.5,0,0.9,0,1.4,0c0.3,0.1,0.5,0.2,0.8,0.3C30.5,254.5,30,254.5,29.4,254.6z M34.1,257.4
		c-0.5-0.2-0.9-0.3-1.4-0.5c1.5,0.3,3.2,0.5,4.8,0.6C36.4,257.5,35.3,257.5,34.1,257.4z M50.9,256.6c2.4-0.3,4.8-0.7,7.1-1.2
		c-1.9,0.4-3.6,0.8-5.5,1.2C52,256.6,51.4,256.6,50.9,256.6z M55.7,257L55.7,257c0.1-0.1,0.1-0.1,0.2-0.1c0.1,0,0.1-0.2,0-0.2
		c0,0,0,0-0.1,0c2-0.5,3.9-0.9,5.9-1.5c0.6-0.1,1.2-0.1,1.9-0.2c-0.6,0.2-1.1,0.4-1.8,0.7h-0.1C59.7,256.2,57.7,256.6,55.7,257z
		 M64.8,255.8C64.8,255.8,64.7,255.8,64.8,255.8c-0.1,0-0.2,0-0.2,0.1l0,0c0,0,0,0-0.1,0c-0.1,0.1-0.3,0.1-0.4,0.1
		c0.2-0.1,0.3-0.2,0.5-0.3c0.1-0.1,0-0.2-0.1-0.1c-0.1,0-0.1,0.1-0.1,0.1l0,0c-0.3,0.2-0.6,0.4-0.9,0.6c-1.2,0.3-2.5,0.6-3.6,0.9
		c2.7-0.7,5.4-1.8,8-3c1.1-0.1,2.4-0.3,3.6-0.5C69.1,254.5,67,255.2,64.8,255.8z M73,253.3C73,253.2,73.1,253.2,73,253.3
		c0.1,0,0.1,0,0.1,0C73.1,253.2,73.1,253.2,73,253.3z M76.8,218.3L76.8,218.3c-0.1,0-0.2,0-0.2,0.1c-0.1,0.1-0.2,0.3-0.3,0.4
		c-0.5,0.8-1.1,1.7-1.9,2.5c-0.9,1-1.9,2-2.9,2.9c0,0.1,0,0.2,0,0.3c0.1-0.1,0.1-0.1,0.2-0.2v0.1c1.2-1.1,2.4-2.3,3.5-3.6
		c0.5-0.6,1-1.3,1.5-2.1l0.2-0.3C77,218.2,76.9,218.1,76.8,218.3z M75.5,197.3C75.4,197.4,75.4,197.4,75.5,197.3
		c-0.1,0-0.2,0-0.2,0.1c-1.2,2.1-2.6,4.2-4,6.1c0,0.1,0,0.2,0,0.3c0.1-0.1,0.1-0.2,0.2-0.2v0.1c1.5-2,2.9-4.1,4.2-6.3
		C75.7,197.3,75.5,197.1,75.5,197.3z M76.1,183.9C76.1,183.9,76.1,184,76.1,183.9c-0.1,0.1-0.1,0-0.2,0.1c-1.4,3.2-3.4,6.2-5.7,8.9
		c0,0.1,0,0.2,0,0.3c0.1-0.1,0.1-0.1,0.2-0.2v0.1c2.4-2.7,4.3-5.7,5.8-9.1C76.3,183.9,76.1,183.8,76.1,183.9z M75.1,197.1
		L75.1,197.1c-0.1,0-0.1,0-0.2,0.1c-1.2,2.1-2.6,4.2-4,6.1c0,0.1,0,0.2,0,0.3c0.1-0.1,0.1-0.2,0.2-0.2v0.1c1.5-2,2.9-4.1,4.2-6.3
		C75.4,197,75.1,196.9,75.1,197.1z M75.6,180.9C75.6,181,75.6,181,75.6,180.9c-0.1,0.1-0.1,0.1-0.2,0.1c-1.8,1.9-3.6,3.5-5.6,5.1
		v0.2c0.1-0.1,0.1-0.1,0.2-0.1l0,0c2-1.5,3.9-3.3,5.7-5.2C75.9,181,75.7,180.8,75.6,180.9z M75.8,183.5
		C75.8,183.5,75.7,183.4,75.8,183.5c-0.1,0-0.1,0-0.2,0c0,0-0.1-0.1-0.1,0c-1.9,2-3.6,4-5.5,6.1v0.2c0.1-0.1,0.1-0.1,0.2-0.2v0.1
		C72,187.7,73.8,185.6,75.8,183.5z M76.9,176.2c-2.3,2.4-4.6,4.8-7.1,6.8c0,0.1,0,0.1,0,0.2l0.2-0.1l0,0c2.5-2,4.8-4.2,7-6.6
		L76.9,176.2z M74.7,162.4l-0.1-0.5c-1.7,2.9-3.5,5.8-5.6,8.4c0,0.1,0,0.2,0,0.2c0.1-0.1,0.1-0.1,0.2-0.2v0.1
		C71.3,168,73.1,165.3,74.7,162.4z M75.9,181.1C75.9,181.2,75.9,181.2,75.9,181.1c-0.1,0.1-0.2,0.1-0.2,0.1
		c-1.8,1.9-3.6,3.5-5.6,5.1c0,0.1,0,0.2,0,0.2c0.1-0.1,0.1-0.1,0.2-0.2c0,0,0,0,0,0.1c2-1.5,3.9-3.3,5.7-5.2
		C76.2,181.2,76,181,75.9,181.1z M75.9,203.7L75.9,203.7c-0.1,0-0.1,0-0.1,0s0-0.1,0.1-0.2c0-0.1-0.2-0.2-0.2-0.1l0,0
		c0,0-0.1,0-0.2,0c-0.9,2.8-2.4,5.4-4.1,7.7v0.3c0.1-0.1,0.1-0.2,0.2-0.3v0.2c0.9-1.2,1.9-2.6,2.6-3.9c-0.7,1.3-1.5,2.7-2.5,3.9v0.3
		c0.1-0.1,0.1-0.2,0.2-0.3v0.2c1.8-2.4,3.3-5,4.2-8C76.1,203.5,75.9,203.5,75.9,203.7z M75.5,194.2c0.4-0.5,0.9-1.1,1.4-1.7
		c0-0.1,0-0.1,0-0.2C76.4,192.9,75.9,193.5,75.5,194.2z M77,212.1c0-0.5,0-1-0.1-1.5c0-0.9,0-1.9,0-2.7c-0.1,0.9-0.1,1.9-0.1,2.8
		c0,0.5-0.1,1-0.1,1.5c0,0.3,0,0.6,0,0.8c0.1-0.1,0.1-0.2,0.2-0.3c0,0,0.1,0,0.2,0c0,0,0,0,0-0.1l0,0C77,212.5,77,212.3,77,212.1z
		 M76.6,213.8L76.6,213.8c0.1-0.2,0.3-0.4,0.4-0.6l0,0C76.9,213.3,76.7,213.6,76.6,213.8z M76,227.7C76,227.7,76,227.8,76,227.7v1.7
		c0,0,0-0.1,0.1-0.1l0.1-0.1v-1.5C76.1,227.6,76.1,227.7,76,227.7z M76.2,227.6v1.5c0,0,0-0.1,0.1-0.1L76.2,227.6
		C76.2,227.5,76.2,227.5,76.2,227.6z M76.4,229.4C76.3,229.4,76.3,229.5,76.4,229.4l-0.1,0.2C76.3,229.5,76.4,229.5,76.4,229.4
		L76.4,229.4L76.4,229.4L76.4,229.4z M76.3,227.5v1.5c0.1-0.1,0.1-0.1,0.2-0.2v-1.5C76.4,227.3,76.3,227.4,76.3,227.5z M78,223.6
		c0,0.1,0,0.1,0,0.1C78,223.7,78,223.7,78,223.6C78.1,223.7,78,223.7,78,223.6z M79,146.1L79,146.1C79,146.2,79,146.1,79,146.1
		L79,146.1z M69.4,115.4C69.3,115.4,69.3,115.4,69.4,115.4h-0.1c0,0,0-0.1,0-0.2c0-0.1-0.2-0.2-0.2-0.1l0,0c-0.1,0-0.2,0-0.2,0
		c-1.4,5.2-2.7,10.3-5.1,15.2c0,0.1,0.1,0.1,0.1,0.1s0-0.1,0.1-0.1c0,0.1,0.1,0.1,0.1,0c0.4-0.7,0.7-1.4,1-2.2
		c-0.3,0.8-0.7,1.7-1,2.4c0,0.1,0.1,0.1,0.1,0.1c0-0.1,0-0.1,0.1-0.1c0,0,0.1,0.1,0.1,0c2.5-4.6,3.7-10,5.2-15.1
		C69.6,115.2,69.4,115.2,69.4,115.4z M74.5,126.1C74.4,126.1,74.4,126.1,74.5,126.1c-0.1,0-0.2,0-0.2,0.1c-0.1,0.3-0.2,0.6-0.4,0.9
		c0.1-0.4,0.3-0.7,0.4-1.1c0-0.1-0.1-0.2-0.2-0.1v0.1c0,0-0.1-0.1-0.1,0c-2.5,6-5.7,11.7-8.4,17.6c0,0,0,0.1,0.1,0
		c0.2-0.3,0.3-0.7,0.5-1c-0.1,0.3-0.3,0.6-0.4,0.8c0,0.1,0.1,0.1,0.1,0.1c1.3-2.6,2.6-5.2,3.9-7.7c-1.3,2.7-2.7,5.4-3.9,8.1
		c0,0,0.1,0.1,0.1,0c0.2-0.3,0.3-0.7,0.5-1c-0.1,0.3-0.3,0.6-0.4,0.8c0,0,0.1,0.1,0.1,0c2.9-5.8,6-11.6,8.5-17.6
		C74.7,126.1,74.5,126,74.5,126.1z M74.7,162.4L74.7,162.4c0.2-0.4,0.5-0.8,0.7-1.2C75.2,161.6,75,162,74.7,162.4z M80.1,157.8
		c0-5.2-0.1-10.4-0.7-15.6c0.1-0.3,0.2-0.6,0.4-0.9c0-0.1-0.2-0.2-0.2,0l0,0h-0.1c0-0.1,0.1-0.1,0.1-0.2c0.1-0.1-0.1-0.2-0.2-0.1
		c-0.6-4.9-1.5-9.5-2.9-14.1c0-0.1,0.1-0.1,0.1-0.2c0-0.1-0.1-0.2-0.2-0.1c-0.5-1.7-1-3.3-1.7-4.9c-0.1-0.1-0.2-0.1-0.2,0
		c0-0.1,0-0.1-0.1-0.2c-0.1-0.1-0.3-0.1-0.2,0.1c-0.1-0.1-0.2,0-0.2,0.1c0.6,1.8,1.2,3.5,1.8,5.3c-1.4,3.9-3.3,7.6-5.4,11.3
		c0,0.1,0.1,0.1,0.1,0.1c0.1-0.2,0.2-0.4,0.3-0.5c-0.1,0.1-0.1,0.2-0.2,0.4c0,0.1,0.1,0.1,0.1,0c1-1.8,2.1-3.5,2.9-5.3
		c-0.9,1.9-1.9,3.7-2.9,5.5c0,0.1,0,0.1,0.1,0.1l0.1-0.1l0,0c0.1-0.1,0.1-0.3,0.2-0.4l1.1,7.5c1.8-3.6,3.4-7.2,4.6-11.2
		c0-0.1,0.1-0.1,0.2,0c0,0,0,0,0-0.1s0.2-0.1,0.2,0.1c0,0.1,0,0.1-0.1,0.2h0.1c0,0,0,0,0-0.1s0.2-0.1,0.2,0.1
		c-1.3,4.3-3.2,8.4-5.2,12.4l0.2,1.5c1.7-3.3,3.1-6.7,4.2-10.1c0-0.1,0.1-0.1,0.2,0c0,0,0,0,0-0.1c0-0.1,0.2-0.1,0.2,0
		c0,0.1,0,0.1-0.1,0.2c0.1,0,0.1,0,0.1,0s0,0,0-0.1s0.2-0.1,0.2,0c-1.2,3.9-2.8,7.7-4.6,11.4l1.9,12.3c1.2-2.2,2.5-4.4,3.5-6.7
		c0-0.1,0.1-0.1,0.1,0c0,0,0,0,0-0.1c0.1-0.1,0.2,0,0.2,0.1c0,0.1-0.1,0.1-0.1,0.2c0-0.1,0.1-0.1,0.1,0c0,0,0,0,0-0.1
		c0.1-0.1,0.2,0,0.2,0.1c-1.2,2.6-2.6,5.1-4,7.5l1.7,10.4c0.6-0.8,1.2-1.7,1.8-2.6c0-0.1,0.1,0,0.1,0s0-0.1,0.1-0.1
		c0-0.1,0.1,0,0.1,0.1c-0.6,1-1.3,2.1-2.1,3l0.3,2.3c0.3-0.3,0.6-0.6,0.9-0.9h0.1l0.1-0.1c0.1-0.1,0.2,0,0.1,0.1
		c-0.4,0.4-0.8,0.8-1.1,1.2l1.5,10.1c0,0,0.1-0.1,0.1-0.2c0-0.1,0-0.1-0.1-0.2c0.5-6.1,0.9-12.2,1.3-18.2c0.2-3.2,0.3-6.4,0.3-9.6
		c0-0.2,0.1-0.4,0.1-0.6C80.3,157.8,80.2,157.7,80.1,157.8z M72.8,142.7c0,0.1-0.1,0-0.1,0c0.1-0.2,0.1-0.4,0.2-0.7
		c-0.1,0.3-0.2,0.5-0.3,0.8c0,0.1-0.1,0-0.1,0c0.2-0.6,0.4-1.2,0.6-1.9c-0.2,0.5-0.4,1-0.6,1.7c0,0.1-0.1,0-0.1,0
		c0.1-0.2,0.1-0.5,0.2-0.7c-0.1,0.3-0.2,0.5-0.3,0.8c0,0.1-0.1,0-0.1,0c1.2-3.8,2.3-7.7,3.3-11.7c0-0.1,0.2-0.1,0.1,0
		c0,0.1,0,0.1,0,0.1c0-0.1,0.1-0.2,0.1-0.3c0-0.1,0.2-0.1,0.2,0c-0.1,0.2-0.1,0.5-0.2,0.7c0-0.2,0.1-0.3,0.1-0.4s0.2-0.1,0.1,0v-0.1
		c0-0.1,0.2-0.1,0.1,0C75.1,135,74.2,138.9,72.8,142.7z M78.7,186.5C78.7,186.6,78.7,186.6,78.7,186.5c-0.1,0-0.1,0-0.2,0.1l0,0l0,0
		v0.7c0.1-0.2,0.2-0.4,0.3-0.7C79,186.5,78.8,186.4,78.7,186.5z M80,225.4c-0.1,0.1-0.2,0.3-0.3,0.4c0.1,0.9,0.3,1.8,0.4,2.7
		c0,0,0,0,0.1-0.1L80,225.4z M80.1,225C80.1,225.1,80.1,225.1,80.1,225l-0.1,0.4c0.1-0.1,0.1-0.2,0.2-0.2
		C80.3,225.1,80.2,224.9,80.1,225z M81.2,227.3C81.2,227.3,81.1,227.4,81.2,227.3c-0.1,0.1-0.1,0-0.2,0.1c-0.3,0.4-0.6,0.7-0.8,1.1
		v0.5c0.4-0.5,0.8-1,1.2-1.5C81.4,227.3,81.3,227.2,81.2,227.3z M73.1,226.6c-0.3,0.4-0.7,0.7-1,1.1c-0.3,0.4-0.7,0.7-1,1.1v-0.1
		c-0.1,0.1-0.1,0.2-0.2,0.2c0-0.1,0-0.2,0.1-0.3c0.3-0.3,0.6-0.6,0.9-1c0.3-0.4,0.7-0.7,1-1.1L73.1,226.6z M77.3,228.2
		c-0.3,0.3-0.6,0.7-0.8,1v0.1C76.8,229,77.1,228.6,77.3,228.2L77.3,228.2z M80,225.1l-0.2-4.8l-0.1-1.4c-0.4-0.1-0.7-0.2-1.1-0.2
		c0.1,0.5,0.1,0.9,0.2,1.4L80,225.1z M73.7,212.8c0.3-0.5,0.5-1,0.8-1.5c0.1-0.3,0.3-0.6,0.4-0.9c0-0.1,0.1-0.1,0.2,0c0,0,0,0,0-0.1
		c0.1-0.1,0.2,0,0.2,0.1c0,0.1-0.1,0.1-0.1,0.2c0-0.1,0.1-0.1,0.1,0v-0.1c0.1-0.1,0.2,0,0.2,0.1c-0.1,0.2-0.1,0.3-0.2,0.5
		c-0.2,0.5-0.5,1-0.7,1.5c-0.1,0-0.3,0.1-0.4,0.1c0.2-0.4,0.4-0.7,0.5-1.1c-0.2,0.4-0.4,0.7-0.6,1.1L73.7,212.8z"/>
	<g>
		<path class="st0" d="M86.7,227.9c-0.1-0.1-0.3-0.1-0.4-0.2c0.1,0.1,0.2,0.2,0.4,0.3c0.3,0.2,0.7,0.3,1,0s0.2-0.7,0-1l-0.1-0.1l0,0
			c-0.1-0.2-0.2-0.4-0.4-0.5c-0.2-0.1-0.4-0.1-0.6,0c-0.1,0-0.1,0.1-0.2,0.1c-0.1,0.1-0.2,0.2-0.3,0.3c0.3,0.4,0.7,0.7,1,1.1
			C86.8,227.9,86.7,227.9,86.7,227.9z"/>
		<path class="st0" d="M93.4,225.7c0.1,0.1,0.3,0.1,0.4,0.1h0.1l0,0H94h0.1c0,0,0,0,0.1,0c0.2,0,0.3-0.1,0.5-0.1
			c0.1,0,0.2,0,0.2-0.1c0.3-0.2,0.5-0.4,0.5-0.8s-0.2-0.8-0.6-1c-0.1,0-0.1,0-0.2,0c-0.2-0.1-0.3-0.1-0.5-0.1c-0.1,0-0.1,0-0.2,0
			c-0.3,0-0.5,0.1-0.7,0.3c-0.2,0.1-0.3,0.3-0.4,0.5C92.7,224.8,92.9,225.4,93.4,225.7z"/>
		<path class="st0" d="M84,224.4c0.4-0.3,0.6-0.2,1.1-0.3c0.8-0.2,0.7-1.4-0.1-1.5c-0.8-0.1-1.4,0.3-2,0.9
			C82.8,224,83.5,224.8,84,224.4z"/>
		<path class="st0" d="M127.6,224.6c0.1,0,0.1,0,0.2,0c0,0,0.2,0,0.3,0.1c0.1,0,0.1,0,0.1,0c0.1,0,0.2,0,0.3,0c0.1,0,0.2,0,0.3,0
			c0.3-0.1,0.5-0.4,0.5-0.7c0-0.4-0.1-0.7-0.4-0.9c-0.1-0.1-0.3-0.2-0.4-0.2c-0.3-0.1-0.6-0.1-0.9,0c-0.4,0.1-0.7,0.3-0.7,0.7
			C126.8,224.1,127.1,224.5,127.6,224.6z"/>
		<path class="st0" d="M73.4,226.7c-0.1,0-0.2-0.1-0.3-0.1c0,0,0,0-0.1,0c-0.3,0.4-0.7,0.7-1,1.1c0,0,0,0,0.1,0
			c0.1,0,0.2,0.1,0.3,0.1c0.3,0.1,0.5,0.2,0.7,0.3c0.9,0.4,1.9,0.7,2.8,1.1v-1.4c0,0,0,0,0-0.1C75.1,227.4,74.3,227.1,73.4,226.7z
			 M78.7,218.7c-0.5-0.1-1.1-0.1-1.8-0.1h-0.1c-0.1,0-0.3,0-0.4,0.1c0,0,0,0-0.1,0s-0.3,0.1-0.4,0.1c-2.7,0.7-5,3.2-6.3,5.5
			c-0.1,0.3,0.2,0.6,0.4,0.4c1-0.6,2-1.4,2.8-2.3l0,0c0.5-0.4,0.9-0.8,1.4-1.1c0.1-0.1,0.1-0.1,0.2-0.1c0.2-0.2,0.5-0.3,0.7-0.4
			c1-0.5,2.2-0.8,3.6-0.6C78.8,219.7,78.8,219.2,78.7,218.7z M74.7,211.6c-0.2,0.4-0.4,0.7-0.5,1.1l0,0
			C74.3,212.3,74.5,212,74.7,211.6z M154.5,176.2c-2.6-0.1-4.3,2.1-5.5,4c-1.8,2.9-3.1,6-5.3,8.6c-4.9,5.7-10.4,10.8-15.8,16
			c-1.3,1.2-2.6,2.6-3.9,3.8c-6-0.6-12.1-1.2-18.2-1.4c-0.6,0-1.2,0.1-1.9,0c-0.2,0.1-0.3,0.1-0.5,0.1c-0.3,0-0.6,0-0.9-0.1
			c-2.8,0.2-5.6,0.4-8.4,0.7c0,0-0.9,0.1-2.4,0.2l0,0c-1.1,0.1-2.3,0.3-3.4,0.4l0,0c-2.6,0.3-5.8,0.8-9.1,1.5l0,0
			c-0.5,0.1-1,0.2-1.5,0.3c-0.3,0.1-0.6,0.1-0.9,0.2c-0.1,0-0.1,0-0.2,0c-0.5,0.1-0.9,0.2-1.4,0.4c-0.3,0.1-0.6,0.2-0.8,0.2
			c-5.3,1.5-10.1,3.6-12,6.6c-0.1,0.3-0.1,0.7-0.1,1c-0.1,0-0.1,0.1-0.2,0.2c0,0.1-0.1,0.1-0.1,0.2c-0.5,4.2,1,15.5,1.1,16.1
			c0.4,2.1,0.9,4.1,1.7,6.2c1.3,3.6,3.4,6.7,6,9.3c0.4,0.4,0.8,0.7,1.1,1.1l0.1,0.1c0.4,0.4,0.9,0.8,1.4,1.1
			c0.2,0.2,0.4,0.3,0.6,0.4c0.2,0.2,0.4,0.3,0.6,0.5c1.4,1,3,2,4.6,2.8c8,4,16.5,5.2,25.2,4.8c0-0.1,0-0.3,0-0.4c0,0.1,0,0.3,0,0.4
			c8.7,0.2,17.2-1.1,25.1-5.4c6.5-3.5,11.8-8.6,14.3-15.7c1.2-3.5,1.7-7.1,2.4-10.8c0.8-3.9,1.8-8.1-0.2-11.7c0-0.1-0.1-0.1-0.2-0.2
			c0-1.2-0.4-2.3-1.3-3.3c-1.3-1.3-3.2-2.4-5-3c-2.3-0.8-4.5-1.4-6.9-1.9c0.8-0.7,1.8-1.5,2.6-2.3c3.3-2.8,6.7-5.4,9.9-8.3
			c3.1-2.7,6-5.7,8.7-8.8c2.1-2.4,4.5-4.4,4.6-8.1C158.8,180.3,157.2,176.4,154.5,176.2z M67.1,215.1c2.2-0.9,4.3-1.7,6.6-2.3
			c0.1,0,0.3-0.1,0.4-0.1l0,0c0.1,0,0.3-0.1,0.4-0.1l0,0c0.6-0.2,1.3-0.3,2.1-0.4c0.1,0,0.2,0,0.3-0.1c0.3-0.1,0.6-0.1,0.9-0.2
			c0.5-0.1,1-0.2,1.5-0.3c3-0.5,6.1-0.8,9.1-1.2c5.3-0.6,10.4-1.1,15.6-1.4c5.3,0.2,10.4,0.6,15.6,1.1c0.8,0.1,1.5,0.1,2.4,0.2
			c-2.5,2.4-5.1,4.8-7.7,7c-1-1-2.3-1-3.7-1.1c-2.1-0.2-4.2,0-6.3,0.5c-2.3,0.5-4.1,1.7-6.5,1.3c-0.8-0.1-1.7-0.9-2.3-1.3
			c-0.7-0.4-1-0.4-2-0.4c-2.1,0-3.6,0.2-5.5,1c-1.9,0.8-3.7,2.2-5.8,2.1c-0.9,0-1.8-0.2-2.6-0.4c-0.4-0.1-0.7-0.2-1.1-0.2
			c-0.5-0.1-1.1-0.1-1.8-0.1h-0.1c-0.1,0-0.3,0-0.4,0.1c0,0,0,0-0.1,0c-0.1,0-0.3,0.1-0.4,0.1c-2.7,0.7-5,3.2-6.3,5.5
			c-0.1,0.3,0.2,0.6,0.4,0.4c1-0.6,2-1.4,2.8-2.3l0,0c0.5-0.4,0.9-0.8,1.4-1.1c0.1-0.1,0.1-0.1,0.2-0.1c0.2-0.2,0.5-0.3,0.7-0.4
			c1-0.5,2.2-0.8,3.6-0.6h0.1c0.3,0,0.6,0.1,0.8,0.2c1.2,0.3,2.4,0.6,3.6,0.4c1.4-0.2,2.7-0.8,4-1.5c2-0.9,3.6-1.4,5.8-1.4
			c1,0,1.3,0.1,2.2,0.6c0.5,0.4,1.1,0.8,1.8,1c1.5,0.5,3.1,0.2,4.6-0.3c2.2-0.6,4-1.2,6.3-1.4c1.2-0.1,3.2-0.3,4.5,0.3
			c0.5-0.3,1.1-0.5,1.8-0.6c-0.9,0.8-2,1.7-2.9,2.5c-0.1-0.1-0.3-0.2-0.5-0.1c-7.3,3.1-15.6,5.1-21.3,10.5c-0.3,0.3-0.5,0.5-0.8,0.8
			c-3.9-0.6-7.8-1.5-11.6-3l0,0c-0.1,0-0.2-0.1-0.3-0.1c-0.1,0-0.3-0.1-0.4-0.1c-0.1,0-0.1-0.1-0.2-0.1l0,0c-0.1,0-0.1,0-0.2-0.1
			l0,0h-0.1l0,0c0,0-0.1,0-0.1-0.1c-0.8-0.3-1.8-0.7-2.6-1c-0.1,0-0.2-0.1-0.3-0.1c0,0,0,0-0.1,0s-0.2-0.1-0.3-0.1
			c-1.1-0.5-2.2-0.9-3.3-1.4c-1.3-0.6-2.6-1.3-3.8-2.3c-1.1-0.8-2.6-1.8-2.7-3.2v-0.1c0.1-0.2,0-0.3-0.2-0.4
			C63.3,217.1,65.5,215.8,67.1,215.1z M144.6,229.5c-0.8,3.6-1.1,7.1-2.5,10.5c-5.8,14.8-22.6,19.5-37.3,19.3h-0.2l0,0
			c-9.6,0.4-20-1.3-27.9-6.5c-0.7-0.5-1.3-0.9-2.1-1.5c-0.3-0.3-0.6-0.5-0.9-0.8c-0.2-0.2-0.4-0.4-0.6-0.5c-2.6-2.4-4.8-5.4-6.2-9
			c-1.4-3.4-1.9-7-2.7-10.5c-0.7-2.9-1.8-6-1.4-9.1c0.6,1.2,1.9,2.2,2.9,2.9c1.9,1.3,4,2.3,6.2,3.2c0.1,0,0.2,0.1,0.3,0.1
			c0,0,0,0,0.1,0c0.1,0,0.2,0.1,0.3,0.1c0.3,0.1,0.5,0.2,0.7,0.3c0.9,0.4,1.9,0.7,2.8,1.1c0,0,0,0,0.1,0c0.1,0,0.2,0.1,0.3,0.1
			c0,0,0,0,0.1,0c0.9,0.3,1.8,0.6,2.7,0.9l0,0c1.9,0.6,3.6,1.1,5.6,1.5c4.5,1,9.1,1.3,13.7,1.5c1.7,0.1,3.4,0.1,5.1,0.1l0,0
			c0.3,0,0.5,0,0.8,0c0.4,0,0.8,0,1.1,0l0,0c1.8,0,3.4-0.1,5.1-0.2c4.6-0.3,9.2-0.7,13.6-1.9c4-0.9,7.6-2.5,11.4-4.1
			c2.6-1.1,5.2-2.3,7.4-3.9c1-0.8,2.2-1.8,2.8-3C146.2,223.5,145.3,226.6,144.6,229.5z M97.7,232.2c2-1.5,3.8-3.1,5.9-4.4
			c1.7-1.1,3.4-2.3,5.4-2.9c1.1-0.4,3-0.8,4.1,0.4c1.5,1.7,1,4.6,0.6,6.3v0.1c-2.8,0.3-5.6,0.5-8.4,0.6c-0.3,0-0.5,0-0.8,0h-0.7
			C101.7,232.4,99.6,232.3,97.7,232.2z M115.2,228c0.1,1.1,0.4,2.4,0.5,3.4c-0.2,0-0.5,0.1-0.7,0.1c0.1-0.5,0.1-1,0.2-1.5
			C115.2,229.5,115.3,228.7,115.2,228z M116.4,225.4L116.4,225.4c2.6-2.6,5.2-5.2,7.7-7.6c0.8,0.3,1.5,0.8,2,1.5
			c0.5,0.8,1,1.4,2.1,1.5c0.3,0,0.7,0,0.9-0.2c0.6-0.8,1.4-1.5,2.5-1.7c2.7-0.3,4.9,3.7,6.3,5.4c0.1,0.1,0.2,0.2,0.4,0.2
			c-2,1-4,1.9-6.1,2.7c-4.8,2-9.7,3.2-14.8,3.9c-0.2-1.9-0.3-3.8-1-5.7C116.4,225.5,116.4,225.5,116.4,225.4z M133.8,211.9
			c2.6,0.5,5.2,1.2,7.6,2.3c1.5,0.7,3.8,2,4.3,3.7c-0.1,0.1-0.2,0.2-0.2,0.4v0.1c-0.1,1.4-1.5,2.5-2.6,3.3c-1.1,0.8-2.5,1.7-3.7,2.4
			c-0.2,0.1-0.4,0.2-0.5,0.3c0.1-0.1,0.1-0.3,0-0.5c-1.4-2-3.1-4.3-5.4-5.3c-1-0.4-2.2-0.4-3.2,0c-0.6,0.3-1,0.7-1.5,1.1
			c-0.5,0.5-1.2-0.8-1.4-1.2c-0.5-0.7-1.2-1.2-2-1.7c2-1.9,3.9-3.7,6-5.5C132,211.6,132.9,211.7,133.8,211.9z M148.8,194.5
			c-5.3,5.4-11.2,9.8-16.8,14.6c-0.2,0.2-0.4,0.3-0.6,0.5h-0.1c0,0,0,0,0,0.1c-5.6,4.8-10.8,9.7-16,14.9c-0.3,0.3-0.1,0.6,0.1,0.9
			c0,0-0.1,0.1-0.1,0.2c-0.1,0.6-0.1,1.3-0.1,2.1c-0.1-1.1-0.5-2.2-1.3-3c-1.1-1.1-2.5-1.5-3.9-1.3c-4,0.4-7.3,3.1-10.2,5.4
			c-1.4,1.1-2.9,2.3-4.3,3.4c-1.7-0.1-3.2-0.3-4.9-0.5c0.6-0.6,1.3-1.2,2.1-1.8c5.6-4.2,12.6-6.1,19-9c0.2-0.1,0.3-0.3,0.1-0.5
			c5.6-4.2,10.7-8.8,15.7-13.5c2.6-2.5,5.1-5,7.6-7.4c2.6-2.4,5.2-4.8,7.6-7.3c2.3-2.4,4.3-4.8,6-7.6c0.7-1.3,1.5-2.7,2.5-3.9
			c0.7-0.9,1.7-2.2,2.9-2.4c1.7-0.3,2.9,2.2,2.9,3.6c0,1.5-0.4,3.1-1.2,4.3C153.9,189.1,151.3,191.8,148.8,194.5z M74.1,212.7
			L74.1,212.7c0.2-0.4,0.4-0.7,0.5-1.1C74.5,212,74.3,212.3,74.1,212.7z M78.7,218.7c-0.5-0.1-1.1-0.1-1.8-0.1h-0.1
			c-0.1,0-0.3,0-0.4,0.1c0,0,0,0-0.1,0s-0.3,0.1-0.4,0.1c-2.7,0.7-5,3.2-6.3,5.5c-0.1,0.3,0.2,0.6,0.4,0.4c1-0.6,2-1.4,2.8-2.3l0,0
			c0.5-0.4,0.9-0.8,1.4-1.1c0.1-0.1,0.1-0.1,0.2-0.1c0.2-0.2,0.5-0.3,0.7-0.4c1-0.5,2.2-0.8,3.6-0.6
			C78.8,219.7,78.8,219.2,78.7,218.7z M73.4,226.7c-0.1,0-0.2-0.1-0.3-0.1c0,0,0,0-0.1,0c-0.3,0.4-0.7,0.7-1,1.1c0,0,0,0,0.1,0
			c0.1,0,0.2,0.1,0.3,0.1c0.3,0.1,0.5,0.2,0.7,0.3c0.9,0.4,1.9,0.7,2.8,1.1v-1.4c0,0,0,0,0-0.1C75.1,227.4,74.3,227.1,73.4,226.7z"
			/>
		<path class="st0" d="M123,225.8c0,0.2,0.2,0.4,0.4,0.4c0.1,0,0.2,0,0.3-0.1l0,0c0.2,0,0.5-0.1,0.6-0.3c0.1-0.1,0.1-0.3,0-0.4
			l-0.1-0.1c-0.1,0-0.1-0.1,0-0.1c-0.1-0.1-0.1-0.1-0.2-0.2c-0.2-0.2-0.5-0.3-0.8-0.2c-0.3,0.1-0.4,0.5-0.3,0.7
			C123,225.7,123,225.8,123,225.8z"/>
	</g>
</g>
</svg>
