<?xml version="1.0" encoding="utf-8"?>
<!-- Generator: Adobe Illustrator 23.0.3, SVG Export Plug-In . SVG Version: 6.00 Build 0)  -->
<svg version="1.1" id="Layer_2" xmlns="http://www.w3.org/2000/svg" xmlns:xlink="http://www.w3.org/1999/xlink" x="0px" y="0px"
	 viewBox="0 0 64.5 45.4" style="enable-background:new 0 0 64.5 45.4;" xml:space="preserve">
<style type="text/css">
	.st0{fill:#302148;}
</style>
<path class="st0" d="M63.7,17.5c0-0.4-0.1-0.8-0.3-1c-0.1-0.8-0.5-1.5-1-2c-0.1-0.3-0.4-0.5-0.6-0.8c-0.1-0.1-0.1-0.3-0.3-0.4
	c-0.1-0.1-0.4-0.4-0.5-0.5c-0.3-0.1-0.5-0.3-0.8-0.4c-0.5-0.4-1-0.8-1.5-1c-0.1,0-0.3,0-0.3-0.1c-0.5-0.4-1-0.6-1.5-1
	c0,0-0.1,0-0.1-0.1l0,0c-1.3-0.5-2.5-0.9-3.7-1.5c-0.4-0.1-0.8-0.3-1.3-0.4c-0.3,0-0.5-0.1-0.8-0.3c-2.9-1-6-1.5-9.1-1.9l0,0
	c-1-0.1-2-0.3-2.9-0.3c0.4,0,0.6,0,1,0c-0.8-0.1-1.4-0.1-2.1-0.3c-0.4,0-0.6,0-1,0c-0.4,0-0.6,0-1-0.1H36c-0.1,0-0.4,0-0.5,0
	c-0.1,0-0.3,0-0.4,0.1c-0.5,0-1.1,0-1.6,0c-0.3,0-0.6,0-0.9,0h-0.1c-0.1,0-0.1,0-0.3,0c-0.4,0-0.6,0-1,0c-0.5,0-1,0-1.6,0
	c-0.1,0-0.3,0-0.4-0.1c-0.1,0-0.4,0-0.5,0h-0.1c-0.4,0-0.6,0-1,0.1c-0.4,0-0.6,0-1,0c-0.8,0.1-1.4,0.1-2.1,0.3c0.4,0,0.6,0,1,0
	c-1,0.1-2,0.1-2.9,0.3l0,0c-3,0.4-6.2,0.9-9.1,1.9c-0.3,0.1-0.5,0.1-0.8,0.3c-0.4,0.1-0.8,0.3-1.3,0.4C10.3,9.3,9,9.8,7.8,10.2l0,0
	c0,0,0,0-0.1,0.1c-0.5,0.3-1,0.6-1.5,1c-0.1,0-0.1,0.1-0.3,0.1c-0.5,0.3-1.1,0.6-1.5,1c-0.3,0.1-0.5,0.3-0.8,0.4
	c-0.1,0.1-0.4,0.4-0.5,0.5C3,13.5,3,13.6,2.9,13.7c-0.3,0.3-0.5,0.5-0.6,0.8c-0.5,0.6-0.9,1.3-1,2c-0.1,0.4-0.3,0.8-0.3,1
	c-0.1,0.6-0.3,1.5,0.1,2.1c0,0.4,0.1,0.8,0.1,1.1l0,0c0.6,3.9,2.9,7.2,5,9.8c6,6.9,14.2,9.3,21.9,10.3c1.4,0.1,2.8,0.3,4.2,0.1
	c1.4,0.3,2.8,0.1,4.2,0c7.8-1,15.9-3.3,21.9-10.3c1.9-2.3,3.8-4.9,4.7-8.2l0,0c0,0,0,0-0.1,0c0.4-0.9,0.8-1.8,0.8-2.6
	C64,19,63.9,18.1,63.7,17.5z M54.3,9.6c0.4,0.1,0.8,0.4,1.3,0.5c-0.8-0.3-1.4-0.5-2-0.9C53.6,9.3,53.9,9.4,54.3,9.6z M39,6.3
	c1,0.1,1.9,0.1,2.9,0.3l0,0C40.9,6.4,39.9,6.3,39,6.3L39,6.3z M34.4,6L34.4,6h-0.1C34.2,6,34.4,6,34.4,6z M30.2,6c0.6,0,1.3,0,1.9,0
	h0.1c0,0,0,0,0.1,0c0.6,0,1.1,0,1.8,0c-0.3,0-0.5,0-0.8,0c-0.3,0-0.6,0-0.9,0h-0.1c-0.1,0-0.1,0-0.3,0c-0.3,0-0.6,0-0.9,0
	C30.8,6,30.5,6,30.2,6L30.2,6z M25.5,6.3h0.1c-1,0.1-1.9,0.1-2.9,0.3l0,0C23.8,6.4,24.7,6.3,25.5,6.3z M16.6,7.5
	C16.7,7.5,16.7,7.5,16.6,7.5C16.7,7.5,16.7,7.5,16.6,7.5L16.6,7.5z M15.3,7.8c0.1,0,0.1,0,0.3,0C15.5,7.8,15.3,7.8,15.3,7.8
	C15.2,7.9,15.3,7.9,15.3,7.8z M13.4,8.8c0.5-0.1,1.1-0.3,1.6-0.4c0,0,0.1,0,0.1-0.1c0.3-0.1,0.4-0.1,0.6-0.3
	c0.4-0.1,0.8-0.1,1.1-0.3h0.1c1.4-0.3,2.8-0.5,4-0.8C23,6.8,25,6.5,27.1,6.4l0,0c1,0,2.1-0.1,3.2-0.1c0.6,0,1.3,0,1.9,0h0.1
	c0,0,0,0,0.1,0c0.6,0,1.3,0,1.9,0c1,0,2.1,0.1,3.2,0.1l0,0c2,0.1,3.9,0.4,5.9,0.6c1.4,0.3,2.8,0.4,4,0.8c0,0,0,0,0.1,0
	c0.4,0.1,0.8,0.1,1.1,0.3c0.3,0.1,0.4,0.1,0.6,0.3c0,0,0,0.1,0.1,0.1C50,8.6,50.5,8.7,51,8.8c0.8,0.3,1.6,0.6,2.4,0.9
	c0.8,0.4,1.5,0.6,2.4,0.9c0,0,0,0,0.1,0c0.6,0.4,1.4,0.8,2,1.3c0,0,0,0,0.1,0c0.3,0.1,0.5,0.3,0.6,0.4c0.4,0.1,0.6,0.4,0.9,0.6
	c0,0,0,0,0.1,0c0.8,0.5,1.4,1.1,1.8,1.9c0.6,1,0.9,2.1,0.9,3.2c0,0.3,0,0.5-0.1,0.8c0,0.6,0,1.4-0.3,2c-0.5,1.4-1.4,2.6-2.5,3.7
	c0.3-0.6,0.1-1.5,0.1-2.1c0-0.4-0.1-0.8-0.3-1c-0.1-0.8-0.5-1.5-0.9-2c-0.1-0.3-0.4-0.5-0.6-0.8c-0.1-0.1-0.1-0.3-0.3-0.4
	c-0.1-0.1-0.4-0.4-0.5-0.5c-0.3-0.1-0.4-0.3-0.6-0.4c-0.4-0.4-0.9-0.8-1.4-1c-0.1,0-0.1,0-0.3-0.1c-0.4-0.4-0.9-0.6-1.4-1
	c0,0,0,0-0.1-0.1l0,0C52.1,14.4,51,14,50,13.3c-0.4-0.1-0.8-0.3-1-0.4c-0.3,0-0.4-0.1-0.6-0.3c-2.5-1-5.3-1.5-7.9-1.9l0,0
	c-0.9-0.1-1.8-0.3-2.6-0.3c0.3,0,0.6,0,0.9,0c-0.6-0.1-1.3-0.1-1.9-0.3c-0.3,0-0.6,0-0.9,0c-0.3,0-0.6,0-0.9-0.1h-0.1
	c-0.1,0-0.3,0-0.5,0c-0.1,0-0.3,0-0.4,0.1c-0.5,0-1,0-1.4,0c-0.3,0-0.5,0-0.8,0h-0.1h-0.1c-0.3,0-0.5,0-0.9,0c-0.5,0-0.9,0-1.4,0
	c-0.1,0-0.3,0-0.4-0.1c-0.1,0-0.3,0-0.5,0h-0.1c-0.3,0-0.6,0-0.9,0.1c-0.3,0-0.6,0-0.9,0c-0.6,0.1-1.3,0.1-1.9,0.3
	c0.3,0,0.6,0,0.9,0c-0.9,0.1-1.8,0.1-2.6,0.3l0,0c-2.6,0.4-5.4,0.9-7.9,1.9c-0.3,0-0.4,0.1-0.6,0.3c-0.4,0.1-0.8,0.3-1,0.4
	c-1,0.6-2.1,1.1-3.3,1.5l0,0c0,0,0,0-0.1,0.1c-0.5,0.3-0.9,0.6-1.4,1c-0.1,0-0.1,0.1-0.3,0.1c-0.5,0.3-1,0.6-1.4,1
	c-0.3,0.1-0.4,0.3-0.6,0.4c-0.1,0.1-0.4,0.4-0.5,0.5c-0.1,0.1-0.1,0.3-0.3,0.4c-0.3,0.3-0.4,0.5-0.6,0.8c-0.4,0.6-0.8,1.3-0.9,2
	c-0.1,0.4-0.1,0.8-0.3,1c0,0.4-0.1,0.8-0.1,1.1c-0.8-0.9-1.3-1.8-1.6-2.8c0.5-0.1,0.4-0.9,0.4-1.5c0-0.3-0.1-0.5-0.1-0.8
	c0-1.1,0.3-2.1,0.9-3.2c0.4-0.8,1.1-1.4,1.8-1.9c0,0,0,0,0.1,0c0.3-0.3,0.5-0.5,0.9-0.6c0.3-0.1,0.4-0.3,0.6-0.4c0,0,0,0,0.1,0
	c0.6-0.5,1.4-0.9,2-1.3c0,0,0,0,0.1,0c0.8-0.3,1.5-0.6,2.4-0.9C11.8,9.4,12.7,9.1,13.4,8.8z M59.1,25.2c-1.3,1.1-2.8,2.1-4.2,2.9
	c-3.2,1.6-6.6,2.9-10.2,3.7c-3.9,0.9-8.1,1.3-12.2,1.1l0,0c0,0,0,0-0.1,0c0,0,0,0-0.1,0l0,0c-4,0.1-8.2-0.3-12.2-1.1
	c-3.5-0.8-7.1-2-10.1-3.7c-1.8-1-3.7-2.3-5-3.7v-0.1c0-0.3-0.1-0.5-0.1-0.8c0-1.1,0.3-2.3,0.8-3.3c0.4-0.8,1-1.4,1.6-2
	c0,0,0,0,0.1,0C7.5,18,7.8,17.8,8,17.6c0.3-0.1,0.4-0.3,0.6-0.4c0,0,0,0,0.1,0c0.6-0.5,1.3-0.9,1.9-1.3c0,0,0,0,0.1,0
	c0.8-0.4,1.4-0.6,2.1-1c0.8-0.4,1.4-0.6,2.1-0.9c0.5-0.1,1-0.4,1.5-0.4c0,0,0.1,0,0.1-0.1c0.3-0.1,0.4-0.1,0.6-0.3
	c0.4-0.1,0.8-0.3,1.1-0.3h0.1c1.3-0.3,2.5-0.5,3.7-0.8c1.8-0.4,3.5-0.5,5.3-0.6l0,0c1,0,1.9-0.1,2.9-0.1c0.6,0,1.1,0,1.8,0h0.1
	c0,0,0,0,0.1,0c0.5,0,1.1,0,1.8,0c1,0,1.9,0.1,2.9,0.1l0,0c1.8,0.1,3.5,0.4,5.3,0.6c1.3,0.3,2.5,0.4,3.7,0.8c0,0,0,0,0.1,0
	c0.4,0.1,0.8,0.1,1.1,0.3c0.1,0.1,0.4,0.1,0.6,0.3c0,0,0,0.1,0.1,0.1c0.5,0.1,1,0.3,1.5,0.4c0.8,0.3,1.5,0.6,2.1,0.9
	c0.8,0.4,1.4,0.6,2.1,1c0,0,0,0,0.1,0c0.6,0.4,1.3,0.9,1.9,1.3c0,0,0,0,0.1,0c0.3,0.1,0.4,0.3,0.6,0.4c0.3,0.1,0.5,0.4,0.8,0.6
	c0,0,0,0,0.1,0c0.6,0.6,1.3,1.3,1.6,2c0.5,1,0.8,2.1,0.8,3.3c0,0.3,0,0.5-0.1,0.8C59.1,24.6,59.1,24.8,59.1,25.2z M10.4,9.6
	c0.4-0.1,0.9-0.4,1.3-0.5c-1,0.5-2,0.9-3.2,1.3C9.2,10.1,9.8,9.8,10.4,9.6z M55.4,32.7c-3.2,2.8-6.8,4.7-10.5,5.8
	c-4,1.4-8.3,2-12.6,1.9l0,0c0,0,0,0-0.1,0c0,0,0,0-0.1,0l0,0c-4.2,0.3-8.4-0.5-12.6-1.9c-3.7-1.3-7.3-3.2-10.5-5.8
	c-2.6-2.3-5.4-5.5-6.8-9.6c1,1.5,2.5,2.9,4,3.9c6,4.5,14.2,6,21.9,6.7c1.4,0.1,2.8,0.1,4.2,0c1.4,0.1,2.8,0.1,4.2,0
	c7.8-0.6,15.9-2.1,21.9-6.7c1.4-1,2.8-2.3,3.8-3.7C60.7,27.3,58.1,30.5,55.4,32.7z M63,21.3c-1.1,3.2-4.3,5.7-7.4,7.3
	c-3.2,1.8-6.8,3-10.5,3.8c-4,0.9-8.3,1.4-12.6,1.3l0,0c0,0,0,0-0.1,0c0,0,0,0-0.1,0l0,0c-4.2,0.1-8.4-0.4-12.6-1.3
	c-3.7-0.8-7.3-2-10.5-3.8s-6.3-4.3-7.4-7.3c-0.3-0.8-0.4-1.4-0.4-2.1c0-0.3-0.1-0.5-0.1-0.8c0-1.1,0.3-2.3,0.9-3.3
	c0.5-0.8,1.1-1.4,1.9-2h0.1c0.3-0.3,0.5-0.5,0.9-0.6c0.3-0.1,0.5-0.3,0.6-0.4c0,0,0,0,0.1,0c0.6-0.5,1.4-0.9,2.1-1.3H8
	c0.1-0.1,0.4-0.1,0.5-0.3l0,0c0,0,0,0-0.1,0.1c-0.5,0.3-1,0.6-1.5,1c-0.1,0-0.1,0.1-0.3,0.1c-0.5,0.3-1,0.6-1.5,1
	c-0.3,0.1-0.5,0.3-0.6,0.4c-0.1,0.1-0.4,0.4-0.5,0.5c-0.1,0.1-0.1,0.3-0.3,0.4c-0.3,0.3-0.5,0.5-0.6,0.8c-0.5,0.5-0.9,1.3-0.9,2
	c-0.1,0.4-0.3,0.6-0.3,1c-0.1,0.6-0.1,1.4,0.1,2c0.1,1.9,1.1,3.5,2.4,4.9c0,0,0,0,0,0.1c0,0,0,0,0.1,0c0.8,0.8,1.6,1.5,2.5,2.3
	c5.8,4.4,13.7,5.8,21.3,6.4c1.4,0.1,2.6,0.1,4,0c1.4,0.1,2.6,0.1,4,0c7.6-0.6,15.5-2,21.3-6.4c2.5-1.9,4.9-4.3,5-7.3
	c0.3-0.6,0.1-1.5,0.1-2c0-0.4-0.1-0.6-0.3-1c-0.1-0.8-0.5-1.4-0.9-2c-0.1-0.3-0.4-0.5-0.6-0.8c-0.1-0.1-0.1-0.3-0.3-0.4
	c-0.1-0.1-0.4-0.4-0.5-0.5c-0.3-0.1-0.5-0.3-0.6-0.4c-0.4-0.4-1-0.8-1.5-1c-0.1,0-0.3,0-0.3-0.1c-0.5-0.4-1-0.6-1.5-1l0,0
	c0.1,0,0.3,0.1,0.4,0.1H57c0.8,0.4,1.4,0.9,2.1,1.3c0,0,0,0,0.1,0c0.3,0.1,0.5,0.3,0.6,0.4c0.4,0.1,0.6,0.4,0.9,0.6c0,0,0,0,0.1,0
	c0.8,0.6,1.4,1.3,1.9,2c0.6,1,0.9,2.1,0.9,3.3c0,0.3,0,0.5-0.1,0.8C63.2,19.9,63.2,20.5,63,21.3z M19.5,28.1c-2.1-0.6-4-1.3-5-3.2
	c-0.6-1.1-0.6-2.5-0.4-3.7c0.1-0.9,0.6-1.9,1.5-2.5l0,0c-0.9,0.5-1.1,1.5-1.5,2.3c-0.5,1.1-0.1,2.9,0.3,4C15,27,17.2,28,19.5,28.1
	C19.5,28.2,19.5,28.2,19.5,28.1z M50,20c0.6,0.8,1.1,1.6,1,2.6c0,1-0.9,2-1.6,2.8c0,0,0,0.1,0,0c1-0.6,1.6-1.6,1.8-2.8
	C51.4,21.7,50.6,20.8,50,20C50,20,49.9,20,50,20z M26.4,21.8c0.1,0,0.1,0,0.3,0c0.1,0,0.3-0.1,0.4-0.3v-0.1c0-0.1,0-0.1-0.1-0.3
	c-0.1-0.1-0.4-0.3-0.6-0.1l0,0l0,0c0,0,0-0.1-0.1,0l0,0l0,0c-0.1,0.1-0.3,0.4-0.3,0.6C26,21.7,26.2,21.8,26.4,21.8z M26.3,21
	L26.3,21L26.3,21C26.4,21,26.4,21,26.3,21c0.1,0,0.1,0,0.3,0l0,0c0.1,0,0.1,0.1,0.1,0.1c0,0.1,0,0.1,0,0.1l0,0c0,0-0.1,0-0.1,0.1
	c-0.1,0-0.3-0.1-0.3-0.3C26.3,21.2,26.3,21.2,26.3,21z M27.6,23.3L27.6,23.3L27.6,23.3C27.4,23.3,27.4,23.3,27.6,23.3
	C27.4,23.3,27.4,23.3,27.6,23.3c-0.1,0.1-0.1,0.1,0,0.3l0,0h0.1c0.1,0,0.1,0,0.3-0.1c0.1-0.1,0.1-0.3,0.1-0.4l0,0l0,0
	c0-0.1-0.1-0.1-0.1-0.1c-0.1,0-0.3,0-0.4,0.1c0,0-0.1,0-0.1,0.1v0.1C27.4,23.3,27.4,23.3,27.6,23.3z M21.1,18.9
	c0.1,0.3,0.4,0.4,0.6,0.4c0.4,0,0.9-0.1,1.1-0.4c0.4,0.8,1.1,1.3,2.1,1.3l0,0l0,0c0.9,0,1.6-0.5,2-1.1c0.1-0.1,0.1-0.4,0.1-0.5
	c0-0.3,0-0.4-0.1-0.5c-0.4-0.6-1-0.9-1.8-1.1c0.3-0.3,0.4-0.6,0.4-1c0-0.4-0.1-0.6-0.6-0.8c-0.9-0.3-1.8,0-2.5,0.5
	c-0.4,0.3-0.8,0.5-1,0.9C21.1,16.9,20.4,18.3,21.1,18.9C21,18.9,21.1,18.9,21.1,18.9z M22.5,18.8C22.5,18.8,22.4,18.8,22.5,18.8
	l0.1-0.1l0,0C22.6,18.6,22.5,18.8,22.5,18.8z M25,19.8c-1,0-1.6-0.6-2-1.4c0-0.1-0.1-0.1-0.3,0h-0.1l0,0l0,0
	c0.3-0.3,0.4-0.4,0.8-0.5l0,0c0.1,0.6,0.5,1.1,1.1,1.4c0.3,0.1,0.5,0.1,0.9,0.1c0.1,0,0.3,0,0.4,0C25.5,19.8,25.3,19.8,25,19.8z
	 M21.4,17.1c0.4-0.9,1.4-1.5,2.4-1.8c0.3-0.1,0.5-0.1,0.8-0.1c0.3,0,0.5,0,0.8,0.1c0.6,0.4,0.1,1-0.3,1.4c-0.1,0-0.1,0.1,0,0.3
	c0.4,0.1,0.9,0.3,1.3,0.5c0.8,0.4,1,1.3,0.3,1.6l0,0c-1.1,0.6-2.4-0.1-2.8-1.1l0,0c0,0,0,0,0-0.1c0-0.1,0-0.1-0.1-0.1
	c-0.3,0-0.4,0.1-0.5,0.1c-0.3,0.1-0.4,0.4-0.6,0.5c-0.5-0.1-0.6-0.4-0.6-0.6c0-0.4,0.3-0.8,0.5-1.1c0.5-0.8,1.4-0.8,2.3-1
	c0,0,0,0,0-0.1v-0.1c-0.5-0.1-1.1,0-1.6,0.4c-0.5,0.4-1,0.8-1.1,1.3c-0.4,0.6-0.1,1.4,0.6,1.5l0,0c-0.4,0.3-1,0.3-1.1-0.3
	c0-0.1,0-0.1,0-0.3C21,17.8,21.3,17.4,21.4,17.1z M36,24.2L36,24.2L36,24.2c0.3,0,0.5-0.1,0.5-0.3c0,0,0.1-0.1,0-0.3
	c0-0.1,0-0.1-0.1-0.1l0,0l0,0l0,0l0,0l0,0c0,0.1,0,0.1,0,0.1h-0.1c0,0,0-0.1,0.1-0.1c0,0,0,0,0-0.1c0-0.1-0.1-0.3-0.3-0.1l0,0l0,0
	c-0.3,0.1-0.3,0.4-0.3,0.5C35.8,24.2,35.9,24.2,36,24.2z M34.5,20.9c0,0.1,0,0.1,0,0.1s0,0.1,0.1,0.1h0.1c0.3,0,0.4-0.1,0.5-0.3
	c0-0.1,0.1-0.1,0-0.3c0-0.1,0-0.4-0.3-0.4c-0.3-0.1-0.4-0.1-0.6,0c0,0-0.1,0-0.1,0.1c-0.1,0.1-0.1,0.3,0,0.3
	C34.4,20.8,34.4,20.8,34.5,20.9z M34.7,20.5L34.7,20.5c0.1,0,0.1,0.1,0.1,0.3l0,0l0,0C34.9,20.8,34.7,20.7,34.7,20.5
	C34.7,20.7,34.7,20.7,34.7,20.5L34.7,20.5L34.7,20.5z M34.9,24.8L34.9,24.8L34.9,24.8c0.3,0,0.4-0.1,0.5-0.3c0-0.1,0.1-0.1,0.1-0.3
	v-0.1c0-0.1,0-0.1-0.1-0.1c-0.1,0-0.3,0-0.4,0s-0.1,0.1-0.3,0.3c0,0.1,0,0.1,0.1,0.1H35l0.1-0.1c0,0.1,0,0.3-0.1,0.4l0,0
	c-0.1,0-0.3,0-0.3-0.1h-0.1c0,0-0.1,0-0.1,0.1C34.6,24.7,34.6,24.8,34.9,24.8z M41.2,14.6c-0.4,0.3-0.6,0.5-0.6,1
	c0,0.1,0,0.1,0.1,0.1c0.1,1,1.1,1.6,2.1,1.9c0.1,0,0.4,0,0.5,0c0.9,0,1.5-0.6,1.5-1.5V16C44.7,14.7,42.3,13.8,41.2,14.6z M44.1,17.2
	c-0.4,0.3-1,0.3-1.5,0.1c-0.8-0.3-1.5-0.9-1.6-1.6c0.4-0.5,0.8-0.9,1.4-0.9c0.1,0,0.3,0,0.4,0c0.9,0.1,1.6,0.8,1.8,1.5
	C44.4,16.7,44.3,17,44.1,17.2z M40.5,18.8c0.5,0.1,1.1,0.1,1.6,0.4c0.6,0.3,0.6,0.9,0.8,1.4h0.1h0.1c0-0.1,0-0.1,0-0.3
	c0-0.5-0.3-1-0.6-1.3c-0.5-0.3-1.3-0.3-1.9-0.4C40.5,18.6,40.5,18.6,40.5,18.8C40.5,18.8,40.5,18.6,40.5,18.8
	C40.5,18.6,40.5,18.8,40.5,18.8z M35,22.9c0.9-0.3,1.6-1.1,1.5-2c0-0.5-0.3-0.9-0.6-1.3c-0.8-0.5-2.5-0.6-3.4,0l0,0v-0.1
	c0-0.4,0.4-0.9,0.9-1.3h0.1h0.1c0.3-0.1,0.5-0.3,0.6-0.5c0.3,0.1,0.8,0.3,0.8,0.4l0,0c0,0,0,0-0.1,0l0,0c-0.1,0-0.1,0.1-0.1,0.1
	c0.1,0.3,0.3,0.4,0.5,0.5c0,0.1,0.1,0.3,0.1,0.1c0,0,0,0,0.1,0c0.3,0.1,0.4,0.1,0.6,0.1l0,0l0,0c0.1,0,0.3-0.1,0.1-0.1v-0.1l0,0
	c0.1,0,0.3,0,0.4,0h0.1c0.3,0,0.5-0.3,0.5-0.4l0,0l0,0c0-0.6-0.9-0.6-1.4-0.8l0,0c0-0.1,0.1-0.1,0.1-0.1c0.1-0.1,0.3-0.1,0.4-0.1
	c0,0,0,0,0.1,0c0.3,0,0.5,0.3,0.6,0.4c0.3,0.1,0.4,0.3,0.6,0.3h0.1c0.1,0,0.4-0.3,0.4-0.4l0,0l0,0c0-0.3-0.3-0.4-0.4-0.6
	c0.4,0.3,0.9,0.4,1.3,0.4l0,0l0,0c0.1,0,0.1,0,0.1-0.1c0,0,0,0,0-0.1c-0.1-0.1-0.5-0.4-0.5-0.6v-0.1c0.1-0.3,0.6-0.4,0.9-0.5
	c0,0,0.1-0.1,0-0.1c0,0,0,0,0-0.1c-0.5-0.4-1-0.6-1.6-0.8c0.4-0.3,0.9-0.3,1-0.6l0,0l0,0c0,0,0-0.1-0.1-0.1s-0.3,0.1-0.5,0.1
	c-0.4,0-0.1-0.1-0.4-0.3c-0.4-0.1-0.8,0.1-1.1,0.3c0-0.1-0.1-0.1-0.3,0l0,0c-0.1-0.1-0.1-0.3-0.3-0.4c0-0.1-0.1-0.1-0.1,0l0,0l0,0
	l0,0l0,0c-0.1,0.1-0.1,0.1-0.1,0.3c0,0.1-0.1,0.1-0.1,0.1h-0.1c0-0.1,0-0.1,0-0.3l0,0c0-0.1,0-0.1-0.1-0.1l0,0l0,0L35.6,14
	c-0.3,0.1-0.4,0-0.4-0.1s0-0.3,0-0.4l0,0l0,0c0-0.1-0.1-0.1-0.3,0c0,0-0.1,0-0.1,0.1c-0.1,0.3-0.1,0.6-0.1,0.9
	c-0.3-0.1-0.5-0.4-0.6-0.6c0-0.1-0.3-0.1-0.3,0c-0.1,0-0.1,0.1-0.1,0.1c0.1,0.3,0.1,0.5,0.3,0.6c-0.1,0-0.3,0-0.3,0
	c-0.1,0-0.1,0-0.3,0c-0.1,0-0.1,0.1-0.1,0.1c0,0.1,0.1,0.3,0.3,0.4c0,0,0,0-0.1,0c-0.1,0-0.1,0-0.3,0.1C33,15.4,33,15.6,33,15.9
	c-0.1,0.4-0.1,0.9,0.1,1.3c-0.3,0.3-0.5,0.4-0.6,0.6c-0.5,0.4-1,1-0.6,1.6l-0.1,0.1l-0.1,0.1c0.1-0.1,0.1-0.4,0.1-0.5
	c0-0.4-0.1-0.6-0.3-1c0.1,0,0.1,0,0.1-0.1l0,0c-0.1-0.3-0.3-0.4-0.3-0.6c0-0.1,0-0.3,0.1-0.4c0.1-0.1,0.3-0.3,0.3-0.4l0,0l0,0
	c0-0.1,0-0.4-0.1-0.5c-0.1-0.3-0.1-0.4-0.3-0.6c-0.1-0.3-0.4-0.3-0.6-0.3c0,0-0.1,0-0.1-0.1c0-0.4,0.6-1.4,0.6-1.5c0,0,0,0,0-0.1
	c0-0.1-0.1-0.3-0.3-0.1l0,0c0,0,0,0-0.1,0c-0.1,0.1-0.4,0.3-0.5,0.5c-0.1,0-0.1,0.1-0.3,0c0-0.1,0-0.3,0.1-0.3l0,0l0,0
	c0-0.1-0.3-0.3-0.3-0.1c0,0-0.1,0-0.1,0.1s-0.1,0.3-0.1,0.5c0,0,0,0-0.1,0.1h-0.1c-0.4,0-0.5-0.5-0.5-0.6s-0.1-0.1-0.3-0.1l0,0l0,0
	c-0.1,0.1-0.3,0.3-0.4,0.3c-0.1,0.1-0.4,0.1-0.5,0c-0.1,0-0.1,0-0.3,0c-0.1,0-0.1,0.1-0.1,0.1c0.1,0.3,0.3,0.5,0.4,0.6
	c-0.4,0-0.9-0.3-1.1-0.3c-0.3,0-0.6,0-0.9,0.1c0,0-0.1,0-0.1,0.1v0.1l0,0c0,0-0.1,0-0.1,0.1c0,0.4,0.5,0.5,0.6,0.8
	c0.3,0.1,0.5,0.3,0.8,0.4c-0.1,0-0.4,0.1-0.5,0.3c-0.1,0.1-0.3,0.1-0.4,0.4c0,0.1,0,0.1,0.1,0.1h0.1c0.3,0,0.4,0,0.6-0.1
	c-0.1,0.3-0.3,0.4-0.3,0.6v0.1c0.3,0.1,0.5,0.4,0.9,0.5l0,0l0,0h0.1c0.1,0.1,0.4,0.3,0.5,0.4h0.1c0.1,0,0.4-0.1,0.5-0.3
	c0.1-0.1,0.3-0.3,0.3-0.5h0.1h0.1c0.3,0,0.5,0,0.5,0.3c0,0.1,0.1,0.1,0.1,0.1c0.1,0,0.1,0,0.1-0.1l0,0l0,0c0-0.1,0-0.1,0-0.3
	c0.5,0.9,1,1.9,0.5,2.9c0,0.1,0,0.1,0.1,0.1l0,0c-0.3,0.4-0.3,0.9-0.3,1.3c0.1,1,1.1,1.3,2,1.3C34,23,34.6,23,35,22.9z M33.7,16.4
	c0,0,0-0.1,0.1-0.3c0.1,0.1,0.1,0.3,0.1,0.3s0.1,0.1,0.1,0c0.1,0,0.1,0,0.1,0c0.1-0.1,0.1-0.3,0.1-0.4c0-0.3-0.1-0.4-0.1-0.6
	c0.1,0,0.1,0,0.3,0c0,0,0,0,0.1,0l0,0c0.1,0,0.3-0.1,0.1-0.1l0,0l0,0v-0.1c0.1,0,0.3,0.1,0.4,0.1l0,0l0,0c0,0,0.1,0,0.1-0.1
	s0-0.1,0-0.3h0.1h0.1l0,0c0,0.1,0,0.1,0.1,0.1l0,0l0,0c0.3,0,0.4-0.1,0.5-0.3c0,0.1,0.3,0.3,0.4,0.3s0.3,0,0.3-0.1
	c0.3,0,0.4-0.1,0.6-0.3c0.1-0.1,0.3-0.1,0.4-0.1s0.1,0,0.3,0.1c0,0,0,0,0.1,0.1c-0.1,0-0.3,0.1-0.3,0.1c-0.1,0-0.1,0.1-0.3,0.1
	c-0.1,0.1,0,0.1,0,0.3c0.6,0.1,1.1,0.4,1.8,0.6c-0.3,0.1-0.5,0.1-0.6,0.3c-0.1,0.1-0.3,0.3-0.4,0.4c-0.1,0.3,0.1,0.4,0.3,0.5
	c-0.4-0.1-0.8-0.3-1-0.5c0-0.1-0.1-0.1-0.3,0h-0.1c-0.1,0.3-0.1,0.4,0,0.6c0.1,0.1,0.4,0.4,0.3,0.5c-0.1,0-0.5-0.3-0.6-0.3
	c-0.6-0.4-1-0.5-1.6-0.1c0,0-0.1,0.1-0.3,0.1c-0.4,0.4,0.1,0.5,0.5,0.6c0.3,0,0.4,0.1,0.6,0.1c0.3,0,0.1,0.3-0.1,0.4
	c-0.3,0-0.4,0-0.6-0.1c-0.3-0.1-0.4,0-0.5,0l0,0c-0.1-0.1-0.1-0.1-0.3-0.3c0.1-0.1,0.3-0.1,0.3-0.3c0-0.3-0.8-0.6-1.1-0.8
	c0.4-0.3,0.8-0.5,1.1-0.8c0.5-0.4,1.3-0.9,2-0.9c0.1,0,0.3,0.1,0.4,0.1h0.1v-0.1c0-0.1-0.1-0.3-0.3-0.3c-0.5-0.1-1.1,0.1-1.5,0.4
	c-0.4,0.1-0.8,0.4-1,0.6c-0.4,0.3-0.6,0.4-1,0.6c-0.1,0.1-0.3,0.3-0.5,0.4c0-0.1-0.1-0.3-0.1-0.4C33.6,16.9,33.7,16.6,33.7,16.4z
	 M31.5,17.4c-0.1,0.1-0.1,0.1-0.1,0.3c0,0,0,0,0-0.1c-0.3-0.5-0.6-1-1.1-1.4c-0.6-0.4-1.3-0.5-2-0.8h-0.1c-0.1,0-0.1,0.1,0,0.1
	c1.1,0.4,2.1,0.8,2.8,1.6l0,0c-0.3-0.1-0.8,0.1-0.8-0.1c0,0,0-0.1,0-0.3l0,0c0-0.1-0.1-0.1-0.3-0.1h-0.1l0,0v0.1
	c-0.1,0.3-0.3,0.8-0.5,0.9c-0.1,0-0.1,0-0.3-0.1c-0.1-0.1-0.1-0.1-0.3-0.3c-0.1,0-0.1,0-0.1-0.1s0.1-0.3,0.1-0.4l0,0l0,0
	c0-0.1-0.1-0.1-0.1-0.1l0,0l0,0c-0.3,0.1-0.3,0.4-0.3,0.5c-0.1,0-0.3-0.1-0.5-0.1l-0.1-0.1c0-0.3,0.3-0.5,0.4-0.6c0,0,0,0,0-0.1l0,0
	c0.1,0,0.1,0,0.3,0.1h0.1c0.1,0,0.3-0.1,0.1-0.1V16c-0.4-0.3-0.8-0.5-1.1-0.6c-0.3-0.1-1-0.4-1-0.6l0,0c0.1,0,0.3,0,0.4,0
	c0.4,0,0.9,0.1,1.3,0.3c0.1,0,0.3,0,0.4,0c0.1,0,0.3,0,0.4-0.1v-0.1v-0.1c-0.1-0.1-0.3-0.3-0.4-0.4c0.3,0,0.4-0.1,0.6-0.3
	c0.1,0.3,0.4,0.6,0.8,0.6H30c0.1,0,0.4,0,0.4-0.1l0,0l0,0l0,0c0.1,0,0.3,0,0.4-0.1c-0.1,0.3-0.3,0.5-0.4,0.8
	c-0.1,0.5,0.1,0.6,0.6,0.6c0.3,0,0.1,0.3,0.3,0.4C31.3,16.7,31.7,16.9,31.5,17.4z M31.7,21.9c0-0.1,0-0.3,0-0.4
	c0-0.4,0.1-0.9,0.5-1.1c0.3-0.1,0.4-0.3,0.6-0.3H33h0.1l0,0l0,0c0.1,0,0.1,0,0.1-0.1v-0.1c0.1,0,0.3-0.1,0.5-0.1
	c0.1-0.1,0.4-0.1,0.6-0.1c0.3,0,0.6,0,0.9,0.1c0.6,0.3,0.9,0.9,0.9,1.5c0,0.5-0.4,0.8-0.8,1.1c-0.1,0.1-0.3,0.1-0.4,0.1
	C34.1,22.8,32.1,23,31.7,21.9z M27.9,22.2h0.1c0.1,0,0.3,0,0.3-0.1c0.1-0.1,0.1-0.1,0.1-0.3v-0.1c0-0.1-0.3-0.3-0.4-0.3h-0.1l0,0
	c0,0-0.1,0-0.1,0.1h-0.1c0,0-0.1,0-0.1,0.1C27.7,21.9,27.7,22,27.9,22.2z M28.1,21.8L28.1,21.8L28.1,21.8L28.1,21.8L28.1,21.8
	L28.1,21.8L28.1,21.8z M30.5,25.8c0-0.6,0.1-1.3,0.1-1.9c0-0.1,0-0.1,0-0.3c0,0,0-0.1-0.1-0.1C30.3,22.9,30,22,30,21.2
	c0-0.4,0.1-0.8,0.4-1.1v-0.1c0-0.1-0.1-0.1-0.1-0.1c-1.4,0-2.6,0.4-4,0.3c-0.4,0-1.1-0.1-1.5,0.1c-0.1,0-0.1,0.1-0.3,0.3
	c0,0,0,0,0,0.1l0,0l0,0c0,0,0,0-0.1,0c-0.3,0.5,0.1,1,0.4,1.5c0.4,0.8,0.8,1.6,1,2.4l0.1,0.1v0.1c0.1,0.5,0.5,0.9,0.5,1.4
	c0,0.1,0.1,0.1,0.3,0.1h0.1C27.9,25.8,29.2,25.9,30.5,25.8C30.3,25.9,30.5,25.9,30.5,25.8z M25.9,24.6
	C25.9,24.6,25.9,24.4,25.9,24.6c-0.3-0.8-0.5-1.5-0.9-2.1c-0.1-0.4-0.6-0.9-0.6-1.4c0-0.1,0-0.1,0-0.1l0,0l0,0l0,0h0.1
	c0.1-0.1,0.5-0.3,0.9-0.3c0.4,0,0.8,0,1,0c0.1,0,0.1,0,0.1,0c1-0.1,2-0.3,3-0.3c-0.6,1-0.1,2.4,0.3,3.4c-0.6,0.1-1.4,0.1-2,0.4
	C27.3,24.2,26.7,24.6,25.9,24.6L25.9,24.6z M30.1,24.9c0,0.3,0,0.4,0,0.6l0,0c-0.1,0-0.6,0-0.8,0c-1,0-1.9,0-2.9,0.4
	c-0.1-0.4-0.3-0.8-0.4-1.1c0.6-0.1,1.1-0.3,1.8-0.5c0.8-0.3,1.6-0.4,2.4-0.5C30.2,24.3,30.2,24.6,30.1,24.9z M39.2,25.4L39.2,25.4
	c0.1,0,0.1-0.1,0.1-0.1v-0.1c-0.1-0.1-0.3-0.1-0.3-0.3c0,0,0-0.1-0.1-0.1l0,0c-0.9-0.8-1.6-1.6-2-2.6c0-0.1-0.1-0.1-0.3,0h-0.1
	c-0.3,0.1-1,0.5-1.3,0.8c-0.1,0-0.1,0.1-0.3,0.1c-0.5,0.4-0.9,0.8-1.4,1.1c-0.1,0.1-0.3,0.1-0.4,0.3h-0.1H33c0,0-0.1,0-0.1,0.1
	c0,0.3,0.1,0.5,0.1,0.9c0,0.5-0.3,0.9-0.1,1.5c0,0.1,0.1,0.1,0.1,0.1c0.5,0,1.1,0.3,1.6,0.3c0,0,0.1,0,0.3,0c0.5,0,1-0.1,1.4-0.1
	c1-0.1,1.9-1,2.8-1.3C39.2,25.6,39.2,25.6,39.2,25.4z M36.5,22.5c0.4,0.8,1,1.6,1.8,2.3c-0.9,0-1.6,0.3-2.4,0.5
	c-0.5,0.1-1,0.5-1.5,0c-0.3-0.3-0.5-0.6-0.9-0.9l0,0C34.6,23.9,35.4,22.9,36.5,22.5z M38.8,25.3L38.8,25.3c-0.1,0.1-0.1,0.1-0.1,0.1
	c-0.4,0.1-0.6,0.3-1,0.5c-0.8,0.4-1.4,0.6-2.3,0.8c-0.4,0-2,0.1-2-0.4c0-0.4,0.1-0.6,0.1-1v-0.1v-0.1c0.4,0.5,0.8,0.9,1.4,0.9l0,0
	l0,0c0.5,0,1.1-0.4,1.6-0.5C37.3,25.3,37.9,25.2,38.8,25.3C38.8,25.2,38.8,25.2,38.8,25.3L38.8,25.3z M26.9,22.4
	c-0.3-0.1-0.5-0.1-0.6,0c0,0-0.1,0-0.1,0.1H26c0,0-0.1,0-0.1,0.1c0,0.3,0.1,0.4,0.4,0.4c0,0,0,0,0.1,0c0.3,0,0.4-0.3,0.5-0.4
	C26.9,22.5,26.9,22.5,26.9,22.4C26.9,22.5,26.9,22.5,26.9,22.4C26.9,22.5,26.9,22.4,26.9,22.4z M26.6,22.8L26.6,22.8
	c-0.1,0-0.3,0-0.3-0.1c0.1,0,0.3-0.1,0.4-0.1c0,0,0,0,0.1,0C26.7,22.7,26.6,22.7,26.6,22.8z M43.7,18.6c-1-0.9-2.5-1.1-3.8-1
	c-0.5,0-0.9,0.1-1.3,0.4c-0.1,0.1-0.4,0.3-0.5,0.4c-0.4,0.5,0.6,1,0.8,1.6H39h0.1c0-0.1,0-0.1,0-0.3c0-0.3-0.1-0.4-0.3-0.6
	c-0.1-0.1-0.3-0.3-0.4-0.4l-0.1-0.1c0-0.3,0.6-0.5,0.9-0.6c0.4-0.1,0.9-0.1,1.3-0.1c0.6,0,1.1,0.1,1.6,0.3c1.1,0.4,1.8,1.1,1.8,2.1
	c0,0.4-0.3,0.6-0.5,0.8c-0.5,0.3-1,0.1-1-0.5c0,0,0-0.1,0-0.3l0,0l0,0c0-0.1,0-0.1-0.1-0.1S42.1,20,41.8,20h-0.1l0,0c0,0,0,0-0.1,0
	c-0.1,0.1-0.1,0.1-0.1,0.4l0,0c-0.1,0-0.1,0.1-0.3,0.1c-0.6,0.4-1.1,1-1.8,1.4c-0.1,0-0.3,0.1-0.4,0.1c-0.4,0.1-0.9,0.1-1.3,0
	c-0.1,0.1-0.3,0.1-0.4,0c0,0,0,0-0.1,0c0,0,0-0.1-0.1-0.1v-0.1c0-0.5,1-1.3,1.4-1.5c0,0,0,0,0-0.1c0,0,0-0.1-0.1-0.1
	c-0.1,0-0.1,0.1-0.3,0.1c-1,0.6-2,1.8-0.6,2.4c0.3,0.3,0.5,0.4,1,0.4c0.1,0,0.4,0,0.5,0c0.8-0.1,1.9-0.6,2.5-1.3
	c0.1,0.3,0.5,0.3,0.9,0.3s0.9-0.1,1.1-0.3c0.6-0.3,0.9-0.9,0.9-1.5c0-0.4-0.1-0.8-0.4-1C43.9,19,43.8,18.9,43.7,18.6z M41.8,21.4
	C41.8,21.4,41.8,21.3,41.8,21.4C41.8,21.3,41.8,21.3,41.8,21.4C41.8,21.3,41.8,21.3,41.8,21.4c0-0.1-0.1-0.3-0.3-0.1h-0.1
	c-0.1,0.3-0.4,0.5-0.6,0.6c-0.5,0.3-1.1,0.5-1.5,0.6c-0.1,0-0.1,0-0.3,0.1c0.9-0.4,1.6-1.3,2.3-1.8v-0.1l0,0l0,0l0.1-0.1h0.1
	c0,0.6,0.4,1.1,0.9,1.1C42.3,21.8,41.8,21.8,41.8,21.4z M21,20.5L21,20.5c-0.3,0.1-0.3,0.3-0.3,0.4c0,0,0,0.1,0.1,0.1l0,0l0,0
	c0,0.1,0,0.3-0.1,0.3c0,0-0.1,0-0.1,0.1v-0.1c0,0,0,0,0-0.1c0-0.1-0.1-0.1-0.1-0.1l0,0l0,0c-0.1,0.1-0.1,0.3-0.1,0.4
	c0,0,0,0.1,0.1,0.1l0,0l0,0c0.4,0,0.8-0.3,0.8-0.6c0-0.1,0-0.3-0.1-0.4C21.1,20.5,21.1,20.5,21,20.5z M43.9,26.3
	c-1.9,0.9-3.5,1.9-5.7,2.3l0,0l0,0v0.1l0,0l0,0C40.4,28.3,42.4,27.6,43.9,26.3C44.1,26.4,44.1,26.4,43.9,26.3
	C44.1,26.3,44.1,26.3,43.9,26.3z M36.1,24.4c-0.1,0-0.1,0.1-0.1,0.1l0,0c0,0-0.1,0-0.1,0.1c0,0.1,0,0.1,0,0.3c0,0,0,0.1,0.1,0.1
	c0,0,0,0,0.1,0l0,0c0.3,0,0.5,0,0.5-0.3v-0.1c0-0.1-0.3-0.3-0.4-0.3H36.1z M36.4,24.8L36.4,24.8L36.4,24.8L36.4,24.8L36.4,24.8
	L36.4,24.8L36.4,24.8L36.4,24.8C36.3,24.8,36.3,24.8,36.4,24.8C36.3,24.8,36.3,24.7,36.4,24.8C36.3,24.7,36.3,24.7,36.4,24.8
	L36.4,24.8z M22.1,19.9c-0.5-0.1-1.3,0-1.8,0.4c-0.6,0.4-0.9,0.9-0.5,1.5c0,0,0.1,0.1,0.1,0h0.1c0.3,0.9,1.4,1.4,2.4,1.4
	c0.8,0,1.4-0.4,1.4-1.1c0,0,0-0.1,0-0.3C23.7,21,23,20,22.1,19.9z M23,22.8c-0.1,0.1-0.4,0.1-0.6,0.1c-1,0-2.1-0.6-2.1-1.6
	c0-0.1,0-0.3,0-0.3l0,0l0,0c0-0.1-0.1-0.1-0.1,0l0,0l0,0c0.1-0.3,0.4-0.5,0.8-0.6c0.3-0.1,0.4-0.1,0.6-0.1c0.3,0,0.4,0,0.6,0.1
	c0.6,0.3,1.1,0.9,1.3,1.5C23.4,22.2,23.3,22.5,23,22.8z M42.1,15.2C41.9,15.2,41.9,15.2,42.1,15.2c-0.1,0-0.1,0-0.3,0
	c0,0-0.1,0-0.1,0.1c-0.3,0.1-0.3,0.4-0.3,0.5s0.1,0.1,0.1,0.1l0,0c0,0,0,0,0.1,0c0.3,0,0.4-0.1,0.5-0.3c0-0.1,0.1-0.1,0.1-0.3
	c0-0.1,0-0.1-0.1-0.3C42.2,15.1,42.1,15.1,42.1,15.2z M41.9,15.6L41.9,15.6c-0.1,0-0.1,0.1-0.1,0.1l0,0
	C41.8,15.6,41.8,15.5,41.9,15.6c0-0.1,0-0.1,0-0.1C41.9,15.5,41.9,15.5,41.9,15.6z M8.4,21.2c-0.1,0-0.3,0-0.4,0c0,0,0,0,0,0.1
	c0.1,0.1,0.3,0,0.3,0.1S8.2,21.7,8,21.7c-0.1,0.1-0.3-0.1-0.3-0.3s-0.1-0.1-0.1,0s0,0.4,0.3,0.4c0.1,0,0.3,0,0.4-0.1
	s0.3-0.3,0.3-0.4S8.5,21.2,8.4,21.2z M12.4,18.4c-0.1,0-0.1,0-0.3,0.1l0,0v0.1l0,0c-0.1-0.1-0.3,0-0.1,0.1c0.1,0.1,0.3,0.1,0.4,0.1
	s0.3-0.1,0.3-0.3C12.6,18.4,12.6,18.4,12.4,18.4z M11.1,22.9c-0.1,0.1-0.1,0.3,0,0.3c-0.1,0-0.1,0-0.3,0l0,0
	c0.1-0.1-0.1-0.3-0.1-0.1c-0.1,0.1-0.1,0.1-0.1,0.3c0,0.1,0.1,0.1,0.3,0.1c0.1,0,0.4,0,0.5,0c0.1-0.1,0.1-0.3,0.1-0.4
	C11.4,22.8,11.2,22.8,11.1,22.9z M45.7,27.6l-0.1,0.1h0.1l0,0l0,0l0,0l0,0l0,0l0,0l0,0l0,0l0,0l0,0l0,0l0,0l0,0l0,0c0,0,0,0,0,0.1
	l0,0l0,0l0,0l0,0l0,0l0,0l0,0l0,0c0,0,0-0.1-0.1-0.1c0,0-0.1-0.1-0.1,0c-0.1,0-0.1,0.1-0.1,0.1c0,0.1,0.1,0.4,0.4,0.4
	c0.1,0,0.3-0.1,0.3-0.3c0-0.1,0.1-0.3,0-0.4C46.1,27.6,45.8,27.6,45.7,27.6z M47.8,26.1C47.8,26.1,47.7,26.1,47.8,26.1
	c-0.1,0-0.1,0-0.1,0l-0.1,0.1l0,0l0,0l0,0l0,0c0-0.1-0.1-0.1-0.3,0c0,0.1,0,0.3,0.1,0.3s0.4-0.1,0.5-0.1c0,0,0.1-0.1,0-0.1
	C48,26.2,48,26.1,47.8,26.1z M48.5,28.1c-0.1,0-0.1,0.1-0.1,0.1s0,0,0,0.1h-0.1c-0.1,0,0,0.3,0.1,0.1c0.1,0,0.1,0,0.3-0.1
	c0.1,0,0.1-0.1,0.1-0.3C48.6,28.1,48.6,28.1,48.5,28.1z M52,17.9c0-0.1,0-0.3,0-0.4s0-0.3-0.1-0.3h-0.1c0,0.1,0,0.1,0,0.3
	c0,0.1,0,0.1,0,0.3c0,0,0,0-0.1,0c0,0-0.1,0,0,0c-0.1-0.1-0.3,0-0.1,0.1C51.6,18,51.8,18,52,17.9C52,18,52,17.9,52,17.9z M55.2,19.5
	C55.2,19.5,55,19.5,55.2,19.5c-0.3,0.3,0,0.4,0.1,0.3c0,0,0,0,0.1-0.1c0.1,0,0.1-0.1,0-0.3C55.3,19.4,55.2,19.4,55.2,19.5z
	 M52.6,19.5L52.6,19.5c-0.1,0.1,0,0.1,0,0.3c0,0.1,0,0.1-0.1,0.3c-0.1,0.1-0.4,0.1-0.6,0.1V20c0-0.1-0.1-0.1-0.1,0
	c0,0.1,0,0.1,0,0.3v0.1c0.3,0.1,0.5,0,0.8-0.1C52.6,20,52.9,19.6,52.6,19.5z M28.2,28.3c0,0.1-0.1,0.4-0.3,0.4h-0.1
	c0,0,0-0.1,0.1-0.3c0-0.1-0.1-0.1-0.1-0.1c-0.1,0.1-0.1,0.3-0.1,0.4s0.1,0.1,0.3,0.1c0.4,0,0.5-0.4,0.5-0.6
	C28.4,28.3,28.2,28.3,28.2,28.3z M30.5,27.7h-0.1v-0.1c0,0-0.1-0.1-0.1,0c0,0.1,0,0.1,0.1,0.1C30.2,27.8,30.3,27.8,30.5,27.7
	C30.5,27.8,30.5,27.7,30.5,27.7z M30.7,27.3h-0.1c0,0-0.1,0.1,0,0.1C30.6,27.5,30.6,27.5,30.7,27.3c-0.1,0.1,0,0.1,0,0.1
	C30.7,27.6,30.8,27.6,30.7,27.3C30.8,27.5,30.8,27.3,30.7,27.3z M30.1,29.7c-0.1,0-0.4,0-0.4,0.1c0,0.1,0.1,0.1,0.3,0l0,0
	c0,0.1-0.3,0.3-0.4,0.3V30c0-0.1-0.1-0.1-0.1,0v0.3c0,0,0,0.1,0.1,0.1C30,30.4,30.2,30.1,30.1,29.7C30.2,29.8,30.2,29.8,30.1,29.7z
	 M20.1,28.7c-0.1,0.3-0.3,0.5-0.6,0.5c-0.1,0-0.1,0-0.3-0.1c0,0,0-0.1,0.1-0.3c0.1-0.1,0-0.1-0.1-0.1C19.1,28.8,19,29,19,29.1
	s0.3,0.3,0.4,0.3C19.9,29.3,20.3,29.1,20.1,28.7C20.1,28.6,20.1,28.6,20.1,28.7z M19.5,14.6c0.1,0,0.3,0,0.4-0.1
	c0.1-0.1,0.3-0.3,0.3-0.4c0-0.3-0.4-0.3-0.5-0.1v0.1c0,0,0.1,0,0.3,0H20c0,0.1-0.1,0.3-0.1,0.3c-0.1,0.1-0.3-0.1-0.3-0.3
	s-0.3-0.1-0.1,0C19.2,14.4,19.4,14.6,19.5,14.6z"/>
<path class="st0" d="M63.9,17.5c0-0.4-0.1-0.8-0.3-1c-0.1-0.8-0.5-1.5-1-2c-0.1-0.3-0.4-0.5-0.6-0.8c-0.1-0.1-0.1-0.3-0.3-0.4
	c-0.1-0.1-0.4-0.4-0.5-0.5c-0.3-0.1-0.5-0.3-0.8-0.4c-0.5-0.4-1-0.8-1.5-1c-0.1,0-0.3,0-0.3-0.1c-0.5-0.4-1-0.6-1.5-1
	c0,0-0.1,0-0.1-0.1l0,0c-1.3-0.5-2.5-0.9-3.7-1.5c-0.4-0.1-0.8-0.3-1.3-0.4c-0.3,0-0.5-0.1-0.8-0.3c-2.9-1-6-1.5-9.1-1.9l0,0
	c-1-0.1-2-0.3-2.9-0.3c0.4,0,0.6,0,1,0c-0.8-0.1-1.4-0.1-2.1-0.3c-0.4,0-0.6,0-1,0c-0.4,0-0.6,0-1-0.1h-0.1c-0.1,0-0.4,0-0.5,0
	c-0.1,0-0.3,0-0.4,0.1c-0.5,0-1.1,0-1.6,0c-0.3,0-0.6,0-0.9,0h-0.1c-0.1,0-0.1,0-0.3,0c-0.4,0-0.6,0-1,0c-0.5,0-1,0-1.6,0
	c-0.1,0-0.3,0-0.4-0.1c-0.1,0-0.4,0-0.5,0h-0.1c-0.4,0-0.6,0-1,0.1c-0.4,0-0.6,0-1,0c-0.8,0.1-1.4,0.1-2.1,0.3c0.4,0,0.6,0,1,0
	c-1,0.1-2,0.1-2.9,0.3l0,0c-3,0.4-6.2,0.9-9.1,1.9c-0.3,0.1-0.5,0.1-0.8,0.3c-0.4,0.1-0.8,0.3-1.3,0.4c-1.1,0.6-2.4,1.1-3.7,1.5l0,0
	c0,0,0,0-0.1,0.1c-0.5,0.3-1,0.6-1.5,1c-0.1,0-0.1,0.1-0.3,0.1c-0.5,0.3-1.1,0.6-1.5,1c-0.3,0.1-0.5,0.3-0.8,0.4
	c-0.1,0.1-0.4,0.4-0.5,0.5c-0.1,0.1-0.1,0.3-0.3,0.4c-0.3,0.3-0.5,0.5-0.6,0.8c-0.5,0.6-0.9,1.3-1,2c-0.3,0.3-0.4,0.6-0.4,1
	c-0.1,0.6-0.3,1.5,0.1,2.1c0,0.4,0.1,0.8,0.1,1.1l0,0c0.6,3.9,2.9,7.2,5,9.8c6,6.9,14.2,9.3,21.9,10.3c1.4,0.1,2.8,0.3,4.2,0.1
	c1.4,0.3,2.8,0.1,4.2,0c7.8-1,15.9-3.3,21.9-10.3c1.9-2.3,3.8-4.9,4.7-8.2l0,0c0,0,0,0-0.1,0c0.4-0.9,0.8-1.8,0.8-2.6
	C64.1,19,64,18.1,63.9,17.5z M54.4,9.6c0.4,0.1,0.8,0.4,1.3,0.5c-0.8-0.3-1.4-0.5-2-0.9C53.8,9.3,54,9.4,54.4,9.6z M39.2,6.2
	c1,0.1,1.9,0.1,2.9,0.3l0,0C41,6.4,40,6.3,39.2,6.2L39.2,6.2z M34.5,6L34.5,6h-0.1H34.5z M30.3,6c0.6,0,1.3,0,1.9,0h0.1
	c0,0,0,0,0.1,0c0.6,0,1.1,0,1.8,0c-0.3,0-0.5,0-0.8,0s-0.6,0-0.9,0h-0.1c-0.1,0-0.1,0-0.3,0c-0.3,0-0.6,0-0.9,0C31,6,30.6,6,30.3,6
	C30.2,6,30.3,6,30.3,6z M25.7,6.3h0.1c-1,0.1-1.9,0.1-2.9,0.3l0,0C23.8,6.4,24.8,6.3,25.7,6.3z M16.7,7.5
	C16.8,7.5,16.8,7.5,16.7,7.5C16.8,7.5,16.8,7.5,16.7,7.5L16.7,7.5z M15.5,7.8c0.1,0,0.1,0,0.3,0C15.6,7.8,15.5,7.8,15.5,7.8
	C15.3,7.9,15.5,7.8,15.5,7.8z M13.6,8.8c0.5-0.1,1.1-0.3,1.6-0.4c0,0,0.1,0,0.1-0.1C15.6,8.2,15.7,8.2,16,8c0.4-0.1,0.8-0.1,1.1-0.3
	h0.1c1.4-0.3,2.8-0.5,4-0.8c1.9-0.3,3.9-0.5,5.9-0.6l0,0c1,0,2.1-0.1,3.2-0.1c0.6,0,1.3,0,1.9,0h0.1c0,0,0,0,0.1,0
	c0.6,0,1.3,0,1.9,0c1,0,2.1,0.1,3.2,0.1l0,0c2,0.1,3.9,0.4,5.9,0.6c1.4,0.3,2.8,0.4,4,0.8c0,0,0,0,0.1,0C48,7.9,48.4,7.9,48.7,8
	c0.3,0.1,0.4,0.1,0.6,0.3c0,0,0,0.1,0.1,0.1c0.6,0.1,1.1,0.3,1.6,0.4c0.8,0.3,1.6,0.6,2.4,0.9c0.8,0.4,1.5,0.6,2.4,0.9
	c0,0,0,0,0.1,0c0.6,0.4,1.4,0.8,2,1.3c0,0,0,0,0.1,0c0.3,0.1,0.5,0.3,0.6,0.4c0.4,0.1,0.6,0.4,0.9,0.6c0,0,0,0,0.1,0
	c0.8,0.5,1.4,1.1,1.8,1.9c0.6,1,0.9,2.1,0.9,3.2c0,0.3,0,0.5-0.1,0.8c0,0.6,0,1.4-0.3,2c-0.5,1.4-1.4,2.6-2.5,3.7
	c0.3-0.6,0.1-1.5,0.1-2.1c0-0.4-0.1-0.8-0.3-1c-0.1-0.8-0.5-1.5-0.9-2c-0.1-0.3-0.4-0.5-0.6-0.8c0,0.3-0.1,0.1-0.1,0
	c-0.1-0.1-0.4-0.4-0.5-0.5c-0.3-0.1-0.4-0.3-0.6-0.4c-0.4-0.4-0.9-0.8-1.4-1c-0.1,0-0.1,0-0.3-0.1c-0.4-0.4-0.9-0.6-1.4-1
	c0,0,0,0-0.1-0.1l0,0c-1.1-0.5-2.3-0.9-3.3-1.5c-0.4-0.1-0.8-0.3-1-0.4c-0.3,0-0.4-0.1-0.6-0.3c-2.5-1-5.3-1.5-7.9-1.9l0,0
	c-0.9-0.1-1.8-0.3-2.6-0.3c0.3,0,0.6,0,0.9,0c-0.6-0.1-1.3-0.1-1.9-0.3c-0.3,0-0.6,0-0.9,0c-0.3,0-0.6,0-0.9-0.1h-0.1
	c-0.1,0-0.3,0-0.5,0c-0.1,0-0.3,0-0.4,0.1c-0.5,0-1,0-1.4,0c-0.3,0-0.5,0-0.8,0H32h-0.1c-0.3,0-0.5,0-0.9,0c-0.5,0-0.9,0-1.4,0
	c-0.1,0-0.3,0-0.4-0.1c-0.1,0-0.3,0-0.5,0h-0.1c-0.3,0-0.6,0-0.9,0.1c-0.3,0-0.6,0-0.9,0c-0.6,0.1-1.3,0.1-1.9,0.3
	c0.3,0,0.6,0,0.9,0c-0.9,0.1-1.8,0.1-2.6,0.3l0,0c-2.6,0.4-5.4,0.9-7.9,1.9c-0.3,0-0.4,0.1-0.6,0.3c-0.4,0.1-0.8,0.3-1,0.4
	c-1,0.6-2.1,1.1-3.3,1.5l0,0c0,0,0,0-0.1,0.1c-0.5,0.3-0.9,0.6-1.4,1c-0.1,0-0.1,0.1-0.3,0.1c-0.5,0.3-1,0.6-1.4,1
	c-0.3,0.1-0.4,0.3-0.6,0.4C6.4,18,6.1,18.3,6,18.4c-0.1,0.1-0.1,0.3-0.3,0.4c-0.3,0.3-0.4,0.5-0.6,0.8c-0.4,0.6-0.8,1.3-0.9,2
	c-0.1,0.4-0.1,0.8-0.3,1c0,0.4-0.1,0.8-0.1,1.1c-0.8-0.9-1.3-1.8-1.6-2.8c-0.3-0.6-0.4-1.4-0.3-2c0-0.3-0.1-0.5-0.1-0.8
	C1.9,17,2.1,16,2.7,15c0.4-0.8,1.1-1.4,1.8-1.9c0,0,0,0,0.1,0c0.3-0.3,0.5-0.5,0.9-0.6c0.3-0.1,0.4-0.3,0.6-0.4c0,0,0,0,0.1,0
	c0.6-0.5,1.4-0.9,2-1.3c0,0,0,0,0.1,0c0.8-0.3,1.5-0.6,2.4-0.9C11.9,9.4,12.8,9.1,13.6,8.8z M59.2,25.2c-1.3,1.1-2.8,2.1-4.2,2.9
	c-3.2,1.6-6.6,2.9-10.2,3.7c-3.9,0.9-8.1,1.3-12.2,1.1l0,0c0,0,0,0-0.1,0c0,0,0,0-0.1,0l0,0c-4,0.1-8.2-0.3-12.2-1.1
	c-3.5-0.8-7.1-2-10.2-3.7c-1.8-1-3.7-2.3-5-3.7v-0.1c0-0.3-0.1-0.5-0.1-0.8c0-1.1,0.3-2.3,0.8-3.3c0.4-0.8,1-1.4,1.6-2
	c0,0,0,0,0.1,0C7.5,18,7.8,17.8,8,17.6c0.3-0.1,0.4-0.3,0.6-0.4c0,0,0,0,0.1,0c0.6-0.5,1.3-0.9,1.9-1.3c0,0,0,0,0.1,0
	c0.8-0.4,1.4-0.6,2.1-1c0.8-0.4,1.4-0.6,2.1-0.9c0.5-0.1,1-0.4,1.5-0.4c0,0,0.1,0,0.1-0.1c0.3-0.1,0.4-0.1,0.6-0.3
	c0.4-0.1,0.8-0.3,1.1-0.3h0.1c1.3-0.3,2.5-0.5,3.7-0.8c1.8-0.4,3.5-0.5,5.3-0.6l0,0c1,0,1.9-0.1,2.9-0.1c0.6,0,1.1,0,1.8,0h0.1
	c0,0,0,0,0.1,0c0.5,0,1.1,0,1.8,0c1,0,1.9,0.1,2.9,0.1l0,0c1.8,0.1,3.5,0.4,5.3,0.6c1.3,0.3,2.5,0.4,3.7,0.8c0,0,0,0,0.1,0
	c0.4,0.1,0.8,0.1,1.1,0.3c0.1,0.1,0.4,0.1,0.6,0.3c0,0,0,0.1,0.1,0.1c0.5,0.1,1,0.3,1.5,0.4c0.8,0.3,1.5,0.6,2.1,0.9
	c0.8,0.4,1.4,0.6,2.1,1c0,0,0,0,0.1,0c0.6,0.4,1.3,0.9,1.9,1.3c0,0,0,0,0.1,0c0.3,0.1,0.4,0.3,0.6,0.4c0.3,0.1,0.5,0.4,0.8,0.6
	c0,0,0,0,0.1,0c0.6,0.6,1.3,1.3,1.6,2c0.5,1,0.8,2.1,0.8,3.3c0,0.3,0,0.5-0.1,0.8C59.2,24.6,59.2,24.8,59.2,25.2z M10.4,9.6
	c0.4-0.1,0.9-0.4,1.3-0.5c-1,0.5-2,0.9-3.2,1.3C9.3,10.1,9.9,9.8,10.4,9.6z M55.5,32.7c-3.2,2.8-6.8,4.7-10.5,5.8
	c-4,1.4-8.3,2-12.6,1.9l0,0c0,0,0,0-0.1,0c0,0,0,0-0.1,0l0,0c-4.2,0.3-8.4-0.5-12.6-1.9c-3.7-1.3-7.3-3.2-10.5-5.8
	c-2.6-2.3-5.4-5.5-6.8-9.6c1,1.5,2.5,2.9,4,3.9c6,4.5,14.2,6,21.9,6.7c1.4,0.1,2.8,0.1,4.2,0c1.4,0.1,2.8,0.1,4.2,0
	c7.8-0.6,15.9-2.1,21.9-6.7c1.4-1,2.8-2.3,3.8-3.7C60.8,27.3,58.2,30.5,55.5,32.7z M63,21.3c-1.1,3.2-4.3,5.7-7.4,7.3
	c-3.2,1.8-6.8,3-10.5,3.8c-4,0.9-8.3,1.4-12.6,1.3l0,0c0,0,0,0-0.1,0c0,0,0,0-0.1,0l0,0c-4.2,0.1-8.4-0.4-12.6-1.3
	c-3.7-0.8-7.3-2-10.5-3.8s-6.3-4.3-7.4-7.3c-0.3-0.8-0.4-1.4-0.4-2.1c0-0.3-0.1-0.5-0.1-0.8c0-1.1,0.3-2.3,0.9-3.3
	c0.5-0.8,1.1-1.4,1.9-2h0.1c0.3-0.3,0.5-0.5,0.9-0.6c0.3-0.1,0.5-0.3,0.6-0.4c0,0,0,0,0.1,0c0.6-0.5,1.4-0.9,2.1-1.3H8
	c0.1-0.1,0.4-0.1,0.5-0.3l0,0c0,0,0,0-0.1,0.1c-0.5,0.3-1,0.6-1.5,1c-0.1,0-0.1,0.1-0.3,0.1c-0.5,0.3-1,0.6-1.5,1
	c-0.3,0.1-0.5,0.3-0.6,0.4c-0.1,0.1-0.4,0.4-0.5,0.5c-0.1,0.1-0.1,0.3-0.3,0.4c-0.3,0.3-0.5,0.5-0.6,0.8c-0.5,0.5-0.9,1.3-0.9,2
	c-0.1,0.4-0.3,0.6-0.3,1c-0.1,0.6-0.1,1.4,0.1,2c0.1,1.9,1.1,3.5,2.4,4.9c0,0,0,0,0,0.1c0,0,0,0,0.1,0c0.8,0.8,1.6,1.5,2.5,2.3
	c5.8,4.4,13.7,5.8,21.3,6.4c1.4,0.1,2.6,0.1,4,0c1.4,0.1,2.6,0.1,4,0c7.6-0.6,15.5-2,21.3-6.4c2.5-1.9,4.9-4.3,5-7.3
	c0.3-0.6,0.1-1.5,0.1-2c0-0.4-0.1-0.6-0.3-1c-0.1-0.8-0.5-1.4-0.9-2c-0.1-0.3-0.4-0.5-0.6-0.8c-0.1-0.1-0.1-0.3-0.3-0.4
	c-0.1-0.1-0.4-0.4-0.5-0.5c-0.3-0.1-0.5-0.3-0.6-0.4c-0.4-0.4-1-0.8-1.5-1c-0.1,0-0.3,0-0.3-0.1c-0.5-0.4-1-0.6-1.5-1l0,0
	c0.1,0,0.3,0.1,0.4,0.1H57c0.8,0.4,1.4,0.9,2.1,1.3c0,0,0,0,0.1,0c0.3,0.1,0.5,0.3,0.6,0.4c0.4,0.1,0.6,0.4,0.9,0.6c0,0,0,0,0.1,0
	c0.8,0.6,1.4,1.3,1.9,2c0.6,1,0.9,2.1,0.9,3.3c0,0.3,0,0.5-0.1,0.8C63.3,19.9,63.2,20.5,63,21.3z M19.5,28.1c-2.1-0.6-4-1.3-5-3.2
	c-0.6-1.1-0.6-2.5-0.4-3.7c0.1-0.9,0.6-1.9,1.5-2.5l0,0c-0.9,0.5-1.1,1.5-1.5,2.3c-0.5,1.1-0.1,2.9,0.3,4C15.1,27,17.4,28,19.5,28.1
	C19.6,28.2,19.6,28.1,19.5,28.1z M50.1,20c0.6,0.8,1.1,1.6,1,2.6c0,1-0.9,2-1.6,2.8c0,0,0,0.1,0,0c1-0.6,1.6-1.6,1.8-2.8
	C51.5,21.7,50.7,20.8,50.1,20C50.1,19.9,50,20,50.1,20z M26.6,21.8c0.1,0,0.1,0,0.3,0s0.3-0.1,0.4-0.3v-0.1c0-0.1,0-0.1-0.1-0.3
	c-0.1-0.1-0.4-0.3-0.6-0.1l0,0l0,0c0,0,0-0.1-0.1,0l0,0l0,0c-0.1,0.1-0.3,0.4-0.3,0.6C26.2,21.7,26.3,21.8,26.6,21.8z M26.4,21
	L26.4,21L26.4,21C26.6,21,26.6,21,26.4,21c0.1,0,0.1,0,0.3,0l0,0c0.1,0,0.1,0.1,0.1,0.1c0,0.1,0,0.1,0,0.1l0,0c0,0-0.1,0-0.1,0.1
	c-0.1,0-0.3-0.1-0.3-0.3V21z M27.7,23.3L27.7,23.3C27.7,23.3,27.6,23.3,27.7,23.3C27.6,23.3,27.6,23.3,27.7,23.3
	C27.6,23.3,27.6,23.3,27.7,23.3c-0.1,0.1-0.1,0.1,0,0.3l0,0h0.1c0.1,0,0.1,0,0.3-0.1c0.1-0.1,0.1-0.3,0.1-0.4l0,0l0,0
	c0-0.1-0.1-0.1-0.1-0.1c-0.1,0-0.3,0-0.4,0.1c0,0-0.1,0-0.1,0.1v0.1C27.6,23.3,27.6,23.3,27.7,23.3z M21.3,18.9
	c0.1,0.3,0.4,0.4,0.6,0.4c0.4,0,0.9-0.1,1.1-0.4c0.4,0.8,1.1,1.3,2.1,1.3l0,0l0,0c0.9,0,1.6-0.5,2-1.1c0.1-0.1,0.1-0.4,0.1-0.5
	c0-0.3,0-0.4-0.1-0.5c-0.4-0.6-1-0.9-1.8-1.1c0.3-0.3,0.4-0.6,0.4-1c0-0.4-0.1-0.6-0.6-0.8c-0.9-0.3-1.8,0-2.5,0.5
	c-0.4,0.3-0.8,0.5-1,0.9C21.3,16.9,20.5,18.3,21.3,18.9C21.1,18.9,21.3,18.9,21.3,18.9z M22.6,18.8C22.6,18.8,22.5,18.8,22.6,18.8
	l0.1-0.1l0,0C22.6,18.6,22.6,18.8,22.6,18.8z M25.2,19.8c-1,0-1.6-0.6-2-1.4c0-0.1-0.1-0.1-0.3,0h-0.1l0,0l0,0
	c0.3-0.3,0.4-0.4,0.8-0.5l0,0c0.1,0.6,0.5,1.1,1.1,1.4c0.3,0.1,0.5,0.1,0.9,0.1c0.1,0,0.3,0,0.4,0C25.7,19.8,25.4,19.8,25.2,19.8z
	 M21.5,17.1c0.4-0.9,1.4-1.5,2.4-1.8c0.3-0.1,0.5-0.1,0.8-0.1c0.3,0,0.5,0,0.8,0.1c0.6,0.4,0.1,1-0.3,1.4c-0.1,0-0.1,0.1,0,0.3
	c0.4,0.1,0.9,0.3,1.3,0.5c0.8,0.4,1,1.3,0.3,1.6l0,0c-1.1,0.6-2.4-0.1-2.8-1.1l0,0c0,0,0,0,0-0.1c0-0.1,0-0.1-0.1-0.1
	c-0.3,0-0.4,0.1-0.5,0.1c-0.3,0.1-0.4,0.4-0.6,0.5C22.1,18.3,22,18,22,17.8c0-0.4,0.3-0.8,0.5-1.1c0.5-0.8,1.4-0.8,2.3-1
	c0,0,0,0,0-0.1v-0.1c-0.5-0.1-1.1,0-1.6,0.4c-0.5,0.4-1,0.8-1.1,1.3c-0.4,0.6-0.1,1.4,0.6,1.5l0,0c-0.4,0.3-1,0.3-1.1-0.3
	c0-0.1,0-0.1,0-0.3C21.1,17.8,21.4,17.4,21.5,17.1z M36.1,24.2L36.1,24.2L36.1,24.2c0.3,0,0.5-0.1,0.5-0.3c0,0,0.1-0.1,0-0.3
	c0-0.1,0-0.1-0.1-0.1l0,0l0,0l0,0l0,0l0,0c0,0.1,0,0.1,0,0.1h-0.1c0,0,0-0.1,0.1-0.1c0,0,0,0,0-0.1c0-0.1-0.1-0.3-0.3-0.1l0,0l0,0
	C36,23.4,36,23.7,36,23.8C35.9,24.2,36,24.2,36.1,24.2z M34.5,20.9c0,0.1,0,0.1,0,0.1s0,0.1,0.1,0.1h0.1c0.3,0,0.4-0.1,0.5-0.3
	c0-0.1,0.1-0.1,0-0.3c0-0.1,0-0.4-0.3-0.4c-0.3-0.1-0.4-0.1-0.6,0c0,0-0.1,0-0.1,0.1c-0.1,0.1-0.1,0.3,0,0.3
	C34.5,20.8,34.5,20.8,34.5,20.9z M34.9,20.5L34.9,20.5c0.1,0,0.1,0.1,0.1,0.3l0,0l0,0C35,20.7,34.9,20.7,34.9,20.5
	C34.9,20.7,34.9,20.7,34.9,20.5L34.9,20.5L34.9,20.5z M35,24.8L35,24.8L35,24.8c0.3,0,0.4-0.1,0.5-0.3c0-0.1,0.1-0.1,0.1-0.3v-0.1
	c0-0.1,0-0.1-0.1-0.1s-0.3,0-0.4,0s-0.1,0.1-0.3,0.3c0,0.1,0,0.1,0.1,0.1h0.1l0.1-0.1c0,0.1,0,0.3-0.1,0.4l0,0c-0.1,0-0.3,0-0.3-0.1
	h-0.1c0,0-0.1,0-0.1,0.1C34.6,24.7,34.7,24.8,35,24.8z M41.3,14.6c-0.4,0.3-0.6,0.5-0.6,1c0,0.1,0,0.1,0.1,0.1
	c0.1,1,1.1,1.6,2.1,1.9c0.1,0,0.4,0,0.5,0c0.9,0,1.5-0.6,1.5-1.5V16C44.8,14.7,42.4,13.8,41.3,14.6z M44.2,17.2
	c-0.4,0.3-1,0.3-1.5,0.1c-0.8-0.3-1.5-0.9-1.6-1.6c0.4-0.5,0.8-0.9,1.4-0.9c0.1,0,0.3,0,0.4,0c0.9,0.1,1.6,0.8,1.8,1.5
	C44.6,16.7,44.4,17,44.2,17.2z M40.7,18.8c0.5,0.1,1.1,0.1,1.6,0.4c0.6,0.3,0.6,0.9,0.8,1.4h0.1h0.1c0-0.1,0-0.1,0-0.3
	c0-0.5-0.3-1-0.6-1.3c-0.5-0.3-1.3-0.3-1.9-0.4C40.7,18.6,40.7,18.6,40.7,18.8C40.7,18.6,40.7,18.6,40.7,18.8
	C40.7,18.6,40.5,18.8,40.7,18.8z M35.1,22.8c0.9-0.3,1.6-1.1,1.5-2c0-0.5-0.3-0.9-0.6-1.3c-0.8-0.5-2.5-0.6-3.4,0l0,0v-0.1
	c0-0.4,0.4-0.9,0.9-1.3h0.1h0.1c0.3-0.1,0.5-0.3,0.6-0.5c0.3,0.1,0.8,0.3,0.8,0.4l0,0c0,0,0,0-0.1,0l0,0c-0.1,0-0.1,0.1-0.1,0.1
	c0.1,0.3,0.3,0.4,0.5,0.5c0,0.1,0.1,0.3,0.1,0.1c0,0,0,0,0.1,0c0.3,0.1,0.4,0.1,0.6,0.1l0,0l0,0c0.1,0,0.3-0.1,0.1-0.1v-0.1l0,0
	c0.1,0,0.3,0,0.4,0h0.1c0.3,0,0.5-0.3,0.5-0.4l0,0l0,0c0-0.6-0.9-0.6-1.4-0.8l0,0c0-0.1,0.1-0.1,0.1-0.1c0.1-0.1,0.3-0.1,0.4-0.1
	c0,0,0,0,0.1,0c0.3,0,0.5,0.3,0.6,0.4c0.3,0.1,0.4,0.3,0.6,0.3H38c0.1,0,0.4-0.3,0.4-0.4l0,0l0,0c0-0.3-0.3-0.4-0.4-0.6
	c0.4,0.3,0.9,0.4,1.3,0.4l0,0l0,0c0.1,0,0.1,0,0.1-0.1c0,0,0,0,0-0.1c-0.1-0.1-0.5-0.4-0.5-0.6v-0.1c0.1-0.3,0.6-0.4,0.9-0.5
	c0,0,0.1-0.1,0-0.1c0,0,0,0,0-0.1c-0.5-0.4-1-0.6-1.6-0.8c0.4-0.3,0.9-0.3,1-0.6l0,0l0,0c0,0,0-0.1-0.1-0.1s-0.3,0.1-0.5,0.1
	c-0.4,0-0.1-0.1-0.4-0.3c-0.4-0.1-0.8,0.1-1.1,0.3c0-0.1-0.1-0.1-0.3,0l0,0c-0.1-0.1-0.1-0.3-0.3-0.4c0-0.1-0.1-0.1-0.1,0l0,0l0,0
	l0,0l0,0c-0.1,0.1-0.1,0.1-0.1,0.3c0,0.1-0.1,0.1-0.1,0.1H36c0-0.1,0-0.1,0-0.3l0,0c0-0.1,0-0.1-0.1-0.1l0,0l0,0l-0.1,0.1
	c-0.3,0.1-0.4,0-0.4-0.1s0-0.3,0-0.4l0,0l0,0c0-0.1-0.1-0.1-0.3,0c0,0-0.1,0-0.1,0.1c-0.1,0.3-0.1,0.6-0.1,0.9
	c-0.3-0.1-0.5-0.4-0.6-0.6c0-0.1-0.3-0.1-0.3,0c-0.1,0-0.1,0.1-0.1,0.1c0.1,0.3,0.1,0.5,0.3,0.6c-0.1,0-0.3,0-0.3,0
	c-0.1,0-0.1,0-0.3,0c-0.1,0-0.1,0.1-0.1,0.1c0,0.1,0.1,0.3,0.3,0.4c0,0,0,0-0.1,0c-0.1,0-0.1,0-0.3,0.1c-0.3,0.1-0.3,0.4-0.3,0.6
	C33,16.1,33,16.6,33.2,17c-0.3,0.3-0.5,0.4-0.6,0.6c-0.5,0.4-1,1-0.6,1.6l-0.1,0.1l-0.1,0.1c0.1-0.1,0.1-0.4,0.1-0.5
	c0-0.4-0.1-0.6-0.3-1c0.1,0,0.1,0,0.1-0.1l0,0c-0.1-0.3-0.3-0.4-0.3-0.6c0-0.1,0-0.3,0.1-0.4c0.1-0.1,0.3-0.3,0.3-0.4l0,0l0,0
	c0-0.1,0-0.4-0.1-0.5c-0.1-0.3-0.1-0.4-0.3-0.6c-0.1-0.3-0.4-0.3-0.6-0.3c0,0-0.1,0-0.1-0.1c0-0.4,0.6-1.4,0.6-1.5c0,0,0,0,0-0.1
	c0-0.1-0.1-0.3-0.3-0.1l0,0c0,0,0,0-0.1,0c-0.1,0.1-0.4,0.3-0.5,0.5c-0.1,0-0.1,0.1-0.3,0c0-0.1,0-0.3,0.1-0.3l0,0l0,0
	c0-0.1-0.3-0.3-0.3-0.1c0,0-0.1,0-0.1,0.1c0,0.1-0.1,0.3-0.1,0.5c0,0,0,0-0.1,0.1h-0.1c-0.4,0-0.5-0.5-0.5-0.6
	c0-0.1-0.1-0.1-0.3-0.1l0,0l0,0c-0.1,0.1-0.3,0.3-0.4,0.3c-0.1,0.1-0.4,0.1-0.5,0c-0.1,0-0.1,0-0.3,0c-0.1,0-0.1,0.1-0.1,0.1
	c0.1,0.3,0.3,0.5,0.4,0.6c-0.4,0-0.9-0.3-1.1-0.3c-0.3,0-0.6,0-0.9,0.1c0,0-0.1,0-0.1,0.1v0.1l0,0c0,0-0.1,0-0.1,0.1
	c0,0.4,0.5,0.5,0.6,0.8c0.3,0.1,0.5,0.3,0.8,0.4c-0.1,0-0.4,0.1-0.5,0.3c-0.1,0.1-0.3,0.1-0.4,0.4c0,0.1,0,0.1,0.1,0.1h0.1
	c0.3,0,0.4,0,0.6-0.1c-0.1,0.3-0.3,0.4-0.3,0.6v0.1c0.3,0.1,0.5,0.4,0.9,0.5l0,0l0,0h0.1c0.1,0.1,0.4,0.3,0.5,0.4h0.1
	c0.1,0,0.4-0.1,0.5-0.3c0.1-0.1,0.3-0.3,0.3-0.5h0.1h0.1c0.3,0,0.5,0,0.5,0.3c0,0.1,0.1,0.1,0.1,0.1c0.1,0,0.1,0,0.1-0.1l0,0l0,0
	c0-0.1,0-0.1,0-0.3c0.5,0.9,1,1.9,0.5,2.9c0,0.1,0,0.1,0.1,0.1l0,0c-0.3,0.4-0.3,0.9-0.3,1.3c0.1,1,1.1,1.3,2,1.3
	C34.1,23,34.7,23,35.1,22.8z M33.9,16.4c0,0,0-0.1,0.1-0.3c0.1,0.1,0.1,0.3,0.1,0.3s0.1,0.1,0.1,0c0.1,0,0.1,0,0.1,0
	c0.1-0.1,0.1-0.3,0.1-0.4c0-0.3-0.1-0.4-0.1-0.6c0.1,0,0.1,0,0.3,0c0,0,0,0,0.1,0l0,0c0.1,0,0.3-0.1,0.1-0.1l0,0l0,0v-0.1
	c0.1,0,0.3,0.1,0.4,0.1l0,0l0,0c0,0,0.1,0,0.1-0.1s0-0.1,0-0.3h0.1h0.1l0,0c0,0.1,0,0.1,0.1,0.1l0,0l0,0c0.3,0,0.4-0.1,0.5-0.3
	c0,0.1,0.3,0.3,0.4,0.3c0.1,0,0.3,0,0.3-0.1c0.3,0,0.4-0.1,0.6-0.3c0.1-0.1,0.3-0.1,0.4-0.1s0.1,0,0.3,0.1c0,0,0,0,0.1,0.1
	c-0.1,0-0.3,0.1-0.3,0.1c-0.1,0-0.1,0.1-0.3,0.1c-0.1,0.1,0,0.1,0,0.3c0.6,0.1,1.1,0.4,1.8,0.6C39.3,16,39,16,38.9,16.1
	c-0.1,0.1-0.3,0.3-0.4,0.4c-0.1,0.3,0.1,0.4,0.3,0.5c-0.4-0.1-0.8-0.3-1-0.5c0-0.1-0.1-0.1-0.3,0h-0.1c-0.1,0.3-0.1,0.4,0,0.6
	c0.1,0.1,0.4,0.4,0.3,0.5c-0.1,0-0.5-0.3-0.6-0.3c-0.6-0.4-1-0.5-1.6-0.1c0,0-0.1,0.1-0.3,0.1c-0.4,0.4,0.1,0.5,0.5,0.6
	c0.3,0,0.4,0.1,0.6,0.1c0.3,0,0.1,0.3-0.1,0.4c-0.3,0-0.4,0-0.6-0.1c-0.3-0.1-0.4,0-0.5,0l0,0c-0.1-0.1-0.1-0.1-0.3-0.3
	C34.9,18,35,18,35,17.9c0-0.3-0.8-0.6-1.1-0.8c0.4-0.3,0.8-0.5,1.1-0.8c0.5-0.4,1.3-0.9,2-0.9c0.1,0,0.3,0.1,0.4,0.1h0.1v-0.1
	c0-0.1-0.1-0.3-0.3-0.3c-0.5-0.1-1.1,0.1-1.5,0.4c-0.4,0.1-0.8,0.4-1,0.6c-0.4,0.3-0.6,0.4-1,0.6c-0.1,0.1-0.3,0.3-0.5,0.4
	c0-0.1-0.1-0.3-0.1-0.4C33.7,16.9,33.7,16.6,33.9,16.4z M31.6,17.2c-0.1,0.1-0.1,0.1-0.1,0.3c0,0,0,0,0-0.1c-0.3-0.5-0.6-1-1.1-1.4
	c-0.6-0.4-1.3-0.5-2-0.8h-0.1c-0.1,0-0.1,0.1,0,0.1c1.1,0.4,2.1,0.8,2.8,1.6l0,0c-0.3-0.1-0.8,0.1-0.8-0.1c0,0,0-0.1,0-0.3l0,0
	c0-0.1-0.1-0.1-0.3-0.1h-0.1l0,0v0.1c-0.1,0.3-0.3,0.8-0.5,0.9c-0.1,0-0.1,0-0.3-0.1c-0.1-0.1-0.1-0.1-0.3-0.3c-0.1,0-0.1,0-0.1-0.1
	c0-0.1,0.1-0.3,0.1-0.4l0,0l0,0c0-0.1-0.1-0.1-0.1-0.1l0,0l0,0c-0.3,0.1-0.3,0.4-0.3,0.5c-0.1,0-0.3-0.1-0.5-0.1l-0.1-0.1
	c0-0.3,0.3-0.5,0.4-0.6c0,0,0,0,0-0.1l0,0c0.1,0,0.1,0,0.3,0.1h0.1c0.1,0,0.3-0.1,0.1-0.1v-0.1c-0.4-0.3-0.8-0.5-1.1-0.6
	c-0.3-0.1-1-0.4-1-0.6l0,0c0.1,0,0.3,0,0.4,0c0.4,0,0.9,0.1,1.3,0.3c0.1,0,0.3,0,0.4,0s0.3,0,0.4-0.1v-0.1v-0.1
	c-0.1-0.1-0.3-0.3-0.4-0.4c0.3,0,0.4-0.1,0.6-0.3c0.1,0.3,0.4,0.6,0.8,0.6h0.1c0.1,0,0.4,0,0.4-0.1l0,0l0,0l0,0c0.1,0,0.3,0,0.4-0.1
	c-0.1,0.3-0.3,0.5-0.4,0.8c-0.1,0.5,0.1,0.6,0.6,0.6c0.3,0,0.1,0.3,0.3,0.4C31.5,16.7,31.8,16.9,31.6,17.2z M31.8,21.9
	c0-0.1,0-0.3,0-0.4c0-0.4,0.1-0.9,0.5-1.1c0.3-0.1,0.4-0.3,0.6-0.3h0.1h0.1l0,0l0,0c0.1,0,0.1,0,0.1-0.1v-0.1c0.1,0,0.3-0.1,0.5-0.1
	c0.3-0.1,0.5-0.1,0.9-0.1c0.3,0,0.6,0,0.9,0.1c0.6,0.3,0.9,0.9,0.9,1.5c0,0.5-0.4,0.8-0.8,1.1c-0.1,0.1-0.3,0.1-0.4,0.1
	C34.2,22.8,32.2,23,31.8,21.9z M28.1,22.2h0.1c0.1,0,0.3,0,0.3-0.1c0.1-0.1,0.1-0.1,0.1-0.3v-0.1c0-0.1-0.3-0.3-0.4-0.3h-0.1l0,0
	c0,0-0.1,0-0.1,0.1h-0.1c0,0-0.1,0-0.1,0.1C27.8,21.9,27.8,22,28.1,22.2z M28.2,21.8L28.2,21.8L28.2,21.8L28.2,21.8L28.2,21.8
	L28.2,21.8L28.2,21.8z M30.6,25.8c0-0.6,0.1-1.3,0.1-1.9c0-0.1,0-0.1,0-0.3c0,0,0-0.1-0.1-0.1c-0.1-0.6-0.5-1.5-0.5-2.4
	c0-0.4,0.1-0.8,0.4-1.1v-0.1c0-0.1-0.1-0.1-0.1-0.1c-1.4,0-2.6,0.4-4,0.3c-0.4,0-1.1-0.1-1.5,0.1c-0.1,0-0.1,0.1-0.3,0.3
	c0,0,0,0,0,0.1l0,0l0,0c0,0,0,0-0.1,0c-0.3,0.5,0.1,1,0.4,1.5c0.4,0.8,0.8,1.6,1,2.4l0.1,0.1v0.1c0.1,0.5,0.5,0.9,0.5,1.4
	c0,0.1,0.1,0.1,0.3,0.1h0.1C28.1,25.8,29.3,25.9,30.6,25.8C30.5,25.9,30.6,25.9,30.6,25.8z M26,24.6C26,24.6,26,24.4,26,24.6
	c-0.3-0.8-0.5-1.5-0.9-2.1C25,22,24.5,21.5,24.5,21c0-0.1,0-0.1,0-0.1l0,0l0,0l0,0h0.1c0.1-0.1,0.5-0.3,0.9-0.3c0.4,0,0.8,0,1,0
	c0.1,0,0.1,0,0.1,0c1-0.1,2-0.3,3-0.3c-0.6,1-0.1,2.4,0.3,3.4c-0.6,0.1-1.4,0.1-2,0.4C27.4,24.2,26.8,24.6,26,24.6L26,24.6z
	 M30.2,24.9c0,0.3,0,0.4,0,0.6l0,0c-0.1,0-0.6,0-0.8,0c-1,0-1.9,0-2.9,0.4c-0.1-0.4-0.3-0.8-0.4-1.1c0.6-0.1,1.1-0.3,1.8-0.5
	c0.8-0.3,1.6-0.4,2.4-0.5C30.3,24.2,30.3,24.6,30.2,24.9z M39.3,25.4L39.3,25.4c0.1,0,0.1-0.1,0.1-0.1v-0.1
	c-0.1-0.1-0.3-0.1-0.3-0.3c0,0,0-0.1-0.1-0.1l0,0c-0.9-0.8-1.6-1.6-2-2.6c0-0.1-0.1-0.1-0.3,0h-0.1c-0.3,0.1-1,0.5-1.3,0.8
	c-0.1,0-0.1,0.1-0.3,0.1c-0.5,0.4-0.9,0.8-1.4,1.1c-0.1,0.1-0.3,0.1-0.4,0.3h-0.1h-0.1c0,0-0.1,0-0.1,0.1c0,0.3,0.1,0.5,0.1,0.9
	c0,0.5-0.3,0.9-0.1,1.5c0,0.1,0.1,0.1,0.1,0.1c0.5,0,1.1,0.3,1.6,0.3c0,0,0.1,0,0.3,0c0.5,0,1-0.1,1.4-0.1c1-0.1,1.9-1,2.8-1.3
	C39.3,25.6,39.3,25.6,39.3,25.4z M36.6,22.5c0.4,0.8,1,1.6,1.8,2.3c-0.9,0-1.6,0.3-2.4,0.5c-0.5,0.1-1,0.5-1.5,0
	c-0.3-0.3-0.5-0.6-0.9-0.9l0,0C34.7,23.9,35.5,22.9,36.6,22.5z M38.9,25.3C38.9,25.3,38.8,25.3,38.9,25.3c-0.1,0.1-0.1,0.1-0.1,0.1
	c-0.4,0.1-0.6,0.3-1,0.5c-0.8,0.4-1.4,0.6-2.3,0.8c-0.4,0-2,0.1-2-0.4c0-0.4,0.1-0.6,0.1-1v-0.1v-0.1c0.4,0.5,0.8,0.9,1.4,0.9l0,0
	l0,0c0.5,0,1.1-0.4,1.6-0.5C37.4,25.3,38,25.2,38.9,25.3C38.8,25.2,38.9,25.2,38.9,25.3L38.9,25.3z M27.1,22.4
	c-0.3-0.1-0.5-0.1-0.6,0c0,0-0.1,0-0.1,0.1h-0.1c0,0-0.1,0-0.1,0.1c0,0.3,0.1,0.4,0.4,0.4c0,0,0,0,0.1,0c0.3,0,0.4-0.3,0.5-0.4
	C27.1,22.5,27.1,22.5,27.1,22.4C27.1,22.5,27.1,22.5,27.1,22.4L27.1,22.4z M26.7,22.8L26.7,22.8c-0.1,0-0.3,0-0.3-0.1
	c0.1,0,0.3-0.1,0.4-0.1c0,0,0,0,0.1,0C26.8,22.7,26.7,22.7,26.7,22.8z M43.8,18.6c-1-0.9-2.5-1.1-3.8-1c-0.5,0-0.9,0.1-1.3,0.4
	c-0.1,0.1-0.4,0.3-0.5,0.4c-0.4,0.5,0.6,1,0.8,1.6h0.1h0.1c0-0.1,0-0.1,0-0.3c0-0.3-0.1-0.4-0.3-0.6c-0.1-0.1-0.3-0.3-0.4-0.4
	l-0.1-0.1c0-0.3,0.6-0.5,0.9-0.6c0.4-0.1,0.9-0.1,1.3-0.1c0.6,0,1.1,0.1,1.6,0.3c1.1,0.4,1.8,1.1,1.8,2.1c0,0.4-0.3,0.6-0.5,0.8
	c-0.5,0.3-1,0.1-1-0.5c0,0,0-0.1,0-0.3l0,0l0,0c0-0.1,0-0.1-0.1-0.1c-0.1,0-0.3-0.1-0.5-0.1h-0.1l0,0c0,0,0,0-0.1,0
	c-0.3,0.4-0.3,0.4-0.3,0.5l0,0c-0.1,0-0.1,0.1-0.3,0.1c-0.6,0.4-1.1,1-1.8,1.4c-0.1,0-0.3,0.1-0.4,0.1c-0.4,0.1-0.9,0.1-1.3,0
	c0,0-0.1,0-0.3-0.1c0,0,0,0-0.1,0c0,0,0-0.1-0.1-0.1v-0.1c0-0.5,1-1.3,1.4-1.5c0,0,0,0,0-0.1c0,0,0-0.1-0.1-0.1s-0.1,0.1-0.3,0.1
	c-1,0.6-2,1.8-0.6,2.4c0.3,0.3,0.5,0.4,1,0.4c0.1,0,0.4,0,0.5,0c0.8-0.1,1.9-0.6,2.5-1.3c0.1,0.3,0.5,0.3,0.9,0.3s0.9-0.1,1.1-0.3
	c0.6-0.3,0.9-0.9,0.9-1.5c0-0.4-0.1-0.8-0.4-1C44.1,19,43.9,18.8,43.8,18.6z M41.9,21.4C41.9,21.3,41.9,21.3,41.9,21.4
	C41.9,21.3,41.9,21.3,41.9,21.4C41.9,21.3,41.9,21.3,41.9,21.4c0-0.1-0.1-0.3-0.3-0.1h-0.1c-0.1,0.3-0.4,0.5-0.6,0.6
	c-0.5,0.3-1.1,0.5-1.5,0.6c-0.1,0-0.1,0-0.3,0.1c0.9-0.4,1.6-1.3,2.3-1.8v-0.1l0,0l0,0l0.1-0.1h0.1c0,0.6,0.4,1.1,0.9,1.1
	C42.4,21.8,41.9,21.8,41.9,21.4z M21.1,20.5L21.1,20.5c-0.3,0.1-0.3,0.3-0.3,0.4c0,0,0,0.1,0.1,0.1l0,0l0,0c0,0.1,0,0.3-0.1,0.3
	c0,0-0.1,0-0.1,0.1v-0.1c0,0,0,0,0-0.1c0-0.1-0.1-0.1-0.1-0.1l0,0l0,0c-0.1,0.1-0.1,0.3-0.1,0.4c0,0,0,0.1,0.1,0.1l0,0l0,0
	c0.4,0,0.8-0.3,0.8-0.6c0-0.1,0-0.3-0.1-0.4C21.3,20.5,21.3,20.5,21.1,20.5z M44.1,26.3c-1.9,0.9-3.5,1.9-5.7,2.3l0,0l0,0v0.1l0,0
	l0,0C40.5,28.3,42.6,27.6,44.1,26.3C44.2,26.4,44.2,26.4,44.1,26.3C44.2,26.3,44.2,26.3,44.1,26.3z M36.3,24.4
	c-0.1,0-0.1,0.1-0.1,0.1l0,0c0,0-0.1,0-0.1,0.1c0,0.1,0,0.1,0,0.3c0,0,0,0.1,0.1,0.1c0,0,0,0,0.1,0l0,0c0.3,0,0.5,0,0.5-0.3v-0.1
	c0-0.1-0.3-0.3-0.4-0.3C36.3,24.4,36.3,24.4,36.3,24.4z M36.4,24.8L36.4,24.8L36.4,24.8L36.4,24.8L36.4,24.8L36.4,24.8L36.4,24.8
	L36.4,24.8L36.4,24.8C36.4,24.8,36.4,24.7,36.4,24.8C36.4,24.7,36.4,24.7,36.4,24.8C36.4,24.7,36.4,24.7,36.4,24.8z M22.1,19.8
	c-0.5-0.1-1.3,0-1.8,0.4c-0.6,0.4-0.9,0.9-0.5,1.5c0,0,0.1,0.1,0.1,0h0.1c0.3,0.9,1.4,1.4,2.4,1.4c0.8,0,1.4-0.4,1.4-1.1
	c0,0,0-0.1,0-0.3C23.8,21,23.2,20,22.1,19.8z M23.2,22.8c-0.1,0.1-0.4,0.1-0.6,0.1c-1,0-2.1-0.6-2.1-1.6c0-0.1,0-0.3,0-0.3l0,0l0,0
	c0-0.1-0.1-0.1-0.1,0l0,0l0,0c0.1-0.3,0.4-0.5,0.8-0.6c0.3-0.1,0.4-0.1,0.6-0.1c0.3,0,0.4,0,0.6,0.1c0.6,0.3,1.1,0.9,1.3,1.5
	C23.5,22.2,23.4,22.5,23.2,22.8z M42.2,15.2C42.1,15.2,42.1,15.2,42.2,15.2c-0.1,0-0.1,0-0.3,0c0,0-0.1,0-0.1,0.1
	c-0.3,0.1-0.3,0.4-0.3,0.6c0,0.1,0.1,0.1,0.1,0.1l0,0c0,0,0,0,0.1,0c0.3,0,0.4-0.1,0.5-0.3c0-0.1,0.1-0.1,0.1-0.3
	c0-0.1,0-0.1-0.1-0.3C42.3,15.1,42.2,15.1,42.2,15.2z M42.1,15.6C42.1,15.6,41.9,15.6,42.1,15.6c-0.1,0-0.1,0.1-0.1,0.1l0,0
	C41.9,15.6,41.9,15.5,42.1,15.6c0-0.1,0-0.1,0-0.1C42.1,15.5,42.1,15.5,42.1,15.6z M8.5,21.2c-0.1,0-0.3,0-0.4,0c0,0,0,0,0,0.1
	c0.1,0.1,0.3,0,0.3,0.1s-0.1,0.3-0.3,0.3c-0.1,0.1-0.3-0.1-0.3-0.3s-0.1-0.1-0.1,0s0,0.4,0.3,0.4c0.1,0,0.3,0,0.4-0.1
	s0.3-0.3,0.3-0.4C8.7,21.2,8.5,21.2,8.5,21.2z M12.6,18.3c-0.1,0-0.1,0-0.3,0.1l0,0v0.1l0,0c-0.1-0.1-0.3,0-0.1,0.1
	c0.1,0.1,0.3,0.1,0.4,0.1s0.3-0.1,0.3-0.3C12.7,18.4,12.7,18.3,12.6,18.3z M11.2,22.9c-0.1,0.1-0.1,0.3,0,0.3c-0.1,0-0.1,0-0.3,0
	l0,0c0.1-0.1-0.1-0.3-0.1-0.1c-0.1,0.1-0.1,0.1-0.1,0.3c0,0.1,0.1,0.1,0.3,0.1c0.1,0,0.4,0,0.5,0c0.1-0.1,0.1-0.3,0.1-0.4
	C11.4,22.8,11.3,22.8,11.2,22.9z M45.8,27.6l-0.1,0.1h0.1l0,0l0,0l0,0l0,0l0,0l0,0l0,0l0,0l0,0l0,0l0,0l0,0l0,0l0,0c0,0,0,0,0,0.1
	l0,0l0,0l0,0l0,0l0,0l0,0l0,0l0,0c0,0,0-0.1-0.1-0.1c0,0-0.1-0.1-0.1,0c-0.1,0-0.1,0.1-0.1,0.1c0,0.1,0.1,0.4,0.4,0.4
	c0.1,0,0.3-0.1,0.3-0.3c0-0.1,0.1-0.3,0-0.4C46.2,27.6,46,27.5,45.8,27.6z M48,26.1C48,26.1,47.8,26.1,48,26.1c-0.1,0-0.1,0-0.1,0
	l-0.1,0.1l0,0l0,0l0,0l0,0c0-0.1-0.1-0.1-0.3,0c0,0.1,0,0.3,0.1,0.3c0.1,0,0.4-0.1,0.5-0.1c0,0,0.1-0.1,0-0.1
	C48.1,26.1,48.1,26.1,48,26.1z M48.6,28.1c-0.1,0-0.1,0.1-0.1,0.1s0,0,0,0.1h-0.1c-0.1,0,0,0.3,0.1,0.1c0.1,0,0.1,0,0.3-0.1
	c0.1,0,0.1-0.1,0.1-0.3C48.7,28.1,48.7,28.1,48.6,28.1z M52.1,17.9c0-0.1,0-0.3,0-0.4s0-0.3-0.1-0.3h-0.1c0,0.1,0,0.1,0,0.3
	c0,0.1,0,0.1,0,0.3c0,0,0,0-0.1,0c0,0-0.1,0,0,0c-0.1-0.1-0.3,0-0.1,0.1C51.8,17.9,51.9,18,52.1,17.9C52,18,52.1,17.9,52.1,17.9z
	 M55.3,19.5C55.2,19.5,55.2,19.5,55.3,19.5c-0.3,0.3,0,0.4,0.1,0.3c0,0,0,0,0.1-0.1c0.1,0,0.1-0.1,0-0.3
	C55.4,19.4,55.3,19.4,55.3,19.5z M52.8,19.5L52.8,19.5c-0.1,0.1,0,0.1,0,0.3c0,0.1,0,0.1-0.1,0.3c-0.1,0.1-0.4,0.1-0.6,0.1V20
	c0-0.1-0.1-0.1-0.1,0c0,0.1,0,0.1,0,0.3v0.1c0.3,0.1,0.5,0,0.8-0.1C52.8,20,53,19.6,52.8,19.5z M28.3,28.3c0,0.1-0.1,0.4-0.3,0.4
	h-0.1c0,0,0-0.1,0.1-0.3c0-0.1-0.1-0.1-0.1-0.1c-0.1,0.1-0.1,0.3-0.1,0.4s0.1,0.1,0.3,0.1c0.4,0,0.5-0.4,0.5-0.6
	C28.6,28.2,28.3,28.2,28.3,28.3z M30.5,27.7h-0.1v-0.1c0,0-0.1-0.1-0.1,0c0,0.1,0,0.1,0.1,0.1C30.3,27.8,30.5,27.8,30.5,27.7
	C30.6,27.8,30.6,27.7,30.5,27.7z M30.8,27.3h-0.1c0,0-0.1,0.1,0,0.1C30.7,27.5,30.7,27.5,30.8,27.3c-0.1,0.1,0,0.1,0,0.1
	C30.8,27.6,31,27.5,30.8,27.3C31,27.5,31,27.3,30.8,27.3z M30.2,29.7c-0.1,0-0.4,0-0.4,0.1c0,0.1,0.1,0.1,0.3,0l0,0
	c0,0.1-0.3,0.3-0.4,0.3V30c0-0.1-0.1-0.1-0.1,0v0.3c0,0,0,0.1,0.1,0.1C30.1,30.4,30.3,30.1,30.2,29.7C30.3,29.8,30.3,29.7,30.2,29.7
	z M20.3,28.6c-0.1,0.3-0.3,0.5-0.6,0.5c-0.1,0-0.1,0-0.3-0.1c0,0,0-0.1,0.1-0.3c0.1-0.1,0-0.1-0.1-0.1c-0.1,0.1-0.3,0.3-0.3,0.4
	c0,0.1,0.3,0.3,0.4,0.3C20,29.3,20.4,29.1,20.3,28.6L20.3,28.6z M19.6,14.6c0.1,0,0.3,0,0.4-0.1c0.1-0.1,0.3-0.3,0.3-0.4
	c0-0.3-0.4-0.3-0.5-0.1v0.1c0,0,0.1,0,0.3,0h0.1c0,0.1-0.1,0.3-0.1,0.3c-0.1,0.1-0.3-0.1-0.3-0.3s-0.3-0.1-0.1,0
	C19.4,14.4,19.5,14.6,19.6,14.6z"/>
<path class="st0" d="M63.7,17.5c0-0.4-0.1-0.8-0.3-1c-0.1-0.8-0.5-1.5-1-2c-0.1-0.3-0.4-0.5-0.6-0.8c-0.1-0.1-0.1-0.3-0.3-0.4
	c-0.1-0.1-0.4-0.4-0.5-0.5c-0.3-0.1-0.5-0.3-0.8-0.4c-0.5-0.4-1-0.8-1.5-1c-0.1,0-0.3,0-0.3-0.1c-0.5-0.4-1-0.6-1.5-1
	c0,0-0.1,0-0.1-0.1l0,0c-1.3-0.5-2.5-0.9-3.7-1.5c-0.4-0.1-0.8-0.3-1.3-0.4c-0.3,0-0.5-0.1-0.8-0.3c-2.9-1-6-1.5-9.1-1.9l0,0
	c-1-0.1-2-0.3-2.9-0.3c0.4,0,0.6,0,1,0c-0.8-0.1-1.4-0.1-2.1-0.3c-0.4,0-0.6,0-1,0c-0.4,0-0.6,0-1-0.1H36c-0.1,0-0.4,0-0.5,0
	c-0.1,0-0.3,0-0.4,0.1c-0.5,0-1.1,0-1.6,0c-0.3,0-0.6,0-0.9,0h-0.1c-0.1,0-0.1,0-0.3,0c-0.4,0-0.6,0-1,0c-0.5,0-1,0-1.6,0
	c-0.1,0-0.3,0-0.4-0.1c-0.1,0-0.4,0-0.5,0h-0.1c-0.4,0-0.6,0-1,0.1c-0.4,0-0.6,0-1,0c-0.8,0.1-1.4,0.1-2.1,0.3c0.4,0,0.6,0,1,0
	c-1,0.1-2,0.1-2.9,0.3l0,0c-3,0.4-6.2,0.9-9.1,1.9c-0.3,0.1-0.5,0.1-0.8,0.3c-0.4,0.1-0.8,0.3-1.3,0.4C10.3,9.3,9,9.8,7.8,10.2l0,0
	c0,0,0,0-0.1,0.1c-0.5,0.3-1,0.6-1.5,1c-0.1,0-0.1,0.1-0.3,0.1c-0.5,0.3-1.1,0.6-1.5,1c-0.3,0.1-0.5,0.3-0.8,0.4
	c-0.1,0.1-0.4,0.4-0.5,0.5C3,13.5,3,13.6,2.9,13.7c-0.3,0.3-0.5,0.5-0.6,0.8c-0.5,0.6-0.9,1.3-1,2c-0.1,0.4-0.3,0.8-0.3,1
	c-0.1,0.6-0.3,1.5,0.1,2.1c0,0.4,0.1,0.8,0.1,1.1l0,0c0.6,3.9,2.9,7.2,5,9.8c6,6.9,14.2,9.3,21.9,10.3c1.4,0.1,2.8,0.3,4.2,0.1
	c1.4,0.3,2.8,0.1,4.2,0c7.8-1,15.9-3.3,21.9-10.3c1.9-2.3,3.8-4.9,4.7-8.2l0,0c0,0,0,0-0.1,0c0.4-0.9,0.8-1.8,0.8-2.6
	C64,19,63.9,18.1,63.7,17.5z M54.3,9.6c0.4,0.1,0.8,0.4,1.3,0.5c-0.8-0.3-1.4-0.5-2-0.9C53.6,9.3,53.9,9.4,54.3,9.6z M39,6.3
	c1,0.1,1.9,0.1,2.9,0.3l0,0C40.9,6.4,39.9,6.3,39,6.3L39,6.3z M34.4,6L34.4,6h-0.1C34.2,6,34.4,6,34.4,6z M30.2,6c0.6,0,1.3,0,1.9,0
	h0.1c0,0,0,0,0.1,0c0.6,0,1.1,0,1.8,0c-0.3,0-0.5,0-0.8,0c-0.3,0-0.6,0-0.9,0h-0.1c-0.1,0-0.1,0-0.3,0c-0.3,0-0.6,0-0.9,0
	C30.8,6,30.5,6,30.2,6L30.2,6z M25.5,6.3h0.1c-1,0.1-1.9,0.1-2.9,0.3l0,0C23.8,6.4,24.7,6.3,25.5,6.3z M16.6,7.5
	C16.7,7.5,16.7,7.5,16.6,7.5C16.7,7.5,16.7,7.5,16.6,7.5L16.6,7.5z M15.3,7.8c0.1,0,0.1,0,0.3,0C15.5,7.8,15.3,7.8,15.3,7.8
	C15.2,7.9,15.3,7.9,15.3,7.8z M13.4,8.8c0.5-0.1,1.1-0.3,1.6-0.4c0,0,0.1,0,0.1-0.1c0.3-0.1,0.4-0.1,0.6-0.3
	c0.4-0.1,0.8-0.1,1.1-0.3h0.1c1.4-0.3,2.8-0.5,4-0.8C23,6.8,25,6.5,27.1,6.4l0,0c1,0,2.1-0.1,3.2-0.1c0.6,0,1.3,0,1.9,0h0.1
	c0,0,0,0,0.1,0c0.6,0,1.3,0,1.9,0c1,0,2.1,0.1,3.2,0.1l0,0c2,0.1,3.9,0.4,5.9,0.6c1.4,0.3,2.8,0.4,4,0.8c0,0,0,0,0.1,0
	c0.4,0.1,0.8,0.1,1.1,0.3c0.3,0.1,0.4,0.1,0.6,0.3c0,0,0,0.1,0.1,0.1C50,8.6,50.5,8.7,51,8.8c0.8,0.3,1.6,0.6,2.4,0.9
	c0.8,0.4,1.5,0.6,2.4,0.9c0,0,0,0,0.1,0c0.6,0.4,1.4,0.8,2,1.3c0,0,0,0,0.1,0c0.3,0.1,0.5,0.3,0.6,0.4c0.4,0.1,0.6,0.4,0.9,0.6
	c0,0,0,0,0.1,0c0.8,0.5,1.4,1.1,1.8,1.9c0.6,1,0.9,2.1,0.9,3.2c0,0.3,0,0.5-0.1,0.8c0,0.6,0,1.4-0.3,2c-0.5,1.4-1.4,2.6-2.5,3.7
	c0.3-0.6,0.1-1.5,0.1-2.1c0-0.4-0.1-0.8-0.3-1c-0.1-0.8-0.5-1.5-0.9-2c-0.1-0.3-0.4-0.5-0.6-0.8c-0.1-0.1-0.1-0.3-0.3-0.4
	c-0.1-0.1-0.4-0.4-0.5-0.5c-0.3-0.1-0.4-0.3-0.6-0.4c-0.4-0.4-0.9-0.8-1.4-1c-0.1,0-0.1,0-0.3-0.1c-0.4-0.4-0.9-0.6-1.4-1
	c0,0,0,0-0.1-0.1l0,0C52.1,14.4,51,14,50,13.3c-0.4-0.1-0.8-0.3-1-0.4c-0.3,0-0.4-0.1-0.6-0.3c-2.5-1-5.3-1.5-7.9-1.9l0,0
	c-0.9-0.1-1.8-0.3-2.6-0.3c0.3,0,0.6,0,0.9,0c-0.6-0.1-1.3-0.1-1.9-0.3c-0.3,0-0.6,0-0.9,0c-0.3,0-0.6,0-0.9-0.1h-0.1
	c-0.1,0-0.3,0-0.5,0c-0.1,0-0.3,0-0.4,0.1c-0.5,0-1,0-1.4,0c-0.3,0-0.5,0-0.8,0h-0.1h-0.1c-0.3,0-0.5,0-0.9,0c-0.5,0-0.9,0-1.4,0
	c-0.1,0-0.3,0-0.4-0.1c-0.1,0-0.3,0-0.5,0h-0.1c-0.3,0-0.6,0-0.9,0.1c-0.3,0-0.6,0-0.9,0c-0.6,0.1-1.3,0.1-1.9,0.3
	c0.3,0,0.6,0,0.9,0c-0.9,0.1-1.8,0.1-2.6,0.3l0,0c-2.6,0.4-5.4,0.9-7.9,1.9c-0.3,0-0.4,0.1-0.6,0.3c-0.4,0.1-0.8,0.3-1,0.4
	c-1,0.6-2.1,1.1-3.3,1.5l0,0c0,0,0,0-0.1,0.1c-0.5,0.3-0.9,0.6-1.4,1c-0.1,0-0.1,0.1-0.3,0.1c-0.5,0.3-1,0.6-1.4,1
	c-0.3,0.1-0.4,0.3-0.6,0.4c-0.1,0.1-0.4,0.4-0.5,0.5c-0.1,0.1-0.1,0.3-0.3,0.4c-0.3,0.3-0.4,0.5-0.6,0.8c-0.4,0.6-0.8,1.3-0.9,2
	c-0.1,0.4-0.1,0.8-0.3,1c0,0.4-0.1,0.8-0.1,1.1c-0.8-0.9-1.3-1.8-1.6-2.8c0.5-0.1,0.4-0.9,0.4-1.5c0-0.3-0.1-0.5-0.1-0.8
	c0-1.1,0.3-2.1,0.9-3.2c0.4-0.8,1.1-1.4,1.8-1.9c0,0,0,0,0.1,0c0.3-0.3,0.5-0.5,0.9-0.6c0.3-0.1,0.4-0.3,0.6-0.4c0,0,0,0,0.1,0
	c0.6-0.5,1.4-0.9,2-1.3c0,0,0,0,0.1,0c0.8-0.3,1.5-0.6,2.4-0.9C11.8,9.4,12.7,9.1,13.4,8.8z M59.1,25.2c-1.3,1.1-2.8,2.1-4.2,2.9
	c-3.2,1.6-6.6,2.9-10.2,3.7c-3.9,0.9-8.1,1.3-12.2,1.1l0,0c0,0,0,0-0.1,0c0,0,0,0-0.1,0l0,0c-4,0.1-8.2-0.3-12.2-1.1
	c-3.5-0.8-7.1-2-10.1-3.7c-1.8-1-3.7-2.3-5-3.7v-0.1c0-0.3-0.1-0.5-0.1-0.8c0-1.1,0.3-2.3,0.8-3.3c0.4-0.8,1-1.4,1.6-2
	c0,0,0,0,0.1,0C7.5,18,7.8,17.8,8,17.6c0.3-0.1,0.4-0.3,0.6-0.4c0,0,0,0,0.1,0c0.6-0.5,1.3-0.9,1.9-1.3c0,0,0,0,0.1,0
	c0.8-0.4,1.4-0.6,2.1-1c0.8-0.4,1.4-0.6,2.1-0.9c0.5-0.1,1-0.4,1.5-0.4c0,0,0.1,0,0.1-0.1c0.3-0.1,0.4-0.1,0.6-0.3
	c0.4-0.1,0.8-0.3,1.1-0.3h0.1c1.3-0.3,2.5-0.5,3.7-0.8c1.8-0.4,3.5-0.5,5.3-0.6l0,0c1,0,1.9-0.1,2.9-0.1c0.6,0,1.1,0,1.8,0h0.1
	c0,0,0,0,0.1,0c0.5,0,1.1,0,1.8,0c1,0,1.9,0.1,2.9,0.1l0,0c1.8,0.1,3.5,0.4,5.3,0.6c1.3,0.3,2.5,0.4,3.7,0.8c0,0,0,0,0.1,0
	c0.4,0.1,0.8,0.1,1.1,0.3c0.1,0.1,0.4,0.1,0.6,0.3c0,0,0,0.1,0.1,0.1c0.5,0.1,1,0.3,1.5,0.4c0.8,0.3,1.5,0.6,2.1,0.9
	c0.8,0.4,1.4,0.6,2.1,1c0,0,0,0,0.1,0c0.6,0.4,1.3,0.9,1.9,1.3c0,0,0,0,0.1,0c0.3,0.1,0.4,0.3,0.6,0.4c0.3,0.1,0.5,0.4,0.8,0.6
	c0,0,0,0,0.1,0c0.6,0.6,1.3,1.3,1.6,2c0.5,1,0.8,2.1,0.8,3.3c0,0.3,0,0.5-0.1,0.8C59.1,24.6,59.1,24.8,59.1,25.2z M10.4,9.6
	c0.4-0.1,0.9-0.4,1.3-0.5c-1,0.5-2,0.9-3.2,1.3C9.2,10.1,9.8,9.8,10.4,9.6z M55.4,32.7c-3.2,2.8-6.8,4.7-10.5,5.8
	c-4,1.4-8.3,2-12.6,1.9l0,0c0,0,0,0-0.1,0c0,0,0,0-0.1,0l0,0c-4.2,0.3-8.4-0.5-12.6-1.9c-3.7-1.3-7.3-3.2-10.5-5.8
	c-2.6-2.3-5.4-5.5-6.8-9.6c1,1.5,2.5,2.9,4,3.9c6,4.5,14.2,6,21.9,6.7c1.4,0.1,2.8,0.1,4.2,0c1.4,0.1,2.8,0.1,4.2,0
	c7.8-0.6,15.9-2.1,21.9-6.7c1.4-1,2.8-2.3,3.8-3.7C60.7,27.3,58.1,30.5,55.4,32.7z M63,21.3c-1.1,3.2-4.3,5.7-7.4,7.3
	c-3.2,1.8-6.8,3-10.5,3.8c-4,0.9-8.3,1.4-12.6,1.3l0,0c0,0,0,0-0.1,0c0,0,0,0-0.1,0l0,0c-4.2,0.1-8.4-0.4-12.6-1.3
	c-3.7-0.8-7.3-2-10.5-3.8s-6.3-4.3-7.4-7.3c-0.3-0.8-0.4-1.4-0.4-2.1c0-0.3-0.1-0.5-0.1-0.8c0-1.1,0.3-2.3,0.9-3.3
	c0.5-0.8,1.1-1.4,1.9-2h0.1c0.3-0.3,0.5-0.5,0.9-0.6c0.3-0.1,0.5-0.3,0.6-0.4c0,0,0,0,0.1,0c0.6-0.5,1.4-0.9,2.1-1.3H8
	c0.1-0.1,0.4-0.1,0.5-0.3l0,0c0,0,0,0-0.1,0.1c-0.5,0.3-1,0.6-1.5,1c-0.1,0-0.1,0.1-0.3,0.1c-0.5,0.3-1,0.6-1.5,1
	c-0.3,0.1-0.5,0.3-0.6,0.4c-0.1,0.1-0.4,0.4-0.5,0.5c-0.1,0.1-0.1,0.3-0.3,0.4c-0.3,0.3-0.5,0.5-0.6,0.8c-0.5,0.5-0.9,1.3-0.9,2
	c-0.1,0.4-0.3,0.6-0.3,1c-0.1,0.6-0.1,1.4,0.1,2c0.1,1.9,1.1,3.5,2.4,4.9c0,0,0,0,0,0.1c0,0,0,0,0.1,0c0.8,0.8,1.6,1.5,2.5,2.3
	c5.8,4.4,13.7,5.8,21.3,6.4c1.4,0.1,2.6,0.1,4,0c1.4,0.1,2.6,0.1,4,0c7.6-0.6,15.5-2,21.3-6.4c2.5-1.9,4.9-4.3,5-7.3
	c0.3-0.6,0.1-1.5,0.1-2c0-0.4-0.1-0.6-0.3-1c-0.1-0.8-0.5-1.4-0.9-2c-0.1-0.3-0.4-0.5-0.6-0.8c-0.1-0.1-0.1-0.3-0.3-0.4
	c-0.1-0.1-0.4-0.4-0.5-0.5c-0.3-0.1-0.5-0.3-0.6-0.4c-0.4-0.4-1-0.8-1.5-1c-0.1,0-0.3,0-0.3-0.1c-0.5-0.4-1-0.6-1.5-1l0,0
	c0.1,0,0.3,0.1,0.4,0.1H57c0.8,0.4,1.4,0.9,2.1,1.3c0,0,0,0,0.1,0c0.3,0.1,0.5,0.3,0.6,0.4c0.4,0.1,0.6,0.4,0.9,0.6c0,0,0,0,0.1,0
	c0.8,0.6,1.4,1.3,1.9,2c0.6,1,0.9,2.1,0.9,3.3c0,0.3,0,0.5-0.1,0.8C63.2,19.9,63.2,20.5,63,21.3z M19.5,28.1c-2.1-0.6-4-1.3-5-3.2
	c-0.6-1.1-0.6-2.5-0.4-3.7c0.1-0.9,0.6-1.9,1.5-2.5l0,0c-0.9,0.5-1.1,1.5-1.5,2.3c-0.5,1.1-0.1,2.9,0.3,4C15,27,17.2,28,19.5,28.1
	C19.5,28.2,19.5,28.2,19.5,28.1z M50,20c0.6,0.8,1.1,1.6,1,2.6c0,1-0.9,2-1.6,2.8c0,0,0,0.1,0,0c1-0.6,1.6-1.6,1.8-2.8
	C51.4,21.7,50.6,20.8,50,20C50,20,49.9,20,50,20z M26.4,21.8c0.1,0,0.1,0,0.3,0c0.1,0,0.3-0.1,0.4-0.3v-0.1c0-0.1,0-0.1-0.1-0.3
	c-0.1-0.1-0.4-0.3-0.6-0.1l0,0l0,0c0,0,0-0.1-0.1,0l0,0l0,0c-0.1,0.1-0.3,0.4-0.3,0.6C26,21.7,26.2,21.8,26.4,21.8z M26.3,21
	L26.3,21L26.3,21C26.4,21,26.4,21,26.3,21c0.1,0,0.1,0,0.3,0l0,0c0.1,0,0.1,0.1,0.1,0.1c0,0.1,0,0.1,0,0.1l0,0c0,0-0.1,0-0.1,0.1
	c-0.1,0-0.3-0.1-0.3-0.3C26.3,21.2,26.3,21.2,26.3,21z M27.6,23.3L27.6,23.3L27.6,23.3C27.4,23.3,27.4,23.3,27.6,23.3
	C27.4,23.3,27.4,23.3,27.6,23.3c-0.1,0.1-0.1,0.1,0,0.3l0,0h0.1c0.1,0,0.1,0,0.3-0.1c0.1-0.1,0.1-0.3,0.1-0.4l0,0l0,0
	c0-0.1-0.1-0.1-0.1-0.1c-0.1,0-0.3,0-0.4,0.1c0,0-0.1,0-0.1,0.1v0.1C27.4,23.3,27.4,23.3,27.6,23.3z M21.1,18.9
	c0.1,0.3,0.4,0.4,0.6,0.4c0.4,0,0.9-0.1,1.1-0.4c0.4,0.8,1.1,1.3,2.1,1.3l0,0l0,0c0.9,0,1.6-0.5,2-1.1c0.1-0.1,0.1-0.4,0.1-0.5
	c0-0.3,0-0.4-0.1-0.5c-0.4-0.6-1-0.9-1.8-1.1c0.3-0.3,0.4-0.6,0.4-1c0-0.4-0.1-0.6-0.6-0.8c-0.9-0.3-1.8,0-2.5,0.5
	c-0.4,0.3-0.8,0.5-1,0.9C21.1,16.9,20.4,18.3,21.1,18.9C21,18.9,21.1,18.9,21.1,18.9z M22.5,18.8C22.5,18.8,22.4,18.8,22.5,18.8
	l0.1-0.1l0,0C22.6,18.6,22.5,18.8,22.5,18.8z M25,19.8c-1,0-1.6-0.6-2-1.4c0-0.1-0.1-0.1-0.3,0h-0.1l0,0l0,0
	c0.3-0.3,0.4-0.4,0.8-0.5l0,0c0.1,0.6,0.5,1.1,1.1,1.4c0.3,0.1,0.5,0.1,0.9,0.1c0.1,0,0.3,0,0.4,0C25.5,19.8,25.3,19.8,25,19.8z
	 M21.4,17.1c0.4-0.9,1.4-1.5,2.4-1.8c0.3-0.1,0.5-0.1,0.8-0.1c0.3,0,0.5,0,0.8,0.1c0.6,0.4,0.1,1-0.3,1.4c-0.1,0-0.1,0.1,0,0.3
	c0.4,0.1,0.9,0.3,1.3,0.5c0.8,0.4,1,1.3,0.3,1.6l0,0c-1.1,0.6-2.4-0.1-2.8-1.1l0,0c0,0,0,0,0-0.1c0-0.1,0-0.1-0.1-0.1
	c-0.3,0-0.4,0.1-0.5,0.1c-0.3,0.1-0.4,0.4-0.6,0.5c-0.5-0.1-0.6-0.4-0.6-0.6c0-0.4,0.3-0.8,0.5-1.1c0.5-0.8,1.4-0.8,2.3-1
	c0,0,0,0,0-0.1v-0.1c-0.5-0.1-1.1,0-1.6,0.4c-0.5,0.4-1,0.8-1.1,1.3c-0.4,0.6-0.1,1.4,0.6,1.5l0,0c-0.4,0.3-1,0.3-1.1-0.3
	c0-0.1,0-0.1,0-0.3C21,17.8,21.3,17.4,21.4,17.1z M36,24.2L36,24.2L36,24.2c0.3,0,0.5-0.1,0.5-0.3c0,0,0.1-0.1,0-0.3
	c0-0.1,0-0.1-0.1-0.1l0,0l0,0l0,0l0,0l0,0c0,0.1,0,0.1,0,0.1h-0.1c0,0,0-0.1,0.1-0.1c0,0,0,0,0-0.1c0-0.1-0.1-0.3-0.3-0.1l0,0l0,0
	c-0.3,0.1-0.3,0.4-0.3,0.5C35.8,24.2,35.9,24.2,36,24.2z M34.5,20.9c0,0.1,0,0.1,0,0.1s0,0.1,0.1,0.1h0.1c0.3,0,0.4-0.1,0.5-0.3
	c0-0.1,0.1-0.1,0-0.3c0-0.1,0-0.4-0.3-0.4c-0.3-0.1-0.4-0.1-0.6,0c0,0-0.1,0-0.1,0.1c-0.1,0.1-0.1,0.3,0,0.3
	C34.4,20.8,34.4,20.8,34.5,20.9z M34.7,20.5L34.7,20.5c0.1,0,0.1,0.1,0.1,0.3l0,0l0,0C34.9,20.8,34.7,20.7,34.7,20.5
	C34.7,20.7,34.7,20.7,34.7,20.5L34.7,20.5L34.7,20.5z M34.9,24.8L34.9,24.8L34.9,24.8c0.3,0,0.4-0.1,0.5-0.3c0-0.1,0.1-0.1,0.1-0.3
	v-0.1c0-0.1,0-0.1-0.1-0.1c-0.1,0-0.3,0-0.4,0s-0.1,0.1-0.3,0.3c0,0.1,0,0.1,0.1,0.1H35l0.1-0.1c0,0.1,0,0.3-0.1,0.4l0,0
	c-0.1,0-0.3,0-0.3-0.1h-0.1c0,0-0.1,0-0.1,0.1C34.6,24.7,34.6,24.8,34.9,24.8z M41.2,14.6c-0.4,0.3-0.6,0.5-0.6,1
	c0,0.1,0,0.1,0.1,0.1c0.1,1,1.1,1.6,2.1,1.9c0.1,0,0.4,0,0.5,0c0.9,0,1.5-0.6,1.5-1.5V16C44.7,14.7,42.3,13.8,41.2,14.6z M44.1,17.2
	c-0.4,0.3-1,0.3-1.5,0.1c-0.8-0.3-1.5-0.9-1.6-1.6c0.4-0.5,0.8-0.9,1.4-0.9c0.1,0,0.3,0,0.4,0c0.9,0.1,1.6,0.8,1.8,1.5
	C44.4,16.7,44.3,17,44.1,17.2z M40.5,18.8c0.5,0.1,1.1,0.1,1.6,0.4c0.6,0.3,0.6,0.9,0.8,1.4h0.1h0.1c0-0.1,0-0.1,0-0.3
	c0-0.5-0.3-1-0.6-1.3c-0.5-0.3-1.3-0.3-1.9-0.4C40.5,18.6,40.5,18.6,40.5,18.8C40.5,18.8,40.5,18.6,40.5,18.8
	C40.5,18.6,40.5,18.8,40.5,18.8z M35,22.9c0.9-0.3,1.6-1.1,1.5-2c0-0.5-0.3-0.9-0.6-1.3c-0.8-0.5-2.5-0.6-3.4,0l0,0v-0.1
	c0-0.4,0.4-0.9,0.9-1.3h0.1h0.1c0.3-0.1,0.5-0.3,0.6-0.5c0.3,0.1,0.8,0.3,0.8,0.4l0,0c0,0,0,0-0.1,0l0,0c-0.1,0-0.1,0.1-0.1,0.1
	c0.1,0.3,0.3,0.4,0.5,0.5c0,0.1,0.1,0.3,0.1,0.1c0,0,0,0,0.1,0c0.3,0.1,0.4,0.1,0.6,0.1l0,0l0,0c0.1,0,0.3-0.1,0.1-0.1v-0.1l0,0
	c0.1,0,0.3,0,0.4,0h0.1c0.3,0,0.5-0.3,0.5-0.4l0,0l0,0c0-0.6-0.9-0.6-1.4-0.8l0,0c0-0.1,0.1-0.1,0.1-0.1c0.1-0.1,0.3-0.1,0.4-0.1
	c0,0,0,0,0.1,0c0.3,0,0.5,0.3,0.6,0.4c0.3,0.1,0.4,0.3,0.6,0.3h0.1c0.1,0,0.4-0.3,0.4-0.4l0,0l0,0c0-0.3-0.3-0.4-0.4-0.6
	c0.4,0.3,0.9,0.4,1.3,0.4l0,0l0,0c0.1,0,0.1,0,0.1-0.1c0,0,0,0,0-0.1c-0.1-0.1-0.5-0.4-0.5-0.6v-0.1c0.1-0.3,0.6-0.4,0.9-0.5
	c0,0,0.1-0.1,0-0.1c0,0,0,0,0-0.1c-0.5-0.4-1-0.6-1.6-0.8c0.4-0.3,0.9-0.3,1-0.6l0,0l0,0c0,0,0-0.1-0.1-0.1s-0.3,0.1-0.5,0.1
	c-0.4,0-0.1-0.1-0.4-0.3c-0.4-0.1-0.8,0.1-1.1,0.3c0-0.1-0.1-0.1-0.3,0l0,0c-0.1-0.1-0.1-0.3-0.3-0.4c0-0.1-0.1-0.1-0.1,0l0,0l0,0
	l0,0l0,0c-0.1,0.1-0.1,0.1-0.1,0.3c0,0.1-0.1,0.1-0.1,0.1h-0.1c0-0.1,0-0.1,0-0.3l0,0c0-0.1,0-0.1-0.1-0.1l0,0l0,0L35.6,14
	c-0.3,0.1-0.4,0-0.4-0.1s0-0.3,0-0.4l0,0l0,0c0-0.1-0.1-0.1-0.3,0c0,0-0.1,0-0.1,0.1c-0.1,0.3-0.1,0.6-0.1,0.9
	c-0.3-0.1-0.5-0.4-0.6-0.6c0-0.1-0.3-0.1-0.3,0c-0.1,0-0.1,0.1-0.1,0.1c0.1,0.3,0.1,0.5,0.3,0.6c-0.1,0-0.3,0-0.3,0
	c-0.1,0-0.1,0-0.3,0c-0.1,0-0.1,0.1-0.1,0.1c0,0.1,0.1,0.3,0.3,0.4c0,0,0,0-0.1,0c-0.1,0-0.1,0-0.3,0.1C33,15.4,33,15.6,33,15.9
	c-0.1,0.4-0.1,0.9,0.1,1.3c-0.3,0.3-0.5,0.4-0.6,0.6c-0.5,0.4-1,1-0.6,1.6l-0.1,0.1l-0.1,0.1c0.1-0.1,0.1-0.4,0.1-0.5
	c0-0.4-0.1-0.6-0.3-1c0.1,0,0.1,0,0.1-0.1l0,0c-0.1-0.3-0.3-0.4-0.3-0.6c0-0.1,0-0.3,0.1-0.4c0.1-0.1,0.3-0.3,0.3-0.4l0,0l0,0
	c0-0.1,0-0.4-0.1-0.5c-0.1-0.3-0.1-0.4-0.3-0.6c-0.1-0.3-0.4-0.3-0.6-0.3c0,0-0.1,0-0.1-0.1c0-0.4,0.6-1.4,0.6-1.5c0,0,0,0,0-0.1
	c0-0.1-0.1-0.3-0.3-0.1l0,0c0,0,0,0-0.1,0c-0.1,0.1-0.4,0.3-0.5,0.5c-0.1,0-0.1,0.1-0.3,0c0-0.1,0-0.3,0.1-0.3l0,0l0,0
	c0-0.1-0.3-0.3-0.3-0.1c0,0-0.1,0-0.1,0.1s-0.1,0.3-0.1,0.5c0,0,0,0-0.1,0.1h-0.1c-0.4,0-0.5-0.5-0.5-0.6s-0.1-0.1-0.3-0.1l0,0l0,0
	c-0.1,0.1-0.3,0.3-0.4,0.3c-0.1,0.1-0.4,0.1-0.5,0c-0.1,0-0.1,0-0.3,0c-0.1,0-0.1,0.1-0.1,0.1c0.1,0.3,0.3,0.5,0.4,0.6
	c-0.4,0-0.9-0.3-1.1-0.3c-0.3,0-0.6,0-0.9,0.1c0,0-0.1,0-0.1,0.1v0.1l0,0c0,0-0.1,0-0.1,0.1c0,0.4,0.5,0.5,0.6,0.8
	c0.3,0.1,0.5,0.3,0.8,0.4c-0.1,0-0.4,0.1-0.5,0.3c-0.1,0.1-0.3,0.1-0.4,0.4c0,0.1,0,0.1,0.1,0.1h0.1c0.3,0,0.4,0,0.6-0.1
	c-0.1,0.3-0.3,0.4-0.3,0.6v0.1c0.3,0.1,0.5,0.4,0.9,0.5l0,0l0,0h0.1c0.1,0.1,0.4,0.3,0.5,0.4h0.1c0.1,0,0.4-0.1,0.5-0.3
	c0.1-0.1,0.3-0.3,0.3-0.5h0.1h0.1c0.3,0,0.5,0,0.5,0.3c0,0.1,0.1,0.1,0.1,0.1c0.1,0,0.1,0,0.1-0.1l0,0l0,0c0-0.1,0-0.1,0-0.3
	c0.5,0.9,1,1.9,0.5,2.9c0,0.1,0,0.1,0.1,0.1l0,0c-0.3,0.4-0.3,0.9-0.3,1.3c0.1,1,1.1,1.3,2,1.3C34,23,34.6,23,35,22.9z M33.7,16.4
	c0,0,0-0.1,0.1-0.3c0.1,0.1,0.1,0.3,0.1,0.3s0.1,0.1,0.1,0c0.1,0,0.1,0,0.1,0c0.1-0.1,0.1-0.3,0.1-0.4c0-0.3-0.1-0.4-0.1-0.6
	c0.1,0,0.1,0,0.3,0c0,0,0,0,0.1,0l0,0c0.1,0,0.3-0.1,0.1-0.1l0,0l0,0v-0.1c0.1,0,0.3,0.1,0.4,0.1l0,0l0,0c0,0,0.1,0,0.1-0.1
	s0-0.1,0-0.3h0.1h0.1l0,0c0,0.1,0,0.1,0.1,0.1l0,0l0,0c0.3,0,0.4-0.1,0.5-0.3c0,0.1,0.3,0.3,0.4,0.3s0.3,0,0.3-0.1
	c0.3,0,0.4-0.1,0.6-0.3c0.1-0.1,0.3-0.1,0.4-0.1s0.1,0,0.3,0.1c0,0,0,0,0.1,0.1c-0.1,0-0.3,0.1-0.3,0.1c-0.1,0-0.1,0.1-0.3,0.1
	c-0.1,0.1,0,0.1,0,0.3c0.6,0.1,1.1,0.4,1.8,0.6c-0.3,0.1-0.5,0.1-0.6,0.3c-0.1,0.1-0.3,0.3-0.4,0.4c-0.1,0.3,0.1,0.4,0.3,0.5
	c-0.4-0.1-0.8-0.3-1-0.5c0-0.1-0.1-0.1-0.3,0h-0.1c-0.1,0.3-0.1,0.4,0,0.6c0.1,0.1,0.4,0.4,0.3,0.5c-0.1,0-0.5-0.3-0.6-0.3
	c-0.6-0.4-1-0.5-1.6-0.1c0,0-0.1,0.1-0.3,0.1c-0.4,0.4,0.1,0.5,0.5,0.6c0.3,0,0.4,0.1,0.6,0.1c0.3,0,0.1,0.3-0.1,0.4
	c-0.3,0-0.4,0-0.6-0.1c-0.3-0.1-0.4,0-0.5,0l0,0c-0.1-0.1-0.1-0.1-0.3-0.3c0.1-0.1,0.3-0.1,0.3-0.3c0-0.3-0.8-0.6-1.1-0.8
	c0.4-0.3,0.8-0.5,1.1-0.8c0.5-0.4,1.3-0.9,2-0.9c0.1,0,0.3,0.1,0.4,0.1h0.1v-0.1c0-0.1-0.1-0.3-0.3-0.3c-0.5-0.1-1.1,0.1-1.5,0.4
	c-0.4,0.1-0.8,0.4-1,0.6c-0.4,0.3-0.6,0.4-1,0.6c-0.1,0.1-0.3,0.3-0.5,0.4c0-0.1-0.1-0.3-0.1-0.4C33.6,16.9,33.7,16.6,33.7,16.4z
	 M31.5,17.4c-0.1,0.1-0.1,0.1-0.1,0.3c0,0,0,0,0-0.1c-0.3-0.5-0.6-1-1.1-1.4c-0.6-0.4-1.3-0.5-2-0.8h-0.1c-0.1,0-0.1,0.1,0,0.1
	c1.1,0.4,2.1,0.8,2.8,1.6l0,0c-0.3-0.1-0.8,0.1-0.8-0.1c0,0,0-0.1,0-0.3l0,0c0-0.1-0.1-0.1-0.3-0.1h-0.1l0,0v0.1
	c-0.1,0.3-0.3,0.8-0.5,0.9c-0.1,0-0.1,0-0.3-0.1c-0.1-0.1-0.1-0.1-0.3-0.3c-0.1,0-0.1,0-0.1-0.1s0.1-0.3,0.1-0.4l0,0l0,0
	c0-0.1-0.1-0.1-0.1-0.1l0,0l0,0c-0.3,0.1-0.3,0.4-0.3,0.5c-0.1,0-0.3-0.1-0.5-0.1l-0.1-0.1c0-0.3,0.3-0.5,0.4-0.6c0,0,0,0,0-0.1l0,0
	c0.1,0,0.1,0,0.3,0.1h0.1c0.1,0,0.3-0.1,0.1-0.1V16c-0.4-0.3-0.8-0.5-1.1-0.6c-0.3-0.1-1-0.4-1-0.6l0,0c0.1,0,0.3,0,0.4,0
	c0.4,0,0.9,0.1,1.3,0.3c0.1,0,0.3,0,0.4,0c0.1,0,0.3,0,0.4-0.1v-0.1v-0.1c-0.1-0.1-0.3-0.3-0.4-0.4c0.3,0,0.4-0.1,0.6-0.3
	c0.1,0.3,0.4,0.6,0.8,0.6H30c0.1,0,0.4,0,0.4-0.1l0,0l0,0l0,0c0.1,0,0.3,0,0.4-0.1c-0.1,0.3-0.3,0.5-0.4,0.8
	c-0.1,0.5,0.1,0.6,0.6,0.6c0.3,0,0.1,0.3,0.3,0.4C31.3,16.7,31.7,16.9,31.5,17.4z M31.7,21.9c0-0.1,0-0.3,0-0.4
	c0-0.4,0.1-0.9,0.5-1.1c0.3-0.1,0.4-0.3,0.6-0.3H33h0.1l0,0l0,0c0.1,0,0.1,0,0.1-0.1v-0.1c0.1,0,0.3-0.1,0.5-0.1
	c0.1-0.1,0.4-0.1,0.6-0.1c0.3,0,0.6,0,0.9,0.1c0.6,0.3,0.9,0.9,0.9,1.5c0,0.5-0.4,0.8-0.8,1.1c-0.1,0.1-0.3,0.1-0.4,0.1
	C34.1,22.8,32.1,23,31.7,21.9z M27.9,22.2h0.1c0.1,0,0.3,0,0.3-0.1c0.1-0.1,0.1-0.1,0.1-0.3v-0.1c0-0.1-0.3-0.3-0.4-0.3h-0.1l0,0
	c0,0-0.1,0-0.1,0.1h-0.1c0,0-0.1,0-0.1,0.1C27.7,21.9,27.7,22,27.9,22.2z M28.1,21.8L28.1,21.8L28.1,21.8L28.1,21.8L28.1,21.8
	L28.1,21.8L28.1,21.8z M30.5,25.8c0-0.6,0.1-1.3,0.1-1.9c0-0.1,0-0.1,0-0.3c0,0,0-0.1-0.1-0.1C30.3,22.9,30,22,30,21.2
	c0-0.4,0.1-0.8,0.4-1.1v-0.1c0-0.1-0.1-0.1-0.1-0.1c-1.4,0-2.6,0.4-4,0.3c-0.4,0-1.1-0.1-1.5,0.1c-0.1,0-0.1,0.1-0.3,0.3
	c0,0,0,0,0,0.1l0,0l0,0c0,0,0,0-0.1,0c-0.3,0.5,0.1,1,0.4,1.5c0.4,0.8,0.8,1.6,1,2.4l0.1,0.1v0.1c0.1,0.5,0.5,0.9,0.5,1.4
	c0,0.1,0.1,0.1,0.3,0.1h0.1C27.9,25.8,29.2,25.9,30.5,25.8C30.3,25.9,30.5,25.9,30.5,25.8z M25.9,24.6
	C25.9,24.6,25.9,24.4,25.9,24.6c-0.3-0.8-0.5-1.5-0.9-2.1c-0.1-0.4-0.6-0.9-0.6-1.4c0-0.1,0-0.1,0-0.1l0,0l0,0l0,0h0.1
	c0.1-0.1,0.5-0.3,0.9-0.3c0.4,0,0.8,0,1,0c0.1,0,0.1,0,0.1,0c1-0.1,2-0.3,3-0.3c-0.6,1-0.1,2.4,0.3,3.4c-0.6,0.1-1.4,0.1-2,0.4
	C27.3,24.2,26.7,24.6,25.9,24.6L25.9,24.6z M30.1,24.9c0,0.3,0,0.4,0,0.6l0,0c-0.1,0-0.6,0-0.8,0c-1,0-1.9,0-2.9,0.4
	c-0.1-0.4-0.3-0.8-0.4-1.1c0.6-0.1,1.1-0.3,1.8-0.5c0.8-0.3,1.6-0.4,2.4-0.5C30.2,24.3,30.2,24.6,30.1,24.9z M39.2,25.4L39.2,25.4
	c0.1,0,0.1-0.1,0.1-0.1v-0.1c-0.1-0.1-0.3-0.1-0.3-0.3c0,0,0-0.1-0.1-0.1l0,0c-0.9-0.8-1.6-1.6-2-2.6c0-0.1-0.1-0.1-0.3,0h-0.1
	c-0.3,0.1-1,0.5-1.3,0.8c-0.1,0-0.1,0.1-0.3,0.1c-0.5,0.4-0.9,0.8-1.4,1.1c-0.1,0.1-0.3,0.1-0.4,0.3h-0.1H33c0,0-0.1,0-0.1,0.1
	c0,0.3,0.1,0.5,0.1,0.9c0,0.5-0.3,0.9-0.1,1.5c0,0.1,0.1,0.1,0.1,0.1c0.5,0,1.1,0.3,1.6,0.3c0,0,0.1,0,0.3,0c0.5,0,1-0.1,1.4-0.1
	c1-0.1,1.9-1,2.8-1.3C39.2,25.6,39.2,25.6,39.2,25.4z M36.5,22.5c0.4,0.8,1,1.6,1.8,2.3c-0.9,0-1.6,0.3-2.4,0.5
	c-0.5,0.1-1,0.5-1.5,0c-0.3-0.3-0.5-0.6-0.9-0.9l0,0C34.6,23.9,35.4,22.9,36.5,22.5z M38.8,25.3L38.8,25.3c-0.1,0.1-0.1,0.1-0.1,0.1
	c-0.4,0.1-0.6,0.3-1,0.5c-0.8,0.4-1.4,0.6-2.3,0.8c-0.4,0-2,0.1-2-0.4c0-0.4,0.1-0.6,0.1-1v-0.1v-0.1c0.4,0.5,0.8,0.9,1.4,0.9l0,0
	l0,0c0.5,0,1.1-0.4,1.6-0.5C37.3,25.3,37.9,25.2,38.8,25.3C38.8,25.2,38.8,25.2,38.8,25.3L38.8,25.3z M26.9,22.4
	c-0.3-0.1-0.5-0.1-0.6,0c0,0-0.1,0-0.1,0.1H26c0,0-0.1,0-0.1,0.1c0,0.3,0.1,0.4,0.4,0.4c0,0,0,0,0.1,0c0.3,0,0.4-0.3,0.5-0.4
	C26.9,22.5,26.9,22.5,26.9,22.4C26.9,22.5,26.9,22.5,26.9,22.4C26.9,22.5,26.9,22.4,26.9,22.4z M26.6,22.8L26.6,22.8
	c-0.1,0-0.3,0-0.3-0.1c0.1,0,0.3-0.1,0.4-0.1c0,0,0,0,0.1,0C26.7,22.7,26.6,22.7,26.6,22.8z M43.7,18.6c-1-0.9-2.5-1.1-3.8-1
	c-0.5,0-0.9,0.1-1.3,0.4c-0.1,0.1-0.4,0.3-0.5,0.4c-0.4,0.5,0.6,1,0.8,1.6H39h0.1c0-0.1,0-0.1,0-0.3c0-0.3-0.1-0.4-0.3-0.6
	c-0.1-0.1-0.3-0.3-0.4-0.4l-0.1-0.1c0-0.3,0.6-0.5,0.9-0.6c0.4-0.1,0.9-0.1,1.3-0.1c0.6,0,1.1,0.1,1.6,0.3c1.1,0.4,1.8,1.1,1.8,2.1
	c0,0.4-0.3,0.6-0.5,0.8c-0.5,0.3-1,0.1-1-0.5c0,0,0-0.1,0-0.3l0,0l0,0c0-0.1,0-0.1-0.1-0.1S42.1,20,41.8,20h-0.1l0,0c0,0,0,0-0.1,0
	c-0.1,0.1-0.1,0.1-0.1,0.4l0,0c-0.1,0-0.1,0.1-0.3,0.1c-0.6,0.4-1.1,1-1.8,1.4c-0.1,0-0.3,0.1-0.4,0.1c-0.4,0.1-0.9,0.1-1.3,0
	c-0.1,0.1-0.3,0.1-0.4,0c0,0,0,0-0.1,0c0,0,0-0.1-0.1-0.1v-0.1c0-0.5,1-1.3,1.4-1.5c0,0,0,0,0-0.1c0,0,0-0.1-0.1-0.1
	c-0.1,0-0.1,0.1-0.3,0.1c-1,0.6-2,1.8-0.6,2.4c0.3,0.3,0.5,0.4,1,0.4c0.1,0,0.4,0,0.5,0c0.8-0.1,1.9-0.6,2.5-1.3
	c0.1,0.3,0.5,0.3,0.9,0.3s0.9-0.1,1.1-0.3c0.6-0.3,0.9-0.9,0.9-1.5c0-0.4-0.1-0.8-0.4-1C43.9,19,43.8,18.9,43.7,18.6z M41.8,21.4
	C41.8,21.4,41.8,21.3,41.8,21.4C41.8,21.3,41.8,21.3,41.8,21.4C41.8,21.3,41.8,21.3,41.8,21.4c0-0.1-0.1-0.3-0.3-0.1h-0.1
	c-0.1,0.3-0.4,0.5-0.6,0.6c-0.5,0.3-1.1,0.5-1.5,0.6c-0.1,0-0.1,0-0.3,0.1c0.9-0.4,1.6-1.3,2.3-1.8v-0.1l0,0l0,0l0.1-0.1h0.1
	c0,0.6,0.4,1.1,0.9,1.1C42.3,21.8,41.8,21.8,41.8,21.4z M21,20.5L21,20.5c-0.3,0.1-0.3,0.3-0.3,0.4c0,0,0,0.1,0.1,0.1l0,0l0,0
	c0,0.1,0,0.3-0.1,0.3c0,0-0.1,0-0.1,0.1v-0.1c0,0,0,0,0-0.1c0-0.1-0.1-0.1-0.1-0.1l0,0l0,0c-0.1,0.1-0.1,0.3-0.1,0.4
	c0,0,0,0.1,0.1,0.1l0,0l0,0c0.4,0,0.8-0.3,0.8-0.6c0-0.1,0-0.3-0.1-0.4C21.1,20.5,21.1,20.5,21,20.5z M43.9,26.3
	c-1.9,0.9-3.5,1.9-5.7,2.3l0,0l0,0v0.1l0,0l0,0C40.4,28.3,42.4,27.6,43.9,26.3C44.1,26.4,44.1,26.4,43.9,26.3
	C44.1,26.3,44.1,26.3,43.9,26.3z M36.1,24.4c-0.1,0-0.1,0.1-0.1,0.1l0,0c0,0-0.1,0-0.1,0.1c0,0.1,0,0.1,0,0.3c0,0,0,0.1,0.1,0.1
	c0,0,0,0,0.1,0l0,0c0.3,0,0.5,0,0.5-0.3v-0.1c0-0.1-0.3-0.3-0.4-0.3H36.1z M36.4,24.8L36.4,24.8L36.4,24.8L36.4,24.8L36.4,24.8
	L36.4,24.8L36.4,24.8L36.4,24.8C36.3,24.8,36.3,24.8,36.4,24.8C36.3,24.8,36.3,24.7,36.4,24.8C36.3,24.7,36.3,24.7,36.4,24.8
	L36.4,24.8z M22.1,19.9c-0.5-0.1-1.3,0-1.8,0.4c-0.6,0.4-0.9,0.9-0.5,1.5c0,0,0.1,0.1,0.1,0h0.1c0.3,0.9,1.4,1.4,2.4,1.4
	c0.8,0,1.4-0.4,1.4-1.1c0,0,0-0.1,0-0.3C23.7,21,23,20,22.1,19.9z M23,22.8c-0.1,0.1-0.4,0.1-0.6,0.1c-1,0-2.1-0.6-2.1-1.6
	c0-0.1,0-0.3,0-0.3l0,0l0,0c0-0.1-0.1-0.1-0.1,0l0,0l0,0c0.1-0.3,0.4-0.5,0.8-0.6c0.3-0.1,0.4-0.1,0.6-0.1c0.3,0,0.4,0,0.6,0.1
	c0.6,0.3,1.1,0.9,1.3,1.5C23.4,22.2,23.3,22.5,23,22.8z M42.1,15.2C41.9,15.2,41.9,15.2,42.1,15.2c-0.1,0-0.1,0-0.3,0
	c0,0-0.1,0-0.1,0.1c-0.3,0.1-0.3,0.4-0.3,0.5s0.1,0.1,0.1,0.1l0,0c0,0,0,0,0.1,0c0.3,0,0.4-0.1,0.5-0.3c0-0.1,0.1-0.1,0.1-0.3
	c0-0.1,0-0.1-0.1-0.3C42.2,15.1,42.1,15.1,42.1,15.2z M41.9,15.6L41.9,15.6c-0.1,0-0.1,0.1-0.1,0.1l0,0
	C41.8,15.6,41.8,15.5,41.9,15.6c0-0.1,0-0.1,0-0.1C41.9,15.5,41.9,15.5,41.9,15.6z M8.4,21.2c-0.1,0-0.3,0-0.4,0c0,0,0,0,0,0.1
	c0.1,0.1,0.3,0,0.3,0.1S8.2,21.7,8,21.7c-0.1,0.1-0.3-0.1-0.3-0.3s-0.1-0.1-0.1,0s0,0.4,0.3,0.4c0.1,0,0.3,0,0.4-0.1
	s0.3-0.3,0.3-0.4S8.5,21.2,8.4,21.2z M12.4,18.4c-0.1,0-0.1,0-0.3,0.1l0,0v0.1l0,0c-0.1-0.1-0.3,0-0.1,0.1c0.1,0.1,0.3,0.1,0.4,0.1
	s0.3-0.1,0.3-0.3C12.6,18.4,12.6,18.4,12.4,18.4z M11.1,22.9c-0.1,0.1-0.1,0.3,0,0.3c-0.1,0-0.1,0-0.3,0l0,0
	c0.1-0.1-0.1-0.3-0.1-0.1c-0.1,0.1-0.1,0.1-0.1,0.3c0,0.1,0.1,0.1,0.3,0.1c0.1,0,0.4,0,0.5,0c0.1-0.1,0.1-0.3,0.1-0.4
	C11.4,22.8,11.2,22.8,11.1,22.9z M45.7,27.6l-0.1,0.1h0.1l0,0l0,0l0,0l0,0l0,0l0,0l0,0l0,0l0,0l0,0l0,0l0,0l0,0l0,0c0,0,0,0,0,0.1
	l0,0l0,0l0,0l0,0l0,0l0,0l0,0l0,0c0,0,0-0.1-0.1-0.1c0,0-0.1-0.1-0.1,0c-0.1,0-0.1,0.1-0.1,0.1c0,0.1,0.1,0.4,0.4,0.4
	c0.1,0,0.3-0.1,0.3-0.3c0-0.1,0.1-0.3,0-0.4C46.1,27.6,45.8,27.6,45.7,27.6z M47.8,26.1C47.8,26.1,47.7,26.1,47.8,26.1
	c-0.1,0-0.1,0-0.1,0l-0.1,0.1l0,0l0,0l0,0l0,0c0-0.1-0.1-0.1-0.3,0c0,0.1,0,0.3,0.1,0.3s0.4-0.1,0.5-0.1c0,0,0.1-0.1,0-0.1
	C48,26.2,48,26.1,47.8,26.1z M48.5,28.1c-0.1,0-0.1,0.1-0.1,0.1s0,0,0,0.1h-0.1c-0.1,0,0,0.3,0.1,0.1c0.1,0,0.1,0,0.3-0.1
	c0.1,0,0.1-0.1,0.1-0.3C48.6,28.1,48.6,28.1,48.5,28.1z M52,17.9c0-0.1,0-0.3,0-0.4s0-0.3-0.1-0.3h-0.1c0,0.1,0,0.1,0,0.3
	c0,0.1,0,0.1,0,0.3c0,0,0,0-0.1,0c0,0-0.1,0,0,0c-0.1-0.1-0.3,0-0.1,0.1C51.6,18,51.8,18,52,17.9C52,18,52,17.9,52,17.9z M55.2,19.5
	C55.2,19.5,55,19.5,55.2,19.5c-0.3,0.3,0,0.4,0.1,0.3c0,0,0,0,0.1-0.1c0.1,0,0.1-0.1,0-0.3C55.3,19.4,55.2,19.4,55.2,19.5z
	 M52.6,19.5L52.6,19.5c-0.1,0.1,0,0.1,0,0.3c0,0.1,0,0.1-0.1,0.3c-0.1,0.1-0.4,0.1-0.6,0.1V20c0-0.1-0.1-0.1-0.1,0
	c0,0.1,0,0.1,0,0.3v0.1c0.3,0.1,0.5,0,0.8-0.1C52.6,20,52.9,19.6,52.6,19.5z M28.2,28.3c0,0.1-0.1,0.4-0.3,0.4h-0.1
	c0,0,0-0.1,0.1-0.3c0-0.1-0.1-0.1-0.1-0.1c-0.1,0.1-0.1,0.3-0.1,0.4s0.1,0.1,0.3,0.1c0.4,0,0.5-0.4,0.5-0.6
	C28.4,28.3,28.2,28.3,28.2,28.3z M30.5,27.7h-0.1v-0.1c0,0-0.1-0.1-0.1,0c0,0.1,0,0.1,0.1,0.1C30.2,27.8,30.3,27.8,30.5,27.7
	C30.5,27.8,30.5,27.7,30.5,27.7z M30.7,27.3h-0.1c0,0-0.1,0.1,0,0.1C30.6,27.5,30.6,27.5,30.7,27.3c-0.1,0.1,0,0.1,0,0.1
	C30.7,27.6,30.8,27.6,30.7,27.3C30.8,27.5,30.8,27.3,30.7,27.3z M30.1,29.7c-0.1,0-0.4,0-0.4,0.1c0,0.1,0.1,0.1,0.3,0l0,0
	c0,0.1-0.3,0.3-0.4,0.3V30c0-0.1-0.1-0.1-0.1,0v0.3c0,0,0,0.1,0.1,0.1C30,30.4,30.2,30.1,30.1,29.7C30.2,29.8,30.2,29.8,30.1,29.7z
	 M20.1,28.7c-0.1,0.3-0.3,0.5-0.6,0.5c-0.1,0-0.1,0-0.3-0.1c0,0,0-0.1,0.1-0.3c0.1-0.1,0-0.1-0.1-0.1C19.1,28.8,19,29,19,29.1
	s0.3,0.3,0.4,0.3C19.9,29.3,20.3,29.1,20.1,28.7C20.1,28.6,20.1,28.6,20.1,28.7z M19.5,14.6c0.1,0,0.3,0,0.4-0.1
	c0.1-0.1,0.3-0.3,0.3-0.4c0-0.3-0.4-0.3-0.5-0.1v0.1c0,0,0.1,0,0.3,0H20c0,0.1-0.1,0.3-0.1,0.3c-0.1,0.1-0.3-0.1-0.3-0.3
	s-0.3-0.1-0.1,0C19.2,14.4,19.4,14.6,19.5,14.6z"/>
</svg>
