<?xml version="1.0" encoding="utf-8"?>
<!-- Generator: Adobe Illustrator 23.0.3, SVG Export Plug-In . SVG Version: 6.00 Build 0)  -->
<svg version="1.1" id="Capa_1" xmlns="http://www.w3.org/2000/svg" xmlns:xlink="http://www.w3.org/1999/xlink" x="0px" y="0px"
	 viewBox="0 0 512 512" style="enable-background:new 0 0 512 512;" xml:space="preserve">
<style type="text/css">
	.st0{fill:#E83628;}
	.st1{fill:#FFFFFF;}
	.st2{fill:#303C42;}
	.st3{fill:#FDB913;}
	.st4{opacity:0.2;fill:#FFFFFF;enable-background:new    ;}
	.st5{opacity:0.1;enable-background:new    ;}
	.st6{fill:url(#SVGID_1_);}
</style>
<path class="st0" d="M256,0C114.8,0,0,114.8,0,256s114.8,256,256,256s256-114.8,256-256S397.2,0,256,0z"/>
<path class="st1" d="M256,469.3c-117.6,0-213.3-95.7-213.3-213.3S138.4,42.7,256,42.7S469.3,138.4,469.3,256S373.6,469.3,256,469.3z
	"/>
<path class="st2" d="M330.7,85.3c-5.9,0-10.7,4.8-10.7,10.7v54.5c-12.9,2.1-35.5,8.2-53.3,25.6V74.7c0-5.9-4.8-10.7-10.7-10.7
	s-10.7,4.8-10.7,10.7v101.4c-17.8-17.4-40.4-23.4-53.3-25.6V96c0-5.9-4.8-10.7-10.7-10.7s-10.7,4.8-10.7,10.7v264.1
	c0,48.5,38.3,87.9,85.3,87.9s85.3-39.4,85.3-87.9V96C341.3,90.1,336.6,85.3,330.7,85.3z"/>
<g>
	<path class="st3" d="M320,321.2c-12.9,2.1-35.5,8.2-53.3,25.6v-45.9c10.5-30.4,37.8-40.2,53.3-43.3V321.2z"/>
	<path class="st3" d="M192,257.6c15.5,3.2,42.9,13,53.3,43.2v45.9c-17.8-17.4-40.4-23.4-53.3-25.6V257.6z"/>
	<path class="st3" d="M320,172.2v63.6c-12.9,2.1-35.5,8.2-53.3,25.6v-45.9C277.1,185.1,304.5,175.3,320,172.2z"/>
	<path class="st3" d="M245.3,215.5v45.9C227.5,244,204.9,238,192,235.9v-63.6C207.5,175.5,234.9,185.3,245.3,215.5z"/>
</g>
<g>
	<path class="st4" d="M266.7,215.5v19.8c10.5-30.4,37.8-40.2,53.3-43.3v-19.8C304.5,175.3,277.1,185.1,266.7,215.5z"/>
	<path class="st4" d="M192,172.3v19.8c15.5,3.2,42.9,13,53.3,43.2v-19.8C234.9,185.3,207.5,175.5,192,172.3z"/>
</g>
<g>
	<path class="st3" d="M192,360.1v-17.2c15.5,3.2,42.9,13,53.3,43.2v39.4C215.1,420.2,192,393,192,360.1z"/>
	<path class="st3" d="M266.7,425.5v-39.4c10.5-30.4,37.8-40.2,53.3-43.3v17.2C320,393,296.9,420.2,266.7,425.5z"/>
</g>
<path class="st5" d="M192.3,343c-0.1,0-0.2,0-0.3-0.1v17.2c0,32.9,23.1,60.1,53.3,65.4v-20.2C216.1,400.2,193.7,374.5,192.3,343z"/>
<path class="st5" d="M266.7,405.3v20.2c30.2-5.3,53.3-32.5,53.3-65.4v-17.2c-0.1,0-0.2,0-0.3,0.1
	C318.3,374.4,295.9,400.2,266.7,405.3z"/>
<rect x="234.7" y="14.6" transform="matrix(0.7071 -0.7071 0.7071 0.7071 -106.0364 255.9892)" class="st0" width="42.7" height="482.7"/>
<linearGradient id="SVGID_1_" gradientUnits="userSpaceOnUse" x1="-315.3129" y1="170.7096" x2="-293.5622" y2="180.8509" gradientTransform="matrix(21.3333 0 0 21.3333 6750.6572 -3493.9729)">
	<stop  offset="0" style="stop-color:#FFFFFF;stop-opacity:0.2"/>
	<stop  offset="1" style="stop-color:#FFFFFF;stop-opacity:0"/>
</linearGradient>
<path class="st6" d="M256,0C114.8,0,0,114.8,0,256s114.8,256,256,256s256-114.8,256-256S397.2,0,256,0z"/>
</svg>
