<svg id="Layer_1" height="512" viewBox="0 0 128 128" width="512" xmlns="http://www.w3.org/2000/svg" data-name="Layer 1"><path d="m105 96.19v17.66h-82v-17.66a23.187 23.187 0 0 1 23.19-23.19h35.62a23.187 23.187 0 0 1 23.19 23.19z" fill="#fa8c62"/><path d="m105 96.19v8.49h-18.5v9.174h-45v-9.174h-18.5v-8.49a23.187 23.187 0 0 1 23.19-23.19h35.62a23.187 23.187 0 0 1 23.19 23.19z" fill="#fed943"/><path d="m52.667 66.541h22.666a0 0 0 0 1 0 0v5.376a11.333 11.333 0 0 1 -11.333 11.333 11.333 11.333 0 0 1 -11.333-11.333v-5.376a0 0 0 0 1 0 0z" fill="#fa8c62"/><rect fill="#fdb6a1" height="62.581" rx="25.855" width="51.711" x="38.145" y="14.146"/><path d="m31.958 44.919a6.186 6.186 0 0 0 6.187 6.186v-12.372a6.187 6.187 0 0 0 -6.187 6.186z" fill="#fa8c62"/><path d="m96.042 44.919a6.187 6.187 0 0 0 -6.187-6.186v12.372a6.186 6.186 0 0 0 6.187-6.186z" fill="#fa8c62"/><g fill="#07303d"><path d="m65.054 34.081a10.29 10.29 0 0 1 -2.814-.4 9.418 9.418 0 0 1 -6.782-7.479c-1.472-7.918 7.261-13.328 7.633-13.554a1.75 1.75 0 0 1 1.82 2.99c-.1.061-7.039 4.4-6.011 9.923a5.925 5.925 0 0 0 4.3 4.753 5.539 5.539 0 0 0 5.535-1.171 3.005 3.005 0 0 0 .339-3.866 2.377 2.377 0 0 0 -3.189-.475 1.75 1.75 0 1 1 -1.549-3.139 5.821 5.821 0 0 1 7.536 1.512 6.545 6.545 0 0 1 -.552 8.328 8.421 8.421 0 0 1 -6.266 2.578z"/><circle cx="51.084" cy="44.452" r="2.379"/><circle cx="76.916" cy="44.452" r="2.379"/></g><path d="m64 62.8c-8.224 0-14.666-3.852-14.666-8.77a1.75 1.75 0 1 1 3.5 0c0 2.493 4.586 5.27 11.166 5.27s11.166-2.777 11.166-5.27a1.75 1.75 0 1 1 3.5 0c0 4.916-6.442 8.77-14.666 8.77z" fill="#fa8c62"/><path d="m88.25 95.5v18.35h-3.5v-18.35a1.75 1.75 0 0 1 3.5 0z" fill="#fbbe2c"/><path d="m43.25 95.5v18.35h-3.5v-18.35a1.75 1.75 0 0 1 3.5 0z" fill="#fbbe2c"/></svg>