<svg id="Layer_1" height="512" viewBox="0 0 128 128" width="512" xmlns="http://www.w3.org/2000/svg" data-name="Layer 1"><path d="m90.617 43.24-27.27 15.19-29.994 8.642-21.68 14.7s15.545-1.609 26.567 3.538 26.823 6 37.025 1.757 20.735-16.059 24.847-27.506 16.216-21.34 16.216-21.34z" fill="#d75288"/><path d="m78.679 39.6c-9.818 3.318-17.039 14.727-17.039 14.727s-13.184-2.918-22.454 1.713-16.214 19.489-27.514 25.736c0 0 26.725-8.149 53.382-19.243s51.273-24.312 51.273-24.312c-12.395 3.615-27.827-1.931-37.648 1.379z" fill="#f86197"/><path d="m58.091 84.063a38.781 38.781 0 0 1 -13.638-2.4 1.75 1.75 0 0 1 1.332-3.236 36.33 36.33 0 0 0 19.415 1.384 1.75 1.75 0 1 1 .749 3.419 36.715 36.715 0 0 1 -7.858.833z" fill="#fff"/></svg>