<?xml version="1.0" encoding="utf-8"?>
<!-- Generator: Adobe Illustrator 23.0.3, SVG Export Plug-In . SVG Version: 6.00 Build 0)  -->
<svg version="1.1" id="Слой_1" xmlns="http://www.w3.org/2000/svg" xmlns:xlink="http://www.w3.org/1999/xlink" x="0px" y="0px"
	 viewBox="0 0 1080 1080" style="enable-background:new 0 0 1080 1080;" xml:space="preserve">
<style type="text/css">
	.st0{enable-background:new    ;}
	.st1{fill:#282828;}
</style>
<g class="st0">
	<path class="st1" d="M356.1,630.8H132.4v-31.2l118.2-131.3c17.5-19.9,29.6-36,36.2-48.4c6.6-12.4,10-25.3,10-38.6
		c0-17.8-5.4-32.4-16.2-43.8c-10.8-11.4-25.2-17.1-43.1-17.1c-21.6,0-38.3,6.1-50.3,18.4c-12,12.3-17.9,29.4-17.9,51.2h-43.4
		c0-31.4,10.1-56.8,30.4-76.2c20.2-19.4,47.3-29.1,81.3-29.1c31.7,0,56.8,8.3,75.3,25c18.4,16.6,27.7,38.8,27.7,66.5
		c0,33.6-21.4,73.6-64.2,120.1l-91.5,99.2h171.4V630.8z"/>
</g>
<g class="st0">
	<path class="st1" d="M459.1,368.2c0-5.8,1.8-10.6,5.3-14.6c3.5-4,8.7-5.9,15.6-5.9s12.1,2,15.7,5.9c3.6,4,5.4,8.8,5.4,14.6
		c0,5.8-1.8,10.6-5.4,14.4c-3.6,3.8-8.8,5.8-15.7,5.8s-12.1-1.9-15.6-5.8C460.9,378.7,459.1,373.9,459.1,368.2z M497.5,630.8H462
		V423.2h35.5V630.8z"/>
	<path class="st1" d="M587.9,423.2l1.2,26.1c15.9-20,36.6-29.9,62.2-29.9c43.9,0,66,24.7,66.4,74.2v137.2h-35.5V493.4
		c-0.1-15-3.5-26-10.3-33.2c-6.7-7.2-17.2-10.7-31.4-10.7c-11.5,0-21.6,3.1-30.3,9.2c-8.7,6.1-15.5,14.2-20.3,24.2v147.9h-35.5
		V423.2H587.9z"/>
</g>
<g class="st0">
	<path class="st1" d="M914.5,630.8h-43.6V341.7l-87.5,32.1v-39.4l124.3-46.7h6.8V630.8z"/>
</g>
</svg>
