<?xml version="1.0" encoding="utf-8"?>
<!-- Generator: Adobe Illustrator 23.0.3, SVG Export Plug-In . SVG Version: 6.00 Build 0)  -->
<svg version="1.1" id="Слой_1" xmlns="http://www.w3.org/2000/svg" xmlns:xlink="http://www.w3.org/1999/xlink" x="0px" y="0px"
	 viewBox="0 0 1080 1080" style="enable-background:new 0 0 1080 1080;" xml:space="preserve">
<style type="text/css">
	.st0{enable-background:new    ;}
	.st1{fill:#282828;}
</style>
<g class="st0">
	<path class="st1" d="M241.4,311.6c-2.5-0.5-6.8-0.9-10.7-0.9c-12.3,0-14.7,2.7-14.7,15.7v13.4h22.5v15.9H216v101.2h-19.5V355.6
		h-19.7v-15.9h19.7v-15.7c0-21.8,11.8-30.2,32.4-30.2c4.8,0,6.8,0.2,12.5,0.9V311.6z"/>
	<path class="st1" d="M276.1,318.9h-19.5v-23.6h19.5V318.9z M276.1,456.8h-19.5V339.8h19.5V456.8z"/>
	<path class="st1" d="M356.2,355.6h-23.4v68.3c0,10.7-0.7,17.2,12.9,17.2c3.9,0,6.4-0.2,10.4-0.7V457c-6.1,0.7-8.6,0.9-14.7,0.9
		c-29.3,0-27.9-14.5-27.9-40.2v-62.2h-19.7v-15.9h19.7V305h19.3v34.7h23.4V355.6z"/>
	<path class="st1" d="M395.6,357.9c9.8-14.3,22-21.3,39.9-21.3c28.6,0,39,15.7,39,42.4v77.8h-19.3v-69c0-18.6-0.9-34.5-25.2-34.5
		c-25.2,0-33.3,19.1-33.3,42.2v61.3h-19.3V339.8h18.1V357.9z"/>
	<path class="st1" d="M552.6,460.7c-34.5,0-55.1-22.7-55.1-60.8c0-37.9,22-63.5,54.4-63.5c38.6,0,53.1,30.6,53.1,64.4v2.7h-88
		l-0.2,1.4c0,25,13.8,39.9,36.5,39.9c16.8,0,26.1-7.3,31.5-25h18.8C597.7,446.8,580.3,460.7,552.6,460.7z M551.5,352.2
		c-18.8,0-32,13.6-34.5,35.6H585C583.2,365.6,570.8,352.2,551.5,352.2z"/>
	<path class="st1" d="M693,373.8c-1.4-15.4-12-21.3-28.6-21.3c-14.7,0-23.8,6.1-23.8,15.9c0,13.2,15.2,15.2,31.1,18.8
		c19.7,4.5,45.4,10.2,45.4,35.6c0,22.7-19.3,37.7-48.5,37.7c-31.8,0-49.2-14.3-50.4-40.6h19.1c1.1,17.7,13.2,24.7,31.8,24.7
		c17.2,0,28.6-7.7,28.6-19.5c0-12.9-13.2-15.7-29.5-19.7c-20.2-5-47.2-7.5-47.2-34.5c0-21.1,17.5-34.5,44.7-34.5
		c26.3,0,46.7,12.7,46.7,37.4H693z"/>
	<path class="st1" d="M806.4,373.8c-1.4-15.4-12-21.3-28.6-21.3c-14.7,0-23.8,6.1-23.8,15.9c0,13.2,15.2,15.2,31.1,18.8
		c19.7,4.5,45.4,10.2,45.4,35.6c0,22.7-19.3,37.7-48.5,37.7c-31.8,0-49.2-14.3-50.4-40.6h19.1c1.1,17.7,13.2,24.7,31.8,24.7
		c17.2,0,28.6-7.7,28.6-19.5c0-12.9-13.2-15.7-29.5-19.7c-20.2-5-47.2-7.5-47.2-34.5c0-21.1,17.5-34.5,44.7-34.5
		c26.3,0,46.7,12.7,46.7,37.4H806.4z"/>
</g>
</svg>
