<?xml version="1.0" encoding="utf-8"?>
<!-- Generator: Adobe Illustrator 23.0.3, SVG Export Plug-In . SVG Version: 6.00 Build 0)  -->
<svg version="1.1" id="Слой_1" xmlns="http://www.w3.org/2000/svg" xmlns:xlink="http://www.w3.org/1999/xlink" x="0px" y="0px"
	 viewBox="0 0 400 400" style="enable-background:new 0 0 400 400;" xml:space="preserve">
<style type="text/css">
	.st0{fill:#5C3F13;}
</style>
<g>
	<path class="st0" d="M126.6,90.9c0.4-0.8,1.2-1.2,1.6-2c3.2-3.6-1.6-8.8-4.8-5.2c-0.4,0.8-1.2,1.2-1.6,2
		C118.5,88.9,123.3,94.1,126.6,90.9z"/>
	<path class="st0" d="M159.1,76.8c3.2,3.6,7.6-2,4.8-5.2c-0.4-0.8-1.2-1.2-1.6-2c-3.2-3.6-7.6,2-4.8,5.2
		C157.9,75.6,158.7,76,159.1,76.8z"/>
	<path class="st0" d="M239.8,120.2c0-0.8,0-1.2,0-2c0-4.8-6.8-4.8-6.8,0c0,0.8,0,1.2,0,2C233,125,239.8,125,239.8,120.2z"/>
	<path class="st0" d="M384.3,146.3c0-0.4,0-0.8,0-1.2c-0.4-2.8-4-3.6-5.6-1.6c-6.8,8.8-11.6,19.3-22.9,20.5
		c-14.5,1.6-29.3-4.8-43.4-8.8C316.1,1.3,59.1,5.8,58.3,156.7c0,0.8,0.4,1.6,0.8,2c-1.2,2.4-0.4,5.6,2.8,5.6c1.6,0,3.6,0,5.2,0
		c-8.4,8-7.6,20.9-2.8,32.1c0.4,0.8,0.8,1.2,1.6,1.6c0.4,0.8,0.8,1.2,1.6,1.6c0.4,0.4,1.2,0.4,1.6,0.8c-6.8,6.4-14.1,12.4-21.3,18.9
		c-2.4,2-2.4,6,0.8,6.8c4.8,1.6,9.2,2.8,14.1,4c-16.1,5.6-31.3,14.1-45.8,23.3c-2.8-2-5.6-4-8.4-6.4c-0.8-0.8-1.6-0.8-2.8-0.8
		c-2-0.8-4.4,0.8-4.4,3.6c0,4,0,7.6,0,11.6c0,1.6,0.8,2.8,2,3.2c-0.8,1.2-0.8,2.4,0,3.6c7.2,10.8,0,19.3,12.4,26.9
		c3.6,2.4,9.6,2.4,13.7,3.2c11.6,2.8,23.3,7.6,34.9,10.8c47.8,12.4,96.8,16.9,140.9,42.2c2.4,1.6,4.8-0.8,4.8-2.8
		c1.6-0.4,3.6-2,2.8-4.4c-0.8-3.2-1.2-7.6,0.8-10c1.6-2,3.6-2,6-2c2,0,4,1.2,5.2,2.8c0,0,0.4,0.8,0.4,1.6c0-0.4-0.4,0.8-0.4,0.8
		c-0.4,0.8-0.8,1.2-1.2,1.6c-2.4,2.8,0,6.4,2.8,6.4c0.8,1.6,2.4,2.8,4.4,1.2c27.3-23.3,59-39.8,85.5-63.8
		c13.3-12,25.3-24.9,37.7-38.1c6.8-7.6,14.9-13.3,21.7-21.3c5.6-6.8,9.6-15.7,15.3-22.9c0.8-0.8,0.8-2,0.8-2.8
		c1.2-0.4,2-1.6,1.6-3.2c-2-15.7-4.4-30.9-7.6-46.2C385.5,147.5,385.1,146.7,384.3,146.3z M383.9,186c0.4-0.4,0.4-1.2,0.4-1.6
		c0-1.6,0-3.2,0-4.8c0.4,2,0.8,4,0.8,6C384.7,186,384.3,186,383.9,186z M359.8,170.8c8.8-1.6,13.7-8.4,18.9-15.7
		c0.4,9.6-0.8,19.7-1.2,29.3c0,1.6,0.8,2.8,2,3.2c-35.3,57-89.9,95.6-145.8,122.5c-0.4,0-0.4,0.4-0.8,0.4
		c-6.4-4.8-12.8-9.6-19.7-14.1c-1.2-0.8-2.8-0.8-4,0.4c-6,7.2-10.4,16.1-16.5,23.3c-0.4,0.4-0.4,0.4-0.4,0.8c0-1.6-1.2-3.2-3.2-3.6
		c-34.9-3.6-65-25.7-99.2-31.7c-24.5-4.4-53.4-5.2-72.3-24.5c0.4,0,0.4,0,0.8-0.4c14.5-9.6,29.7-18.1,45.8-23.7
		c6.8,48.6,77.9,50.6,110.4,51c37.7,0.8,126.9,2.4,127.3-60.2c0-1.6-0.8-2.8-2-3.2c7.2-6,8.8-13.7,6-21.7c6-2.4,11.6-5.2,16.5-10.4
		c1.2-1.2,1.2-3.2,0.4-4.4c-1.6-3.6-3.6-6.4-7.2-7.6c-2.8-0.8-6-0.4-8.8-0.4c0.8-6.4,0-12.8-3.2-18.1c0.4,0,0.8-0.4,1.2-0.4
		c0.8-0.4,1.6-1.2,2-2c0.4,0.8,0.8,1.2,2,1.6C324.9,166,342.6,174.4,359.8,170.8z M70.7,192.9h-0.4v-0.4c-4-9.2-4.8-19.3,4-24.9
		c1.2-0.8,1.6-2,1.6-3.2c5.6,0,11.2,0.4,17.3,0.8c-1.2,1.2-2,2-2.8,3.6c-2.8,4.8-0.8,11.2,1.2,16.1c-1.6,0.4-2.8,0.8-3.6,0.8
		c-1.6,0-3.6,1.6-3.2,3.6c0.4,6.4,3.6,10,8,12.4C85.2,199.7,78,196.9,70.7,192.9z M97.6,196.1c-2.4-0.8-4.8-1.6-6-3.6
		c2.4-1.2,4.8-2.8,6.8-4.4c2.8-2.4,0.8-7.6-2-7.2c-1.2-2.4-2-5.6-0.8-8c1.2-3.2,5.2-4,8-4.4c1.2-0.4,2-1.2,2.4-2
		c6.4,0.8,13.3,1.2,19.7,2c-6.8,6-8,16.1-1.6,24.1c-2.4,2-4.4,4-3.2,8.4c0.8,3.2,2.8,5.2,5.2,6.8c-9.6-0.8-19.3-2-28.5-4.4
		C100.5,202.1,101.3,197.3,97.6,196.1z M133.4,202.5c-2-0.8-4.4-1.2-5.6-3.2c-0.8-1.6,2.8-2.8,3.6-3.6c1.6-1.2,2.4-4.4,0.8-6
		c-8-6.8-7.2-15.7,2.8-18.9c1.2-0.4,1.6-1.2,2-2c6.4,0.8,12.4,1.6,18.9,2.4c-3.6,5.6-4,11.2-0.8,18.1c-6,5.6-4.4,12,1.2,18.1
		c-6.8,0-13.7,0-20.9,0C136.2,206.1,135.8,203.3,133.4,202.5z M164.3,207.7c0-0.8-0.4-1.6-1.2-2.4c-3.2-2.8-8-7.2-2-10.8
		c1.6-0.8,2-3.6,1.2-5.2c-4-7.2-3.6-11.2,2-16.5c8.4,0.8,16.5,2,24.9,2.4c-2,2.4-3.6,5.2-3.6,8.8c0,3.6,2,6,4.8,8
		c-1.6,1.6-2.4,3.6-2.4,6c0,3.2,2.4,5.6,4.8,8c-3.6,0.4-6.8,0.8-10.4,0.8C176.3,207.3,170.3,207.7,164.3,207.7z M201.2,205.3
		c0-0.4-0.4-1.2-0.8-1.6c-1.2-1.6-2.8-2.8-4-4.4c-2.8-2.8-0.8-3.2,2-4.8c2.4-1.6,2-6-0.8-6.8c-2-0.8-4-1.2-5.2-3.2
		c-1.2-2,4-6,4.8-6.4c0.8-0.4,0.8-1.2,1.2-2c8.8,0.4,18.1,0.8,26.9,0.8c0,0.4,0,0.4,0,0.8c0,3.2,1.6,6.4,3.2,8.8
		c0.4,0.4,0.4,0.8,0.8,1.2c-0.8,0.8-1.6,1.6-2.8,2c-0.8,0.8-1.6,2-1.6,3.2c0,2.8,0.8,5.2,2.4,7.2c0.8,0.8,2.4,1.6,3.2,2.4
		C220.5,203.7,210.9,204.5,201.2,205.3z M236.6,199.3c-0.8-1.6-2-2.8-3.2-3.6c-0.8-0.4-1.2-0.8-1.6-1.2c1.2-1.2,2.4-2.4,3.6-3.6
		c1.2-1.2,3.6-3.6,3.2-5.6c0-1.2-0.4-2.8-1.6-3.2c-1.2-0.8-2.4-0.4-3.6,0c-0.8-1.2-1.6-2.4-2-4c0-0.8,0-1.2,0.4-1.2
		c8.8-0.4,17.7-0.8,26.5-2c-0.8,1.6-1.2,3.6-1.2,5.2c0.4,2.4,1.2,4,2.8,5.2c0,0-0.4,0-0.4,0.4c-1.6,1.6-0.8,4.8-0.4,6.8
		c0.8,4.8,4.4,5.6,7.6,8c-10,1.2-20.5,0.8-29.7,2C237,201.3,237,200.1,236.6,199.3z M296.8,165.2c5.6,6,4.4,16.1,0.8,23.3v0.4
		c-0.4,0-0.8,0-1.2,0c-2-0.8-4,0.8-4.4,2.8c-5.6,4-12,6-19.3,7.6c0.4-1.2,0.4-2.8-0.8-4c-2.4-2-5.2-2.8-6-5.2c1.2-0.8,2.8-1.2,4-2
		c2.4-1.6,2-6-0.8-6.8c-2-0.4-5.6-0.8-4.8-2.8c0.8-1.6,1.6-3.6,2.8-5.2C276.7,171.2,286.8,168.8,296.8,165.2z M305.6,188
		c2.4,0,4.8-0.4,7.2,0c1.2,0,2,0.8,2.4,1.6c-3.6,3.2-8,5.6-12.4,7.2c0,0,0,0-0.4,0c-0.4-0.8-1.2-2-2-2.8c0.8,0,1.6-0.4,2.4-1.6
		c0.8-1.2,1.2-2.8,2-4.4C305.2,188,305.6,188,305.6,188z M269.5,206.5c9.2-1.2,18.1-3.2,26.1-8.8c4.4,5.2,8.4,12,4,18.1
		c-4.4,6-12.8,8-19.3,10c-12.4,3.6-25.7,4.4-38.5,4.4c7.2-8,14.5-16.1,26.1-18.5C269.9,211.3,270.3,208.5,269.5,206.5z M237,235.8
		c0.4,1.2,1.6,2.4,3.2,2.4c17.7,0,37.3-1.2,53.4-8.8c0.8-0.4,1.2-0.8,2-1.2c0,0,0,0,0,0.4c-0.4,56.2-87.5,53-120.5,52.6
		c-29.3,0-102.4-1.6-104.4-48.6l0,0c38.1,9.6,77.5,14.5,115.6,20.1c11.2,1.6,24.1,1.6,34.5-3.6C226.9,245.9,232.2,241.1,237,235.8z
		 M306,155.1c-0.8-0.8-1.6-1.2-2.8-0.4c-1.6,0.8-3.6,1.6-5.2,2c-1.6-0.8-2.8,0-3.6,1.2c-9.6,3.6-19.3,6-29.3,7.6c-0.4,0-0.8,0-1.2,0
		c-10.4,2-21.3,2.8-31.7,3.2c-0.8-0.4-1.6-0.4-2.4,0c-54.6,1.2-111.2-13.3-164.6-12.8c0,0,0,0,0-0.4C65.9,15.4,309.7,11,306,155.1z
		 M188.8,213.7c21.3-1.6,42.6-4,63.8-5.6c1.2,0,2.8-0.4,4-0.4c-6.4,2.8-11.2,7.2-16.9,13.7c-20.5,23.3-38.1,26.5-66.7,21.7
		c-38.9-6.8-78.3-10.8-116.4-22.1c6.4-5.6,12.8-10.8,19.3-16.9C111.3,218.6,151.4,216.6,188.8,213.7z M355,233.8
		c-13.3,11.6-24.1,26.5-37.3,38.1c-26.9,23.7-57.8,41.8-85.5,64.2c0-1.6-0.4-3.6-1.2-5.2c-2-4-6.4-6-10.4-6.4c-4-0.8-8.4,0.8-11.6,4
		c-3.6,4-3.6,10-2.8,15.3c-32.5-18.5-68.3-26.1-103.6-33.7c-19.3-4-38.9-8.4-57.8-14.1c-8-2.4-15.3-5.6-23.7-6.8
		c-6-0.8-8.4-18.9-12-24.9c-0.4-0.8-0.8-1.2-1.6-1.2c0.4-0.4,0.4-1.2,0.4-1.6c15.7,20.5,40.6,25.7,64.6,29.3
		c40.2,6.4,76.3,30.1,116.4,34.5c1.2,0,2.4-0.4,2.8-1.6c0.4,2.8,3.6,4.8,5.6,2c5.6-6.4,9.6-14.5,14.9-21.3
		c7.2,4.8,14.1,10,21.3,15.3c2.8,2,5.2-1.2,4.8-4c55.4-26.9,109.2-65.5,145-121.3c0,0.4,0.4,1.2,0.4,1.6c0,0.8,0.4,1.2,0.4,1.6
		C374.7,210.5,367.1,223.4,355,233.8z"/>
</g>
</svg>
