<?xml version="1.0" encoding="utf-8"?>
<!-- Generator: Adobe Illustrator 23.0.3, SVG Export Plug-In . SVG Version: 6.00 Build 0)  -->
<svg version="1.1" id="Слой_1" xmlns="http://www.w3.org/2000/svg" xmlns:xlink="http://www.w3.org/1999/xlink" x="0px" y="0px"
	 viewBox="0 0 400 400" style="enable-background:new 0 0 400 400;" xml:space="preserve">
<style type="text/css">
	.st0{fill:#5C3F13;}
</style>
<g>
	<path class="st0" d="M197.7,338.9c2.4,1.2,6,2,6.8-1.6s-2.8-6.4-5.2-8c-3.6-2.8-6.8,3.6-3.6,6.4
		C196.1,336.9,196.5,338.1,197.7,338.9z M201.3,332.5L201.3,332.5L201.3,332.5L201.3,332.5z"/>
	<path class="st0" d="M233.6,309c2-1.2,4-3.6,3.2-6.4c-0.8-2.4-2.4-4-4.8-5.2c-4-2.4-7.2,4.4-3.2,6.4l0,0
		C228,307,230.8,311,233.6,309z"/>
	<path class="st0" d="M242.4,256.3c0.4,0.8,0.8,1.6,1.2,2c2.4,2.8,6.4,0,5.6-3.6c0-0.8-0.4-1.6-0.4-2c-0.4-4.8-6.8-4.8-6.8,0
		c0,0.4,0,0.8,0,1.2C242,254.7,242,255.5,242.4,256.3z"/>
	<path class="st0" d="M242.4,348.5c-2-0.4-3.2,2-3.2,3.6c0,0.4,0,0.4,0,0.8c0,0.4,0,0.4,0,0.8c0,2,1.6,4,3.2,3.6
		c2.4-0.4,4.4-1.6,4.4-4.4C246.8,350.1,244.8,348.9,242.4,348.5z"/>
	<path class="st0" d="M200.5,249.5h0.4c0.4,0,0.8,0,1.6,0c4.4,0,4.4-7.6,0-7.6c-0.4,0-0.8,0-1.6,0h-0.4
		C196.1,242.3,196.1,249.5,200.5,249.5z"/>
	<path class="st0" d="M110.7,144.9c12-0.4,23.6-2.8,35.5-1.6c2.4,0.4,3.2-2,3.2-4c0.4-0.8,0.8-1.6,1.2-2.4
		c1.6,72.7,7.6,144.9,14.4,217.2v0.4c0,0.4,0,0.4,0,0.8c9.2,43.1,79.8,55.5,101.4,18.8c0.4-0.4,0.8-1.2,1.2-2c0,0,0,0,0-0.4
		c0-0.4,0-0.4,0-0.8c4.8-39.9,4.8-80.6,9.2-121c4.8-45.1,12.4-89.8,11.6-135.3c0-1.6-0.8-2.8-1.6-3.2c0-0.8,0-1.6-0.4-2.4
		c-1.2-9.2-8.4-15.2-18.4-19.2c9.2-25.6,17.6-51.5,25.9-77.4c0.4-1.6-0.4-3.2-1.6-4.4c-1.6-1.6-3.6-2.8-5.2-4.4
		c-0.4-0.4-0.4-0.4-0.8-0.4c-1.2-2.8-5.2-3.2-6.4,0.4c-7.2,27.9-16.4,55.1-26.3,81.8c-15.2-2.8-31.9-2.8-39.9-3.2
		c-11.2-0.4-43.5,0-56.7,12.4c-0.4-0.4-0.8-0.8-1.6-0.8c-24-6.4-47.5,21.2-48.7,46.7C107.5,143.3,109.1,144.9,110.7,144.9z
		 M141.4,127.7c-1.6-3.6-4-6.8-6.8-10c2-1.6,4-2.8,6.4-3.6C141.4,118.5,141.4,123.3,141.4,127.7z M148.2,126.1
		c0-4.8-0.4-9.6-0.8-14.4c0.8,0,2-0.4,3.2-0.4c0,4.8,0,9.6,0,14.4C149.8,125.7,149,125.7,148.2,126.1z M159,109
		c3.6,3.6,6.8,8.4,9.2,13.6C159.8,117.3,157.4,113,159,109z M281.9,127.3c-0.4,37.9-6,75.1-10.4,112.6c-5.2,43.1-4.8,86.6-10,129.3
		c-18,31.9-81.8,20.8-89.8-16c-7.2-76.7-13.6-153.3-14.4-230c13.6,18,49.5,22.8,65.9,24C237.6,146.9,269.5,143.3,281.9,127.3z
		 M285.1,13.1c0.4,1.6,0.4,3.2,0.4,4.8c-0.4-0.8-0.8-1.2-1.2-1.6C284.3,15.5,284.7,14.3,285.1,13.1z M284.7,23.1
		c-0.8,4.8-2.8,10.4-4.8,16C281.5,33.9,283.1,28.3,284.7,23.1z M266,98.2c25.2,9.2,7.6,29.5-9.6,35.5c-2,0.8-3.6,1.2-5.6,1.6
		c5.2-12.4,10-24.8,14.8-37.5C265.6,98.2,265.6,98.2,266,98.2z M211.3,90.2c13.2,0,26.7,1.2,39.5,4c-5.6,14-11.2,28.3-17.6,41.9
		c-0.4,1.2-0.4,2,0,2.8c-3.6,0.4-7.2,0.8-10.4,0.8c-15.6-0.8-32.3-5.2-46.7-12.4c0-0.4,0-1.2,0-1.6c-2.4-7.6-6.8-16.4-12.8-22
		C174.9,94.6,203.3,89.8,211.3,90.2z M153,101.4c-0.4,0.4-0.4,0.8-0.4,1.6c-0.8,0.4-1.2,0.8-1.6,1.2c-1.6,0-2.8,0.4-4.4,0.4
		c0-0.4,0-0.8,0-0.8c0-1.2-0.8-2-1.6-2.4C147.8,100.6,150.6,100.6,153,101.4z M141,102.2c-0.8,0.8-1.2,2-1.2,3.2c0,0.4,0,0.4,0,0.8
		c-6.8,2.8-13.2,8-18.4,14c-3.2,3.2,1.6,8.8,4.8,5.2c0.8-1.2,2-2,2.8-3.2c3.2,3.6,6.4,7.6,7.6,13.2c-7.6,0.4-15.2,1.2-22.8,1.6
		C116.6,122.1,127.8,106.6,141,102.2z"/>
	<path class="st0" d="M208.5,171.2c-4-2.4-8-4.4-12-6.8c-1.2-0.8-3.2-0.8-4,0.4c-2.8,4-6,7.6-9.2,10.8c0-1.2-0.8-2.8-2.4-3.2
		c-3.2-1.2-8-3.2-10-6.8c-2-4.4-8-0.4-5.6,3.6c2.8,5.2,8.8,8,13.6,10c-0.4,0.4-0.4,0.4-0.8,0.8c-2.4-1.6-5.2-2.4-8.4-2.8
		c-2.8-0.4-3.6,2.8-2.8,5.2c-0.4,0.4-0.4,1.2-0.4,2c0,11.6-1.6,24.4,3.6,35.1c0.4,0.8,1.2,1.2,1.6,1.6c0.8,1.2,2,2,3.6,1.6
		c3.2-0.8,6-2,8.4-4c2,5.6,5.2,10.8,6.8,16.4c0.4,1.2,1.2,2.4,2.4,2.8c8,2,18,0.8,23.6-5.2c0,0,0,0,0.4,0c12,3.6,23.6,6.8,36.3,6.4
		c2,0,3.2-1.6,3.2-3.6c0.4-5.2,0.8-10.8,0.8-16.4c0.8,0.4,2,0,2.8-0.8c8.4-8,12.8-21.6,9.2-33.5c-0.8-2.8-2-4.8-3.2-6.4
		c4.4-2,8-5.6,10.8-10.4c2.4-4-3.6-8-5.6-3.6c-3.6,6.4-9.6,9.2-15.6,8.8c-0.4,0-0.8,0-1.6,0s-2-0.4-2.8-0.4
		c-1.6-0.4-2.8,0.4-3.2,1.2c-1.2,0.4-2,0.4-2.8,0.8c-2.4-3.2-6.4-5.6-12.4-5.2c-7.6,0-14.8,2.8-22,5.6
		C210.5,173.6,210.1,172,208.5,171.2z M195.7,172.4c2.8,1.6,6,3.2,8.8,4.8c-2.8,1.2-6,2.8-8.8,4c-2,0.8-3.2,3.2-2,5.6
		c2,4,3.2,8,4.4,12c-2,0-4,0-6,0c-0.8,0-1.2,0.4-1.6,0.8l0,0c-0.8-6-3.2-10.8-6.4-14.8C188.1,181.2,192.5,176.8,195.7,172.4z
		 M175.3,215.2c-4-8.8-2.4-20-2.4-29.5C184.9,190.4,188.5,210.4,175.3,215.2z M196.1,231.1c-2-5.6-5.2-10.4-6.4-16
		c-0.4-0.8-0.8-1.6-1.2-2c1.2-2,2-4.4,2-7.2c0.4,0.4,1.2,0.4,1.6,0.4c8.8-1.2,19.2,2,21.2,13.2C215.6,230.7,203.3,231.9,196.1,231.1
		z M247.2,204.4c4.4,7.6,2.8,18.4,2,27.5c-10.4-0.4-20-2.8-29.9-6c0.4-1.6,0.4-3.6,0.4-6c0-1.2-0.4-2.4-0.4-3.6c0.8,0,1.6-0.8,2-2
		C226,203.2,238,188.8,247.2,204.4z M252.8,180.4c0.4,0,1.2,0,1.6,0c4,0.4,7.2,2.8,8.4,8.8c2,8-1.6,16.8-6.8,22.8
		c-0.8-6.8-2.8-12.8-8-17.2c-0.8-0.4-1.2-1.2-2-1.6c0.8-4,1.2-8,0.8-11.6C248.8,180.8,250.8,180.4,252.8,180.4z M237.2,177.2
		c0.8,0.4,1.6,0.8,2,1.6c-0.4,1.6,0.4,3.6,1.6,4c0,2.4-0.4,5.2-0.8,7.6c-10-2-18.8,8.4-23.6,18.8c-2.8-4-6.4-6.8-10.8-8.8V200
		c-1.2-4.4-2.8-8.8-4.4-13.2c7.2-3.2,14.4-6.4,22-8.4C227.6,176.8,232.4,176,237.2,177.2z"/>
	<path class="st0" d="M217.6,340.5c-8.4,3.6-16.8,6.4-25.6,6.4c-1.6,0-2.4,0.8-2.8,2c-2.4-1.6-6,1.6-4.4,5.2
		c8,17.2,20.4,28.3,37.9,20c1.6-0.8,2-2,2-3.6c0.8-0.4,1.6-1.2,1.6-2.4c1.6-9.2-1.2-18-4.8-26.3
		C220.8,340.9,219.2,339.7,217.6,340.5z M192.5,354.5c8.4-0.4,16.8-2.4,24.4-5.6c2,5.6,4,11.6,2.8,17.6c0,0.4,0,0.8,0,1.2
		C207.3,372.8,198.9,366.1,192.5,354.5z"/>
	<path class="st0" d="M210.1,296.2c0.8,1.6,2.4,2,3.6,1.6c9.6-1.6,18.8-3.2,27.9-6.8c2-0.8,2.8-2.4,2.4-4.8c-1.2-9.2-2-20-7.6-27.5
		c-6-8-16.4-2.4-22.4,2c-1.2,0.8-1.6,2-1.6,2.8C204.9,272.6,204.5,284.6,210.1,296.2z M233.2,267.1c2.4,5.2,3.2,11.6,4,18
		c-7.2,2.4-14.8,4-22.4,5.2c-3.2-8-2.8-16.8,4-22.8c0.8-0.4,0.8-1.2,1.2-1.6C224.8,262.7,230,260.3,233.2,267.1z"/>
	<path class="st0" d="M205.7,312.6c0-12.8-1.2-25.6-1.6-38.3c0-1.2-0.4-2.4-1.2-2.8c1.6,0,3.6-0.4,4.4-2.4c1.2-3.2-0.8-5.2-2.4-7.2
		c-2.4-2.8-5.6,0-5.6,2.8c-2,1.6-2,5.2,0,6.4c-7.2,2-14,4.8-20.8,8.4c-0.8,0.4-1.6,1.2-1.6,2c-0.8,0.8-1.6,2-1.2,3.6
		c1.6,11.2,3.2,22.4,4.4,33.1c0.4,1.6,2,2.8,3.2,2.8c6.8-0.4,13.6-2.8,20-5.2C204.9,315.4,205.7,314.2,205.7,312.6z M182.1,285.4
		c5.2-2.8,10-4.8,15.6-6.4c0.4,10.4,1.2,20.4,1.2,30.7c-4.4,1.6-8.8,2.8-13.2,3.6C184.9,304.2,183.7,295,182.1,285.4z"/>
	<path class="st0" d="M251.2,301c-9.2,5.2-18.4,11.2-27.9,16.4l0,0c-2.4-4-8-0.4-5.6,3.6c4,7.6,8.8,15.2,12,23.2
		c0.8,1.6,3.2,2.4,4.4,1.2c7.2-6,14.8-7.6,23.6-8c1.6,0,3.2-1.6,3.2-3.6c0-10.4-1.2-21.2-4.4-30.7
		C255.2,300.6,253.2,299.8,251.2,301z M226.8,323.7c8-4.8,16-9.6,24-14.4c1.6,6.8,2.8,14,2.8,20.8c-7.2,0.4-14,2.4-20.4,6.4
		C231.2,332.5,229.2,328.1,226.8,323.7z"/>
	<path class="st0" d="M255.2,259.1c0,0.4,0,1.2,0,1.6c0,4.8,6.8,4.8,6.8,0c0-0.4,0-1.2,0-1.6C262,254.3,255.2,254.3,255.2,259.1z"/>
	<path class="st0" d="M232,368.5c-3.2,0-4.8,2-4.8,5.6c0,4,4.8,4.8,6.4,1.6C236.4,374,235.6,368.5,232,368.5z"/>
</g>
</svg>
