<?xml version="1.0" encoding="utf-8"?>
<!-- Generator: Adobe Illustrator 23.0.3, SVG Export Plug-In . SVG Version: 6.00 Build 0)  -->
<svg version="1.1" id="Слой_1" xmlns="http://www.w3.org/2000/svg" xmlns:xlink="http://www.w3.org/1999/xlink" x="0px" y="0px"
	 viewBox="0 0 400 400" style="enable-background:new 0 0 400 400;" xml:space="preserve">
<style type="text/css">
	.st0{fill:#5C3F13;}
</style>
<g>
	<path class="st0" d="M94.8,396c2.3,0.9,3.6,0.5,5-1.4c12.8-19.6,17.8-42.4,20.5-66.6c59.7-0.5,119.5-34.7,166.9-74.3
		c51.5-43.3,71.1-117.6,101.7-178.7c0.9-1.4,0.5-2.7,0-3.6c9.6-17.8,13.2-38.8-3.2-54.7C367-2,335.6-0.2,313.2,8.9c0,0,0,0-0.5,0
		c-0.9-0.5-1.8-0.5-3.2,0c-31.5,18.2-62,39.2-90.3,62.5c-21-10.9-53.3-19.2-70.2,3.6c-2.3,2.7-0.9,6.8,2.7,7.3
		c5.5,0.5,9.1,2.3,12.8,4.1c-9.6,7.3-15,17.8-21,29.2c-2.3,4.1,1.8,7.3,5,5.9c7.8-3.6,16.4-5.5,24.6-8.2
		C129,158.5,92.1,211.8,67.5,275.2c-0.5,0.9-0.5,2.3,0,3.2c0,0.5,0,0.5,0,0.9c-0.9-0.5-1.4-0.5-2.3,0c-22.3,9.1-45.6,15.5-62.5,35.1
		c-1.8,1.8-1.4,5.5,0.9,6.8c9.1,5.5,18.2,10.5,27.8,15c11.4,5,25.1,3.6,29.6,18.7C67,374.1,78.9,388.3,94.8,396z M77.5,368.7
		c-0.9-28.3,10.5-53.8,23.7-77.1c-6.8,30.1-12.3,60.6-10.9,92.1c0,1.4,0.5,2.3,0.9,2.7C87.1,384.6,82.1,376.9,77.5,368.7z M98,382.8
		c-1.4-34.7,5.9-67.5,13.2-100.8c-0.9,15-1.4,30.1,1.8,44.7C110.3,346.8,106.7,365.5,98,382.8z M388.5,49.5
		c-6.8,4.6-14.6,7.3-22.3,10.5c4.1-10.5,11.9-17.3,22.8-19.6C388.9,43.6,388.9,46.3,388.5,49.5z M212.9,78.2
		c-2.3,1.8-4.1,3.6-6.4,5.5l0,0c-0.5-1.8-1.4-3.2-3.6-3.2c-10.9,0-21.9,0-32.8,0c-0.5,0-0.5,0-0.9,0c-2.7-1.8-5.9-3.2-9.1-4.1
		C174.6,64.5,197,70.5,212.9,78.2z M174.6,91c0.9-0.5,1.4-1.4,1.4-2.3c3.2,0,6.4,0,9.6,0c-8.7,4.6-17.3,10-25.5,15.5
		C163.7,99.2,168.2,94.2,174.6,91z M178.3,103.7c-1.8,0.9-3.6,1.4-5.5,2.3c7.8-4.6,15.5-9.1,23.3-13.2c-4.6,4.1-8.7,8.2-13.2,12.3
		C181.9,103.7,180.1,102.8,178.3,103.7z M313.2,17.6c0.5,0.5,1.4,0.5,2.3,0c18.2-7.8,39.7-9.1,57.9,0.5c6.8,3.6,11.4,8.7,13.7,14.1
		c-16,3.6-27.4,16.4-30.5,34.2c-0.5,3.6,2.3,6.4,5.5,5c7.3-4.1,15.5-6.4,22.8-10c-2.7,6.4-5.9,12.3-10,17.3
		c-1.4,2.3-0.9,4.6,0.5,6.4c-2.7,5.5-5,11.4-7.8,16.9c-1.8-1.8-4.6-1.8-5.9,0.5c-24.6,40.6-72,11.4-71.6-31.9c0-5.5-7.3-5.5-7.8,0
		c-0.9,48.8,49.2,78.9,79.3,45.1c-18.7,43.3-36.5,87.5-67.5,120.8c-43.3,46.1-115.4,83-175.1,83.4c-3.2-19.1-0.9-38.8,1.4-58.4
		c0.5-3.6-3.6-5-5.9-3.6c-12.3,6.8-24.6,13.7-38.3,17.8C124,158.5,213.4,75.9,313.2,17.6z M67,288.4c1.4-0.5,2.3-1.8,2.3-3.2
		c0.9,0.5,1.4,0.9,2.7,0.5c11.9-2.7,22.3-7.3,33.3-13.2c0,0.5,0,0.9-0.5,1.4l-0.5,0.5c-1.4,0-2.7,0.5-3.6,1.8
		c-0.5,0.9-1.4,2.3-1.8,3.2c-22.3,20.1-54.7,38.8-82.1,33.3C31.9,300.7,49.7,295.2,67,288.4z M19.6,321.7
		c20.5,2.3,42.9-6.4,62.5-19.1c-8.2,11.9-17.3,22.3-26.4,32.8C42.9,332.6,31,328.1,19.6,321.7z M63.8,338.1c5-5.9,10-11.4,14.6-17.8
		c-4.1,10.9-6.8,21.9-8.2,33.7c-3.2-7.3-5.5-12.8-5.9-14.1C64.7,339.5,64.3,338.6,63.8,338.1z"/>
	<path class="st0" d="M251.7,189.5c3.2-5,6.4-10.5,9.1-16c-1.8,8.2-5,16-10,21.9c-1.4,1.8-1.4,3.6-0.5,5c-0.9,0.5-2.3,0.9-3.2,1.8
		c0.5-3.6-3.6-6.8-6.4-3.6c-0.9,0.9-1.8,1.8-2.7,2.7c-1.4,1.4-1.4,3.2-0.9,4.6l0,0c-4.6,1.4-2.7,9.6,1.8,8.2
		c26.4-6.4,49.2-33.7,61.6-59.7c9.1-19.6,4.1-37.4-17.8-31c-0.5,0-1.4,0.5-1.4,0.9c-0.5-0.5-0.9-0.9-1.4-0.9c-0.9-3.6-6.4-4.6-7.3,0
		c-5.5,22.8-15.5,42.4-27.4,61.6C242.6,189.5,249,194,251.7,189.5z M262.6,192.2L262.6,192.2L262.6,192.2L262.6,192.2z M288.2,161.7
		c3.2-10.5,3.2-21-1.8-30.5C305.9,126.5,295.5,149.3,288.2,161.7z M278.1,132.9c11.9,17.3-3.2,43.3-14.1,56.5
		c4.1-8.7,5.9-18.2,6.4-27.8c0-1.4-0.5-2.7-1.4-3.2C272.7,150.3,275.9,141.6,278.1,132.9z"/>
	<path class="st0" d="M337.4,53.6c2.3-2.7,5.9-3.6,8.7-5.9c4.1-3.6,3.6-10.5,2.7-15.5c-0.5-1.4-1.4-2.7-2.7-3.2
		c-3.2-0.9-6.8-0.9-9.6,1.8c-0.9,0.9-1.8,1.8-2.3,3.2c-0.5,0.5-0.5,0.9-0.5,1.4l0,0c-1.8,0.9-2.3,3.2-1.8,5.5
		c-0.9,1.8-0.5,4.1,1.4,5c0.5,0,0.5,0.5,0.9,0.5c-0.5,0.5-0.9,0.9-1.4,1.4C328.3,51.3,333.8,57.2,337.4,53.6z"/>
	<path class="st0" d="M223.9,138.9c-0.9,6.4-1.4,12.3,1.8,18.2c3.6,6.4,10.9,8.7,16.9,11.4c4.6,1.8,6.4-6.4,1.8-8.2
		c-3.6-1.8-7.8-3.2-11.4-6.4c-4.6-4.1-2.7-11.9-1.4-16.9c0.5-2.3-0.5-4.6-2.7-5.5c-3.2-0.9-8.2-1.4-8.2-5.9c0-2.3,0.5-4.6,0.9-7.3
		c0.5-5.5-7.3-5.5-7.8,0c0,4.1-1.4,7.8,0,11.9C215.7,135.7,219.8,137.9,223.9,138.9z"/>
	<path class="st0" d="M193.3,154.4c1.8,3.6,4.6,5.9,7.3,7.3c-1.4,7.8-1.8,16.9,3.2,22.3c5.9,6.8,14.6,6.4,22.3,4.1
		c4.6-1.4,2.7-9.6-1.8-8.2c-5,1.4-11.9,2.7-15-2.3c-3.2-5-1.8-12.8-0.5-17.8c0.5-2.3-0.5-4.6-2.7-5.5c-8.2-2.3-6.8-10.9-10.5-17.8
		c-2.3-4.6-9.1-0.5-6.4,4.1C192,145.2,191.5,150.3,193.3,154.4z"/>
	<path class="st0" d="M182.8,199.5c-0.9,5.5-1.8,10.9,1.4,15.5c1.4,2.3,4.1,4.1,6.4,5.5c5.5,3.2,5.9,4.6,7.3,10.9
		c3.2,20.1,21.9,22.3,35.1,13.7c4.1-2.7,0.5-10-3.6-7.3c-7.8,5-16,6.8-21.9-2.3c-3.2-5-0.9-10.9-3.2-16
		c-5.9-11.4-16.9-3.6-12.3-22.3c0.5-2.7-1.4-5.5-3.6-5.5c-16-0.9-19.6-13.2-11.9-27.8c2.7-4.6-4.1-9.1-6.4-4.1
		C159.1,178.5,165.1,195.8,182.8,199.5z"/>
	<path class="st0" d="M158.2,229.6c-18.2,29.6,21.9,59.7,48.3,52.9c4.6-1.4,2.7-9.6-1.8-8.2c-20.5,5.5-58.8-19.2-36.9-44.2
		c2.3-2.7,0.5-6.8-2.7-7.3c-17.3-1.8-17.8-21-16.4-35.6c0.5-5.5-7.3-5.5-7.8,0C139.1,205.4,142.7,224.1,158.2,229.6z"/>
</g>
</svg>
