<?xml version="1.0" encoding="utf-8"?>
<!-- Generator: Adobe Illustrator 23.0.3, SVG Export Plug-In . SVG Version: 6.00 Build 0)  -->
<svg version="1.1" id="Layer_1" xmlns="http://www.w3.org/2000/svg" xmlns:xlink="http://www.w3.org/1999/xlink" x="0px" y="0px"
	 viewBox="0 0 1366 768" style="enable-background:new 0 0 1366 768;" xml:space="preserve">
<style type="text/css">
	.st0{fill:#55401C;}
</style>
<g>
	<g>
		<path class="st0" d="M1038.4,476.1c11.2,2.8,78.4,35,53.2,51.8c-7,4.2,0,16.8,7,12.6c15.4-9.8,14-28,4.2-40.6
			c-14-18.2-39.2-29.4-60.2-36.4C1032.8,459.3,1030,473.3,1038.4,476.1L1038.4,476.1z"/>
	</g>
	<path class="st0" d="M723.4,397.7c-65.8-19.6-131.6-37.8-198.8-56v-1.4c0-5.6-7-4.2-9.8-1.4c-7-1.4-12.6-2.8-19.6-5.6
		c-4.2-1.4-7,2.8-5.6,5.6c-2.8-1.4-8.4,0-9.8,4.2c-21,51.8,32.2,114.8,88.2,130.2c58.8,16.8,126-11.2,152.6-58.8
		c1.4-1.4,1.4-2.8,0-4.2C730.4,413.1,731.8,400.5,723.4,397.7z M610,379.5v1.4c-1.4,9.8-2.8,21,8.4,28c8.4,4.2,18.2,4.2,23.8-4.2
		c1.4-2.8-2.8-8.4-7-5.6c-4.2,2.8-9.8,0-11.2-2.8c-2.8-4.2-2.8-9.8-1.4-14c16.8,4.2,32.2,9.8,49,14c-28,70-121.8,7-141.4-43.4
		C555.4,362.7,582,371.1,610,379.5z M577.8,457.9c-49-12.6-91-64.4-84-109.2c0-1.4,0-2.8-1.4-4.2c7,2.8,14,4.2,21,7
		c2.8,40.6,40.6,74.2,82.6,88.2c29.4,9.8,93.8-1.4,86.8-36.4c8.4,2.8,16.8,5.6,25.2,7C674.4,442.5,633.8,471.9,577.8,457.9z"/>
	<path class="st0" d="M590.4,386.5c-4.2,1.4-8.4-2.8-9.8-5.6c-1.4-5.6-11.2-4.2-11.2,1.4c0,11.2,14,18.2,25.2,12.6
		C601.6,392.1,597.4,385.1,590.4,386.5z"/>
	<path class="st0" d="M267,362.7c-4.2-1.4-8.4,1.4-7,4.2c1.4,4.2,5.6,7,4.2,12.6c0,4.2,7,4.2,8.4,0C275.4,373.9,274,365.5,267,362.7
		z"/>
	<path class="st0" d="M726.2,149.9c-1.4,2.8-4.2,8.4-9.8,7c-5.6-1.4-5.6-7-4.2-9.8c1.4-4.2-5.6-5.6-7-2.8c-5.6,8.4-1.4,18.2,8.4,21
		c11.2,2.8,23.8-4.2,23.8-14C737.4,147.1,729,145.7,726.2,149.9z"/>
	<path class="st0" d="M717.8,177.9c-9.8,4.2-14,16.8-7,23.8c2.8,2.8,7,0,5.6-2.8c-2.8-5.6,0-12.6,8.4-14c5.6,0,8.4,4.2,12.6,7
		c2.8,2.8,7,0,7-2.8C745.8,177.9,727.6,173.7,717.8,177.9z"/>
	<path class="st0" d="M1081.8,310.9c-7,0-11.2-1.4-16.8-4.2c-4.2-2.8-9.8,4.2-5.6,7c7,5.6,14,8.4,22.4,8.4
		C1090.2,322.1,1090.2,310.9,1081.8,310.9z"/>
	<path class="st0" d="M1077.6,338.9c-5.6,2.8-12.6,4.2-18.2,0c-5.6-2.8-11.2,4.2-5.6,7c9.8,5.6,22.4,7,30.8-1.4
		C1087.4,341.7,1081.8,337.5,1077.6,338.9z"/>
	<path class="st0" d="M846.6,393.5c-16.8,4.2-26.6,18.2-26.6,32.2c-18.2-8.4-39.2-11.2-51.8,4.2c-12.6,15.4,2.8,35,22.4,30.8
		c5.6-1.4,4.2-8.4-1.4-8.4c1.4-7,2.8-14,2.8-21c5.6,0,9.8,0,14,2.8c8.4,2.8,15.4,7,22.4,12.6c7,5.6,18.2-2.8,12.6-9.8
		c-7-8.4-7-19.6,2.8-26.6c18.2-14,37.8,4.2,33.6,21c-2.8,8.4,11.2,11.2,15.4,2.8C901.2,413.1,874.6,386.5,846.6,393.5z"/>
	<path class="st0" d="M604.4,267.5c-21-9.8-44.8-2.8-60.2,11.2c-12.6-12.6-28-26.6-49-19.6c-18.2,5.6-22.4,25.2-8.4,35
		c5.6,4.2,14-2.8,8.4-7c4.2-5.6,9.8-11.2,14-16.8c7,1.4,14,5.6,16.8,11.2c4.2,4.2,7,8.4,9.8,14c2.8,4.2,11.2,4.2,14,1.4
		c9.8-11.2,23.8-19.6,39.2-16.8c19.6,4.2,21,18.2,18.2,32.2c-1.4,7,8.4,12.6,14,7C638,301.1,625.4,275.9,604.4,267.5z"/>
	<g>
		<path class="st0" d="M23.3,480.3c23.8-26.6,53.2-46.2,88.2-56c8.4-2.8,5.6-15.4-4.2-14c-36.4,11.2-68.6,30.8-93.8,60.2
			C7.9,477.5,17.7,487.3,23.3,480.3L23.3,480.3z"/>
	</g>
	<path class="st0" d="M941.8,647c-11.2-7-8.4-4.2-15.4-14c-86.8,1.4-175-2.8-252-5.6c-120.4-2.8-239.4-8.4-359.8-19.6
		c-126-11.2-210-50.4-288.4-131.6c86.8,37.8,183.4,44.8,280,53.2c112,9.8,225.4,18.2,338.8,22.4c81.2,2.8,165.2,5.6,247.8,2.8
		c0-9.8,1.4-18.2,4.2-25.2c-78.4,2.8-156.8,2.8-236.6,0c-215.6-7-436.8-16.8-644.1-70c-1.4,0-4.2,0-4.2,0c-5.6-2.8-14,2.8-9.8,8.4
		c57.4,85.4,135.8,140,250.6,156.8c138.6,19.6,282.8,22.4,422.8,25.2c77,1.4,176.4,8.4,275.8,5.6C947.4,652.6,944.6,648.4,941.8,647
		z"/>
	<path class="st0" d="M1350.6,483.1c-1.4-5.6-7-11.2-15.4-8.4c-2.8,0-5.6,1.4-7,1.4c1.4-21-16.8-42-37.8-54.6
		c12.6-15.4,15.4-33.6,0-49c-5.6-5.6-14-9.8-22.4-12.6c-25.2-5.6-22.4,12.6-18.2-14c9.8-56-42-82.6-92.4-53.2
		c-12.6-33.6-49-63-86.8-79.8c-4.2-1.4-11.2-1.4-14,4.2s-5.6,12.6-8.4,18.2c-7-9.8-25.2-16.8-37.8-15.4c-7,1.4-12.6,2.8-18.2,7
		c4.2-22.4-2.8-46.2-21-64.4c-25.2-22.4-58.8-19.6-85.4-4.2c-7-36.4-58.8-54.6-88.2-28c1.4-12.6,2.8-26.6,4.2-39.2
		c1.4-22.4,0-39.2-30.8-35c-61.6,7-141.4,61.6-147,119c-1.4-4.2-4.2-8.4-5.6-11.2c-9.8-14-26.6-22.4-44.8-23.8
		c-23.8-1.4-47.6,11.2-56,30.8c-23.8-28-70-40.6-107.8-23.8c-46.2,21-47.6,58.8-26.6,91c-35-4.2-67.2,16.8-68.6,53.2
		c-7-5.6-14-9.8-21-12.6c-2.8-1.4-5.6,0-7,1.4c-4.2-1.4-8.4,0-9.8,4.2c-8.4,18.2-11.2,37.8-22.4,54.6c-2.8,5.6-7,9.8-11.2,15.4
		c-12.6-32.2-49-49-84-22.4c-25.2,18.2-44.8,54.6-35,82.6c-14,1.4-28,7-33.6,19.6c-11.2,23.8,9.8,44.8,36.4,46.2c7,0,7-8.4,1.4-9.8
		c-39.2-9.8-9.8-51.8,15.4-32.2c11.2,7,26.6-7,15.4-15.4c-22.4-15.4-11.2-42,1.4-58.8c11.2-15.4,11.2-16.8,35-15.4
		c26.6,1.4,22.4,0,29.4,18.2c0,1.4,1.4,2.8,2.8,4.2c-5.6,5.6-12.6,11.2-19.6,16.8c-1.4,1.4-1.4,1.4-1.4,2.8
		c-5.6,0-12.6,1.4-18.2,5.6c-5.6,4.2,0,11.2,7,8.4c18.2-2.8,26.6,1.4,25.2,14c0,8.4,12.6,11.2,18.2,5.6c11.2-8.4,28-11.2,42-7
		c14,4.2,19.6,12.6,29.4,19.6c5.6,4.2,15.4,1.4,15.4-5.6c2.8,0,4.2-1.4,7-2.8c37.8-33.6,23.8-96.6-12.6-131.6c2.8,0,5.6-1.4,5.6-4.2
		c4.2-32.2,42-53.2,75.6-30.8c9.8,7,21-4.2,12.6-12.6c-33.6-32.2-35-88.2,26.6-92.4c36.4-2.8,56,18.2,74.2,42c5.6,7,16.8,1.4,14-5.6
		c-1.4-2.8-1.4-5.6-2.8-7c8.4-19.6,26.6-35,53.2-25.2c11.2,4.2,18.2,14,22.4,23.8c2.8,9.8,1.4,18.2,8.4,26.6c0,4.2,5.6,8.4,11.2,4.2
		c23.8-23.8,67.2-9.8,57.4,23.8c-2.8,9.8,11.2,15.4,19.6,8.4c35-28,68.6-5.6,79.8,26.6c2.8,9.8,19.6,5.6,19.6-2.8
		c1.4-16.8-5.6-29.4-15.4-37.8c1.4-1.4,4.2-2.8,4.2-5.6c2.8-25.2,5.6-49,8.4-74.2c8.4-9.8,18.2-16.8,33.6-16.8
		c22.4,1.4,44.8,19.6,33.6,42c-4.2,9.8,8.4,19.6,18.2,11.2c23.8-22.4,63-30.8,81.2,2.8c12.6,22.4,5.6,44.8-8.4,65.8
		c-7,9.8,9.8,21,18.2,11.2c1.4-1.4,2.8-4.2,4.2-5.6c2.8,2.8,9.8,1.4,9.8-4.2c1.4-12.6,12.6-23.8,28-22.4c14,1.4,18.2,9.8,25.2,16.8
		c-15.4,33.6-28,68.6-36.4,103.6c0,2.8,0,4.2,1.4,5.6c-2.8,1.4-5.6,2.8-9.8,4.2c-22.4,14-18.2,46.2,9.8,50.4c4.2,0,8.4-4.2,4.2-7
		c-7-2.8-9.8-8.4-5.6-16.8c-4.2-23.8,7-21,35,8.4c0,7,9.8,9.8,15.4,4.2c15.4-14,30.8-26.6,54.6-28c28-1.4,49,22.4,28,43.4
		c-7,7,2.8,18.2,12.6,12.6c28-14,25.2-50.4,0-65.8c-1.4-1.4-4.2-1.4-5.6-2.8c0,0,0,0,1.4-1.4c15.4-19.6,18.2-40.6,15.4-58.8
		c57.4-4.2,79.8,9.8,67.2,43.4c-2.8,5.6-4.2,9.8-5.6,15.4c-1.4,2.8,0,7,2.8,9.8c0,0,9.8,4.2,9.8,5.6c1.4,0,1.4,0,2.8,0
		c21-4.2,29.4,8.4,25.2,37.8c-5.6,4.2-2.8,12.6,2.8,15.4c21,9.8,33.6,23.8,39.2,44.8c-2.8,1.4-4.2,2.8-5.6,4.2
		c-18.2,4.2-37.8,7-56,11.2c4.2,4.2,7,7,5.6,11.2c0-7,5.6-11.2,12.6-12.6c16.8-1.4,30.8,4.2,42,14c8.4-2.8,16.8-4.2,25.2-7
		c-5.6,5.6-9.8,11.2-15.4,16.8c1.4,1.4,2.8,4.2,4.2,5.6c1.4,0,1.4,0,2.8,1.4c5.6,1.4,9.8,7,8.4,12.6c9.8-11.2,19.6-23.8,26.6-37.8
		C1361.8,488.7,1356.2,484.5,1350.6,483.1z M290.8,399.1c-2.8-1.4-5.6-1.4-8.4-2.8c-16.8-2.8-33.6,0-47.6,7c-2.8-4.2-7-7-11.2-8.4
		c25.2-16.8,50.4-42,61.6-70c4.2,11.2,8.4,21,9.8,33.6C297.8,372.5,295,386.5,290.8,399.1z M325.8,351.5c4.2,22.4-2.8,40.6-9.8,61.6
		c-4.2-4.2-11.2-8.4-16.8-11.2c14-28,18.2-68.6-8.4-91l0,0c1.4-5.6,2.8-11.2,2.8-16.8C309,310.9,321.6,329.1,325.8,351.5z
		 M776.6,103.7c-1.4,12.6-2.8,23.8-4.2,36.4c-2.8,26.6-5.6,53.2-8.4,81.2c-19.6-8.4-44.8-7-65.8,1.4c-4.2-18.2-21-29.4-39.2-33.6
		c-1.4-53.2,72.8-68.6,114.8-88.2c1.4,0,1.4-1.4,2.8-2.8C776.6,99.5,776.6,102.3,776.6,103.7z M778,96.7c0-2.8-2.8-5.6-5.6-5.6
		c-51.8,0-128.8,49-120.4,98c-5.6,0-11.2,1.4-16.8,2.8c0,0,0,0,0-1.4c1.4-32.2,25.2-56,53.2-77c18.2-12.6,53.2-36.4,77-37.8
		C782.2,77.1,779.4,85.5,778,96.7z M1052.4,383.7c-7-14-19.6-23.8-35-23.8c0,0,0,0,0-1.4c14-33.6,26.6-67.2,40.6-100.8
		c16.8,14,29.4,28,36.4,47.6c7,18.2,2.8,36.4,7,54.6C1084.6,362.7,1066.4,371.1,1052.4,383.7z M1130.8,357.1v1.4
		c-4.2-1.4-9.8-1.4-14-1.4c21-37.8-15.4-91-53.2-110.6c1.4-4.2,4.2-8.4,5.6-14C1122.4,257.7,1164.4,303.9,1130.8,357.1z"/>
	<g>
		<path class="st0" d="M892.8,582.5c0-5.6,0-9.8,0-14c-5.6,1.4-11.2,1.4-16.8,2.8c-30.8,4.2-63,8.4-93.8,8.4
			c-180.6,1.4-351.4-25.2-533.4-54.6c-60.2-9.8-123.2-19.6-186.2-28c-8.4-1.4-14,4.2-16.8,8.4c-4.2,11.2,4.2,19.6,23.8,35l2.8,2.8
			h4.2c53.2,7,105,15.4,155.4,22.4c176.4,26.6,341.6,51.8,529.2,53.2c1.4,0,4.2,0,5.6,0c46.2,0,91-5.6,133-9.8l0,0
			C897,599.3,892.8,588.1,892.8,582.5z"/>
		<path class="st0" d="M1347.8,505.5c-4.2-5.6-11.2-8.4-16.8-8.4c-9.8,1.4-19.6,2.8-30.8,2.8c7,5.6,14,11.2,19.6,19.6
			c1.4,0,1.4,0,2.8,1.4c5.6,2.8,11.2,8.4,8.4,15.4c0,1.4,0,1.4,0,1.4c1.4,0,1.4,0,2.8,0c7,0,14-5.6,16.8-11.2
			C1352,519.5,1352,511.1,1347.8,505.5z"/>
	</g>
	<g>
		<path class="st0" d="M888.6,554.5c43.4,49,86.8,70,149.8,81.2c60.2,9.8,140,22.4,198.8,2.8c19.6-7,36.4-16.8,51.8-30.8
			c11.2-9.8,49-63,32.2,11.2c-4.2,19.6-33.6,40.6-50.4,50.4c-116.2,65.8-369.6,50.4-373.8-119c0-8.4-12.6-8.4-12.6,0
			c5.6,257.6,520.8,180.6,443.8,5.6c-1.4-2.8-7-4.2-9.8-1.4c-57.4,74.2-121.8,82.6-208.6,77c-84-7-156.8-18.2-214.2-85.4
			C892.8,539.1,884.4,548.9,888.6,554.5L888.6,554.5z"/>
	</g>
	<g>
		<path class="st0" d="M1256.8,502.7c16.8,1.4,35,2.8,47.6,12.6c14,9.8,16.8,26.6,11.2,42c-2.8,7,9.8,11.2,11.2,2.8
			c5.6-16.8,2.8-36.4-11.2-50.4c-15.4-15.4-39.2-19.6-60.2-19.6C1249.8,490.1,1249.8,502.7,1256.8,502.7L1256.8,502.7z"/>
	</g>
	<g>
		<path class="st0" d="M1146.2,464.9c25.2-5.6,43.4,7,64.4,18.2c8.4,4.2,50.4,22.4,43.4,36.4c-2.8,7,7,12.6,11.2,5.6
			c11.2-23.8-14-35-32.2-44.8c-29.4-16.8-54.6-35-89.6-28C1136.4,455.1,1139.2,466.3,1146.2,464.9L1146.2,464.9z"/>
	</g>
	<g>
		<path class="st0" d="M1028.6,488.7c30.8-44.8,99.4-35,137.2-2.8c5.6,5.6,14-4.2,8.4-8.4c-43.4-36.4-120.4-46.2-156.8,5.6
			C1013.2,488.7,1024.4,494.3,1028.6,488.7L1028.6,488.7z"/>
	</g>
	<g>
		<path class="st0" d="M946,515.3c5.6-4.2,11.2-8.4,16.8-14c8.4-8.4,11.2-18.2,22.4-25.2c22.4-12.6,47.6-5.6,70,4.2
			c7,2.8,12.6-7,5.6-11.2c-22.4-9.8-44.8-16.8-70-8.4c-23.8,7-35,30.8-53.2,46.2C930.6,511.1,940.4,519.5,946,515.3L946,515.3z"/>
	</g>
	<g>
		<path class="st0" d="M899.8,550.3c0-7,0-15.4,2.8-21c4.2-8.4,15.4-14,23.8-18.2c15.4-5.6,32.2-2.8,47.6-2.8c8.4,0,8.4-12.6,0-12.6
			c-21,0-44.8-1.4-64.4,9.8c-18.2,11.2-23.8,25.2-23.8,44.8C887.2,557.3,899.8,557.3,899.8,550.3L899.8,550.3z"/>
	</g>
	<g>
		<path class="st0" d="M916.6,518.1c2.8,82.6,123.2,81.2,179.2,92.4c7,1.4,11.2-9.8,2.8-11.2c-50.4-8.4-168-7-169.4-79.8
			C929.2,509.7,916.6,509.7,916.6,518.1L916.6,518.1z"/>
	</g>
	<g>
		<path class="st0" d="M1002,537.7c50.4,39.2,114.8,56,176.4,42c35-8.4,92.4-35,61.6-78.4c-4.2-7-15.4,0-11.2,5.6
			c26.6,37.8-35,56-54.6,60.2c-22.4,5.6-44.8,5.6-67.2,2.8c-37.8-4.2-70-19.6-99.4-42C1002,522.3,996.4,533.5,1002,537.7L1002,537.7
			z"/>
	</g>
	<g>
		<path class="st0" d="M1049.6,506.9c11.2,12.6,26.6,22.4,42,26.6c9.8,2.8,29.4,7,39.2,0c9.8-7,8.4-22.4,4.2-32.2
			c-5.6-14-18.2-21-32.2-22.4c-8.4-1.4-8.4,11.2,0,12.6c12.6,1.4,25.2,12.6,22.4,25.2c-2.8,9.8-15.4,7-23.8,5.6
			c-16.8-2.8-32.2-12.6-44.8-25.2C1053.8,492.9,1044,501.3,1049.6,506.9L1049.6,506.9z"/>
	</g>
	<g>
		<path class="st0" d="M1272.2,533.5c4.2,14,8.4,32.2-11.2,36.4c-9.8,1.4-19.6,1.4-28,8.4c-5.6,5.6,2.8,14,8.4,8.4
			c5.6-5.6,15.4-4.2,22.4-5.6s12.6-4.2,16.8-8.4c9.8-12.6,7-28,2.8-42C1282,522.3,1270.8,525.1,1272.2,533.5L1272.2,533.5z"/>
	</g>
	<g>
		<path class="st0" d="M898.4,600.7c119,95.2,315,105,435.4,8.4c11.2-8.4-4.2-23.8-15.4-15.4c-110.6,88.2-296.8,79.8-406-8.4
			C902.6,576.9,887.2,592.3,898.4,600.7L898.4,600.7z"/>
	</g>
</g>
</svg>
