<?xml version="1.0" encoding="utf-8"?>
<!-- Generator: Adobe Illustrator 23.0.3, SVG Export Plug-In . SVG Version: 6.00 Build 0)  -->
<svg version="1.1" id="Слой_1" xmlns="http://www.w3.org/2000/svg" xmlns:xlink="http://www.w3.org/1999/xlink" x="0px" y="0px"
	 viewBox="0 0 1080 1080" style="enable-background:new 0 0 1080 1080;" xml:space="preserve">
<style type="text/css">
	.st0{fill:#5B3E12;}
</style>
<g>
	<path class="st0" d="M1019.4,874.9c-142-34-294.5-8.9-438,0c-180.5,10.4-365.5-8.9-544.5,29.6c-1.5,0-3,1.5-4.4,3
		c-3,0-7.4,1.5-8.9,4.4c-10.4,22.2-8.9,20.7-11.8,45.9c0,5.9,4.4,11.8,10.4,13.3c183.5,34,387.7,13.3,572.6,5.9
		c100.6-4.4,201.2-8.9,300.4-22.2c28.1-4.4,112.5-5.9,122.8-44.4C1034.2,904.5,1040.1,879.3,1019.4,874.9z M821.1,928.1
		c-100.6,10.4-201.2,14.8-301.9,19.2c-102.1,4.4-204.2,5.9-306.3,4.4c-37,0-74-1.5-109.5-3c-13.3,0-26.6-1.5-41.4-3
		c-29.6-1.5-23.7-3-20.7-32.6c171.6,3,346.2,25.2,517.9,20.7c142-4.4,279.7-48.8,421.7-31.1C951.3,919.3,840.3,926.7,821.1,928.1z"
		/>
	<path class="st0" d="M550.3,327.4c-11.8,0-25.2,1.5-37,1.5c-8.9-38.5-48.8-71-88.8-63.6c-42.9,7.4-53.3,51.8-42.9,88.8
		C177.4,416.2,7.3,583.4,36.9,811.2c-3,5.9-1.5,13.3,1.5,19.2c-3,4.4,0,8.9,4.4,10.4c3,0,7.4,0,10.4,0c16.3,5.9,34,5.9,51.8,3
		c136.1,1.5,270.8-25.2,405.4-34c152.4-10.4,316.6-8.9,467.6,14.8c10.4,1.5,16.3-5.9,19.2-13.3c4.4-3,8.9-7.4,10.4-13.3
		c1.5-1.5,3-3,4.4-5.9C1060.8,503.5,773.7,324.4,550.3,327.4z M440.8,300.8c1.5,0,1.5-1.5,3-1.5c16.3,0,25.2,16.3,31.1,34
		c-14.8,1.5-31.1,4.4-45.9,8.9C421.6,325.9,426,309.6,440.8,300.8z M992.7,762.4L992.7,762.4c-173.1-54.7-353.6-35.5-529.7-13.3
		c-82.9,10.4-165.7,11.8-247.1,22.2c-48.8,5.9-105.1,31.1-155.4,29.6c22.2-256,210.1-409.9,466.1-430.6
		C735.3,354,1043,522.7,992.7,762.4z"/>
	<path class="st0" d="M322.4,284.5c-11.8-23.7-28.1-47.3-41.4-71c-11.8-19.2-22.2-47.3-40-60.7c-16.3-11.8-47.3-1.5-38.5,22.2
		c7.4,20.7,26.6,40,41.4,57.7c17.8,23.7,37,48.8,59.2,66.6C313.6,308.2,328.4,297.8,322.4,284.5z"/>
	<path class="st0" d="M218.9,324.4c-16.3-13.3-32.6-26.6-50.3-38.5c-16.3-11.8-32.6-25.2-50.3-35.5c-20.7-11.8-45.9,16.3-26.6,34
		c29.6,28.1,76.9,47.3,115.4,57.7C217.4,346.6,227.7,331.8,218.9,324.4z"/>
	<path class="st0" d="M112.3,407.3c-16.3-4.4-34-7.4-50.3-10.4c-5.9-1.5-13.3-3-19.2-5.9c-1.5,0-17.8-7.4-13.3-3
		C14.7,377.7-1.6,394,1.4,410.3c8.9,44.4,85.8,31.1,112.5,14.8C119.7,419.1,119.7,408.8,112.3,407.3z"/>
	<path class="st0" d="M736.7,86.2c-23.7,3-37,29.6-50.3,47.3c-16.3,23.7-29.6,50.3-45.9,74c-8.9,11.8,10.4,25.2,19.2,14.8
		c17.8-19.2,34-40,50.3-60.7c13.3-17.8,37-34,44.4-57.7C757.5,92.1,747.1,84.7,736.7,86.2z"/>
	<path class="st0" d="M847.7,141c-44.4,20.7-57.7,84.3-90.3,119.9c-13.3,14.8,3,35.5,20.7,26.6c22.2-10.4,37-29.6,50.3-48.8
		c14.8-20.7,31.1-40,48.8-57.7C898,158.7,872.9,129.1,847.7,141z"/>
	<path class="st0" d="M1050.4,237.1c-16.3,0-29.6,8.9-44.4,14.8c-17.8,5.9-35.5,13.3-51.8,20.7c-29.6,11.8-54.7,34-56.2,68.1
		c-1.5,17.8,22.2,22.2,31.1,8.9c14.8-22.2,40-31.1,63.6-38.5c23.7-7.4,59.2-10.4,75.5-31.1C1080,262.3,1072.6,235.7,1050.4,237.1z"
		/>
	<g>
		<g>
			<path class="st0" d="M84.2,700.3c29.6-85.8,145-161.3,217.5-205.7c118.4-72.5,257.5-111,392.1-66.6
				c150.9,48.8,248.6,189.4,294.5,335.9c4.4,13.3,25.2,7.4,20.7-5.9c-51.8-164.2-167.2-321.1-343.3-361
				c-136.1-31.1-269.3,10.4-384.7,84.3C205.5,528.6,94.6,604.1,63.5,694.4C57.6,709.1,78.3,715.1,84.2,700.3L84.2,700.3z"/>
		</g>
	</g>
</g>
</svg>
