<?xml version="1.0" encoding="utf-8"?>
<!-- Generator: Adobe Illustrator 23.0.3, SVG Export Plug-In . SVG Version: 6.00 Build 0)  -->
<svg version="1.1" id="Слой_1" xmlns="http://www.w3.org/2000/svg" xmlns:xlink="http://www.w3.org/1999/xlink" x="0px" y="0px"
	 viewBox="0 0 1080 1080" style="enable-background:new 0 0 1080 1080;" xml:space="preserve">
<style type="text/css">
	.st0{fill:#5B3E12;}
</style>
<g>
	<path class="st0" d="M796.4,503.4c-1.2-1.2-2.4-2.4-3.6-2.4c3.6-64-161.8-54.3-191.9-55.5c-71.2-1.2-144.9-2.4-216.1,4.8
		c-9.7,1.2-18.1,2.4-26.6,4.8c0-2.4-1.2-3.6-3.6-3.6C229.1,431,83,432.2,23.9,567.4C-0.3,622.9-6.3,693,15.4,749.7
		c21.7,60.4,79.7,95.4,135.2,119.5c83.3,35,176.2,55.5,265.6,68.8c88.1,12.1,176.2,2.4,264.4-7.2c129.2-14.5,332-38.6,380.3-185.9
		C1109.1,600,924.4,481.7,796.4,503.4z M785.6,551.7c1.2,0,1.2,0,2.4,0c64-2.4,143.7,27.8,159.3,96.6
		c20.5,82.1-65.2,129.2-132.8,144.9c-112.3,25.4-234.2,29-348.9,19.3c-102.6-8.5-257.1-19.3-333.2-99C77,654.3,78.2,559,151.8,516.7
		c53.1-31.4,114.7-22.9,173.8-22.9l1.2,1.2c-1.2,0-2.4,0-3.6,2.4c-1.2,3.6-2.4,7.2-3.6,10.9h-1.2c-36.2-6-74.8-4.8-108.6,8.5
		c-9.7,3.6-37.4,15.7-32.6,30.2c-51.9,109.9,111.1,175,191.9,190.7c39.8,8.5,109.9,13.3,169,1.2c68.8,32.6,176.2,47.1,245.1,8.5
		c22.9-12.1,85.7-83.3,44.7-102.6c0-6-1.2-12.1-3.6-18.1c-10.9-27.8-39.8-37.4-67.6-43.5C767.5,573.5,778.3,563.8,785.6,551.7z
		 M242.3,580.7c1.2,3.6,8.5,3.6,8.5-1.2c0-7.2-2.4-14.5-1.2-21.7c-1.2-13.3,8.5-16.9,26.6-10.9c1.2,2.4,2.4,6,3.6,8.5
		c2.4,10.9,3.6,21.7,4.8,32.6c2.4,15.7,6,42.3,21.7,51.9c9.7,6,21.7,4.8,27.8-6c3.6-7.2,2.4-15.7,3.6-22.9
		c1.2-12.1,4.8-24.1,4.8-36.2c10.9,8.5,25.4,15.7,39.8,21.7c-3.6,18.1-3.6,37.4-1.2,56.7c2.4,13.3,6,32.6,20.5,38.6
		c13.3,4.8,24.1-3.6,29-15.7c8.5-18.1,14.5-41,19.3-61.6c9.7,1.2,18.1,2.4,26.6,3.6c-1.2,24.1,4.8,65.2,30.2,67.6
		c12.1,1.2,19.3-9.7,21.7-20.5c2.4-9.7,4.8-18.1,9.7-27.8c2.4-4.8,6-9.7,8.5-14.5c15.7,0,32.6,0,50.7-1.2
		c-44.7,156.9-402,51.9-392.3-94.2c15.7-6,33.8-12.1,37.4-12.1c24.1-4.8,48.3-3.6,71.2,0h1.2c-3.6,21.7,3.6,39.8,18.1,53.1
		c-1.2,0-2.4,1.2-2.4,2.4c-7.2,9.7-8.5,21.7-10.9,33.8c0,2.4-1.2,15.7-1.2,15.7c-7.2,3.6-10.9-14.5-12.1-16.9
		c-7.2-21.7-4.8-53.1-20.5-71.2c-8.5-10.9-22.9-14.5-35-6C233.9,539.7,236.3,562.6,242.3,580.7z M392,601.2
		c13.3,4.8,26.6,8.5,39.8,10.9c-3.6,9.7-7.2,20.5-9.7,31.4c-2.4,7.2-7.2,41-20.5,26.6c-6-7.2-7.2-27.8-8.5-36.2
		C392,621.7,392,610.9,392,601.2z M487.4,620.5c13.3,1.2,25.4,2.4,35,2.4c1.2,0,2.4,0,3.6,0c-7.2,10.9-10.9,25.4-13.3,36.2
		c-1.2,7.2-7.2,12.1-12.1,3.6c-3.6-4.8-4.8-10.9-7.2-16.9C489.8,638.6,488.6,629,487.4,620.5z M652.8,618.1c9.7-1.2,20.5-3.6,30.2-6
		c-6,7.2-8.5,16.9-9.7,26.6c-1.2,8.5-1.2,16.9-1.2,25.4c0,4.8,1.2,18.1-2.4,21.7c-7.2,1.2-13.3,2.4-20.5,4.8
		c-2.4-3.6-4.8-7.2-7.2-10.9c-1.2-2.4-3.6-2.4-6-1.2c3.6-7.2,7.2-15.7,8.5-25.4c2.4,0,6-1.2,7.2-3.6
		C657.6,639.8,656.4,627.8,652.8,618.1z M774.7,635c6,2.4,13.3-2.4,9.7-9.7c-3.6-7.2-12.1-9.7-19.3-7.2
		c-8.5,3.6-13.3,12.1-13.3,21.7c0,4.8,3.6,13.3,1.2,16.9c-6,13.3-14.5,0-18.1-7.2c-7.2-15.7-13.3-31.4-21.7-47.1
		c8.5-2.4,15.7-6,24.1-9.7c26.6,3.6,77.3,14.5,78.5,47.1c-3.6,1.2-4.8,7.2-1.2,8.5c-2.4,9.7-8.5,21.7-21.7,36.2
		c-16.9,19.3-47.1,26.6-71.2,32.6c-43.5,12.1-85.7,13.3-129.2-1.2c16.9-8.5,30.2-20.5,39.8-36.2c0,0,0,0,0,1.2
		c6,16.9,24.1,38.6,42.3,22.9c8.5-7.2,10.9-20.5,12.1-31.4c2.4-21.7-2.4-41,14.5-57.9c1.2-1.2,1.2-2.4,1.2-3.6
		c3.6,14.5,9.7,30.2,14.5,44.7c4.8,10.9,10.9,21.7,22.9,25.4c9.7,2.4,19.3-1.2,25.4-9.7c2.4-4.8,3.6-9.7,3.6-14.5
		C771.1,654.3,767.5,631.4,774.7,635z M820.6,673.6c1.2,15.7-4.8,29-18.1,41c-13.3,13.3-29,22.9-45.9,29c-22.9,8.5-47.1,9.7-70,10.9
		c-45.9,0-89.3-9.7-134-20.5c12.1-2.4,22.9-7.2,32.6-10.9c59.2,35,169,24.1,219.7-26.6C810.9,689.3,815.7,682.1,820.6,673.6z
		 M633.5,639.8c-26.6,101.4-182.3,95.4-262,79.7c-86.9-18.1-219.7-67.6-185.9-181.1c2.4-2.4,6-3.6,10.9-6
		C176,615.7,316,679.7,376.3,696.6c79.7,21.7,212.5,31.4,231.8-73.6c9.7-1.2,20.5-1.2,31.4-2.4c0,4.8,0,10.9,0,15.7
		C637.1,635,634.7,636.2,633.5,639.8z M562.2,606c-64,1.2-245.1,1.2-234.2-100.2c24.1,64,154.5,70,206.4,70
		c51.9,1.2,106.2,0,156.9-12.1c19.3-4.8,64-16.9,86.9-37.4C744.5,600,633.5,604.8,562.2,606z M456,461.2
		c37.4-1.2,74.8-2.4,113.5-2.4c3.6,0,7.2,0,10.9,0l0,0c-6,2.4-8.5,6-9.7,10.9c-2.4,0-6,2.4-6,6c0,14.5,4.8,29,7.2,43.5
		c1.2,8.5,2.4,21.7-13.3,14.5c-6-3.6-9.7-10.9-13.3-15.7c-9.7-18.1-15.7-43.5-38.6-49.5c-1.2,0-3.6,0-4.8,1.2
		c-9.7-2.4-19.3,4.8-22.9,14.5c-2.4,7.2-2.4,13.3,0,20.5c1.2,4.8,2.4,8.5,3.6,13.3c1.2,3.6,1.2,9.7,2.4,14.5
		c-25.4-2.4-31.4-24.1-43.5-43.5c-7.2-10.9-15.7-20.5-29-21.7c-1.2-1.2-1.2-2.4-3.6-2.4c-12.1-4.8-21.7,9.7-24.1,19.3
		c-3.6,14.5,3.6,27.8,12.1,38.6c3.6,4.8,12.1,2.4,9.7-3.6c-3.6-8.5-8.5-16.9-7.2-26.6c0-8.5,6-10.9,10.9-16.9
		c6,7.2,12.1,14.5,16.9,22.9c4.8,9.7,8.5,19.3,15.7,29c9.7,15.7,30.2,29,48.3,18.1c3.6-1.2,7.2-4.8,8.5-8.5c3.6-7.2,1.2-15.7,0-24.1
		c-1.2-6-4.8-13.3-4.8-20.5c0-8.5,4.8-9.7,10.9-13.3c1.2,0,1.2-1.2,1.2-1.2c21.7,21.7,20.5,71.2,57.9,73.6
		c33.8,1.2,22.9-43.5,14.5-68.8c1.2-7.2,8.5-15.7,14.5-6c2.4,3.6,3.6,9.7,4.8,14.5c2.4,7.2,4.8,13.3,7.2,19.3
		c7.2,12.1,19.3,26.6,32.6,32.6c8.5,3.6,19.3,1.2,21.7-8.5c2.4-7.2-2.4-14.5-3.6-21.7c-2.4-9.7-2.4-19.3-2.4-29
		c1.2,0,1.2-1.2,3.6-1.2c7.2-2.4,6,3.6,7.2,9.7c2.4,8.5,6,18.1,8.5,26.6c3.6,9.7,7.2,19.3,18.1,21.7c8.5,2.4,18.1-1.2,21.7-9.7
		c2.4-6,0-12.1,1.2-18.1c0-9.7,6-14.5,12.1-20.5c4.8-4.8,0-13.3-6-10.9c-12.1,2.4-19.3,15.7-20.5,26.6c0,3.6,1.2,8.5,0,10.9
		c-2.4,7.2-7.2,0-9.7-3.6c-4.8-9.7-7.2-21.7-12.1-31.4c-3.6-9.7-8.5-21.7-20.5-18.1c-3.6,1.2-7.2,2.4-9.7,6c-3.6-1.2-7.2,0-8.5,4.8
		c-2.4,10.9-2.4,20.5-1.2,31.4c1.2,6,3.6,12.1,3.6,18.1s2.4,7.2-4.8,2.4c-20.5-12.1-21.7-35-31.4-54.3c-3.6-6-8.5-10.9-15.7-13.3
		c25.4,0,51.9,0,77.3,2.4c29,1.2,147.3,12.1,72.4,68.8c-49.5,37.4-134,32.6-193.1,32.6c-57.9,0-188.3-1.2-216.1-70
		c0,0,1.2-1.2,1.2-2.4C351,453.9,427,462.4,456,461.2z M925.6,857.1c-78.5,36.2-167.8,48.3-253.5,56.7c-84.5,9.7-167.8,18.1-251.1,6
		C273.7,899.4,20.2,859.5,20.2,670c0-74.8,33.8-150.9,100.2-188.3c67.6-37.4,150.9-29,225.7-21.7c-7.2,3.6-14.5,9.7-18.1,18.1
		c-1.2,0-2.4,1.2-2.4,3.6c0,0,0,0,0,1.2C217,462.4,48,501,79.4,647.1C112,799.2,334.1,816.1,456,827c95.4,8.5,191.9,6,287.3-6
		c65.2-8.5,142.4-19.3,189.5-71.2c95.4-106.2-32.6-211.3-141.2-211.3c2.4-6,3.6-12.1,4.8-19.3c88.1-18.1,182.3,30.2,233,103.8
		C1095.8,720.7,1013.7,817.3,925.6,857.1z"/>
	<g>
		<g>
			<path class="st0" d="M314.8,469.6c-112.3-1.2-264.4,27.8-287.3,155.7C7,743.7,127.7,816.1,221.8,849.9
				c135.2,48.3,299.4,51.9,440.6,43.5c103.8-6,264.4-24.1,311.4-135.2c22.9-53.1,9.7-126.8-24.1-171.4
				c-30.2-38.6-118.3-86.9-169-67.6c-21.7,8.5-12.1,43.5,9.7,35c27.8-9.7,77.3,15.7,99,29c37.4,22.9,55.5,64,59.2,106.2
				c4.8,60.4-33.8,100.2-84.5,125.5c-132.8,62.8-305.4,50.7-446.6,35c-109.9-12.1-245.1-30.2-323.5-118.3
				c-48.3-55.5-42.3-148.5,26.6-184.7c54.3-29,132.8-41,194.4-41C337.7,505.9,337.7,469.6,314.8,469.6L314.8,469.6z"/>
		</g>
	</g>
	<g>
		<g>
			<path class="st0" d="M221.8,382.7c-16.9-24.1-39.8-44.7-66.4-57.9c-20.5-10.9-38.6,20.5-18.1,31.4c21.7,10.9,39.8,25.4,53.1,44.7
				C203.7,418.9,235.1,400.8,221.8,382.7L221.8,382.7z"/>
		</g>
	</g>
	<g>
		<g>
			<path class="st0" d="M289.4,367c10.9-94.2-49.5-160.6-101.4-231.8c-13.3-18.1-44.7,0-31.4,18.1c48.3,65.2,106.2,125.5,96.6,213.7
				C250.8,390,287,390,289.4,367L289.4,367z"/>
		</g>
	</g>
	<g>
		<g>
			<path class="st0" d="M372.7,357.4c18.1-67.6,30.2-135.2,35-204c1.2-22.9-35-22.9-36.2,0c-4.8,66.4-15.7,130.4-33.8,194.4
				C331.7,369.4,366.7,379.1,372.7,357.4L372.7,357.4z"/>
		</g>
	</g>
	<g>
		<g>
			<path class="st0" d="M751.8,357.4c14.5-38.6,37.4-71.2,66.4-100.2c16.9-15.7-8.5-42.3-25.4-25.4c-33.8,32.6-59.2,71.2-76.1,115.9
				C708.3,369.4,743.3,379.1,751.8,357.4L751.8,357.4z"/>
		</g>
	</g>
	<g>
		<g>
			<path class="st0" d="M818.2,364.6c-3.6-10.9,60.4-51.9,67.6-56.7c24.1-16.9,49.5-31.4,74.8-44.7c20.5-10.9,2.4-42.3-18.1-31.4
				c-38.6,19.3-74.8,42.3-108.6,68.8c-20.5,15.7-65.2,42.3-51.9,73.6C791.6,396,826.6,386.3,818.2,364.6L818.2,364.6z"/>
		</g>
	</g>
	<g>
		<g>
			<path class="st0" d="M867.7,425c33.8-14.5,68.8-25.4,103.8-32.6c22.9-4.8,13.3-39.8-9.7-35c-38.6,8.5-76.1,20.5-112.3,36.2
				C827.8,403.2,845.9,434.6,867.7,425L867.7,425z"/>
		</g>
	</g>
</g>
</svg>
