<?xml version="1.0" encoding="utf-8"?>
<!-- Generator: Adobe Illustrator 23.0.3, SVG Export Plug-In . SVG Version: 6.00 Build 0)  -->
<svg version="1.1" id="Слой_1" xmlns="http://www.w3.org/2000/svg" xmlns:xlink="http://www.w3.org/1999/xlink" x="0px" y="0px"
	 viewBox="0 0 400 400" style="enable-background:new 0 0 400 400;" xml:space="preserve">
<style type="text/css">
	.st0{fill:#5C3F13;}
</style>
<g>
	<path class="st0" d="M61.3,297.1c85.3,26.8,193.9,31.2,277.1-8.7c2.6-1.3,2.2-4.3,0.4-6.1c3.9-5.2,7.8-10.8,12.1-16
		c1.7-1.7,1.3-3.9,0-5.2c1.3-0.9,2.6-1.3,3.9-2.2c2.6-1.3,2.2-5.6,0-6.9c-7.4-4.8-14.3-8.2-22.5-11.3c-4.3-1.7-6.5,6.1-1.7,7.8
		c5.2,1.7,10,3.9,14.7,6.5c-48.1,23.8-106.1,20.8-157.1,22.9c-31.2,1.3-63.2,3-93.9-3.5c-7.8-1.7-16-3.5-23.8-5.6
		s-27.7-8.7-9.5-15.2c0.4,0,0.9-0.4,1.3-0.9c0.4,0.4,1.3,1.3,2.6,1.3c3.9,0,7.8,0,11.3,0c30.7,13.4,57.1,27.7,90.5,21.6
		c1.3-0.4,2.2-1.3,2.6-2.6c50.7,1.3,100-15.2,150.7-16.5c3,0,3.9-3.5,3-5.6c3-1.3,3.9-6.9,0-7.8c-22.9-4.3-45.5-7.4-68.4-7.4
		c-28.6,0.4-55.8,11.7-84.4,12.6c-24.2,0.4-42.4-13.9-63.6-22.5c10-0.4,27.7,10,36.8,10.8c17.3,2.2,35.5-2.6,51.9-7.4
		c42-11.7,92.6-37.2,123.8,11.3c2.6,4.3,9.1,0,6.1-3.9c-11.3-17.7-24.7-26.4-39-30.3l0,0c-13-12.1-26.4-16.9-40.3-16.9
		c0.4-1.7,0.4-3.9-1.3-5.2c-27.3-21.6-61.9-31.6-88.3-5.2c-7.8,0.9-15.2,3.9-22.1,10.8c-1.3,1.3-1.3,3-0.9,4.3
		c-7.8,2.2-14.7,6.5-20.8,14.7c-0.9,1.3-0.9,3-0.4,4.3c-1.3,0.4-2.2,0.9-2.6,2.2c-0.9-0.4-1.7-0.9-2.2-1.7c-1.3-0.9-3.5-0.4-4.3,0.4
		c-2.6,2.6-4.8,5.6-7.4,8.2c-0.4,0.4-0.4,0.9-0.9,1.3c-6.5,0.4-10.8,4.3-14.7,11.7c-1.7-0.9-4.3,0-4.8,2.6c-3,0.9-3.5,6.1-0.9,7.4
		c0,0,0,0.4-0.4,0.4c-3.5,0-6.9,0-10,0c-0.9,0-1.7,0.4-2.6,1.3c-0.9-0.9-1.7-1.3-3.5-0.9c-6.9,2.6-14.7,6.9-16,12.1
		c-0.9,0.9-1.3,2.2-0.9,3.5c3,13,9.5,24.7,17.7,34.2l0,0l0.4,0.4C60.9,297.1,60.9,297.1,61.3,297.1L61.3,297.1z M218.9,194.1
		c-0.4-0.9-1.3-1.7-2.6-2.2c-11.3-1.7-22.5-6.1-34.2-9.5c16.5-2.6,32.9,1.7,48.1,8.7C226.7,191.9,222.8,192.8,218.9,194.1z
		 M171.7,180.2c-1.3-0.4-2.6-0.4-3.9-0.4c1.7-1.3,3.9-2.6,6.1-3.5C172.2,176.7,171.7,178.5,171.7,180.2z M238.8,189.7
		c-0.9,0-1.7,0-3,0.4c0.4-0.4,0.4-1.3,0.4-2.2C237.1,188.4,238,189.3,238.8,189.7z M221.5,178.9c-15.2-5.2-31.2-6.9-46.8-3
		C189.5,168.5,205.9,171.1,221.5,178.9z M153.5,188c1.3,1.3,3.5,1.7,4.8,0c0.4-0.4,0.9-0.4,0.9-0.9c13-0.9,26.8,4.3,40.3,8.7
		c-17.7,2.2-38.5-4.3-56.7-2.6C146.6,190.6,150.1,188.9,153.5,188z M191.2,204c-8.2,3-16.9,6.1-25.5,7.8c-15.2,3-31.2,2.2-46.8,2.2
		C136.7,192.3,166.1,202.7,191.2,204z M181.7,216.1c31.2-8.2,59.7-29,89.2-11.7c-47.6-1.3-104.3,39.4-151.1,16.9
		C140.6,221.8,160.9,221.8,181.7,216.1z M82.1,248.2c0.4-0.4,0.4-1.3,0.4-1.7c28.6,1.7,54.1,17.7,82.3,21.6
		C134.1,273.7,109.4,260.7,82.1,248.2z M293.8,250.3c-26.8,3-53.7,8.7-80.5,11.7C240.6,254.2,266.5,243,293.8,250.3z M308.5,249
		c0.4,0,0.4,0,0.9,0C309,249,308.5,249,308.5,249L308.5,249z M184.7,256c16.9-2.6,33.3-6.9,49.8-9.5c-11.7,3.5-23.4,7.4-35.1,10.4
		c-40.3,10.8-72.7-14.3-110.8-18.6c13-9.5,42.9,9.5,53.2,13.4C155.7,256.8,170.4,258.1,184.7,256z M123.7,286.3
		c42.9,3.5,86.6,0,129.4-3.5c29.9-2.2,61-5.6,89.2-17.7c-4.3,5.6-8.7,11.7-13,17.3c-0.4,0.9-0.9,1.3-0.9,2.2
		c-79.7,35.5-183.1,30.3-264.1,5.2c-4.3-5.2-8.2-11.7-11.3-18.2C73.5,283.2,102,284.5,123.7,286.3z"/>
	<path class="st0" d="M393,86.7c-0.9-5.2-7.8-3-6.9,2.2c1.7,12.6,3.5,24.7,3,37.2c0,7.4-4.3,22.1-11.3,26.8
		c-0.4-0.4-0.9-0.9-1.3-1.3c3.9-21.2,2.2-42.4,2.2-64.1c0-5.2-7.4-5.2-7.4,0c0,21.6,1.7,42.9-2.2,63.6c0,0.4,0,0.4,0,0.9
		c-0.9-0.4-1.7-1.3-2.6-2.6c-6.5-7.4-6.5-22.9-6.9-32.5c-0.4-9.1-0.4-19-2.6-28.1c-1.3-5.2-8.2-3-6.9,2.2c4.3,16.9-3,67.1,20.3,69.7
		c0.4,0,0.4,0,0.9,0c-0.9,58.9,9.1,118.2,0.4,177.1c-0.9,5.2,6.1,7.4,6.9,2.2c9.1-59.7-0.9-119.9,0-179.7
		C402.9,155.1,396,106.6,393,86.7z"/>
	<path class="st0" d="M13.3,49c-2.2-0.4-4.8,0.9-4.8,3.9c-5.6,51.5-1.3,103-2.2,154.6c-1.3,45.9,7.4,97-5.2,141.6
		c-1.3,5.2,5.6,6.9,6.9,2.2c11.7-40.7,4.8-84.4,4.3-126c0-51.9-3-105.2,1.3-157.6c12.6,56.7,19,117.3,1.3,173.2
		c-1.7,4.8,5.6,6.9,6.9,2.2c19-61.9,10.4-129.9-4.8-191.3C17.2,49,15,48.2,13.3,49z"/>
</g>
</svg>
