<?xml version="1.0" encoding="utf-8"?>
<!-- Generator: Adobe Illustrator 23.0.3, SVG Export Plug-In . SVG Version: 6.00 Build 0)  -->
<svg version="1.1" id="Слой_1" xmlns="http://www.w3.org/2000/svg" xmlns:xlink="http://www.w3.org/1999/xlink" x="0px" y="0px"
	 viewBox="0 0 400 400" style="enable-background:new 0 0 400 400;" xml:space="preserve">
<style type="text/css">
	.st0{fill:#5C3F13;}
</style>
<g>
	<path class="st0" d="M346.9,80.7c1.9-0.5,3.4-1.9,2.9-4.4c-1-27.7-17-66.1-43.7-72.4c-0.5-1.5-1.5-2.9-3.9-2.9
		c-33,1.9-72.4-1.9-103,16c-26.2,15.5-28.7,44.7-36,74.3c-0.5,2.4,0.5,4.4,2.4,5.3c0,1-0.5,1.9-0.5,2.9c-4.4,20.4-5.8,43.7-2.4,65.6
		c-13.1-19-29.2-36-44.2-52c-9.7-10.7-36-44.7-52.5-38.4c-3.9,1.5-3.4,6.8-0.5,8.7c0,0.5,0.5,1,0.5,1
		c76.3,82.6,133.6,184.7,209,269.2c0.5,0.5,0.5,0.5,1,0.5c1,1.9,3.4,2.9,5.3,1.9c2.9,1.5,6.3,1.5,9.2,0c4.9-2.4,6.8-9.7,7.3-15.1
		c0-1.5,0-2.4-0.5-3.4c3.4,2.9,8.3-2.9,4.9-6.8c-26.7-32.6-51.5-68.5-85.5-91.8c-4.4-2.9-8.7,4.9-3.9,7.8c9.2,6.3,18,14.1,26.2,21.9
		c-1.9-0.5-3.4,1-4.4,2.9c-3.4,1.5-6.3,4.4-8.7,7.8c-48.6-65.1-93.3-134.1-147.2-193.9c14.6,8.3,33.5,33.5,40.3,40.8
		c16,17.5,32.6,35.5,45.2,55.9c1,1.5,1.9,1.9,2.9,1.9c6.3,19.9,18,36.4,36,46.2l0,0c0,1.9,1,3.9,2.9,4.4
		c31.6,11.7,64.6,1.9,95.7-7.8c17.5,4.4,38.9,6.3,48.1-14.1c10.2-22.4,8.3-53.9,7.3-77.7C356.7,116.2,355.2,97.2,346.9,80.7z
		 M253.2,313.9c0-2.9,0.5-5.8,2.4-8.3c1.9-2.4,5.8-2.4,8.7-1.9c1.9,0.5,3.4-0.5,4.4-1.9c9.2,11.7,18.5,23.3,27.7,34.5
		c-1-0.5-1.9-1-2.9-0.5c-0.5,0-0.5,0-1,0c-6.3,0-10.7,3.9-13.6,8.7C269.7,333.9,261.4,324.1,253.2,313.9z M286.7,347.5
		c-0.5,0.5-0.5,0.5-1,0.5c0.5-1,1.5-1.9,2.4-2.4C287.7,346,287.7,347,286.7,347.5z M262.4,294c-0.5,0-1.5,0-1.9,0
		c0-0.5-0.5-1-0.5-1.5c0.5,0,0.5-0.5,1-0.5C261.4,293,261.9,293.5,262.4,294z M342.1,71.5c-0.5-0.5-0.5-1-1-1.9
		c-2.4-3.4-5.3-5.8-8.3-7.8c0-1-0.5-1.9-1.5-2.9c-11.7-11.2-24.3-24.3-33-38.4c-2.9-3.9-5.3-7.3-7.8-10.2c2.9,0,5.3,0,8.3-0.5
		c0.5,1,1.5,1.9,2.9,1.9C324.1,13.6,339.7,47.2,342.1,71.5z M276,14.1c10.7,0.5,14.1,11.2,20.4,19c3.9,4.9,8.3,9.7,12.1,14.6
		c-23.8-0.5-39.4-23.8-60.3-35c7.8-1,16-1.5,23.8-1.5C273.1,12.7,274.1,14.1,276,14.1z M228.9,16.1c23.8,1,39.4,23.3,59.3,34.5
		c-6.3-1-12.6-1.5-18-2.9c-1.9-0.5-3.4,0.5-4.4,1.9c0,0,0,0-0.5,0c-4.9,0-10.2-0.5-15.1-0.5c-1-1-2.4-1.9-3.9-1.5
		c-13.6,4.4-21.4-7.3-31.1-15.5c-4.4-3.4-8.7-5.3-13.1-5.3c2.4-1.5,5.3-3.4,8.3-4.4C216.7,19.5,222.5,17.5,228.9,16.1z M188.5,40.4
		c0.5,0,1-0.5,1.5-0.5c13.1-9.2,20.9,0,30.6,9.2c-17.5,1.5-33,6.8-43.7,22.4C179.8,59.8,182.7,49.1,188.5,40.4z M171.5,115.2
		c2.4-30.6,15.5-54.4,44.7-58.8c4.9-0.5,10.2-1,15.1-0.5c4.4,1.9,9.2,2.4,14.6,1c4.4,0.5,9.2,1,13.6,1.5c0,0.5,0,1,0,1
		c-24.8-1-54.9-2.9-74.3,17.5c-18.5,19.4-13.1,56.9-10.2,81.6c2.4,18,6.3,36.9,15.5,50.5C169.6,185.7,169.1,149.2,171.5,115.2z
		 M209.9,226c0-0.5,0-1,0-1.5c0,0,0.5,0,0.5,0.5c25.3,10.2,60.7-1.9,87-5.8C269.2,227.4,238.6,236.2,209.9,226z M349.4,169.6
		c-0.5,15.5-2.4,29.2-8.3,37.9c0-1.5-0.5-2.9-1.9-3.9c-8.3-4.9-7.3-13.1-1.9-20.4h0.5c4.9,1.5,7.3-7.3,1.9-8.7
		c-11.2-3.4-8.3-15.5-3.9-24.3c0.5,0.5,1,0.5,1.5,1c4.9,1.9,6.8-6.8,1.9-8.7c-8.3-3.4-10.2-13.1-6.8-21.4c0.5,0,1.5,0,1.9,0
		c5.3,0,5.3-8.7,0-9.2c-3.9,0-7.3-1-9.2-4.9c-1.9-3.9-0.5-9.7,0.5-13.6c1.5-5.8-6.3-8.3-7.8-2.4c-1.9,7.3-2.4,14.6,1,21.4
		c1.5,2.9,3.4,4.9,5.8,6.3c-3.4,10.2-2.4,19.9,3.9,26.7c-6.3,11.2-7.8,25.8,0.5,33.5c-7.3,11.2-7.3,24.8,4.9,32.6
		c1,0.5,1.9,0.5,2.4,0.5c-6.3,6.8-16,9.2-30.6,6.3c19.9-42.8,15.5-119.5-35.5-128.8c-1.9-0.5-3.9,1-4.4,2.4
		c-24.3-1.9-74.3,7.8-59.3,38.4c1,1.5,1.9,1.9,2.9,1.9c0.5,4.4,5.8,5.3,7.8,1.5c1.9,3.9,7.8,2.9,7.8-1.9s-1.9-8.7-4.9-12.1
		c6.8-15.1,27.7-17,43.7-15.1c-1.9,1.9-3.4,4.4-4.9,6.8c-0.5-0.5-1-1-1.9-1c-9.2-1-19,4.4-22.4,14.6c-2.4,7.8,0,14.1,5.3,18.5
		c-3.9,3.4-6.8,7.3-9.7,11.2c-1.5-4.9-1.9-10.2-1.5-15.5c0.5-5.8-7.8-5.8-8.3,0c-1.9,25.3,12.1,44.7,33.5,51.5
		c18.5,6.3,39.8-1.9,44.7-24.3c1.5-5.8-6.8-8.3-7.8-2.4c-1,4.4-2.4,7.8-4.9,10.7c0-14.6-1-32.6-13.6-40.8c-3.4-1.9-6.8-2.9-10.2-2.4
		c0-8.7,2.4-18,9.2-22.8c1-0.5,1.5-1.5,1.5-2.4c0.5,0,1,0.5,1.5,0.5c33,9.7,28.2,50.5,24.3,78.7c-2.9,23.3-6.3,23.3-26.2,26.2
		c-17,2.4-33.5,5.8-50.5,5.3c-41.3-2.4-43.7-69-42.8-103.5c1.9-49.6,48.1-47.6,81.2-46.2c2.9,0,3.9-2.4,3.9-4.9
		c1-0.5,1.9-1.9,1.9-3.9c0-1,0-1.5,0-2.4c0.5-0.5,1-1,1-1.5c14.1,3.9,28.2,4.9,42.8,7.3c25.3,4.4,34,26.7,36.9,52
		C349.9,133.7,350.3,151.6,349.4,169.6z M309,184.2c0.5-4.4,1-8.7,1.5-13.1C310,175.5,309.5,179.8,309,184.2z M281.8,181.8
		c-6.8,4.4-16,4.9-24.8,2.4c-10.2-2.9-18-9.7-22.8-19c0.5-0.5,1.5-1,1.9-1.5c2.4-3.9,7.3-9.7,12.6-14.1c1.9,0,2.9-1,3.9-2.9
		c1.9-1.5,4.4-2.4,6.3-3.4c1,0,1.9,0,2.9-1c4.9-1,9.2,0,12.6,5.3c4.9,7.3,4.4,20.9,4.4,29.6C279.4,179.8,280.4,181.3,281.8,181.8z
		 M247.3,139.5c-3.4-1.9-6.3-5.3-4.4-10.2c2.4-5.8,8.3-8.3,13.6-7.8c-1,4.4-1.5,9.2-1.5,13.6C252.7,136.1,250.2,138,247.3,139.5z"/>
	<path class="st0" d="M298.4,75.3c-1.9,2.9-4.4,5.3-7.8,4.4c-2.9-1-4.4-4.4-5.8-7.3c-1.9-5.3-9.2-1-6.8,4.4
		c1.9,5.8,5.8,10.2,11.2,11.7c5.8,1.5,11.2-1.9,14.6-6.8C307.6,77.3,301.8,70.5,298.4,75.3z"/>
	<path class="st0" d="M210.9,84.6c0,2.4,0,6.3-2.4,7.3c-2.9,1-5.8-0.5-8.3-1.5c-4.9-1.9-6.8,6.8-1.9,8.7c4.9,1.9,10.2,2.9,15.1,0.5
		s6.3-9.2,6.3-15.1C219.1,78.7,210.9,78.7,210.9,84.6z"/>
	<path class="st0" d="M188.5,138.5c-4.9,1.9-2.9,10.7,1.9,8.7c4.4-1.9,7.8-2.4,8.3,3.9c0,3.9-1,9.7-3.4,12.6
		c-3.4,4.4,1.9,10.7,5.8,6.3c0,0,0-0.5,0.5-0.5c4.9,1,7.3,3.9,7.8,9.7c0,2.9,0,9.7-2.4,11.7c-3.9,3.4,0,11.2,3.9,7.8
		c1.9-1.5,2.9-3.4,3.9-5.8h0.5c3.9-1,7.8-1,10.7,1.9c2.9,3.4,1.5,8.7,0.5,12.6c-1.9,5.3,5.8,7.8,7.8,2.4c0-0.5,0.5-1.5,0.5-1.9
		c1,1.5,2.9,1.9,4.9,0.5c3.4-2.4,8.3-3.9,11.2-0.5c3.9,3.9,9.7-2.4,5.8-6.3c-5.8-5.8-14.1-5.3-20.9-1c0-4.4-1.5-8.3-3.9-12.1
		c-3.9-4.9-9.2-5.8-14.6-5.3c0-2.4,0-4.4,0-6.3c-1-8.3-5.3-14.1-11.7-16c1.5-4.4,1.5-9.2,1-13.6
		C205.5,137.5,196.3,135.6,188.5,138.5z"/>
	<path class="st0" d="M263.4,363.5c-10.2-20.4-25.8-35.5-38.9-53.9c-17.5-24.8-34-50.1-51.5-75.3C136.5,181.8,99.1,130.3,53.9,87
		c-2.9-2.9-6.8,0-6.8,3.4c-0.5,0.5-1,1-1,1.5c-2.4,6.3-1.9,12.6,1.5,18c0,1,0,2.4,1,3.4C87,157,122,204.1,154,254.7
		c18.5,29.2,39.8,58.3,57.3,88.9c0,1.5,1,2.4,1.9,2.9c7.3,13.1,14.1,26.2,19.9,39.8c-1,2.9,1.5,4.9,3.4,4.9c0,2.9,2.9,5.8,5.8,3.9
		c9.2-5.8,20.9-9.2,27.7-19c0.5-0.5,0.5-1,0.5-1.5c2.4-1.5,3.9-4.9,1-6.8C268.7,366.4,265.8,364.5,263.4,363.5z M237.1,377.1
		c-4.9-11.7-11.2-23.3-17.5-34c2.9-4.9,7.3-8.7,13.1-9.2c0.5,0,0.5,0,0.5,0c7.3,9.2,14.6,19,20.4,29.6
		C247.3,365,241.5,370.3,237.1,377.1z M227.4,326.1c-0.5,0-1,0.5-1.5,0.5c0-0.5,0-1-0.5-1.5s-0.5-1-1-1.5c0,0,0.5,0,0.5-0.5
		C225.9,324.1,226.4,325.1,227.4,326.1z M213.8,332.4c0.5,1,1.5,1.5,1.9,2.4c0,0,0,0.5-0.5,0.5C214.8,333.9,214.3,332.9,213.8,332.4
		z M54.9,108.9c0-1,0-2.4-1-3.4c-1.5-1.9-1.9-4.9-1.5-7.3c38.4,37.9,71.4,81.6,103.5,126.3c17.5,24.8,34.5,50.1,51.5,75.3
		c0,0.5,0.5,0.5,0.5,1c-0.5,0-0.5,0-1,0c-1-0.5-2.4,0-3.4,0.5c-2.9,1-4.9,2.4-6.8,4.4c-12.1-18.5-24.8-36.9-36.4-55.4
		C129.2,199.7,93.8,152.6,54.9,108.9z M242,385.9c3.4-7.3,9.2-14.1,16-14.1v0.5c0.5,1.5,1.5,1.9,2.9,2.4
		C255.6,379.5,248.3,382.5,242,385.9z"/>
</g>
</svg>
