<?xml version="1.0" encoding="utf-8"?>
<!-- Generator: Adobe Illustrator 23.0.3, SVG Export Plug-In . SVG Version: 6.00 Build 0)  -->
<svg version="1.1" id="Слой_1" xmlns="http://www.w3.org/2000/svg" xmlns:xlink="http://www.w3.org/1999/xlink" x="0px" y="0px"
	 viewBox="0 0 1080 1080" style="enable-background:new 0 0 1080 1080;" xml:space="preserve">
<style type="text/css">
	.st0{fill:#5B3E12;}
</style>
<g>
	<g>
		<g>
			<path class="st0" d="M45.1,604.1c54.6,92.4,112,180.6,211.4,229.6c88.2,44.8,189,56,285.5,51.8c190.4-5.6,435.3-65.8,471.7-285.5
				c1.4-9.8-8.4-18.2-18.2-14c-144.2,75.6-305.1,86.8-466.1,86.8c-154,0-323.3,2.8-446.5-100.8c-11.2-9.8-29.4,7-16.8,16.8
				c123.2,103.6,284.1,107.8,436.7,107.8c173.6,1.4,348.5-7,505.3-89.6c-5.6-4.2-11.2-9.8-18.2-14c-35,217-286.9,267.3-471.7,268.7
				c-85.4,0-173.6-11.2-249.1-49c-93.8-47.6-149.8-133-201.6-221.2C57.7,577.5,36.7,590.1,45.1,604.1L45.1,604.1z"/>
		</g>
		<g>
			<path class="st0" d="M312.5,675.5c4.2-44.8,1.4-119,58.8-131.6c33.6-7,49,22.4,63,47.6c7,12.6,33.6,53.2,29.4,67.2
				c4.2-2.8,8.4-5.6,11.2-8.4c-1.4,0-2.8,0-2.8,0c4.2,2.8,8.4,5.6,11.2,8.4c0-1.4,0-1.4,0-2.8c-2.8-15.4-26.6-8.4-23.8,7
				c0,1.4,0,1.4,0,2.8c1.4,5.6,7,8.4,11.2,8.4c1.4,0,2.8,0,2.8,0c5.6,0,9.8-4.2,11.2-8.4c8.4-25.2-26.6-77-37.8-98
				c-15.4-25.2-36.4-50.4-68.6-50.4c-81.2,0-86.8,100.8-92.4,158.2C287.3,690.9,311.1,690.9,312.5,675.5L312.5,675.5z"/>
		</g>
		<g>
			<path class="st0" d="M425.9,552.3c4.2-30.8,21-58.8,54.6-50.4c21,5.6,39.2,25.2,51.8,42c28,37.8,35,86.8,40.6,131.6
				c5.6-4.2,9.8-8.4,15.4-11.2c-2.8-1.4-4.2-2.8-7-5.6c-9.8-12.6-26.6,5.6-16.8,16.8c5.6,8.4,8.4,8.4,18.2,11.2
				c7,1.4,16.8-4.2,15.4-11.2c-8.4-68.6-23.8-147-86.8-186.2c-57.4-35-100.8,1.4-107.8,63C400.7,567.7,424.5,567.7,425.9,552.3
				L425.9,552.3z"/>
		</g>
		<g>
			<path class="st0" d="M641.4,643.3c-36.4-9.8-21-92.4-11.2-116.2c21-53.2,74.2-75.6,127.4-54.6c29.4,11.2,61.6,32.2,81.2,57.4
				c14,18.2,26.6,46.2,26.6,71.4c0-1.4-8.4,37.8-12.6,35c-12.6-8.4-25.2,12.6-12.6,21c9.8,5.6,11.2,7,21,5.6c5.6,0,9.8-4.2,11.2-8.4
				c25.2-65.8,23.8-106.4-30.8-152.6c-42-36.4-93.8-72.8-152.6-58.8c-51.8,11.2-85.4,60.2-93.8,110.6c-5.6,35-5.6,102.2,37.8,114.8
				C649.8,669.9,656.8,646.1,641.4,643.3L641.4,643.3z"/>
		</g>
		<g>
			<path class="st0" d="M666.6,669.9c2.8-29.4,7-57.4,9.8-86.8c4.2-29.4,11.2-60.2,49-60.2c67.2,0,71.4,88.2,46.2,130.2
				c-8.4,14,12.6,25.2,21,12.6c33.6-56,22.4-151.2-53.2-165.2c-96.6-16.8-89.6,110.6-96.6,170.8
				C641.4,685.3,665.2,685.3,666.6,669.9L666.6,669.9z"/>
		</g>
		<g>
			<path class="st0" d="M897.6,633.5c4.2-40.6,8.4-81.2,22.4-119c9.8-25.2,25.2-50.4,47.6-65.8c12.6-8.4,72.8-26.6,78.4,0
				c1.4,5.6-47.6,54.6-54.6,67.2c-16.8,29.4-28,60.2-33.6,93.8c8.4,0,15.4,0,23.8,0c-1.4-7-1.4-14-2.8-21c-2.8-15.4-25.2-8.4-23.8,7
				c1.4,7,1.4,14,2.8,21c1.4,11.2,21,11.2,23.8,0c5.6-33.6,15.4-64.4,33.6-92.4c9.8-15.4,21-29.4,35-42c7-5.6,18.2-12.6,21-21
				c14-29.4-30.8-46.2-53.2-49C903.2,397,879.4,553.7,871,633.5C872.4,648.9,896.2,648.9,897.6,633.5L897.6,633.5z"/>
		</g>
		<g>
			<path class="st0" d="M95.5,574.7c-33.6-32.2-2.8-84,39.2-79.8c54.6,4.2,68.6,67.2,47.6,109.2c-7,14,14,26.6,21,12.6
				c29.4-60.2,2.8-147-74.2-145.6c-61.6,0-96.6,78.4-50.4,121.8C89.9,601.3,106.7,584.5,95.5,574.7L95.5,574.7z"/>
		</g>
		<g>
			<path class="st0" d="M196.3,546.7c4.2-14,9.8-30.8,21-40.6c22.4-19.6,51.8-7,74.2,0c36.4,12.6,78.4,32.2,81.2,77
				c4.2-4.2,8.4-8.4,12.6-12.6c-4.2-1.4-9.8-1.4-14-2.8c-14-7-26.6,14-12.6,21c11.2,5.6,12.6,7,26.6,5.6c5.6,0,12.6-5.6,12.6-12.6
				c-2.8-61.6-57.4-88.2-110.6-105c-57.4-18.2-95.2,4.2-112,60.2C168.3,555.1,192.1,562.1,196.3,546.7L196.3,546.7z"/>
		</g>
		<g>
			<path class="st0" d="M193.5,515.9c-58.8-99.4,107.8-61.6,148.4-46.2c21,8.4,40.6,18.2,60.2,30.8c14,8.4,26.6,18.2,37.8,30.8
				c12.6,9.8,19.6,23.8,22.4,39.2c-14-5.6-21,16.8-7,23.8c26.6,11.2,40.6-15.4,33.6-39.2c-15.4-49-88.2-86.8-131.6-103.6
				c-43.4-18.2-117.6-49-162.4-22.4c-36.4,21-40.6,67.2-21,99.4C180.9,541.1,201.9,528.5,193.5,515.9L193.5,515.9z"/>
		</g>
		<g>
			<path class="st0" d="M99.7,472.5c-14-5.6-26.6-11.2-40.6-16.8c-30.8-8.4-19.6-21,36.4-37.8c9.8,1.4,18.2-8.4,14-18.2
				c23.8-37.8,42-44.8,56-18.2c4.2,4.2,8.4,8.4,14,12.6c7,2.8,14,5.6,21,5.6c25.2-1.4,23.8-19.6,37.8-33.6
				c82.6-75.6,84-4.2,127.4,16.8c7,2.8,14,2.8,19.6,5.6c28-14,51.8-1.4,68.6,36.4c8.4,26.6,5.6,53.2-4.2,77
				c-5.6,15.4,18.2,21,23.8,7c19.6-57.4,9.8-127.4-49-154c-8.4-4.2-18.2,7-25.2,5.6c-43.4-11.2-33.6-32.2-61.6-53.2
				c-18.2-14-39.2-18.2-61.6-12.6c-35,8.4-35,32.2-54.6,51.8c-2.8,21-15.4,26.6-37.8,18.2c-7-9.8-14-18.2-22.4-25.2
				c-7-4.2-15.4-8.4-22.4-9.8c-51.8-8.4-67.2,44.8-49,82.6c4.2-5.6,9.8-11.2,14-18.2C73.1,390,18.6,376,3.2,416.5
				c-18.2,47.6,58.8,64.4,85.4,77C101.1,499.1,113.7,478.1,99.7,472.5L99.7,472.5z"/>
		</g>
		<g>
			<path class="st0" d="M509.8,485.1c-15.4-36.4,0-58.8,46.2-67.2c2.8,5.6,7,9.8,11.2,12.6c8.4,0,12.6,7,21,7
				c35-1.4,23.8-56,65.8-36.4c16.8,8.4,14,39.2,43.4,30.8c2.8-1.4,8.4-5.6,9.8-5.6c19.6-36.4,51.8-33.6,99.4,11.2
				c7,23.8,7,47.6-1.4,71.4c7-1.4,14-4.2,19.6-5.6c-2.8-4.2-5.6-8.4-7-12.6c-4.2-15.4-26.6-8.4-23.8,7c2.8,14,4.2,14,14,23.8
				c7,5.6,18.2,4.2,19.6-5.6c14-51.8,2.8-145.6-64.4-156.8c-32.2-5.6-33.6,15.4-57.4,25.2c-7,22.4-18.2,22.4-35-4.2
				c-2.8-5.6-5.6-11.2-9.8-15.4c-5.6-4.2-9.8-8.4-18.2-9.8c-22.4-2.8-22.4,11.2-36.4,21c-2.8,5.6-4.2,11.2-7,16.8
				c-16.8,12.6-29.4,11.2-37.8-4.2c-5.6-1.4-12.6-7-19.6-8.4c-64.4-12.6-65.8,71.4-57.4,110.6C490.3,507.5,514,500.5,509.8,485.1
				L509.8,485.1z"/>
		</g>
		<g>
			<path class="st0" d="M291.5,310.2c11.2-8.4,14-19.6,23.8-28c74.2-56,68.6-11.2,106.4-14c22.4-1.4,15.4,1.4,37.8-5.6
				c2.8-4.2,5.6-8.4,8.4-14c28-21,54.6-21,79.8,0c12.6,8.4,32.2,39.2,49,49c40.6,22.4,67.2-81.2,117.6,9.8
				c5.6-5.6,11.2-11.2,16.8-16.8c-5.6-2.8-11.2-7-18.2-9.8c-14-8.4-25.2,12.6-12.6,21c5.6,2.8,11.2,7,18.2,9.8
				c11.2,5.6,22.4-5.6,16.8-16.8c-28-50.4-58.8-44.8-107.8-32.2c-19.6,5.6-7,11.2-25.2,2.8c-5.6-2.8-18.2-21-22.4-23.8
				c-19.6-15.4-54.6-33.6-79.8-35c-30.8,0-18.2,4.2-43.4,14c-5.6,2.8-5.6,14-11.2,16.8c-32.2,11.2-28-5.6-51.8-11.2
				c-22.4-5.6-43.4-16.8-68.6-4.2c-29.4,15.4-23.8,49-49,67.2C267.7,299,278.9,320,291.5,310.2L291.5,310.2z"/>
		</g>
		<g>
			<path class="st0" d="M738,377.4c-7-28-11.2-75.6,42-58.8c4.2,1.4,9.8,9.8,12.6,12.6c8.4,5.6,16.8,11.2,28,11.2
				c28-1.4,39.2-30.8,44.8-54.6c-5.6,2.8-9.8,5.6-15.4,8.4c29.4,7,29.4,53.2,54.6,67.2c39.2,22.4,39.2-25.2,81.2,26.6
				c-9.8-12.6-26.6,5.6-16.8,16.8c7,8.4,8.4,8.4,18.2,12.6c4.2,1.4,11.2-1.4,14-5.6c15.4-29.4,11.2-81.2-32.2-84
				c-12.6,0-16.8,8.4-28,8.4c-37.8,1.4-33.6-12.6-46.2-33.6c-9.8-16.8-18.2-28-37.8-32.2c-5.6-1.4-14,1.4-15.4,8.4
				c0,14-7,19.6-22.4,18.2c-12.6,9.8-21,8.4-26.6-2.8c-5.6-2.8-9.8-9.8-15.4-12.6c-9.8-4.2-19.6-7-30.8-2.8
				c-44.8,14-39.2,65.8-30.8,100.8C718.4,399.8,742.2,392.8,738,377.4L738,377.4z"/>
		</g>
	</g>
	<g>
		<path class="st0" d="M145.9,735.7c57.4,30.8,114.8,47.6,176.4,49c9.8,0,9.8-21,0-21c-60.2-1.4-117.6-18.2-172.2-47.6
			C140.3,710.5,136.1,731.5,145.9,735.7L145.9,735.7z"/>
	</g>
	<g>
		<path class="st0" d="M218.7,802.9c35,12.6,71.4,18.2,107.8,25.2c9.8,1.4,9.8-19.6,0-21c-35-5.6-68.6-12.6-103.6-23.8
			C213.1,779.1,208.9,800.1,218.7,802.9L218.7,802.9z"/>
	</g>
	<g>
		<g>
			<path class="st0" d="M82.9,648.9C210.3,738.5,369.9,759.5,521,766.5c162.4,8.4,321.9-26.6,467.5-98c23.8-11.2,2.8-47.6-21-36.4
				c-140,67.2-291.1,99.4-446.5,92.4c-145.6-7-295.3-25.2-417.1-112C81.5,597.1,60.5,633.5,82.9,648.9L82.9,648.9z"/>
		</g>
	</g>
</g>
</svg>
