<?xml version="1.0" encoding="utf-8"?>
<!-- Generator: Adobe Illustrator 23.0.3, SVG Export Plug-In . SVG Version: 6.00 Build 0)  -->
<svg version="1.1" id="Слой_1" xmlns="http://www.w3.org/2000/svg" xmlns:xlink="http://www.w3.org/1999/xlink" x="0px" y="0px"
	 viewBox="0 0 1080 1080" style="enable-background:new 0 0 1080 1080;" xml:space="preserve">
<style type="text/css">
	.st0{fill:#5B3E12;}
</style>
<g>
	<g>
		<path class="st0" d="M1049.7,56.3c-21.7-15.5-48-13.9-69.7,4.6c-35.6,10.8-55.8,65.1-69.7,102.2c-3.1,6.2-4.6,10.8-6.2,15.5
			c-18.6,44.9-37.2,91.4-57.3,142.5c0,0,0,0-1.5,0c-24.8-3.1-48-4.6-72.8-7.7c-210.7-21.7-427.6-44.9-630.5,3.1
			C48.9,338.3-0.7,377,0.8,428.1C3.9,531.9,45.8,637.3,70.5,690c54.2,117.7,141,199.9,251,240.1c-10.8,21.7-6.2,43.4,13.9,60.4
			c35.6,31,114.6,46.5,192.1,46.5c72.8,0,145.6-13.9,176.6-41.8c18.6-17,23.2-38.7,10.8-62c80.6-26.3,142.5-72.8,189-139.4
			c43.4-63.5,72.8-142.5,86.8-241.7c1.5-6.2,1.5-12.4,3.1-20.1c9.3-52.7,21.7-130.1-23.2-165.8c48-68.2,82.1-134.8,100.7-198.3
			C1080.6,138.4,1089.9,82.7,1049.7,56.3z M902.5,452.9c13.9-17,27.9-34.1,41.8-51.1c1.5,0,1.5,1.5,1.5,1.5c0,1.5,0,3.1,1.5,4.6
			C942.8,425.1,927.3,439,902.5,452.9z M941.2,392.5L941.2,392.5L941.2,392.5L941.2,392.5z M1029.5,191.1
			c7.7-13.9,26.3-57.3,20.1-89.9c6.2,7.7,9.3,21.7,1.5,44.9l-4.6,13.9c-4.6,13.9-10.8,29.4-15.5,43.4l-1.5,3.1
			c-12.4,31-27.9,60.4-48,94.5c-13.9,21.7-27.9,41.8-43.4,63.5C970.7,305.8,1001.6,246.9,1029.5,191.1z M1000.1,84.2
			c1.5,0,4.6,0,6.2,0c9.3,4.6,13.9,12.4,17,20.1c9.3,32.5-21.7,86.8-37.2,114.6c-3.1,4.6-4.6,9.3-7.7,12.4
			c-12.4,24.8-27.9,51.1-44.9,80.6c-12.4,23.2-26.3,44.9-40.3,68.2c-18.6,31-38.7,63.5-55.8,96.1c-7.7,1.5-13.9,3.1-21.7,6.2
			c21.7-58.9,44.9-120.8,68.2-181.3c3.1-7.7,7.7-20.1,12.4-32.5C916.4,208.2,955.2,98.2,1000.1,84.2z M752.2,496.3l-7.7,1.5
			c-77.5,13.9-158,21.7-237,24.8c-74.4,3.1-148.7,0-220-6.2c-4.6,0-10.8-1.5-17-1.5c-44.9-3.1-158-12.4-198.3-48
			c57.3-7.7,114.6-13.9,172-18.6l26.3-3.1c23.2-3.1,48-1.5,72.8,0c37.2,1.5,77.5,3.1,113.1-7.7c9.3-3.1,17-6.2,24.8-9.3
			c27.9-10.8,52.7-20.1,83.7-10.8c9.3,3.1,18.6,6.2,29.4,10.8c13.9,6.2,29.4,12.4,46.5,15.5c26.3,3.1,51.1-3.1,75.9-9.3
			c29.4-7.7,58.9-15.5,88.3-4.6l0,0c-7.7,20.1-13.9,40.3-20.1,58.9C772.4,491.7,761.5,494.8,752.2,496.3z M811.1,412.7
			c-35.6-17-68.2-9.3-99.2-1.5c-17,3.1-35.6,7.7-54.2,7.7c-20.1,0-38.7-7.7-57.3-13.9c-13.9-6.2-29.4-10.8-44.9-13.9
			c-26.3-4.6-46.5,1.5-68.2,7.7c-41.8,12.4-71.3,21.7-113.1,17c-32.5-3.1-65.1-3.1-106.9,1.5l-31,3.1
			c-58.9,4.6-117.7,10.8-176.6,23.2c0,0-1.5,0-1.5,1.5c-1.5-7.7,0-15.5,3.1-24.8c0-1.5,0-1.5,1.5-3.1c31-29.4,119.3-40.3,167.3-44.9
			c9.3-1.5,17-1.5,23.2-3.1c62-7.7,128.6-12.4,198.3-13.9c110-1.5,220,7.7,326.9,15.5l49.6,3.1C821.9,387.9,815.7,400.3,811.1,412.7
			z M423.8,321.3c75.9,0,151.8,4.6,226.2,9.3c-94.5-6.2-190.6-9.3-286.6-3.1c-79,4.6-153.4,13.9-223.1,29.4
			c-4.6,1.5-10.8,1.5-15.5,3.1c-23.2,4.6-49.6,9.3-69.7,23.2c3.1-3.1,7.7-7.7,13.9-10.8c38.7-24.8,88.3-32.5,136.3-38.7
			C278.1,324.3,351,321.3,423.8,321.3z M45.8,510.3c-3.1-12.4-6.2-26.3-7.7-38.7l0,0c60.4,85.2,412.1,80.6,450.8,79
			c111.5-3.1,207.6-12.4,297.5-32.5c3.1,1.5,6.2,3.1,9.3,1.5c4.6,0,7.7-3.1,9.3-6.2h3.1c4.6-1.5,9.3-1.5,13.9-3.1
			c34.1-9.3,128.6-32.5,148.7-82.1c3.1,26.3-1.5,57.3-4.6,83.7c-1.5,6.2-1.5,12.4-3.1,17c-7.7,62-21.7,116.2-40.3,162.7
			c-38.7,93-102.3,164.2-179.7,199.9c-72.8,32.5-168.9,43.4-299,32.5c-110-9.3-199.9-52.7-266.5-127
			C117,728.7,75.2,640.4,50.4,525.8L45.8,510.3z M349.4,953.3c-1.5-3.1-3.1-7.7,0-15.5c32.5,9.3,66.6,15.5,100.7,17
			c94.5,6.2,173.5,0,240.1-17c1.5,12.4,0,21.7-6.2,31c-18.6,24.8-72.8,35.6-159.6,32.5C491.9,1001.4,368,987.4,349.4,953.3z"/>
		<path class="st0" d="M724.3,291.8c1.5,0,3.1,0,4.6,0c38.7-13.9,38.7-52.7,38.7-77.5v-4.6c0-12.4,0-23.2,6.2-32.5
			c4.6-7.7,9.3-9.3,15.5-12.4c3.1-1.5,6.2-3.1,9.3-4.6c10.8-6.2,17-12.4,18.6-27.9c0-6.2-3.1-12.4-9.3-13.9c-6.2-1.5-13.9,0-17,6.2
			c-4.6,7.7-12.4,12.4-20.1,15.5c-10.8,6.2-23.2,12.4-29.4,31c-4.6,13.9-4.6,27.9-3.1,43.4c1.5,24.8,1.5,44.9-18.6,55.8l0,0
			c-6.2,3.1-7.7,9.3-4.6,15.5C715,288.7,719.7,291.8,724.3,291.8z"/>
		<path class="st0" d="M577.1,246.9c-3.1,6.2-1.5,13.9,4.6,17c1.5,1.5,4.6,1.5,6.2,1.5c3.1,0,6.2-1.5,9.3-4.6
			c12.4-13.9,26.3-34.1,20.1-58.9c-1.5-9.3-6.2-15.5-9.3-23.2c-1.5-3.1-3.1-6.2-4.6-9.3c-9.3-18.6,1.5-29.4,18.6-48
			c6.2-6.2,6.2-15.5,1.5-21.7c-4.6-6.2-13.9-7.7-21.7-1.5c-23.2,17-35.6,37.2-34.1,57.3c0,13.9,6.2,24.8,12.4,35.6
			C588,211.3,588,226.7,577.1,246.9z"/>
		<path class="st0" d="M352.5,205.1c10.8,7.7,21.7,17,23.2,24.8c0,3.1-1.5,7.7-6.2,12.4c-3.1,4.6-4.6,10.8,0,13.9
			c1.5,3.1,4.6,4.6,9.3,4.6c1.5,0,3.1,0,4.6-1.5c20.1-10.8,27.9-35.6,17-55.8c-6.2-10.8-13.9-15.5-23.2-20.1
			c-3.1-1.5-7.7-4.6-10.8-6.2c-13.9-10.8-15.5-26.3-7.7-46.5c3.1-7.7,0-13.9-6.2-18.6c-7.7-4.6-17-3.1-21.7,4.6l0,0
			c-12.4,17-15.5,41.8-4.6,63.5C330.8,189.6,341.7,197.3,352.5,205.1z M337,119.8L337,119.8L337,119.8L337,119.8z"/>
		<path class="st0" d="M107.7,211.3c4.6,3.1,10.8,4.6,15.5,6.2c3.1,1.5,6.2,3.1,12.4,4.6c10.8,1.5,15.5,7.7,15.5,18.6v3.1l1.5,1.5
			c6.2,4.6,6.2,7.7,6.2,9.3c0,1.5,0,1.5-1.5,3.1c-3.1,3.1-4.6,6.2-3.1,10.8c1.5,4.6,4.6,7.7,9.3,7.7c0,0,0,0,1.5,0
			c10.8,0,18.6-4.6,21.7-12.4c7.7-17-3.1-43.4-12.4-54.2s-21.7-15.5-34.1-18.6c-9.3-3.1-18.6-6.2-24.8-12.4
			c-15.5-13.9-12.4-29.4-9.3-48c1.5-10.8,4.6-23.2,1.5-35.6c-1.5-7.7-7.7-13.9-15.5-12.4c-9.3,0-15.5,6.2-17,15.5
			c0,7.7-1.5,15.5-4.6,23.2c-4.6,23.2-9.3,48,6.2,69.7C87.6,200.4,98.4,206.6,107.7,211.3z M84.5,96.6L84.5,96.6L84.5,96.6
			L84.5,96.6z"/>
	</g>
	<g>
		<g>
			<path class="st0" d="M275,883.6c144.1,23.2,340.8,65.1,477.2-3.1c49.6-24.8,111.5-60.4,142.5-108.4
				c38.7-58.9,46.5-153.4,54.2-221.5c3.1-29.4,4.6-54.2-29.4-62c-29.4-7.7-72.8,9.3-102.2,15.5c-46.5,9.3-91.4,20.1-137.9,27.9
				c-99.2,15.5-199.9,10.8-300.6,10.8c-99.2,0-203,9.3-302.1-10.8c-7.7-1.5-13.9,3.1-13.9,10.8c-1.5,74.4,68.2,153.4,103.8,216.9
				c27.9,51.1,52.7,127,114.6,144.1c13.9,3.1,20.1-18.6,6.2-21.7c-46.5-12.4-79-96.1-100.7-133.2c-18.6-34.1-37.2-66.6-57.3-100.7
				c-10.8-18.6-52.7-72.8-29.4-86.8c15.5-9.3,88.3,6.2,108.4,6.2c151.8,1.5,311.4,12.4,461.7-9.3c48-7.7,227.7-69.7,255.6-20.1
				c12.4,21.7-17,110-23.2,136.3c-13.9,62-40.3,108.4-93,145.6c-151.8,105.3-356.3,72.8-529.8,43.4
				C265.7,858.8,259.6,880.5,275,883.6L275,883.6z"/>
		</g>
	</g>
</g>
</svg>
