<?xml version="1.0" encoding="utf-8"?>
<!-- Generator: Adobe Illustrator 23.0.3, SVG Export Plug-In . SVG Version: 6.00 Build 0)  -->
<svg version="1.1" id="Слой_1" xmlns="http://www.w3.org/2000/svg" xmlns:xlink="http://www.w3.org/1999/xlink" x="0px" y="0px"
	 viewBox="0 0 1080 1080" style="enable-background:new 0 0 1080 1080;" xml:space="preserve">
<style type="text/css">
	.st0{fill:#5B3E12;}
</style>
<g>
	<g>
		<path class="st0" d="M1073.1,711.5c-5.3-26.7-26.7-41.3-48-53.4c-4-2.7-9.3-5.3-13.3-6.7c-12-6.7-25.3-12-36-16
			c-8-2.7-17.3-5.3-26.7-5.3c-13.3-13.3-36-16-53.4-18.7c-14.7-2.7-29.3-10.7-44-12c0-2.7,0-4,0-6.7c1.3-18.7,4-36,4-54.7
			c0-6.7,0-13.3,0-18.7c28-1.3,54.7-5.3,82.7-6.7c14.7-1.3,30.7-2.7,45.4-5.3c16-2.7,32-2.7,48-5.3c5.3,0,10.7-4,10.7-10.7
			c-1.3-12-14.7-22.7-22.7-30.7c-9.3-9.3-17.3-18.7-28-26.7c0,0,0,0,0-1.3c1.3-2.7,2.7-4,5.3-6.7c4-5.3,8-9.3,12-14.7
			c6.7-9.3,17.3-20,21.3-32c1.3-6.7-2.7-12-9.3-12c-6.7-1.3-14.7,1.3-22.7,1.3c-9.3,0-18.7,1.3-28,1.3c-18.7,1.3-38.7,4-57.4,4
			c-17.3,0-34.7,0-52,2.7c-6.7,1.3-13.3,2.7-17.3,8c-4,5.3-2.7,13.3-2.7,18.7c0,40-1.3,78.7-2.7,118.7c0,25.3-1.3,50.7-1.3,74.7
			c-1.3,0-4,0-5.3,1.3h-1.3c2.7-12,0-26.7-6.7-36c-5.3-6.7-13.3-8-20-10.7c-12-4-22.7-6.7-34.7-9.3c-12-4-21.3-8-30.7-16
			c-8-6.7-17.3-8-26.7-5.3c-4,1.3-22.7,4-34.7,8c0-5.3,0-12,0-17.3c-1.3-13.3,4-32-2.7-44c-9.3-14.7-22.7-22.7-38.7-26.7
			c-8-2.7-16-4-22.7-9.3c-6.7-5.3-14.7-9.3-22.7-12c-14.7-5.3-30.7-8-46.7-10.7c-2.7,0-5.3-1.3-8-1.3c0-34.7-4-70.7-4-105.4
			c2.7,0,4,0,6.7,0c4,0,9.3-1.3,13.3-1.3c8-1.3,16-1.3,24-1.3c16,0,33.3-2.7,49.4-5.3c36-5.3,73.4-16,110.7-16
			c10.7,0,12-13.3,5.3-18.7c-13.3-9.3-25.3-21.3-40-30.7c-8-4-14.7-10.7-22.7-14.7c-1.3-1.3-4-1.3-5.3-2.7l0,0
			c2.7-2.7,6.7-6.7,9.3-9.3c5.3-6.7,12-13.3,17.3-21.3c5.3-6.7,10.7-13.3,14.7-21.3c4-6.7,9.3-12,12-20c1.3-6.7-4-12-9.3-12
			c-17.3-1.3-36,1.3-53.4,2.7c-17.3,2.7-34.7,1.3-53.4,2.7c-17.3,1.3-34.7,2.7-52,4c-6.7,0-14.7,1.3-21.3,1.3c-6.7,0-14.7,0-20,2.7
			c-10.7,5.3-5.3,20-5.3,29.3c0,17.3,2.7,34.7,2.7,50.7c0,18.7,1.3,37.3,1.3,56c-1.3,17.3,0,34.7,1.3,52c2.7,25.3,1.3,50.7,2.7,76
			c-5.3,1.3-9.3,2.7-14.7,5.3c-9.3,2.7-17.3,6.7-24,10.7c-5.3,4-10.7,8-18.7,9.3c-8,1.3-17.3,0-25.3,1.3
			c-13.3,1.3-25.3,9.3-30.7,22.7c-2.7,5.3-2.7,10.7-1.3,17.3c1.3,6.7,0,12,0,18.7c0,14.7,4,28,4,42.7c-12-1.3-25.3,4-36,6.7
			c-14.7,4-28,9.3-42.7,13.3c-13.3,4-28,2.7-41.3,9.3c-6.7,2.7-14.7,8-17.3,14.7c-2.7-1.3-5.3-1.3-8-1.3c-10.7-1.3-20,2.7-29.3,5.3
			c0-8-1.3-16-1.3-24c-2.7-25.3-4-50.7-5.3-76c1.3,0,2.7-1.3,4-1.3c16-5.3,34.7-9.3,50.7-12c18.7-4,36-10.7,54.7-14.7
			c8-1.3,16-4,24-5.3c6.7-1.3,13.3-2.7,18.7-6.7c4-2.7,4-9.3,1.3-12c-5.3-10.7-17.3-14.7-25.3-21.3c-4-4-8-8-13.3-12
			c-2.7-2.7-8-4-12-8c6.7-12,14.7-24,22.7-36c4-6.7,9.3-13.3,13.3-20c4-5.3,9.3-10.7,10.7-17.3c1.3-6.7-2.7-13.3-10.7-13.3
			c-12,0-25.3,1.3-36,4c-14.7,2.7-29.3,5.3-45.4,9.3c-14.7,2.7-30.7,6.7-45.4,9.3c-8,1.3-16,2.7-25.3,5.3c-4,1.3-8,2.7-12,5.3
			c-1.3,0-4,0-5.3,1.3h-1.3c-2.7,1.3-4,4-4,6.7c-1.3,8,1.3,17.3,2.7,25.3c1.3,12,2.7,24,4,36c1.3,26.7,5.3,53.4,8,80
			c2.7,24,4,48,6.7,73.4c1.3,10.7,1.3,21.3,2.7,33.3c-2.7,1.3-5.3,2.7-6.7,2.7c-2.7,1.3-5.3,1.3-6.7,2.7c-10.7,2.7-20,6.7-30.7,8
			s-20,4-30.7,6.7c-8,1.3-17.3,1.3-24,6.7c-6.7,5.3-10.7,13.3-12,21.3c0,1.3,0,1.3,0,2.7c-4,1.3-9.3,2.7-13.3,5.3
			c-10.7,4-22.7,9.3-33.3,13.3c-17.3,8-38.7,16-50.7,33.3c-25.3,36,32,84,60,97.4c4,1.3,6.7,2.7,10.7,5.3c5.3,6.7,10.7,12,18.7,17.3
			c13.3,9.3,25.3,18.7,38.7,28c28,17.3,54.7,33.3,84,48s61.4,21.3,93.4,29.3c16,4,32,8,49.4,10.7c16,2.7,32,4,46.7,8
			c33.3,6.7,65.4,6.7,98.7,9.3c33.3,1.3,68,4,101.4,2.7c68-1.3,137.4-9.3,204.1-24c17.3-4,34.7-9.3,50.7-13.3
			c17.3-5.3,33.3-10.7,48-20c30.7-18.7,61.4-40,84-68c1.3-2.7,2.7-4,2.7-6.7c21.3-10.7,40-24,56-41.3
			C1063.7,760.9,1077.1,735.5,1073.1,711.5z M855.6,482.1c0-18.7,0-36,1.3-54.7c0-8,1.3-17.3,1.3-25.3c0-1.3,0-2.7,0-4
			c0,0,1.3,0,1.3-1.3c2.7-1.3,5.3-1.3,6.7-1.3c17.3-2.7,34.7-2.7,52-2.7c17.3-1.3,36-2.7,53.4-4c8,0,16-1.3,24-1.3c1.3,0,2.7,0,4,0
			c-1.3,2.7-2.7,4-4,5.3c-4,6.7-9.3,12-13.3,18.7c-6.7,8-17.3,18.7-13.3,29.3c2.7,5.3,8,6.7,12,10.7c5.3,4,9.3,9.3,14.7,14.7
			c5.3,5.3,9.3,9.3,14.7,14.7c1.3,1.3,1.3,1.3,2.7,2.7c-8,0-16,1.3-24,2.7c-16,2.7-33.3,5.3-49.4,5.3c-26.7,1.3-54.7,5.3-81.4,6.7
			C855.6,492.8,855.6,487.4,855.6,482.1z M934.3,683.5c-1.3,12-2.7,22.7-4,34.7c0,5.3-1.3,9.3-1.3,14.7c0,2.7,0,9.3-1.3,12
			c-1.3,1.3-9.3,2.7-12,4c-5.3,1.3-10.7,2.7-16,4c-10.7,2.7-20,6.7-30.7,10.7c-9.3,2.7-18.7,6.7-28,10.7
			c-10.7,5.3-22.7,6.7-33.3,10.7c-1.3,0-2.7,1.3-4,1.3c0-5.3-1.3-9.3-1.3-14.7c-1.3-8,0-17.3-2.7-25.3c-1.3-4-1.3-12-4-17.3
			c4,0,8-1.3,10.7-2.7c12-4,21.3-10.7,32-17.3c12-6.7,25.3-12,38.7-18.7c13.3-5.3,26.7-10.7,40-18.7c6.7-4,13.3-6.7,18.7-12
			C935.7,668.8,934.3,676.8,934.3,683.5z M821,626.1c5.3-1.3,9.3-5.3,14.7-8c0,5.3,0,12,1.3,17.3c0,5.3,8,6.7,9.3,1.3
			c1.3-6.7,4-13.3,5.3-21.3c0,0,0,0,0-1.3c10.7,1.3,20,8,29.3,12c12,4,22.7,6.7,34.7,10.7c5.3,1.3,9.3,4,13.3,6.7
			c-1.3,1.3-4,2.7-5.3,4c-4,2.7-8,5.3-13.3,8c-10.7,6.7-21.3,12-33.3,17.3c-10.7,5.3-22.7,10.7-33.3,16c-10.7,5.3-20,12-30.7,17.3
			c-13.3,6.7-22.7,6.7-37.3,2.7l0,0c-4-2.7-9.3-5.3-13.3-6.7c-9.3-4-17.3-10.7-26.7-13.3c-10.7-4-20-10.7-30.7-14.7
			c-4-1.3-8-2.7-10.7-4c-1.3,0-2.7-1.3-4-1.3c-1.3-1.3-4-1.3-6.7-2.7c2.7,0,5.3-1.3,8-1.3c10.7-2.7,22.7-5.3,33.3-9.3
			c21.3-6.7,42.7-14.7,64-20C798.3,631.5,810.3,628.8,821,626.1z M683.6,682.2c2.7,1.3,4,2.7,6.7,2.7c12,5.3,22.7,12,34.7,17.3l0,0
			c2.7,1.3,5.3,4,8,5.3c14.7,9.3,32,18.7,50.7,21.3c0,1.3,0,2.7,0,4c0,6.7,0,14.7,0,21.3c0,9.3,0,18.7,1.3,28
			c-1.3-1.3-4-2.7-5.3-2.7c-10.7-5.3-22.7-6.7-34.7-9.3c-12-2.7-24-6.7-36-9.3c-9.3-2.7-18.7-4-26.7-9.3c2.7-14.7,4-30.7,2.7-45.4
			C684.9,699.5,684.9,690.2,683.6,682.2z M672.9,567.4c0-6.7,0-14.7,0-21.3c9.3,2.7,24,0,32-1.3c8-1.3,14.7-1.3,21.3,1.3
			c8,4,14.7,8,22.7,10.7c16,6.7,33.3,10.7,49.4,18.7c6.7,4,5.3,9.3,5.3,17.3c0,4-1.3,9.3-1.3,13.3c-20,4-40,9.3-58.7,17.3
			c-13.3,6.7-28,12-42.7,17.3c-5.3,2.7-12,5.3-17.3,8c-1.3,1.3-4,2.7-5.3,4c-2.7-6.7-8-13.3-13.3-17.3c-9.3-6.7-22.7-9.3-34.7-10.7
			c2.7-1.3,5.3-2.7,8-4c6.7-2.7,14.7-5.3,21.3-10.7C671.6,599.5,672.9,580.8,672.9,567.4z M554.2,816.9c-1.3,0-4,0-6.7,0
			c-9.3-1.3-20-1.3-30.7-2.7c-10.7-2.7-18.7-10.7-29.3-16c-18.7-9.3-41.3-10.7-60-17.3c-21.3-8-25.3-34.7-28-56
			c-1.3-12-1.3-25.3,5.3-34.7c1.3,0,4,0,5.3,0c13.3,1.3,26.7,8,38.7,12c13.3,5.3,26.7,9.3,40,14.7c5.3,2.7,10.7,4,16,5.3
			c6.7,1.3,13.3,0,20,4c5.3,2.7,10.7,4,16,4c0,4,1.3,9.3,1.3,13.3c1.3,10.7,5.3,20,6.7,30.7c1.3,10.7,1.3,21.3,2.7,32
			C554.2,807.5,554.2,812.9,554.2,816.9z M539.5,710.2c-4-1.3-8-4-13.3-5.3c-10.7-2.7-21.3-1.3-32-5.3c-12-4-22.7-8-34.7-10.7
			c-10.7-2.7-20-6.7-30.7-9.3c-6.7-1.3-10.7-1.3-4-6.7c2.7-2.7,6.7-5.3,9.3-8c9.3-10.7,16-20,29.3-25.3c6.7-2.7,14.7-5.3,21.3-8
			c1.3,0,2.7,1.3,2.7,1.3c6.7,4,12,5.3,18.7,10.7c5.3,4,12,6.7,18.7,5.3c16-1.3,30.7-10.7,46.7-12c5.3-1.3,10.7-1.3,17.3-1.3
			c8,0,8,2.7,14.7,4c13.3,5.3,26.7,4,40,9.3c6.7,2.7,10.7,6.7,13.3,12c-21.3,9.3-42.7,21.3-64,30.7c-12,5.3-24,12-36,16
			C551.5,710.2,544.9,711.5,539.5,710.2z M592.9,712.8c22.7-10.7,46.7-21.3,69.4-33.3c0,5.3,0,10.7,0,14.7c1.3,21.3,0,46.7-5.3,68
			c-2.7,10.7-10.7,13.3-20,17.3c-10.7,4-20,9.3-29.3,16c-8,5.3-17.3,12-26.7,16c-2.7,1.3-5.3,2.7-8,2.7c0-2.7,0-5.3,0-6.7
			c0-5.3-1.3-10.7-1.3-17.3c0-9.3-2.7-20-5.3-29.3c-2.7-9.3-6.7-17.3-9.3-26.7c-1.3-2.7-1.3-5.3-2.7-8
			C567.5,724.8,579.5,718.2,592.9,712.8z M654.2,490.1c1.3,16,1.3,32-1.3,46.7c-2.7,12-2.7,25.3-5.3,37.3c-1.3,4-1.3,13.3-2.7,16
			c-2.7,5.3-14.7,8-20,10.7c-10.7,5.3-22.7,8-34.7,10.7c-12,4-25.3,4-37.3,6.7c-6.7,1.3-12,4-17.3,5.3c1.3-4,2.7-8,2.7-9.3
			c1.3-5.3,4-10.7,5.3-16c4-8,4-17.3,5.3-26.7c0-9.3-2.7-18.7-2.7-28c0-4-1.3-8-1.3-12c0-1.3-1.3-4-1.3-6.7c2.7,0,4,0,6.7-1.3
			c12-2.7,24-12,33.3-17.3c12-8,25.3-12,38.7-17.3c9.3-2.7,21.3-4,30.7-9.3C652.9,484.7,654.2,487.4,654.2,490.1z M556.9,158
			c17.3-1.3,33.3-2.7,50.7-4s33.3-1.3,50.7-2.7c10.7-1.3,22.7-2.7,34.7-2.7c-2.7,4-5.3,8-8,12c-5.3,8-13.3,16-20,24
			c-6.7,9.3-26.7,22.7-22.7,36c2.7,5.3,8,8,13.3,9.3c8,2.7,14.7,8,22.7,12c8,5.3,16,10.7,24,17.3c-28,2.7-56,9.3-84,13.3
			c-17.3,2.7-34.7,4-52,5.3c-9.3,0-18.7,1.3-28,2.7c-4,0-8,0-12,1.3c0-6.7,1.3-13.3,1.3-21.3c0-13.3-1.3-26.7-1.3-41.3
			c0-12-1.3-24-2.7-34.7c0-6.7,0-12-1.3-18.7c0-1.3,0-4-1.3-5.3l0,0C534.2,158,546.2,158,556.9,158z M430.1,460.7
			c6.7-1.3,13.3,0,20-1.3c6.7-1.3,13.3-2.7,18.7-5.3s8-6.7,12-10.7c4-5.3,9.3-9.3,16-12c1.3,0,2.7-1.3,4-1.3c4-1.3,8-1.3,12-2.7
			c0,8,1.3,14.7,2.7,22.7l0,0c2.7,5.3,12,6.7,12,0c1.3-6.7,1.3-14.7,2.7-21.3c1.3,0,2.7,1.3,4,1.3c10.7,4,21.3,6.7,33.3,10.7
			c12,4,21.3,6.7,30.7,13.3c10.7,6.7,22.7,8,34.7,10.7c4,1.3,8,2.7,12,5.3c-9.3,2.7-17.3,1.3-26.7,5.3c-10.7,4-21.3,6.7-30.7,12
			c-10.7,5.3-20,12-30.7,17.3c-6.7,4-10.7,5.3-18.7,5.3c-5.3,0-10.7,0-16,0c-10.7-1.3-18.7-9.3-28-13.3c-9.3-4-18.7-4-28-5.3
			c-10.7-1.3-22.7-4-30.7-12c-4-4-8-8-12-13.3C423.5,463.4,427.5,460.7,430.1,460.7z M412.8,491.4c0-5.3,2.7-10.7,4-16
			c5.3,12,14.7,20,28,25.3c12,4,25.3,4,38.7,6.7c12,2.7,21.3,12,32,16c5.3,1.3,10.7,1.3,16,2.7c1.3,0,2.7,0,2.7,0
			c-1.3,4-2.7,8-2.7,14.7c0,5.3-1.3,10.7-1.3,16s1.3,9.3,1.3,14.7c-1.3,18.7-14.7,36-14.7,53.4c0,0-1.3,0-1.3-1.3
			c-10.7-6.7-22.7-10.7-33.3-14.7c-10.7-5.3-25.3-9.3-34.7-17.3c-5.3-4-8-10.7-12-16c-2.7-5.3-6.7-9.3-9.3-13.3
			c-6.7-10.7-4-24-6.7-37.3C416.8,515.4,411.5,503.4,412.8,491.4z M282.1,587.5c5.3-2.7,12-4,17.3-4c12-1.3,24-2.7,34.7-6.7
			c12-2.7,24-8,36-9.3c9.3-1.3,20-1.3,29.3-4c1.3,6.7,2.7,12,9.3,20c9.3,10.7,22.7,20,34.7,26.7c8,4,17.3,9.3,25.3,13.3
			c-16,2.7-30.7,8-41.3,20c-4,4-8,9.3-12,13.3c-1.3,1.3-4,2.7-6.7,2.7c-6.7-18.7-28-25.3-45.4-33.3c-25.3-10.7-52-17.3-74.7-32
			c-2.7-1.3-6.7-4-9.3-6.7C280.7,588.8,280.7,587.5,282.1,587.5z M208.7,370c-1.3-5.3-1.3-12-1.3-17.3c8,0,16-1.3,24-2.7
			c16-2.7,32-5.3,48-9.3c14.7-4,29.3-5.3,44-8c5.3-1.3,12-2.7,18.7-4v1.3c-4,6.7-9.3,13.3-13.3,20c-8,13.3-17.3,26.7-24,40
			c-1.3,2.7-1.3,6.7,0,10.7c6.7,9.3,18.7,14.7,26.7,21.3c4,4,8,8,13.3,10.7l1.3,1.3c-5.3,1.3-10.7,2.7-16,4
			c-14.7,2.7-29.3,6.7-42.7,10.7c-14.7,4-29.3,6.7-44,10.7c-6.7,1.3-13.3,4-20,5.3c-1.3,0-2.7,0-4,1.3c-2.7-20-5.3-40-5.3-60
			C211.4,394,210.1,382,208.7,370z M140.7,635.5c18.7-5.3,36-13.3,54.7-21.3c5.3-2.7,10.7-4,17.3-5.3c1.3,6.7,1.3,13.3,5.3,18.7
			c1.3,4,6.7,2.7,8,0l0,0c2.7-6.7,2.7-14.7,2.7-22.7c8-1.3,16-2.7,24-2.7c12,1.3,21.3,9.3,32,14.7c21.3,9.3,42.7,16,64,25.3
			c10.7,5.3,21.3,10.7,32,16c2.7,1.3,4,2.7,5.3,5.3c-8,1.3-14.7,6.7-22.7,9.3c-14.7,5.3-28,10.7-41.3,16c-12,4-22.7,12-33.3,16
			c-12,5.3-26.7,12-38.7,4c-10.7-6.7-21.3-13.3-32-20c-10.7-6.7-24-10.7-36-14.7c-12-5.3-22.7-10.7-33.3-17.3
			c-6.7-5.3-12-12-20-17.3C130,638.1,136.7,636.8,140.7,635.5z M380.8,736.8c0,2.7,1.3,5.3,1.3,8c-9.3,8-22.7,6.7-32,16
			c-12,12-32,14.7-48,18.7c-8,2.7-16,4-24,6.7h-1.3c0-2.7-1.3-6.7-1.3-9.3c-1.3-8,0-14.7-1.3-22.7c-1.3-9.3-2.7-18.7-6.7-26.7
			c4-1.3,8-2.7,12-4c13.3-4,25.3-12,37.3-17.3c13.3-5.3,26.7-10.7,41.3-16c8-2.7,17.3-5.3,25.3-8c-2.7,5.3-4,10.7-5.3,16
			C376.8,711.5,378.1,724.8,380.8,736.8z M119.4,663.5c0-4,0-12,1.3-17.3c1.3,2.7,4,6.7,5.3,9.3c4,5.3,9.3,10.7,14.7,14.7
			c10.7,8,22.7,14.7,34.7,20c12,5.3,25.3,9.3,36,17.3c10.7,6.7,21.3,14.7,34.7,20c4,1.3,6.7,2.7,9.3,2.7c1.3,10.7,4,22.7,4,33.3
			c0,8,0,14.7,0,22.7c0,0,0,0,0,1.3c-1.3,0-4-1.3-5.3-1.3c-16-6.7-33.3-9.3-49.4-17.3c-14.7-8-29.3-16-45.4-22.7
			c-6.7-2.7-14.7-4-21.3-6.7c-8-2.7-8-6.7-9.3-14.7C123.4,702.2,118,683.5,119.4,663.5z M18,711.5c1.3-4,4-6.7,8-9.3
			c8-5.3,14.7-10.7,24-14.7c12-5.3,22.7-12,33.3-17.3c4-2.7,9.3-5.3,14.7-8c1.3,14.7,6.7,29.3,9.3,44c2.7,16-2.7,41.3,16,49.4
			c6.7,2.7,14.7,4,22.7,6.7c10.7,4,20,10.7,29.3,14.7c9.3,4,18.7,8,26.7,13.3c9.3,4,18.7,5.3,29.3,8c9.3,2.7,18.7,9.3,29.3,10.7
			c9.3,2.7,20,0,29.3-1.3c12-1.3,24-5.3,36-9.3c10.7-2.7,22.7-5.3,32-10.7c4-2.7,6.7-6.7,9.3-12c1.3-4,1.3-4,5.3-6.7
			c4-1.3,9.3-2.7,13.3-5.3c1.3,6.7,2.7,12,5.3,17.3c13.3,25.3,44,24,68,28c5.3,1.3,12,1.3,18.7,4c5.3,2.7,10.7,6.7,16,9.3
			c10.7,6.7,22.7,10.7,36,12c13.3,1.3,28,5.3,42.7,4c13.3-1.3,22.7-9.3,33.3-16c12-8,22.7-17.3,36-22.7c10.7-5.3,22.7-8,30.7-17.3
			c2.7-2.7,4-5.3,5.3-9.3c16,9.3,36,9.3,53.4,14.7c12,4,24,5.3,34.7,10.7c10.7,4,20,13.3,32,13.3c10.7,0,22.7-6.7,33.3-9.3
			c13.3-4,22.7-10.7,34.7-17.3c9.3-5.3,22.7-10.7,33.3-13.3c12-2.7,25.3-4,37.3-9.3c21.3-8,18.7-36,20-54.7c1.3-17.3,5.3-34.7,4-52
			c1.3,0,2.7,0,2.7,0c10.7,1.3,20,6.7,29.3,9.3c18.7,5.3,40,18.7,49.4,34.7c1.3,1.3,1.3,4,2.7,5.3c-22.7,25.3-50.7,41.3-80,58.7
			c-6.7,4-12,5.3-20,8c-8,2.7-14.7,8-22.7,10.7c-16,5.3-32,12-49.4,16c-37.3,8-73.4,20-110.7,25.3c-37.3,4-73.4,9.3-110.7,13.3
			c-36,4-72,6.7-108,6.7c-6.7,0-14.7-1.3-21.3-1.3c-9.3,0-18.7,1.3-28,0c-17.3-2.7-34.7,0-50.7-1.3c-37.3-2.7-73.4-9.3-110.7-14.7
			c-18.7-2.7-38.7-5.3-57.4-9.3c-17.3-4-33.3-9.3-49.4-13.3c-20-5.3-42.7-8-61.4-17.3c-9.3-4-17.3-8-26.7-12
			c-10.7-4-21.3-6.7-30.7-12c-16-9.3-32-18.7-48-26.7C43.3,732.8,28.6,723.5,18,711.5z M898.3,867.6c-25.3,16-54.7,24-82.7,32
			c-64,16-130.7,22.7-196.1,25.3c-32,1.3-65.4,0-97.4-1.3c-16,0-32-2.7-48-2.7c-17.3,0-33.3,0-49.4-4c-29.3-5.3-58.7-9.3-88-16
			c-32-6.7-64-13.3-94.7-24c-33.3-10.7-64-29.3-94.7-46.7c-4-2.7-8-5.3-13.3-8c22.7,9.3,45.4,17.3,68,22.7
			c25.3,6.7,50.7,14.7,76,22.7c24,6.7,49.4,10.7,74.7,13.3c52,6.7,104,12,156.1,13.3c12,0,25.3-1.3,37.3-1.3c14.7,0,29.3,0,42.7,0
			c28,0,57.4-1.3,85.4-4c86.7-8,176.1-18.7,258.8-48C922.3,851.6,910.3,859.6,898.3,867.6z M1030.4,758.2
			c-14.7,17.3-32,26.7-52,37.3c-41.3,21.3-88,34.7-133.4,45.4c-48,10.7-96,20-145.4,22.7c-24,1.3-48,4-72,5.3
			c-25.3,1.3-50.7,1.3-76,1.3c-10.7,0-21.3,0-32,1.3c-12,1.3-22.7,0-34.7-1.3c-24-1.3-46.7-2.7-70.7-4c-45.4-4-92-8-136.1-22.7
			c-22.7-6.7-45.4-13.3-69.4-20c-22.7-5.3-44-13.3-65.4-21.3c-24-9.3-49.4-18.7-73.4-29.3c-17.3-8-37.3-24-48-41.3
			c4,4,9.3,8,13.3,12c5.3,4,13.3,6.7,20,9.3c8,4,14.7,9.3,22.7,13.3c16,8,30.7,16,46.7,21.3c17.3,6.7,34.7,14.7,53.4,20
			s37.3,9.3,56,14.7c18.7,5.3,37.3,10.7,56,14.7c21.3,4,41.3,6.7,62.7,9.3c18.7,2.7,37.3,5.3,56,8c36,5.3,72,5.3,106.7,5.3
			c16,0,33.3,2.7,49.4,1.3c18.7-1.3,38.7-2.7,57.4-4c37.3-2.7,74.7-6.7,112-12c20-4,41.3-5.3,61.4-8c18.7-4,37.3-9.3,57.4-14.7
			c20-5.3,40-10.7,58.7-17.3c9.3-2.7,17.3-5.3,25.3-9.3c4-2.7,9.3-5.3,14.7-5.3c4-1.3,6.7-1.3,10.7-2.7c17.3-8,34.7-20,50.7-30.7
			c12-8,22.7-16,32-26.7C1043.7,740.8,1038.4,750.2,1030.4,758.2z"/>
	</g>
</g>
</svg>
