<?xml version="1.0" encoding="utf-8"?>
<!-- Generator: Adobe Illustrator 23.0.0, SVG Export Plug-In . SVG Version: 6.00 Build 0)  -->
<svg version="1.1" id="Capa_1" xmlns="http://www.w3.org/2000/svg" xmlns:xlink="http://www.w3.org/1999/xlink" x="0px" y="0px"
	 viewBox="0 0 480 480" style="enable-background:new 0 0 480 480;" xml:space="preserve">
<path d="M319.7,298.1c4,0.1,7.9,1.8,10.6,4.8l79.9,86.6l11.7-10.9L367.8,320h0.2V104c0-22.1-17.9-40-40-40h-32v16h32
	c13.3,0,24,10.7,24,24v8h-56v16h56v174.9L342,292c-5.7-6.2-13.6-9.7-22-9.9c-2.1-0.1-4.3,0-6.4,0.4l6.2-24.6l6.4-25.9h9.8v-16h-16
	c-3.7,0-6.9,2.5-7.8,6.1l-6.5,25.9H184c-4.4,0-8,3.6-8,8c0,0.7,0.1,1.3,0.2,1.9l16,64c0.9,3.6,4.1,6.1,7.8,6.1h92.5
	c1.1,1.9,2.3,3.7,3.8,5.4l6.3,7.1c-1.5,2.2-3.9,3.5-6.6,3.6H192v16h104c6.6,0,12.8-2.7,17.3-7.5L343,386
	c-5.6,20.7-2.9,42.8,7.7,61.5c-3.2,9.9-12.4,16.6-22.7,16.6H168c-13.3,0-24-10.7-24-24v-8h184v-16H144V192h-16v248
	c0,22.1,17.9,40,40,40h160c13.3,0,25.8-6.6,33.2-17.7c2.7,2.9,5.5,5.7,8.6,8.2l9.1,7.6l10.2-12.3l-9.1-7.6
	c-21-17.4-29.1-45.9-20.4-71.7c0.9-2.7,0.3-5.7-1.6-7.8l-49.7-55.9c-5.2-5.9-4.9-14.8,0.6-20.3C311.8,299.7,315.6,298.1,319.7,298.1
	z M198.2,280l-4-16h22.7l2,16H198.2z M206.2,312l-4-16h18.7l2,16H206.2z M256.9,312h-17.9l-2-16h21.9L256.9,312z M260.9,280h-25.9
	l-2-16h29.9L260.9,280z M288.5,312h-15.5l2-16h18.5C290.5,300.8,288.7,306.3,288.5,312z M297.8,280h-20.7l2-16h22.7L297.8,280z
	 M208,368c8.8,0,16,7.2,16,16s-7.2,16-16,16s-16-7.2-16-16S199.2,368,208,368z M288,368c8.8,0,16,7.2,16,16s-7.2,16-16,16
	s-16-7.2-16-16S279.2,368,288,368z M248,0H40C22.3,0,8,14.3,8,32v112c0,17.7,14.3,32,32,32h208c17.7,0,32-14.3,32-32V32
	C280,14.3,265.7,0,248,0z M264,144c0,8.8-7.2,16-16,16H40c-8.8,0-16-7.2-16-16V32c0-8.8,7.2-16,16-16h208c8.8,0,16,7.2,16,16V144z
	 M40,40h144v16H40V40z M236.3,91.3c-7.5-4.4-16.8-4.4-24.3,0c-3.6-2.1-7.7-3.3-11.9-3.3c-13.3,0-24,10.7-24,24s10.7,24,24,24
	c4.2,0,8.3-1.2,11.9-3.3c11.4,6.7,26.1,2.9,32.9-8.5C251.5,112.7,247.7,98,236.3,91.3z M200,120c-4.4,0-8-3.6-8-8s3.6-8,8-8
	s8,3.6,8,8S204.4,120,200,120z M224,120c-0.5,0-1-0.1-1.4-0.2c1.9-5,1.9-10.6,0-15.6c0.5-0.1,0.9-0.2,1.4-0.2c4.4,0,8,3.6,8,8
	S228.4,120,224,120z M40,88h16v16H40V88z M72,88h16v16H72V88z M104,88h16v16h-16V88z M136,88h16v16h-16V88z M40,120h112v16H40V120z
	 M457.1,308.8l-67.2-74.2L378,245.3l67.2,74.3c6.9,7.4,10.7,17.1,10.7,27.2V480h16V346.8C472,332.7,466.7,319.1,457.1,308.8z
	 M267.6,201.3L256,209v-17h-16v17l-11.6-7.7l-8.9,13.3l24,16c2.7,1.8,6.2,1.8,8.9,0l24-16L267.6,201.3z"/>
</svg>
