<?xml version="1.0" encoding="utf-8"?>
<!-- Generator: Adobe Illustrator 23.0.0, SVG Export Plug-In . SVG Version: 6.00 Build 0)  -->
<svg version="1.1" id="Layer_1" xmlns="http://www.w3.org/2000/svg" xmlns:xlink="http://www.w3.org/1999/xlink" x="0px" y="0px"
	 viewBox="0 0 511 511" style="enable-background:new 0 0 511 511;" xml:space="preserve">
<path d="M501-1c-2.6,0-4.9,1-6.7,2.6c-0.1,0.1-0.2,0.2-0.4,0.3l-46.8,46.8L400.3,1.9c0,0,0,0,0,0c-0.9-0.9-2-1.7-3.2-2.2
	c-3.7-1.5-8-0.7-10.9,2.2l-31.3,31.3L323.6,1.9c-1.9-1.9-4.4-2.9-7.1-2.9c-2.6,0-5.2,1.1-7.1,2.9l-31.3,31.3L247,1.9
	c-1.9-1.9-4.4-2.9-7.1-2.9c-2.6,0-5.2,1.1-7.1,2.9l-31.3,31.3L170.3,1.9c-1.9-1.9-4.4-2.9-7.1-2.9c-2.6,0-5.2,1.1-7.1,2.9L125,33.2
	L93.7,1.9C91.8,0.1,89.3-1,86.6-1c-2.6,0-5.2,1.1-7.1,2.9L48.3,33.2L17,1.9C14.2-0.9,9.9-1.8,6.2-0.2C2.4,1.3,0,4.9,0,9v491
	c0,5.5,4.5,10,10,10h491c5.5,0,10-4.5,10-10V9C511,3.5,506.5-1,501-1z M447.1,72.9c2.6,0,5.1-1,7.1-2.9L491,33.1v442.8L457.1,442
	V210.2c0-5.5-4.5-10-10-10c-5.5,0-10,4.5-10,10V442l-33.9,33.9V33.1l36.9,36.9C442,71.9,444.6,72.9,447.1,72.9z M447.1,460.2
	l29.8,29.8h-59.6L447.1,460.2z M20,33.1l21.3,21.3c1.9,1.9,4.4,2.9,7.1,2.9c2.6,0,5.2-1,7.1-2.9l31.3-31.3l31.3,31.3
	c1.9,1.9,4.4,2.9,7.1,2.9c2.6,0,5.2-1,7.1-2.9l31.3-31.3l31.3,31.3c3.9,3.9,10.2,3.9,14.1,0l31.3-31.3l31.3,31.3
	c1.9,1.9,4.4,2.9,7.1,2.9c2.6,0,5.2-1,7.1-2.9l31.3-31.3l31.3,31.3c1.9,1.9,4.4,2.9,7.1,2.9c2.6,0,5.2-1,7.1-2.9l21.3-21.3v457H20
	V33.1z M129.7,173h31.9c5.5,0,10-4.5,10-10c0-5.5-4.5-10-10-10h-31.9c-12.1,0-22-9.8-22-22c0-12.1,9.8-22,22-22h143.7
	c12.1,0,22,9.8,22,22c0,12.1-9.9,22-22,22h-31.9c-5.5,0-10,4.5-10,10c0,5.5,4.5,10,10,10h31.9c23.1,0,41.9-18.8,41.9-41.9
	s-18.8-41.9-41.9-41.9H129.7c-23.1,0-41.9,18.8-41.9,41.9S106.6,173,129.7,173z M345.1,245.8c5.5,0,10-4.5,10-10c0-5.5-4.5-10-10-10
	h-22c-11,0-20,9-20,20v51.9c0,11,9,20,20,20h22c5.5,0,10-4.5,10-10c0-5.5-4.5-10-10-10h-22v-16h22c5.5,0,10-4.5,10-10
	c0-5.5-4.5-10-10-10h-22v-16H345.1z M59.8,245.8h14v61.9c0,5.5,4.5,10,10,10c5.5,0,10-4.5,10-10v-61.9h14c5.5,0,10-4.5,10-10
	c0-5.5-4.5-10-10-10H59.8c-5.5,0-10,4.5-10,10C49.9,241.4,54.3,245.8,59.8,245.8z M161,225.9c-4.2,0-7.9,2.6-9.3,6.5l-26.9,71.9
	c-1.9,5.2,0.7,10.9,5.8,12.8c5.2,1.9,10.9-0.7,12.8-5.8l2.9-7.6h29.5l2.9,7.6c1.5,4,5.3,6.5,9.3,6.5c1.2,0,2.3-0.2,3.5-0.6
	c5.2-1.9,7.8-7.7,5.8-12.8l-26.9-71.9C168.9,228.4,165.1,225.9,161,225.9z M153.7,283.6l7.3-19.4l7.3,19.4H153.7z M273.6,228.3
	c-3.9-3.9-10.2-3.9-14.1,0l-19.4,19.4v-11.9c0-5.5-4.5-10-10-10c-5.5,0-10,4.5-10,10v71.9c0,5.5,4.5,10,10,10c5.5,0,10-4.5,10-10
	v-12l19.4,19.2c1.9,1.9,4.5,2.9,7,2.9c2.6,0,5.1-1,7.1-3c3.9-3.9,3.8-10.2-0.1-14.1l-29.2-29l29.4-29.3
	C277.5,238.6,277.5,232.2,273.6,228.3z M217.9,355.4c-5.3-1.6-10.8,1.5-12.4,6.8L194,401.4l-11.5-39.2c-1.2-4.2-5.1-7.2-9.6-7.2
	c-4.4,0-8.3,2.9-9.6,7.2l-11.5,39.2l-11.5-39.2c-1.6-5.3-7.1-8.3-12.4-6.8c-5.3,1.6-8.3,7.1-6.8,12.4l21.1,71.9
	c1.2,4.2,5.1,7.2,9.6,7.2c4.4,0,8.3-2.9,9.6-7.2l11.5-39.2l11.5,39.2c1.2,4.2,5.1,7.2,9.6,7.2c4.4,0,8.3-2.9,9.6-7.2l21.1-71.9
	C226.2,362.5,223.2,357,217.9,355.4z M350.6,356.7c-4.6-3-10.8-1.7-13.8,2.9l-15,23.1l-15-23.1c-3-4.6-9.2-5.9-13.8-2.9
	c-4.6,3-5.9,9.2-2.9,13.8l21.7,33.4v33c0,5.5,4.5,10,10,10c5.5,0,10-4.5,10-10v-33l21.7-33.4C356.5,365.8,355.2,359.7,350.6,356.7z
	 M94.4,361.5c-1.5-3.9-5.2-6.5-9.3-6.5s-7.9,2.6-9.3,6.5l-26.9,71.9c-1.9,5.2,0.7,10.9,5.8,12.8s10.9-0.7,12.8-5.8l2.9-7.6h29.5
	l2.9,7.6c1.5,4,5.3,6.5,9.3,6.5c1.2,0,2.3-0.2,3.5-0.6c5.2-1.9,7.8-7.7,5.8-12.8L94.4,361.5z M77.8,412.8l7.3-19.4l7.3,19.4H77.8z
	 M270.4,361.4c-1.5-3.9-5.2-6.5-9.3-6.5c-4.2,0-7.9,2.6-9.3,6.5l-26.9,71.9c-1.9,5.2,0.7,10.9,5.8,12.8c5.2,1.9,10.9-0.7,12.8-5.8
	l2.9-7.6h29.5l2.9,7.6c1.5,4,5.3,6.5,9.3,6.5c1.2,0,2.4-0.2,3.5-0.6c5.2-1.9,7.8-7.7,5.8-12.8L270.4,361.4z M253.8,412.7l7.3-19.4
	l7.3,19.4H253.8z M447.1,180.3c2.6,0,5.2-1.1,7.1-2.9c1.9-1.9,2.9-4.4,2.9-7.1c0-2.6-1.1-5.2-2.9-7.1c-1.9-1.9-4.4-2.9-7.1-2.9
	c-2.6,0-5.2,1.1-7.1,2.9c-1.9,1.9-2.9,4.4-2.9,7.1c0,2.6,1.1,5.2,2.9,7.1C441.9,179.2,444.5,180.3,447.1,180.3z M208.7,170.1
	c1.9-1.9,2.9-4.4,2.9-7c0-2.6-1.1-5.2-2.9-7.1c-1.9-1.9-4.4-2.9-7.1-2.9c-2.6,0-5.2,1.1-7.1,2.9c-1.9,1.9-2.9,4.4-2.9,7.1
	c0,2.6,1.1,5.2,2.9,7c1.9,1.9,4.4,2.9,7.1,2.9C204.2,173,206.8,172,208.7,170.1z"/>
</svg>
