<?xml version="1.0" encoding="utf-8"?>
<!-- Generator: Adobe Illustrator 23.0.0, SVG Export Plug-In . SVG Version: 6.00 Build 0)  -->
<svg version="1.1" id="Layer_1" xmlns="http://www.w3.org/2000/svg" xmlns:xlink="http://www.w3.org/1999/xlink" x="0px" y="0px"
	 viewBox="0 0 512 512" style="enable-background:new 0 0 512 512;" xml:space="preserve">
<path d="M501.7,218.3l-48-48c-1.5-1.5-3.5-2.3-5.7-2.3H344v-64c0-4.4-3.6-8-8-8H16c-4.4,0-8,3.6-8,8v272c0,4.4,3.6,8,8,8h32.6
	c1.7,12.2,7.5,23.4,16.2,32H32c-4.4,0-8,3.6-8,8s3.6,8,8,8h72c27.8,0,51.4-20.5,55.4-48l201.1-1.2c1.5,12.6,7.3,24.3,16.4,33.2H304
	c-4.4,0-8,3.6-8,8s3.6,8,8,8h112c30.4,0,55.3-24.4,55.9-54.8l24.5-1.2c4.3-0.2,7.6-3.7,7.6-8V224C504,221.9,503.2,219.8,501.7,218.3
	z M104,416c-22.1,0-40-17.9-40-40s17.9-40,40-40s40,17.9,40,40C144,398.1,126.1,416,104,416z M328,368H159.4
	c-4.4-30.6-32.7-51.8-63.3-47.4c-24.6,3.5-43.9,22.8-47.4,47.4H24V112h304V368z M416,416c-22.1,0-40-17.9-40-40s17.9-40,40-40
	s40,17.9,40,40C456,398.1,438.1,416,416,416z M488,360.4l-18,0.9c-8.1-29.8-38.8-47.4-68.6-39.3c-21.1,5.7-36.9,23.2-40.5,44.8
	l-16.8,0.8V184h100.7l16,16H368c-4.4,0-8,3.6-8,8v88c0,4.4,3.6,8,8,8h120V360.4z M488,288H376v-72h100.7l11.3,11.3V288z M280,416h-8
	c-4.4,0-8,3.6-8,8s3.6,8,8,8h8c4.4,0,8-3.6,8-8S284.4,416,280,416z M72,296h192c4.4,0,8-3.6,8-8v-24c0-4.4-3.6-8-8-8h-8v-8
	c-0.1-36.6-27.6-67.4-64-71.5V160c0-4.4-3.6-8-8-8h-32c-4.4,0-8,3.6-8,8v16.5c-36.4,4.1-63.9,34.9-64,71.5v8h-8c-4.4,0-8,3.6-8,8v24
	C64,292.4,67.6,296,72,296z M160,168h16v8h-16V168z M96,248c0-30.9,25.1-56,56-56h32c30.9,0,56,25.1,56,56v8H96V248z M80,272h176v8
	H80V272z M192,336c-4.4,0-8,3.6-8,8s3.6,8,8,8h80c4.4,0,8-3.6,8-8s-3.6-8-8-8H192z M296,352h8c4.4,0,8-3.6,8-8s-3.6-8-8-8h-8
	c-4.4,0-8,3.6-8,8S291.6,352,296,352z"/>
</svg>
