<?xml version="1.0" encoding="utf-8"?>
<!-- Generator: Adobe Illustrator 23.0.0, SVG Export Plug-In . SVG Version: 6.00 Build 0)  -->
<svg version="1.1" id="Layer_1" xmlns="http://www.w3.org/2000/svg" xmlns:xlink="http://www.w3.org/1999/xlink" x="0px" y="0px"
	 viewBox="0 0 512.2 512.2" style="enable-background:new 0 0 512.2 512.2;" xml:space="preserve">
<path d="M273.1,337.1h136.5c5.1,0,8.5-3.4,8.5-8.5v-76.8c0-5.1-3.4-8.5-8.5-8.5H273.1c-5.1,0-8.5,3.4-8.5,8.5v76.8
	C264.5,333.7,267.9,337.1,273.1,337.1z M281.6,260.3h119.5v59.7H281.6V260.3z M42.7,226.2h68.3c5.1,0,8.5-3.4,8.5-8.5
	s-3.4-8.5-8.5-8.5H42.7c-5.1,0-8.5,3.4-8.5,8.5S37.5,226.2,42.7,226.2z M145.1,226.2h68.3c5.1,0,8.5-3.4,8.5-8.5s-3.4-8.5-8.5-8.5
	h-68.3c-5.1,0-8.5,3.4-8.5,8.5S139.9,226.2,145.1,226.2z M42.7,260.3h110.9c5.1,0,8.5-3.4,8.5-8.5s-3.4-8.5-8.5-8.5H42.7
	c-5.1,0-8.5,3.4-8.5,8.5S37.5,260.3,42.7,260.3z M213.3,243.3h-25.6c-5.1,0-8.5,3.4-8.5,8.5s3.4,8.5,8.5,8.5h25.6
	c5.1,0,8.5-3.4,8.5-8.5S218.5,243.3,213.3,243.3z M504.3,137.5c-6-7.7-13.7-11.9-23-12.8l-20.5-2.5v-24V81.1
	c0-18.8-15.4-34.1-34.1-34.1H34.1C15.4,47,0,62.4,0,81.1v17.1v68.3v187.7c0,15.4,10.4,28.5,24.5,32.7c-0.4,17.3,12.6,32.2,30.2,33.8
	l394.2,44.4c0.9,0,2.6,0,3.4,0c17.1,0,32.4-12.8,34.1-29L512,162.2C512.9,153.7,510.3,144.3,504.3,137.5z M17.1,106.7h426.7v22.2v29
	H17.1V106.7z M34.1,64.1h392.5c9.4,0,17.1,7.7,17.1,17.1v8.5H17.1v-8.5C17.1,71.8,24.7,64.1,34.1,64.1z M17.1,354.2V175h426.7v179.2
	c0,9.4-7.7,17.1-17.1,17.1H35h-0.9C24.7,371.3,17.1,363.6,17.1,354.2z M494.9,158.8l-25.6,273.9c-0.9,9.4-9.4,16.2-18.8,15.4
	L57.2,403.7c-8.5-0.9-14.5-7.7-15.4-15.4h384.9c18.8,0,34.1-15.4,34.1-34.1V166.5v-28.2l19.6,1.7c4.3,0,8.5,2.6,11.1,6
	C494.1,149.4,495.8,154.5,494.9,158.8z"/>
</svg>
