<?xml version="1.0" encoding="utf-8"?>
<!-- Generator: Adobe Illustrator 23.0.0, SVG Export Plug-In . SVG Version: 6.00 Build 0)  -->
<svg version="1.1" id="Layer_1" xmlns="http://www.w3.org/2000/svg" xmlns:xlink="http://www.w3.org/1999/xlink" x="0px" y="0px"
	 viewBox="0 0 512 512" style="enable-background:new 0 0 512 512;" xml:space="preserve">
<path id="Wallet-2" d="M264,368h32c4.4,0,8-3.6,8-8v-32c0-4.4-3.6-8-8-8h-32c-4.4,0-8,3.6-8,8v32C256,364.4,259.6,368,264,368z
	 M272,336h16v16h-16V336z M416,120h16V88c0-4.4-3.6-8-8-8h-32v16h24V120z M416,208h-8v16h16c4.4,0,8-3.6,8-8v-32h-16V208z M96,96h24
	V80H88c-4.4,0-8,3.6-8,8v32h16V96z M488,16H72c-4.4,0-8,3.6-8,8v24h-8c-4.4,0-8,3.6-8,8v88h-8c-13.3,0-24,10.7-24,24v320
	c0,4.4,3.6,8,8,8h352c10.1,0,19.1-6.4,22.5-16h17.3c13.2,0,23.9-10.7,24-23.9c0,0,0.2-173.2,0.2-200.1h16c4.4,0,8-3.6,8-8v-8h24
	c4.4,0,8-3.6,8-8V24C496,19.6,492.4,16,488,16z M40,160h8v32H32v-24C32,163.6,35.6,160,40,160z M32,208h16v272H32V208z M64,208h16
	v272H64V208z M376,480H96V208h280c4.4,0,8,3.6,8,8v72H248c-13.3,0-24,10.7-24,24v64c0,13.3,10.7,24,24,24h136v72
	C384,476.4,380.4,480,376,480z M200,152c-0.1-30.9,25-56.1,55.9-56.1c30.9-0.1,56.1,25,56.1,55.9c0,15.1-6.1,29.7-16.9,40.2h-78.2
	C206.1,181.5,200,167.1,200,152z M384,384H248c-4.4,0-8-3.6-8-8v-64c0-4.4,3.6-8,8-8h136V384z M423.8,456.1c0,4.4-3.6,7.9-8,7.9H400
	V256h24C424,282.9,423.8,456.1,423.8,456.1L423.8,456.1z M448,240h-48v-24c0-13.3-10.7-24-24-24h-60.2c22.2-33,13.4-77.7-19.6-99.9
	s-77.7-13.4-99.9,19.6c-16.3,24.3-16.3,56.1,0,80.4H64V64h384V240z M480,224h-16V56c0-4.4-3.6-8-8-8H80V32h400V224z M344,264h16v-32
	c0-4.4-3.6-8-8-8h-32v16h24V264z M344,448h-24v16h32c4.4,0,8-3.6,8-8v-32h-16V448z"/>
</svg>
