<?xml version="1.0" encoding="utf-8"?>
<!-- Generator: Adobe Illustrator 23.0.0, SVG Export Plug-In . SVG Version: 6.00 Build 0)  -->
<svg version="1.1" id="Layer_1" xmlns="http://www.w3.org/2000/svg" xmlns:xlink="http://www.w3.org/1999/xlink" x="0px" y="0px"
	 viewBox="0 0 512 512" style="enable-background:new 0 0 512 512;" xml:space="preserve">
<path d="M56,160h-8c-4.4,0-8,3.6-8,8s3.6,8,8,8h8c4.4,0,8-3.6,8-8S60.4,160,56,160z M152,160H80c-4.4,0-8,3.6-8,8s3.6,8,8,8h72
	c4.4,0,8-3.6,8-8S156.4,160,152,160z M504,336c-0.1-63.1-49-115.4-112-119.6V136c0-4.4-3.6-8-8-8h-80V56c0-0.1-0.1-0.2-0.1-0.3
	c0-0.8-0.2-1.7-0.5-2.5c-0.1-0.2-0.1-0.4-0.2-0.5s0-0.2-0.1-0.3l-16-32c-1.4-2.7-4.1-4.4-7.2-4.4H120c-3,0-5.8,1.7-7.2,4.4l-16,32
	c0,0.1-0.1,0.2-0.1,0.3s-0.1,0.4-0.2,0.5c-0.3,0.8-0.5,1.6-0.5,2.5c0,0.1-0.1,0.2-0.1,0.3v72H16c-4.4,0-8,3.6-8,8v320
	c0,22.1,17.9,40,40,40h304c22.1,0,40-17.9,40-40v-0.4C455,451.4,503.9,399.1,504,336z M144,128V64h112v64H144z M272,64h16v64h-16V64
	z M124.9,32h150.1l8,16H116.9L124.9,32z M112,64h16v64h-16V64z M352,480H48c-13.3,0-24-10.7-24-24V144h352v72.4
	c-66.1,4.3-116.1,61.3-111.9,127.3c3.9,60.1,51.8,108,111.9,111.9v0.4C376,469.3,365.3,480,352,480L352,480z M384,440
	c-57.4,0-104-46.6-104-104s46.6-104,104-104s104,46.6,104,104C487.9,393.4,441.4,439.9,384,440z M384,240c-53,0-96,43-96,96
	s43,96,96,96s96-43,96-96C479.9,283,437,240.1,384,240z M384,416c-44.2,0-80-35.8-80-80s35.8-80,80-80s80,35.8,80,80
	C464,380.2,428.2,416,384,416z M426.9,289.8l-44.3,37L347,312.6c-4.1-1.6-8.8,0.4-10.4,4.5c-1.6,4.1,0.4,8.8,4.5,10.4l0,0l40,16
	c2.7,1.1,5.8,0.6,8.1-1.3l48-40c3.4-2.8,3.9-7.9,1-11.3S430.3,287,426.9,289.8L426.9,289.8z"/>
</svg>
