<?xml version="1.0" encoding="utf-8"?>
<!-- Generator: Adobe Illustrator 23.0.0, SVG Export Plug-In . SVG Version: 6.00 Build 0)  -->
<svg version="1.1" id="Layer_1" xmlns="http://www.w3.org/2000/svg" xmlns:xlink="http://www.w3.org/1999/xlink" x="0px" y="0px"
	 viewBox="0 0 511 511" style="enable-background:new 0 0 511 511;" xml:space="preserve">
<path d="M503.1,103.1h-41.6c1.2-1.7,2.3-3.5,3.3-5.3c5.5-10.8,6.2-23.4,2-34.7l-12.6-33.9c-4.2-11.3-13-20.4-24.2-25
	c-11.2-4.5-23.9-4.2-34.8,1l-99.8,47.4c-4.9-3.5-11-5.6-17.5-5.6h-44.9c-6.5,0-12.5,2.1-17.5,5.6L115.8,5.2C104.9,0,92.2-0.4,81,4.2
	c-11.2,4.5-20,13.6-24.2,25L44.2,63c-4.2,11.3-3.5,24,2,34.7c1,1.9,2.1,3.7,3.3,5.3H7.9c-4.4,0-7.9,3.5-7.9,7.9v56.8
	c0,4.4,3.5,7.9,7.9,7.9s7.9-3.5,7.9-7.9v-48.9h54.8c0.9,0.3,1.8,0.6,2.7,0.8l66.2,18.2c-14.7,22.5-27.7,46.3-38.8,70.8H15.8v-9.5
	c0-4.4-3.5-7.9-7.9-7.9S0,195,0,199.3v17.4c0,4.4,3.5,7.9,7.9,7.9H36v279.2c0,4.4,3.5,7.9,7.9,7.9h423.2c4.4,0,7.9-3.5,7.9-7.9V458
	c0-4.4-3.5-7.9-7.9-7.9c-4.4,0-7.9,3.5-7.9,7.9v37.9H302.8V229.4c22.3,42.3,37.5,88.3,44.4,135.9c0.5,3.1,2.8,5.7,5.9,6.5
	c0.6,0.2,1.3,0.2,2,0.2c2.4,0,4.8-1.1,6.3-3.1c11.3-15,21.9-31.1,31.4-48c15.9,10.9,31.4,23,46.1,36.1c2.5,2.2,6.1,2.6,9,1.1
	c2.9-1.6,4.5-4.8,4.1-8.1c-6.3-43-18-85.2-34.7-125.4h42v201.9c0,4.4,3.5,7.9,7.9,7.9c4.4,0,7.9-3.5,7.9-7.9V224.6h28.1
	c4.4,0,7.9-3.5,7.9-7.9V111C511,106.6,507.5,103.1,503.1,103.1z M402,19.4c7-3.3,14.9-3.6,22.1-0.6c7.2,2.9,12.7,8.6,15.4,15.8
	L452,68.5c2.7,7.3,2.2,15.1-1.3,22.1c-3.5,6.9-9.6,11.9-17.1,13.9l-125.5,34.6v-37.9c28.2-17.3,98.6-52.9,116.1-28.2
	c2.5,3.6,7.4,4.4,11,1.9c3.6-2.5,4.4-7.4,1.9-11c-13.5-19.1-42-20-84.6-2.8c-17.6,7.1-33.8,15.8-44.3,21.8v-5.8
	c0-4.2-0.9-8.2-2.5-11.9L402,19.4z M233.1,62.7h44.9c7.9,0,14.4,6.4,14.4,14.4v65.2c0,7.9-6.4,14.4-14.4,14.4h-44.9
	c-7.9,0-14.4-6.4-14.4-14.4V77.1C218.7,69.2,225.2,62.7,233.1,62.7z M219.8,208.8c7.5-12.5,15.8-24.7,24.6-36.4h22.2
	c8.8,11.7,17,23.9,24.6,36.4H219.8z M60.3,90.6c-3.5-6.9-4-14.8-1.3-22.1l12.6-33.9c2.7-7.3,8.2-12.9,15.4-15.8
	c7.2-2.9,15.1-2.7,22.1,0.6l96.4,45.8c-1.6,3.6-2.5,7.7-2.5,11.9v6.3c-10.5-6-27.1-15-45.1-22.2c-42.7-17.3-71.1-16.3-84.6,2.8
	c-2.5,3.6-1.7,8.5,1.9,11c3.6,2.5,8.5,1.7,11-1.9c17.7-24.9,89.2,11.6,116.9,28.7v37.4L77.4,104.5C69.9,102.4,63.8,97.5,60.3,90.6z
	 M206.5,156.4c3.9,7.3,10.8,12.9,19,15c-36.9,51.5-62.3,110.6-74.2,172.7c-8.4-12.2-16.2-25.1-23.4-38.3c-1-1.9-2.9-3.4-5-3.9
	c-2.1-0.5-4.4-0.2-6.2,1c-13.1,8.6-26,18-38.4,28.1c12.8-67.1,39.2-131.9,77.1-188.7L206.5,156.4z M51.8,224.6h42
	C77.2,264.7,65.4,307,59.1,349.9c-0.5,3.3,1.1,6.5,4.1,8.1c2.9,1.6,6.5,1.2,9-1.1c14.7-13.1,30.2-25.2,46.1-36.1
	c9.5,16.8,20.1,32.9,31.4,48c1.5,2,3.9,3.1,6.3,3.1c0.7,0,1.3-0.1,2-0.2c3.1-0.8,5.4-3.3,5.8-6.5c7-47.5,22.1-93.5,44.4-135.9v266.5
	H51.8V224.6z M224,495.9V224.6H287v271.3H224z M394.3,303c-1.8-1.2-4.1-1.6-6.2-1c-2.1,0.5-3.9,2-5,3.9c-7.2,13.3-15,26.1-23.4,38.3
	c-11.9-62.2-37.3-121.3-74.2-172.7c8.2-2.1,15.1-7.7,19-15l51.1-14.1c37.9,56.8,64.3,121.6,77.1,188.7
	C420.3,321,407.4,311.6,394.3,303z M495.2,208.8h-84.8c-11.1-24.6-24.1-48.3-38.8-70.8l66.2-18.2c0.9-0.2,1.8-0.5,2.7-0.8h54.8
	V208.8z"/>
</svg>
