<?xml version="1.0" encoding="utf-8"?>
<!-- Generator: Adobe Illustrator 22.0.0, SVG Export Plug-In . SVG Version: 6.00 Build 0)  -->
<svg version="1.1" id="Слой_1" xmlns="http://www.w3.org/2000/svg" xmlns:xlink="http://www.w3.org/1999/xlink" x="0px" y="0px"
	 viewBox="0 0 129 129" style="enable-background:new 0 0 129 129;" xml:space="preserve">
<style type="text/css">
	.st0{fill:#ECEDEF;}
	.st1{fill:#ECEDEF;stroke:#ECEDEF;stroke-width:3;stroke-miterlimit:10;}
</style>
<g>
	<g>
		<path class="st0" d="M64.5,122.6c32,0,58.1-26,58.1-58.1S96.5,6.4,64.5,6.4S6.4,32.5,6.4,64.5S32.5,122.6,64.5,122.6z M64.5,14.6
			c27.5,0,49.9,22.4,49.9,49.9S92,114.4,64.5,114.4S14.6,92,14.6,64.5S37,14.6,64.5,14.6z"/>
		<path class="st1" d="M57.6,81.7c0.5,0.5,1.1,0.7,1.7,0.7c0.6,0,1.3-0.2,1.7-0.7l15.8-15.8c0.5-0.5,0.7-1.1,0.7-1.7
			c0-0.7-0.2-1.3-0.7-1.7L61.1,46.7c-1-1-2.5-1-3.5,0c-1,1-1,2.5,0,3.5l14,14l-14,14C56.6,79.2,56.6,80.7,57.6,81.7z"/>
	</g>
</g>
</svg>
