<?xml version="1.0" encoding="utf-8"?>
<!-- Generator: Adobe Illustrator 22.0.0, SVG Export Plug-In . SVG Version: 6.00 Build 0)  -->
<svg version="1.1" id="Layer_1" xmlns="http://www.w3.org/2000/svg" xmlns:xlink="http://www.w3.org/1999/xlink" x="0px" y="0px"
	 viewBox="0 0 300 300" style="enable-background:new 0 0 300 300;" xml:space="preserve">
<style type="text/css">
	.st0{fill:#D0B606;}
</style>
<g>
	<g>
		<path class="st0" d="M150,0C67.2,0,0,67.2,0,150s67.2,150,150,150s150-67.2,150-150S232.8,0,150,0z M160.4,168.3
			c0,0.4-0.1,0.8-0.1,1.2c0,0.3-0.1,0.6-0.1,0.9c-0.1,0.3-0.2,0.6-0.3,0.9c-0.1,0.4-0.2,0.7-0.4,1.1c0,0.1,0,0.1-0.1,0.2
			c-0.2,0.5-0.5,0.9-0.8,1.4c0,0,0,0.1-0.1,0.1c-0.3,0.5-0.7,0.9-1.1,1.3c-0.1,0.1-0.2,0.2-0.3,0.3c-0.3,0.3-0.7,0.6-1.1,0.9
			c-0.1,0.1-0.2,0.2-0.4,0.3c-0.5,0.3-1,0.6-1.6,0.8c-0.1,0.1-0.2,0.1-0.4,0.1c-0.5,0.2-0.9,0.3-1.4,0.4c-0.2,0-0.3,0.1-0.5,0.1
			c-0.6,0.1-1.2,0.2-1.9,0.2c-0.1,0-0.3,0-0.4,0c-0.6,0-1.2-0.1-1.8-0.2c-0.2,0-0.4-0.1-0.5-0.2c-0.5-0.1-1.1-0.3-1.6-0.5
			c-0.1,0-0.1,0-0.2-0.1l-57.5-27.1c-5.2-2.4-7.4-8.6-5-13.8c2.4-5.2,8.6-7.4,13.8-5l42.7,20.1V62.2c0-5.7,4.6-10.4,10.4-10.4
			s10.4,4.6,10.4,10.4v105.9h0C160.4,168.2,160.4,168.3,160.4,168.3z"/>
	</g>
</g>
</svg>
