<?xml version="1.0" encoding="utf-8"?>
<!-- Generator: Adobe Illustrator 22.0.0, SVG Export Plug-In . SVG Version: 6.00 Build 0)  -->
<svg version="1.1" id="Capa_1" xmlns="http://www.w3.org/2000/svg" xmlns:xlink="http://www.w3.org/1999/xlink" x="0px" y="0px"
	 viewBox="0 0 495.3 495.3" style="enable-background:new 0 0 495.3 495.3;" xml:space="preserve">
<style type="text/css">
	.st0{fill:#FFFFFF;}
</style>
<path class="st0" d="M0,335.4c0,13,10.5,23.5,23.5,23.5h37.3c4.3,28.5,28.9,50.4,58.6,50.4s54.3-21.9,58.6-50.4h105.5
	c4.3,28.5,28.9,50.4,58.6,50.4s54.3-21.9,58.6-50.4h28.7c13,0,23.5-10.5,23.5-23.5V219.9h31c6.4,0,11.5-5.1,11.5-11.5
	s-5.1-11.5-11.5-11.5h-31v-27.4h17.3c6.4,0,11.5-5.1,11.5-11.5s-5.1-11.5-11.5-11.5h-17.3v-36.9c0-13-10.5-23.5-23.5-23.5H179.2
	c-25.7,0-58.7,16.5-90.6,45.2c-30.7,27.6-55,62.3-65.2,92.7c-4.2,12.7-21.3,99.4-23.2,109.3C0.1,333.9,0,334.7,0,335.4z
	 M165.1,111.1v116.4l-118.5,0C64.9,178.2,123.1,122.3,165.1,111.1z M305.8,350.1c0-20,16.3-36.3,36.3-36.3c20,0,36.3,16.3,36.3,36.3
	c0,20-16.3,36.3-36.3,36.3C322.1,386.3,305.8,370.1,305.8,350.1z M83.1,350.1c0-20,16.3-36.3,36.3-36.3s36.3,16.3,36.3,36.3
	s-16.3,36.3-36.3,36.3C99.4,386.3,83.1,370.1,83.1,350.1z M23.3,335.2c5.7-26.5,12.5-62.4,17.4-84.7l136,0c6.4,0,11.5-5.1,11.5-11.5
	V109h241.3c0.3,0,0.5,0.2,0.5,0.5v36.9H365c-6.4,0-11.5,5.1-11.5,11.5s5.1,11.5,11.5,11.5h64.9v27.4H288.9
	c-6.4,0-11.5,5.1-11.5,11.5s5.1,11.5,11.5,11.5h140.9v115.5c0,0.3-0.2,0.5-0.5,0.5h-29.7c-6.4-25.9-29.7-45.1-57.5-45.1
	s-51.2,19.2-57.5,45.1H176.9c-6.4-25.9-29.7-45.1-57.5-45.1s-51.2,19.2-57.5,45.1c0,0-28.2,0-37.8,0
	C23.5,335.9,23.1,335.7,23.3,335.2z"/>
</svg>
