<?xml version="1.0" encoding="utf-8"?>
<!-- Generator: Adobe Illustrator 22.0.0, SVG Export Plug-In . SVG Version: 6.00 Build 0)  -->
<svg version="1.1" id="OBJECTS" xmlns="http://www.w3.org/2000/svg" xmlns:xlink="http://www.w3.org/1999/xlink" x="0px" y="0px"
	 viewBox="0 0 55 97" style="enable-background:new 0 0 55 97;" xml:space="preserve">
<style type="text/css">
	.st0{fill:#455C6B;}
</style>
<path class="st0" d="M48.9,60.2c-0.1-0.1-0.2-0.1-0.3-0.1c-0.1-0.1-0.3-0.2-0.5-0.1c-0.6,0.5-1.2,1.1-1.7,1.8c-0.1,0-0.2,0-0.3,0.1
	c-2.2,2.4-3,7.8-2.1,11.6c0,0,0,0,0,0c-0.6,2.4-1,4.9-0.6,7.3c-1-2.3-2.1-4.5-3.1-6.8c0.1,0.1,0.4,0,0.3-0.2
	c-1.6-3.2-1.6-6.9-1.2-10.6c0.1,0,0.1,0,0.2-0.1c2.4-1.9,2.9-6.6,3.4-9.4c0.3-2,1.2-7.8-1.3-9c-0.7-0.3-1.3-0.2-1.7,0.3
	c0,0-0.1-0.1-0.1-0.1c-0.2-0.1-0.4-0.1-0.5,0.1c-0.9,1.7-2.5,9.6-1.2,12.9c-0.2,1.7,0,3.4,0.7,4.7c-0.3,3.2-0.4,6.5,0.6,9.4
	c-0.9-1.9-1.7-3.8-2.5-5.7c0.1-0.1,0.1-0.2,0.1-0.3c-1.1-1.8-1.3-4.1-1.5-6.2c-0.1-0.9-0.1-1.9-0.1-2.8c0-0.1,0-0.2,0-0.3
	c0.1,0.1,0.3,0.2,0.5,0.3c0.1,0.1,0.3,0,0.4-0.1c0.4-1.2,0.2-2.7-1.2-3c-0.1,0-0.3,0.1-0.3,0.2c-0.3,0.7-0.3,1.7,0.3,2.3
	c0,1.9-0.1,4.1,0.3,6.1c-0.7-1.6-1.4-3.2-2-4.8c-0.5-2.6-0.8-5.3-0.9-8.1c0.1,0,0.2-0.1,0.3-0.3c0.3-2,0.6-4.1,0.8-6.1
	c0.2-0.9,0.3-1.7,0.5-2.6c0.7-4,0.6-8.1,0.8-12.2c0-0.4-0.5-0.5-0.6-0.1c0,0.3-0.1,0.7-0.1,1c-0.2-0.8-0.4-1.6-0.9-2.2
	c-1.5-2.1-2.7,3.9-2.8,4.2c-0.7,5.1-0.2,11.3,1.3,16.3c0,2.7,0.3,5.3,0.7,7.8c-0.1-0.4-0.3-0.8-0.4-1.2c-1.6-4.3-3.1-8.6-4.7-12.9
	c-0.2-2.3-0.3-4.7-0.5-7c0.1-0.7,0.1-1.4,0.2-2c0,0.1,0,0.3,0.1,0.4c0,1.1,0,2.2,0,3.4c0,0.4,0.7,0.4,0.7,0c0-0.6,0-1.2,0-1.8
	c0-2.2-0.1-4.3-0.3-6.5c-0.1-1.3-0.3-2.9-0.6-4.5c0-2.3-0.1-4.6-0.9-6.9c-0.1-0.3-0.5-0.2-0.5,0.1c0,0.7,0,1.5,0.1,2.2
	c-0.7-1.5-1.6-2.8-2.8-3.6c-0.2-0.1-0.4-0.1-0.5,0.1c-1,2.3-0.2,4.8,0.5,7.1c1.1,3.4,1.5,7.2,3.3,10.3c0,0,0,0,0,0
	c0.1,0.6,0.1,1.2,0.2,1.8c0,0.2,0.2,0.3,0.3,0.3c0.1,1.8,0.2,3.6,0.3,5.3c-1.1-2.8-2.3-5.6-3.6-8.3c0.1,0.1,0.3,0,0.2-0.2
	c-0.3-0.7-0.8-1.4-1.3-2.1c-1.2-2.3-2.4-4.5-3.8-6.7c0.2,0,0.2-0.2,0.1-0.3c-0.2-0.1-0.3-0.2-0.5-0.3c-0.1-0.1-0.1-0.2-0.2-0.3
	c0.1-0.1,0.1-0.2,0.1-0.3c-1.9-5.3-5.3-11.3-10.8-13.5C6.8,8.5,6.6,8.6,6.6,8.8c0,0.4,0.1,0.8,0.2,1.2C6.2,9.9,5.7,9.8,5.1,9.8
	C5,9.8,4.9,9.9,4.9,10c0.2,6.3,7.5,10.3,12.6,12.9c1,1.7,2,3.4,2.9,5.1c-1-1-2.2-1.8-3.4-2.3c-0.1-0.1-0.1-0.2-0.2-0.3
	c-0.4-0.5-1.3-0.8-1.6,0C15,25.5,15,25.7,15,25.8c-0.1,0-0.1,0.1-0.1,0.2c0,0,0.1,0,0.1,0.1c0.1,0.5,0.4,0.9,0.9,1
	c0.1,0,0.2-0.1,0.1-0.2c-0.1-0.1-0.2-0.2-0.3-0.4c0.3,0.1,0.6,0.2,0.8,0.1c0.3,0,0.5-0.2,0.5-0.4c1.5,0.8,2.9,1.9,4.1,3.2
	c1.6,3.2,3,6.4,4.3,9.7c-3.7-3.9-6.6-11.2-12.8-11.4c-0.1,0-0.1,0-0.1,0c-0.4,0-0.8-0.1-1.3,0c-0.2,0-0.3,0.2-0.2,0.3
	c0.8,2.9,3.2,4.7,5.6,6.3c2.7,1.8,8,3.6,9.4,6.6c0.1,0.2,0.3,0.1,0.3,0c1.1,2.8,2.1,5.5,3.1,8.3c-0.4-0.6-0.8-1.1-1.2-1.7
	c-0.8-1.1-2-2.5-3.4-3.1c-0.1-0.9-1.6-1.7-2.3-1.1c-0.2,0.1-0.2,0.3-0.3,0.4c0,0,0,0,0,0.1c-0.3,0.9,0.4,1.9,1.3,1.9
	c0.6,0,1.1-0.3,1.3-0.8c2.1,0.9,3.9,3.4,5.1,5.7c0.5,1.3,1,2.6,1.4,4c2.7,7.4,6,14.6,9.3,21.8c-0.7-0.8-1.5-1.4-2.3-2.1
	c0-0.1,0-0.1,0-0.2c-0.4-0.3-0.7-0.6-1.1-0.9c0-0.1,0.1-0.2,0-0.2c-0.9-0.8-1.3-2-1.7-3.1c-0.2-0.5-0.3-1-0.4-1.5
	c0,0,0.1,0.1,0.1,0.1c0.1,0.1,0.3,0.1,0.4-0.1c0.3-0.7,0.2-2-0.8-1.9c-0.3,0-0.6,0.3-0.7,0.6c-0.1,0.5,0.2,1,0.5,1.3
	c0.1,0.6,0.3,1.2,0.4,1.5c0.1,0.5,0.3,1.1,0.6,1.6C33.4,69.2,32,66,30.8,63c0,0,0.1-0.1,0.1-0.1c0.6-0.7,0.2-1.9-0.4-2.5
	c-0.3-0.3-0.8-0.4-1.2-0.3c-0.8,0.2-0.6,1.1-0.6,1.7c0,0.5,0.3,1.1,0.9,1.1c0,0,0,0,0.1,0c0.2,0.2,0.4,0.4,0.7,0.3
	c1.3,3.3,2.8,6.8,5.3,9.4c-1.4-1-2.8-1.9-4.2-2.8c0.1-0.1,0.1-0.2,0-0.2c-0.2-0.1-0.4-0.2-0.7-0.3c-0.3-0.2-0.6-0.4-0.8-0.6
	c-1-0.8-2-1.6-2.9-2.5c0,0,0,0,0,0c-0.8-1.4-1.5-2.9-2-4.4c0-0.1,0-0.1,0-0.2c-1.1-3-1.9-6.2-3.3-9.1c0,0-0.1-0.1-0.1-0.1
	c-0.5-1.3-1.2-2.5-1.9-3.8c-0.1-0.2-0.3-0.1-0.4,0c-0.3-0.3-0.6-0.6-0.9-0.9c-0.1-0.1-0.3,0-0.4,0.1c-2.3,4.4,3.4,10.9,6.4,13.8
	c0.5,1.2,1,2.3,1.6,3.4c-2.8-2.9-5.2-6.2-8.1-9c0,0,0,0,0-0.1c-1.5-4.4-4.8-10.7-9.5-12.3c-0.2-0.1-0.5,0.1-0.4,0.3
	C8,44.6,8.1,45,8.2,45.4c-0.3-0.2-0.6-0.4-0.9-0.5c-0.2-0.1-0.4,0.1-0.4,0.3c0.6,3.9,4.5,9.5,8.9,10.5c0.3,0.3,0.6,0.7,1,1
	c0.2,0.2,0.6,0.1,0.6-0.2c0.1,0.1,0.2,0.1,0.3,0.1c3.2,3.2,6,6.7,9.1,9.9c0,0,0,0,0,0.1c0,0,0,0,0.1,0c0.2,0.2,0.5,0.5,0.7,0.7
	c0.1,0.1,0.3,0.3,0.4,0.4c-0.1-0.1-0.3-0.2-0.4-0.3c-2.4-2.3-4.9-4.5-7-7.1c-0.1-0.1-0.3,0-0.2,0.2c1.4,2,3.1,3.9,4.9,5.6
	c-0.1-0.1-0.2-0.1-0.3-0.2c0,0,0,0,0,0c-0.2-0.1-0.3-0.2-0.5-0.3c-4.3-2.6-9.4-5.3-13.6-3.3c-0.2,0.1-0.2,0.3-0.1,0.4
	c0.2,0.3,0.4,0.5,0.6,0.7c-0.1,0-0.1,0-0.2,0c-0.2,0-0.2,0.3-0.1,0.4c3.9,3.5,9.7,3.8,15,4.8c0.5,0.1,1.1,0.3,1.6,0.4
	c0.1,0,0.1,0,0.2,0c0.2,0.1,0.5,0.1,0.7,0.2c0.4,0.3,0.8,0.6,1.1,0.9c0.1,0.1,0.3-0.1,0.2-0.2c-0.2-0.2-0.3-0.3-0.5-0.5
	c0.2,0,0.3,0.1,0.5,0.1c0.8,0.7,1.7,1.3,2.5,2c-1.4-0.3-3-0.3-4.4,0.2c0-0.1-0.1-0.1-0.1-0.2c-0.4-0.4-1.1-0.4-1.5,0
	c-0.5,0.5-0.2,1.3,0.4,1.6c0.1,0,0.2-0.1,0.2-0.2c-0.1-0.3-0.4-0.7-0.2-1c0.2-0.2,0.5-0.3,0.7-0.1c0,0,0,0,0,0
	c-0.1,0.1-0.3,0.1-0.4,0.2c-0.3,0.1-0.1,0.5,0.2,0.4c0.1-0.1,0.3-0.1,0.4-0.2c0,0.4-0.1,0.8-0.3,1c-0.5,0.5-1.3-0.3-1.5-0.7
	c-0.1-0.2-0.4,0-0.3,0.2c0.3,0.6,1.3,1.5,2,1c0.4-0.3,0.6-1,0.5-1.6c1.9-0.6,3.8-0.3,5.6,0.4c1.2,0.9,2.4,1.7,3.5,2.6
	c-1.8,0.4-3.6,0.7-5.4,1c-0.4-0.1-0.8-0.2-1.2-0.3c-2.6-0.7-5.1-1.5-7.7-1.9c-1.2-0.2-4.1,0.2-4.6,1.2c-0.1,0-0.2,0.1-0.3,0.1
	c-0.2,0.1-0.2,0.3-0.1,0.4c0.3,0.5,0.9,0.9,1.5,1.1c0,0,0.1,0,0.1,0.1c4,2.5,8.6,1.4,12.7,0.1c0.2,0.1,0.4,0.1,0.6,0.2
	c0.3,0.1,0.4-0.2,0.3-0.5c0.2-0.1,0.5-0.1,0.7-0.2c1.2-0.3,2.5-0.6,3.7-1c1.4,1.1,2.7,2.3,3.9,3.7c2.3,5,4.6,10,6.8,15.1
	c0.1,0.3,0.5,0.1,0.4-0.2c-1.4-3.7-3-7.4-4.6-11c0,0,0,0,0,0c-0.8-2.5-0.5-4.9,0-7.2c0.1,0.4,0.2,0.9,0.4,1.3
	c0.1,0.2,0.4,0.3,0.5,0.1c1.4-1.3,2.2-3.2,2.7-5.2c0.6-1.5,1.1-3.3,1.3-5C49.7,64.7,50,61.9,48.9,60.2z M40.5,45.9
	c0.7-0.3,1.5,0.5,1.8,1.8c0.3,1.6,0.3,3.4,0.1,5.1c-0.2-0.5-0.4-0.9-0.8-1.4c0-0.1-0.1-0.1-0.1-0.1C41.5,49.5,41.5,47.3,40.5,45.9z
	 M38.9,51.7c0.1-1.5,0.3-3.1,0.8-4.5c0.1-0.3,0.2-0.5,0.3-0.7c0.2,0.5,0.5,1,0.5,1.2c0.2,0.8,0.2,1.7,0.3,2.5c0,0.5,0,1,0,1.5
	c-0.9,1-1.6,2.4-2.1,3.9C38.7,54.2,38.9,52.9,38.9,51.7z M39.1,57.6c0.1-0.6,0.8-3.4,1.5-4.5c-0.1,1-0.2,1.9-0.4,2.8
	c-0.1,0.6-0.4,1.4-0.7,2.1c-0.1,0-0.2,0.1-0.2,0.2c0,0.2-0.1,0.4-0.1,0.7c0,0,0,0,0,0.1c-0.1-0.1-0.2-0.2-0.3-0.2
	C39.1,58.2,39.1,57.8,39.1,57.6z M39.7,59.9c1.2-2.1,1.5-5,1.6-7.2c0.2,0.1,0.3,0.4,0.5,1c0.1,0.5,0.1,1.1,0.1,1.6
	c-0.1,0.6-0.3,1.3-0.4,1.9c0,0,0,0.1,0,0.1C41,58.6,40.4,60,40,61.2c0,0.1,0,0.1,0,0.2c-0.2,0.4-0.4,0.6-0.5,0.6
	C39.6,61.3,39.7,60.6,39.7,59.9z M35.5,56.3c0.1,0.1,0.2,0,0.2-0.1c0-0.2-0.1-0.3-0.1-0.5c0-0.1-0.2-0.2-0.3-0.1
	c-0.1,0-0.1,0.1-0.2,0.1c0-0.3-0.1-0.6,0-0.9c0.7,0.3,0.7,1.1,0.6,1.8c-0.2-0.1-0.4-0.2-0.5-0.4C35.3,56.2,35.3,56.2,35.5,56.3z
	 M33,40.9c-0.2,1.7-0.4,3.3-0.6,5c0-1.4,0.1-2.8,0.2-4.2c0.2-0.6,0.4-1.2,0.6-1.8C33,40.2,33,40.6,33,40.9z M30.9,31.7
	c0-0.4,1.4-5.1,2.1-3.5c0.3,0.7,0.3,1.6,0.4,2.3c0.1,1.6,0.1,3.1,0,4.7c-0.2,1.4-0.4,2.8-0.7,4.1c0,0,0,0,0,0.1
	c0.2-2.3,0.4-4.7,0.6-6.9c0-0.2-0.3-0.3-0.4-0.1c0,0.2-0.1,0.5-0.1,0.7c0-1.3,0.1-2.6,0.2-3.9c0-0.3-0.4-0.4-0.5-0.1
	c-0.4,3.7-0.3,7.4-0.6,11.1c-0.2,2-0.3,4-0.3,6C30.5,41.6,30.4,36.3,30.9,31.7z M24.4,26.9c-0.7-2.8-1.8-5.5-2.2-8.3
	c-0.5-3.6,2.3,0.5,2.5,1.1c0.4,0.9,0.7,1.9,0.9,2.9c0.2,1.5,0.4,3,0.6,4.4c0,0,0,0,0,0c0.1,1.4,0.1,2.7,0.1,4.1
	c-0.1-0.5-0.2-1-0.3-1.5c0-0.5-0.1-1-0.1-1.4c-0.2-3.3-0.8-6.4-2.4-9.4c-0.1-0.2-0.4-0.1-0.4,0.1c-0.1,0.7-0.1,0.5,0,1.2
	c0,0.2,0.4,0.2,0.4,0c0.5,0.2,0.8,0.7,0.7,1.4c0.7,1.7,0.8,3.6,1,5.4c0,0.2,0,0.3,0,0.5c-0.1,0-0.3,0.2-0.2,0.3
	c-0.1-0.4,0.3,2.1,0.5,3.4c0,0.2,0,0.4,0.1,0.6C25,30.2,24.7,28.3,24.4,26.9z M14.2,17.6c-0.1-0.1-0.2,0-0.2,0.1
	c0.1,0.1,0.1,0.2,0.2,0.3c-1.6-1.5-3.4-3-4.9-4.6C9.1,13.1,8.4,12,7.9,11c2.3,1.2,4.1,3.6,5.6,5.5c0.7,0.9,1.3,1.8,1.9,2.8
	C15,18.7,14.6,18.2,14.2,17.6z M15.9,20.5c-0.8-0.7-1.6-1.3-2.4-2c0.1,0.1,0.2,0,0.2-0.1C14.5,19.1,15.2,19.8,15.9,20.5z M7.5,9.4
	c1.9,0.8,3.4,2.5,4.7,4.1c0.7,0.8,1.3,1.8,1.9,2.7c-1.8-2.5-4-4.8-6.5-5.8C7.4,9.7,7.2,9.3,7.5,9.4z M11.3,18.4
	c-1.5-1.1-2.8-2.3-4-3.7c-0.5-0.5-3.7-5.3-0.6-4.3c0.1,0,0.2,0.1,0.2,0.1c0.6,1.7,1.7,3.2,3.1,4.6c0,0,0,0-0.1,0
	c-0.1-0.1-0.2-0.2-0.3-0.3c-0.5-0.5-0.9-0.9-1.4-1.4C8,13.2,7.7,13.6,8,13.8c0.6,0.6,1.2,1.1,1.8,1.7c0.2,0.3,0.5,0.5,0.6,0.7
	c2.1,2.1,4.4,4,6.6,5.9C15,21,13.1,19.8,11.3,18.4z M16.7,26.3c-0.1,0.1-0.4,0-0.5,0c-0.2,0-0.5-0.1-0.7-0.2c0-0.1,0-0.2,0-0.3
	c0.1-0.4,0.3-0.4,0.6-0.3c-0.1,0.1-0.2,0.3,0,0.4c0.2,0.1,0.4,0.1,0.6,0.2C16.7,26.2,16.7,26.2,16.7,26.3z M13.1,31.1
	c-0.6-0.7-1.1-1.4-1.5-2.2c-0.2-0.3,0.1-0.4,0.6-0.3C12.3,29.4,12.6,30.3,13.1,31.1z M21.8,37.1c-0.2-0.1-0.5-0.3-0.7-0.4
	c0,0-0.1,0-0.1,0c0-0.1,0-0.2-0.1-0.2c-1.4-1-2.9-2-4.4-3.1c-1-0.8-3.8-3.8-3.3-4.5c1.2,0.4,2.7,1.1,2.8,1.2c1.5,1.1,2.8,2.6,4,4
	c0.6,0.6,1.1,1.3,1.6,2c-2-1.8-4.1-3.5-5.9-5.3c-0.1-0.1-0.4,0.1-0.3,0.3C17.5,32.9,19.6,35.1,21.8,37.1z M23.6,44.9
	c0.1,0,0.3,0,0.4,0.1c-0.1,0.2-0.3,0.3-0.5,0.3c0,0,0,0,0,0c-0.1-0.1-0.2-0.3-0.3-0.5c-0.1-0.2-0.3-0.1-0.2,0.1c0,0,0,0.1,0,0.1
	c-0.2-0.1-0.3-0.2-0.4-0.4c-0.1-0.2-0.1-0.6,0.2-0.7c0.3-0.1,0.8,0.2,1,0.5c-0.1,0-0.1,0-0.2,0C23.4,44.4,23.3,44.9,23.6,44.9z
	 M34.6,67.3c0,0,0.1,0,0.1,0c0.5-0.1,0.5,0.5,0.4,0.9C35.1,68.1,35,68.1,35,68c0-0.1,0-0.2-0.1-0.3c0-0.1-0.1-0.1-0.2-0.1
	c0,0,0,0,0,0C34.7,67.5,34.6,67.4,34.6,67.3z M30,61.8c0,0.1,0.1,0.2,0.1,0.3c0,0-0.1,0-0.1,0.1c-0.1,0.1-0.2,0.2-0.4,0.2
	c-0.1-0.2-0.2-0.4-0.3-0.6c0,0,0.1,0,0.1,0c0.1-0.1,0.2-0.2,0.3-0.3c0,0,0.1,0,0.1-0.1C30,61.5,30,61.7,30,61.8z M29.3,61.5
	c0-0.1,0-0.2-0.1-0.3c0,0,0-0.1-0.1-0.1c0-0.3,0.1-0.5,0.3-0.6c0.3-0.1,0.6,0,0.8,0.2c0.2,0.3,0.4,0.7,0.4,1.1c0,0-0.1-0.1-0.2,0
	c0.2,0,0.2,0.2,0.1-0.1c0-0.1-0.1-0.2-0.1-0.3c-0.1-0.2-0.1-0.4-0.3-0.5C29.8,60.5,29.4,61.1,29.3,61.5z M20.1,51.2
	c0.1,0.2,0.2,0.4,0.2,0.4c0.6,1.1,1,2.3,1.4,3.5c0.2,0.5,0.3,1,0.5,1.5C21.4,54.8,20.6,53,20.1,51.2z M22.7,59.1
	c-0.6-0.7-1.2-1.5-1.7-2.3c-1.5-2.1-3.1-4.8-2.9-7.5c0.1-0.8,0.6-0.2,1.2,0.6C19.4,53.1,21.4,56.2,22.7,59.1z M24.2,61.2
	c0.1,0.3-0.3-0.5-0.7-1.1c0.1,0,0.2-0.1,0.2-0.3c0-0.1,0-0.1,0-0.2C23.8,60.1,24,60.7,24.2,61.2z M7.6,45.6c0,0.2,0.5,0.6,1,1
	c1.3,3.2,3.8,5.8,6.3,8.2C11.4,53.2,8.5,49.1,7.6,45.6z M9.6,47.4c0.4,0.3,0.6,0.5,0.7,0.6c0.9,1,1.7,2.1,2.5,3.2
	c0.5,0.7,1.1,1.5,1.6,2.3c-0.7-0.7-1.5-1.5-2.2-2.3C11.2,49.9,10.3,48.7,9.6,47.4z M16.1,54.7c-2.2-3.1-4.1-6.6-7.1-8.8
	c0-0.1,0-0.1-0.1-0.2c-0.8-2.1,0.2-0.9,1.1-0.3c3.1,2.2,5.4,6.3,6.9,9.9C16.6,55.1,16.3,54.9,16.1,54.7z M13.9,62.2
	c0.1,0,0.1,0,0.2,0c-0.1,0.1-0.1,0.3,0,0.4c0.2,0.2,0.4,0.3,0.6,0.5c-1-0.1-1.9-0.1-2.9,0.1C10.3,62.2,13.6,62.2,13.9,62.2z
	 M20.7,67c-2-0.4-4-0.8-6-1.5c-0.1,0-1.3-0.7-2.1-1.2c1,0.6,2.3,0.9,3.4,1.2c1.6,0.5,3.2,1,4.8,1.5C20.8,67,20.7,67,20.7,67z
	 M25,67.8c-1-0.3-1.9-0.6-2.8-0.9c-2-0.7-4-1.4-6.1-1.9c-1.3-0.3-2.4-0.7-3.5-1.3c0.8-0.1,1.7,0,2.5,0.1c0.3,0,0.6,0.1,0.9,0.2
	c2.7,1.8,6,2.8,9.2,3.7c0.2,0.1,0.4,0.2,0.6,0.3C25.4,67.9,25.2,67.8,25,67.8z M24.9,66.9c-2.8-1.5-5.8-3-8.9-3.6
	c-0.3-0.2-0.6-0.4-1-0.7c0.4,0.3,2.7,0.6,3.5,0.8c0.1,0.1,0.3,0.1,0.4,0.2c2.4,1,4.6,2.3,6.8,3.5C25.5,67.1,25.2,67,24.9,66.9z
	 M19.7,74.5c1.5-0.7,4-0.1,6,0.5c-0.5,0-1.1-0.1-1.6-0.1c-1.2,0-3.4-0.2-4.9,0.1C19.2,74.8,19.4,74.7,19.7,74.5z M26.3,77.6
	c-1.1-0.1-2.3-0.2-3.4-0.4c0,0,0,0,0,0c0.7,0,1.4,0,2,0c1.8,0,3.6-0.1,5.4-0.3C29,77.4,27.7,77.7,26.3,77.6z M26.4,76.7
	c-1.8,0.1-3.6,0.1-5.4-0.2c-0.1,0-0.3,0-0.4,0c-0.4-0.2-0.7-0.3-0.9-0.5c0.4-0.1,1.3-0.3,2.1-0.3c2.7-0.2,5.2,0.1,7.8,0.6
	c0.2,0,0.4,0.1,0.6,0.1C29,76.5,27.7,76.6,26.4,76.7z M48.5,62.7c0.3,3.6-0.8,7.6-2.3,10.8c-0.8,1.7-1.2,1-1.4,0
	c0.1-0.6,0.3-1.3,0.4-1.9c0.1,0,0.2-0.1,0.3-0.2c0.1-0.6,0.1-0.5,0.1-1.1c0-0.1-0.1-0.2-0.1-0.2c0-0.2,0-0.4,0.1-0.6
	c0.1-1.3,0.4-2.7,0.9-4c0,0.6-0.1,1.1-0.1,1.4c-0.1,2.1-0.5,4.1-0.5,6.1c0,0.2,0.4,0.2,0.4,0c0.4-3.1,1.1-6.1,0.8-9.2
	c0.1-0.3,0.2-0.5,0.4-0.8c0.4-0.8,0.7-1.3,0.9-1.5C48.3,61.7,48.4,62.1,48.5,62.7z"/>
</svg>
