<?xml version="1.0" encoding="utf-8"?>
<!-- Generator: Adobe Illustrator 23.0.3, SVG Export Plug-In . SVG Version: 6.00 Build 0)  -->
<svg version="1.1" id="Слой_1" xmlns="http://www.w3.org/2000/svg" xmlns:xlink="http://www.w3.org/1999/xlink" x="0px" y="0px"
	 viewBox="0 0 512 512" style="enable-background:new 0 0 512 512;" xml:space="preserve">
<style type="text/css">
	.st0{fill:#FFFFFF;}
</style>
<path class="st0" d="M256,67c-77.5,0-151-6.9-179.1,65.2C65.2,162,66.9,200.6,66.9,256c0,48.6-1.6,94.3,9.9,123.8
	c28,72.1,102.2,65.2,179.1,65.2c74.2,0,150.7,7.7,179.1-65.2c11.6-30.1,9.9-68.2,9.9-123.8c0-73.9,4.1-121.5-31.7-157.3
	C376.9,62.4,327.9,67,256,67L256,67z M239,101c161.6-0.3,182.1-18.2,170.8,231.3c-4,88.3-71.2,78.6-153.8,78.6
	c-150.6,0-154.9-4.3-154.9-155C101,103.5,113,101.1,239,101L239,101z M356.9,132.4c-12.5,0-22.7,10.2-22.7,22.7
	c0,12.5,10.2,22.7,22.7,22.7c12.5,0,22.7-10.2,22.7-22.7C379.5,142.6,369.4,132.4,356.9,132.4z M256,158.9
	c-53.6,0-97.1,43.5-97.1,97.1s43.5,97.1,97.1,97.1s97-43.5,97-97.1S309.6,158.9,256,158.9L256,158.9z M256,193
	c83.3,0,83.4,126,0,126C172.7,319,172.5,193,256,193z"/>
</svg>
