<?xml version="1.0" encoding="utf-8"?>
<!-- Generator: Adobe Illustrator 22.0.0, SVG Export Plug-In . SVG Version: 6.00 Build 0)  -->
<svg version="1.1" id="Capa_1" xmlns="http://www.w3.org/2000/svg" xmlns:xlink="http://www.w3.org/1999/xlink" x="0px" y="0px"
	 viewBox="0 0 374.9 232.9" style="enable-background:new 0 0 374.9 232.9;" xml:space="preserve">
<style type="text/css">
	.st0{fill:#931B1D;}
	.st1{fill:#F16622;}
	.st2{fill:#F7981D;}
	.st3{fill:#CB2026;}
	.st4{fill:#FFFFFF;}
</style>
<path class="st0" d="M112.5,7C52.7,7.3,4.3,56.1,4.3,116.1c0,60.2,48.8,109.1,108.9,109.1c28.2,0,53.9-10.8,73.3-28.4l0,0h0
	c4-3.6,7.7-7.5,11.1-11.7h-22.3c-3-3.6-5.7-7.4-8.1-11.2h38.5c2.4-3.7,4.5-7.6,6.4-11.7h-51.2c-1.7-3.7-3.3-7.6-4.6-11.5h60.3
	c3.6-10.9,5.6-22.5,5.6-34.6c0-8-0.9-15.8-2.5-23.4H153c0.8-3.9,1.9-7.7,3.1-11.5h60.3c-1.3-4-2.9-7.9-4.7-11.7h-51
	c1.8-3.9,3.9-7.8,6.2-11.5h38.5c-2.6-4.1-5.4-8-8.4-11.7h-21.4c3.3-3.9,7-7.6,10.9-11C167.1,17.7,141.4,7,113.2,7
	C113,7,112.7,7,112.5,7z"/>
<path class="st1" d="M368.2,116.1c0,60.3-48.7,109.1-108.9,109.2c-60.1,0-108.9-48.8-108.9-109.1v0C150.4,55.8,199.1,7,259.3,7
	C319.4,6.9,368.2,55.8,368.2,116.1C368.2,116.1,368.2,116.1,368.2,116.1z"/>
<path class="st2" d="M368.2,117.3c0,60.3-48.7,109.2-108.9,109.2c-60.1,0-108.9-48.8-108.9-109.1v-0.1
	c0-60.3,48.7-109.2,108.9-109.2C319.4,8.1,368.2,57,368.2,117.3C368.2,117.3,368.2,117.3,368.2,117.3z"/>
<path class="st3" d="M112.5,8.2C52.7,8.6,4.3,57.3,4.3,117.3c0,60.3,48.8,109.1,108.9,109.1c28.2,0,53.9-10.8,73.3-28.4l0,0h0
	c4-3.6,7.7-7.5,11.1-11.7h-22.3c-3-3.6-5.7-7.4-8.1-11.2h38.5c2.4-3.8,4.5-7.7,6.4-11.7h-51.2c-1.7-3.8-3.3-7.6-4.6-11.5h60.3
	c3.6-10.9,5.6-22.5,5.6-34.6c0-8-0.9-15.8-2.5-23.4H153c0.8-3.9,1.9-7.7,3.1-11.5h60.3c-1.3-4-2.9-7.9-4.7-11.7h-51
	c1.8-3.9,3.9-7.8,6.2-11.5h38.5c-2.6-4.1-5.4-8-8.4-11.7h-21.4c3.3-3.9,7-7.6,10.9-11C167.1,19,141.4,8.2,113.2,8.2
	C113,8.2,112.7,8.2,112.5,8.2z"/>
<g>
	<path class="st4" d="M152.4,145.1l1.5-9.9c-0.8,0-2,0.3-3,0.3c-4,0-4.5-2.1-4.2-3.7l3.3-20.2h6.1l1.5-10.9h-5.8l1.2-6.8h-11.6
		c-0.3,0.3-6.8,38.2-6.8,42.8c0,6.8,3.8,9.9,9.2,9.8C147.9,146.6,151.2,145.4,152.4,145.1z"/>
	<path class="st4" d="M156,126.3c0,16.4,10.8,20.3,20,20.3c8.5,0,12.2-1.9,12.2-1.9l2-11.2c0,0-6.5,2.9-12.3,2.9
		c-12.4,0-10.3-9.3-10.3-9.3h23.6c0,0,1.5-7.5,1.5-10.6c0-7.7-3.8-17-16.5-17C164.7,99.5,156,112.1,156,126.3z M176.4,109.9
		c6.5,0,5.3,7.4,5.3,8h-12.9C168.8,117.1,170,109.9,176.4,109.9z"/>
	<path class="st4" d="M249.8,145.1l2.1-12.7c0,0-5.7,2.9-9.6,2.9c-8.2,0-11.5-6.3-11.5-13.1c0-13.7,7.1-21.3,15-21.3
		c5.9,0,10.6,3.3,10.6,3.3l1.9-12.3c0,0-7-2.9-13.1-2.9c-13.4,0-26.4,11.6-26.4,33.5c0,14.5,7,24.1,20.9,24.1
		C243.6,146.7,249.8,145.1,249.8,145.1z"/>
	<path class="st4" d="M88.6,99.7c-8,0-14,2.6-14,2.6l-1.7,10c0,0,5-2,12.6-2c4.3,0,7.5,0.5,7.5,4c0,2.1-0.4,2.9-0.4,2.9
		s-3.4-0.3-5-0.3c-10,0-20.6,4.3-20.6,17.2c0,10.2,6.9,12.5,11.2,12.5c8.2,0,11.7-5.3,11.9-5.3l-0.4,4.4H100l4.6-32
		C104.5,100.1,92.7,99.7,88.6,99.7z M91.1,125.7c0.2,2-1.2,11.1-8.2,11.1c-3.6,0-4.5-2.8-4.5-4.4c0-3.2,1.7-7,10.2-7
		C90.5,125.4,90.7,125.7,91.1,125.7z"/>
	<path class="st4" d="M115.4,146.3c2.6,0,17.5,0.7,17.5-14.8c0-14.4-13.8-11.6-13.8-17.4c0-2.9,2.3-3.8,6.4-3.8
		c1.6,0,7.9,0.5,7.9,0.5l1.5-10.3c0,0-4.1-0.9-10.7-0.9c-8.6,0-17.3,3.4-17.3,15.2c0,13.3,14.5,12,14.5,17.6c0,3.7-4.1,4-7.2,4
		c-5.4,0-10.3-1.9-10.3-1.8l-1.5,10.2C102.6,145,105.6,146.3,115.4,146.3z"/>
	<path class="st4" d="M345.8,90.4l-2.5,15.6c0,0-4.4-6-11.2-6c-10.6,0-19.5,12.8-19.5,27.6c0,9.5,4.7,18.8,14.4,18.8
		c6.9,0,10.8-4.9,10.8-4.9l-0.5,4.1h11.3l8.9-55.3L345.8,90.4z M340.5,120.8c0,6.1-3,14.3-9.3,14.3c-4.2,0-6.1-3.5-6.1-9
		c0-9,4-15,9.1-15C338.3,111.1,340.5,114,340.5,120.8z"/>
	<path class="st4" d="M25.8,145.7l7.1-41.7l1,41.7h8L56.8,104l-6.6,41.7H62l9.1-55.3H52.8l-11.4,33.9l-0.6-33.9H23.9l-9.3,55.3H25.8
		L25.8,145.7z"/>
	<path class="st4" d="M204.5,145.8c3.4-19.2,4-34.9,12.1-32c1.4-7.4,2.8-10.3,4.3-13.5c0,0-0.7-0.2-2.2-0.2c-5.2,0-9,7.1-9,7.1
		l1-6.5h-10.8l-7.2,45H204.5z"/>
	<path class="st4" d="M276.5,99.7c-8,0-14,2.6-14,2.6l-1.7,10c0,0,5-2,12.6-2c4.3,0,7.5,0.5,7.5,4c0,2.1-0.4,2.9-0.4,2.9
		s-3.4-0.3-5-0.3c-10,0-20.6,4.3-20.6,17.2c0,10.2,6.9,12.5,11.2,12.5c8.2,0,11.7-5.3,11.9-5.3l-0.4,4.4h10.2l4.6-32
		C292.5,100.1,280.7,99.7,276.5,99.7z M279,125.7c0.2,2-1.2,11.1-8.2,11.1c-3.6,0-4.5-2.8-4.5-4.4c0-3.2,1.7-7,10.2-7
		C278.5,125.4,278.7,125.7,279,125.7z"/>
	<path class="st4" d="M301.8,145.8c3.4-19.2,4-34.9,12.1-32c1.4-7.4,2.8-10.3,4.3-13.5c0,0-0.7-0.2-2.2-0.2c-5.2,0-9,7.1-9,7.1
		l1-6.5h-10.8l-7.2,45L301.8,145.8L301.8,145.8L301.8,145.8z"/>
</g>
</svg>
