<?xml version="1.0" encoding="utf-8"?>
<!-- Generator: Adobe Illustrator 22.0.0, SVG Export Plug-In . SVG Version: 6.00 Build 0)  -->
<svg version="1.1" id="Capa_1" xmlns="http://www.w3.org/2000/svg" xmlns:xlink="http://www.w3.org/1999/xlink" x="0px" y="0px"
	 viewBox="0 0 371 121" style="enable-background:new 0 0 371 121;" xml:space="preserve">
<style type="text/css">
	.st0{fill:#293688;}
	.st1{fill:#F7981D;}
</style>
<g>
	<polygon class="st0" points="136.5,113.4 154.6,6.4 184,6.4 165.8,113.4 	"/>
	<path class="st0" d="M270.4,9.1C264.5,7,255.4,4.6,244,4.6c-29,0-49.5,14.5-49.6,35.3c-0.2,15.4,14.6,24,25.7,29.1
		c11.4,5.2,15.3,8.6,15.2,13.3c-0.1,7.2-9.1,10.5-17.6,10.5c-11.7,0-18-1.6-27.6-5.6l-3.8-1.7l-4.1,24c6.9,3,19.5,5.6,32.7,5.7
		c30.9,0,50.9-14.4,51.1-36.6c0.1-12.2-7.7-21.4-24.7-29.1c-10.3-4.9-16.5-8.3-16.5-13.3c0-4.4,5.3-9.2,16.8-9.2
		c9.6-0.1,16.6,1.9,22,4.1l2.6,1.2L270.4,9.1L270.4,9.1z"/>
	<path class="st0" d="M320.4,6.4c-7,0-12.1,2.1-15.2,9.1l-43.5,98h31.1l6-16.4H336l3.5,16.4H367L342.9,6.4L320.4,6.4L320.4,6.4
		L320.4,6.4z M307.1,75.6c2.4-6.2,11.7-29.9,11.7-29.9c-0.2,0.3,2.4-6.2,3.9-10.2l2,9.2c0,0,5.6,25.6,6.8,30.9L307.1,75.6
		L307.1,75.6z"/>
	<path class="st0" d="M82.9,79.8l-2.6-14.7C75,48,58.4,29.5,39.7,20.2l25.9,93.3h31.1L143.4,6.4h-31.1L82.9,79.8z"/>
</g>
<g>
	<path class="st1" d="M7.8,6.4v1.7c36.8,8.9,62.4,31.3,72.5,57L69.7,15.5c-1.8-6.8-7.2-8.9-13.5-9.1L7.8,6.4L7.8,6.4z"/>
</g>
</svg>
