<?xml version="1.0" encoding="utf-8"?>
<!-- Generator: Adobe Illustrator 23.0.3, SVG Export Plug-In . SVG Version: 6.00 Build 0)  -->
<svg version="1.1" id="Layer_1" xmlns="http://www.w3.org/2000/svg" xmlns:xlink="http://www.w3.org/1999/xlink" x="0px" y="0px"
	 viewBox="0 0 1080 1080" style="enable-background:new 0 0 1080 1080;" xml:space="preserve">
<g>
	<path d="M1067.5,499.2c0.4-1.7,0.4-3.9-1.3-5.6c-0.4-0.4-0.9-0.9-1.3-0.9c-0.4-9.5-1.7-19.5-3.9-29c-0.4-1.3-0.4-2.6-0.9-3.9
		c2.2-3.9,3.9-7.8,5.2-12.1c3.5-11.7,10.8-35.1,5.6-46.3c-5.6-12.1-23.4-9.5-33.8-13c-27.7-9.5-7.8-33.3-6.5-53.2
		c1.7-25.1-13-51.5-36.8-60.6c-10.4-3.9-22.1-3.5-29.4,6.1c-7.4,9.5-6.1,21.6-2.2,32c-6.9-5.6-13.8-10.8-21.2-16
		c-6.5-10.8-12.5-21.6-23.8-28.1c-7.4-4.3-17.7-6.1-25.5-1.3c-3.5-1.7-6.9-3.5-10.8-5.2c-23.4-11.3-48-21.2-73.1-29.9
		c-4.8-3-10-5.6-15.1-7.4c-5.2-2.2-10-2.6-14.7-2.6c-37.2-11.7-75.3-21.2-113.4-28.1c-0.9-2.2-1.7-4.3-3.5-6.5
		c-7.8-10.4-21.2-14.7-33.8-15.1c-6.5-0.4-13.4,2.6-19.9,2.2c-9.5-0.4-12.1-8.7-19.5-13.4c-10.4-7.4-24.2-8.2-36.4-5.2
		c-13,3.5-22.1,11.3-28.6,21.2c-15.1-0.4-30.7-0.9-46.3-0.4c-7.4-16.9,11.7-33.3,3.9-52.4c-4.8-11.7-17.3-13.8-27.7-9.1
		c-16.4,7.4-31.2,50.2-51.1,29c-8.7-9.5-8.7-24.7-22.5-29.9c-13.4-4.8-35.5,4.8-46.3,12.5c-13.4,10-14.7,22.1-16,37.6
		c-0.4,9.1-2.6,39.4-26.8,19.5c-9.5-7.8-11.3-19.5-11.7-30.7c0-7.4,2.6-16.9,0-23.8c-5.6-16.4-21.6-6.1-34.2-8.7
		c-1.7-0.4-3.9,0.4-3.9,2.6c0,6.9,0,14.3,0,21.2c0,6.5,2.2,19-0.4,24.7c-4.3,9.5-14.3,1.7-20.8-3c-3.5-2.6-6.9-5.2-11.3-6.9
		c-15.6-7.4-35.1-6.5-51.1,0c-30.3,12.5-35.9,48-26,75.7c-21.6-0.4-39.8,18.2-34.6,41.5c2.6,12.1,10.8,20.8,22.1,26
		c-24.7,21.6-46.7,45.9-66.2,73.6c-12.1,17.3-22.1,35.9-30.7,55.4c-3,6.5,8.2,12.1,11.7,5.6c1.3-2.2,2.6-4.8,3.9-6.9
		c-0.9,2.6-1.3,5.2-2.2,7.4c-5.6,22.5-6.5,45-3.5,67.1c-0.4,0.4-1.3,1.3-1.7,1.7c-0.4,0.4,0,0.9,0.4,0.9c0.4-0.4,0.9-0.9,1.3-0.9
		C40.1,569.3,80.4,626,131,665.4c78.8,61,178.3,84.4,274.8,98.7s195.2,23.4,292.5,15.6c90-7.4,179.6-31.2,254-84
		c22.9-16,43.7-35.1,61-56.3c-17.3,45.9-38.1,90.4-65.8,132C892.7,854,813,913.3,716.1,937.1s-199.9,15.6-296.4-6.1
		c-49.8-10.8-100-23.8-146.7-44.1c-53.7-23.4-94.8-61.5-127.7-109.9c-33.8-49.3-61-103.9-82.7-159.7c-23.4-59.3-42.8-123.8-51.1-187
		c0-0.4-0.4,0-0.4,0c7.8,60.2,17.3,117.7,36.8,175.3c18.2,53.7,41.5,106,70.5,154.9c26.8,45.4,59.3,87.8,103.9,117.3
		c46.7,30.7,102.6,47.2,156.2,61.9c98.7,26.4,203.4,40.2,304.7,24.2c100-15.6,188.7-64,253.2-142.4
		c72.3-87.4,113.8-203.4,134.6-313.7C1072.3,503.1,1070.1,500.5,1067.5,499.2z M987.9,284.5c7.4,0.9,14.7,7.8,19.5,12.5
		c10.4,11.7,15.1,28.6,11.3,44.1c-1.7,6.9-5.2,13.4-7.4,19.5c-11.3-13.8-23.4-26.8-36.8-38.5c1.3-1.3,2.2-2.6,1.3-4.8
		c-1.3-3.9-2.2-7.4-3.5-11.3C967.5,294.9,972.7,287.6,987.9,284.5z M883.6,279.8c-3,12.1-2.6,26-21.6,15.6
		c-13-7.4-17.7-23.4-25.5-36.4C852.4,265.5,868,272,883.6,279.8z M758.1,233c-7.4,10.8-18.2,38.1-31.2,37.6c0.4-0.4,0.9-1.3,1.3-2.2
		c6.5-17.3-0.4-36.8-14.3-47.6C728.6,224.8,743.4,228.7,758.1,233z M683.2,214c-3.9,0.4-7.4,0.4-10.4-2.2
		C676.3,212.3,679.7,213.1,683.2,214z M624.4,184.1c8.2,0,14.7,1.7,19.5,5.6c-9.5-1.7-18.6-3-28.1-4.3
		C618.7,184.6,621.3,184.1,624.4,184.1z M568.1,165.5c11.7,1.7,15.1,10.4,21.6,16.4c-6.9-0.9-13.8-1.7-20.8-2.2
		c-10.4-0.9-21.2-1.7-31.6-2.6C544.7,168.6,554.7,163.8,568.1,165.5z M522.2,228.7c0-10.8,1.7-24.2,6.5-35.9
		c42.4,2.2,84.8,7.4,126.4,15.6c0,0.4,0,0.9,0.4,0.9c2.2,7.8,3.9,14.3,12.1,17.7c9.1,4.3,19-0.9,28.6,1.3
		c15.6,3.9,22.9,21.6,18.2,35.9c0,0.4,0,0.4,0,0.9c-2.2,0.9-3.9,3-2.6,5.6c4.8,8.2,13,11.7,22.9,9.5c13.8-3,19.9-16.9,26-28.1
		c3.5-6.9,8.2-12.1,13.4-14.3c3.5,0.9,6.9,2.2,10.4,3c9.1,2.6,17.7,5.6,26.8,8.7c5.2,3.9,9.5,8.7,13.4,14.3
		c9.5,13.8,13.8,32,28.6,42c9.1,6.5,21.2,8.2,31.2,2.6c3.9-2.2,6.9-5.2,9.1-9.1c1.7-3.5,0.9-4.3,2.2-7.8c0.4-1.7,0.4-3.9,0.4-5.6
		c14.7,7.8,29,16.4,42.8,26c0,0.4,0.4,0.4,0.4,0.9c6.1,7.8,12.1,13.8,21.2,16c21.2,17.7,39.8,38.1,55,62.3
		c13.4,20.8,23.8,44.1,29.9,67.9c-4.3,6.5-8.7,13-7.8,19.5c0.9,6.9,7.4,13,13.4,18.2c0,0.9,0,1.3,0,2.2c-10,8.2-19,16.4-26.4,27.3
		c-10.8-3.5-22.1-6.5-33.3-7.8c17.7-24.7,15.6-63.2-0.9-87.4c-21.6-31.6-62.7-46.3-99.5-45c-28.6,1.3-73.1,13.4-89.1,41.1
		c-17.7-29.4-42.8-50.2-77.5-59.7c-19-5.2-39.4-5.6-59.3-2.2c0.4-0.9,0.9-2.2,0-3c-17.7-24.2-47.2-40.7-76.6-46.3
		c-13.8-2.6-28.6-3-42.4,0.4c-16,3.9-26.8,16-40.7,23.8c-1.7,0.9-0.4,3,1.3,2.6c13-5.6,24.2-15.6,38.1-19.5
		c13.4-3.9,28.6-3,42.4-0.4c30.3,5.2,53.7,20.8,74,42.8c0,0,0.4,0,0.4,0.4c-19,3.9-37.2,11.7-53.2,22.9
		c-7.4,5.6-13.8,11.3-18.6,17.7c-13.4-40.2-67.9-66.6-106.9-66.2c-18.6,0-36.8,4.8-53.7,13c2.6-4.8,2.2-12.1,1.3-16.9
		c-0.4-1.7-0.4-3.5-1.3-5.2c5.2,3.5,9.1,7.4,7.8,10.8c-0.4,0.9,1.3,1.3,1.3,0.4c3.5-7.8,1.7-13.4-4.8-18.6
		c-6.9-6.1-16-8.2-21.2-16.9c-4.8-8.7-3.9-18.2,0.9-24.7c1.7-0.4,3-1.7,3.5-3.5c3.9-3.5,9.1-5.2,15.6-4.3c4.8,0.4,7.4-5.2,5.6-9.1
		c-9.5-19-0.9-44.6,18.6-53.7s42.8,1.7,52.8,19.5C512.7,236.9,522.2,235.2,522.2,228.7z M794,573.2c3,6.1,7.8,10,12.5,14.3
		c3.5,3,7.8,5.6,11.3,9.1c6.9,6.9,10.8,11.3,0,16c-9.5,4.3-8.2,3-15.6-2.6c-2.6-2.2-5.2-4.3-7.8-6.5c-4.8-3.5-10-6.5-15.6-8.2
		c-10.8-3.5-22.9-2.2-34.2,0c-5.6,1.3-12.1,3-18.2,5.2c-1.7-19,12.5-36.4,28.6-45c13-6.9,26-7.4,39.8-8.7
		C790.1,555,789.7,564.5,794,573.2z M796.6,542.5c-31.6-15.1-84.4,23.8-73.6,58.9c-11.7,3.9-23.8,7.8-35.5,8.7v-0.4
		c0.9-13.8-2.6-25.1-8.2-35.1c10-26.4,42.8-43.3,68.8-47.2c16.4-2.6,33.3-1.3,49.3,2.6c2.6,0.9,5.6,1.7,8.2,2.6
		C802.6,535.1,799.6,538.6,796.6,542.5z M735.6,520c-20.8,5.6-54.5,23.8-60.6,48c-3.5-4.3-7.8-8.7-12.1-12.1
		c10-13.8,18.2-25.5,34.6-34.2c16.4-8.7,35.5-12.5,54.1-14.7c21.2-2.6,43.3-3,64,3c12.5,3.5,22.5,9.5,31.6,17.3
		c-9.1-2.2-18.2-3-26.8-0.9C795.7,513.5,758.9,513.5,735.6,520z M582.4,616c-23.4-6.5-46.3-9.5-68.4-21.6c-18.2-10-35.1-26-44.6-45
		c6.5,1.7,13.4,2.6,19.9,3.9c11.7,2.6,22.9,6.5,34.2,10.4c22.9,8.7,43.7,23.4,67.1,29.4h0.4C586.7,600.4,583.7,608.2,582.4,616z
		 M585,642.9c-8.7,0.4-17.3,5.6-23.8,13c-0.4,0.9-0.9,1.3-1.7,2.2c-2.2-15.6-10.8-29.4-22.9-40.2c14.3,5.2,29.9,7.8,44.6,8.2
		C581.9,631.2,582.8,637.2,585,642.9z M292.4,593.5c-6.9-1.3-11.3,1.7-17.7,2.6c-1.7,0.9-3.5,1.7-5.2,2.6
		c-5.6-2.6-10.8-5.2-16.4-7.8c0-0.4-0.9-1.7-1.3-3.5c8.2-4.3,14.7-13.4,13-24.2c-0.9-6.5-3-11.3-6.1-15.1c13-9.5,22.9-24.2,29-41.1
		c9.1,9.5,29.4,19.9,41.5,10.4c4.3,4.8,9.1,8.7,14.7,12.1c-5.6,0.4-10.8,1.3-15.1,4.3c-9.5,6.5-9.1,17.3-5.2,27.3
		c4.3,11.7,14.3,21.6,25.1,27.3c11.3,6.1,31.6,4.8,43.3,11.3c-26.8,12.1-50.6,30.7-65.8,52.8c-2.6,0-5.2,0.4-7.8,0.9
		C321.9,629,320.6,598.7,292.4,593.5z M476.4,191.9c1.7,1.3,3,3,5.2,4.3c-10-1.7-20.8-0.4-30.3,4.3c-22.9,11.7-31.2,38.1-26,61.5
		c-3.5,0.4-6.9,1.3-10,3c-10-36.8-48-50.6-85.7-52.8c46.7-12.5,95.2-19.5,144.5-20.3C474.6,191.9,475.5,191.9,476.4,191.9z
		 M405.4,272c-4.8,5.2-7.8,12.1-8.2,19.9c-0.4,9.1,3.5,18.6,9.5,25.1c2.2,2.6,8.2,5.6,14.3,8.7c0.9,3.9,1.3,7.8,0.9,12.1
		c-0.4,5.6-4.3,12.1-1.3,17.3c0.4,0.9,1.3,1.3,1.7,1.7c-3.5,1.7-6.5,3.9-9.5,6.1c-12.1,9.1-29,23.4-29,39.8
		c-5.6-6.5-12.5-11.7-19.9-15.6c-23.8-12.5-71.8-11.3-73.1,21.2c-3-8.2-7.4-16.4-12.1-23.8c-15.1-22.5-36.8-36.8-61-44.6
		c-5.6-48.9,15.1-97.8,67.1-110.4C324.9,219.6,395,221.4,405.4,272z M324.9,511.7c-5.2,0-10.4,1.3-15.6,0.9
		c-7.8-0.4-14.3-2.6-20.8-6.9l0,0c5.2-14.3,7.4-29.9,6.5-44.6c3-15.1,1.7-31.2-2.6-45.9c-0.9-22.1,25.1-28.6,41.5-27.3
		c10.8,0.9,21.2,5.2,29.9,11.3c9.5,6.9,17.7,16.4,21.2,27.7c3,10.4,0.9,17.7-3,26c-2.6-3-4.8-5.2-6.9-6.5
		c-23.4-13.4-51.9,3.5-57.6,28.1C314.9,488.4,318,501.3,324.9,511.7z M286.4,484.9c-0.9,4.3-2.2,8.7-3.5,13.4
		c-6.1,18.2-17.3,30.7-27.7,45.9c-13.4-11.7-37.2-9.1-55.4-4.3c1.3-4.8,2.2-10,3-15.1c30.3,10.4,65.8-10.8,81.8-36.4
		C285.1,487.1,285.5,485.8,286.4,484.9z M363.4,586.2c-6.9-2.2-12.5-5.6-17.7-10.4c-10-9.1-11.7-12.1-7.8-24.7
		c4.3-13.4,3.5-10,15.1-11.3c4.8-0.4,8.7-0.9,13-2.6s6.1-9.1,0.4-10.4c-20.3-4.8-39.4-19.5-39.4-42.8c0.4-27.7,31.6-42,51.9-21.6
		c14.3,14.3,24.7,37.2,48.9,27.7c1.7-0.9,2.6-3,2.2-4.8c-6.5-31.6,32.9-49.8,51.9-22.5c1.3,1.7,3.9,3,5.6,0.9
		c9.5-10.4,25.5-29,41.5-22.1c16.9,7.8,9.5,16.9,13,30.3c1.7,5.6,5.6,9.1,9.1,13.8c9.1,11.3,14.7,22.5,17.7,36.4
		c0.9,4.8,8.7,3,7.8-1.7c-3.5-14.3-10-25.1-19.5-36.4c-8.7-10.8-3.5,0.4-8.7-25.5c-0.4-1.7,0.4-3.5,0-5.2c-1.3-3.9-2.2-6.5-4.8-10
		c-18.2-21.6-43.7-3-58.4,12.1c-13.8-16.4-38.9-20.3-55-3c-3.5,3.9-6.5,8.7-8.2,13.8c-0.9,2.6-0.9,15.6-1.7,16
		c-8.2,6.9-21.6-9.5-32.5-22.9c10.8-6.9,10.4-24.2,6.9-35.9c-0.9-2.2-1.7-4.3-2.6-6.5c19-24.2,49.8-36.4,80.5-36.4
		c-12.1,16.9-16,38.9-12.5,59.3c0,1.3,2.2,0.9,2.2,0c-0.9-22.1,5.2-40.7,16-59.3c1.3,0,2.2,0,3.5,0c35.1,2.6,62.7,20.8,86.1,45.9
		c3.5,3.9,8.7-1.3,5.6-5.2c-23.4-30.7-61.5-51.1-100-51.1c-28.1,0-67.5,11.3-82.7,38.1c-0.4-20.8,29.9-38.5,45.9-45.9
		c18.2-8.2,38.5-11.3,58.4-8.7c18.6,2.6,36.8,10.4,51.9,21.6c15.1,11.7,22.9,27.3,34.2,42c-19.9,38.5-2.6,86.1,32,115.1
		c-4.3-0.9-8.7-1.7-13-2.6c-28.6-4.3-58.4-6.5-87-5.2c-15.6,0.9-32.5,3.5-42.4,15.6c-1.7,0-3.5,0-4.8,0.4c0,0,0,0,0-0.4
		c0-0.4-0.9-0.4-0.9,0l0,0c-2.6,0.4-4.8,0.9-6.9,2.2v0.4c2.6,2.2,5.6,3.5,8.7,4.3c4.8,17.3,14.3,31.6,26.8,43.3
		c-9.5-3.5-19-5.6-28.1-6.5c-21.6-2.2-45,2.2-67.1,11.3C389.8,588.3,375.1,590.1,363.4,586.2z M804.8,500
		c-17.7-3.5-36.8-3.5-51.9-1.7c-29,3-90.9,16-95.2,54.1c-1.3-0.9-3-2.2-4.8-3c0-0.9-0.4-1.7-1.3-2.2c-27.7-18.2-55.8-37.2-64-71.8
		c-8.2-36.4,10-65.3,41.5-82.2c57.6-30.7,129.8-12.1,170.1,38.1c-0.4,0.4-0.4,0.9-0.9,1.3C792.7,446.8,792.3,482.3,804.8,500z
		 M520.5,552.4c-11.3-3.5-28.1-9.5-42.8-10.8c30.3-13.4,73.1-4.8,103.9-0.9c33.3,3.9,77,14.3,90.4,46.7
		c-7.8-8.7-19.9-14.3-31.2-15.6c-17.7-2.2-32.5,4.3-43.3,14.7c-0.4-1.3-1.7-2.6-3.5-3C569.4,573.6,546,560.6,520.5,552.4z
		 M829.5,507.4c0-1.7-0.9-3-3-3.5c-17.3-2.2-16.9-30.3-16.9-42.8c-0.4-19.9,6.1-31.6,22.9-42.4c21.6-13.8,47.6-19.5,73.1-17.3
		c26.4,2.2,54.5,13.8,71,35.5c19.9,26,13,55-1.7,80.5c-9.5,0-19,1.7-28.6,5.2c-8.7,3.5-16,8.2-22.1,14.3c-1.7-6.9-5.2-13.4-10-19
		c-2.2-2.6-5.6-2.6-8.2-1.3c-12.1,5.2-21.6,12.5-30.7,21.6c-4.3-2.2-9.1-3.9-13.8-5.6C853.3,520.4,842.5,512.6,829.5,507.4z
		 M510.5,210.5c-6.5-6.5-14.7-11.3-23.4-13.4c1.7-0.9,3-3.5,2.6-5.6c8.7,0,16.9,0,25.5,0.4C513.1,198,511.4,204.5,510.5,210.5z
		 M118.5,286.7c-22.9-17.3-2.2-45,21.2-41.1c4.8,0.9,6.5-5.6,3.9-8.7c-22.9-30.3,1.7-76.6,38.5-77.5c16.9-0.4,27.3,7.4,40.2,16.4
		c7.8,5.2,13,7.8,22.1,6.9c1.7,0,3-2.2,3-3.9c3-17.7,2.6-36.4-0.9-54.1c1.7-0.4,3.5-0.4,5.6-0.9c3-0.9,6.1-1.3,8.7-1.7
		c4.8,4.3,9.1,8.7,13.8,12.5c3,6.9-1.3,20.8,0.9,29c3,12.1,12.1,24.7,25.5,26.4c10.8,1.3,18.6-6.1,21.6-16c3-10.4,0-21.6,6.1-31.6
		c6.1-10.4,22.9-18.2,34.6-19c27.7-2.6,21.2,23.4,39.4,33.8c11.7,6.9,23.4,0,31.6-8.7c6.5-6.9,15.6-26.4,26.4-25.5
		c3.5,3.5,6.5,6.5,10,10c-0.4,3.9-1.7,7.4-3,11.3c-1.3,4.3-3,8.7-3.9,13.4c-0.9,6.5-0.4,13,1.3,18.6
		c-121.6,4.3-243.6,39.8-336.3,116C125.8,291,121.9,289.3,118.5,286.7z M140.5,307.5c16,3.5,32.5,7.4,35.5,23.8
		c0.4,2.6,4.3,2.2,4.3-0.4c0.9-16.9-10.8-27.3-26-32.5c-0.4,0-1.3-0.4-1.7-0.4c22.5-17.3,46.3-32,71.4-45
		c-18.6,23.8-26,55.8-13,85.3c-38.5-10.4-82.2-4.3-118.1,14.3C107.6,336,123.7,321.3,140.5,307.5z M38.8,479.7
		c0-28.6,6.1-55.4,17.3-80.5c4.3-6.1,8.7-12.1,13.4-18.2c27.3-14.7,54.5-29.9,86.1-33.8c36.4-4.3,76.2,5.2,102.6,32
		c22.5,22.9,33.3,59.7,22.5,90.9c-12.1,34.6-43.7,48.5-77.5,50.6c1.7-14.7,0.9-29.4-7.4-42c-9.5-15.1-26.4-23.8-43.7-18.6
		c-2.2,0.4-3.9,2.6-4.3,4.8c-0.9,11.7-1.7,23.8-2.2,35.5c-0.4,5.2,0.9,13.4-0.9,17.7c-3,6.1-9.5,7.4-16.4,3.9
		c-13-6.5-19.9-22.1-33.3-28.6c-17.7-8.7-38.5-6.5-54.5,3.9C39.3,491.8,38.8,485.8,38.8,479.7z M230.1,705.2
		c-87.8-34.6-178.7-106.5-190-205.6c16.4-9.5,37.2-10.4,53.7,0c14.3,9.1,21.6,26.8,37.6,34.2c6.1,2.6,16.9,4.3,21.6-2.2
		c3.9-5.2,2.6-21.2,3-27.3c0.9-11.7,1.7-23.4,2.6-35.1c16.4-2.2,29.4,11.3,33.3,26.8c3.9,16.4-0.9,34.2-5.2,50.2
		c-0.9,3.9,2.2,9.1,6.9,7.4c12.1-4.3,25.1-9.5,38.1-6.9c6.1,0.9,14.3,3.5,17.7,9.1c0.9,5.6,2.2,10.8,3,16.4
		c-1.7,2.6-3.9,4.3-6.1,5.2c-5.2-5.2-12.1-6.9-19.5-3.5c-3.5,1.7-3.9,6.5-1.7,9.1c4.3,4.8,9.5,6.9,14.7,6.9
		c3.9,6.1,7.4,15.1,9.5,17.3c3.9,3.5,8.2,5.2,13.4,4.8c14.3-0.9,21.6-16.9,38.5-2.2c13,11.7,7.8,33.8,4.3,48.5
		c-0.9,4.3,2.2,9.1,6.9,7.8c17.7-4.8,36.4-2.2,51.5,8.2c16.9,11.7,22.9,30.7,32.9,47.6c7.4,13,18.6,24.2,32,28.6
		C360.8,742.8,293.3,730.3,230.1,705.2z M443.5,753.2c3.5-0.4,7.4-1.3,11.3-2.6c6.5-2.6,2.6-14.3-4.3-11.7
		c-39.4,13.4-50.2-49.3-72.3-69.2c-13.8-12.1-31.6-18.2-49.3-17.7c17.3-12.5,32.5-27.3,51.5-38.1c5.6-3.5,11.7-6.5,18.2-9.1
		c0,0,0,0.4,0.4,0.4c1.7,3,6.1,0.9,4.8-2.6c16.9-6.5,34.6-10.4,52.4-10c21.6,0.4,43.7,7.4,61.5,19.9c19.9,13.8,27.7,31.2,37.2,52.8
		c0,0.4,0.4,0.4,0.4,0.9c-2.2,5.6-3.9,11.3-5.2,17.7c-4.8,19.9-10.4,31.6-30.7,38.1c-14.7,4.8-29.9,8.2-32.5,25.5
		c-0.4,3.5-0.4,6.9,0.4,10.4C472.5,756.2,458.2,754.9,443.5,753.2z M1036.3,575.3c-10.8,24.2-26.4,46.7-45,66.2
		c-60.6,62.7-145,97.4-229.4,112.9c-86.1,15.6-174.8,13-261.8,4.8c-3-0.4-6.1-0.4-9.1-0.9c-0.9-6.5,3-15.1,7.4-18.6
		c6.9-5.6,16.9-6.9,25.5-9.5c9.1-3,17.3-6.5,23.4-13.4c11.3-13,19-79.6,46.3-59.3c4.3,3.5,11.3-2.6,8.2-7.4
		c-13.8-21.6-9.5-51.9,16-62.7c9.5-3.9,20.3-4.8,30.3-1.3c5.6,1.7,11.3,5.2,15.1,9.5c3,3,4.8,7.8,5.6,12.5c-3-1.3-6.1-3-9.1-5.2
		c-2.6-2.2-7.4-0.4-8.2,3c-1.7,7.4-3.5,15.1-4.8,22.5c-0.9,3.9,1.3,6.9,5.2,7.4c12.1,2.2,22.5-4.8,27.3-14.7
		c13.4,0.9,27.7-2.6,40.7-6.5c13.4-3.9,27.3-9.1,41.1-9.1c18.6-0.4,27.7,12.1,42.4,21.2c18.6,11.3,38.9-1.3,31.2-23.4
		c-5.2-14.3-20.3-17.7-27.3-30.3c-8.7-16,1.7-29,16.9-33.3c3,0.9,6.5,1.7,9.5,2.2c1.7,0,2.6-1.7,2.2-3c12.5,0.9,26,7.8,36.4,13.4
		c2.6,1.3,6.1,1.7,8.2-0.9c7.4-8.7,15.6-15.1,25.5-19.9c4.8,7.8,6.1,16.4,4.8,25.1c-1.3,3-2.2,6.1-2.6,9.5c0,0,0,0,0,0.4l0,0
		c0,0.4-0.4,1.3-0.4,1.7c-1.3,8.2,10.8,9.1,13.8,2.6c1.7-4.3,3-8.7,3.5-13.4c15.1-35.1,67.1-25.1,98.7-16.4c2.2,3.5,6.5,6.9,9.5,9.5
		c3,2.6,5.6,5.2,8.7,7.4C1040.2,563.2,1038.1,569.3,1036.3,575.3z M667.2,618.2c-1.7,3-3.9,4.8-8.2,5.6c0.4-2.6,0.9-5.6,1.3-8.2
		C662.4,616.9,664.6,617.8,667.2,618.2z M1047.2,541.2c-0.4,1.3-0.9,2.6-1.3,3.9c-2.2-1.3-3.9-2.6-6.1-4.3c-1.3-0.9-2.2-1.7-3.5-2.6
		c2.2-3.5,1.3-8.2-3.5-10c-1.3-0.4-2.2-0.9-3.5-0.9c7.4-4.3,13.8-9.1,20.8-14.3c0,1.3,0,2.6,0,3.5
		C1050.2,525.1,1048.9,533.4,1047.2,541.2z M1054.9,441.2c-4.8-14.7-10.8-29-18.6-42.4c3.5,0.9,6.5,1.7,10,3
		C1062.7,409.2,1060.1,426.5,1054.9,441.2z"/>
	<path d="M1067.5,499.2c0.4-1.7,0.4-3.9-1.3-5.6c-0.4-0.4-0.9-0.9-1.3-0.9c-0.4-9.5-1.7-19.5-3.9-29c-0.4-1.3-0.4-2.6-0.9-3.9
		c2.2-3.9,3.9-7.8,5.2-12.1c3.5-11.7,10.8-35.1,5.6-46.3c-5.6-12.1-23.4-9.5-33.8-13c-27.7-9.5-7.8-33.3-6.5-53.2
		c1.7-25.1-13-51.5-36.8-60.6c-10.4-3.9-22.1-3.5-29.4,6.1c-7.4,9.5-6.1,21.6-2.2,32c-6.9-5.6-13.8-10.8-21.2-16
		c-6.5-10.8-12.5-21.6-23.8-28.1c-7.4-4.3-17.7-6.1-25.5-1.3c-3.5-1.7-6.9-3.5-10.8-5.2c-23.4-11.3-48-21.2-73.1-29.9
		c-4.8-3-10-5.6-15.1-7.4c-5.2-2.2-10-2.6-14.7-2.6c-37.2-11.7-75.3-21.2-113.4-28.1c-0.9-2.2-1.7-4.3-3.5-6.5
		c-7.8-10.4-21.2-14.7-33.8-15.1c-6.5-0.4-13.4,2.6-19.9,2.2c-9.5-0.4-12.1-8.7-19.5-13.4c-10.4-7.4-24.2-8.2-36.4-5.2
		c-13,3.5-22.1,11.3-28.6,21.2c-15.1-0.4-30.7-0.9-46.3-0.4c-7.4-16.9,11.7-33.3,3.9-52.4c-4.8-11.7-17.3-13.8-27.7-9.1
		c-16.4,7.4-31.2,50.2-51.1,29c-8.7-9.5-8.7-24.7-22.5-29.9c-13.4-4.8-35.5,4.8-46.3,12.5c-13.4,10-14.7,22.1-16,37.6
		c-0.4,9.1-2.6,39.4-26.8,19.5c-9.5-7.8-11.3-19.5-11.7-30.7c0-7.4,2.6-16.9,0-23.8c-5.6-16.4-21.6-6.1-34.2-8.7
		c-1.7-0.4-3.9,0.4-3.9,2.6c0,6.9,0,14.3,0,21.2c0,6.5,2.2,19-0.4,24.7c-4.3,9.5-14.3,1.7-20.8-3c-3.5-2.6-6.9-5.2-11.3-6.9
		c-15.6-7.4-35.1-6.5-51.1,0c-30.3,12.5-35.9,48-26,75.7c-21.6-0.4-39.8,18.2-34.6,41.5c2.6,12.1,10.8,20.8,22.1,26
		c-24.7,21.6-46.7,45.9-66.2,73.6c-12.1,17.3-22.1,35.9-30.7,55.4c-3,6.5,8.2,12.1,11.7,5.6c1.3-2.2,2.6-4.8,3.9-6.9
		c-0.9,2.6-1.3,5.2-2.2,7.4c-5.6,22.5-6.5,45-3.5,67.1c-0.4,0.4-1.3,1.3-1.7,1.7c-0.4,0.4,0,0.9,0.4,0.9c0.4-0.4,0.9-0.9,1.3-0.9
		C40.1,569.3,80.4,626,131,665.4c78.8,61,178.3,84.4,274.8,98.7s195.2,23.4,292.5,15.6c90-7.4,179.6-31.2,254-84
		c22.9-16,43.7-35.1,61-56.3c-17.3,45.9-38.1,90.4-65.8,132C892.7,854,813,913.3,716.1,937.1s-199.9,15.6-296.4-6.1
		c-49.8-10.8-100-23.8-146.7-44.1c-53.7-23.4-94.8-61.5-127.7-109.9c-33.8-49.3-61-103.9-82.7-159.7c-23.4-59.3-42.8-123.8-51.1-187
		c0-0.4-0.4,0-0.4,0c7.8,60.2,17.3,117.7,36.8,175.3c18.2,53.7,41.5,106,70.5,154.9c26.8,45.4,59.3,87.8,103.9,117.3
		c46.7,30.7,102.6,47.2,156.2,61.9c98.7,26.4,203.4,40.2,304.7,24.2c100-15.6,188.7-64,253.2-142.4
		c72.3-87.4,113.8-203.4,134.6-313.7C1072.3,503.1,1070.1,500.5,1067.5,499.2z M987.9,284.5c7.4,0.9,14.7,7.8,19.5,12.5
		c10.4,11.7,15.1,28.6,11.3,44.1c-1.7,6.9-5.2,13.4-7.4,19.5c-11.3-13.8-23.4-26.8-36.8-38.5c1.3-1.3,2.2-2.6,1.3-4.8
		c-1.3-3.9-2.2-7.4-3.5-11.3C967.5,294.9,972.7,287.6,987.9,284.5z M883.6,279.8c-3,12.1-2.6,26-21.6,15.6
		c-13-7.4-17.7-23.4-25.5-36.4C852.4,265.5,868,272,883.6,279.8z M758.1,233c-7.4,10.8-18.2,38.1-31.2,37.6c0.4-0.4,0.9-1.3,1.3-2.2
		c6.5-17.3-0.4-36.8-14.3-47.6C728.6,224.8,743.4,228.7,758.1,233z M683.2,214c-3.9,0.4-7.4,0.4-10.4-2.2
		C676.3,212.3,679.7,213.1,683.2,214z M624.4,184.1c8.2,0,14.7,1.7,19.5,5.6c-9.5-1.7-18.6-3-28.1-4.3
		C618.7,184.6,621.3,184.1,624.4,184.1z M568.1,165.5c11.7,1.7,15.1,10.4,21.6,16.4c-6.9-0.9-13.8-1.7-20.8-2.2
		c-10.4-0.9-21.2-1.7-31.6-2.6C544.7,168.6,554.7,163.8,568.1,165.5z M522.2,228.7c0-10.8,1.7-24.2,6.5-35.9
		c42.4,2.2,84.8,7.4,126.4,15.6c0,0.4,0,0.9,0.4,0.9c2.2,7.8,3.9,14.3,12.1,17.7c9.1,4.3,19-0.9,28.6,1.3
		c15.6,3.9,22.9,21.6,18.2,35.9c0,0.4,0,0.4,0,0.9c-2.2,0.9-3.9,3-2.6,5.6c4.8,8.2,13,11.7,22.9,9.5c13.8-3,19.9-16.9,26-28.1
		c3.5-6.9,8.2-12.1,13.4-14.3c3.5,0.9,6.9,2.2,10.4,3c9.1,2.6,17.7,5.6,26.8,8.7c5.2,3.9,9.5,8.7,13.4,14.3
		c9.5,13.8,13.8,32,28.6,42c9.1,6.5,21.2,8.2,31.2,2.6c3.9-2.2,6.9-5.2,9.1-9.1c1.7-3.5,0.9-4.3,2.2-7.8c0.4-1.7,0.4-3.9,0.4-5.6
		c14.7,7.8,29,16.4,42.8,26c0,0.4,0.4,0.4,0.4,0.9c6.1,7.8,12.1,13.8,21.2,16c21.2,17.7,39.8,38.1,55,62.3
		c13.4,20.8,23.8,44.1,29.9,67.9c-4.3,6.5-8.7,13-7.8,19.5c0.9,6.9,7.4,13,13.4,18.2c0,0.9,0,1.3,0,2.2c-10,8.2-19,16.4-26.4,27.3
		c-10.8-3.5-22.1-6.5-33.3-7.8c17.7-24.7,15.6-63.2-0.9-87.4c-21.6-31.6-62.7-46.3-99.5-45c-28.6,1.3-73.1,13.4-89.1,41.1
		c-17.7-29.4-42.8-50.2-77.5-59.7c-19-5.2-39.4-5.6-59.3-2.2c0.4-0.9,0.9-2.2,0-3c-17.7-24.2-47.2-40.7-76.6-46.3
		c-13.8-2.6-28.6-3-42.4,0.4c-16,3.9-26.8,16-40.7,23.8c-1.7,0.9-0.4,3,1.3,2.6c13-5.6,24.2-15.6,38.1-19.5
		c13.4-3.9,28.6-3,42.4-0.4c30.3,5.2,53.7,20.8,74,42.8c0,0,0.4,0,0.4,0.4c-19,3.9-37.2,11.7-53.2,22.9
		c-7.4,5.6-13.8,11.3-18.6,17.7c-13.4-40.2-67.9-66.6-106.9-66.2c-18.6,0-36.8,4.8-53.7,13c2.6-4.8,2.2-12.1,1.3-16.9
		c-0.4-1.7-0.4-3.5-1.3-5.2c5.2,3.5,9.1,7.4,7.8,10.8c-0.4,0.9,1.3,1.3,1.3,0.4c3.5-7.8,1.7-13.4-4.8-18.6
		c-6.9-6.1-16-8.2-21.2-16.9c-4.8-8.7-3.9-18.2,0.9-24.7c1.7-0.4,3-1.7,3.5-3.5c3.9-3.5,9.1-5.2,15.6-4.3c4.8,0.4,7.4-5.2,5.6-9.1
		c-9.5-19-0.9-44.6,18.6-53.7s42.8,1.7,52.8,19.5C512.7,236.9,522.2,235.2,522.2,228.7z M794,573.2c3,6.1,7.8,10,12.5,14.3
		c3.5,3,7.8,5.6,11.3,9.1c6.9,6.9,10.8,11.3,0,16c-9.5,4.3-8.2,3-15.6-2.6c-2.6-2.2-5.2-4.3-7.8-6.5c-4.8-3.5-10-6.5-15.6-8.2
		c-10.8-3.5-22.9-2.2-34.2,0c-5.6,1.3-12.1,3-18.2,5.2c-1.7-19,12.5-36.4,28.6-45c13-6.9,26-7.4,39.8-8.7
		C790.1,555,789.7,564.5,794,573.2z M796.6,542.5c-31.6-15.1-84.4,23.8-73.6,58.9c-11.7,3.9-23.8,7.8-35.5,8.7v-0.4
		c0.9-13.8-2.6-25.1-8.2-35.1c10-26.4,42.8-43.3,68.8-47.2c16.4-2.6,33.3-1.3,49.3,2.6c2.6,0.9,5.6,1.7,8.2,2.6
		C802.6,535.1,799.6,538.6,796.6,542.5z M735.6,520c-20.8,5.6-54.5,23.8-60.6,48c-3.5-4.3-7.8-8.7-12.1-12.1
		c10-13.8,18.2-25.5,34.6-34.2c16.4-8.7,35.5-12.5,54.1-14.7c21.2-2.6,43.3-3,64,3c12.5,3.5,22.5,9.5,31.6,17.3
		c-9.1-2.2-18.2-3-26.8-0.9C795.7,513.5,758.9,513.5,735.6,520z M582.4,616c-23.4-6.5-46.3-9.5-68.4-21.6c-18.2-10-35.1-26-44.6-45
		c6.5,1.7,13.4,2.6,19.9,3.9c11.7,2.6,22.9,6.5,34.2,10.4c22.9,8.7,43.7,23.4,67.1,29.4h0.4C586.7,600.4,583.7,608.2,582.4,616z
		 M585,642.9c-8.7,0.4-17.3,5.6-23.8,13c-0.4,0.9-0.9,1.3-1.7,2.2c-2.2-15.6-10.8-29.4-22.9-40.2c14.3,5.2,29.9,7.8,44.6,8.2
		C581.9,631.2,582.8,637.2,585,642.9z M292.4,593.5c-6.9-1.3-11.3,1.7-17.7,2.6c-1.7,0.9-3.5,1.7-5.2,2.6
		c-5.6-2.6-10.8-5.2-16.4-7.8c0-0.4-0.9-1.7-1.3-3.5c8.2-4.3,14.7-13.4,13-24.2c-0.9-6.5-3-11.3-6.1-15.1c13-9.5,22.9-24.2,29-41.1
		c9.1,9.5,29.4,19.9,41.5,10.4c4.3,4.8,9.1,8.7,14.7,12.1c-5.6,0.4-10.8,1.3-15.1,4.3c-9.5,6.5-9.1,17.3-5.2,27.3
		c4.3,11.7,14.3,21.6,25.1,27.3c11.3,6.1,31.6,4.8,43.3,11.3c-26.8,12.1-50.6,30.7-65.8,52.8c-2.6,0-5.2,0.4-7.8,0.9
		C321.9,629,320.6,598.7,292.4,593.5z M476.4,191.9c1.7,1.3,3,3,5.2,4.3c-10-1.7-20.8-0.4-30.3,4.3c-22.9,11.7-31.2,38.1-26,61.5
		c-3.5,0.4-6.9,1.3-10,3c-10-36.8-48-50.6-85.7-52.8c46.7-12.5,95.2-19.5,144.5-20.3C474.6,191.9,475.5,191.9,476.4,191.9z
		 M405.4,272c-4.8,5.2-7.8,12.1-8.2,19.9c-0.4,9.1,3.5,18.6,9.5,25.1c2.2,2.6,8.2,5.6,14.3,8.7c0.9,3.9,1.3,7.8,0.9,12.1
		c-0.4,5.6-4.3,12.1-1.3,17.3c0.4,0.9,1.3,1.3,1.7,1.7c-3.5,1.7-6.5,3.9-9.5,6.1c-12.1,9.1-29,23.4-29,39.8
		c-5.6-6.5-12.5-11.7-19.9-15.6c-23.8-12.5-71.8-11.3-73.1,21.2c-3-8.2-7.4-16.4-12.1-23.8c-15.1-22.5-36.8-36.8-61-44.6
		c-5.6-48.9,15.1-97.8,67.1-110.4C324.9,219.6,395,221.4,405.4,272z M324.9,511.7c-5.2,0-10.4,1.3-15.6,0.9
		c-7.8-0.4-14.3-2.6-20.8-6.9l0,0c5.2-14.3,7.4-29.9,6.5-44.6c3-15.1,1.7-31.2-2.6-45.9c-0.9-22.1,25.1-28.6,41.5-27.3
		c10.8,0.9,21.2,5.2,29.9,11.3c9.5,6.9,17.7,16.4,21.2,27.7c3,10.4,0.9,17.7-3,26c-2.6-3-4.8-5.2-6.9-6.5
		c-23.4-13.4-51.9,3.5-57.6,28.1C314.9,488.4,318,501.3,324.9,511.7z M286.4,484.9c-0.9,4.3-2.2,8.7-3.5,13.4
		c-6.1,18.2-17.3,30.7-27.7,45.9c-13.4-11.7-37.2-9.1-55.4-4.3c1.3-4.8,2.2-10,3-15.1c30.3,10.4,65.8-10.8,81.8-36.4
		C285.1,487.1,285.5,485.8,286.4,484.9z M363.4,586.2c-6.9-2.2-12.5-5.6-17.7-10.4c-10-9.1-11.7-12.1-7.8-24.7
		c4.3-13.4,3.5-10,15.1-11.3c4.8-0.4,8.7-0.9,13-2.6s6.1-9.1,0.4-10.4c-20.3-4.8-39.4-19.5-39.4-42.8c0.4-27.7,31.6-42,51.9-21.6
		c14.3,14.3,24.7,37.2,48.9,27.7c1.7-0.9,2.6-3,2.2-4.8c-6.5-31.6,32.9-49.8,51.9-22.5c1.3,1.7,3.9,3,5.6,0.9
		c9.5-10.4,25.5-29,41.5-22.1c16.9,7.8,9.5,16.9,13,30.3c1.7,5.6,5.6,9.1,9.1,13.8c9.1,11.3,14.7,22.5,17.7,36.4
		c0.9,4.8,8.7,3,7.8-1.7c-3.5-14.3-10-25.1-19.5-36.4c-8.7-10.8-3.5,0.4-8.7-25.5c-0.4-1.7,0.4-3.5,0-5.2c-1.3-3.9-2.2-6.5-4.8-10
		c-18.2-21.6-43.7-3-58.4,12.1c-13.8-16.4-38.9-20.3-55-3c-3.5,3.9-6.5,8.7-8.2,13.8c-0.9,2.6-0.9,15.6-1.7,16
		c-8.2,6.9-21.6-9.5-32.5-22.9c10.8-6.9,10.4-24.2,6.9-35.9c-0.9-2.2-1.7-4.3-2.6-6.5c19-24.2,49.8-36.4,80.5-36.4
		c-12.1,16.9-16,38.9-12.5,59.3c0,1.3,2.2,0.9,2.2,0c-0.9-22.1,5.2-40.7,16-59.3c1.3,0,2.2,0,3.5,0c35.1,2.6,62.7,20.8,86.1,45.9
		c3.5,3.9,8.7-1.3,5.6-5.2c-23.4-30.7-61.5-51.1-100-51.1c-28.1,0-67.5,11.3-82.7,38.1c-0.4-20.8,29.9-38.5,45.9-45.9
		c18.2-8.2,38.5-11.3,58.4-8.7c18.6,2.6,36.8,10.4,51.9,21.6c15.1,11.7,22.9,27.3,34.2,42c-19.9,38.5-2.6,86.1,32,115.1
		c-4.3-0.9-8.7-1.7-13-2.6c-28.6-4.3-58.4-6.5-87-5.2c-15.6,0.9-32.5,3.5-42.4,15.6c-1.7,0-3.5,0-4.8,0.4c0,0,0,0,0-0.4
		c0-0.4-0.9-0.4-0.9,0l0,0c-2.6,0.4-4.8,0.9-6.9,2.2v0.4c2.6,2.2,5.6,3.5,8.7,4.3c4.8,17.3,14.3,31.6,26.8,43.3
		c-9.5-3.5-19-5.6-28.1-6.5c-21.6-2.2-45,2.2-67.1,11.3C389.8,588.3,375.1,590.1,363.4,586.2z M804.8,500
		c-17.7-3.5-36.8-3.5-51.9-1.7c-29,3-90.9,16-95.2,54.1c-1.3-0.9-3-2.2-4.8-3c0-0.9-0.4-1.7-1.3-2.2c-27.7-18.2-55.8-37.2-64-71.8
		c-8.2-36.4,10-65.3,41.5-82.2c57.6-30.7,129.8-12.1,170.1,38.1c-0.4,0.4-0.4,0.9-0.9,1.3C792.7,446.8,792.3,482.3,804.8,500z
		 M520.5,552.4c-11.3-3.5-28.1-9.5-42.8-10.8c30.3-13.4,73.1-4.8,103.9-0.9c33.3,3.9,77,14.3,90.4,46.7
		c-7.8-8.7-19.9-14.3-31.2-15.6c-17.7-2.2-32.5,4.3-43.3,14.7c-0.4-1.3-1.7-2.6-3.5-3C569.4,573.6,546,560.6,520.5,552.4z
		 M829.5,507.4c0-1.7-0.9-3-3-3.5c-17.3-2.2-16.9-30.3-16.9-42.8c-0.4-19.9,6.1-31.6,22.9-42.4c21.6-13.8,47.6-19.5,73.1-17.3
		c26.4,2.2,54.5,13.8,71,35.5c19.9,26,13,55-1.7,80.5c-9.5,0-19,1.7-28.6,5.2c-8.7,3.5-16,8.2-22.1,14.3c-1.7-6.9-5.2-13.4-10-19
		c-2.2-2.6-5.6-2.6-8.2-1.3c-12.1,5.2-21.6,12.5-30.7,21.6c-4.3-2.2-9.1-3.9-13.8-5.6C853.3,520.4,842.5,512.6,829.5,507.4z
		 M510.5,210.5c-6.5-6.5-14.7-11.3-23.4-13.4c1.7-0.9,3-3.5,2.6-5.6c8.7,0,16.9,0,25.5,0.4C513.1,198,511.4,204.5,510.5,210.5z
		 M118.5,286.7c-22.9-17.3-2.2-45,21.2-41.1c4.8,0.9,6.5-5.6,3.9-8.7c-22.9-30.3,1.7-76.6,38.5-77.5c16.9-0.4,27.3,7.4,40.2,16.4
		c7.8,5.2,13,7.8,22.1,6.9c1.7,0,3-2.2,3-3.9c3-17.7,2.6-36.4-0.9-54.1c1.7-0.4,3.5-0.4,5.6-0.9c3-0.9,6.1-1.3,8.7-1.7
		c4.8,4.3,9.1,8.7,13.8,12.5c3,6.9-1.3,20.8,0.9,29c3,12.1,12.1,24.7,25.5,26.4c10.8,1.3,18.6-6.1,21.6-16c3-10.4,0-21.6,6.1-31.6
		c6.1-10.4,22.9-18.2,34.6-19c27.7-2.6,21.2,23.4,39.4,33.8c11.7,6.9,23.4,0,31.6-8.7c6.5-6.9,15.6-26.4,26.4-25.5
		c3.5,3.5,6.5,6.5,10,10c-0.4,3.9-1.7,7.4-3,11.3c-1.3,4.3-3,8.7-3.9,13.4c-0.9,6.5-0.4,13,1.3,18.6
		c-121.6,4.3-243.6,39.8-336.3,116C125.8,291,121.9,289.3,118.5,286.7z M140.5,307.5c16,3.5,32.5,7.4,35.5,23.8
		c0.4,2.6,4.3,2.2,4.3-0.4c0.9-16.9-10.8-27.3-26-32.5c-0.4,0-1.3-0.4-1.7-0.4c22.5-17.3,46.3-32,71.4-45
		c-18.6,23.8-26,55.8-13,85.3c-38.5-10.4-82.2-4.3-118.1,14.3C107.6,336,123.7,321.3,140.5,307.5z M38.8,479.7
		c0-28.6,6.1-55.4,17.3-80.5c4.3-6.1,8.7-12.1,13.4-18.2c27.3-14.7,54.5-29.9,86.1-33.8c36.4-4.3,76.2,5.2,102.6,32
		c22.5,22.9,33.3,59.7,22.5,90.9c-12.1,34.6-43.7,48.5-77.5,50.6c1.7-14.7,0.9-29.4-7.4-42c-9.5-15.1-26.4-23.8-43.7-18.6
		c-2.2,0.4-3.9,2.6-4.3,4.8c-0.9,11.7-1.7,23.8-2.2,35.5c-0.4,5.2,0.9,13.4-0.9,17.7c-3,6.1-9.5,7.4-16.4,3.9
		c-13-6.5-19.9-22.1-33.3-28.6c-17.7-8.7-38.5-6.5-54.5,3.9C39.3,491.8,38.8,485.8,38.8,479.7z M230.1,705.2
		c-87.8-34.6-178.7-106.5-190-205.6c16.4-9.5,37.2-10.4,53.7,0c14.3,9.1,21.6,26.8,37.6,34.2c6.1,2.6,16.9,4.3,21.6-2.2
		c3.9-5.2,2.6-21.2,3-27.3c0.9-11.7,1.7-23.4,2.6-35.1c16.4-2.2,29.4,11.3,33.3,26.8c3.9,16.4-0.9,34.2-5.2,50.2
		c-0.9,3.9,2.2,9.1,6.9,7.4c12.1-4.3,25.1-9.5,38.1-6.9c6.1,0.9,14.3,3.5,17.7,9.1c0.9,5.6,2.2,10.8,3,16.4
		c-1.7,2.6-3.9,4.3-6.1,5.2c-5.2-5.2-12.1-6.9-19.5-3.5c-3.5,1.7-3.9,6.5-1.7,9.1c4.3,4.8,9.5,6.9,14.7,6.9
		c3.9,6.1,7.4,15.1,9.5,17.3c3.9,3.5,8.2,5.2,13.4,4.8c14.3-0.9,21.6-16.9,38.5-2.2c13,11.7,7.8,33.8,4.3,48.5
		c-0.9,4.3,2.2,9.1,6.9,7.8c17.7-4.8,36.4-2.2,51.5,8.2c16.9,11.7,22.9,30.7,32.9,47.6c7.4,13,18.6,24.2,32,28.6
		C360.8,742.8,293.3,730.3,230.1,705.2z M443.5,753.2c3.5-0.4,7.4-1.3,11.3-2.6c6.5-2.6,2.6-14.3-4.3-11.7
		c-39.4,13.4-50.2-49.3-72.3-69.2c-13.8-12.1-31.6-18.2-49.3-17.7c17.3-12.5,32.5-27.3,51.5-38.1c5.6-3.5,11.7-6.5,18.2-9.1
		c0,0,0,0.4,0.4,0.4c1.7,3,6.1,0.9,4.8-2.6c16.9-6.5,34.6-10.4,52.4-10c21.6,0.4,43.7,7.4,61.5,19.9c19.9,13.8,27.7,31.2,37.2,52.8
		c0,0.4,0.4,0.4,0.4,0.9c-2.2,5.6-3.9,11.3-5.2,17.7c-4.8,19.9-10.4,31.6-30.7,38.1c-14.7,4.8-29.9,8.2-32.5,25.5
		c-0.4,3.5-0.4,6.9,0.4,10.4C472.5,756.2,458.2,754.9,443.5,753.2z M1036.3,575.3c-10.8,24.2-26.4,46.7-45,66.2
		c-60.6,62.7-145,97.4-229.4,112.9c-86.1,15.6-174.8,13-261.8,4.8c-3-0.4-6.1-0.4-9.1-0.9c-0.9-6.5,3-15.1,7.4-18.6
		c6.9-5.6,16.9-6.9,25.5-9.5c9.1-3,17.3-6.5,23.4-13.4c11.3-13,19-79.6,46.3-59.3c4.3,3.5,11.3-2.6,8.2-7.4
		c-13.8-21.6-9.5-51.9,16-62.7c9.5-3.9,20.3-4.8,30.3-1.3c5.6,1.7,11.3,5.2,15.1,9.5c3,3,4.8,7.8,5.6,12.5c-3-1.3-6.1-3-9.1-5.2
		c-2.6-2.2-7.4-0.4-8.2,3c-1.7,7.4-3.5,15.1-4.8,22.5c-0.9,3.9,1.3,6.9,5.2,7.4c12.1,2.2,22.5-4.8,27.3-14.7
		c13.4,0.9,27.7-2.6,40.7-6.5c13.4-3.9,27.3-9.1,41.1-9.1c18.6-0.4,27.7,12.1,42.4,21.2c18.6,11.3,38.9-1.3,31.2-23.4
		c-5.2-14.3-20.3-17.7-27.3-30.3c-8.7-16,1.7-29,16.9-33.3c3,0.9,6.5,1.7,9.5,2.2c1.7,0,2.6-1.7,2.2-3c12.5,0.9,26,7.8,36.4,13.4
		c2.6,1.3,6.1,1.7,8.2-0.9c7.4-8.7,15.6-15.1,25.5-19.9c4.8,7.8,6.1,16.4,4.8,25.1c-1.3,3-2.2,6.1-2.6,9.5c0,0,0,0,0,0.4l0,0
		c0,0.4-0.4,1.3-0.4,1.7c-1.3,8.2,10.8,9.1,13.8,2.6c1.7-4.3,3-8.7,3.5-13.4c15.1-35.1,67.1-25.1,98.7-16.4c2.2,3.5,6.5,6.9,9.5,9.5
		c3,2.6,5.6,5.2,8.7,7.4C1040.2,563.2,1038.1,569.3,1036.3,575.3z M667.2,618.2c-1.7,3-3.9,4.8-8.2,5.6c0.4-2.6,0.9-5.6,1.3-8.2
		C662.4,616.9,664.6,617.8,667.2,618.2z M1047.2,541.2c-0.4,1.3-0.9,2.6-1.3,3.9c-2.2-1.3-3.9-2.6-6.1-4.3c-1.3-0.9-2.2-1.7-3.5-2.6
		c2.2-3.5,1.3-8.2-3.5-10c-1.3-0.4-2.2-0.9-3.5-0.9c7.4-4.3,13.8-9.1,20.8-14.3c0,1.3,0,2.6,0,3.5
		C1050.2,525.1,1048.9,533.4,1047.2,541.2z M1054.9,441.2c-4.8-14.7-10.8-29-18.6-42.4c3.5,0.9,6.5,1.7,10,3
		C1062.7,409.2,1060.1,426.5,1054.9,441.2z"/>
	<path d="M1067.5,499.2c0.4-1.7,0.4-3.9-1.3-5.6c-0.4-0.4-0.9-0.9-1.3-0.9c-0.4-9.5-1.7-19.5-3.9-29c-0.4-1.3-0.4-2.6-0.9-3.9
		c2.2-3.9,3.9-7.8,5.2-12.1c3.5-11.7,10.8-35.1,5.6-46.3c-5.6-12.1-23.4-9.5-33.8-13c-27.7-9.5-7.8-33.3-6.5-53.2
		c1.7-25.1-13-51.5-36.8-60.6c-10.4-3.9-22.1-3.5-29.4,6.1c-7.4,9.5-6.1,21.6-2.2,32c-6.9-5.6-13.8-10.8-21.2-16
		c-6.5-10.8-12.5-21.6-23.8-28.1c-7.4-4.3-17.7-6.1-25.5-1.3c-3.5-1.7-6.9-3.5-10.8-5.2c-23.4-11.3-48-21.2-73.1-29.9
		c-4.8-3-10-5.6-15.1-7.4c-5.2-2.2-10-2.6-14.7-2.6c-37.2-11.7-75.3-21.2-113.4-28.1c-0.9-2.2-1.7-4.3-3.5-6.5
		c-7.8-10.4-21.2-14.7-33.8-15.1c-6.5-0.4-13.4,2.6-19.9,2.2c-9.5-0.4-12.1-8.7-19.5-13.4c-10.4-7.4-24.2-8.2-36.4-5.2
		c-13,3.5-22.1,11.3-28.6,21.2c-15.1-0.4-30.7-0.9-46.3-0.4c-7.4-16.9,11.7-33.3,3.9-52.4c-4.8-11.7-17.3-13.8-27.7-9.1
		c-16.4,7.4-31.2,50.2-51.1,29c-8.7-9.5-8.7-24.7-22.5-29.9c-13.4-4.8-35.5,4.8-46.3,12.5c-13.4,10-14.7,22.1-16,37.6
		c-0.4,9.1-2.6,39.4-26.8,19.5c-9.5-7.8-11.3-19.5-11.7-30.7c0-7.4,2.6-16.9,0-23.8c-5.6-16.4-21.6-6.1-34.2-8.7
		c-1.7-0.4-3.9,0.4-3.9,2.6c0,6.9,0,14.3,0,21.2c0,6.5,2.2,19-0.4,24.7c-4.3,9.5-14.3,1.7-20.8-3c-3.5-2.6-6.9-5.2-11.3-6.9
		c-15.6-7.4-35.1-6.5-51.1,0c-30.3,12.5-35.9,48-26,75.7c-21.6-0.4-39.8,18.2-34.6,41.5c2.6,12.1,10.8,20.8,22.1,26
		c-24.7,21.6-46.7,45.9-66.2,73.6c-12.1,17.3-22.1,35.9-30.7,55.4c-3,6.5,8.2,12.1,11.7,5.6c1.3-2.2,2.6-4.8,3.9-6.9
		c-0.9,2.6-1.3,5.2-2.2,7.4c-5.6,22.5-6.5,45-3.5,67.1c-0.4,0.4-1.3,1.3-1.7,1.7c-0.4,0.4,0,0.9,0.4,0.9c0.4-0.4,0.9-0.9,1.3-0.9
		C40.1,569.3,80.4,626,131,665.4c78.8,61,178.3,84.4,274.8,98.7s195.2,23.4,292.5,15.6c90-7.4,179.6-31.2,254-84
		c22.9-16,43.7-35.1,61-56.3c-17.3,45.9-38.1,90.4-65.8,132C892.7,854,813,913.3,716.1,937.1s-199.9,15.6-296.4-6.1
		c-49.8-10.8-100-23.8-146.7-44.1c-53.7-23.4-94.8-61.5-127.7-109.9c-33.8-49.3-61-103.9-82.7-159.7c-23.4-59.3-42.8-123.8-51.1-187
		c0-0.4-0.4,0-0.4,0c7.8,60.2,17.3,117.7,36.8,175.3c18.2,53.7,41.5,106,70.5,154.9c26.8,45.4,59.3,87.8,103.9,117.3
		c46.7,30.7,102.6,47.2,156.2,61.9c98.7,26.4,203.4,40.2,304.7,24.2c100-15.6,188.7-64,253.2-142.4
		c72.3-87.4,113.8-203.4,134.6-313.7C1072.3,503.1,1070.1,500.5,1067.5,499.2z M987.9,284.5c7.4,0.9,14.7,7.8,19.5,12.5
		c10.4,11.7,15.1,28.6,11.3,44.1c-1.7,6.9-5.2,13.4-7.4,19.5c-11.3-13.8-23.4-26.8-36.8-38.5c1.3-1.3,2.2-2.6,1.3-4.8
		c-1.3-3.9-2.2-7.4-3.5-11.3C967.5,294.9,972.7,287.6,987.9,284.5z M883.6,279.8c-3,12.1-2.6,26-21.6,15.6
		c-13-7.4-17.7-23.4-25.5-36.4C852.4,265.5,868,272,883.6,279.8z M758.1,233c-7.4,10.8-18.2,38.1-31.2,37.6c0.4-0.4,0.9-1.3,1.3-2.2
		c6.5-17.3-0.4-36.8-14.3-47.6C728.6,224.8,743.4,228.7,758.1,233z M683.2,214c-3.9,0.4-7.4,0.4-10.4-2.2
		C676.3,212.3,679.7,213.1,683.2,214z M624.4,184.1c8.2,0,14.7,1.7,19.5,5.6c-9.5-1.7-18.6-3-28.1-4.3
		C618.7,184.6,621.3,184.1,624.4,184.1z M568.1,165.5c11.7,1.7,15.1,10.4,21.6,16.4c-6.9-0.9-13.8-1.7-20.8-2.2
		c-10.4-0.9-21.2-1.7-31.6-2.6C544.7,168.6,554.7,163.8,568.1,165.5z M522.2,228.7c0-10.8,1.7-24.2,6.5-35.9
		c42.4,2.2,84.8,7.4,126.4,15.6c0,0.4,0,0.9,0.4,0.9c2.2,7.8,3.9,14.3,12.1,17.7c9.1,4.3,19-0.9,28.6,1.3
		c15.6,3.9,22.9,21.6,18.2,35.9c0,0.4,0,0.4,0,0.9c-2.2,0.9-3.9,3-2.6,5.6c4.8,8.2,13,11.7,22.9,9.5c13.8-3,19.9-16.9,26-28.1
		c3.5-6.9,8.2-12.1,13.4-14.3c3.5,0.9,6.9,2.2,10.4,3c9.1,2.6,17.7,5.6,26.8,8.7c5.2,3.9,9.5,8.7,13.4,14.3
		c9.5,13.8,13.8,32,28.6,42c9.1,6.5,21.2,8.2,31.2,2.6c3.9-2.2,6.9-5.2,9.1-9.1c1.7-3.5,0.9-4.3,2.2-7.8c0.4-1.7,0.4-3.9,0.4-5.6
		c14.7,7.8,29,16.4,42.8,26c0,0.4,0.4,0.4,0.4,0.9c6.1,7.8,12.1,13.8,21.2,16c21.2,17.7,39.8,38.1,55,62.3
		c13.4,20.8,23.8,44.1,29.9,67.9c-4.3,6.5-8.7,13-7.8,19.5c0.9,6.9,7.4,13,13.4,18.2c0,0.9,0,1.3,0,2.2c-10,8.2-19,16.4-26.4,27.3
		c-10.8-3.5-22.1-6.5-33.3-7.8c17.7-24.7,15.6-63.2-0.9-87.4c-21.6-31.6-62.7-46.3-99.5-45c-28.6,1.3-73.1,13.4-89.1,41.1
		c-17.7-29.4-42.8-50.2-77.5-59.7c-19-5.2-39.4-5.6-59.3-2.2c0.4-0.9,0.9-2.2,0-3c-17.7-24.2-47.2-40.7-76.6-46.3
		c-13.8-2.6-28.6-3-42.4,0.4c-16,3.9-26.8,16-40.7,23.8c-1.7,0.9-0.4,3,1.3,2.6c13-5.6,24.2-15.6,38.1-19.5
		c13.4-3.9,28.6-3,42.4-0.4c30.3,5.2,53.7,20.8,74,42.8c0,0,0.4,0,0.4,0.4c-19,3.9-37.2,11.7-53.2,22.9
		c-7.4,5.6-13.8,11.3-18.6,17.7c-13.4-40.2-67.9-66.6-106.9-66.2c-18.6,0-36.8,4.8-53.7,13c2.6-4.8,2.2-12.1,1.3-16.9
		c-0.4-1.7-0.4-3.5-1.3-5.2c5.2,3.5,9.1,7.4,7.8,10.8c-0.4,0.9,1.3,1.3,1.3,0.4c3.5-7.8,1.7-13.4-4.8-18.6
		c-6.9-6.1-16-8.2-21.2-16.9c-4.8-8.7-3.9-18.2,0.9-24.7c1.7-0.4,3-1.7,3.5-3.5c3.9-3.5,9.1-5.2,15.6-4.3c4.8,0.4,7.4-5.2,5.6-9.1
		c-9.5-19-0.9-44.6,18.6-53.7s42.8,1.7,52.8,19.5C512.7,236.9,522.2,235.2,522.2,228.7z M794,573.2c3,6.1,7.8,10,12.5,14.3
		c3.5,3,7.8,5.6,11.3,9.1c6.9,6.9,10.8,11.3,0,16c-9.5,4.3-8.2,3-15.6-2.6c-2.6-2.2-5.2-4.3-7.8-6.5c-4.8-3.5-10-6.5-15.6-8.2
		c-10.8-3.5-22.9-2.2-34.2,0c-5.6,1.3-12.1,3-18.2,5.2c-1.7-19,12.5-36.4,28.6-45c13-6.9,26-7.4,39.8-8.7
		C790.1,555,789.7,564.5,794,573.2z M796.6,542.5c-31.6-15.1-84.4,23.8-73.6,58.9c-11.7,3.9-23.8,7.8-35.5,8.7v-0.4
		c0.9-13.8-2.6-25.1-8.2-35.1c10-26.4,42.8-43.3,68.8-47.2c16.4-2.6,33.3-1.3,49.3,2.6c2.6,0.9,5.6,1.7,8.2,2.6
		C802.6,535.1,799.6,538.6,796.6,542.5z M735.6,520c-20.8,5.6-54.5,23.8-60.6,48c-3.5-4.3-7.8-8.7-12.1-12.1
		c10-13.8,18.2-25.5,34.6-34.2c16.4-8.7,35.5-12.5,54.1-14.7c21.2-2.6,43.3-3,64,3c12.5,3.5,22.5,9.5,31.6,17.3
		c-9.1-2.2-18.2-3-26.8-0.9C795.7,513.5,758.9,513.5,735.6,520z M582.4,616c-23.4-6.5-46.3-9.5-68.4-21.6c-18.2-10-35.1-26-44.6-45
		c6.5,1.7,13.4,2.6,19.9,3.9c11.7,2.6,22.9,6.5,34.2,10.4c22.9,8.7,43.7,23.4,67.1,29.4h0.4C586.7,600.4,583.7,608.2,582.4,616z
		 M585,642.9c-8.7,0.4-17.3,5.6-23.8,13c-0.4,0.9-0.9,1.3-1.7,2.2c-2.2-15.6-10.8-29.4-22.9-40.2c14.3,5.2,29.9,7.8,44.6,8.2
		C581.9,631.2,582.8,637.2,585,642.9z M292.4,593.5c-6.9-1.3-11.3,1.7-17.7,2.6c-1.7,0.9-3.5,1.7-5.2,2.6
		c-5.6-2.6-10.8-5.2-16.4-7.8c0-0.4-0.9-1.7-1.3-3.5c8.2-4.3,14.7-13.4,13-24.2c-0.9-6.5-3-11.3-6.1-15.1c13-9.5,22.9-24.2,29-41.1
		c9.1,9.5,29.4,19.9,41.5,10.4c4.3,4.8,9.1,8.7,14.7,12.1c-5.6,0.4-10.8,1.3-15.1,4.3c-9.5,6.5-9.1,17.3-5.2,27.3
		c4.3,11.7,14.3,21.6,25.1,27.3c11.3,6.1,31.6,4.8,43.3,11.3c-26.8,12.1-50.6,30.7-65.8,52.8c-2.6,0-5.2,0.4-7.8,0.9
		C321.9,629,320.6,598.7,292.4,593.5z M476.4,191.9c1.7,1.3,3,3,5.2,4.3c-10-1.7-20.8-0.4-30.3,4.3c-22.9,11.7-31.2,38.1-26,61.5
		c-3.5,0.4-6.9,1.3-10,3c-10-36.8-48-50.6-85.7-52.8c46.7-12.5,95.2-19.5,144.5-20.3C474.6,191.9,475.5,191.9,476.4,191.9z
		 M405.4,272c-4.8,5.2-7.8,12.1-8.2,19.9c-0.4,9.1,3.5,18.6,9.5,25.1c2.2,2.6,8.2,5.6,14.3,8.7c0.9,3.9,1.3,7.8,0.9,12.1
		c-0.4,5.6-4.3,12.1-1.3,17.3c0.4,0.9,1.3,1.3,1.7,1.7c-3.5,1.7-6.5,3.9-9.5,6.1c-12.1,9.1-29,23.4-29,39.8
		c-5.6-6.5-12.5-11.7-19.9-15.6c-23.8-12.5-71.8-11.3-73.1,21.2c-3-8.2-7.4-16.4-12.1-23.8c-15.1-22.5-36.8-36.8-61-44.6
		c-5.6-48.9,15.1-97.8,67.1-110.4C324.9,219.6,395,221.4,405.4,272z M324.9,511.7c-5.2,0-10.4,1.3-15.6,0.9
		c-7.8-0.4-14.3-2.6-20.8-6.9l0,0c5.2-14.3,7.4-29.9,6.5-44.6c3-15.1,1.7-31.2-2.6-45.9c-0.9-22.1,25.1-28.6,41.5-27.3
		c10.8,0.9,21.2,5.2,29.9,11.3c9.5,6.9,17.7,16.4,21.2,27.7c3,10.4,0.9,17.7-3,26c-2.6-3-4.8-5.2-6.9-6.5
		c-23.4-13.4-51.9,3.5-57.6,28.1C314.9,488.4,318,501.3,324.9,511.7z M286.4,484.9c-0.9,4.3-2.2,8.7-3.5,13.4
		c-6.1,18.2-17.3,30.7-27.7,45.9c-13.4-11.7-37.2-9.1-55.4-4.3c1.3-4.8,2.2-10,3-15.1c30.3,10.4,65.8-10.8,81.8-36.4
		C285.1,487.1,285.5,485.8,286.4,484.9z M363.4,586.2c-6.9-2.2-12.5-5.6-17.7-10.4c-10-9.1-11.7-12.1-7.8-24.7
		c4.3-13.4,3.5-10,15.1-11.3c4.8-0.4,8.7-0.9,13-2.6s6.1-9.1,0.4-10.4c-20.3-4.8-39.4-19.5-39.4-42.8c0.4-27.7,31.6-42,51.9-21.6
		c14.3,14.3,24.7,37.2,48.9,27.7c1.7-0.9,2.6-3,2.2-4.8c-6.5-31.6,32.9-49.8,51.9-22.5c1.3,1.7,3.9,3,5.6,0.9
		c9.5-10.4,25.5-29,41.5-22.1c16.9,7.8,9.5,16.9,13,30.3c1.7,5.6,5.6,9.1,9.1,13.8c9.1,11.3,14.7,22.5,17.7,36.4
		c0.9,4.8,8.7,3,7.8-1.7c-3.5-14.3-10-25.1-19.5-36.4c-8.7-10.8-3.5,0.4-8.7-25.5c-0.4-1.7,0.4-3.5,0-5.2c-1.3-3.9-2.2-6.5-4.8-10
		c-18.2-21.6-43.7-3-58.4,12.1c-13.8-16.4-38.9-20.3-55-3c-3.5,3.9-6.5,8.7-8.2,13.8c-0.9,2.6-0.9,15.6-1.7,16
		c-8.2,6.9-21.6-9.5-32.5-22.9c10.8-6.9,10.4-24.2,6.9-35.9c-0.9-2.2-1.7-4.3-2.6-6.5c19-24.2,49.8-36.4,80.5-36.4
		c-12.1,16.9-16,38.9-12.5,59.3c0,1.3,2.2,0.9,2.2,0c-0.9-22.1,5.2-40.7,16-59.3c1.3,0,2.2,0,3.5,0c35.1,2.6,62.7,20.8,86.1,45.9
		c3.5,3.9,8.7-1.3,5.6-5.2c-23.4-30.7-61.5-51.1-100-51.1c-28.1,0-67.5,11.3-82.7,38.1c-0.4-20.8,29.9-38.5,45.9-45.9
		c18.2-8.2,38.5-11.3,58.4-8.7c18.6,2.6,36.8,10.4,51.9,21.6c15.1,11.7,22.9,27.3,34.2,42c-19.9,38.5-2.6,86.1,32,115.1
		c-4.3-0.9-8.7-1.7-13-2.6c-28.6-4.3-58.4-6.5-87-5.2c-15.6,0.9-32.5,3.5-42.4,15.6c-1.7,0-3.5,0-4.8,0.4c0,0,0,0,0-0.4
		c0-0.4-0.9-0.4-0.9,0l0,0c-2.6,0.4-4.8,0.9-6.9,2.2v0.4c2.6,2.2,5.6,3.5,8.7,4.3c4.8,17.3,14.3,31.6,26.8,43.3
		c-9.5-3.5-19-5.6-28.1-6.5c-21.6-2.2-45,2.2-67.1,11.3C389.8,588.3,375.1,590.1,363.4,586.2z M804.8,500
		c-17.7-3.5-36.8-3.5-51.9-1.7c-29,3-90.9,16-95.2,54.1c-1.3-0.9-3-2.2-4.8-3c0-0.9-0.4-1.7-1.3-2.2c-27.7-18.2-55.8-37.2-64-71.8
		c-8.2-36.4,10-65.3,41.5-82.2c57.6-30.7,129.8-12.1,170.1,38.1c-0.4,0.4-0.4,0.9-0.9,1.3C792.7,446.8,792.3,482.3,804.8,500z
		 M520.5,552.4c-11.3-3.5-28.1-9.5-42.8-10.8c30.3-13.4,73.1-4.8,103.9-0.9c33.3,3.9,77,14.3,90.4,46.7
		c-7.8-8.7-19.9-14.3-31.2-15.6c-17.7-2.2-32.5,4.3-43.3,14.7c-0.4-1.3-1.7-2.6-3.5-3C569.4,573.6,546,560.6,520.5,552.4z
		 M829.5,507.4c0-1.7-0.9-3-3-3.5c-17.3-2.2-16.9-30.3-16.9-42.8c-0.4-19.9,6.1-31.6,22.9-42.4c21.6-13.8,47.6-19.5,73.1-17.3
		c26.4,2.2,54.5,13.8,71,35.5c19.9,26,13,55-1.7,80.5c-9.5,0-19,1.7-28.6,5.2c-8.7,3.5-16,8.2-22.1,14.3c-1.7-6.9-5.2-13.4-10-19
		c-2.2-2.6-5.6-2.6-8.2-1.3c-12.1,5.2-21.6,12.5-30.7,21.6c-4.3-2.2-9.1-3.9-13.8-5.6C853.3,520.4,842.5,512.6,829.5,507.4z
		 M510.5,210.5c-6.5-6.5-14.7-11.3-23.4-13.4c1.7-0.9,3-3.5,2.6-5.6c8.7,0,16.9,0,25.5,0.4C513.1,198,511.4,204.5,510.5,210.5z
		 M118.5,286.7c-22.9-17.3-2.2-45,21.2-41.1c4.8,0.9,6.5-5.6,3.9-8.7c-22.9-30.3,1.7-76.6,38.5-77.5c16.9-0.4,27.3,7.4,40.2,16.4
		c7.8,5.2,13,7.8,22.1,6.9c1.7,0,3-2.2,3-3.9c3-17.7,2.6-36.4-0.9-54.1c1.7-0.4,3.5-0.4,5.6-0.9c3-0.9,6.1-1.3,8.7-1.7
		c4.8,4.3,9.1,8.7,13.8,12.5c3,6.9-1.3,20.8,0.9,29c3,12.1,12.1,24.7,25.5,26.4c10.8,1.3,18.6-6.1,21.6-16c3-10.4,0-21.6,6.1-31.6
		c6.1-10.4,22.9-18.2,34.6-19c27.7-2.6,21.2,23.4,39.4,33.8c11.7,6.9,23.4,0,31.6-8.7c6.5-6.9,15.6-26.4,26.4-25.5
		c3.5,3.5,6.5,6.5,10,10c-0.4,3.9-1.7,7.4-3,11.3c-1.3,4.3-3,8.7-3.9,13.4c-0.9,6.5-0.4,13,1.3,18.6
		c-121.6,4.3-243.6,39.8-336.3,116C125.8,291,121.9,289.3,118.5,286.7z M140.5,307.5c16,3.5,32.5,7.4,35.5,23.8
		c0.4,2.6,4.3,2.2,4.3-0.4c0.9-16.9-10.8-27.3-26-32.5c-0.4,0-1.3-0.4-1.7-0.4c22.5-17.3,46.3-32,71.4-45
		c-18.6,23.8-26,55.8-13,85.3c-38.5-10.4-82.2-4.3-118.1,14.3C107.6,336,123.7,321.3,140.5,307.5z M38.8,479.7
		c0-28.6,6.1-55.4,17.3-80.5c4.3-6.1,8.7-12.1,13.4-18.2c27.3-14.7,54.5-29.9,86.1-33.8c36.4-4.3,76.2,5.2,102.6,32
		c22.5,22.9,33.3,59.7,22.5,90.9c-12.1,34.6-43.7,48.5-77.5,50.6c1.7-14.7,0.9-29.4-7.4-42c-9.5-15.1-26.4-23.8-43.7-18.6
		c-2.2,0.4-3.9,2.6-4.3,4.8c-0.9,11.7-1.7,23.8-2.2,35.5c-0.4,5.2,0.9,13.4-0.9,17.7c-3,6.1-9.5,7.4-16.4,3.9
		c-13-6.5-19.9-22.1-33.3-28.6c-17.7-8.7-38.5-6.5-54.5,3.9C39.3,491.8,38.8,485.8,38.8,479.7z M230.1,705.2
		c-87.8-34.6-178.7-106.5-190-205.6c16.4-9.5,37.2-10.4,53.7,0c14.3,9.1,21.6,26.8,37.6,34.2c6.1,2.6,16.9,4.3,21.6-2.2
		c3.9-5.2,2.6-21.2,3-27.3c0.9-11.7,1.7-23.4,2.6-35.1c16.4-2.2,29.4,11.3,33.3,26.8c3.9,16.4-0.9,34.2-5.2,50.2
		c-0.9,3.9,2.2,9.1,6.9,7.4c12.1-4.3,25.1-9.5,38.1-6.9c6.1,0.9,14.3,3.5,17.7,9.1c0.9,5.6,2.2,10.8,3,16.4
		c-1.7,2.6-3.9,4.3-6.1,5.2c-5.2-5.2-12.1-6.9-19.5-3.5c-3.5,1.7-3.9,6.5-1.7,9.1c4.3,4.8,9.5,6.9,14.7,6.9
		c3.9,6.1,7.4,15.1,9.5,17.3c3.9,3.5,8.2,5.2,13.4,4.8c14.3-0.9,21.6-16.9,38.5-2.2c13,11.7,7.8,33.8,4.3,48.5
		c-0.9,4.3,2.2,9.1,6.9,7.8c17.7-4.8,36.4-2.2,51.5,8.2c16.9,11.7,22.9,30.7,32.9,47.6c7.4,13,18.6,24.2,32,28.6
		C360.8,742.8,293.3,730.3,230.1,705.2z M443.5,753.2c3.5-0.4,7.4-1.3,11.3-2.6c6.5-2.6,2.6-14.3-4.3-11.7
		c-39.4,13.4-50.2-49.3-72.3-69.2c-13.8-12.1-31.6-18.2-49.3-17.7c17.3-12.5,32.5-27.3,51.5-38.1c5.6-3.5,11.7-6.5,18.2-9.1
		c0,0,0,0.4,0.4,0.4c1.7,3,6.1,0.9,4.8-2.6c16.9-6.5,34.6-10.4,52.4-10c21.6,0.4,43.7,7.4,61.5,19.9c19.9,13.8,27.7,31.2,37.2,52.8
		c0,0.4,0.4,0.4,0.4,0.9c-2.2,5.6-3.9,11.3-5.2,17.7c-4.8,19.9-10.4,31.6-30.7,38.1c-14.7,4.8-29.9,8.2-32.5,25.5
		c-0.4,3.5-0.4,6.9,0.4,10.4C472.5,756.2,458.2,754.9,443.5,753.2z M1036.3,575.3c-10.8,24.2-26.4,46.7-45,66.2
		c-60.6,62.7-145,97.4-229.4,112.9c-86.1,15.6-174.8,13-261.8,4.8c-3-0.4-6.1-0.4-9.1-0.9c-0.9-6.5,3-15.1,7.4-18.6
		c6.9-5.6,16.9-6.9,25.5-9.5c9.1-3,17.3-6.5,23.4-13.4c11.3-13,19-79.6,46.3-59.3c4.3,3.5,11.3-2.6,8.2-7.4
		c-13.8-21.6-9.5-51.9,16-62.7c9.5-3.9,20.3-4.8,30.3-1.3c5.6,1.7,11.3,5.2,15.1,9.5c3,3,4.8,7.8,5.6,12.5c-3-1.3-6.1-3-9.1-5.2
		c-2.6-2.2-7.4-0.4-8.2,3c-1.7,7.4-3.5,15.1-4.8,22.5c-0.9,3.9,1.3,6.9,5.2,7.4c12.1,2.2,22.5-4.8,27.3-14.7
		c13.4,0.9,27.7-2.6,40.7-6.5c13.4-3.9,27.3-9.1,41.1-9.1c18.6-0.4,27.7,12.1,42.4,21.2c18.6,11.3,38.9-1.3,31.2-23.4
		c-5.2-14.3-20.3-17.7-27.3-30.3c-8.7-16,1.7-29,16.9-33.3c3,0.9,6.5,1.7,9.5,2.2c1.7,0,2.6-1.7,2.2-3c12.5,0.9,26,7.8,36.4,13.4
		c2.6,1.3,6.1,1.7,8.2-0.9c7.4-8.7,15.6-15.1,25.5-19.9c4.8,7.8,6.1,16.4,4.8,25.1c-1.3,3-2.2,6.1-2.6,9.5c0,0,0,0,0,0.4l0,0
		c0,0.4-0.4,1.3-0.4,1.7c-1.3,8.2,10.8,9.1,13.8,2.6c1.7-4.3,3-8.7,3.5-13.4c15.1-35.1,67.1-25.1,98.7-16.4c2.2,3.5,6.5,6.9,9.5,9.5
		c3,2.6,5.6,5.2,8.7,7.4C1040.2,563.2,1038.1,569.3,1036.3,575.3z M667.2,618.2c-1.7,3-3.9,4.8-8.2,5.6c0.4-2.6,0.9-5.6,1.3-8.2
		C662.4,616.9,664.6,617.8,667.2,618.2z M1047.2,541.2c-0.4,1.3-0.9,2.6-1.3,3.9c-2.2-1.3-3.9-2.6-6.1-4.3c-1.3-0.9-2.2-1.7-3.5-2.6
		c2.2-3.5,1.3-8.2-3.5-10c-1.3-0.4-2.2-0.9-3.5-0.9c7.4-4.3,13.8-9.1,20.8-14.3c0,1.3,0,2.6,0,3.5
		C1050.2,525.1,1048.9,533.4,1047.2,541.2z M1054.9,441.2c-4.8-14.7-10.8-29-18.6-42.4c3.5,0.9,6.5,1.7,10,3
		C1062.7,409.2,1060.1,426.5,1054.9,441.2z"/>
</g>
</svg>
