<?xml version="1.0" encoding="utf-8"?>
<!-- Generator: Adobe Illustrator 22.0.0, SVG Export Plug-In . SVG Version: 6.00 Build 0)  -->
<svg version="1.1" id="Layer_1" xmlns="http://www.w3.org/2000/svg" xmlns:xlink="http://www.w3.org/1999/xlink" x="0px" y="0px"
	 viewBox="0 0 496 496" style="enable-background:new 0 0 496 496;" xml:space="preserve">
<style type="text/css">
	.st0{fill:#DDC300;}
</style>
<g>
	<g>
		<path class="st0" d="M424,352c0-11.9-5.3-22.5-13.6-29.8c3.5-5.1,5.6-11.3,5.6-18v-4.3c0-3.4-0.6-6.8-1.6-10.1l-34-102
			c-8.7-26.2-33.1-43.8-60.7-43.8h-26.5c16.3-13.2,26.8-33.4,26.8-56V62c0-34.2-27.8-62-62-62H238c-34.2,0-62,27.8-62,62v26
			c0,22.6,10.5,42.8,26.8,56h-26.5c-27.6,0-52,17.6-60.7,43.8l-34,102c-1.1,3.3-1.6,6.6-1.6,10.1v4.3c0,6.7,2.1,12.9,5.6,18
			C77.3,329.5,72,340.1,72,352H40v128h128v16h72h8h80v-16h128V352H424z M408,352h-48c0-8,3.9-15,9.9-19.4c4.3,2.2,9.2,3.4,14.2,3.4
			c5,0,9.7-1.3,13.9-3.3C404.1,337,408,344,408,352z M399.2,294.9c0.5,1.6,0.8,3.3,0.8,5v4.3c0,3.8-1.4,7.3-3.7,10
			c-3.9-1.3-8-2.1-12.3-2.1c-4.3,0-8.3,0.9-12.2,2.1c-1-1.2-1.8-2.6-2.4-4.1l-29.9-74.8l34.1-17.1L399.2,294.9z M357.8,322
			c-8.4,7.3-13.8,18-13.8,30h-16V249.6l26.6,66.4C355.4,318.1,356.6,320.1,357.8,322z M192,62c0-25.4,20.6-46,46-46H258
			c25.4,0,46,20.6,46,46v3.1c-4.3-3.7-8.2-7.9-11.5-12.9c-5.1-7.7-13.7-12.3-22.9-12.3h-43.1c-9.2,0-17.8,4.6-23.2,12.7
			c-3.1,4.7-7,8.9-11.3,12.5V62z M192,88v-3.4c9.8-5.8,18.3-13.6,24.9-23.4c2.1-3.2,5.7-5.1,9.6-5.1h43.1c3.9,0,7.5,1.9,9.9,5.6
			c6.3,9.5,14.8,17.3,24.6,23V88c0,30.9-25.1,56-56,56S192,118.9,192,88z M278,160c-4.4,9.3-16.1,16-30,16s-25.6-6.7-30-16h30H278z
			 M96,299.9c0-1.7,0.3-3.4,0.8-5l25.6-76.7l34.1,17.1L126.6,310c-0.6,1.5-1.4,2.9-2.4,4.1c-3.9-1.3-7.9-2.1-12.2-2.1
			c-4.3,0-8.4,0.9-12.3,2.2c-2.2-2.7-3.7-6.2-3.7-10V299.9z M97.9,332.7c4.2,2.1,8.9,3.3,13.9,3.3c5.1,0,9.9-1.2,14.2-3.4
			c6,4.4,9.9,11.4,9.9,19.4H88C88,344,91.9,337,97.9,332.7z M168,464H56v-96h16v16h16v-16h48v16h16v-16h16V464z M168,352h-16
			c0-12-5.4-22.7-13.8-30c1.3-1.9,2.4-3.8,3.3-6l26.6-66.4V352z M240,480h-56v-16h56V480z M312,480h-56v-16h56V480z M312,448h-56
			v-88h-16v88h-56v-80.8c18.2-3.7,32-19.9,32-39.2h64c0,19.3,13.8,35.5,32,39.2V448z M184,350.5V328h16
			C200,338.4,193.3,347.2,184,350.5z M312,350.5c-9.3-3.3-16-12.1-16-22.5h16V350.5z M312,200v112H184V200h-16v6.5l-5.5,13.8
			l-35-17.5l3.3-10c6.6-19.6,24.9-32.8,45.5-32.8H201c4.5,18.2,23.8,32,47,32s42.6-13.8,47-32h24.6c20.7,0,39,13.2,45.5,32.8l3.3,10
			l-35,17.5l-5.5-13.8V200H312z M440,464H328v-96h16v16h16v-16h48v16h16v-16h16V464z"/>
	</g>
</g>
</svg>
