<?xml version="1.0" encoding="utf-8"?>
<!-- Generator: Adobe Illustrator 22.0.0, SVG Export Plug-In . SVG Version: 6.00 Build 0)  -->
<svg version="1.1" id="Capa_1" xmlns="http://www.w3.org/2000/svg" xmlns:xlink="http://www.w3.org/1999/xlink" x="0px" y="0px"
	 viewBox="0 0 512 512" style="enable-background:new 0 0 512 512;" xml:space="preserve">
<style type="text/css">
	.st0{fill:#DDC300;}
</style>
<g>
	<g>
		<path class="st0" d="M386,340h-52.5v-31.3c30.4-23.3,50-60,50-101.2V185H396c4.1,0,7.5-3.4,7.5-7.5c0-7.3-7.2-15.3-20-22.6v-27.4
			C383.5,57.2,326.3,0,256,0S128.5,57.2,128.5,127.5v27.4c-12.8,7.3-20,15.3-20,22.6c0,4.1,3.4,7.5,7.5,7.5h12.5v22.5
			c0,41.2,19.6,77.8,50,101.2V340H126c-31.7,0-57.5,25.8-57.5,57.5c0,0,0,0,0,0.1v39.9c0,4.1,3.4,7.5,7.5,7.5c4.1,0,7.5-3.4,7.5-7.5
			v-40c0,0,0,0,0,0c0-23.4,19.1-42.5,42.5-42.5h57.7l28.1,18.7c0.1,0.1,0.2,0.1,0.3,0.2c0.1,0.1,0.3,0.2,0.4,0.3
			c0.2,0.1,0.4,0.2,0.6,0.3c0.1,0.1,0.3,0.1,0.4,0.2c0.2,0.1,0.5,0.1,0.8,0.2c0.1,0,0.3,0.1,0.4,0.1c0.4,0.1,0.7,0.1,1.1,0.1
			c0,0,0,0,0.1,0c0.4,0,0.8,0,1.2-0.1c0.2,0,0.4-0.1,0.6-0.1c0,0,0,0,0,0l38.2-9.5l38.2,9.5c0,0,0,0,0,0c0.2,0,0.4,0.1,0.6,0.1
			c0.4,0.1,0.8,0.1,1.2,0.1c0,0,0,0,0.1,0c0.4,0,0.7,0,1.1-0.1c0.1,0,0.3-0.1,0.4-0.1c0.3-0.1,0.5-0.1,0.8-0.2
			c0.1,0,0.3-0.1,0.4-0.2c0.2-0.1,0.4-0.2,0.6-0.3c0.2-0.1,0.3-0.2,0.4-0.3c0.1-0.1,0.2-0.1,0.3-0.2l28.1-18.7H386
			c23.4,0,42.5,19.1,42.5,42.5V497h-45v-53.5c0-0.2,0-0.5,0-0.7c0-0.1,0-0.2,0-0.3c0-0.1,0-0.3-0.1-0.4c0-0.1-0.1-0.2-0.1-0.4
			c0-0.1-0.1-0.2-0.1-0.4c0-0.1-0.1-0.2-0.1-0.3c0-0.1-0.1-0.2-0.1-0.3c0-0.1-0.1-0.2-0.1-0.3c-0.1-0.1-0.1-0.2-0.2-0.4
			c-0.1-0.1-0.1-0.2-0.2-0.3c-0.1-0.1-0.1-0.2-0.2-0.3c-0.1-0.1-0.1-0.2-0.2-0.3c-0.1-0.1-0.1-0.2-0.2-0.3c-0.1-0.2-0.3-0.3-0.4-0.5
			c0,0-0.1-0.1-0.1-0.1l-30-30c0,0-0.1,0-0.1-0.1c-0.1-0.1-0.3-0.3-0.5-0.4c-0.1-0.1-0.2-0.1-0.3-0.2c-0.1-0.1-0.2-0.2-0.3-0.2
			c-0.1-0.1-0.2-0.1-0.3-0.2c-0.1-0.1-0.2-0.1-0.3-0.2c-0.1-0.1-0.2-0.1-0.3-0.2c-0.1-0.1-0.2-0.1-0.3-0.2c-0.1,0-0.2-0.1-0.3-0.1
			c-0.1,0-0.3-0.1-0.4-0.1c-0.1,0-0.2-0.1-0.3-0.1c-0.1,0-0.3-0.1-0.4-0.1c-0.1,0-0.2,0-0.3-0.1c-0.1,0-0.3,0-0.4-0.1
			c-0.2,0-0.4,0-0.6,0c-0.1,0-0.1,0-0.2,0H166c0,0-0.1,0-0.1,0c-0.2,0-0.4,0-0.6,0c-0.1,0-0.2,0-0.4,0.1c-0.1,0-0.2,0-0.4,0.1
			c-0.1,0-0.3,0.1-0.4,0.1c-0.1,0-0.2,0-0.3,0.1c-0.1,0-0.3,0.1-0.4,0.1c-0.1,0-0.2,0.1-0.3,0.1c-0.1,0.1-0.2,0.1-0.4,0.2
			c-0.1,0-0.2,0.1-0.3,0.1c-0.1,0.1-0.2,0.1-0.3,0.2c-0.1,0.1-0.2,0.1-0.3,0.2c-0.1,0.1-0.2,0.2-0.4,0.3c-0.1,0.1-0.1,0.1-0.2,0.2
			c-0.2,0.2-0.4,0.3-0.6,0.5l-30,30c-0.2,0.2-0.3,0.4-0.5,0.6c-0.1,0.1-0.1,0.2-0.2,0.2c-0.1,0.1-0.2,0.2-0.3,0.3
			c-0.1,0.1-0.1,0.2-0.2,0.3c-0.1,0.1-0.1,0.2-0.2,0.3c-0.1,0.1-0.1,0.2-0.2,0.3c-0.1,0.1-0.1,0.2-0.2,0.3c0,0.1-0.1,0.2-0.1,0.3
			c0,0.1-0.1,0.2-0.1,0.4c0,0.1-0.1,0.2-0.1,0.4c0,0.1-0.1,0.2-0.1,0.4c0,0.1,0,0.3-0.1,0.4c0,0.1,0,0.2,0,0.3c0,0.2,0,0.5,0,0.7
			V497h-45v-29.5c0-4.1-3.4-7.5-7.5-7.5c-4.1,0-7.5,3.4-7.5,7.5v36.9c0,0,0,0,0,0.1c0,3.4,2.3,6.3,5.4,7.2c0.7,0.2,1.4,0.3,2.1,0.3
			c0,0,0,0,0,0H436c0,0,0,0,0,0c4.1,0,7.5-3.4,7.5-7.5v-107C443.5,365.8,417.7,340,386,340z M143.5,127.5C143.5,65.5,194,15,256,15
			s112.5,50.5,112.5,112.5v20.2c-0.8-0.3-1.5-0.6-2.3-0.9C346.6,139.1,311.5,130,256,130s-90.6,9.1-110.2,16.8
			c-0.8,0.3-1.5,0.6-2.3,0.9L143.5,127.5L143.5,127.5z M154.8,159.4C173,152.8,205.4,145,256,145s83,7.8,101.2,14.4
			c9.9,3.6,17.2,7.3,22.2,10.6H132.6C137.6,166.7,144.9,163,154.8,159.4z M248.5,351.7l-31.1,7.8l-23.9-15.9v-24.9
			c16.4,9.3,35.1,15,55,16.2V351.7z M318.5,343.5l-23.9,15.9l-31.1-7.8v-16.9c19.9-1.2,38.6-6.9,55-16.2L318.5,343.5L318.5,343.5z
			 M257.5,320c-0.5-0.1-1-0.2-1.5-0.2c-0.5,0-1,0.1-1.5,0.2c-61.3-0.8-111-51-111-112.5V185h225v22.5
			C368.5,269,318.9,319.2,257.5,320z M169.1,421h173.8l15,15H154.1L169.1,421z M368.5,497h-225v-46h225L368.5,497L368.5,497z"/>
	</g>
</g>
<g>
	<g>
		<path class="st0" d="M256,50c-15.2,0-27.5,12.3-27.5,27.5S240.8,105,256,105s27.5-12.3,27.5-27.5C283.5,62.3,271.2,50,256,50z
			 M256,90c-6.9,0-12.5-5.6-12.5-12.5S249.1,65,256,65c6.9,0,12.5,5.6,12.5,12.5S262.9,90,256,90z"/>
	</g>
</g>
</svg>
