<?xml version="1.0" encoding="utf-8"?>
<!-- Generator: Adobe Illustrator 22.0.0, SVG Export Plug-In . SVG Version: 6.00 Build 0)  -->
<svg version="1.1" id="Capa_1" xmlns="http://www.w3.org/2000/svg" xmlns:xlink="http://www.w3.org/1999/xlink" x="0px" y="0px"
	 viewBox="0 0 512 512" style="enable-background:new 0 0 512 512;" xml:space="preserve">
<style type="text/css">
	.st0{fill:#DDC300;}
</style>
<path class="st0" d="M495.4,160.5H352.6v-68V52.3c0-1.2-0.1-2.3-0.2-3.4c-1.7-16.9-16-30.1-33.3-30.1h0H117.5h-0.2
	c-0.8,0-1.5,0.1-2.2,0.3C103.3,11.1,89,6.4,73.6,6.4C33,6.4,0,39.4,0,80c0,39.6,31.5,72,70.7,73.6v70.2c0,4.2,3.4,7.5,7.5,7.5
	s7.5-3.4,7.5-7.5v-71.2c28.2-4.7,51-25.5,58.7-52.6h193.1v60.5H219.5c-0.5,0-1,0-1.5,0.1v-25.9c0-4.2-3.4-7.5-7.5-7.5
	s-7.5,3.4-7.5,7.5v42.4v169.6v43c0,4.2,3.4,7.5,7.5,7.5s7.5-3.4,7.5-7.5v-26.5c0.5,0,1,0.1,1.5,0.1h118.1v61.3H85.8V256
	c0-4.2-3.4-7.5-7.5-7.5s-7.5,3.4-7.5,7.5v176v40.2c0,18.5,15,33.5,33.5,33.5h214.9h0c17.3,0,31.6-13.2,33.3-30.1
	c0.1-1.1,0.2-2.3,0.2-3.4V432v-68.8h45.5c4.2,0,7.5-3.4,7.5-7.5c0-4.2-3.4-7.5-7.5-7.5H219.5c-0.8,0-1.5-0.7-1.5-1.5V177.1
	c0-0.8,0.7-1.5,1.5-1.5h275.9c0.8,0,1.5,0.7,1.5,1.5v169.6c0,0.8-0.7,1.5-1.5,1.5h-64.4c-4.2,0-7.5,3.4-7.5,7.5
	c0,4.2,3.4,7.5,7.5,7.5h64.4c9.1,0,16.6-7.4,16.6-16.6V177.1C512,167.9,504.6,160.5,495.4,160.5L495.4,160.5z M73.6,138.6
	c-32.3,0-58.6-26.3-58.6-58.6s26.3-58.6,58.6-58.6c32.3,0,58.6,26.3,58.6,58.6S105.9,138.6,73.6,138.6z M147.1,84.9
	c0.1-1.6,0.2-3.3,0.2-5c0-17.4-6.1-33.5-16.3-46.1h188.1c8.9,0,16.3,6.3,18.1,14.7c0.2,1.2,0.4,2.4,0.4,3.7v32.6L147.1,84.9
	L147.1,84.9z M104.2,490.6c-10.2,0-18.4-8.3-18.4-18.4v-32.6h251.8v32.6c0,1.3-0.1,2.5-0.4,3.7c-1.7,8.4-9.2,14.7-18.1,14.7H104.2z"
	/>
<path class="st0" d="M426.4,260.3c5.4,3.3,11.7,5.2,18.5,5.2c19.6,0,35.6-16,35.6-35.6s-16-35.6-35.6-35.6c-6.8,0-13.1,1.9-18.5,5.2
	c-5.5-3.4-11.9-5.2-18.5-5.2c-19.6,0-35.6,16-35.6,35.6s16,35.6,35.6,35.6C414.5,265.5,420.9,263.7,426.4,260.3z M465.5,229.9
	c0,11.3-9.2,20.6-20.6,20.6c-11.3,0-20.6-9.2-20.6-20.6c0-11.3,9.2-20.6,20.6-20.6S465.5,218.6,465.5,229.9z M387.3,229.9
	c0-11.3,9.2-20.6,20.6-20.6c2.5,0,4.9,0.4,7.1,1.3c-3.6,5.6-5.7,12.2-5.7,19.3s2.1,13.7,5.7,19.3c-2.3,0.8-4.7,1.3-7.1,1.3
	C396.6,250.5,387.3,241.2,387.3,229.9z"/>
<path class="st0" d="M320.5,263.5c9.1,0,16.6-7.4,16.6-16.6v-34.1c0-9.1-7.4-16.6-16.6-16.6h-65.8c-9.1,0-16.6,7.4-16.6,16.6v34.1
	c0,9.1,7.4,16.6,16.6,16.6H320.5z M253.2,246.9v-34.1c0-0.8,0.7-1.5,1.5-1.5h65.8c0.8,0,1.5,0.7,1.5,1.5v34.1c0,0.8-0.7,1.5-1.5,1.5
	h-65.8C253.9,248.4,253.2,247.8,253.2,246.9z"/>
<path class="st0" d="M233.1,295.2v11.2c0,9.1,7.4,16.6,16.6,16.6h218.4c9.1,0,16.6-7.4,16.6-16.6v-11.2c0-9.1-7.4-16.6-16.6-16.6
	H249.7C240.5,278.6,233.1,286,233.1,295.2L233.1,295.2z M248.2,295.2c0-0.8,0.7-1.5,1.5-1.5h218.4c0.8,0,1.5,0.7,1.5,1.5v11.2
	c0,0.8-0.7,1.5-1.5,1.5H249.7c-0.8,0-1.5-0.7-1.5-1.5L248.2,295.2z"/>
<path class="st0" d="M89.9,59.6L67.7,83.7l-10-12.4c-2.6-3.2-7.3-3.8-10.6-1.2c-3.2,2.6-3.8,7.3-1.2,10.6L61.4,100
	c1.4,1.7,3.4,2.7,5.6,2.8c0.1,0,0.2,0,0.3,0c2.1,0,4.1-0.9,5.5-2.4L101,69.8c2.8-3.1,2.6-7.8-0.4-10.6S92.7,56.6,89.9,59.6z"/>
</svg>
