<?xml version="1.0" encoding="utf-8"?>
<!-- Generator: Adobe Illustrator 22.0.0, SVG Export Plug-In . SVG Version: 6.00 Build 0)  -->
<svg version="1.1" id="Capa_1" xmlns="http://www.w3.org/2000/svg" xmlns:xlink="http://www.w3.org/1999/xlink" x="0px" y="0px"
	 viewBox="0 0 512 512" style="enable-background:new 0 0 512 512;" xml:space="preserve">
<style type="text/css">
	.st0{fill:#DDC300;}
</style>
<g>
	<g>
		<path class="st0" d="M489.5,218.5H482V196v-80c0-26.2-21.3-47.5-47.5-47.5h-206l-139-39.7c0,0-0.1,0-0.1,0c0,0-0.1,0-0.1,0
			c-0.1,0-0.2,0-0.3,0c-0.1,0-0.3-0.1-0.4-0.1c-0.1,0-0.2,0-0.3,0c-0.1,0-0.3,0-0.4,0c-0.1,0-0.2,0-0.3,0c-0.1,0-0.3,0-0.4,0
			c-0.1,0-0.2,0-0.3,0c-0.1,0-0.3,0-0.4,0c-0.1,0-0.2,0-0.3,0c-0.1,0-0.3,0.1-0.4,0.1c-0.1,0-0.2,0-0.3,0.1c-0.1,0-0.3,0.1-0.4,0.1
			c-0.1,0-0.2,0.1-0.2,0.1c-0.1,0.1-0.3,0.1-0.4,0.2c-0.1,0-0.1,0.1-0.2,0.1c-0.1,0.1-0.3,0.1-0.4,0.2c-0.1,0-0.1,0.1-0.2,0.1
			c-0.1,0.1-0.3,0.2-0.4,0.3c-0.1,0-0.1,0.1-0.2,0.2c-0.1,0.1-0.2,0.2-0.4,0.3c-0.1,0.1-0.1,0.1-0.2,0.2c-0.1,0.1-0.2,0.2-0.3,0.3
			c-0.1,0.1-0.1,0.1-0.2,0.2c-0.1,0.1-0.2,0.2-0.3,0.3c-0.1,0.1-0.1,0.2-0.2,0.3c-0.1,0.1-0.2,0.2-0.2,0.3c-0.1,0.1-0.1,0.2-0.2,0.3
			c-0.1,0.1-0.1,0.2-0.2,0.3c-0.1,0.1-0.1,0.2-0.2,0.3c-0.1,0.1-0.1,0.2-0.1,0.3c0,0.1-0.1,0.2-0.1,0.4c0,0.1-0.1,0.2-0.1,0.2
			c0,0,0,0.1,0,0.1c0,0,0,0.1,0,0.1l-8.6,34.3H47.5C21.4,68.5,0.1,89.7,0,115.8c0,0.1,0,0.1,0,0.2v260c0,4.1,3.4,7.5,7.5,7.5
			c4.1,0,7.5-3.4,7.5-7.5V150.6c8.5,8,19.9,12.9,32.5,12.9h387c0,0,0,0,0,0c17.9,0,32.5,14.6,32.5,32.5v52.5h-82.5c0,0,0,0,0,0
			c-0.2,0-0.4,0-0.6,0c-0.2,0-0.5,0.1-0.7,0.1c0,0-0.1,0-0.1,0c-0.2,0-0.4,0.1-0.6,0.1c0,0-0.1,0-0.1,0c-0.2,0.1-0.3,0.1-0.5,0.2
			c-0.1,0-0.1,0-0.2,0.1c-0.1,0.1-0.3,0.1-0.4,0.2c-0.1,0-0.2,0.1-0.3,0.1c-0.1,0.1-0.2,0.1-0.3,0.2c-0.1,0.1-0.2,0.1-0.3,0.2
			c-0.1,0-0.1,0.1-0.2,0.2c-0.1,0.1-0.3,0.2-0.4,0.3c-0.1,0-0.1,0.1-0.2,0.1c-0.1,0.1-0.3,0.2-0.4,0.4c-0.1,0.1-0.1,0.2-0.2,0.2
			c-0.1,0.1-0.2,0.2-0.3,0.3c-0.2,0.2-0.3,0.4-0.4,0.6c0,0,0,0,0,0l-40,60c-0.3,0.4-0.5,0.9-0.7,1.3c-0.1,0.2-0.1,0.3-0.2,0.5
			c0,0.1,0,0.1-0.1,0.2c-0.1,0.2-0.1,0.4-0.1,0.6c0,0,0,0.1,0,0.1c0,0.2-0.1,0.3-0.1,0.5c0,0.1,0,0.1,0,0.2c0,0.1,0,0.3,0,0.4
			c0,0.1,0,0.2,0,0.3c0,0.1,0,0.2,0,0.3c0,0.1,0,0.3,0,0.4c0,0.1,0,0.1,0,0.2c0,0.2,0,0.3,0.1,0.5c0,0,0,0.1,0,0.1
			c0,0.2,0.1,0.4,0.1,0.6c0,0.1,0,0.1,0.1,0.2c0.1,0.2,0.1,0.3,0.2,0.5c0.2,0.5,0.4,0.9,0.7,1.3l40,60c0,0,0,0,0,0
			c0.2,0.2,0.3,0.5,0.5,0.7c0.1,0.1,0.1,0.1,0.2,0.2c0.1,0.1,0.3,0.3,0.4,0.4c0.1,0.1,0.2,0.1,0.2,0.2c0.1,0.1,0.3,0.2,0.5,0.4
			c0.1,0.1,0.1,0.1,0.2,0.2c0.2,0.2,0.5,0.3,0.7,0.4c0.1,0,0.1,0.1,0.2,0.1c0.2,0.1,0.4,0.2,0.6,0.3c0.1,0,0.2,0.1,0.2,0.1
			c0.2,0.1,0.4,0.1,0.6,0.2c0.1,0,0.2,0,0.2,0.1c0.2,0,0.4,0.1,0.6,0.1c0.1,0,0.2,0,0.2,0c0.3,0,0.5,0,0.8,0c0,0,0,0,0.1,0
			c0,0,0,0,0,0H467V436c0,17.9-14.6,32.5-32.5,32.5h-387C29.6,468.5,15,453.9,15,436c0,0,0-0.1,0-0.1V406c0-4.1-3.4-7.5-7.5-7.5
			c-4.1,0-7.5,3.4-7.5,7.5v30c0,0.1,0,0.2,0,0.2c0.1,26.1,21.4,47.3,47.5,47.3h387c26.2,0,47.5-21.3,47.5-47.5c0,0,0,0,0,0v-52.5
			h7.5c12.4,0,22.5-10.1,22.5-22.5V241C512,228.6,501.9,218.5,489.5,218.5z M92.9,45.3l132.3,37.8c0,0,0,0,0,0l88.7,25.3H77.1
			L92.9,45.3z M467,161.4c-8.5-8-19.9-12.9-32.5-12.9c0,0,0,0,0,0h-387C29.6,148.5,15,133.9,15,116s14.6-32.5,32.5-32.5h20.4
			l-6.3,25H47.5c-4.1,0-7.5,3.4-7.5,7.5s3.4,7.5,7.5,7.5h20c0,0,0,0,0,0c0,0,0,0,0,0h299.9c0,0,0,0,0,0c0,0,0,0,0,0h57
			c4.1,0,7.5-3.4,7.5-7.5s-3.4-7.5-7.5-7.5h-55.9l-87.5-25h153.5c17.9,0,32.5,14.6,32.5,32.5V161.4z M497,361L497,361
			c0,4.1-3.4,7.5-7.5,7.5h-101l-35-52.5l35-52.5h101c0.1,0,0.2,0,0.3,0c2.5,0,4.9-0.5,7.2-1.3L497,361L497,361z M489.5,248.5
			c-0.1,0-0.1,0-0.2,0H482v-15h7.5c4.1,0,7.5,3.4,7.5,7.5S493.6,248.5,489.5,248.5z"/>
	</g>
</g>
<g>
	<g>
		<path class="st0" d="M414.5,288.5c-15.2,0-27.5,12.3-27.5,27.5s12.3,27.5,27.5,27.5S442,331.2,442,316
			C442,300.8,429.7,288.5,414.5,288.5z M414.5,328.5c-6.9,0-12.5-5.6-12.5-12.5s5.6-12.5,12.5-12.5S427,309.1,427,316
			S421.4,328.5,414.5,328.5z"/>
	</g>
</g>
</svg>
