<?xml version="1.0" encoding="utf-8"?>
<!-- Generator: Adobe Illustrator 22.0.0, SVG Export Plug-In . SVG Version: 6.00 Build 0)  -->
<svg version="1.1" id="Слой_1" xmlns="http://www.w3.org/2000/svg" xmlns:xlink="http://www.w3.org/1999/xlink" x="0px" y="0px"
	 viewBox="0 0 511 511" style="enable-background:new 0 0 511 511;" xml:space="preserve">
<style type="text/css">
	.st0{fill:#DDC300;}
</style>
<path class="st0" d="M186.9,307.7h-28c-4.1,0-7.5,3.4-7.5,7.5v28c0,4.1,3.4,7.5,7.5,7.5h28c4.1,0,7.5-3.4,7.5-7.5v-28
	C194.4,311.1,191.1,307.7,186.9,307.7z M179.4,335.7h-13v-13h13V335.7z"/>
<path class="st0" d="M240.7,307.7h-28c-4.1,0-7.5,3.4-7.5,7.5v28c0,4.1,3.4,7.5,7.5,7.5h28c4.1,0,7.5-3.4,7.5-7.5v-28
	C248.2,311.1,244.8,307.7,240.7,307.7z M233.2,335.7h-13v-13h13V335.7z"/>
<path class="st0" d="M294.4,307.7h-28c-4.1,0-7.5,3.4-7.5,7.5v28c0,4.1,3.4,7.5,7.5,7.5h28c4.1,0,7.5-3.4,7.5-7.5v-28
	C301.9,311.1,298.6,307.7,294.4,307.7z M286.9,335.7h-13v-13h13V335.7z"/>
<path class="st0" d="M186.9,361.9h-28c-4.1,0-7.5,3.4-7.5,7.5v28c0,4.1,3.4,7.5,7.5,7.5h28c4.1,0,7.5-3.4,7.5-7.5v-28
	C194.4,365.3,191.1,361.9,186.9,361.9z M179.4,389.9h-13v-13h13V389.9z"/>
<path class="st0" d="M240.7,361.9h-28c-4.1,0-7.5,3.4-7.5,7.5v28c0,4.1,3.4,7.5,7.5,7.5h28c4.1,0,7.5-3.4,7.5-7.5v-28
	C248.2,365.3,244.8,361.9,240.7,361.9z M233.2,389.9h-13v-13h13V389.9z"/>
<path class="st0" d="M294.4,361.9h-28c-4.1,0-7.5,3.4-7.5,7.5v28c0,4.1,3.4,7.5,7.5,7.5h28c4.1,0,7.5-3.4,7.5-7.5v-28
	C301.9,365.3,298.6,361.9,294.4,361.9z M286.9,389.9h-13v-13h13V389.9z"/>
<path class="st0" d="M186.9,416.2h-28c-4.1,0-7.5,3.4-7.5,7.5v28c0,4.1,3.4,7.5,7.5,7.5h28c4.1,0,7.5-3.4,7.5-7.5v-28
	C194.4,419.5,191.1,416.2,186.9,416.2z M179.4,444.1h-13v-13h13V444.1z"/>
<path class="st0" d="M240.7,416.2h-28c-4.1,0-7.5,3.4-7.5,7.5v28c0,4.1,3.4,7.5,7.5,7.5h28c4.1,0,7.5-3.4,7.5-7.5v-28
	C248.2,419.5,244.8,416.2,240.7,416.2z M233.2,444.1h-13v-13h13V444.1z"/>
<path class="st0" d="M294.4,416.2h-28c-4.1,0-7.5,3.4-7.5,7.5v28c0,4.1,3.4,7.5,7.5,7.5h28c4.1,0,7.5-3.4,7.5-7.5v-28
	C301.9,419.5,298.6,416.2,294.4,416.2z M286.9,444.1h-13v-13h13V444.1z"/>
<path class="st0" d="M386.3,180.7v216.7c0,4.1,3.4,7.5,7.5,7.5c4.1,0,7.5-3.4,7.5-7.5V180.7c0-4.1-3.4-7.5-7.5-7.5
	C389.6,173.2,386.3,176.5,386.3,180.7z"/>
<path class="st0" d="M156.4,156.2h70.3c4.1,0,7.5-3.4,7.5-7.5s-3.4-7.5-7.5-7.5h-70.3c-12.9,0-23.5,10.5-23.5,23.5V230
	c0,12.9,10.5,23.5,23.5,23.5h140.5c12.9,0,23.5-10.5,23.5-23.5v-65.3c0-12.9-10.5-23.5-23.5-23.5h-42.3c-4.1,0-7.5,3.4-7.5,7.5
	s3.4,7.5,7.5,7.5h42.3c4.7,0,8.5,3.8,8.5,8.5V230c0,4.7-3.8,8.5-8.5,8.5H156.4c-4.7,0-8.5-3.8-8.5-8.5v-65.3
	C147.9,160,151.7,156.2,156.4,156.2z"/>
<path class="st0" d="M423.5,269.5c4.1,0,7.5-3.4,7.5-7.5V156.9c0-14.9-12.1-27-27-27h-31.5v-28.2c0-18.6-15.1-33.7-33.7-33.7h-18.4
	v-6.8c0-10.9-8.9-19.8-19.8-19.8h-21.1V11.2c0-4-2.1-7.6-5.5-9.4c-6.8-3.5-11.7,2.3-13.3,3.1l-5.8-4.1c-3.4-2.4-7.7-2.4-11.1,0
	L238,4.9l-5.8-4.1c-3.4-2.4-7.7-2.4-11.1,0l-5.8,4.1l-5.8-4.1c-3.4-2.4-7.7-2.4-11.1,0l-5.8,4.1l-3.3-2.4c0,0,0,0,0,0
	c-6.5-4.6-15.5,0.2-15.5,8.7v30.2h-21.1c-10.9,0-19.8,8.9-19.8,19.8V68h-18.4C96,68,80.8,83.1,80.8,101.7v300.8
	c0,4.1,3.4,7.5,7.5,7.5c4.1,0,7.5-3.4,7.5-7.5V101.7c0-10.3,8.4-18.7,18.7-18.7H133v25.5c0,10.9,8.9,19.8,19.8,19.8h147.8
	c10.9,0,19.8-8.9,19.8-19.8V83h18.4c10.3,0,18.7,8.4,18.7,18.7v374.6c0,10.3-8.4,18.7-18.7,18.7h-7.7V299.9
	c0-14.4-11.7-26.1-26.1-26.1H143.4c-14.4,0-26.1,11.7-26.1,26.1V495h-2.7c-10.3,0-18.7-8.4-18.7-18.7v-45.9c0-4.1-3.4-7.5-7.5-7.5
	c-4.1,0-7.5,3.4-7.5,7.5v45.9c0,18.6,15.1,33.7,33.7,33.7h224.3c18.6,0,33.7-15.1,33.7-33.7v-23.7H404c14.9,0,27-12.1,27-27V290
	c0-4.1-3.4-7.5-7.5-7.5c-4.1,0-7.5,3.4-7.5,7.5v135.6c0,6.6-5.4,12-12,12h-31.5V144.9H404c6.6,0,12,5.4,12,12V262
	C416,266.2,419.3,269.5,423.5,269.5z M188.9,20.3c7,3.1,11.5-3.1,15.2-5l5.8,4.1c3.4,2.4,7.7,2.4,11.1,0l5.8-4.1l5.8,4.1
	c3.4,2.4,7.7,2.4,11.1,0l5.8-4.1c3.7,1.9,8.2,8.1,15.2,5v63.2h-75.7V20.3z M305.4,108.4c0,2.7-2.2,4.8-4.8,4.8H152.8
	c-2.7,0-4.8-2.2-4.8-4.8V61.1c0-2.7,2.2-4.8,4.8-4.8h21.1v27.1h-9.4c-4.1,0-7.5,3.4-7.5,7.5c0,4.1,3.4,7.5,7.5,7.5h124.4
	c4.1,0,7.5-3.4,7.5-7.5c0-4.1-3.4-7.5-7.5-7.5h-9.4V56.3h21.1c2.7,0,4.8,2.2,4.8,4.8V108.4z M132.3,495V299.9
	c0-6.2,5-11.2,11.2-11.2h161.5c6.1,0,11.2,5,11.2,11.2V495H132.3z"/>
</svg>
